<svg width="24" height="24" viewBox="0 0 24 24" fill="none" xmlns="http://www.w3.org/2000/svg">
<g clip-path="url(#clip0)">
<path d="M10.1979 19.655V14.655H14.1979V19.655C14.1979 20.205 14.6479 20.655 15.1979 20.655H18.1979C18.7479 20.655 19.1979 20.205 19.1979 19.655V12.655H20.8979C21.3579 12.655 21.5779 12.085 21.2279 11.785L12.8679 4.255C12.4879 3.915 11.9079 3.915 11.5279 4.255L3.16785 11.785C2.82785 12.085 3.03785 12.655 3.49785 12.655H5.19785V19.655C5.19785 20.205 5.64785 20.655 6.19785 20.655H9.19785C9.74785 20.655 10.1979 20.205 10.1979 19.655Z" fill="#F05C2D"/>
</g>
<defs>
<clipPath id="clip0">
<rect width="24" height="24" fill="white"/>
</clipPath>
</defs>
</svg>
