<svg width="209" height="208" viewBox="0 0 209 208" fill="none" xmlns="http://www.w3.org/2000/svg">
<g filter="url(#filter0_d)">
<rect x="0.5" width="200" height="200" rx="8" fill="#121212"/>
<rect x="0.5" width="200" height="200" rx="8" fill="white" fill-opacity="0.08"/>
</g>
<path d="M73.722 169.9H77.7C78.6707 169.9 79.533 170.091 80.287 170.472C81.041 170.845 81.626 171.378 82.042 172.071C82.458 172.756 82.666 173.549 82.666 174.45C82.666 175.351 82.458 176.149 82.042 176.842C81.626 177.527 81.041 178.06 80.287 178.441C79.533 178.814 78.6707 179 77.7 179H73.722V169.9ZM77.622 177.57C78.2893 177.57 78.8743 177.444 79.377 177.193C79.8883 176.933 80.2783 176.569 80.547 176.101C80.8243 175.624 80.963 175.074 80.963 174.45C80.963 173.826 80.8243 173.28 80.547 172.812C80.2783 172.335 79.8883 171.971 79.377 171.72C78.8743 171.46 78.2893 171.33 77.622 171.33H75.412V177.57H77.622ZM92.0372 177.583V179H85.2122V169.9H91.8552V171.317H86.9022V173.683H91.2962V175.074H86.9022V177.583H92.0372ZM97.4922 179.13C96.7902 179.13 96.1099 179.03 95.4512 178.831C94.8012 178.632 94.2856 178.367 93.9042 178.038L94.4892 176.725C94.8619 177.02 95.3169 177.262 95.8542 177.453C96.4002 177.635 96.9462 177.726 97.4922 177.726C98.1682 177.726 98.6709 177.618 99.0002 177.401C99.3382 177.184 99.5072 176.898 99.5072 176.543C99.5072 176.283 99.4119 176.071 99.2212 175.906C99.0392 175.733 98.8052 175.598 98.5192 175.503C98.2332 175.408 97.8432 175.299 97.3492 175.178C96.6559 175.013 96.0926 174.849 95.6592 174.684C95.2346 174.519 94.8662 174.264 94.5542 173.917C94.2509 173.562 94.0992 173.085 94.0992 172.487C94.0992 171.984 94.2336 171.529 94.5022 171.122C94.7796 170.706 95.1912 170.377 95.7372 170.134C96.2919 169.891 96.9679 169.77 97.7652 169.77C98.3199 169.77 98.8659 169.839 99.4032 169.978C99.9406 170.117 100.404 170.316 100.794 170.576L100.261 171.889C99.8626 171.655 99.4466 171.477 99.0132 171.356C98.5799 171.235 98.1596 171.174 97.7522 171.174C97.0849 171.174 96.5866 171.287 96.2572 171.512C95.9366 171.737 95.7762 172.036 95.7762 172.409C95.7762 172.669 95.8672 172.881 96.0492 173.046C96.2399 173.211 96.4782 173.341 96.7642 173.436C97.0502 173.531 97.4402 173.64 97.9342 173.761C98.6102 173.917 99.1649 174.082 99.5982 174.255C100.032 174.42 100.4 174.675 100.703 175.022C101.015 175.369 101.171 175.837 101.171 176.426C101.171 176.929 101.033 177.384 100.755 177.791C100.487 178.198 100.075 178.523 99.5202 178.766C98.9656 179.009 98.2896 179.13 97.4922 179.13ZM109.499 176.894H104.949L104.052 179H102.31L106.405 169.9H108.069L112.177 179H110.409L109.499 176.894ZM108.94 175.568L107.224 171.59L105.521 175.568H108.94ZM114.084 169.9H115.774V177.57H120.532V179H114.084V169.9ZM123.612 171.33H120.596V169.9H128.318V171.33H125.302V179H123.612V171.33Z" fill="white" fill-opacity="0.87"/>
<path d="M99.9977 26.2102C73.6425 26.2102 52.2056 47.6471 52.2056 74.0023C52.2056 100.358 73.6425 121.794 99.9977 121.794C126.353 121.794 147.79 100.358 147.79 74.0023C147.79 47.6471 126.353 26.2102 99.9977 26.2102ZM99.9977 124C72.428 124 50 101.567 50 74.0023C50 46.4326 72.428 24 99.9977 24C127.567 24 150 46.4326 150 74.0023C150 101.567 127.567 124 99.9977 124Z" fill="url(#paint0_linear)"/>
<path d="M99.9977 26.2102C73.6425 26.2102 52.2056 47.6471 52.2056 74.0023C52.2056 100.358 73.6425 121.794 99.9977 121.794C126.353 121.794 147.79 100.358 147.79 74.0023C147.79 47.6471 126.353 26.2102 99.9977 26.2102ZM99.9977 124C72.428 124 50 101.567 50 74.0023C50 46.4326 72.428 24 99.9977 24C127.567 24 150 46.4326 150 74.0023C150 101.567 127.567 124 99.9977 124Z" fill="white" fill-opacity="0.87"/>
<path d="M99.9962 30.7381C76.1816 30.7381 56.806 50.1136 56.806 73.9283C56.806 97.7429 76.1816 117.118 99.9962 117.118C123.815 117.118 143.191 97.7429 143.191 73.9283C143.191 50.1136 123.815 30.7381 99.9962 30.7381ZM99.9962 118.1C75.6418 118.1 55.8242 98.2873 55.8242 73.9283C55.8242 49.5739 75.6418 29.7563 99.9962 29.7563C124.355 29.7563 144.168 49.5739 144.168 73.9283C144.168 98.2873 124.355 118.1 99.9962 118.1Z" fill="url(#paint1_linear)"/>
<path d="M99.9962 30.7381C76.1816 30.7381 56.806 50.1136 56.806 73.9283C56.806 97.7429 76.1816 117.118 99.9962 117.118C123.815 117.118 143.191 97.7429 143.191 73.9283C143.191 50.1136 123.815 30.7381 99.9962 30.7381ZM99.9962 118.1C75.6418 118.1 55.8242 98.2873 55.8242 73.9283C55.8242 49.5739 75.6418 29.7563 99.9962 29.7563C124.355 29.7563 144.168 49.5739 144.168 73.9283C144.168 98.2873 124.355 118.1 99.9962 118.1Z" fill="white" fill-opacity="0.87"/>
<path d="M91.5158 56.6837H95.5593L97.5788 53.1846L95.5593 49.6854H91.5158L89.4917 53.1846L91.5158 56.6837ZM96.4062 58.1541H90.6643L87.7933 53.1846L90.6643 48.2151H96.4062L99.2772 53.1846L96.4062 58.1541Z" fill="url(#paint2_linear)"/>
<path d="M91.5158 56.6837H95.5593L97.5788 53.1846L95.5593 49.6854H91.5158L89.4917 53.1846L91.5158 56.6837ZM96.4062 58.1541H90.6643L87.7933 53.1846L90.6643 48.2151H96.4062L99.2772 53.1846L96.4062 58.1541Z" fill="white" fill-opacity="0.87"/>
<path d="M82.3308 71.3715H86.3744L88.3938 67.8723L86.3744 64.3732H82.3308L80.3067 67.8723L82.3308 71.3715ZM87.2212 72.8418H81.4793L78.613 67.8723L81.4793 62.9028H87.2212L90.0922 67.8723L87.2212 72.8418Z" fill="url(#paint3_linear)"/>
<path d="M82.3308 71.3715H86.3744L88.3938 67.8723L86.3744 64.3732H82.3308L80.3067 67.8723L82.3308 71.3715ZM87.2212 72.8418H81.4793L78.613 67.8723L81.4793 62.9028H87.2212L90.0922 67.8723L87.2212 72.8418Z" fill="white" fill-opacity="0.87"/>
<path d="M97.1493 74.5474H101.193L103.212 71.0483L101.193 67.5491H97.1493L95.1298 71.0483L97.1493 74.5474ZM102.04 76.0178H96.2977L93.4314 71.0483L96.2977 66.0787H102.04L104.911 71.0483L102.04 76.0178Z" fill="url(#paint4_linear)"/>
<path d="M97.1493 74.5474H101.193L103.212 71.0483L101.193 67.5491H97.1493L95.1298 71.0483L97.1493 74.5474ZM102.04 76.0178H96.2977L93.4314 71.0483L96.2977 66.0787H102.04L104.911 71.0483L102.04 76.0178Z" fill="white" fill-opacity="0.87"/>
<path d="M112.513 95.9887H116.557L118.576 92.4849L116.557 88.9857H112.513L110.494 92.4849L112.513 95.9887ZM117.404 97.4544H111.662L108.795 92.4849L111.662 87.5154H117.404L120.274 92.4849L117.404 97.4544Z" fill="url(#paint5_linear)"/>
<path d="M112.513 95.9887H116.557L118.576 92.4849L116.557 88.9857H112.513L110.494 92.4849L112.513 95.9887ZM117.404 97.4544H111.662L108.795 92.4849L111.662 87.5154H117.404L120.274 92.4849L117.404 97.4544Z" fill="white" fill-opacity="0.87"/>
<path d="M82.5789 92.0185H86.6225L88.6419 88.5147L86.6225 85.0156H82.5789L80.5548 88.5147L82.5789 92.0185ZM87.4693 93.4842H81.7274L78.8611 88.5147L81.7274 83.5452H87.4693L90.3403 88.5147L87.4693 93.4842Z" fill="url(#paint6_linear)"/>
<path d="M82.5789 92.0185H86.6225L88.6419 88.5147L86.6225 85.0156H82.5789L80.5548 88.5147L82.5789 92.0185ZM87.4693 93.4842H81.7274L78.8611 88.5147L81.7274 83.5452H87.4693L90.3403 88.5147L87.4693 93.4842Z" fill="white" fill-opacity="0.87"/>
<path d="M102.022 62.2414H106.066L108.085 58.7422L106.066 55.2384H102.022L99.9981 58.7422L102.022 62.2414ZM106.913 63.7118H101.171L98.2997 58.7422L101.171 53.7727H106.913L109.784 58.7422L106.913 63.7118Z" fill="url(#paint7_linear)"/>
<path d="M102.022 62.2414H106.066L108.085 58.7422L106.066 55.2384H102.022L99.9981 58.7422L102.022 62.2414ZM106.913 63.7118H101.171L98.2997 58.7422L101.171 53.7727H106.913L109.784 58.7422L106.913 63.7118Z" fill="white" fill-opacity="0.87"/>
<path d="M114.299 65.819H118.342L120.362 62.3198L118.342 58.816H114.299L112.279 62.3198L114.299 65.819ZM119.189 67.2893H113.452L110.581 62.3198L113.452 57.3456H119.189L122.06 62.3198L119.189 67.2893Z" fill="url(#paint8_linear)"/>
<path d="M114.299 65.819H118.342L120.362 62.3198L118.342 58.816H114.299L112.279 62.3198L114.299 65.819ZM119.189 67.2893H113.452L110.581 62.3198L113.452 57.3456H119.189L122.06 62.3198L119.189 67.2893Z" fill="white" fill-opacity="0.87"/>
<path d="M115.147 80.3081H119.191L121.21 76.8043L119.191 73.3051H115.147L113.123 76.8043L115.147 80.3081ZM120.038 81.7738H114.296L111.425 76.8043L114.296 71.8348H120.038L122.909 76.8043L120.038 81.7738Z" fill="url(#paint9_linear)"/>
<path d="M115.147 80.3081H119.191L121.21 76.8043L119.191 73.3051H115.147L113.123 76.8043L115.147 80.3081ZM120.038 81.7738H114.296L111.425 76.8043L114.296 71.8348H120.038L122.909 76.8043L120.038 81.7738Z" fill="white" fill-opacity="0.87"/>
<path d="M98.6004 87.8504H102.644L104.663 84.3466L102.644 80.8475H98.6004L96.5763 84.3466L98.6004 87.8504ZM103.491 89.3162H97.7489L94.8825 84.3466L97.7489 79.3771H103.491L106.362 84.3466L103.491 89.3162Z" fill="url(#paint10_linear)"/>
<path d="M98.6004 87.8504H102.644L104.663 84.3466L102.644 80.8475H98.6004L96.5763 84.3466L98.6004 87.8504ZM103.491 89.3162H97.7489L94.8825 84.3466L97.7489 79.3771H103.491L106.362 84.3466L103.491 89.3162Z" fill="white" fill-opacity="0.87"/>
<path d="M76.5474 42.0918L126.429 102.401L123.217 105.059L73.3347 44.749L76.5474 42.0918Z" fill="url(#paint11_linear)"/>
<path d="M76.5474 42.0918L126.429 102.401L123.217 105.059L73.3347 44.749L76.5474 42.0918Z" fill="white" fill-opacity="0.87"/>
<defs>
<filter id="filter0_d" x="0.5" y="0" width="208" height="208" filterUnits="userSpaceOnUse" color-interpolation-filters="sRGB">
<feFlood flood-opacity="0" result="BackgroundImageFix"/>
<feColorMatrix in="SourceAlpha" type="matrix" values="0 0 0 0 0 0 0 0 0 0 0 0 0 0 0 0 0 0 127 0"/>
<feOffset dx="4" dy="4"/>
<feGaussianBlur stdDeviation="2"/>
<feColorMatrix type="matrix" values="0 0 0 0 0 0 0 0 0 0 0 0 0 0 0 0 0 0 0.25 0"/>
<feBlend mode="normal" in2="BackgroundImageFix" result="effect1_dropShadow"/>
<feBlend mode="normal" in="SourceGraphic" in2="effect1_dropShadow" result="shape"/>
</filter>
<linearGradient id="paint0_linear" x1="63.5" y1="24" x2="150" y2="124" gradientUnits="userSpaceOnUse">
<stop stop-color="#FC5C2E"/>
<stop offset="1" stop-color="#FCAA2E"/>
</linearGradient>
<linearGradient id="paint1_linear" x1="63.5" y1="24" x2="150" y2="124" gradientUnits="userSpaceOnUse">
<stop stop-color="#FC5C2E"/>
<stop offset="1" stop-color="#FCAA2E"/>
</linearGradient>
<linearGradient id="paint2_linear" x1="63.5" y1="24" x2="150" y2="124" gradientUnits="userSpaceOnUse">
<stop stop-color="#FC5C2E"/>
<stop offset="1" stop-color="#FCAA2E"/>
</linearGradient>
<linearGradient id="paint3_linear" x1="63.5" y1="24" x2="150" y2="124" gradientUnits="userSpaceOnUse">
<stop stop-color="#FC5C2E"/>
<stop offset="1" stop-color="#FCAA2E"/>
</linearGradient>
<linearGradient id="paint4_linear" x1="63.5" y1="24" x2="150" y2="124" gradientUnits="userSpaceOnUse">
<stop stop-color="#FC5C2E"/>
<stop offset="1" stop-color="#FCAA2E"/>
</linearGradient>
<linearGradient id="paint5_linear" x1="63.5" y1="24" x2="150" y2="124" gradientUnits="userSpaceOnUse">
<stop stop-color="#FC5C2E"/>
<stop offset="1" stop-color="#FCAA2E"/>
</linearGradient>
<linearGradient id="paint6_linear" x1="63.5" y1="24" x2="150" y2="124" gradientUnits="userSpaceOnUse">
<stop stop-color="#FC5C2E"/>
<stop offset="1" stop-color="#FCAA2E"/>
</linearGradient>
<linearGradient id="paint7_linear" x1="63.5" y1="24" x2="150" y2="124" gradientUnits="userSpaceOnUse">
<stop stop-color="#FC5C2E"/>
<stop offset="1" stop-color="#FCAA2E"/>
</linearGradient>
<linearGradient id="paint8_linear" x1="63.5" y1="24" x2="150" y2="124" gradientUnits="userSpaceOnUse">
<stop stop-color="#FC5C2E"/>
<stop offset="1" stop-color="#FCAA2E"/>
</linearGradient>
<linearGradient id="paint9_linear" x1="63.5" y1="24" x2="150" y2="124" gradientUnits="userSpaceOnUse">
<stop stop-color="#FC5C2E"/>
<stop offset="1" stop-color="#FCAA2E"/>
</linearGradient>
<linearGradient id="paint10_linear" x1="63.5" y1="24" x2="150" y2="124" gradientUnits="userSpaceOnUse">
<stop stop-color="#FC5C2E"/>
<stop offset="1" stop-color="#FCAA2E"/>
</linearGradient>
<linearGradient id="paint11_linear" x1="63.5" y1="24" x2="150" y2="124" gradientUnits="userSpaceOnUse">
<stop stop-color="#FC5C2E"/>
<stop offset="1" stop-color="#FCAA2E"/>
</linearGradient>
</defs>
</svg>
