<svg width="209" height="209" viewBox="0 0 209 209" fill="none" xmlns="http://www.w3.org/2000/svg">
<path d="M142.871 181.45H138.014V186.306C138.014 186.84 137.577 187.277 137.043 187.277C136.509 187.277 136.072 186.84 136.072 186.306V181.45H131.215C130.681 181.45 130.244 181.013 130.244 180.479C130.244 179.944 130.681 179.507 131.215 179.507H136.072V174.651C136.072 174.117 136.509 173.68 137.043 173.68C137.577 173.68 138.014 174.117 138.014 174.651V179.507H142.871C143.405 179.507 143.842 179.944 143.842 180.479C143.842 181.013 143.405 181.45 142.871 181.45Z" fill="#FAFAFA"/>
<g filter="url(#filter0_d)">
<rect x="0.5" y="0.308594" width="200" height="200" rx="8" fill="#121212"/>
<rect x="0.5" y="0.308594" width="200" height="200" rx="8" fill="white" fill-opacity="0.08"/>
</g>
<path d="M37.446 173.657C38.2867 173.761 38.928 174.047 39.37 174.515C39.812 174.983 40.033 175.568 40.033 176.27C40.033 176.799 39.8987 177.28 39.63 177.713C39.3613 178.146 38.954 178.493 38.408 178.753C37.8707 179.004 37.212 179.13 36.432 179.13C35.782 179.13 35.1537 179.039 34.547 178.857C33.949 178.666 33.4377 178.406 33.013 178.077L33.741 176.764C34.0703 177.041 34.469 177.262 34.937 177.427C35.4137 177.583 35.9033 177.661 36.406 177.661C37.004 177.661 37.472 177.54 37.81 177.297C38.1567 177.046 38.33 176.708 38.33 176.283C38.33 175.858 38.1653 175.529 37.836 175.295C37.5153 175.052 37.0213 174.931 36.354 174.931H35.522V173.774L37.589 171.317H33.455V169.9H39.656V171.031L37.446 173.657ZM46.0224 173.384C46.6204 173.384 47.1577 173.501 47.6344 173.735C48.1111 173.96 48.4837 174.285 48.7524 174.71C49.0211 175.135 49.1554 175.624 49.1554 176.179C49.1554 176.768 49.0081 177.288 48.7134 177.739C48.4187 178.181 48.0201 178.523 47.5174 178.766C47.0147 179.009 46.4514 179.13 45.8274 179.13C44.5794 179.13 43.6087 178.74 42.9154 177.96C42.2307 177.18 41.8884 176.062 41.8884 174.606C41.8884 173.583 42.0747 172.712 42.4474 171.993C42.8201 171.265 43.3401 170.715 44.0074 170.342C44.6834 169.961 45.4634 169.77 46.3474 169.77C46.8154 169.77 47.2531 169.822 47.6604 169.926C48.0764 170.021 48.4361 170.164 48.7394 170.355L48.1154 171.629C47.6647 171.334 47.0884 171.187 46.3864 171.187C45.5111 171.187 44.8264 171.456 44.3324 171.993C43.8384 172.53 43.5914 173.306 43.5914 174.32V174.333C43.8601 174.021 44.2024 173.787 44.6184 173.631C45.0344 173.466 45.5024 173.384 46.0224 173.384ZM45.7364 177.804C46.2651 177.804 46.6941 177.665 47.0234 177.388C47.3527 177.102 47.5174 176.725 47.5174 176.257C47.5174 175.78 47.3527 175.403 47.0234 175.126C46.6941 174.849 46.2521 174.71 45.6974 174.71C45.1514 174.71 44.7051 174.857 44.3584 175.152C44.0204 175.447 43.8514 175.819 43.8514 176.27C43.8514 176.712 44.0161 177.08 44.3454 177.375C44.6834 177.661 45.1471 177.804 45.7364 177.804ZM54.5848 179.13C53.8568 179.13 53.2068 178.948 52.6348 178.584C52.0628 178.211 51.6121 177.674 51.2828 176.972C50.9535 176.261 50.7888 175.421 50.7888 174.45C50.7888 173.479 50.9535 172.643 51.2828 171.941C51.6121 171.23 52.0628 170.693 52.6348 170.329C53.2068 169.956 53.8568 169.77 54.5848 169.77C55.3128 169.77 55.9628 169.956 56.5348 170.329C57.1155 170.693 57.5705 171.23 57.8998 171.941C58.2291 172.643 58.3938 173.479 58.3938 174.45C58.3938 175.421 58.2291 176.261 57.8998 176.972C57.5705 177.674 57.1155 178.211 56.5348 178.584C55.9628 178.948 55.3128 179.13 54.5848 179.13ZM54.5848 177.661C55.2348 177.661 55.7461 177.392 56.1188 176.855C56.5001 176.318 56.6908 175.516 56.6908 174.45C56.6908 173.384 56.5001 172.582 56.1188 172.045C55.7461 171.508 55.2348 171.239 54.5848 171.239C53.9435 171.239 53.4321 171.508 53.0508 172.045C52.6781 172.582 52.4918 173.384 52.4918 174.45C52.4918 175.516 52.6781 176.318 53.0508 176.855C53.4321 177.392 53.9435 177.661 54.5848 177.661ZM65.2786 169.9H69.2566C70.2273 169.9 71.0896 170.091 71.8436 170.472C72.5976 170.845 73.1826 171.378 73.5986 172.071C74.0146 172.756 74.2226 173.549 74.2226 174.45C74.2226 175.351 74.0146 176.149 73.5986 176.842C73.1826 177.527 72.5976 178.06 71.8436 178.441C71.0896 178.814 70.2273 179 69.2566 179H65.2786V169.9ZM69.1786 177.57C69.846 177.57 70.431 177.444 70.9336 177.193C71.445 176.933 71.835 176.569 72.1036 176.101C72.381 175.624 72.5196 175.074 72.5196 174.45C72.5196 173.826 72.381 173.28 72.1036 172.812C71.835 172.335 71.445 171.971 70.9336 171.72C70.431 171.46 69.846 171.33 69.1786 171.33H66.9686V177.57H69.1786ZM83.5939 177.583V179H76.7689V169.9H83.4119V171.317H78.4589V173.683H82.8529V175.074H78.4589V177.583H83.5939ZM93.0529 177.583V179H86.2279V169.9H92.8709V171.317H87.9179V173.683H92.3119V175.074H87.9179V177.583H93.0529ZM99.4308 169.9C100.22 169.9 100.904 170.03 101.485 170.29C102.074 170.55 102.525 170.923 102.837 171.408C103.149 171.893 103.305 172.47 103.305 173.137C103.305 173.796 103.149 174.372 102.837 174.866C102.525 175.351 102.074 175.724 101.485 175.984C100.904 176.244 100.22 176.374 99.4308 176.374H97.3768V179H95.6868V169.9H99.4308ZM99.3528 174.944C100.09 174.944 100.649 174.788 101.03 174.476C101.411 174.164 101.602 173.718 101.602 173.137C101.602 172.556 101.411 172.11 101.03 171.798C100.649 171.486 100.09 171.33 99.3528 171.33H97.3768V174.944H99.3528ZM114.424 179.13C113.506 179.13 112.674 178.931 111.928 178.532C111.192 178.125 110.611 177.566 110.186 176.855C109.77 176.144 109.562 175.343 109.562 174.45C109.562 173.557 109.775 172.756 110.199 172.045C110.624 171.334 111.205 170.78 111.941 170.381C112.687 169.974 113.519 169.77 114.437 169.77C115.183 169.77 115.863 169.9 116.478 170.16C117.094 170.42 117.614 170.797 118.038 171.291L116.946 172.318C116.288 171.607 115.477 171.252 114.515 171.252C113.891 171.252 113.332 171.391 112.838 171.668C112.344 171.937 111.959 172.314 111.681 172.799C111.404 173.284 111.265 173.835 111.265 174.45C111.265 175.065 111.404 175.616 111.681 176.101C111.959 176.586 112.344 176.968 112.838 177.245C113.332 177.514 113.891 177.648 114.515 177.648C115.477 177.648 116.288 177.288 116.946 176.569L118.038 177.609C117.614 178.103 117.089 178.48 116.465 178.74C115.85 179 115.17 179.13 114.424 179.13ZM120.408 169.9H122.098V177.57H126.856V179H120.408V169.9ZM135.765 177.583V179H128.94V169.9H135.583V171.317H130.63V173.683H135.024V175.074H130.63V177.583H135.765ZM146.485 169.9V179H145.094L140.076 172.838V179H138.399V169.9H139.79L144.808 176.062V169.9H146.485ZM152.494 179.13C151.792 179.13 151.112 179.03 150.453 178.831C149.803 178.632 149.288 178.367 148.906 178.038L149.491 176.725C149.864 177.02 150.319 177.262 150.856 177.453C151.402 177.635 151.948 177.726 152.494 177.726C153.17 177.726 153.673 177.618 154.002 177.401C154.34 177.184 154.509 176.898 154.509 176.543C154.509 176.283 154.414 176.071 154.223 175.906C154.041 175.733 153.807 175.598 153.521 175.503C153.235 175.408 152.845 175.299 152.351 175.178C151.658 175.013 151.095 174.849 150.661 174.684C150.237 174.519 149.868 174.264 149.556 173.917C149.253 173.562 149.101 173.085 149.101 172.487C149.101 171.984 149.236 171.529 149.504 171.122C149.782 170.706 150.193 170.377 150.739 170.134C151.294 169.891 151.97 169.77 152.767 169.77C153.322 169.77 153.868 169.839 154.405 169.978C154.943 170.117 155.406 170.316 155.796 170.576L155.263 171.889C154.865 171.655 154.449 171.477 154.015 171.356C153.582 171.235 153.162 171.174 152.754 171.174C152.087 171.174 151.589 171.287 151.259 171.512C150.939 171.737 150.778 172.036 150.778 172.409C150.778 172.669 150.869 172.881 151.051 173.046C151.242 173.211 151.48 173.341 151.766 173.436C152.052 173.531 152.442 173.64 152.936 173.761C153.612 173.917 154.167 174.082 154.6 174.255C155.034 174.42 155.402 174.675 155.705 175.022C156.017 175.369 156.173 175.837 156.173 176.426C156.173 176.929 156.035 177.384 155.757 177.791C155.489 178.198 155.077 178.523 154.522 178.766C153.968 179.009 153.292 179.13 152.494 179.13ZM165.424 177.583V179H158.599V169.9H165.242V171.317H160.289V173.683H164.683V175.074H160.289V177.583H165.424Z" fill="white" fill-opacity="0.87"/>
<path d="M100.002 31.2051C73.6495 31.2051 52.2051 52.645 52.2051 79.0023C52.2051 105.355 73.6495 126.79 100.002 126.79C126.355 126.79 147.795 105.355 147.795 79.0023C147.795 52.645 126.355 31.2051 100.002 31.2051ZM100.002 129C72.4315 129 50 106.573 50 79.0023C50 51.4315 72.4315 29 100.002 29C127.573 29 150 51.4315 150 79.0023C150 106.573 127.573 129 100.002 129Z" fill="white" fill-opacity="0.87"/>
<path d="M99.9987 35.7069C76.1816 35.7069 56.802 55.0821 56.802 78.8991C56.802 102.716 76.1816 122.091 99.9987 122.091C123.816 122.091 143.191 102.716 143.191 78.8991C143.191 55.0821 123.816 35.7069 99.9987 35.7069ZM99.9987 123.074C75.6428 123.074 55.8239 103.255 55.8239 78.8991C55.8239 54.5387 75.6428 34.7244 99.9987 34.7244C124.355 34.7244 144.173 54.5387 144.173 78.8991C144.173 103.255 124.355 123.074 99.9987 123.074Z" fill="white" fill-opacity="0.87"/>
<path d="M135.337 79.0636C135.318 78.9595 135.287 78.8644 135.242 78.7421C135.228 78.7059 135.21 78.6742 135.196 78.6289C135.165 78.552 135.133 78.4569 135.088 78.3663C135.069 78.321 135.042 78.2712 135.024 78.2577C134.992 78.226 134.961 78.1807 134.947 78.149C134.934 78.1309 134.916 78.1037 134.902 78.0675L134.807 77.9452C134.716 77.8501 134.653 77.7777 134.621 77.6826L134.59 77.592C134.562 77.4924 134.544 77.4019 134.544 77.266C134.544 77.1845 134.544 77.0894 134.526 76.9853C134.526 76.9355 134.513 76.9038 134.513 76.8766V76.8313C134.481 76.7046 134.467 76.5778 134.417 76.4419C134.417 76.4102 134.417 76.3785 134.404 76.3604L134.187 75.396C134.141 75.2918 134.11 75.1832 134.078 75.0564L134.014 74.8255C134.001 74.7621 133.969 74.6987 133.956 74.6534C133.829 74.1915 133.707 73.784 133.611 73.5033C133.58 73.4127 133.548 73.3358 133.534 73.2905C133.521 73.2588 133.503 73.2452 133.503 73.2452L133.489 73.1637C133.394 72.9464 133.082 72.9011 131.515 72.6973C130.166 72.5298 128.3 72.2943 127.109 71.8415C126.856 71.7555 126.516 71.6106 126.081 71.425C123.025 70.1209 115.884 67.0645 105.466 66.734C105.244 66.7204 105.013 66.7204 104.782 66.7204C104.488 66.7068 104.175 66.7068 103.881 66.7068C97.7002 66.6751 97.3425 66.7838 95.9796 67.2049C94.0824 67.7754 89.2873 70.216 86.1177 71.828C84.8906 72.4347 83.9443 72.9328 83.6183 73.055C83.0749 73.2905 81.6803 73.4942 79.9234 73.6799L79.8782 74.0648C81.7256 73.8655 83.17 73.6799 83.7722 73.4127C84.1028 73.2724 85.0174 72.806 86.2898 72.1721C89.2556 70.6688 94.2227 68.1512 96.1018 67.5762C97.4195 67.1551 97.7636 67.0645 103.881 67.0917C104.175 67.0917 104.47 67.0917 104.782 67.1098C104.981 67.0917 105.217 67.1098 105.434 67.1234C115.789 67.4539 122.898 70.4786 125.928 71.7827C126.362 71.9728 126.72 72.1087 126.969 72.2174C128.21 72.6837 130.089 72.9192 131.47 73.0867C132.167 73.1773 132.946 73.2724 133.145 73.3493C133.145 73.3675 133.163 73.3992 133.163 73.4127C133.19 73.4761 133.208 73.535 133.24 73.6301C133.335 73.8927 133.471 74.3138 133.58 74.7621C133.611 74.8119 133.63 74.8707 133.643 74.9341L133.707 75.1515C133.734 75.2918 133.765 75.4141 133.815 75.5273L134.014 76.3287C134.014 76.3604 134.014 76.3921 134.033 76.4736L134.046 76.5461C134.096 76.6593 134.11 76.7634 134.123 76.8766C134.123 76.9219 134.123 76.9536 134.141 77.017C134.155 77.1211 134.155 77.2026 134.155 77.266C134.155 77.4517 134.173 77.592 134.232 77.7596C134.25 77.7777 134.25 77.7913 134.25 77.8094C134.309 77.9769 134.417 78.0856 134.513 78.2124L134.526 78.226C134.544 78.2577 134.576 78.2894 134.576 78.2894L134.621 78.3527C134.639 78.3844 134.653 78.4252 134.698 78.475L134.73 78.5384C134.775 78.6108 134.807 78.6923 134.857 78.801L134.87 78.8644C134.916 78.9595 134.934 79.0455 134.961 79.1451C135.228 80.1322 135.133 82.9305 134.884 83.5508L134.857 83.6142C134.68 83.664 134.494 83.7863 134.25 83.9719C134.173 84.0353 134.096 84.0942 133.969 84.1712C133.956 84.2029 133.924 84.221 133.874 84.2391C133.842 84.2617 133.829 84.2798 133.797 84.298L133.643 84.4066C133.58 84.4519 133.521 84.4791 133.458 84.5289C133.394 84.5606 133.335 84.6059 133.285 84.6375C133.163 84.7009 133.055 84.7779 132.914 84.8368L132.62 85.0088C132.321 85.1673 131.846 85.3077 131.284 85.4435C131.221 85.4435 131.157 85.4616 131.094 85.4752C131.049 85.4933 130.99 85.5069 130.895 85.525H130.849C130.804 85.5386 130.772 85.5386 130.754 85.5567C130.102 85.6926 129.437 85.7877 129.002 85.851C129.079 85.4752 129.111 85.0722 129.111 84.6511C129.111 80.9608 126.113 77.9452 122.418 77.9452C118.737 77.9452 115.74 80.9608 115.74 84.6511C115.74 85.0722 115.776 85.4752 115.853 85.8963H83.6816C83.7586 85.4299 83.8039 85.0405 83.8039 84.6511C83.8039 81.7985 82.0063 79.3444 79.4752 78.3844L79.4254 78.7829C81.7573 79.7021 83.419 81.9977 83.419 84.6511C83.419 85.0722 83.3692 85.525 83.247 86.0503L83.2017 86.2857H116.333L116.283 86.0503C116.179 85.5839 116.129 85.1175 116.129 84.6511C116.129 81.1782 118.954 78.3346 122.418 78.3346C125.896 78.3346 128.721 81.1782 128.721 84.6511C128.721 85.1537 128.676 85.5975 128.549 86.0186L128.536 86.2676H128.785C129.206 86.2223 130.025 86.1137 130.863 85.928C130.881 85.9144 130.895 85.9144 130.908 85.9144C130.94 85.9144 130.99 85.8963 130.99 85.8963C131.049 85.8827 131.112 85.8646 131.189 85.851C131.239 85.851 131.284 85.8329 131.361 85.8148C131.95 85.679 132.479 85.525 132.792 85.353L133.1 85.1809C133.24 85.1175 133.362 85.0405 133.503 84.9636C133.548 84.9183 133.611 84.8866 133.675 84.8549C133.734 84.8096 133.797 84.7643 133.892 84.7009L134.096 84.5606C134.141 84.5289 134.205 84.4972 134.218 84.4655C134.309 84.4066 134.404 84.3432 134.481 84.2798C134.68 84.1395 134.87 84.0036 134.934 84.0036L135.042 83.9855L135.101 83.9221C135.146 83.8769 135.196 83.7863 135.242 83.7229C135.522 83.0075 135.617 80.1322 135.337 79.0636ZM75.6853 78.5067L75.5766 78.1309C72.6289 78.8282 70.4374 81.4861 70.4374 84.6511C70.4374 85.0722 70.4691 85.4752 70.546 85.8963H67.5983C66.7561 85.8963 66.7561 85.8963 65.8596 85.8329L64.9585 85.7877C64.5555 85.7695 64.225 85.679 64.0122 85.5386C63.9307 85.4616 63.8854 85.4118 63.8537 85.3711L63.8265 85.3213C63.8084 85.276 63.7948 85.2443 63.7767 85.2126C63.745 85.0541 63.7631 84.9002 63.7948 84.7462C63.8084 84.7145 63.8265 84.6828 63.8265 84.6511C63.8401 84.624 63.8401 84.6059 63.8401 84.5923C63.8401 84.5787 63.8537 84.5606 63.8537 84.5606L63.8718 84.4972C63.9171 84.4202 63.9488 84.3749 63.9488 84.3749L63.9941 84.3432V84.2798C64.0122 84.2527 64.0394 84.2029 64.0575 84.1395C64.0711 84.1259 64.0711 84.1078 64.0892 84.0761C64.1027 84.0489 64.1163 84.0036 64.1163 84.0036C64.1661 83.9085 64.1978 83.8316 64.225 83.7048C64.2431 83.6142 64.2567 83.5191 64.2567 83.4603C64.2567 82.9441 64.2567 82.4958 64.2884 82.0611L64.2748 81.2823C64.3065 81.1782 64.3065 81.0469 64.3065 80.9608V80.7888C64.3201 80.739 64.3201 80.6756 64.3201 80.6167C64.3201 80.5397 64.3201 80.4492 64.3337 80.3224C64.3337 80.2454 64.3337 80.1685 64.3518 80.0598C64.3518 80.0281 64.3518 79.9783 64.3654 79.9466V79.8243L64.4152 79.4349C64.5691 78.2712 64.8634 77.8682 65.4521 77.0623C65.5789 76.8947 65.7192 76.7046 65.8596 76.5053C66.4935 75.5997 70.623 75.0247 74.5352 74.6126L74.4265 74.2368C70.2517 74.6715 66.2762 75.2466 65.5472 76.2699C65.3932 76.4872 65.2664 76.6774 65.1442 76.8313C64.5374 77.6645 64.1978 78.1309 64.0394 79.3715C64.0258 79.5164 63.9941 79.6387 63.9805 79.7926V79.9058C63.9624 79.9647 63.9624 80.01 63.9624 80.0281C63.9488 80.1186 63.9488 80.2318 63.9488 80.2907C63.9307 80.4175 63.9307 80.5216 63.9307 80.6167C63.9307 80.6665 63.9307 80.7073 63.9171 80.7571V80.9608C63.9171 81.0378 63.9171 81.1284 63.9035 81.2506V82.0611C63.8718 82.4777 63.8718 82.9441 63.8718 83.4603C63.8718 83.501 63.8718 83.5644 63.8537 83.6459C63.8401 83.7048 63.8084 83.7501 63.7631 83.8497C63.7631 83.8769 63.745 83.8904 63.7315 83.9221C63.7179 83.9538 63.6998 83.9855 63.6681 84.0625L63.6409 84.1259C63.6228 84.1395 63.6092 84.1712 63.6092 84.1893C63.5911 84.221 63.5594 84.2617 63.5322 84.3251C63.5141 84.3432 63.5141 84.3749 63.4824 84.4519L63.419 84.624C63.3873 84.8232 63.3421 85.0541 63.4054 85.3077C63.419 85.3847 63.4643 85.4435 63.4824 85.5069L63.5141 85.5567C63.573 85.6473 63.65 85.7424 63.7767 85.8329C64.0575 86.0503 64.4469 86.1589 64.9404 86.1725L65.8279 86.2223C66.7561 86.2857 66.7561 86.2857 67.5983 86.2857H71.026L70.9807 86.0503C70.872 85.5839 70.8268 85.1175 70.8268 84.6511C70.8268 81.6717 72.8915 79.1587 75.6853 78.5067ZM106.131 73.209C106.131 71.6559 106.023 69.9488 105.76 67.8705H106.272C106.426 67.8841 106.552 67.8841 106.661 67.8841C108.01 67.8841 110.994 68.1965 113.059 68.7852C114.979 69.333 118.769 71.5653 119.299 72.1992C118.398 72.3441 112.824 72.806 106.131 73.209ZM113.168 68.4093C111.071 67.8117 108.042 67.4947 106.661 67.4947C106.552 67.4947 106.426 67.4947 106.272 67.4811H105.325L105.357 67.6984C105.633 69.9488 105.76 71.7691 105.742 73.4127V73.6301L105.946 73.6165C112.421 73.2271 119.158 72.6973 119.53 72.5479C119.656 72.4981 119.733 72.403 119.733 72.2626C119.715 71.5201 114.92 68.9119 113.168 68.4093ZM106.131 73.209C106.131 71.6559 106.023 69.9488 105.76 67.8705H106.272C106.426 67.8841 106.552 67.8841 106.661 67.8841C108.01 67.8841 110.994 68.1965 113.059 68.7852C114.979 69.333 118.769 71.5653 119.299 72.1992C118.398 72.3441 112.824 72.806 106.131 73.209ZM113.168 68.4093C111.071 67.8117 108.042 67.4947 106.661 67.4947C106.552 67.4947 106.426 67.4947 106.272 67.4811H105.325L105.357 67.6984C105.633 69.9488 105.76 71.7691 105.742 73.4127V73.6301L105.946 73.6165C112.421 73.2271 119.158 72.6973 119.53 72.5479C119.656 72.4981 119.733 72.403 119.733 72.2626C119.715 71.5201 114.92 68.9119 113.168 68.4093ZM106.131 73.209C106.131 71.6559 106.023 69.9488 105.76 67.8705H106.272C106.426 67.8841 106.552 67.8841 106.661 67.8841C108.01 67.8841 110.994 68.1965 113.059 68.7852C114.979 69.333 118.769 71.5653 119.299 72.1992C118.398 72.3441 112.824 72.806 106.131 73.209ZM113.168 68.4093C111.071 67.8117 108.042 67.4947 106.661 67.4947C106.552 67.4947 106.426 67.4947 106.272 67.4811H105.325L105.357 67.6984C105.633 69.9488 105.76 71.7691 105.742 73.4127V73.6301L105.946 73.6165C112.421 73.2271 119.158 72.6973 119.53 72.5479C119.656 72.4981 119.733 72.403 119.733 72.2626C119.715 71.5201 114.92 68.9119 113.168 68.4093ZM106.131 73.209C106.131 71.6559 106.023 69.9488 105.76 67.8705H106.272C106.426 67.8841 106.552 67.8841 106.661 67.8841C108.01 67.8841 110.994 68.1965 113.059 68.7852C114.979 69.333 118.769 71.5653 119.299 72.1992C118.398 72.3441 112.824 72.806 106.131 73.209ZM113.168 68.4093C111.071 67.8117 108.042 67.4947 106.661 67.4947C106.552 67.4947 106.426 67.4947 106.272 67.4811H105.325L105.357 67.6984C105.633 69.9488 105.76 71.7691 105.742 73.4127V73.6301L105.946 73.6165C112.421 73.2271 119.158 72.6973 119.53 72.5479C119.656 72.4981 119.733 72.403 119.733 72.2626C119.715 71.5201 114.92 68.9119 113.168 68.4093ZM106.131 73.209C106.131 71.6559 106.023 69.9488 105.76 67.8705H106.272C106.426 67.8841 106.552 67.8841 106.661 67.8841C108.01 67.8841 110.994 68.1965 113.059 68.7852C114.979 69.333 118.769 71.5653 119.299 72.1992C118.398 72.3441 112.824 72.806 106.131 73.209ZM113.168 68.4093C111.071 67.8117 108.042 67.4947 106.661 67.4947C106.552 67.4947 106.426 67.4947 106.272 67.4811H105.325L105.357 67.6984C105.633 69.9488 105.76 71.7691 105.742 73.4127V73.6301L105.946 73.6165C112.421 73.2271 119.158 72.6973 119.53 72.5479C119.656 72.4981 119.733 72.403 119.733 72.2626C119.715 71.5201 114.92 68.9119 113.168 68.4093Z" fill="white" fill-opacity="0.87"/>
<path d="M104.226 67.6884C104.398 67.702 104.552 67.702 104.706 67.702V67.6884H104.226ZM96.5105 73.5702C97.8598 73.5249 99.3359 73.4615 100.921 73.371C99.4763 73.4344 97.9866 73.5068 96.5105 73.5702Z" fill="white" fill-opacity="0.87"/>
<path d="M103.268 73.257C102.974 73.2706 102.648 73.2887 102.335 73.3023C101.855 73.334 101.375 73.3611 100.909 73.3792C99.3241 73.4743 97.8525 73.5377 96.4986 73.5785C96.1907 73.5966 95.8964 73.5966 95.584 73.6102C95.1946 73.6283 94.8233 73.6419 94.4656 73.66C93.9856 73.6781 93.5192 73.6917 93.0529 73.7052C92.6046 73.7052 92.1518 73.7234 91.7352 73.7234C91.1602 73.7369 90.5987 73.7369 90.087 73.7369H89.9784C89.9648 73.7234 89.9467 73.7052 89.9331 73.6917H90.0282C90.1957 73.6917 90.5081 73.6102 90.567 73.0351C90.5987 72.777 90.6757 72.1205 90.6757 71.5952C90.6757 71.1922 90.3225 70.9885 89.9331 70.9568L91.0968 70.3998C91.3141 70.2912 91.5315 70.1825 91.7488 70.0874C92.0748 69.9516 92.3872 69.8067 92.6951 69.6708C92.9442 69.544 93.1932 69.4354 93.4423 69.3448C94.7146 68.7834 95.833 68.3351 96.5484 68.0815C96.6254 68.0543 96.7024 68.0227 96.7794 68.0091C96.9061 67.9593 97.0148 67.9276 97.1054 67.8959C97.1688 67.8823 97.214 67.8687 97.2457 67.8687C97.3544 67.8551 97.4948 67.837 97.6487 67.8053C98.0064 67.7736 98.4592 67.7419 98.9347 67.7283C99.7135 67.6966 100.678 67.6831 101.828 67.6831C102.648 67.6831 103.485 67.6966 104.214 67.6966H104.694V67.7102C104.961 69.7478 105.07 71.5318 105.07 73.1483C104.45 73.1755 103.857 73.2253 103.268 73.257ZM89.6071 73.1483C89.3761 73.0351 89.186 72.9762 89.0456 73.0668C88.9233 73.1483 88.9098 73.257 88.9233 73.3204C88.9233 73.4743 89.0637 73.5966 89.2629 73.7234C88.955 73.7234 88.6607 73.7234 88.3936 73.7052C87.3884 73.6917 86.6594 73.6283 86.2202 73.5468C86.2519 73.506 86.2971 73.4743 86.3288 73.4426C86.9673 72.9129 87.6193 72.3559 88.457 71.8714C88.6743 71.7492 88.86 71.6541 89.032 71.5635C89.2811 71.4548 89.4984 71.3779 89.838 71.3462C89.838 71.3462 90.2908 71.3462 90.2908 71.5952C90.2908 72.1069 90.2138 72.7453 90.1821 72.9898C90.1504 73.3023 90.0599 73.3023 90.0282 73.3023C89.9014 73.3023 89.7293 73.2253 89.6071 73.1483ZM105.428 71.7175C105.428 71.3779 105.396 71.0383 105.382 70.6625C105.319 69.6844 105.21 68.6294 105.07 67.4974L105.038 67.3208H104.871C103.983 67.3118 102.91 67.2937 101.828 67.2937C99.4644 67.2937 97.943 67.3525 97.1823 67.4838C96.9197 67.5246 96.1092 67.8234 95.0225 68.2581C94.6829 68.3985 94.298 68.5524 93.8905 68.72C90.7526 70.0557 86.4556 72.1069 85.4912 73.2389C85.4006 73.3611 85.4006 73.4743 85.4142 73.5377C85.4323 73.6283 85.4912 73.6917 85.5681 73.7369C85.6315 73.7822 85.6949 73.8139 85.7221 73.8139C85.7538 73.8275 85.8036 73.8456 85.8489 73.8592C86.27 73.9814 87.0759 74.063 88.38 74.0946C88.8147 74.1082 89.2811 74.1218 89.7927 74.1218H90.087C94.2799 74.1218 100.66 73.7958 105.269 73.5196L105.459 73.506V73.3204C105.459 72.8042 105.459 72.2744 105.428 71.7175Z" fill="white" fill-opacity="0.87"/>
<path d="M64.4383 79.1477L64.5832 79.1522C64.9001 79.1613 65.2126 79.1703 65.5295 79.1703C66.1453 79.1703 66.6343 79.1296 67.06 79.0435C68.0924 78.7945 68.4455 77.9885 68.7172 77.015C67.9565 76.9697 67.2049 76.9607 66.6162 76.9607C66.2676 76.9607 65.9144 76.9652 65.5612 76.9652H65.4661L65.4299 77.015C64.8911 77.7576 64.6013 78.1515 64.4383 79.1477ZM65.5295 79.5597C65.208 79.5597 64.8911 79.5507 64.5696 79.5371L63.99 79.5235L64.0217 79.3062C64.1893 78.061 64.5379 77.5765 65.1175 76.7886L65.2669 76.5803L65.5612 76.5758C65.9099 76.5758 66.2631 76.5713 66.6162 76.5713C67.2683 76.5713 68.1286 76.5803 68.9798 76.6437L69.2108 76.6618L69.1564 76.8837C68.8485 78.0429 68.4682 79.1024 67.146 79.4239C66.6887 79.5144 66.1725 79.5597 65.5295 79.5597Z" fill="white" fill-opacity="0.87"/>
<path d="M76.3304 83.3121L73.9985 82.5514C74.5282 81.6866 75.384 81.0798 76.3304 80.8761V83.3121ZM76.4843 80.455C75.2572 80.627 74.1569 81.4194 73.5366 82.5695L73.4279 82.7688L75.4474 83.4208L76.1719 83.6698L76.7152 83.8419V80.4233L76.4843 80.455ZM77.9604 83.3121V80.8761C78.9204 81.0934 79.7626 81.7002 80.2742 82.5514L77.9604 83.3121ZM80.7406 82.5695C80.1474 81.4511 79.0471 80.6587 77.8065 80.455L77.571 80.4097V83.8419L80.8493 82.7688L80.7406 82.5695ZM77.1363 83.8736C76.8103 83.8736 76.5613 84.1362 76.5613 84.4622C76.5613 84.7565 76.8239 85.0237 77.1363 85.0237C77.4488 85.0237 77.7114 84.7565 77.7114 84.4622C77.7114 84.1362 77.4623 83.8736 77.1363 83.8736ZM74.3743 86.853C73.7856 86.1874 73.4596 85.3452 73.4596 84.4622C73.4596 84.34 73.4732 84.2132 73.4913 84.109L75.0716 84.6162L75.8323 84.8652L74.3743 86.853ZM73.1789 83.5929L73.1291 83.8102C73.1019 84.0094 73.0702 84.2268 73.0702 84.4622C73.0702 85.5353 73.4913 86.5451 74.2656 87.3058L74.4196 87.4597L75.6648 85.7346L76.113 85.1278L76.439 84.6479L73.1789 83.5929ZM79.9165 86.853L78.4902 84.915L78.4585 84.8652L80.7859 84.1226C80.7995 84.2268 80.7995 84.34 80.7995 84.4622C80.7995 85.3633 80.5051 86.1874 79.9165 86.853ZM81.1436 83.8238L81.0938 83.6064L77.8518 84.6479L79.8712 87.4597L80.0388 87.3058C80.7859 86.527 81.1889 85.5172 81.1889 84.4622C81.1889 84.2449 81.1753 84.0275 81.1436 83.8238ZM75.6919 87.831L77.1363 85.8297L78.5808 87.8174C77.6344 88.234 76.5794 88.2204 75.6919 87.831ZM77.9287 86.2327L77.1363 85.1595L75.1033 87.9714L75.3025 88.0801C75.8776 88.3744 76.4843 88.5147 77.1363 88.5147C77.7567 88.5147 78.3815 88.3563 78.9702 88.0801L79.1694 87.9714L77.9287 86.2327ZM79.9165 86.853L78.4902 84.915L78.4585 84.8652L80.7859 84.1226C80.7995 84.2268 80.7995 84.34 80.7995 84.4622C80.7995 85.3633 80.5051 86.1874 79.9165 86.853ZM81.1436 83.8238L81.0938 83.6064L77.8518 84.6479L79.8712 87.4597L80.0388 87.3058C80.7859 86.527 81.1889 85.5172 81.1889 84.4622C81.1889 84.2449 81.1753 84.0275 81.1436 83.8238ZM77.9604 83.3121V80.8761C78.9204 81.0934 79.7626 81.7002 80.2742 82.5514L77.9604 83.3121ZM80.7406 82.5695C80.1474 81.4511 79.0471 80.6587 77.8065 80.455L77.571 80.4097V83.8419L80.8493 82.7688L80.7406 82.5695ZM75.6919 87.831L77.1363 85.8297L78.5808 87.8174C77.6344 88.234 76.5794 88.2204 75.6919 87.831ZM77.9287 86.2327L77.1363 85.1595L75.1033 87.9714L75.3025 88.0801C75.8776 88.3744 76.4843 88.5147 77.1363 88.5147C77.7567 88.5147 78.3815 88.3563 78.9702 88.0801L79.1694 87.9714L77.9287 86.2327ZM77.1363 83.8736C76.8103 83.8736 76.5613 84.1362 76.5613 84.4622C76.5613 84.7565 76.8239 85.0237 77.1363 85.0237C77.4488 85.0237 77.7114 84.7565 77.7114 84.4622C77.7114 84.1362 77.4623 83.8736 77.1363 83.8736ZM76.3304 83.3121L73.9985 82.5514C74.5282 81.6866 75.384 81.0798 76.3304 80.8761V83.3121ZM76.4843 80.455C75.2572 80.627 74.1569 81.4194 73.5366 82.5695L73.4279 82.7688L75.4474 83.4208L76.1719 83.6698L76.7152 83.8419V80.4233L76.4843 80.455ZM74.3743 86.853C73.7856 86.1874 73.4596 85.3452 73.4596 84.4622C73.4596 84.34 73.4732 84.2132 73.4913 84.109L75.0716 84.6162L75.8323 84.8652L74.3743 86.853ZM73.1789 83.5929L73.1291 83.8102C73.1019 84.0094 73.0702 84.2268 73.0702 84.4622C73.0702 85.5353 73.4913 86.5451 74.2656 87.3058L74.4196 87.4597L75.6648 85.7346L76.113 85.1278L76.439 84.6479L73.1789 83.5929ZM74.3743 86.853C73.7856 86.1874 73.4596 85.3452 73.4596 84.4622C73.4596 84.34 73.4732 84.2132 73.4913 84.109L75.0716 84.6162L75.8323 84.8652L74.3743 86.853ZM73.1789 83.5929L73.1291 83.8102C73.1019 84.0094 73.0702 84.2268 73.0702 84.4622C73.0702 85.5353 73.4913 86.5451 74.2656 87.3058L74.4196 87.4597L75.6648 85.7346L76.113 85.1278L76.439 84.6479L73.1789 83.5929ZM76.3304 83.3121L73.9985 82.5514C74.5282 81.6866 75.384 81.0798 76.3304 80.8761V83.3121ZM76.4843 80.455C75.2572 80.627 74.1569 81.4194 73.5366 82.5695L73.4279 82.7688L75.4474 83.4208L76.1719 83.6698L76.7152 83.8419V80.4233L76.4843 80.455ZM77.1363 83.8736C76.8103 83.8736 76.5613 84.1362 76.5613 84.4622C76.5613 84.7565 76.8239 85.0237 77.1363 85.0237C77.4488 85.0237 77.7114 84.7565 77.7114 84.4622C77.7114 84.1362 77.4623 83.8736 77.1363 83.8736ZM75.6919 87.831L77.1363 85.8297L78.5808 87.8174C77.6344 88.234 76.5794 88.2204 75.6919 87.831ZM77.9287 86.2327L77.1363 85.1595L75.1033 87.9714L75.3025 88.0801C75.8776 88.3744 76.4843 88.5147 77.1363 88.5147C77.7567 88.5147 78.3815 88.3563 78.9702 88.0801L79.1694 87.9714L77.9287 86.2327ZM77.9604 83.3121V80.8761C78.9204 81.0934 79.7626 81.7002 80.2742 82.5514L77.9604 83.3121ZM80.7406 82.5695C80.1474 81.4511 79.0471 80.6587 77.8065 80.455L77.571 80.4097V83.8419L80.8493 82.7688L80.7406 82.5695ZM79.9165 86.853L78.4902 84.915L78.4585 84.8652L80.7859 84.1226C80.7995 84.2268 80.7995 84.34 80.7995 84.4622C80.7995 85.3633 80.5051 86.1874 79.9165 86.853ZM81.1436 83.8238L81.0938 83.6064L77.8518 84.6479L79.8712 87.4597L80.0388 87.3058C80.7859 86.527 81.1889 85.5172 81.1889 84.4622C81.1889 84.2449 81.1753 84.0275 81.1436 83.8238ZM79.9165 86.853L78.4902 84.915L78.4585 84.8652L80.7859 84.1226C80.7995 84.2268 80.7995 84.34 80.7995 84.4622C80.7995 85.3633 80.5051 86.1874 79.9165 86.853ZM81.1436 83.8238L81.0938 83.6064L77.8518 84.6479L79.8712 87.4597L80.0388 87.3058C80.7859 86.527 81.1889 85.5172 81.1889 84.4622C81.1889 84.2449 81.1753 84.0275 81.1436 83.8238ZM77.9604 83.3121V80.8761C78.9204 81.0934 79.7626 81.7002 80.2742 82.5514L77.9604 83.3121ZM80.7406 82.5695C80.1474 81.4511 79.0471 80.6587 77.8065 80.455L77.571 80.4097V83.8419L80.8493 82.7688L80.7406 82.5695ZM75.6919 87.831L77.1363 85.8297L78.5808 87.8174C77.6344 88.234 76.5794 88.2204 75.6919 87.831ZM77.9287 86.2327L77.1363 85.1595L75.1033 87.9714L75.3025 88.0801C75.8776 88.3744 76.4843 88.5147 77.1363 88.5147C77.7567 88.5147 78.3815 88.3563 78.9702 88.0801L79.1694 87.9714L77.9287 86.2327ZM77.1363 83.8736C76.8103 83.8736 76.5613 84.1362 76.5613 84.4622C76.5613 84.7565 76.8239 85.0237 77.1363 85.0237C77.4488 85.0237 77.7114 84.7565 77.7114 84.4622C77.7114 84.1362 77.4623 83.8736 77.1363 83.8736ZM76.3304 83.3121L73.9985 82.5514C74.5282 81.6866 75.384 81.0798 76.3304 80.8761V83.3121ZM76.4843 80.455C75.2572 80.627 74.1569 81.4194 73.5366 82.5695L73.4279 82.7688L75.4474 83.4208L76.1719 83.6698L76.7152 83.8419V80.4233L76.4843 80.455ZM74.3743 86.853C73.7856 86.1874 73.4596 85.3452 73.4596 84.4622C73.4596 84.34 73.4732 84.2132 73.4913 84.109L75.0716 84.6162L75.8323 84.8652L74.3743 86.853ZM73.1789 83.5929L73.1291 83.8102C73.1019 84.0094 73.0702 84.2268 73.0702 84.4622C73.0702 85.5353 73.4913 86.5451 74.2656 87.3058L74.4196 87.4597L75.6648 85.7346L76.113 85.1278L76.439 84.6479L73.1789 83.5929ZM74.3743 86.853C73.7856 86.1874 73.4596 85.3452 73.4596 84.4622C73.4596 84.34 73.4732 84.2132 73.4913 84.109L75.0716 84.6162L75.8323 84.8652L74.3743 86.853ZM73.1789 83.5929L73.1291 83.8102C73.1019 84.0094 73.0702 84.2268 73.0702 84.4622C73.0702 85.5353 73.4913 86.5451 74.2656 87.3058L74.4196 87.4597L75.6648 85.7346L76.113 85.1278L76.439 84.6479L73.1789 83.5929ZM76.3304 83.3121L73.9985 82.5514C74.5282 81.6866 75.384 81.0798 76.3304 80.8761V83.3121ZM76.4843 80.455C75.2572 80.627 74.1569 81.4194 73.5366 82.5695L73.4279 82.7688L75.4474 83.4208L76.1719 83.6698L76.7152 83.8419V80.4233L76.4843 80.455ZM77.1363 83.8736C76.8103 83.8736 76.5613 84.1362 76.5613 84.4622C76.5613 84.7565 76.8239 85.0237 77.1363 85.0237C77.4488 85.0237 77.7114 84.7565 77.7114 84.4622C77.7114 84.1362 77.4623 83.8736 77.1363 83.8736ZM75.6919 87.831L77.1363 85.8297L78.5808 87.8174C77.6344 88.234 76.5794 88.2204 75.6919 87.831ZM77.9287 86.2327L77.1363 85.1595L75.1033 87.9714L75.3025 88.0801C75.8776 88.3744 76.4843 88.5147 77.1363 88.5147C77.7567 88.5147 78.3815 88.3563 78.9702 88.0801L79.1694 87.9714L77.9287 86.2327ZM77.9604 83.3121V80.8761C78.9204 81.0934 79.7626 81.7002 80.2742 82.5514L77.9604 83.3121ZM80.7406 82.5695C80.1474 81.4511 79.0471 80.6587 77.8065 80.455L77.571 80.4097V83.8419L80.8493 82.7688L80.7406 82.5695ZM79.9165 86.853L78.4902 84.915L78.4585 84.8652L80.7859 84.1226C80.7995 84.2268 80.7995 84.34 80.7995 84.4622C80.7995 85.3633 80.5051 86.1874 79.9165 86.853ZM81.1436 83.8238L81.0938 83.6064L77.8518 84.6479L79.8712 87.4597L80.0388 87.3058C80.7859 86.527 81.1889 85.5172 81.1889 84.4622C81.1889 84.2449 81.1753 84.0275 81.1436 83.8238ZM79.9165 86.853L78.4902 84.915L78.4585 84.8652L80.7859 84.1226C80.7995 84.2268 80.7995 84.34 80.7995 84.4622C80.7995 85.3633 80.5051 86.1874 79.9165 86.853ZM81.1436 83.8238L81.0938 83.6064L77.8518 84.6479L79.8712 87.4597L80.0388 87.3058C80.7859 86.527 81.1889 85.5172 81.1889 84.4622C81.1889 84.2449 81.1753 84.0275 81.1436 83.8238ZM77.9604 83.3121V80.8761C78.9204 81.0934 79.7626 81.7002 80.2742 82.5514L77.9604 83.3121ZM80.7406 82.5695C80.1474 81.4511 79.0471 80.6587 77.8065 80.455L77.571 80.4097V83.8419L80.8493 82.7688L80.7406 82.5695ZM75.6919 87.831L77.1363 85.8297L78.5808 87.8174C77.6344 88.234 76.5794 88.2204 75.6919 87.831ZM77.9287 86.2327L77.1363 85.1595L75.1033 87.9714L75.3025 88.0801C75.8776 88.3744 76.4843 88.5147 77.1363 88.5147C77.7567 88.5147 78.3815 88.3563 78.9702 88.0801L79.1694 87.9714L77.9287 86.2327ZM77.1363 83.8736C76.8103 83.8736 76.5613 84.1362 76.5613 84.4622C76.5613 84.7565 76.8239 85.0237 77.1363 85.0237C77.4488 85.0237 77.7114 84.7565 77.7114 84.4622C77.7114 84.1362 77.4623 83.8736 77.1363 83.8736ZM76.3304 83.3121L73.9985 82.5514C74.5282 81.6866 75.384 81.0798 76.3304 80.8761V83.3121ZM76.4843 80.455C75.2572 80.627 74.1569 81.4194 73.5366 82.5695L73.4279 82.7688L75.4474 83.4208L76.1719 83.6698L76.7152 83.8419V80.4233L76.4843 80.455ZM74.3743 86.853C73.7856 86.1874 73.4596 85.3452 73.4596 84.4622C73.4596 84.34 73.4732 84.2132 73.4913 84.109L75.0716 84.6162L75.8323 84.8652L74.3743 86.853ZM73.1789 83.5929L73.1291 83.8102C73.1019 84.0094 73.0702 84.2268 73.0702 84.4622C73.0702 85.5353 73.4913 86.5451 74.2656 87.3058L74.4196 87.4597L75.6648 85.7346L76.113 85.1278L76.439 84.6479L73.1789 83.5929ZM74.3743 86.853C73.7856 86.1874 73.4596 85.3452 73.4596 84.4622C73.4596 84.34 73.4732 84.2132 73.4913 84.109L75.0716 84.6162L75.8323 84.8652L74.3743 86.853ZM73.1789 83.5929L73.1291 83.8102C73.1019 84.0094 73.0702 84.2268 73.0702 84.4622C73.0702 85.5353 73.4913 86.5451 74.2656 87.3058L74.4196 87.4597L75.6648 85.7346L76.113 85.1278L76.439 84.6479L73.1789 83.5929ZM76.3304 83.3121L73.9985 82.5514C74.5282 81.6866 75.384 81.0798 76.3304 80.8761V83.3121ZM76.4843 80.455C75.2572 80.627 74.1569 81.4194 73.5366 82.5695L73.4279 82.7688L75.4474 83.4208L76.1719 83.6698L76.7152 83.8419V80.4233L76.4843 80.455ZM77.1363 83.8736C76.8103 83.8736 76.5613 84.1362 76.5613 84.4622C76.5613 84.7565 76.8239 85.0237 77.1363 85.0237C77.4488 85.0237 77.7114 84.7565 77.7114 84.4622C77.7114 84.1362 77.4623 83.8736 77.1363 83.8736ZM75.6919 87.831L77.1363 85.8297L78.5808 87.8174C77.6344 88.234 76.5794 88.2204 75.6919 87.831ZM77.9287 86.2327L77.1363 85.1595L75.1033 87.9714L75.3025 88.0801C75.8776 88.3744 76.4843 88.5147 77.1363 88.5147C77.7567 88.5147 78.3815 88.3563 78.9702 88.0801L79.1694 87.9714L77.9287 86.2327ZM77.9604 83.3121V80.8761C78.9204 81.0934 79.7626 81.7002 80.2742 82.5514L77.9604 83.3121ZM80.7406 82.5695C80.1474 81.4511 79.0471 80.6587 77.8065 80.455L77.571 80.4097V83.8419L80.8493 82.7688L80.7406 82.5695ZM79.9165 86.853L78.4902 84.915L78.4585 84.8652L80.7859 84.1226C80.7995 84.2268 80.7995 84.34 80.7995 84.4622C80.7995 85.3633 80.5051 86.1874 79.9165 86.853ZM81.1436 83.8238L81.0938 83.6064L77.8518 84.6479L79.8712 87.4597L80.0388 87.3058C80.7859 86.527 81.1889 85.5172 81.1889 84.4622C81.1889 84.2449 81.1753 84.0275 81.1436 83.8238ZM79.9165 86.853L78.4902 84.915L78.4585 84.8652L80.7859 84.1226C80.7995 84.2268 80.7995 84.34 80.7995 84.4622C80.7995 85.3633 80.5051 86.1874 79.9165 86.853ZM81.1436 83.8238L81.0938 83.6064L77.8518 84.6479L79.8712 87.4597L80.0388 87.3058C80.7859 86.527 81.1889 85.5172 81.1889 84.4622C81.1889 84.2449 81.1753 84.0275 81.1436 83.8238ZM77.9604 83.3121V80.8761C78.9204 81.0934 79.7626 81.7002 80.2742 82.5514L77.9604 83.3121ZM80.7406 82.5695C80.1474 81.4511 79.0471 80.6587 77.8065 80.455L77.571 80.4097V83.8419L80.8493 82.7688L80.7406 82.5695ZM75.6919 87.831L77.1363 85.8297L78.5808 87.8174C77.6344 88.234 76.5794 88.2204 75.6919 87.831ZM77.9287 86.2327L77.1363 85.1595L75.1033 87.9714L75.3025 88.0801C75.8776 88.3744 76.4843 88.5147 77.1363 88.5147C77.7567 88.5147 78.3815 88.3563 78.9702 88.0801L79.1694 87.9714L77.9287 86.2327ZM77.1363 83.8736C76.8103 83.8736 76.5613 84.1362 76.5613 84.4622C76.5613 84.7565 76.8239 85.0237 77.1363 85.0237C77.4488 85.0237 77.7114 84.7565 77.7114 84.4622C77.7114 84.1362 77.4623 83.8736 77.1363 83.8736ZM76.3304 83.3121L73.9985 82.5514C74.5282 81.6866 75.384 81.0798 76.3304 80.8761V83.3121ZM76.4843 80.455C75.2572 80.627 74.1569 81.4194 73.5366 82.5695L73.4279 82.7688L75.4474 83.4208L76.1719 83.6698L76.7152 83.8419V80.4233L76.4843 80.455ZM74.3743 86.853C73.7856 86.1874 73.4596 85.3452 73.4596 84.4622C73.4596 84.34 73.4732 84.2132 73.4913 84.109L75.0716 84.6162L75.8323 84.8652L74.3743 86.853ZM73.1789 83.5929L73.1291 83.8102C73.1019 84.0094 73.0702 84.2268 73.0702 84.4622C73.0702 85.5353 73.4913 86.5451 74.2656 87.3058L74.4196 87.4597L75.6648 85.7346L76.113 85.1278L76.439 84.6479L73.1789 83.5929ZM74.3743 86.853C73.7856 86.1874 73.4596 85.3452 73.4596 84.4622C73.4596 84.34 73.4732 84.2132 73.4913 84.109L75.0716 84.6162L75.8323 84.8652L74.3743 86.853ZM73.1789 83.5929L73.1291 83.8102C73.1019 84.0094 73.0702 84.2268 73.0702 84.4622C73.0702 85.5353 73.4913 86.5451 74.2656 87.3058L74.4196 87.4597L75.6648 85.7346L76.113 85.1278L76.439 84.6479L73.1789 83.5929ZM76.3304 83.3121L73.9985 82.5514C74.5282 81.6866 75.384 81.0798 76.3304 80.8761V83.3121ZM76.4843 80.455C75.2572 80.627 74.1569 81.4194 73.5366 82.5695L73.4279 82.7688L75.4474 83.4208L76.1719 83.6698L76.7152 83.8419V80.4233L76.4843 80.455ZM77.1363 83.8736C76.8103 83.8736 76.5613 84.1362 76.5613 84.4622C76.5613 84.7565 76.8239 85.0237 77.1363 85.0237C77.4488 85.0237 77.7114 84.7565 77.7114 84.4622C77.7114 84.1362 77.4623 83.8736 77.1363 83.8736ZM75.6919 87.831L77.1363 85.8297L78.5808 87.8174C77.6344 88.234 76.5794 88.2204 75.6919 87.831ZM77.9287 86.2327L77.1363 85.1595L75.1033 87.9714L75.3025 88.0801C75.8776 88.3744 76.4843 88.5147 77.1363 88.5147C77.7567 88.5147 78.3815 88.3563 78.9702 88.0801L79.1694 87.9714L77.9287 86.2327ZM77.9604 83.3121V80.8761C78.9204 81.0934 79.7626 81.7002 80.2742 82.5514L77.9604 83.3121ZM80.7406 82.5695C80.1474 81.4511 79.0471 80.6587 77.8065 80.455L77.571 80.4097V83.8419L80.8493 82.7688L80.7406 82.5695ZM79.9165 86.853L78.4902 84.915L78.4585 84.8652L80.7859 84.1226C80.7995 84.2268 80.7995 84.34 80.7995 84.4622C80.7995 85.3633 80.5051 86.1874 79.9165 86.853ZM81.1436 83.8238L81.0938 83.6064L77.8518 84.6479L79.8712 87.4597L80.0388 87.3058C80.7859 86.527 81.1889 85.5172 81.1889 84.4622C81.1889 84.2449 81.1753 84.0275 81.1436 83.8238ZM79.9165 86.853L78.4902 84.915L78.4585 84.8652L80.7859 84.1226C80.7995 84.2268 80.7995 84.34 80.7995 84.4622C80.7995 85.3633 80.5051 86.1874 79.9165 86.853ZM81.1436 83.8238L81.0938 83.6064L77.8518 84.6479L79.8712 87.4597L80.0388 87.3058C80.7859 86.527 81.1889 85.5172 81.1889 84.4622C81.1889 84.2449 81.1753 84.0275 81.1436 83.8238ZM77.9604 83.3121V80.8761C78.9204 81.0934 79.7626 81.7002 80.2742 82.5514L77.9604 83.3121ZM80.7406 82.5695C80.1474 81.4511 79.0471 80.6587 77.8065 80.455L77.571 80.4097V83.8419L80.8493 82.7688L80.7406 82.5695ZM75.6919 87.831L77.1363 85.8297L78.5808 87.8174C77.6344 88.234 76.5794 88.2204 75.6919 87.831ZM77.9287 86.2327L77.1363 85.1595L75.1033 87.9714L75.3025 88.0801C75.8776 88.3744 76.4843 88.5147 77.1363 88.5147C77.7567 88.5147 78.3815 88.3563 78.9702 88.0801L79.1694 87.9714L77.9287 86.2327ZM77.1363 83.8736C76.8103 83.8736 76.5613 84.1362 76.5613 84.4622C76.5613 84.7565 76.8239 85.0237 77.1363 85.0237C77.4488 85.0237 77.7114 84.7565 77.7114 84.4622C77.7114 84.1362 77.4623 83.8736 77.1363 83.8736ZM76.3304 83.3121L73.9985 82.5514C74.5282 81.6866 75.384 81.0798 76.3304 80.8761V83.3121ZM76.4843 80.455C75.2572 80.627 74.1569 81.4194 73.5366 82.5695L73.4279 82.7688L75.4474 83.4208L76.1719 83.6698L76.7152 83.8419V80.4233L76.4843 80.455ZM74.3743 86.853C73.7856 86.1874 73.4596 85.3452 73.4596 84.4622C73.4596 84.34 73.4732 84.2132 73.4913 84.109L75.0716 84.6162L75.8323 84.8652L74.3743 86.853ZM73.1789 83.5929L73.1291 83.8102C73.1019 84.0094 73.0702 84.2268 73.0702 84.4622C73.0702 85.5353 73.4913 86.5451 74.2656 87.3058L74.4196 87.4597L75.6648 85.7346L76.113 85.1278L76.439 84.6479L73.1789 83.5929ZM74.3743 86.853C73.7856 86.1874 73.4596 85.3452 73.4596 84.4622C73.4596 84.34 73.4732 84.2132 73.4913 84.109L75.0716 84.6162L75.8323 84.8652L74.3743 86.853ZM73.1789 83.5929L73.1291 83.8102C73.1019 84.0094 73.0702 84.2268 73.0702 84.4622C73.0702 85.5353 73.4913 86.5451 74.2656 87.3058L74.4196 87.4597L75.6648 85.7346L76.113 85.1278L76.439 84.6479L73.1789 83.5929ZM76.3304 83.3121L73.9985 82.5514C74.5282 81.6866 75.384 81.0798 76.3304 80.8761V83.3121ZM76.4843 80.455C75.2572 80.627 74.1569 81.4194 73.5366 82.5695L73.4279 82.7688L75.4474 83.4208L76.1719 83.6698L76.7152 83.8419V80.4233L76.4843 80.455ZM77.1363 83.8736C76.8103 83.8736 76.5613 84.1362 76.5613 84.4622C76.5613 84.7565 76.8239 85.0237 77.1363 85.0237C77.4488 85.0237 77.7114 84.7565 77.7114 84.4622C77.7114 84.1362 77.4623 83.8736 77.1363 83.8736ZM75.6919 87.831L77.1363 85.8297L78.5808 87.8174C77.6344 88.234 76.5794 88.2204 75.6919 87.831ZM77.9287 86.2327L77.1363 85.1595L75.1033 87.9714L75.3025 88.0801C75.8776 88.3744 76.4843 88.5147 77.1363 88.5147C77.7567 88.5147 78.3815 88.3563 78.9702 88.0801L79.1694 87.9714L77.9287 86.2327ZM77.9604 83.3121V80.8761C78.9204 81.0934 79.7626 81.7002 80.2742 82.5514L77.9604 83.3121ZM80.7406 82.5695C80.1474 81.4511 79.0471 80.6587 77.8065 80.455L77.571 80.4097V83.8419L80.8493 82.7688L80.7406 82.5695ZM79.9165 86.853L78.4902 84.915L78.4585 84.8652L80.7859 84.1226C80.7995 84.2268 80.7995 84.34 80.7995 84.4622C80.7995 85.3633 80.5051 86.1874 79.9165 86.853ZM81.1436 83.8238L81.0938 83.6064L77.8518 84.6479L79.8712 87.4597L80.0388 87.3058C80.7859 86.527 81.1889 85.5172 81.1889 84.4622C81.1889 84.2449 81.1753 84.0275 81.1436 83.8238ZM79.9165 86.853L78.4902 84.915L78.4585 84.8652L80.7859 84.1226C80.7995 84.2268 80.7995 84.34 80.7995 84.4622C80.7995 85.3633 80.5051 86.1874 79.9165 86.853ZM81.1436 83.8238L81.0938 83.6064L77.8518 84.6479L79.8712 87.4597L80.0388 87.3058C80.7859 86.527 81.1889 85.5172 81.1889 84.4622C81.1889 84.2449 81.1753 84.0275 81.1436 83.8238ZM77.9604 83.3121V80.8761C78.9204 81.0934 79.7626 81.7002 80.2742 82.5514L77.9604 83.3121ZM80.7406 82.5695C80.1474 81.4511 79.0471 80.6587 77.8065 80.455L77.571 80.4097V83.8419L80.8493 82.7688L80.7406 82.5695ZM75.6919 87.831L77.1363 85.8297L78.5808 87.8174C77.6344 88.234 76.5794 88.2204 75.6919 87.831ZM77.9287 86.2327L77.1363 85.1595L75.1033 87.9714L75.3025 88.0801C75.8776 88.3744 76.4843 88.5147 77.1363 88.5147C77.7567 88.5147 78.3815 88.3563 78.9702 88.0801L79.1694 87.9714L77.9287 86.2327ZM77.1363 83.8736C76.8103 83.8736 76.5613 84.1362 76.5613 84.4622C76.5613 84.7565 76.8239 85.0237 77.1363 85.0237C77.4488 85.0237 77.7114 84.7565 77.7114 84.4622C77.7114 84.1362 77.4623 83.8736 77.1363 83.8736ZM76.3304 83.3121L73.9985 82.5514C74.5282 81.6866 75.384 81.0798 76.3304 80.8761V83.3121ZM76.4843 80.455C75.2572 80.627 74.1569 81.4194 73.5366 82.5695L73.4279 82.7688L75.4474 83.4208L76.1719 83.6698L76.7152 83.8419V80.4233L76.4843 80.455ZM74.3743 86.853C73.7856 86.1874 73.4596 85.3452 73.4596 84.4622C73.4596 84.34 73.4732 84.2132 73.4913 84.109L75.0716 84.6162L75.8323 84.8652L74.3743 86.853ZM73.1789 83.5929L73.1291 83.8102C73.1019 84.0094 73.0702 84.2268 73.0702 84.4622C73.0702 85.5353 73.4913 86.5451 74.2656 87.3058L74.4196 87.4597L75.6648 85.7346L76.113 85.1278L76.439 84.6479L73.1789 83.5929ZM74.3743 86.853C73.7856 86.1874 73.4596 85.3452 73.4596 84.4622C73.4596 84.34 73.4732 84.2132 73.4913 84.109L75.0716 84.6162L75.8323 84.8652L74.3743 86.853ZM73.1789 83.5929L73.1291 83.8102C73.1019 84.0094 73.0702 84.2268 73.0702 84.4622C73.0702 85.5353 73.4913 86.5451 74.2656 87.3058L74.4196 87.4597L75.6648 85.7346L76.113 85.1278L76.439 84.6479L73.1789 83.5929ZM76.3304 83.3121L73.9985 82.5514C74.5282 81.6866 75.384 81.0798 76.3304 80.8761V83.3121ZM76.4843 80.455C75.2572 80.627 74.1569 81.4194 73.5366 82.5695L73.4279 82.7688L75.4474 83.4208L76.1719 83.6698L76.7152 83.8419V80.4233L76.4843 80.455ZM77.1363 83.8736C76.8103 83.8736 76.5613 84.1362 76.5613 84.4622C76.5613 84.7565 76.8239 85.0237 77.1363 85.0237C77.4488 85.0237 77.7114 84.7565 77.7114 84.4622C77.7114 84.1362 77.4623 83.8736 77.1363 83.8736ZM75.6919 87.831L77.1363 85.8297L78.5808 87.8174C77.6344 88.234 76.5794 88.2204 75.6919 87.831ZM77.9287 86.2327L77.1363 85.1595L75.1033 87.9714L75.3025 88.0801C75.8776 88.3744 76.4843 88.5147 77.1363 88.5147C77.7567 88.5147 78.3815 88.3563 78.9702 88.0801L79.1694 87.9714L77.9287 86.2327ZM77.9604 83.3121V80.8761C78.9204 81.0934 79.7626 81.7002 80.2742 82.5514L77.9604 83.3121ZM80.7406 82.5695C80.1474 81.4511 79.0471 80.6587 77.8065 80.455L77.571 80.4097V83.8419L80.8493 82.7688L80.7406 82.5695ZM79.9165 86.853L78.4902 84.915L78.4585 84.8652L80.7859 84.1226C80.7995 84.2268 80.7995 84.34 80.7995 84.4622C80.7995 85.3633 80.5051 86.1874 79.9165 86.853ZM81.1436 83.8238L81.0938 83.6064L77.8518 84.6479L79.8712 87.4597L80.0388 87.3058C80.7859 86.527 81.1889 85.5172 81.1889 84.4622C81.1889 84.2449 81.1753 84.0275 81.1436 83.8238ZM74.3743 86.853C73.7856 86.1874 73.4596 85.3452 73.4596 84.4622C73.4596 84.34 73.4732 84.2132 73.4913 84.109L75.0716 84.6162L75.8323 84.8652L74.3743 86.853ZM73.1789 83.5929L73.1291 83.8102C73.1019 84.0094 73.0702 84.2268 73.0702 84.4622C73.0702 85.5353 73.4913 86.5451 74.2656 87.3058L74.4196 87.4597L75.6648 85.7346L76.113 85.1278L76.439 84.6479L73.1789 83.5929ZM76.3304 83.3121L73.9985 82.5514C74.5282 81.6866 75.384 81.0798 76.3304 80.8761V83.3121ZM76.4843 80.455C75.2572 80.627 74.1569 81.4194 73.5366 82.5695L73.4279 82.7688L75.4474 83.4208L76.1719 83.6698L76.7152 83.8419V80.4233L76.4843 80.455ZM77.1363 83.8736C76.8103 83.8736 76.5613 84.1362 76.5613 84.4622C76.5613 84.7565 76.8239 85.0237 77.1363 85.0237C77.4488 85.0237 77.7114 84.7565 77.7114 84.4622C77.7114 84.1362 77.4623 83.8736 77.1363 83.8736ZM75.6919 87.831L77.1363 85.8297L78.5808 87.8174C77.6344 88.234 76.5794 88.2204 75.6919 87.831ZM77.9287 86.2327L77.1363 85.1595L75.1033 87.9714L75.3025 88.0801C75.8776 88.3744 76.4843 88.5147 77.1363 88.5147C77.7567 88.5147 78.3815 88.3563 78.9702 88.0801L79.1694 87.9714L77.9287 86.2327ZM77.9604 83.3121V80.8761C78.9204 81.0934 79.7626 81.7002 80.2742 82.5514L77.9604 83.3121ZM80.7406 82.5695C80.1474 81.4511 79.0471 80.6587 77.8065 80.455L77.571 80.4097V83.8419L80.8493 82.7688L80.7406 82.5695ZM79.9165 86.853L78.4902 84.915L78.4585 84.8652L80.7859 84.1226C80.7995 84.2268 80.7995 84.34 80.7995 84.4622C80.7995 85.3633 80.5051 86.1874 79.9165 86.853ZM81.1436 83.8238L81.0938 83.6064L77.8518 84.6479L79.8712 87.4597L80.0388 87.3058C80.7859 86.527 81.1889 85.5172 81.1889 84.4622C81.1889 84.2449 81.1753 84.0275 81.1436 83.8238ZM74.3743 86.853C73.7856 86.1874 73.4596 85.3452 73.4596 84.4622C73.4596 84.34 73.4732 84.2132 73.4913 84.109L75.0716 84.6162L75.8323 84.8652L74.3743 86.853ZM73.1789 83.5929L73.1291 83.8102C73.1019 84.0094 73.0702 84.2268 73.0702 84.4622C73.0702 85.5353 73.4913 86.5451 74.2656 87.3058L74.4196 87.4597L75.6648 85.7346L76.113 85.1278L76.439 84.6479L73.1789 83.5929ZM76.3304 83.3121L73.9985 82.5514C74.5282 81.6866 75.384 81.0798 76.3304 80.8761V83.3121ZM76.4843 80.455C75.2572 80.627 74.1569 81.4194 73.5366 82.5695L73.4279 82.7688L75.4474 83.4208L76.1719 83.6698L76.7152 83.8419V80.4233L76.4843 80.455ZM77.1363 83.8736C76.8103 83.8736 76.5613 84.1362 76.5613 84.4622C76.5613 84.7565 76.8239 85.0237 77.1363 85.0237C77.4488 85.0237 77.7114 84.7565 77.7114 84.4622C77.7114 84.1362 77.4623 83.8736 77.1363 83.8736ZM75.6919 87.831L77.1363 85.8297L78.5808 87.8174C77.6344 88.234 76.5794 88.2204 75.6919 87.831ZM77.9287 86.2327L77.1363 85.1595L75.1033 87.9714L75.3025 88.0801C75.8776 88.3744 76.4843 88.5147 77.1363 88.5147C77.7567 88.5147 78.3815 88.3563 78.9702 88.0801L79.1694 87.9714L77.9287 86.2327ZM77.9604 83.3121V80.8761C78.9204 81.0934 79.7626 81.7002 80.2742 82.5514L77.9604 83.3121ZM80.7406 82.5695C80.1474 81.4511 79.0471 80.6587 77.8065 80.455L77.571 80.4097V83.8419L80.8493 82.7688L80.7406 82.5695ZM79.9165 86.853L78.4902 84.915L78.4585 84.8652L80.7859 84.1226C80.7995 84.2268 80.7995 84.34 80.7995 84.4622C80.7995 85.3633 80.5051 86.1874 79.9165 86.853ZM81.1436 83.8238L81.0938 83.6064L77.8518 84.6479L79.8712 87.4597L80.0388 87.3058C80.7859 86.527 81.1889 85.5172 81.1889 84.4622C81.1889 84.2449 81.1753 84.0275 81.1436 83.8238ZM74.3743 86.853C73.7856 86.1874 73.4596 85.3452 73.4596 84.4622C73.4596 84.34 73.4732 84.2132 73.4913 84.109L75.0716 84.6162L75.8323 84.8652L74.3743 86.853ZM76.439 84.6479L73.1789 83.5929L73.1291 83.8102C73.1019 84.0094 73.0702 84.2268 73.0702 84.4622C73.0702 85.5353 73.4913 86.5451 74.2656 87.3058L74.4196 87.4597L75.6648 85.7346L76.113 85.1278L76.439 84.6479ZM76.3304 80.8761V83.3121L73.9985 82.5514C74.5282 81.6866 75.384 81.0798 76.3304 80.8761ZM73.5366 82.5695L73.4279 82.7688L75.4474 83.4208L76.1719 83.6698L76.7152 83.8419V80.4233L76.4843 80.455C75.2572 80.627 74.1569 81.4194 73.5366 82.5695ZM77.1363 85.0237C77.4488 85.0237 77.7114 84.7565 77.7114 84.4622C77.7114 84.1362 77.4623 83.8736 77.1363 83.8736C76.8103 83.8736 76.5613 84.1362 76.5613 84.4622C76.5613 84.7565 76.8239 85.0237 77.1363 85.0237ZM77.1363 85.8297L78.5808 87.8174C77.6344 88.234 76.5794 88.2204 75.6919 87.831L77.1363 85.8297ZM77.1363 88.5147C77.7567 88.5147 78.3815 88.3563 78.9702 88.0801L79.1694 87.9714L77.9287 86.2327L77.1363 85.1595L75.1033 87.9714L75.3025 88.0801C75.8776 88.3744 76.4843 88.5147 77.1363 88.5147ZM77.9604 83.3121V80.8761C78.9204 81.0934 79.7626 81.7002 80.2742 82.5514L77.9604 83.3121ZM80.7406 82.5695C80.1474 81.4511 79.0471 80.6587 77.8065 80.455L77.571 80.4097V83.8419L80.8493 82.7688L80.7406 82.5695ZM78.4585 84.8652L80.7859 84.1226C80.7995 84.2268 80.7995 84.34 80.7995 84.4622C80.7995 85.3633 80.5051 86.1874 79.9165 86.853L78.4902 84.915L78.4585 84.8652ZM80.0388 87.3058C80.7859 86.527 81.1889 85.5172 81.1889 84.4622C81.1889 84.2449 81.1753 84.0275 81.1436 83.8238L81.0938 83.6064L77.8518 84.6479L79.8712 87.4597L80.0388 87.3058ZM79.355 79.4634L79.3098 79.8799C81.0168 80.6904 82.2122 82.4292 82.2122 84.4622C82.2122 87.2424 79.9301 89.5245 77.1363 89.5245C74.3426 89.5245 72.0786 87.2424 72.0786 84.4622C72.0786 82.0262 73.7856 79.9931 76.0496 79.5086L75.941 79.1373C73.5049 79.6807 71.6892 81.8541 71.6892 84.4622C71.6892 87.4597 74.1252 89.9094 77.1363 89.9094C80.1474 89.9094 82.6016 87.4597 82.6016 84.4622C82.6016 82.2299 81.2658 80.3191 79.355 79.4634ZM79.9165 86.853L78.4902 84.915L78.4585 84.8652L80.7859 84.1226C80.7995 84.2268 80.7995 84.34 80.7995 84.4622C80.7995 85.3633 80.5051 86.1874 79.9165 86.853ZM81.1436 83.8238L81.0938 83.6064L77.8518 84.6479L79.8712 87.4597L80.0388 87.3058C80.7859 86.527 81.1889 85.5172 81.1889 84.4622C81.1889 84.2449 81.1753 84.0275 81.1436 83.8238ZM77.9604 83.3121V80.8761C78.9204 81.0934 79.7626 81.7002 80.2742 82.5514L77.9604 83.3121ZM80.7406 82.5695C80.1474 81.4511 79.0471 80.6587 77.8065 80.455L77.571 80.4097V83.8419L80.8493 82.7688L80.7406 82.5695ZM75.6919 87.831L77.1363 85.8297L78.5808 87.8174C77.6344 88.234 76.5794 88.2204 75.6919 87.831ZM77.9287 86.2327L77.1363 85.1595L75.1033 87.9714L75.3025 88.0801C75.8776 88.3744 76.4843 88.5147 77.1363 88.5147C77.7567 88.5147 78.3815 88.3563 78.9702 88.0801L79.1694 87.9714L77.9287 86.2327ZM77.1363 83.8736C76.8103 83.8736 76.5613 84.1362 76.5613 84.4622C76.5613 84.7565 76.8239 85.0237 77.1363 85.0237C77.4488 85.0237 77.7114 84.7565 77.7114 84.4622C77.7114 84.1362 77.4623 83.8736 77.1363 83.8736ZM76.3304 83.3121L73.9985 82.5514C74.5282 81.6866 75.384 81.0798 76.3304 80.8761V83.3121ZM76.4843 80.455C75.2572 80.627 74.1569 81.4194 73.5366 82.5695L73.4279 82.7688L75.4474 83.4208L76.1719 83.6698L76.7152 83.8419V80.4233L76.4843 80.455ZM74.3743 86.853C73.7856 86.1874 73.4596 85.3452 73.4596 84.4622C73.4596 84.34 73.4732 84.2132 73.4913 84.109L75.0716 84.6162L75.8323 84.8652L74.3743 86.853ZM73.1789 83.5929L73.1291 83.8102C73.1019 84.0094 73.0702 84.2268 73.0702 84.4622C73.0702 85.5353 73.4913 86.5451 74.2656 87.3058L74.4196 87.4597L75.6648 85.7346L76.113 85.1278L76.439 84.6479L73.1789 83.5929ZM79.9165 86.853L78.4902 84.915L78.4585 84.8652L80.7859 84.1226C80.7995 84.2268 80.7995 84.34 80.7995 84.4622C80.7995 85.3633 80.5051 86.1874 79.9165 86.853ZM81.1436 83.8238L81.0938 83.6064L77.8518 84.6479L79.8712 87.4597L80.0388 87.3058C80.7859 86.527 81.1889 85.5172 81.1889 84.4622C81.1889 84.2449 81.1753 84.0275 81.1436 83.8238ZM77.9604 83.3121V80.8761C78.9204 81.0934 79.7626 81.7002 80.2742 82.5514L77.9604 83.3121ZM80.7406 82.5695C80.1474 81.4511 79.0471 80.6587 77.8065 80.455L77.571 80.4097V83.8419L80.8493 82.7688L80.7406 82.5695ZM75.6919 87.831L77.1363 85.8297L78.5808 87.8174C77.6344 88.234 76.5794 88.2204 75.6919 87.831ZM77.9287 86.2327L77.1363 85.1595L75.1033 87.9714L75.3025 88.0801C75.8776 88.3744 76.4843 88.5147 77.1363 88.5147C77.7567 88.5147 78.3815 88.3563 78.9702 88.0801L79.1694 87.9714L77.9287 86.2327ZM77.1363 83.8736C76.8103 83.8736 76.5613 84.1362 76.5613 84.4622C76.5613 84.7565 76.8239 85.0237 77.1363 85.0237C77.4488 85.0237 77.7114 84.7565 77.7114 84.4622C77.7114 84.1362 77.4623 83.8736 77.1363 83.8736ZM76.3304 83.3121L73.9985 82.5514C74.5282 81.6866 75.384 81.0798 76.3304 80.8761V83.3121ZM76.4843 80.455C75.2572 80.627 74.1569 81.4194 73.5366 82.5695L73.4279 82.7688L75.4474 83.4208L76.1719 83.6698L76.7152 83.8419V80.4233L76.4843 80.455ZM74.3743 86.853C73.7856 86.1874 73.4596 85.3452 73.4596 84.4622C73.4596 84.34 73.4732 84.2132 73.4913 84.109L75.0716 84.6162L75.8323 84.8652L74.3743 86.853ZM73.1789 83.5929L73.1291 83.8102C73.1019 84.0094 73.0702 84.2268 73.0702 84.4622C73.0702 85.5353 73.4913 86.5451 74.2656 87.3058L74.4196 87.4597L75.6648 85.7346L76.113 85.1278L76.439 84.6479L73.1789 83.5929ZM79.9165 86.853L78.4902 84.915L78.4585 84.8652L80.7859 84.1226C80.7995 84.2268 80.7995 84.34 80.7995 84.4622C80.7995 85.3633 80.5051 86.1874 79.9165 86.853ZM81.1436 83.8238L81.0938 83.6064L77.8518 84.6479L79.8712 87.4597L80.0388 87.3058C80.7859 86.527 81.1889 85.5172 81.1889 84.4622C81.1889 84.2449 81.1753 84.0275 81.1436 83.8238ZM77.9604 83.3121V80.8761C78.9204 81.0934 79.7626 81.7002 80.2742 82.5514L77.9604 83.3121ZM80.7406 82.5695C80.1474 81.4511 79.0471 80.6587 77.8065 80.455L77.571 80.4097V83.8419L80.8493 82.7688L80.7406 82.5695ZM75.6919 87.831L77.1363 85.8297L78.5808 87.8174C77.6344 88.234 76.5794 88.2204 75.6919 87.831ZM77.9287 86.2327L77.1363 85.1595L75.1033 87.9714L75.3025 88.0801C75.8776 88.3744 76.4843 88.5147 77.1363 88.5147C77.7567 88.5147 78.3815 88.3563 78.9702 88.0801L79.1694 87.9714L77.9287 86.2327ZM77.1363 83.8736C76.8103 83.8736 76.5613 84.1362 76.5613 84.4622C76.5613 84.7565 76.8239 85.0237 77.1363 85.0237C77.4488 85.0237 77.7114 84.7565 77.7114 84.4622C77.7114 84.1362 77.4623 83.8736 77.1363 83.8736ZM76.3304 83.3121L73.9985 82.5514C74.5282 81.6866 75.384 81.0798 76.3304 80.8761V83.3121ZM76.4843 80.455C75.2572 80.627 74.1569 81.4194 73.5366 82.5695L73.4279 82.7688L75.4474 83.4208L76.1719 83.6698L76.7152 83.8419V80.4233L76.4843 80.455ZM74.3743 86.853C73.7856 86.1874 73.4596 85.3452 73.4596 84.4622C73.4596 84.34 73.4732 84.2132 73.4913 84.109L75.0716 84.6162L75.8323 84.8652L74.3743 86.853ZM73.1789 83.5929L73.1291 83.8102C73.1019 84.0094 73.0702 84.2268 73.0702 84.4622C73.0702 85.5353 73.4913 86.5451 74.2656 87.3058L74.4196 87.4597L75.6648 85.7346L76.113 85.1278L76.439 84.6479L73.1789 83.5929Z" fill="white" fill-opacity="0.87"/>
<path d="M73.4784 84.1889C73.4648 84.3021 73.4603 84.4244 73.4603 84.5466C73.4603 85.4341 73.7818 86.2809 74.3704 86.9465L75.8239 84.9542L75.0722 84.7142L73.4784 84.1889ZM74.4157 87.5487L74.2527 87.3902C73.492 86.6295 73.0709 85.6152 73.0709 84.5466C73.0709 84.3157 73.0935 84.0939 73.1252 83.8991L73.1659 83.6773L76.4351 84.7368L76.1182 85.2168L75.6518 85.8235L74.4157 87.5487Z" fill="white" fill-opacity="0.87"/>
<path d="M73.9863 82.6517L76.3137 83.4214V80.9763C75.3719 81.1801 74.5252 81.7914 73.9863 82.6517ZM76.7031 83.9376L76.1552 83.7746L75.4262 83.5256L73.4158 82.8781L73.5245 82.6698C74.1493 81.5242 75.2542 80.7273 76.4812 80.5507L76.7031 80.519V83.9376Z" fill="white" fill-opacity="0.87"/>
<path d="M75.6779 87.9189C76.5654 88.3083 77.6159 88.3264 78.5667 87.9143L77.1223 85.9175L75.6779 87.9189ZM77.1223 88.6071C76.4794 88.6071 75.8636 88.4577 75.293 88.1679L75.0938 88.0592L77.1178 85.2564L77.9147 86.3296L79.1554 88.0638L78.9516 88.1679C78.372 88.4532 77.7381 88.6071 77.1223 88.6071Z" fill="white" fill-opacity="0.87"/>
<path d="M77.9502 80.9854V83.4214L80.264 82.6562C79.7478 81.8095 78.9056 81.2027 77.9502 80.9854ZM77.5608 83.9467V80.519L77.7872 80.5552C79.0324 80.7545 80.1281 81.5514 80.7213 82.6788L80.83 82.8826L77.5608 83.9467Z" fill="white" fill-opacity="0.87"/>
<path d="M78.4684 84.9361L78.5001 84.9859L79.9219 86.9284C80.506 86.2537 80.8184 85.4251 80.8184 84.5285C80.8184 84.4108 80.8094 84.2976 80.7958 84.1889L78.4684 84.9361ZM79.8811 87.5351L77.8571 84.7187L81.1082 83.6773L81.1489 83.8991C81.1852 84.1029 81.2033 84.3112 81.2033 84.5285C81.2033 85.5971 80.7912 86.6023 80.0396 87.3676L79.8811 87.5351Z" fill="white" fill-opacity="0.87"/>
<path d="M73.4784 84.1889C73.4648 84.3021 73.4603 84.4244 73.4603 84.5466C73.4603 85.4341 73.7818 86.2809 74.3704 86.9465L75.8239 84.9542L75.0722 84.7142L73.4784 84.1889ZM74.4157 87.5487L74.2527 87.3902C73.492 86.6295 73.0709 85.6152 73.0709 84.5466C73.0709 84.3157 73.0935 84.0939 73.1252 83.8991L73.1659 83.6773L76.4351 84.7368L76.1182 85.2168L75.6518 85.8235L74.4157 87.5487Z" fill="white" fill-opacity="0.87"/>
<path d="M73.9863 82.6517L76.3137 83.4214V80.9763C75.3719 81.1801 74.5252 81.7914 73.9863 82.6517ZM76.7031 83.9376L76.1552 83.7746L75.4262 83.5256L73.4158 82.8781L73.5245 82.6698C74.1493 81.5242 75.2542 80.7273 76.4812 80.5507L76.7031 80.519V83.9376Z" fill="white" fill-opacity="0.87"/>
<path d="M75.6779 87.9189C76.5654 88.3083 77.6159 88.3264 78.5667 87.9143L77.1223 85.9175L75.6779 87.9189ZM77.1223 88.6071C76.4794 88.6071 75.8636 88.4577 75.293 88.1679L75.0938 88.0592L77.1178 85.2564L77.9147 86.3296L79.1554 88.0638L78.9516 88.1679C78.372 88.4532 77.7381 88.6071 77.1223 88.6071Z" fill="white" fill-opacity="0.87"/>
<path d="M77.9502 80.9854V83.4214L80.264 82.6562C79.7478 81.8095 78.9056 81.2027 77.9502 80.9854ZM77.5608 83.9467V80.519L77.7872 80.5552C79.0324 80.7545 80.1281 81.5514 80.7213 82.6788L80.83 82.8826L77.5608 83.9467Z" fill="white" fill-opacity="0.87"/>
<path d="M78.4684 84.9361L78.5001 84.9859L79.9219 86.9284C80.506 86.2537 80.8184 85.4251 80.8184 84.5285C80.8184 84.4108 80.8094 84.2976 80.7958 84.1889L78.4684 84.9361ZM79.8811 87.5351L77.8571 84.7187L81.1082 83.6773L81.1489 83.8991C81.1852 84.1029 81.2033 84.3112 81.2033 84.5285C81.2033 85.5971 80.7912 86.6023 80.0396 87.3676L79.8811 87.5351Z" fill="white" fill-opacity="0.87"/>
<path d="M119.249 82.6963L121.577 83.4661V81.021C120.635 81.2247 119.788 81.836 119.249 82.6963ZM121.966 83.9823L121.418 83.8193L120.689 83.5702L118.679 82.9227L118.787 82.7144C119.412 81.5689 120.517 80.7765 121.744 80.5953L121.966 80.5636V83.9823ZM123.211 81.0255V83.4615L125.53 82.6963C125.013 81.8496 124.171 81.2428 123.211 81.0255ZM122.826 83.9868V80.5591L123.053 80.5953C124.298 80.7946 125.394 81.5915 125.987 82.719L126.091 82.9227L122.826 83.9868ZM122.387 85.1641C122.075 85.1641 121.808 84.906 121.808 84.6026C121.808 84.2811 122.066 84.0185 122.387 84.0185C122.709 84.0185 122.967 84.2811 122.967 84.6026C122.967 84.906 122.704 85.1641 122.387 85.1641ZM118.733 84.2449C118.719 84.3581 118.715 84.4803 118.715 84.6026C118.715 85.4901 119.036 86.3368 119.625 87.0024L121.079 85.0101L120.327 84.7701L118.733 84.2449ZM119.67 87.6046L119.507 87.4461C118.747 86.6854 118.326 85.6712 118.326 84.6026C118.326 84.3717 118.344 84.1498 118.384 83.9506L118.421 83.7332L121.69 84.7928L121.373 85.2682L120.906 85.8795L119.67 87.6046ZM123.709 85.0101L123.746 85.0554L125.163 87.0024C125.751 86.3277 126.059 85.4991 126.059 84.6026C126.059 84.4849 126.055 84.3717 126.041 84.263L123.709 85.0101ZM125.122 87.6092L123.103 84.7928L126.354 83.7468L126.39 83.9687C126.431 84.177 126.449 84.3852 126.449 84.6026C126.449 85.6667 126.037 86.6764 125.285 87.4416L125.122 87.6092ZM120.943 87.9714C121.83 88.3608 122.881 88.3789 123.832 87.9669L122.387 85.97L120.943 87.9714ZM122.387 88.6596C121.74 88.6596 121.128 88.5102 120.558 88.2204L120.359 88.1118L122.383 85.309L123.175 86.3821L124.42 88.1163L124.212 88.2204C123.637 88.5057 123.003 88.6596 122.387 88.6596ZM122.387 79.5222C119.598 79.5222 117.325 81.7998 117.325 84.6026C117.325 87.3918 119.598 89.6603 122.387 89.6603C125.19 89.6603 127.463 87.3918 127.463 84.6026C127.463 81.7998 125.19 79.5222 122.387 79.5222ZM122.387 90.0497C119.381 90.0497 116.94 87.6046 116.94 84.6026C116.94 81.587 119.381 79.1373 122.387 79.1373C125.398 79.1373 127.852 81.587 127.852 84.6026C127.852 87.6046 125.398 90.0497 122.387 90.0497Z" fill="white" fill-opacity="0.87"/>
<path d="M118.725 84.1889C118.716 84.3021 118.707 84.4244 118.707 84.5466C118.707 85.4341 119.028 86.2809 119.617 86.9465L121.075 84.9542L120.318 84.7142L118.725 84.1889ZM119.662 87.5487L119.499 87.3902C118.738 86.6295 118.322 85.6152 118.322 84.5466C118.322 84.3157 118.34 84.0939 118.376 83.8991L118.417 83.6773L121.681 84.7368L121.364 85.2168L120.898 85.8235L119.662 87.5487Z" fill="white" fill-opacity="0.87"/>
<path d="M119.238 82.6517L121.565 83.4214V80.9763C120.624 81.1801 119.777 81.7914 119.238 82.6517ZM121.955 83.9376L121.407 83.7746L120.678 83.5256L118.668 82.8781L118.776 82.6698C119.401 81.5242 120.506 80.7318 121.733 80.5507L121.955 80.519V83.9376Z" fill="white" fill-opacity="0.87"/>
<path d="M120.93 87.9189C121.817 88.3083 122.868 88.3264 123.823 87.9143L122.379 85.9175L120.93 87.9189ZM122.374 88.6071C121.731 88.6071 121.115 88.4577 120.549 88.1679L120.346 88.0592L122.374 85.2564L123.166 86.3296L124.407 88.0638L124.203 88.1679C123.624 88.4532 122.994 88.6071 122.374 88.6071Z" fill="white" fill-opacity="0.87"/>
<path d="M123.198 80.9854V83.4214L125.512 82.6562C124.996 81.8095 124.158 81.2027 123.198 80.9854ZM122.813 83.9467V80.519L123.035 80.5552C124.281 80.7545 125.376 81.5514 125.969 82.6788L126.078 82.8826L122.813 83.9467Z" fill="white" fill-opacity="0.87"/>
<path d="M123.695 84.9361L123.727 84.9859L125.149 86.9284C125.737 86.2537 126.045 85.4251 126.045 84.5285C126.045 84.4108 126.041 84.2976 126.027 84.1889L123.695 84.9361ZM125.108 87.5351L123.084 84.7187L126.335 83.6773L126.376 83.8991C126.417 84.1029 126.43 84.3112 126.43 84.5285C126.43 85.5971 126.018 86.6023 125.271 87.3676L125.108 87.5351Z" fill="white" fill-opacity="0.87"/>
<path d="M118.725 84.1889C118.716 84.3021 118.707 84.4244 118.707 84.5466C118.707 85.4341 119.028 86.2809 119.617 86.9465L121.075 84.9542L120.318 84.7142L118.725 84.1889ZM119.662 87.5487L119.499 87.3902C118.738 86.6295 118.322 85.6152 118.322 84.5466C118.322 84.3157 118.34 84.0939 118.376 83.8991L118.417 83.6773L121.681 84.7368L121.364 85.2168L120.898 85.8235L119.662 87.5487Z" fill="white" fill-opacity="0.87"/>
<path d="M119.238 82.6517L121.565 83.4214V80.9763C120.624 81.1801 119.777 81.7914 119.238 82.6517ZM121.955 83.9376L121.407 83.7746L120.678 83.5256L118.668 82.8781L118.776 82.6698C119.401 81.5242 120.506 80.7318 121.733 80.5507L121.955 80.519V83.9376Z" fill="white" fill-opacity="0.87"/>
<path d="M120.93 87.9189C121.817 88.3083 122.868 88.3264 123.823 87.9143L122.379 85.9175L120.93 87.9189ZM122.374 88.6071C121.731 88.6071 121.115 88.4577 120.549 88.1679L120.346 88.0592L122.374 85.2564L123.166 86.3296L124.407 88.0638L124.203 88.1679C123.624 88.4532 122.994 88.6071 122.374 88.6071Z" fill="white" fill-opacity="0.87"/>
<path d="M123.198 80.9854V83.4214L125.512 82.6562C124.996 81.8095 124.158 81.2027 123.198 80.9854ZM122.813 83.9467V80.519L123.035 80.5552C124.281 80.7545 125.376 81.5514 125.969 82.6788L126.078 82.8826L122.813 83.9467Z" fill="white" fill-opacity="0.87"/>
<path d="M123.695 84.9361L123.727 84.9859L125.149 86.9284C125.737 86.2537 126.045 85.4251 126.045 84.5285C126.045 84.4108 126.041 84.2976 126.027 84.1889L123.695 84.9361ZM125.108 87.5351L123.084 84.7187L126.335 83.6773L126.376 83.8991C126.417 84.1029 126.43 84.3112 126.43 84.5285C126.43 85.5971 126.018 86.6023 125.271 87.3676L125.108 87.5351Z" fill="white" fill-opacity="0.87"/>
<path d="M76.6581 101.324L76.9343 101.646C83.9481 109.964 91.777 114.306 100.199 114.559L100.982 114.569C116.93 114.569 129.504 100.296 131.795 97.5298L129.124 95.4288C126.941 98.0369 115.223 111.182 101.163 111.182C100.869 111.182 100.575 111.177 100.276 111.163C93.1671 110.946 86.4204 107.274 80.2307 100.256L79.9092 99.8889L82.2049 97.1359L73.1807 93.3777L71.6955 103.493L76.6581 101.324ZM100.982 115.701L100.181 115.691C91.5189 115.433 83.5044 111.064 76.3412 102.701L70.2828 105.354L72.2705 91.7702L84.0568 96.6876L81.4034 99.8662C87.2898 106.409 93.6516 109.828 100.317 110.031C100.593 110.045 100.869 110.05 101.141 110.05C115.934 110.05 128.463 94.4553 128.594 94.2968L128.942 93.8486L133.384 97.3442L133.04 97.7924C132.465 98.5214 118.813 115.701 100.982 115.701Z" fill="white" fill-opacity="0.87"/>
<path d="M120.036 61.9742L129.06 65.7324L130.54 55.6169L125.582 57.7858L125.306 57.4643C118.288 49.1464 110.464 44.8041 102.037 44.5506L101.258 44.5415C85.3107 44.5415 72.7365 58.8136 70.4454 61.5802L73.1124 63.6812C75.3401 61.0233 87.5475 47.3896 101.96 47.9465C109.069 48.1639 115.816 51.8361 122.01 58.8634L122.331 59.2257L120.036 61.9742ZM129.97 67.3398L118.188 62.4315L120.837 59.2438C114.951 52.7009 108.589 49.2823 101.924 49.0785C101.648 49.0695 101.371 49.0649 101.095 49.0649C86.3068 49.0649 73.7734 64.6547 73.6467 64.8132L73.298 65.266L68.8516 61.7659L69.1957 61.3176C69.7707 60.5886 83.4316 43.4095 101.258 43.4095L102.06 43.4186C110.717 43.6767 118.736 48.0507 125.899 56.4093L131.958 53.765L129.97 67.3398Z" fill="white" fill-opacity="0.87"/>
<defs>
<filter id="filter0_d" x="0.5" y="0.308594" width="208" height="208" filterUnits="userSpaceOnUse" color-interpolation-filters="sRGB">
<feFlood flood-opacity="0" result="BackgroundImageFix"/>
<feColorMatrix in="SourceAlpha" type="matrix" values="0 0 0 0 0 0 0 0 0 0 0 0 0 0 0 0 0 0 127 0"/>
<feOffset dx="4" dy="4"/>
<feGaussianBlur stdDeviation="2"/>
<feColorMatrix type="matrix" values="0 0 0 0 0 0 0 0 0 0 0 0 0 0 0 0 0 0 0.25 0"/>
<feBlend mode="normal" in2="BackgroundImageFix" result="effect1_dropShadow"/>
<feBlend mode="normal" in="SourceGraphic" in2="effect1_dropShadow" result="shape"/>
</filter>
</defs>
</svg>
