<svg width="209" height="208" viewBox="0 0 209 208" fill="none" xmlns="http://www.w3.org/2000/svg">
<g filter="url(#filter0_d)">
<rect x="0.5" width="200" height="200" rx="8" fill="#121212"/>
<rect x="0.5" width="200" height="200" rx="8" fill="white" fill-opacity="0.08"/>
</g>
<path d="M51.021 169.9L48.005 179H46.211L43.962 172.266L41.674 179H39.867L36.851 169.9H38.606L40.868 176.816L43.221 169.9H44.781L47.082 176.855L49.409 169.9H51.021ZM61.2338 169.9V179H59.5438V175.1H54.8378V179H53.1478V169.9H54.8378V173.657H59.5438V169.9H61.2338ZM71.2472 177.583V179H64.4222V169.9H71.0652V171.317H66.1122V173.683H70.5062V175.074H66.1122V177.583H71.2472ZM80.7062 177.583V179H73.8812V169.9H80.5242V171.317H75.5712V173.683H79.9652V175.074H75.5712V177.583H80.7062ZM83.3402 169.9H85.0302V177.57H89.7882V179H83.3402V169.9ZM102.169 179L100.31 176.335C100.232 176.344 100.115 176.348 99.9592 176.348H97.9052V179H96.2152V169.9H99.9592C100.748 169.9 101.432 170.03 102.013 170.29C102.602 170.55 103.053 170.923 103.365 171.408C103.677 171.893 103.833 172.47 103.833 173.137C103.833 173.822 103.664 174.411 103.326 174.905C102.997 175.399 102.52 175.767 101.896 176.01L103.989 179H102.169ZM102.13 173.137C102.13 172.556 101.939 172.11 101.558 171.798C101.177 171.486 100.618 171.33 99.8812 171.33H97.9052V174.957H99.8812C100.618 174.957 101.177 174.801 101.558 174.489C101.939 174.168 102.13 173.718 102.13 173.137ZM113.299 177.583V179H106.474V169.9H113.117V171.317H108.164V173.683H112.558V175.074H108.164V177.583H113.299ZM118.754 179.13C118.052 179.13 117.372 179.03 116.713 178.831C116.063 178.632 115.547 178.367 115.166 178.038L115.751 176.725C116.124 177.02 116.579 177.262 117.116 177.453C117.662 177.635 118.208 177.726 118.754 177.726C119.43 177.726 119.933 177.618 120.262 177.401C120.6 177.184 120.769 176.898 120.769 176.543C120.769 176.283 120.674 176.071 120.483 175.906C120.301 175.733 120.067 175.598 119.781 175.503C119.495 175.408 119.105 175.299 118.611 175.178C117.918 175.013 117.354 174.849 116.921 174.684C116.496 174.519 116.128 174.264 115.816 173.917C115.513 173.562 115.361 173.085 115.361 172.487C115.361 171.984 115.495 171.529 115.764 171.122C116.041 170.706 116.453 170.377 116.999 170.134C117.554 169.891 118.23 169.77 119.027 169.77C119.582 169.77 120.128 169.839 120.665 169.978C121.202 170.117 121.666 170.316 122.056 170.576L121.523 171.889C121.124 171.655 120.708 171.477 120.275 171.356C119.842 171.235 119.421 171.174 119.014 171.174C118.347 171.174 117.848 171.287 117.519 171.512C117.198 171.737 117.038 172.036 117.038 172.409C117.038 172.669 117.129 172.881 117.311 173.046C117.502 173.211 117.74 173.341 118.026 173.436C118.312 173.531 118.702 173.64 119.196 173.761C119.872 173.917 120.427 174.082 120.86 174.255C121.293 174.42 121.662 174.675 121.965 175.022C122.277 175.369 122.433 175.837 122.433 176.426C122.433 176.929 122.294 177.384 122.017 177.791C121.748 178.198 121.337 178.523 120.782 178.766C120.227 179.009 119.551 179.13 118.754 179.13ZM126.578 171.33H123.562V169.9H131.284V171.33H128.268V179H126.578V171.33ZM137.426 179.13C136.499 179.13 135.662 178.931 134.917 178.532C134.172 178.125 133.587 177.566 133.162 176.855C132.737 176.136 132.525 175.334 132.525 174.45C132.525 173.566 132.737 172.769 133.162 172.058C133.587 171.339 134.172 170.78 134.917 170.381C135.662 169.974 136.499 169.77 137.426 169.77C138.353 169.77 139.19 169.974 139.935 170.381C140.68 170.78 141.265 171.334 141.69 172.045C142.115 172.756 142.327 173.557 142.327 174.45C142.327 175.343 142.115 176.144 141.69 176.855C141.265 177.566 140.68 178.125 139.935 178.532C139.19 178.931 138.353 179.13 137.426 179.13ZM137.426 177.648C138.033 177.648 138.579 177.514 139.064 177.245C139.549 176.968 139.931 176.586 140.208 176.101C140.485 175.607 140.624 175.057 140.624 174.45C140.624 173.843 140.485 173.297 140.208 172.812C139.931 172.318 139.549 171.937 139.064 171.668C138.579 171.391 138.033 171.252 137.426 171.252C136.819 171.252 136.273 171.391 135.788 171.668C135.303 171.937 134.921 172.318 134.644 172.812C134.367 173.297 134.228 173.843 134.228 174.45C134.228 175.057 134.367 175.607 134.644 176.101C134.921 176.586 135.303 176.968 135.788 177.245C136.273 177.514 136.819 177.648 137.426 177.648ZM150.822 179L148.963 176.335C148.885 176.344 148.768 176.348 148.612 176.348H146.558V179H144.868V169.9H148.612C149.401 169.9 150.086 170.03 150.666 170.29C151.256 170.55 151.706 170.923 152.018 171.408C152.33 171.893 152.486 172.47 152.486 173.137C152.486 173.822 152.317 174.411 151.979 174.905C151.65 175.399 151.173 175.767 150.549 176.01L152.642 179H150.822ZM150.783 173.137C150.783 172.556 150.593 172.11 150.211 171.798C149.83 171.486 149.271 171.33 148.534 171.33H146.558V174.957H148.534C149.271 174.957 149.83 174.801 150.211 174.489C150.593 174.168 150.783 173.718 150.783 173.137ZM161.952 177.583V179H155.127V169.9H161.77V171.317H156.817V173.683H161.211V175.074H156.817V177.583H161.952Z" fill="white" fill-opacity="0.87"/>
<path d="M99.9977 39.2051C73.645 39.2051 52.2051 60.645 52.2051 87.0023C52.2051 113.35 73.645 134.795 99.9977 134.795C126.35 134.795 147.795 113.35 147.795 87.0023C147.795 60.645 126.35 39.2051 99.9977 39.2051ZM99.9977 137C72.427 137 50 114.573 50 87.0023C50 59.427 72.427 37 99.9977 37C127.568 37 150 59.427 150 87.0023C150 114.573 127.568 137 99.9977 137Z" fill="white" fill-opacity="0.87"/>
<path d="M99.9978 43.8042C76.1808 43.8042 56.8056 63.1793 56.8056 87.0009C56.8056 110.813 76.1808 130.193 99.9978 130.193C123.815 130.193 143.195 110.813 143.195 87.0009C143.195 63.1793 123.815 43.8042 99.9978 43.8042ZM99.9978 131.171C75.6419 131.171 55.8231 111.357 55.8231 87.0009C55.8231 62.6405 75.6419 42.8262 99.9978 42.8262C124.354 42.8262 144.173 62.6405 144.173 87.0009C144.173 111.357 124.354 131.171 99.9978 131.171Z" fill="white" fill-opacity="0.87"/>
<path d="M74.2884 57.2079L79.2423 74.2522L92.2828 64.2189L75.2195 56.2583L74.2884 57.2079Z" fill="white" fill-opacity="0.87"/>
<path d="M112.513 99.8164L111.141 101.048C110.77 101.333 110.33 101.659 109.855 101.963C109.307 102.343 108.741 102.669 108.193 102.927C105.707 104.236 102.864 104.933 99.9796 104.933H99.9388C96.9957 104.924 94.2064 104.222 91.63 102.837L90.0045 101.868C89.529 101.555 89.1623 101.288 88.8453 101.021L88.8317 101.012L88.6823 100.908L87.4417 99.7711L87.3602 99.6896C83.9234 96.2619 82.0353 91.7294 82.0579 86.9298C82.067 85.8793 82.1621 84.8967 82.3477 83.9051C82.4518 83.2304 82.5877 82.6237 82.7552 82.0486C82.8684 81.6638 83.0133 81.2562 83.1492 80.8714L83.2307 80.6495C83.4887 79.9341 83.7514 79.3681 84.0457 78.8519C86.6493 73.6855 91.6527 70.0812 97.4213 69.2526C98.019 69.1575 98.6438 69.1032 99.2551 69.0941C99.4543 69.0715 99.6626 69.0624 99.8754 69.0624C99.8754 69.0624 100.061 69.0579 100.07 69.0579C100.36 69.0579 100.613 69.0624 100.89 69.1032C101.356 69.1077 101.936 69.1621 102.701 69.2662C108.447 70.1401 113.428 73.7806 116.04 78.9968C116.375 79.676 116.62 80.2329 116.796 80.7582C117 81.1974 117.141 81.7181 117.267 82.1981C117.467 82.8501 117.607 83.4976 117.684 84.0772C117.838 84.9692 117.928 85.988 117.933 87.0566C117.91 91.9105 115.99 96.4385 112.513 99.8164ZM100.079 65.517C88.2431 65.4627 78.5623 75.062 78.517 86.8981C78.4627 98.7478 88.0665 108.438 99.9162 108.483C111.743 108.528 121.424 98.9334 121.483 87.0837C121.519 75.2431 111.929 65.5623 100.079 65.517Z" fill="white" fill-opacity="0.87"/>
<path d="M111.152 98.1051L105.406 88.6689L115.562 84.5982C115.703 85.4087 115.757 86.2419 115.748 87.0569C115.739 91.2453 114.109 95.1665 111.152 98.1051ZM109.78 99.3594C109.413 99.6265 109.074 99.8982 108.657 100.17C108.648 100.17 108.644 100.183 108.635 100.197L102.694 91.9788C103.133 91.7433 103.532 91.4445 103.889 91.1049L109.803 99.3322C109.794 99.3458 109.794 99.3458 109.78 99.3594ZM99.9409 102.769C97.4142 102.751 95.0054 102.158 92.8274 101.026L99.9182 92.6625L107.032 101.089C104.849 102.212 102.445 102.769 99.9409 102.769ZM91.2336 100.084L91.1883 100.043C90.808 99.8122 90.4457 99.536 90.1469 99.2869L90.079 99.2326L96.0513 91.0596C96.4 91.4083 96.803 91.7026 97.2286 91.9335L91.2336 100.084ZM88.7206 97.9965C85.8091 95.0171 84.2062 91.1049 84.2243 86.9301C84.2288 86.1241 84.3103 85.3182 84.4371 84.4941L84.5413 84.5303L94.5797 88.6553L88.7206 97.9965ZM84.8446 82.6557C84.9578 82.2301 85.1073 81.809 85.2612 81.3924C85.2703 81.3834 85.2793 81.3472 85.2929 81.3336L94.9239 84.5122C94.6975 84.9424 94.5435 85.4087 94.4394 85.8932L84.8265 82.7146C84.831 82.701 84.8401 82.6738 84.8446 82.6557ZM97.5139 71.4354L96.7169 82.3795V82.3886H96.7124L86.0581 79.6673C88.381 75.2752 92.6282 72.2097 97.5139 71.4354ZM96.2234 86.5271C95.7706 86.5271 95.3993 86.1649 95.3993 85.7121C95.3993 85.2548 95.7706 84.888 96.2234 84.888C96.6762 84.888 97.0475 85.2548 97.0475 85.7121C97.0475 86.1649 96.6762 86.5271 96.2234 86.5271ZM97.6497 89.3435C98.098 89.3435 98.4693 89.7103 98.4693 90.1676C98.4693 90.6204 98.098 90.9827 97.6497 90.9827C97.1924 90.9827 96.8211 90.6204 96.8211 90.1676C96.8211 89.7103 97.1924 89.3435 97.6497 89.3435ZM99.9952 84.716C101.254 84.716 102.282 85.7438 102.282 87.0026C102.282 88.2613 101.254 89.2847 99.9952 89.2847C98.7364 89.2847 97.7131 88.2613 97.7131 87.0026C97.7131 85.7438 98.7364 84.716 99.9952 84.716ZM99.9952 82.1033C100.453 82.1033 100.815 82.4701 100.815 82.9274C100.815 83.3847 100.453 83.747 99.9952 83.747C99.5424 83.747 99.1711 83.3847 99.1711 82.9274C99.1711 82.4701 99.5424 82.1033 99.9952 82.1033ZM99.3024 71.2634C99.3613 71.2498 99.4201 71.2407 99.4745 71.2407C99.6284 71.2317 99.7778 71.2317 99.9409 71.2317H100.163C100.312 71.2317 100.484 71.2317 100.751 71.2634H100.779L100.742 81.3924C100.498 81.3562 100.244 81.3381 99.9952 81.3381C99.7371 81.3381 99.4971 81.3562 99.2526 81.3924L99.3024 71.2634ZM103.178 90.1676C103.178 90.6204 102.816 90.9827 102.354 90.9827C101.901 90.9827 101.53 90.6204 101.53 90.1676C101.53 89.7103 101.901 89.3435 102.354 89.3435C102.816 89.3435 103.178 89.7103 103.178 90.1676ZM104.618 85.7121C104.618 86.1649 104.247 86.5271 103.794 86.5271C103.341 86.5271 102.97 86.1649 102.97 85.7121C102.97 85.2548 103.341 84.888 103.794 84.888C104.247 84.888 104.618 85.2548 104.618 85.7121ZM114.005 79.7669L103.314 82.4112L102.585 71.4671C107.471 72.2595 111.695 75.3657 114.005 79.7669ZM114.774 81.5554C114.947 81.963 115.082 82.4157 115.182 82.8052C115.182 82.8187 115.182 82.8187 115.191 82.8323L105.546 85.9204C105.456 85.4404 105.302 84.9786 105.094 84.5484L114.738 81.4422C114.752 81.4875 114.752 81.5102 114.774 81.5554ZM116.943 84.1681C116.871 83.5749 116.721 82.9682 116.54 82.3886C116.423 81.9177 116.296 81.4513 116.097 81.0076C115.897 80.4325 115.644 79.8801 115.377 79.3322C112.927 74.442 108.204 70.8559 102.599 70.0001C101.997 69.9186 101.39 69.8552 100.792 69.8371C100.552 69.8099 100.317 69.8008 100.077 69.8008C99.8095 69.8099 99.556 69.8008 99.3115 69.8371C98.7092 69.8461 98.098 69.9005 97.5184 69.9865C91.9082 70.797 87.1494 74.3379 84.6907 79.2235C84.3782 79.7669 84.1428 80.3148 83.9255 80.8944C83.7715 81.3381 83.5994 81.809 83.4636 82.2663C83.2961 82.8414 83.1693 83.4345 83.0697 84.0413C82.8931 84.9922 82.8025 85.943 82.798 86.9301C82.7753 91.7117 84.7405 96.0404 87.8829 99.1647L87.9418 99.2281L89.1824 100.365L89.2367 100.383C89.599 100.695 90.002 100.976 90.3869 101.229L91.9762 102.189C94.3443 103.457 97.0384 104.186 99.9318 104.195C102.793 104.2 105.492 103.512 107.869 102.262C108.417 102.004 108.956 101.687 109.454 101.343C109.866 101.075 110.26 100.786 110.64 100.496L111.99 99.2869C115.168 96.1989 117.165 91.8611 117.188 87.066C117.183 86.0834 117.106 85.1099 116.943 84.1681Z" fill="white" fill-opacity="0.87"/>
<defs>
<filter id="filter0_d" x="0.5" y="0" width="208" height="208" filterUnits="userSpaceOnUse" color-interpolation-filters="sRGB">
<feFlood flood-opacity="0" result="BackgroundImageFix"/>
<feColorMatrix in="SourceAlpha" type="matrix" values="0 0 0 0 0 0 0 0 0 0 0 0 0 0 0 0 0 0 127 0"/>
<feOffset dx="4" dy="4"/>
<feGaussianBlur stdDeviation="2"/>
<feColorMatrix type="matrix" values="0 0 0 0 0 0 0 0 0 0 0 0 0 0 0 0 0 0 0.25 0"/>
<feBlend mode="normal" in2="BackgroundImageFix" result="effect1_dropShadow"/>
<feBlend mode="normal" in="SourceGraphic" in2="effect1_dropShadow" result="shape"/>
</filter>
</defs>
</svg>
