<svg width="209" height="208" viewBox="0 0 209 208" fill="none" xmlns="http://www.w3.org/2000/svg">
<g filter="url(#filter0_d)">
<rect x="0.5" width="200" height="200" rx="8" fill="#121212"/>
<rect x="0.5" width="200" height="200" rx="8" fill="white" fill-opacity="0.08"/>
</g>
<path d="M25.624 175.894H21.074L20.177 178H18.435L22.53 168.9H24.194L28.302 178H26.534L25.624 175.894ZM25.065 174.568L23.349 170.59L21.646 174.568H25.065ZM33.9319 178.13C32.6752 178.13 31.6959 177.779 30.9939 177.077C30.2919 176.366 29.9409 175.352 29.9409 174.035V168.9H31.6309V173.97C31.6309 175.755 32.4022 176.648 33.9449 176.648C35.4789 176.648 36.2459 175.755 36.2459 173.97V168.9H37.9099V174.035C37.9099 175.352 37.5589 176.366 36.8569 177.077C36.1635 177.779 35.1885 178.13 33.9319 178.13ZM42.7076 170.33H39.6916V168.9H47.4136V170.33H44.3976V178H42.7076V170.33ZM53.556 178.13C52.6287 178.13 51.7923 177.931 51.047 177.532C50.3017 177.125 49.7167 176.566 49.292 175.855C48.8673 175.136 48.655 174.334 48.655 173.45C48.655 172.566 48.8673 171.769 49.292 171.058C49.7167 170.339 50.3017 169.78 51.047 169.381C51.7923 168.974 52.6287 168.77 53.556 168.77C54.4833 168.77 55.3197 168.974 56.065 169.381C56.8103 169.78 57.3953 170.334 57.82 171.045C58.2447 171.756 58.457 172.557 58.457 173.45C58.457 174.343 58.2447 175.144 57.82 175.855C57.3953 176.566 56.8103 177.125 56.065 177.532C55.3197 177.931 54.4833 178.13 53.556 178.13ZM53.556 176.648C54.1627 176.648 54.7087 176.514 55.194 176.245C55.6793 175.968 56.0607 175.586 56.338 175.101C56.6153 174.607 56.754 174.057 56.754 173.45C56.754 172.843 56.6153 172.297 56.338 171.812C56.0607 171.318 55.6793 170.937 55.194 170.668C54.7087 170.391 54.1627 170.252 53.556 170.252C52.9493 170.252 52.4033 170.391 51.918 170.668C51.4327 170.937 51.0513 171.318 50.774 171.812C50.4967 172.297 50.358 172.843 50.358 173.45C50.358 174.057 50.4967 174.607 50.774 175.101C51.0513 175.586 51.4327 175.968 51.918 176.245C52.4033 176.514 52.9493 176.648 53.556 176.648ZM69.3574 178L69.3444 171.968L66.3544 176.96H65.6004L62.6104 172.046V178H60.9984V168.9H62.3894L66.0034 174.932L69.5524 168.9H70.9434L70.9564 178H69.3574ZM78.4154 178.13C77.488 178.13 76.6517 177.931 75.9064 177.532C75.161 177.125 74.576 176.566 74.1514 175.855C73.7267 175.136 73.5144 174.334 73.5144 173.45C73.5144 172.566 73.7267 171.769 74.1514 171.058C74.576 170.339 75.161 169.78 75.9064 169.381C76.6517 168.974 77.488 168.77 78.4154 168.77C79.3427 168.77 80.179 168.974 80.9244 169.381C81.6697 169.78 82.2547 170.334 82.6794 171.045C83.104 171.756 83.3164 172.557 83.3164 173.45C83.3164 174.343 83.104 175.144 82.6794 175.855C82.2547 176.566 81.6697 177.125 80.9244 177.532C80.179 177.931 79.3427 178.13 78.4154 178.13ZM78.4154 176.648C79.022 176.648 79.568 176.514 80.0534 176.245C80.5387 175.968 80.9201 175.586 81.1974 175.101C81.4747 174.607 81.6134 174.057 81.6134 173.45C81.6134 172.843 81.4747 172.297 81.1974 171.812C80.9201 171.318 80.5387 170.937 80.0534 170.668C79.568 170.391 79.022 170.252 78.4154 170.252C77.8087 170.252 77.2627 170.391 76.7774 170.668C76.292 170.937 75.9107 171.318 75.6334 171.812C75.356 172.297 75.2174 172.843 75.2174 173.45C75.2174 174.057 75.356 174.607 75.6334 175.101C75.9107 175.586 76.292 175.968 76.7774 176.245C77.2627 176.514 77.8087 176.648 78.4154 176.648ZM87.5768 170.33H84.5608V168.9H92.2828V170.33H89.2668V178H87.5768V170.33ZM98.4251 178.13C97.4978 178.13 96.6615 177.931 95.9161 177.532C95.1708 177.125 94.5858 176.566 94.1611 175.855C93.7365 175.136 93.5241 174.334 93.5241 173.45C93.5241 172.566 93.7365 171.769 94.1611 171.058C94.5858 170.339 95.1708 169.78 95.9161 169.381C96.6615 168.974 97.4978 168.77 98.4251 168.77C99.3525 168.77 100.189 168.974 100.934 169.381C101.679 169.78 102.264 170.334 102.689 171.045C103.114 171.756 103.326 172.557 103.326 173.45C103.326 174.343 103.114 175.144 102.689 175.855C102.264 176.566 101.679 177.125 100.934 177.532C100.189 177.931 99.3525 178.13 98.4251 178.13ZM98.4251 176.648C99.0318 176.648 99.5778 176.514 100.063 176.245C100.548 175.968 100.93 175.586 101.207 175.101C101.484 174.607 101.623 174.057 101.623 173.45C101.623 172.843 101.484 172.297 101.207 171.812C100.93 171.318 100.548 170.937 100.063 170.668C99.5778 170.391 99.0318 170.252 98.4251 170.252C97.8185 170.252 97.2725 170.391 96.7871 170.668C96.3018 170.937 95.9205 171.318 95.6431 171.812C95.3658 172.297 95.2271 172.843 95.2271 173.45C95.2271 174.057 95.3658 174.607 95.6431 175.101C95.9205 175.586 96.3018 175.968 96.7871 176.245C97.2725 176.514 97.8185 176.648 98.4251 176.648ZM113.954 168.9C114.743 168.9 115.428 169.03 116.008 169.29C116.598 169.55 117.048 169.923 117.36 170.408C117.672 170.893 117.828 171.47 117.828 172.137C117.828 172.796 117.672 173.372 117.36 173.866C117.048 174.351 116.598 174.724 116.008 174.984C115.428 175.244 114.743 175.374 113.954 175.374H111.9V178H110.21V168.9H113.954ZM113.876 173.944C114.613 173.944 115.172 173.788 115.553 173.476C115.935 173.164 116.125 172.718 116.125 172.137C116.125 171.556 115.935 171.11 115.553 170.798C115.172 170.486 114.613 170.33 113.876 170.33H111.9V173.944H113.876ZM126.22 178L124.361 175.335C124.283 175.344 124.166 175.348 124.01 175.348H121.956V178H120.266V168.9H124.01C124.799 168.9 125.483 169.03 126.064 169.29C126.653 169.55 127.104 169.923 127.416 170.408C127.728 170.893 127.884 171.47 127.884 172.137C127.884 172.822 127.715 173.411 127.377 173.905C127.048 174.399 126.571 174.767 125.947 175.01L128.04 178H126.22ZM126.181 172.137C126.181 171.556 125.99 171.11 125.609 170.798C125.228 170.486 124.669 170.33 123.932 170.33H121.956V173.957H123.932C124.669 173.957 125.228 173.801 125.609 173.489C125.99 173.168 126.181 172.718 126.181 172.137ZM137.35 176.583V178H130.525V168.9H137.168V170.317H132.215V172.683H136.609V174.074H132.215V176.583H137.35ZM139.223 173.71H142.798V175.062H139.223V173.71ZM148.112 178.13C147.41 178.13 146.73 178.03 146.071 177.831C145.421 177.632 144.906 177.367 144.524 177.038L145.109 175.725C145.482 176.02 145.937 176.262 146.474 176.453C147.02 176.635 147.566 176.726 148.112 176.726C148.788 176.726 149.291 176.618 149.62 176.401C149.958 176.184 150.127 175.898 150.127 175.543C150.127 175.283 150.032 175.071 149.841 174.906C149.659 174.733 149.425 174.598 149.139 174.503C148.853 174.408 148.463 174.299 147.969 174.178C147.276 174.013 146.713 173.849 146.279 173.684C145.855 173.519 145.486 173.264 145.174 172.917C144.871 172.562 144.719 172.085 144.719 171.487C144.719 170.984 144.854 170.529 145.122 170.122C145.4 169.706 145.811 169.377 146.357 169.134C146.912 168.891 147.588 168.77 148.385 168.77C148.94 168.77 149.486 168.839 150.023 168.978C150.561 169.117 151.024 169.316 151.414 169.576L150.881 170.889C150.483 170.655 150.067 170.477 149.633 170.356C149.2 170.235 148.78 170.174 148.372 170.174C147.705 170.174 147.207 170.287 146.877 170.512C146.557 170.737 146.396 171.036 146.396 171.409C146.396 171.669 146.487 171.881 146.669 172.046C146.86 172.211 147.098 172.341 147.384 172.436C147.67 172.531 148.06 172.64 148.554 172.761C149.23 172.917 149.785 173.082 150.218 173.255C150.652 173.42 151.02 173.675 151.323 174.022C151.635 174.369 151.791 174.837 151.791 175.426C151.791 175.929 151.653 176.384 151.375 176.791C151.107 177.198 150.695 177.523 150.14 177.766C149.586 178.009 148.91 178.13 148.112 178.13ZM160.119 175.894H155.569L154.672 178H152.93L157.025 168.9H158.689L162.797 178H161.029L160.119 175.894ZM159.56 174.568L157.844 170.59L156.141 174.568H159.56ZM164.704 168.9H166.394V176.57H171.152V178H164.704V168.9ZM180.062 176.583V178H173.237V168.9H179.88V170.317H174.927V172.683H179.321V174.074H174.927V176.583H180.062Z" fill="white" fill-opacity="0.87"/>
<path d="M96.0023 39.205C69.6495 39.205 48.2051 60.6439 48.2051 87C48.2051 113.352 69.6495 134.79 96.0023 134.79C122.355 134.79 143.795 113.352 143.795 87C143.795 60.6439 122.355 39.205 96.0023 39.205ZM96.0023 137C68.4315 137 46 114.57 46 87C46 59.4305 68.4315 37 96.0023 37C123.573 37 146 59.4305 146 87C146 114.57 123.573 137 96.0023 137Z" fill="white" fill-opacity="0.87"/>
<path d="M96.0042 43.8052C72.1871 43.8052 52.8075 63.1795 52.8075 86.9955C52.8075 110.811 72.1871 130.186 96.0042 130.186C119.821 130.186 139.196 110.811 139.196 86.9955C139.196 63.1795 119.821 43.8052 96.0042 43.8052ZM96.0042 131.168C71.6483 131.168 51.8294 111.35 51.8294 86.9955C51.8294 62.6361 71.6483 42.8227 96.0042 42.8227C120.36 42.8227 140.179 62.6361 140.179 86.9955C140.179 111.35 120.36 131.168 96.0042 131.168Z" fill="white" fill-opacity="0.87"/>
<path d="M73.981 77.0817C73.7773 77.4529 73.6369 77.7382 73.5871 77.8876C73.4377 78.3268 73.3833 78.5487 73.3335 78.6754C73.08 78.6075 72.7992 78.4989 72.5683 78.5713C72.3464 78.6618 72.3012 78.8792 72.0385 78.9516C71.7216 79.015 71.2597 78.843 70.9518 78.7977C70.2862 78.6845 69.598 78.5985 68.9324 78.4445C67.8638 78.2 67.4925 77.2039 67.5604 76.2078C67.6283 75.2751 68.5792 74.9627 69.3308 74.854C70.0825 74.7227 71.1058 74.3831 71.8121 74.8087C72.84 75.4426 72.4325 77.3669 73.981 77.0817Z" fill="white" fill-opacity="0.87"/>
<path d="M120.45 99.6852C119.182 99.6852 117.969 99.7305 116.732 99.7577C116.221 99.7667 115.718 99.7667 115.206 99.7667C114.138 99.7667 111.887 99.8527 110.923 99.4996C109.329 98.9653 108.917 96.8599 108.482 95.3567C108.596 95.325 108.704 95.3024 108.827 95.2797C108.985 95.2571 109.162 95.2254 109.338 95.1892C109.451 95.1801 109.574 95.1575 109.696 95.1348C109.741 95.1348 109.777 95.1348 109.818 95.1212C109.977 95.0986 110.153 95.076 110.321 95.0579H110.362C110.534 95.0352 110.71 95.0126 110.887 94.9899C111.321 94.9447 111.779 94.8994 112.254 94.8677C112.39 94.8677 112.526 94.8586 112.657 94.845C113.377 94.7907 114.129 94.7454 114.862 94.7228C115.053 94.7092 115.243 94.7002 115.428 94.6866H115.84C116.008 94.682 116.162 94.682 116.329 94.6685H116.719C118.625 94.6368 120.169 94.7092 120.617 94.8677C121.808 95.3114 121.595 96.4026 121.953 97.5617C122.306 99.1555 122.044 99.6852 120.45 99.6852ZM106.703 97.4847C106.132 99.074 103.918 98.8612 103.696 98.8612L88.3602 98.8747C88.1474 98.8747 85.9196 99.0966 85.3536 97.5074C84.765 95.9045 83.8821 93.3328 83.5696 92.0514C83.2391 90.7067 82.1478 88.3885 88.6681 88.5334C92.0324 88.6013 94.4548 88.6013 96.017 88.5786C97.5882 88.6013 100.011 88.6013 103.375 88.5243C109.886 88.3658 108.804 90.684 108.469 92.0333C108.161 93.3101 107.283 95.891 106.703 97.4847ZM81.1472 99.5222C80.1646 99.8754 77.9142 99.7984 76.8501 99.7984C76.4607 99.7984 76.0713 99.7984 75.691 99.7848C74.7582 99.7803 73.8209 99.7577 72.8746 99.7441C72.449 99.7305 72.0414 99.7305 71.6068 99.7305C70.0129 99.7305 69.7458 99.2007 70.1035 97.607C70.4567 96.4479 70.2348 95.3567 71.4256 94.9084C71.8649 94.7545 73.3093 94.6866 75.1023 94.7002C75.288 94.7002 75.4917 94.7002 75.691 94.7092C76.2796 94.7228 76.9045 94.7319 77.5384 94.7681C77.9142 94.7771 78.2946 94.7998 78.6749 94.8224C78.8198 94.8224 78.9511 94.836 79.0869 94.845C79.2998 94.8586 79.499 94.8767 79.6982 94.8858C79.8975 94.8994 80.0967 94.922 80.3004 94.9356C80.4997 94.9582 80.6898 94.9809 80.88 94.9899C81.1653 95.0126 81.446 95.0488 81.7132 95.076C81.8898 95.0986 82.0663 95.1212 82.2248 95.1439C82.3697 95.1665 82.5056 95.1892 82.6369 95.2027C82.7048 95.2118 82.7682 95.2254 82.827 95.2344C82.9131 95.248 82.9946 95.2661 83.0715 95.2797C83.1032 95.2888 83.1349 95.2888 83.1621 95.2888C83.2164 95.3023 83.2708 95.3114 83.3251 95.325C83.4157 95.3476 83.4926 95.3567 83.5696 95.3793C83.1259 96.8825 82.7365 98.9879 81.1472 99.5222ZM70.6921 84.6395C70.8913 83.7158 71.0951 83.8471 72.0822 83.8381C73.6081 83.8381 75.0797 83.9784 76.6011 84.2501C78.607 84.5716 80.9344 84.5037 82.9131 85.0923C80.6129 89.2216 78.0727 88.5017 75.1476 88.5017C73.5538 88.5017 71.0951 88.5017 70.6921 86.5728C70.5608 86.0386 70.5608 85.2417 70.6921 84.6395ZM79.7435 69.1546L96.017 68.5886L112.254 69.1229C112.254 69.1229 118.122 78.2508 117.679 78.2508C117.253 78.2508 102.596 77.4268 96.0079 77.5671C89.4243 77.4358 74.7582 78.2825 74.3416 78.2825C73.8979 78.2825 79.7435 69.1546 79.7435 69.1546ZM119.938 83.8019C120.939 83.8019 121.138 83.6706 121.337 84.5942C121.473 85.1964 121.473 85.9978 121.337 86.5321C120.939 88.4564 118.489 88.4564 116.886 88.4564C113.957 88.4654 111.421 89.1944 109.121 85.0696C111.1 84.4855 113.436 84.5354 115.428 84.2139C116.945 83.9332 118.412 83.8019 119.938 83.8019ZM124.29 84.4946C124.231 83.5574 122.062 81.5561 121.441 80.9403C121.029 80.5419 119.58 79.3058 119.101 78.9979C118.815 78.8168 118.756 78.8168 118.679 78.6402C118.634 78.5044 118.58 78.2825 118.435 77.8479C118.376 77.6939 118.245 77.4132 118.032 77.0464C116.787 74.7871 113.146 69.1682 112.847 68.8512C112.481 68.498 111.688 67.7872 110.552 67.5834C109.429 67.3978 98.1315 66.8047 96.0079 66.8047C93.8662 66.8047 82.5689 67.4204 81.446 67.6197C80.3095 67.8189 79.5171 68.5207 79.1639 68.8738C78.8605 69.1908 75.2246 74.8233 73.9885 77.0827C73.7756 77.4585 73.6443 77.7347 73.5855 77.8841C73.4451 78.3278 73.3862 78.5497 73.341 78.6719C73.2866 78.7942 72.9968 78.9979 72.8882 79.0477C72.8655 79.0704 72.8519 79.0839 72.8519 79.0839C72.5395 79.2967 71.2717 80.157 70.5925 80.8769C69.5556 81.9681 67.7897 83.6026 67.7399 84.5354C67.6991 85.4726 67.2961 86.1291 67.3958 87.9991C67.432 88.9001 67.6901 91.6394 67.9301 94.2429C68.1791 96.9821 68.4462 99.5766 68.4689 99.7803C68.5096 100.174 68.3783 100.622 68.5549 100.967C68.736 101.32 69.1798 101.424 69.8816 101.415C70.1035 101.415 72.449 101.447 75.691 101.487C83.393 101.578 96.026 101.745 96.026 101.745C96.026 101.745 109.062 101.555 116.732 101.447C119.771 101.401 121.971 101.365 122.175 101.365C122.877 101.365 123.321 101.279 123.511 100.921C123.674 100.577 123.542 100.133 123.588 99.7305C123.624 99.4543 124.077 94.7681 124.38 91.3134C124.511 89.7875 124.611 88.5107 124.647 87.9447C124.733 86.0838 124.335 85.4183 124.29 84.4946Z" fill="white" fill-opacity="0.87"/>
<path d="M75.6888 102.577V105.638C75.6888 105.928 75.4579 106.172 75.1681 106.172L68.4757 106.181C68.1769 106.181 67.9414 105.937 67.9414 105.651V101.939C68.521 102.477 69.3677 102.496 69.8341 102.496C69.8432 102.496 75.6797 102.577 75.6797 102.577H75.6888Z" fill="white" fill-opacity="0.87"/>
<path d="M124.49 101.445V105.62C124.49 105.919 124.255 106.154 123.956 106.154L117.268 106.163C116.978 106.163 116.734 105.919 116.734 105.633V102.559C119.894 102.514 122.131 102.482 122.176 102.482C122.697 102.482 123.915 102.482 124.49 101.445Z" fill="white" fill-opacity="0.87"/>
<path d="M75.0881 97.2455C75.0848 98.3638 74.1802 99.2704 73.0618 99.2762C71.9434 99.2729 71.0323 98.3683 71.0265 97.25C71.0298 96.1271 71.9389 95.2205 73.0618 95.2238C74.1757 95.2226 75.0868 96.1271 75.0881 97.2455Z" fill="white" fill-opacity="0.87"/>
<path d="M123.089 78.3414C122.428 78.4953 121.73 78.5904 121.069 78.6991C120.757 78.7444 120.295 78.9209 119.983 78.853C119.715 78.7896 119.675 78.5678 119.453 78.4772C119.222 78.4048 118.941 78.5134 118.688 78.5814C118.638 78.4546 118.579 78.2372 118.434 77.7935C118.38 77.6441 118.244 77.3634 118.036 76.9876C119.584 77.2728 119.172 75.3485 120.204 74.7101C120.911 74.2845 121.93 74.6241 122.686 74.7554C123.437 74.8641 124.388 75.172 124.456 76.1047C124.52 77.1008 124.153 78.0924 123.089 78.3414Z" fill="white" fill-opacity="0.87"/>
<path d="M78.5733 97.2374C78.5746 98.0388 77.9281 98.6828 77.1312 98.684C76.3343 98.6807 75.6812 98.0433 75.6845 97.2419C75.6833 96.4405 76.3297 95.7966 77.1312 95.7998C77.9281 95.7941 78.5766 96.4405 78.5733 97.2374Z" fill="white" fill-opacity="0.87"/>
<path d="M120.885 97.147C120.89 98.2654 119.984 99.1755 118.856 99.1755C117.743 99.1755 116.832 98.2699 116.828 97.147C116.828 96.0332 117.738 95.1231 118.856 95.1231C119.979 95.1231 120.885 96.0287 120.885 97.147Z" fill="white" fill-opacity="0.87"/>
<path d="M116.03 97.2374C116.03 98.0388 115.383 98.6817 114.586 98.6817C113.789 98.6817 113.142 98.0388 113.142 97.2374C113.142 96.4405 113.785 95.793 114.586 95.793C115.383 95.793 116.03 96.436 116.03 97.2374Z" fill="white" fill-opacity="0.87"/>
<path d="M76.7315 115.242V110.821H78.2726C78.8108 110.821 79.1961 110.912 79.4285 111.096C79.6547 111.273 79.7709 111.573 79.7709 111.995C79.7709 112.472 79.618 112.845 79.3061 113.114C79.0004 113.377 78.5723 113.511 78.0158 113.511H77.6366V115.242H76.7315ZM77.6366 112.906H77.814C78.132 112.906 78.3766 112.833 78.5601 112.686C78.7435 112.539 78.8353 112.337 78.8353 112.087C78.8353 111.646 78.5539 111.426 77.9913 111.426H77.6366V112.906Z" fill="white" fill-opacity="0.87"/>
<path d="M81.0492 115.258V111.98H81.936V112.597C82.1622 112.133 82.5108 111.906 82.9817 111.906C83.0367 111.906 83.0918 111.913 83.1468 111.925V112.708C83.0184 112.665 82.9022 112.64 82.7921 112.64C82.4435 112.64 82.1561 112.818 81.936 113.178V115.258H81.0492Z" fill="white" fill-opacity="0.87"/>
<path d="M87.0689 115.148C86.6469 115.27 86.2494 115.331 85.8764 115.331C85.326 115.331 84.8918 115.178 84.5799 114.866C84.2619 114.554 84.1029 114.132 84.1029 113.594C84.1029 113.087 84.2497 112.677 84.5371 112.371C84.8245 112.059 85.2098 111.906 85.6868 111.906C86.1638 111.906 86.5185 112.053 86.7387 112.359C86.9588 112.659 87.0689 113.142 87.0689 113.796H85.0325C85.0936 114.42 85.4361 114.732 86.066 114.732C86.3595 114.732 86.6959 114.664 87.0689 114.524V115.148ZM85.0202 113.295H86.2005C86.2005 112.738 86.017 112.457 85.6562 112.457C85.2893 112.457 85.0814 112.738 85.0202 113.295Z" fill="white" fill-opacity="0.87"/>
<path d="M91.3151 113.091H88.5876V113.641H91.3151V113.091Z" fill="white" fill-opacity="0.87"/>
<path d="M92.7758 115.217V114.459C93.2528 114.654 93.6564 114.752 93.9989 114.752C94.2312 114.752 94.4208 114.703 94.5554 114.599C94.6899 114.489 94.7633 114.348 94.7633 114.165C94.7633 114.024 94.7205 113.902 94.6349 113.804C94.5492 113.706 94.3841 113.59 94.1456 113.456L93.8521 113.291C93.4546 113.064 93.1733 112.85 93.0082 112.648C92.8491 112.447 92.7635 112.208 92.7635 111.933C92.7635 111.566 92.8981 111.279 93.1672 111.052C93.4362 110.832 93.7909 110.722 94.2312 110.722C94.5798 110.722 94.9773 110.777 95.4176 110.875V111.584C94.9712 111.413 94.6104 111.328 94.3474 111.328C94.1456 111.328 93.9805 111.376 93.8582 111.468C93.7359 111.554 93.6747 111.676 93.6747 111.823C93.6747 111.945 93.7175 112.049 93.8032 112.141C93.8888 112.233 94.0539 112.349 94.2863 112.477L94.6043 112.655C95.0324 112.893 95.3259 113.113 95.4849 113.315C95.65 113.517 95.7295 113.761 95.7295 114.049C95.7295 114.459 95.5766 114.783 95.2709 115.015C94.9651 115.247 94.5492 115.364 94.0111 115.364C93.6564 115.364 93.2467 115.315 92.7758 115.217Z" fill="white" fill-opacity="0.87"/>
<path d="M99.6003 114.903C99.3068 115.19 98.9888 115.331 98.6524 115.331C98.365 115.331 98.1326 115.245 97.9553 115.068C97.7779 114.897 97.6862 114.664 97.6862 114.389C97.6862 114.028 97.833 113.747 98.1204 113.551C98.4078 113.356 98.8237 113.258 99.3618 113.258H99.6003V112.958C99.6003 112.616 99.4046 112.451 99.0194 112.451C98.6708 112.451 98.3283 112.542 97.9736 112.738V112.133C98.3711 111.98 98.7686 111.906 99.16 111.906C100.022 111.906 100.45 112.243 100.45 112.928V114.377C100.45 114.634 100.53 114.762 100.695 114.762C100.726 114.762 100.762 114.762 100.811 114.75L100.836 115.251C100.646 115.306 100.481 115.331 100.34 115.331C99.9734 115.331 99.741 115.19 99.637 114.903H99.6003ZM99.6003 114.432V113.765H99.3924C98.8176 113.765 98.5362 113.943 98.5362 114.304C98.5362 114.426 98.5729 114.524 98.6586 114.609C98.7381 114.689 98.842 114.732 98.9643 114.732C99.1723 114.732 99.3863 114.634 99.6003 114.432Z" fill="white" fill-opacity="0.87"/>
<path d="M104.157 110.549H103.27V115.264H104.157V110.549Z" fill="white" fill-opacity="0.87"/>
<path d="M109.605 114.913C109.183 115.035 108.785 115.096 108.412 115.096C107.862 115.096 107.428 114.943 107.116 114.631C106.798 114.32 106.639 113.898 106.639 113.359C106.639 112.852 106.786 112.442 107.073 112.136C107.36 111.825 107.746 111.672 108.223 111.672C108.7 111.672 109.054 111.818 109.275 112.124C109.495 112.424 109.605 112.907 109.605 113.561H107.568C107.629 114.185 107.972 114.497 108.602 114.497C108.895 114.497 109.232 114.43 109.605 114.289V114.913ZM107.556 113.06H108.736C108.736 112.503 108.553 112.222 108.192 112.222C107.825 112.222 107.617 112.503 107.556 113.06Z" fill="white" fill-opacity="0.87"/>
<defs>
<filter id="filter0_d" x="0.5" y="0" width="208" height="208" filterUnits="userSpaceOnUse" color-interpolation-filters="sRGB">
<feFlood flood-opacity="0" result="BackgroundImageFix"/>
<feColorMatrix in="SourceAlpha" type="matrix" values="0 0 0 0 0 0 0 0 0 0 0 0 0 0 0 0 0 0 127 0"/>
<feOffset dx="4" dy="4"/>
<feGaussianBlur stdDeviation="2"/>
<feColorMatrix type="matrix" values="0 0 0 0 0 0 0 0 0 0 0 0 0 0 0 0 0 0 0.25 0"/>
<feBlend mode="normal" in2="BackgroundImageFix" result="effect1_dropShadow"/>
<feBlend mode="normal" in="SourceGraphic" in2="effect1_dropShadow" result="shape"/>
</filter>
</defs>
</svg>
