<svg width="209" height="209" viewBox="0 0 209 209" fill="none" xmlns="http://www.w3.org/2000/svg">
<g filter="url(#filter0_d)">
<rect x="0.5" y="0.308594" width="200" height="200" rx="8" fill="#121212"/>
<rect x="0.5" y="0.308594" width="200" height="200" rx="8" fill="white" fill-opacity="0.08"/>
</g>
<path d="M42.722 167.9H44.412V175.57H49.17V177H42.722V167.9ZM51.2542 167.9H52.9442V177H51.2542V167.9ZM62.3696 172.346H63.9686V175.973C63.5006 176.346 62.9546 176.632 62.3306 176.831C61.7066 177.03 61.0653 177.13 60.4066 177.13C59.4793 177.13 58.6429 176.931 57.8976 176.532C57.1523 176.125 56.5673 175.566 56.1426 174.855C55.7179 174.144 55.5056 173.343 55.5056 172.45C55.5056 171.557 55.7179 170.756 56.1426 170.045C56.5673 169.334 57.1523 168.78 57.8976 168.381C58.6516 167.974 59.4966 167.77 60.4326 167.77C61.1953 167.77 61.8886 167.896 62.5126 168.147C63.1366 168.398 63.6609 168.767 64.0856 169.252L63.0196 170.292C62.3263 169.599 61.4899 169.252 60.5106 169.252C59.8693 169.252 59.2973 169.386 58.7946 169.655C58.3006 169.924 57.9106 170.301 57.6246 170.786C57.3473 171.271 57.2086 171.826 57.2086 172.45C57.2086 173.057 57.3473 173.603 57.6246 174.088C57.9106 174.573 58.3006 174.955 58.7946 175.232C59.2973 175.509 59.8649 175.648 60.4976 175.648C61.2083 175.648 61.8323 175.492 62.3696 175.18V172.346ZM75.0336 167.9V177H73.3436V173.1H68.6376V177H66.9476V167.9H68.6376V171.657H73.3436V167.9H75.0336ZM80.068 169.33H77.052V167.9H84.774V169.33H81.758V177H80.068V169.33ZM97.0891 177L95.2301 174.335C95.1521 174.344 95.0351 174.348 94.8791 174.348H92.8251V177H91.1351V167.9H94.8791C95.6678 167.9 96.3524 168.03 96.9331 168.29C97.5224 168.55 97.9731 168.923 98.2851 169.408C98.5971 169.893 98.7531 170.47 98.7531 171.137C98.7531 171.822 98.5841 172.411 98.2461 172.905C97.9168 173.399 97.4401 173.767 96.8161 174.01L98.9091 177H97.0891ZM97.0501 171.137C97.0501 170.556 96.8594 170.11 96.4781 169.798C96.0968 169.486 95.5378 169.33 94.8011 169.33H92.8251V172.957H94.8011C95.5378 172.957 96.0968 172.801 96.4781 172.489C96.8594 172.168 97.0501 171.718 97.0501 171.137ZM108.219 175.583V177H101.394V167.9H108.037V169.317H103.084V171.683H107.478V173.074H103.084V175.583H108.219ZM113.674 177.13C112.972 177.13 112.292 177.03 111.633 176.831C110.983 176.632 110.467 176.367 110.086 176.038L110.671 174.725C111.044 175.02 111.499 175.262 112.036 175.453C112.582 175.635 113.128 175.726 113.674 175.726C114.35 175.726 114.853 175.618 115.182 175.401C115.52 175.184 115.689 174.898 115.689 174.543C115.689 174.283 115.594 174.071 115.403 173.906C115.221 173.733 114.987 173.598 114.701 173.503C114.415 173.408 114.025 173.299 113.531 173.178C112.838 173.013 112.274 172.849 111.841 172.684C111.416 172.519 111.048 172.264 110.736 171.917C110.433 171.562 110.281 171.085 110.281 170.487C110.281 169.984 110.415 169.529 110.684 169.122C110.961 168.706 111.373 168.377 111.919 168.134C112.474 167.891 113.15 167.77 113.947 167.77C114.502 167.77 115.048 167.839 115.585 167.978C116.122 168.117 116.586 168.316 116.976 168.576L116.443 169.889C116.044 169.655 115.628 169.477 115.195 169.356C114.762 169.235 114.341 169.174 113.934 169.174C113.267 169.174 112.768 169.287 112.439 169.512C112.118 169.737 111.958 170.036 111.958 170.409C111.958 170.669 112.049 170.881 112.231 171.046C112.422 171.211 112.66 171.341 112.946 171.436C113.232 171.531 113.622 171.64 114.116 171.761C114.792 171.917 115.347 172.082 115.78 172.255C116.213 172.42 116.582 172.675 116.885 173.022C117.197 173.369 117.353 173.837 117.353 174.426C117.353 174.929 117.214 175.384 116.937 175.791C116.668 176.198 116.257 176.523 115.702 176.766C115.147 177.009 114.471 177.13 113.674 177.13ZM121.498 169.33H118.482V167.9H126.204V169.33H123.188V177H121.498V169.33ZM132.346 177.13C131.419 177.13 130.582 176.931 129.837 176.532C129.092 176.125 128.507 175.566 128.082 174.855C127.657 174.136 127.445 173.334 127.445 172.45C127.445 171.566 127.657 170.769 128.082 170.058C128.507 169.339 129.092 168.78 129.837 168.381C130.582 167.974 131.419 167.77 132.346 167.77C133.273 167.77 134.11 167.974 134.855 168.381C135.6 168.78 136.185 169.334 136.61 170.045C137.035 170.756 137.247 171.557 137.247 172.45C137.247 173.343 137.035 174.144 136.61 174.855C136.185 175.566 135.6 176.125 134.855 176.532C134.11 176.931 133.273 177.13 132.346 177.13ZM132.346 175.648C132.953 175.648 133.499 175.514 133.984 175.245C134.469 174.968 134.851 174.586 135.128 174.101C135.405 173.607 135.544 173.057 135.544 172.45C135.544 171.843 135.405 171.297 135.128 170.812C134.851 170.318 134.469 169.937 133.984 169.668C133.499 169.391 132.953 169.252 132.346 169.252C131.739 169.252 131.193 169.391 130.708 169.668C130.223 169.937 129.841 170.318 129.564 170.812C129.287 171.297 129.148 171.843 129.148 172.45C129.148 173.057 129.287 173.607 129.564 174.101C129.841 174.586 130.223 174.968 130.708 175.245C131.193 175.514 131.739 175.648 132.346 175.648ZM145.742 177L143.883 174.335C143.805 174.344 143.688 174.348 143.532 174.348H141.478V177H139.788V167.9H143.532C144.321 167.9 145.006 168.03 145.586 168.29C146.176 168.55 146.626 168.923 146.938 169.408C147.25 169.893 147.406 170.47 147.406 171.137C147.406 171.822 147.237 172.411 146.899 172.905C146.57 173.399 146.093 173.767 145.469 174.01L147.562 177H145.742ZM145.703 171.137C145.703 170.556 145.513 170.11 145.131 169.798C144.75 169.486 144.191 169.33 143.454 169.33H141.478V172.957H143.454C144.191 172.957 144.75 172.801 145.131 172.489C145.513 172.168 145.703 171.718 145.703 171.137ZM156.872 175.583V177H150.047V167.9H156.69V169.317H151.737V171.683H156.131V173.074H151.737V175.583H156.872Z" fill="white" fill-opacity="0.87"/>
<path d="M98.4977 29.2051C72.145 29.2051 50.7051 50.645 50.7051 77.0023C50.7051 103.35 72.145 124.795 98.4977 124.795C124.85 124.795 146.295 103.35 146.295 77.0023C146.295 50.645 124.85 29.2051 98.4977 29.2051ZM98.4977 127C70.927 127 48.5 104.573 48.5 77.0023C48.5 49.427 70.927 27 98.4977 27C126.068 27 148.5 49.427 148.5 77.0023C148.5 104.573 126.068 127 98.4977 127Z" fill="white" fill-opacity="0.87"/>
<path d="M98.4979 33.801C74.6808 33.801 55.3057 53.1761 55.3057 76.9977C55.3057 100.81 74.6808 120.19 98.4979 120.19C122.315 120.19 141.695 100.81 141.695 76.9977C141.695 53.1761 122.315 33.801 98.4979 33.801ZM98.4979 121.168C74.142 121.168 54.3231 101.349 54.3231 76.9977C54.3231 52.6373 74.142 32.8229 98.4979 32.8229C122.854 32.8229 142.673 52.6373 142.673 76.9977C142.673 101.349 122.854 121.168 98.4979 121.168Z" fill="white" fill-opacity="0.87"/>
<path d="M72.7886 47.1678L77.7425 64.2074L90.7835 54.1775L73.724 46.2168L72.7886 47.1678Z" fill="white" fill-opacity="0.87"/>
<path d="M125.258 82.3678C123.809 83.3956 122.048 83.9526 120.264 83.9526C120.146 83.9526 120.024 83.9526 119.897 83.948L83.9406 82.4266C81.7718 82.3361 79.7251 81.4395 78.1856 79.8955L71.7197 73.4341L72.0548 69.3408L80.5854 77.4957C81.5227 78.433 82.7634 78.9763 84.081 79.0307L120.047 80.5521C121.219 80.6064 122.351 80.2623 123.298 79.5967L131.013 75.123L128.233 80.2668L125.258 82.3678ZM100.45 70.3325C92.7837 68.9877 85.3941 68.2587 77.7283 68.2587C72.7521 68.3175 71.7423 67.6474 70.7371 72.2885C70.0715 75.3087 70.0715 79.3431 70.7371 82.0237C72.7521 91.7044 85.1179 91.7044 93.1143 91.7044C107.835 91.7044 120.585 95.3404 132.168 74.5842C122.211 71.6184 110.515 71.9535 100.45 70.3325Z" fill="white" fill-opacity="0.87"/>
<defs>
<filter id="filter0_d" x="0.5" y="0.308594" width="208" height="208" filterUnits="userSpaceOnUse" color-interpolation-filters="sRGB">
<feFlood flood-opacity="0" result="BackgroundImageFix"/>
<feColorMatrix in="SourceAlpha" type="matrix" values="0 0 0 0 0 0 0 0 0 0 0 0 0 0 0 0 0 0 127 0"/>
<feOffset dx="4" dy="4"/>
<feGaussianBlur stdDeviation="2"/>
<feColorMatrix type="matrix" values="0 0 0 0 0 0 0 0 0 0 0 0 0 0 0 0 0 0 0.25 0"/>
<feBlend mode="normal" in2="BackgroundImageFix" result="effect1_dropShadow"/>
<feBlend mode="normal" in="SourceGraphic" in2="effect1_dropShadow" result="shape"/>
</filter>
</defs>
</svg>
