<svg width="209" height="208" viewBox="0 0 209 208" fill="none" xmlns="http://www.w3.org/2000/svg">
<g filter="url(#filter0_d)">
<rect x="0.5" width="200" height="200" rx="8" fill="#121212"/>
<rect x="0.5" width="200" height="200" rx="8" fill="white" fill-opacity="0.08"/>
</g>
<path d="M100 28.2051C73.6461 28.2051 52.2052 49.645 52.2052 76.0023C52.2052 102.35 73.6461 123.795 100 123.795C126.354 123.795 147.795 102.35 147.795 76.0023C147.795 49.645 126.354 28.2051 100 28.2051ZM100 126C72.428 126 50 103.573 50 76.0023C50 48.427 72.428 26 100 26C127.572 26 150 48.427 150 76.0023C150 103.573 127.572 126 100 126Z" fill="white" fill-opacity="0.87"/>
<path d="M100 32.8077C76.1818 32.8077 56.8058 52.1829 56.8058 76.0044C56.8058 99.817 76.1818 119.197 100 119.197C123.818 119.197 143.194 99.817 143.194 76.0044C143.194 52.1829 123.818 32.8077 100 32.8077ZM100 120.175C75.643 120.175 55.8232 100.356 55.8232 76.0044C55.8232 51.644 75.643 31.8297 100 31.8297C124.357 31.8297 144.177 51.644 144.177 76.0044C144.177 100.356 124.357 120.175 100 120.175Z" fill="white" fill-opacity="0.87"/>
<path d="M76.8245 48.1871L82.0764 65.1373L94.9346 54.8774L77.7431 47.2199L76.8245 48.1871Z" fill="white" fill-opacity="0.87"/>
<path d="M71.5948 66.9346H129.497V68.0666H71.5948V66.9346Z" fill="white" fill-opacity="0.87"/>
<path d="M71.5948 69.9189H129.497V71.0509H71.5948V69.9189Z" fill="white" fill-opacity="0.87"/>
<path d="M71.5948 73.1945H129.497V74.3265H71.5948V73.1945Z" fill="white" fill-opacity="0.87"/>
<path d="M71.5948 76.1868H129.497V77.3188H71.5948V76.1868Z" fill="white" fill-opacity="0.87"/>
<path d="M71.5948 78.7827H129.497V79.9147H71.5948V78.7827Z" fill="white" fill-opacity="0.87"/>
<path d="M71.5948 81.7683H129.497V82.9003H71.5948V81.7683Z" fill="white" fill-opacity="0.87"/>
<path d="M71.5948 85.044H129.497V86.1759H71.5948V85.044Z" fill="white" fill-opacity="0.87"/>
<path d="M71.5948 88.0363H129.497V89.1683H71.5948V88.0363Z" fill="white" fill-opacity="0.87"/>
<path d="M71.5948 90.2453H129.497V91.3773H71.5948V90.2453Z" fill="white" fill-opacity="0.87"/>
<path d="M71.5948 93.5194H129.497V94.6514H71.5948V93.5194Z" fill="white" fill-opacity="0.87"/>
<path d="M71.5948 96.5118H129.497V97.6438H71.5948V96.5118Z" fill="white" fill-opacity="0.87"/>
<path d="M34.543 179.13C33.841 179.13 33.1607 179.03 32.502 178.831C31.852 178.632 31.3363 178.367 30.955 178.038L31.54 176.725C31.9127 177.02 32.3677 177.262 32.905 177.453C33.451 177.635 33.997 177.726 34.543 177.726C35.219 177.726 35.7217 177.618 36.051 177.401C36.389 177.184 36.558 176.898 36.558 176.543C36.558 176.283 36.4627 176.071 36.272 175.906C36.09 175.733 35.856 175.598 35.57 175.503C35.284 175.408 34.894 175.299 34.4 175.178C33.7067 175.013 33.1433 174.849 32.71 174.684C32.2853 174.519 31.917 174.264 31.605 173.917C31.3017 173.562 31.15 173.085 31.15 172.487C31.15 171.984 31.2843 171.529 31.553 171.122C31.8303 170.706 32.242 170.377 32.788 170.134C33.3427 169.891 34.0187 169.77 34.816 169.77C35.3707 169.77 35.9167 169.839 36.454 169.978C36.9913 170.117 37.455 170.316 37.845 170.576L37.312 171.889C36.9133 171.655 36.4973 171.477 36.064 171.356C35.6307 171.235 35.2103 171.174 34.803 171.174C34.1357 171.174 33.6373 171.287 33.308 171.512C32.9873 171.737 32.827 172.036 32.827 172.409C32.827 172.669 32.918 172.881 33.1 173.046C33.2907 173.211 33.529 173.341 33.815 173.436C34.101 173.531 34.491 173.64 34.985 173.761C35.661 173.917 36.2157 174.082 36.649 174.255C37.0823 174.42 37.4507 174.675 37.754 175.022C38.066 175.369 38.222 175.837 38.222 176.426C38.222 176.929 38.0833 177.384 37.806 177.791C37.5373 178.198 37.1257 178.523 36.571 178.766C36.0163 179.009 35.3403 179.13 34.543 179.13ZM42.3668 171.33H39.3508V169.9H47.0728V171.33H44.0568V179H42.3668V171.33ZM55.9161 177.583V179H49.0911V169.9H55.7341V171.317H50.7811V173.683H55.1751V175.074H50.7811V177.583H55.9161ZM64.4521 176.894H59.9021L59.0051 179H57.2631L61.3581 169.9H63.0221L67.1301 179H65.3621L64.4521 176.894ZM63.8931 175.568L62.1771 171.59L60.4741 175.568H63.8931ZM77.3964 179L77.3834 172.968L74.3934 177.96H73.6394L70.6494 173.046V179H69.0374V169.9H70.4284L74.0424 175.932L77.5914 169.9H78.9824L78.9954 179H77.3964ZM92.5002 179L90.6412 176.335C90.5632 176.344 90.4462 176.348 90.2902 176.348H88.2362V179H86.5462V169.9H90.2902C91.0789 169.9 91.7636 170.03 92.3442 170.29C92.9336 170.55 93.3842 170.923 93.6962 171.408C94.0082 171.893 94.1642 172.47 94.1642 173.137C94.1642 173.822 93.9952 174.411 93.6572 174.905C93.3279 175.399 92.8512 175.767 92.2272 176.01L94.3202 179H92.5002ZM92.4612 173.137C92.4612 172.556 92.2706 172.11 91.8892 171.798C91.5079 171.486 90.9489 171.33 90.2122 171.33H88.2362V174.957H90.2122C90.9489 174.957 91.5079 174.801 91.8892 174.489C92.2706 174.168 92.4612 173.718 92.4612 173.137ZM102.707 176.894H98.157L97.26 179H95.518L99.613 169.9H101.277L105.385 179H103.617L102.707 176.894ZM102.148 175.568L100.432 171.59L98.729 175.568H102.148ZM107.292 169.9H111.27C112.241 169.9 113.103 170.091 113.857 170.472C114.611 170.845 115.196 171.378 115.612 172.071C116.028 172.756 116.236 173.549 116.236 174.45C116.236 175.351 116.028 176.149 115.612 176.842C115.196 177.527 114.611 178.06 113.857 178.441C113.103 178.814 112.241 179 111.27 179H107.292V169.9ZM111.192 177.57C111.86 177.57 112.445 177.444 112.947 177.193C113.459 176.933 113.849 176.569 114.117 176.101C114.395 175.624 114.533 175.074 114.533 174.45C114.533 173.826 114.395 173.28 114.117 172.812C113.849 172.335 113.459 171.971 112.947 171.72C112.445 171.46 111.86 171.33 111.192 171.33H108.982V177.57H111.192ZM118.783 169.9H120.473V179H118.783V169.9ZM129.586 176.894H125.036L124.139 179H122.397L126.492 169.9H128.156L132.264 179H130.496L129.586 176.894ZM129.027 175.568L127.311 171.59L125.608 175.568H129.027ZM135.56 171.33H132.544V169.9H140.266V171.33H137.25V179H135.56V171.33ZM146.409 179.13C145.481 179.13 144.645 178.931 143.9 178.532C143.154 178.125 142.569 177.566 142.145 176.855C141.72 176.136 141.508 175.334 141.508 174.45C141.508 173.566 141.72 172.769 142.145 172.058C142.569 171.339 143.154 170.78 143.9 170.381C144.645 169.974 145.481 169.77 146.409 169.77C147.336 169.77 148.172 169.974 148.918 170.381C149.663 170.78 150.248 171.334 150.673 172.045C151.097 172.756 151.31 173.557 151.31 174.45C151.31 175.343 151.097 176.144 150.673 176.855C150.248 177.566 149.663 178.125 148.918 178.532C148.172 178.931 147.336 179.13 146.409 179.13ZM146.409 177.648C147.015 177.648 147.561 177.514 148.047 177.245C148.532 176.968 148.913 176.586 149.191 176.101C149.468 175.607 149.607 175.057 149.607 174.45C149.607 173.843 149.468 173.297 149.191 172.812C148.913 172.318 148.532 171.937 148.047 171.668C147.561 171.391 147.015 171.252 146.409 171.252C145.802 171.252 145.256 171.391 144.771 171.668C144.285 171.937 143.904 172.318 143.627 172.812C143.349 173.297 143.211 173.843 143.211 174.45C143.211 175.057 143.349 175.607 143.627 176.101C143.904 176.586 144.285 176.968 144.771 177.245C145.256 177.514 145.802 177.648 146.409 177.648ZM159.805 179L157.946 176.335C157.868 176.344 157.751 176.348 157.595 176.348H155.541V179H153.851V169.9H157.595C158.384 169.9 159.068 170.03 159.649 170.29C160.238 170.55 160.689 170.923 161.001 171.408C161.313 171.893 161.469 172.47 161.469 173.137C161.469 173.822 161.3 174.411 160.962 174.905C160.633 175.399 160.156 175.767 159.532 176.01L161.625 179H159.805ZM159.766 173.137C159.766 172.556 159.575 172.11 159.194 171.798C158.813 171.486 158.254 171.33 157.517 171.33H155.541V174.957H157.517C158.254 174.957 158.813 174.801 159.194 174.489C159.575 174.168 159.766 173.718 159.766 173.137Z" fill="white" fill-opacity="0.87"/>
<defs>
<filter id="filter0_d" x="0.5" y="0" width="208" height="208" filterUnits="userSpaceOnUse" color-interpolation-filters="sRGB">
<feFlood flood-opacity="0" result="BackgroundImageFix"/>
<feColorMatrix in="SourceAlpha" type="matrix" values="0 0 0 0 0 0 0 0 0 0 0 0 0 0 0 0 0 0 127 0"/>
<feOffset dx="4" dy="4"/>
<feGaussianBlur stdDeviation="2"/>
<feColorMatrix type="matrix" values="0 0 0 0 0 0 0 0 0 0 0 0 0 0 0 0 0 0 0.25 0"/>
<feBlend mode="normal" in2="BackgroundImageFix" result="effect1_dropShadow"/>
<feBlend mode="normal" in="SourceGraphic" in2="effect1_dropShadow" result="shape"/>
</filter>
</defs>
</svg>
