<svg width="209" height="208" viewBox="0 0 209 208" fill="none" xmlns="http://www.w3.org/2000/svg">
<g filter="url(#filter0_d)">
<rect x="0.5" width="200" height="200" rx="8" fill="#121212"/>
<rect x="0.5" width="200" height="200" rx="8" fill="white" fill-opacity="0.08"/>
</g>
<path d="M41.543 178.13C40.841 178.13 40.1607 178.03 39.502 177.831C38.852 177.632 38.3363 177.367 37.955 177.038L38.54 175.725C38.9127 176.02 39.3677 176.262 39.905 176.453C40.451 176.635 40.997 176.726 41.543 176.726C42.219 176.726 42.7217 176.618 43.051 176.401C43.389 176.184 43.558 175.898 43.558 175.543C43.558 175.283 43.4627 175.071 43.272 174.906C43.09 174.733 42.856 174.598 42.57 174.503C42.284 174.408 41.894 174.299 41.4 174.178C40.7067 174.013 40.1433 173.849 39.71 173.684C39.2853 173.519 38.917 173.264 38.605 172.917C38.3017 172.562 38.15 172.085 38.15 171.487C38.15 170.984 38.2843 170.529 38.553 170.122C38.8303 169.706 39.242 169.377 39.788 169.134C40.3427 168.891 41.0187 168.77 41.816 168.77C42.3707 168.77 42.9167 168.839 43.454 168.978C43.9913 169.117 44.455 169.316 44.845 169.576L44.312 170.889C43.9133 170.655 43.4973 170.477 43.064 170.356C42.6307 170.235 42.2103 170.174 41.803 170.174C41.1357 170.174 40.6373 170.287 40.308 170.512C39.9873 170.737 39.827 171.036 39.827 171.409C39.827 171.669 39.918 171.881 40.1 172.046C40.2907 172.211 40.529 172.341 40.815 172.436C41.101 172.531 41.491 172.64 41.985 172.761C42.661 172.917 43.2157 173.082 43.649 173.255C44.0823 173.42 44.4507 173.675 44.754 174.022C45.066 174.369 45.222 174.837 45.222 175.426C45.222 175.929 45.0833 176.384 44.806 176.791C44.5373 177.198 44.1257 177.523 43.571 177.766C43.0163 178.009 42.3403 178.13 41.543 178.13ZM49.3668 170.33H46.3508V168.9H54.0728V170.33H51.0568V178H49.3668V170.33ZM62.9161 176.583V178H56.0911V168.9H62.7341V170.317H57.7811V172.683H62.1751V174.074H57.7811V176.583H62.9161ZM71.4521 175.894H66.9021L66.0051 178H64.2631L68.3581 168.9H70.0221L74.1301 178H72.3621L71.4521 175.894ZM70.8931 174.568L69.1771 170.59L67.4741 174.568H70.8931ZM84.3964 178L84.3834 171.968L81.3934 176.96H80.6394L77.6494 172.046V178H76.0374V168.9H77.4284L81.0424 174.932L84.5914 168.9H85.9824L85.9954 178H84.3964ZM100.371 176.583V178H93.5462V168.9H100.189V170.317H95.2362V172.683H99.6302V174.074H95.2362V176.583H100.371ZM108.637 178L106.167 174.542L103.723 178H101.799L105.179 173.359L101.981 168.9H103.892L106.219 172.137L108.52 168.9H110.353L107.168 173.294L110.587 178H108.637ZM114.12 170.33H111.104V168.9H118.826V170.33H115.81V178H114.12V170.33ZM127.669 176.583V178H120.844V168.9H127.487V170.317H122.534V172.683H126.928V174.074H122.534V176.583H127.669ZM136.257 178L134.398 175.335C134.32 175.344 134.203 175.348 134.047 175.348H131.993V178H130.303V168.9H134.047C134.836 168.9 135.52 169.03 136.101 169.29C136.69 169.55 137.141 169.923 137.453 170.408C137.765 170.893 137.921 171.47 137.921 172.137C137.921 172.822 137.752 173.411 137.414 173.905C137.085 174.399 136.608 174.767 135.984 175.01L138.077 178H136.257ZM136.218 172.137C136.218 171.556 136.027 171.11 135.646 170.798C135.265 170.486 134.706 170.33 133.969 170.33H131.993V173.957H133.969C134.706 173.957 135.265 173.801 135.646 173.489C136.027 173.168 136.218 172.718 136.218 172.137ZM140.562 168.9H142.252V178H140.562V168.9ZM149.714 178.13C148.787 178.13 147.951 177.931 147.205 177.532C146.46 177.125 145.875 176.566 145.45 175.855C145.026 175.136 144.813 174.334 144.813 173.45C144.813 172.566 145.026 171.769 145.45 171.058C145.875 170.339 146.46 169.78 147.205 169.381C147.951 168.974 148.787 168.77 149.714 168.77C150.642 168.77 151.478 168.974 152.223 169.381C152.969 169.78 153.554 170.334 153.978 171.045C154.403 171.756 154.615 172.557 154.615 173.45C154.615 174.343 154.403 175.144 153.978 175.855C153.554 176.566 152.969 177.125 152.223 177.532C151.478 177.931 150.642 178.13 149.714 178.13ZM149.714 176.648C150.321 176.648 150.867 176.514 151.352 176.245C151.838 175.968 152.219 175.586 152.496 175.101C152.774 174.607 152.912 174.057 152.912 173.45C152.912 172.843 152.774 172.297 152.496 171.812C152.219 171.318 151.838 170.937 151.352 170.668C150.867 170.391 150.321 170.252 149.714 170.252C149.108 170.252 148.562 170.391 148.076 170.668C147.591 170.937 147.21 171.318 146.932 171.812C146.655 172.297 146.516 172.843 146.516 173.45C146.516 174.057 146.655 174.607 146.932 175.101C147.21 175.586 147.591 175.968 148.076 176.245C148.562 176.514 149.108 176.648 149.714 176.648ZM163.111 178L161.252 175.335C161.174 175.344 161.057 175.348 160.901 175.348H158.847V178H157.157V168.9H160.901C161.689 168.9 162.374 169.03 162.955 169.29C163.544 169.55 163.995 169.923 164.307 170.408C164.619 170.893 164.775 171.47 164.775 172.137C164.775 172.822 164.606 173.411 164.268 173.905C163.938 174.399 163.462 174.767 162.838 175.01L164.931 178H163.111ZM163.072 172.137C163.072 171.556 162.881 171.11 162.5 170.798C162.118 170.486 161.559 170.33 160.823 170.33H158.847V173.957H160.823C161.559 173.957 162.118 173.801 162.5 173.489C162.881 173.168 163.072 172.718 163.072 172.137Z" fill="white" fill-opacity="0.87"/>
<path d="M100 31.2051C73.6461 31.2051 52.2052 52.645 52.2052 79.0023C52.2052 105.355 73.6461 126.795 100 126.795C126.354 126.795 147.795 105.355 147.795 79.0023C147.795 52.645 126.354 31.2051 100 31.2051ZM100 129C72.428 129 50 106.573 50 79.0023C50 51.4315 72.428 29 100 29C127.572 29 150 51.4315 150 79.0023C150 106.573 127.572 129 100 129Z" fill="white" fill-opacity="0.87"/>
<path d="M100 35.8013C76.1822 35.8013 56.8062 55.1765 56.8062 78.9981C56.8062 102.811 76.1822 122.19 100 122.19C123.819 122.19 143.195 102.811 143.195 78.9981C143.195 55.1765 123.819 35.8013 100 35.8013ZM100 123.168C75.6434 123.168 55.8236 103.354 55.8236 78.9981C55.8236 54.6377 75.6434 34.8233 100 34.8233C124.357 34.8233 144.177 54.6377 144.177 78.9981C144.177 103.354 124.357 123.168 100 123.168Z" fill="white" fill-opacity="0.87"/>
<path d="M76.8245 51.1923L82.0722 68.1438L94.936 57.8814L77.742 50.221L76.8245 51.1923Z" fill="white" fill-opacity="0.87"/>
<path d="M80.3957 74.2792C80.2146 74.6007 80.0969 74.8452 80.0516 74.972C79.9248 75.3568 79.875 75.547 79.8342 75.6557C79.6169 75.6013 79.3678 75.5063 79.1731 75.5697C78.9784 75.6466 78.9422 75.8368 78.7113 75.8957C78.4396 75.95 78.0411 75.8006 77.7739 75.7644C77.1989 75.6693 76.6011 75.5878 76.0306 75.4564C75.1068 75.2436 74.7808 74.3833 74.8352 73.5185C74.8985 72.7125 75.7181 72.4454 76.3702 72.3503C77.0177 72.2325 77.9052 71.9428 78.5166 72.3095C79.4086 72.8619 79.0554 74.5237 80.3957 74.2792Z" fill="white" fill-opacity="0.87"/>
<path d="M120.587 93.8389C119.491 93.8389 118.44 93.8751 117.372 93.8978C116.928 93.9068 116.493 93.9068 116.054 93.9068C115.126 93.9068 113.183 93.9838 112.345 93.6759C110.969 93.2141 110.611 91.3938 110.235 90.0943C110.33 90.0671 110.426 90.0445 110.534 90.0264C110.67 90.0083 110.824 89.9766 110.978 89.9494C111.073 89.9403 111.177 89.9222 111.286 89.8996C111.322 89.8996 111.349 89.8996 111.39 89.8905C111.526 89.8724 111.68 89.8543 111.825 89.8317H111.861C112.006 89.8135 112.16 89.7954 112.314 89.7773C112.69 89.7366 113.084 89.6958 113.5 89.6687C113.613 89.6687 113.731 89.6596 113.844 89.6505C114.469 89.6007 115.117 89.5645 115.751 89.5464C115.914 89.5328 116.081 89.5238 116.244 89.5147H116.602C116.747 89.5056 116.878 89.5056 117.023 89.4966H117.363C119.006 89.4694 120.347 89.5328 120.732 89.6687C121.76 90.0535 121.578 90.9999 121.886 92.0006C122.194 93.3771 121.963 93.8389 120.587 93.8389ZM108.696 91.9326C108.202 93.3091 106.287 93.128 106.097 93.128L92.8245 93.1371C92.6434 93.1371 90.7144 93.3273 90.2254 91.9508C89.7182 90.5652 88.9529 88.342 88.6858 87.2371C88.396 86.0689 87.4541 84.0676 93.0962 84.1898C96.0033 84.2487 98.1044 84.2487 99.4538 84.2306C100.808 84.2487 102.909 84.2487 105.816 84.1808C111.449 84.0449 110.516 86.0508 110.226 87.2145C109.955 88.3239 109.194 90.5561 108.696 91.9326ZM86.5847 93.694C85.7379 94.0019 83.7954 93.934 82.8671 93.934C82.532 93.934 82.1924 93.934 81.8664 93.9249C81.0603 93.9159 80.2498 93.8978 79.4347 93.8887C79.068 93.8751 78.7102 93.8751 78.3344 93.8751C76.9578 93.8751 76.7269 93.4133 77.0348 92.0413C77.3427 91.0361 77.148 90.0943 78.1804 89.7094C78.5563 89.5736 79.806 89.5147 81.3592 89.5238C81.5222 89.5238 81.6943 89.5238 81.8664 89.5328C82.378 89.5464 82.9169 89.5555 83.4648 89.5826C83.7954 89.5917 84.1214 89.6098 84.4474 89.6324C84.5742 89.6324 84.6874 89.6415 84.8051 89.6505C84.9908 89.6596 85.1629 89.6822 85.3349 89.6868C85.507 89.6958 85.6836 89.7185 85.8557 89.7275C86.0277 89.7456 86.1908 89.7683 86.3538 89.7773C86.6074 89.7954 86.8473 89.8226 87.0783 89.8543C87.2322 89.8724 87.3862 89.8905 87.522 89.9086C87.6443 89.9313 87.762 89.9494 87.8752 89.9584C87.9341 89.9675 87.993 89.9766 88.0428 89.9856C88.1198 89.9947 88.1877 90.0173 88.2511 90.0264C88.2828 90.0354 88.3099 90.0354 88.3281 90.0354C88.3779 90.0445 88.4231 90.0535 88.473 90.0671C88.5499 90.0852 88.6179 90.0943 88.6858 90.1124C88.3009 91.4119 87.9613 93.2322 86.5847 93.694ZM77.5465 80.821C77.7186 80.0241 77.8906 80.1373 78.7465 80.1282C80.0687 80.1282 81.3411 80.255 82.6588 80.486C84.3886 80.7622 86.4036 80.7078 88.1198 81.215C86.1228 84.7875 83.9312 84.1627 81.3954 84.1627C80.0189 84.1627 77.8906 84.1627 77.5465 82.4964C77.4288 82.0345 77.4288 81.3417 77.5465 80.821ZM85.3757 67.4273L99.4538 66.9383L113.5 67.4001C113.5 67.4001 118.576 75.2924 118.191 75.2924C117.825 75.2924 105.141 74.5815 99.4402 74.7083C93.7483 74.5905 81.0604 75.3241 80.7026 75.3241C80.3177 75.3241 85.3757 67.4273 85.3757 67.4273ZM120.143 80.0965C121.012 80.0965 121.184 79.9834 121.357 80.7848C121.47 81.301 121.47 81.9938 121.357 82.4601C121.012 84.1219 118.889 84.1219 117.503 84.1219C114.972 84.131 112.776 84.7603 110.783 81.1968C112.499 80.6852 114.519 80.735 116.244 80.4543C117.553 80.2143 118.825 80.0965 120.143 80.0965ZM123.906 80.6988C123.861 79.8883 121.981 78.1541 121.443 77.6243C121.089 77.2756 119.835 76.207 119.423 75.9399C119.174 75.7859 119.124 75.7859 119.056 75.632C119.015 75.5188 118.97 75.3241 118.843 74.9483C118.794 74.8124 118.68 74.5724 118.499 74.2555C117.417 72.2994 114.27 67.4364 114.007 67.1692C113.695 66.8613 113.007 66.2455 112.024 66.0689C111.055 65.9059 101.279 65.3943 99.4402 65.3943C97.5927 65.3943 87.8209 65.924 86.8473 66.1006C85.8647 66.2727 85.181 66.8794 84.8731 67.1873C84.6104 67.4545 81.4634 72.3311 80.3947 74.2826C80.209 74.6087 80.0958 74.8532 80.046 74.9754C79.9238 75.3603 79.874 75.555 79.8377 75.6591C79.7879 75.7678 79.5389 75.9399 79.4438 75.9897L79.4121 76.0169C79.1449 76.198 78.0446 76.9406 77.4605 77.5654C76.5639 78.5118 75.0288 79.9245 74.9926 80.735C74.9564 81.5455 74.6077 82.1115 74.6937 83.728C74.7254 84.5068 74.9428 86.8749 75.1556 89.1298C75.3684 91.498 75.5994 93.7438 75.6175 93.9159C75.6582 94.2645 75.5405 94.6494 75.6945 94.9483C75.8484 95.2516 76.2378 95.3422 76.8401 95.3331C77.0348 95.3331 79.068 95.3603 81.8664 95.4011C88.5318 95.478 99.4583 95.6229 99.4583 95.6229C99.4583 95.6229 110.738 95.4554 117.372 95.3603C119.998 95.3241 121.909 95.2924 122.081 95.2924C122.688 95.2924 123.068 95.2154 123.231 94.9075C123.381 94.6087 123.263 94.2238 123.304 93.8751C123.331 93.6397 123.725 89.5826 123.983 86.5987C124.101 85.2765 124.187 84.1717 124.218 83.6827C124.295 82.0707 123.947 81.4957 123.906 80.6988Z" fill="white" fill-opacity="0.87"/>
<path d="M81.8691 96.3648V99.0136C81.8691 99.2627 81.6699 99.4755 81.4163 99.4755L75.6293 99.4845C75.3712 99.4845 75.1674 99.2717 75.1674 99.0227V95.8169C75.6701 96.2787 76.3991 96.2969 76.8066 96.2969C76.8157 96.2969 81.8601 96.3648 81.8601 96.3648H81.8691Z" fill="white" fill-opacity="0.87"/>
<path d="M124.086 95.3482V98.9569C124.086 99.2196 123.882 99.4188 123.619 99.4188L117.837 99.4324C117.583 99.4324 117.375 99.2196 117.375 98.9705V96.3126C120.11 96.2719 122.044 96.2447 122.084 96.2447C122.537 96.2447 123.583 96.2447 124.086 95.3482Z" fill="white" fill-opacity="0.87"/>
<path d="M81.3493 91.7409C81.3493 92.7099 80.5659 93.4932 79.5969 93.4977C78.6278 93.4977 77.8445 92.7099 77.8399 91.7409C77.8399 90.7764 78.6233 89.9886 79.5969 89.9886C80.5614 89.9886 81.3493 90.7719 81.3493 91.7409Z" fill="white" fill-opacity="0.87"/>
<path d="M122.873 75.4276C122.302 75.5589 121.7 75.6404 121.125 75.7355C120.858 75.7717 120.459 75.9257 120.187 75.8713C119.956 75.8125 119.92 75.6223 119.725 75.5453C119.526 75.4819 119.286 75.577 119.064 75.6313C119.024 75.5227 118.969 75.3325 118.847 74.9521C118.802 74.8208 118.684 74.5809 118.503 74.2594C119.839 74.4993 119.481 72.8376 120.378 72.2852C120.984 71.9184 121.872 72.2082 122.524 72.3214C123.171 72.4165 124 72.6836 124.054 73.4896C124.113 74.3545 123.792 75.2102 122.873 75.4276Z" fill="white" fill-opacity="0.87"/>
<path d="M84.3665 91.7299C84.3665 92.4182 83.805 92.9796 83.1167 92.9796C82.4239 92.9796 81.8624 92.4227 81.8624 91.7299C81.8579 91.0417 82.4194 90.4802 83.1167 90.4802C83.805 90.4802 84.3665 91.0371 84.3665 91.7299Z" fill="white" fill-opacity="0.87"/>
<path d="M120.964 91.6915C120.969 92.656 120.186 93.4484 119.212 93.4484C118.248 93.4484 117.455 92.6605 117.455 91.6915C117.451 90.7225 118.243 89.9347 119.212 89.9347C120.181 89.9347 120.964 90.718 120.964 91.6915Z" fill="white" fill-opacity="0.87"/>
<path d="M116.769 91.7051C116.769 92.3979 116.208 92.9548 115.52 92.9548C114.831 92.9548 114.27 92.3979 114.27 91.7051C114.27 91.0169 114.827 90.4554 115.52 90.4554C116.208 90.4554 116.769 91.0123 116.769 91.7051Z" fill="white" fill-opacity="0.87"/>
<defs>
<filter id="filter0_d" x="0.5" y="0" width="208" height="208" filterUnits="userSpaceOnUse" color-interpolation-filters="sRGB">
<feFlood flood-opacity="0" result="BackgroundImageFix"/>
<feColorMatrix in="SourceAlpha" type="matrix" values="0 0 0 0 0 0 0 0 0 0 0 0 0 0 0 0 0 0 127 0"/>
<feOffset dx="4" dy="4"/>
<feGaussianBlur stdDeviation="2"/>
<feColorMatrix type="matrix" values="0 0 0 0 0 0 0 0 0 0 0 0 0 0 0 0 0 0 0.25 0"/>
<feBlend mode="normal" in2="BackgroundImageFix" result="effect1_dropShadow"/>
<feBlend mode="normal" in="SourceGraphic" in2="effect1_dropShadow" result="shape"/>
</filter>
</defs>
</svg>
