<svg width="209" height="209" viewBox="0 0 209 209" fill="none" xmlns="http://www.w3.org/2000/svg">
<g filter="url(#filter0_d)">
<rect x="0.5" y="0.308594" width="200" height="200" rx="8" fill="#121212"/>
<rect x="0.5" y="0.308594" width="200" height="200" rx="8" fill="white" fill-opacity="0.08"/>
</g>
<path d="M57.7315 177.311C57.0295 177.311 56.3491 177.211 55.6905 177.012C55.0405 176.813 54.5248 176.548 54.1435 176.219L54.7285 174.906C55.1011 175.201 55.5561 175.443 56.0935 175.634C56.6395 175.816 57.1855 175.907 57.7315 175.907C58.4075 175.907 58.9101 175.799 59.2395 175.582C59.5775 175.365 59.7465 175.079 59.7465 174.724C59.7465 174.464 59.6511 174.252 59.4605 174.087C59.2785 173.914 59.0445 173.779 58.7585 173.684C58.4725 173.589 58.0825 173.48 57.5885 173.359C56.8951 173.194 56.3318 173.03 55.8985 172.865C55.4738 172.7 55.1055 172.445 54.7935 172.098C54.4901 171.743 54.3385 171.266 54.3385 170.668C54.3385 170.165 54.4728 169.71 54.7415 169.303C55.0188 168.887 55.4305 168.558 55.9765 168.315C56.5311 168.072 57.2071 167.951 58.0045 167.951C58.5591 167.951 59.1051 168.02 59.6425 168.159C60.1798 168.298 60.6435 168.497 61.0335 168.757L60.5005 170.07C60.1018 169.836 59.6858 169.658 59.2525 169.537C58.8191 169.416 58.3988 169.355 57.9915 169.355C57.3241 169.355 56.8258 169.468 56.4965 169.693C56.1758 169.918 56.0155 170.217 56.0155 170.59C56.0155 170.85 56.1065 171.062 56.2885 171.227C56.4791 171.392 56.7175 171.522 57.0035 171.617C57.2895 171.712 57.6795 171.821 58.1735 171.942C58.8495 172.098 59.4041 172.263 59.8375 172.436C60.2708 172.601 60.6391 172.856 60.9425 173.203C61.2545 173.55 61.4105 174.018 61.4105 174.607C61.4105 175.11 61.2718 175.565 60.9945 175.972C60.7258 176.379 60.3141 176.704 59.7595 176.947C59.2048 177.19 58.5288 177.311 57.7315 177.311ZM65.5553 169.511H62.5393V168.081H70.2613V169.511H67.2453V177.181H65.5553V169.511ZM79.1046 175.764V177.181H72.2796V168.081H78.9226V169.498H73.9696V171.864H78.3636V173.255H73.9696V175.764H79.1046ZM87.6406 175.075H83.0906L82.1936 177.181H80.4516L84.5466 168.081H86.2106L90.3186 177.181H88.5506L87.6406 175.075ZM87.0816 173.749L85.3656 169.771L83.6626 173.749H87.0816ZM100.585 177.181L100.572 171.149L97.5819 176.141H96.8279L93.8379 171.227V177.181H92.2259V168.081H93.6169L97.2309 174.113L100.78 168.081H102.171L102.184 177.181H100.585ZM118.094 177.181L118.081 171.149L115.091 176.141H114.337L111.347 171.227V177.181H109.735V168.081H111.126L114.74 174.113L118.289 168.081H119.68L119.693 177.181H118.094ZM128.803 175.075H124.253L123.356 177.181H121.614L125.709 168.081H127.373L131.481 177.181H129.713L128.803 175.075ZM128.244 173.749L126.528 169.771L124.825 173.749H128.244ZM134.777 169.511H131.761V168.081H139.483V169.511H136.467V177.181H134.777V169.511Z" fill="white" fill-opacity="0.87"/>
<path d="M100.002 29.3863C73.6495 29.3863 52.2051 50.8216 52.2051 77.1789C52.2051 103.532 73.6495 124.972 100.002 124.972C126.355 124.972 147.795 103.532 147.795 77.1789C147.795 50.8216 126.355 29.3863 100.002 29.3863ZM100.002 127.181C72.4315 127.181 50 104.75 50 77.1789C50 49.6081 72.4315 27.1812 100.002 27.1812C127.573 27.1812 150 49.6081 150 77.1789C150 104.75 127.573 127.181 100.002 127.181Z" fill="white" fill-opacity="0.87"/>
<path d="M100.004 33.9803C76.187 33.9803 56.8074 53.3555 56.8074 77.1725C56.8074 100.994 76.187 120.369 100.004 120.369C123.821 120.369 143.196 100.994 143.196 77.1725C143.196 53.3555 123.821 33.9803 100.004 33.9803ZM100.004 121.347C75.6482 121.347 55.8293 101.533 55.8293 77.1725C55.8293 52.8166 75.6482 32.9977 100.004 32.9977C124.36 32.9977 144.179 52.8166 144.179 77.1725C144.179 101.533 124.36 121.347 100.004 121.347Z" fill="white" fill-opacity="0.87"/>
<path d="M75.4309 46.3191L76.3864 64.0384L91.3637 57.2225L76.5533 45.6056L75.4309 46.3191Z" fill="white" fill-opacity="0.87"/>
<path d="M88.6757 77.2693L90.9658 80.1975L93.2626 77.2689L90.9669 74.3335L88.6757 77.2693Z" fill="white" fill-opacity="0.87"/>
<path d="M102.776 89.4337L100.483 86.5018L98.1863 89.4305L100.483 92.3595L102.776 89.4337Z" fill="white" fill-opacity="0.87"/>
<path d="M106.726 67.5445L108.048 65.851H105.404L106.726 67.5445Z" fill="white" fill-opacity="0.87"/>
<path d="M90.9707 87.6936L92.8805 85.2497L90.9645 82.8041L89.0546 85.248L90.9707 87.6936Z" fill="white" fill-opacity="0.87"/>
<path d="M99.4633 85.1962L97.2078 82.3156L94.9183 85.2527L97.1683 88.1261L99.4633 85.1962Z" fill="white" fill-opacity="0.87"/>
<path d="M112.294 77.2695L109.998 74.3346L107.707 77.2708L109.998 80.1986L112.294 77.2695Z" fill="white" fill-opacity="0.87"/>
<path d="M106.051 85.2539L103.755 82.3243L101.503 85.199L103.795 88.1314L106.051 85.2539Z" fill="white" fill-opacity="0.87"/>
<path d="M110.092 65.8537L107.745 68.8527L109.997 71.7357L114.598 65.8554L110.092 65.8537Z" fill="white" fill-opacity="0.87"/>
<path d="M108.979 81.5038L106.688 78.5702L104.771 81.0151L107.069 83.943L108.979 81.5038Z" fill="white" fill-opacity="0.87"/>
<path d="M96.1521 89.4332L93.9022 86.554L91.9888 89.0031L94.2388 91.8823L96.1521 89.4332Z" fill="white" fill-opacity="0.87"/>
<path d="M102.733 81.0146L100.483 78.1354L98.2294 81.0169L100.479 83.8961L102.733 81.0146Z" fill="white" fill-opacity="0.87"/>
<path d="M91.9868 73.0259L94.2831 75.9609L96.5341 73.0843L94.2414 70.1466L91.9868 73.0259Z" fill="white" fill-opacity="0.87"/>
<path d="M105.667 77.2657L103.416 74.3812L101.505 76.8261L103.756 79.7042L105.667 77.2657Z" fill="white" fill-opacity="0.87"/>
<path d="M99.4665 76.8298L97.5538 74.3823L95.3032 77.2675L97.2103 79.7078L99.4665 76.8298Z" fill="white" fill-opacity="0.87"/>
<path d="M91.9855 81.5033L93.8975 83.9454L96.1927 81.0156L94.2814 78.5671L91.9855 81.5033Z" fill="white" fill-opacity="0.87"/>
<path d="M95.261 68.8453L97.5539 71.7772L99.4655 69.3337L97.1726 66.4019L95.261 68.8453Z" fill="white" fill-opacity="0.87"/>
<path d="M108.983 73.0308L106.73 70.148L104.44 73.0864L106.69 75.9656L108.983 73.0308Z" fill="white" fill-opacity="0.87"/>
<path d="M98.5676 73.0888L100.48 75.531L102.389 73.0929L100.478 70.6443L98.5676 73.0888Z" fill="white" fill-opacity="0.87"/>
<path d="M101.506 69.3366L103.416 71.7805L105.707 68.852L103.795 66.4045L101.506 69.3366Z" fill="white" fill-opacity="0.87"/>
<path d="M116.241 82.321L113.945 85.2506L120.221 93.2787H118.183L112.926 86.5592L111.015 89.0043L114.357 93.2787H112.319L109.996 90.3083L107.746 93.1836L107.819 93.2787H107.669L107.194 93.8899H121.072C122.335 93.8899 123.508 93.5141 124.513 92.8983L116.241 82.321Z" fill="white" fill-opacity="0.87"/>
<path d="M111.909 85.2481L109.999 82.8042L108.083 85.2498L109.993 87.6937L111.909 85.2481Z" fill="white" fill-opacity="0.87"/>
<path d="M115.222 81.0161L113.312 78.5722L111.017 81.5036L112.931 83.9447L115.222 81.0161Z" fill="white" fill-opacity="0.87"/>
<path d="M125.641 67.6944C124.906 66.994 124.004 66.4757 123.011 66.1716L114.331 77.2707L116.245 79.7075L125.641 67.6944Z" fill="white" fill-opacity="0.87"/>
<path d="M107.064 86.5522L104.812 89.4293L106.725 91.8767L108.978 88.9996L107.064 86.5522Z" fill="white" fill-opacity="0.87"/>
<path d="M105.712 93.1827L103.802 90.7388L101.335 93.8845L105.158 93.8857L105.712 93.1827Z" fill="white" fill-opacity="0.87"/>
<path d="M87.0152 85.2506L84.724 82.321L76.1164 93.3239C76.9269 93.6817 77.8189 93.8854 78.7652 93.8854H80.264L87.0152 85.2506Z" fill="white" fill-opacity="0.87"/>
<path d="M117.26 81.0124L125.782 91.9112C126.968 90.7158 127.697 89.0721 127.697 87.2564V72.4726C127.697 71.1822 127.312 69.9868 126.679 68.9725L117.26 81.0124Z" fill="white" fill-opacity="0.87"/>
<path d="M74.733 92.4809L83.7029 81.0116L73.7097 68.2382C72.7452 69.3838 72.1385 70.8554 72.1385 72.4719V87.2557C72.1385 89.3883 73.1663 91.2674 74.733 92.4809Z" fill="white" fill-opacity="0.87"/>
<path d="M111.018 73.0279L113.309 75.962L121.206 65.8646C121.161 65.8646 121.12 65.851 121.074 65.851H116.633L111.018 73.0279Z" fill="white" fill-opacity="0.87"/>
<path d="M93.2205 93.1828L90.9678 90.3058L88.1646 93.8867L92.6672 93.8863L93.2205 93.1828Z" fill="white" fill-opacity="0.87"/>
<path d="M90.9707 71.7295L93.2262 68.849L90.8747 65.8517L86.372 65.8513L90.9707 71.7295Z" fill="white" fill-opacity="0.87"/>
<path d="M87.6575 75.9672L89.951 73.03L84.3391 65.8558L79.7451 65.8534L87.6575 75.9672Z" fill="white" fill-opacity="0.87"/>
<path d="M99.771 93.2747H99.1552L97.1674 90.7345L95.2566 93.1796L95.3336 93.2747H95.1841L94.7087 93.886H99.2955L99.771 93.2747Z" fill="white" fill-opacity="0.87"/>
<path d="M84.7272 79.7116L86.6365 77.2729L77.7846 65.949C76.7106 66.1088 75.7284 66.5187 74.8869 67.1307L84.7272 79.7116Z" fill="white" fill-opacity="0.87"/>
<path d="M94.2421 67.5445L95.5643 65.851H92.92L94.2421 67.5445Z" fill="white" fill-opacity="0.87"/>
<path d="M102.188 65.851H98.7738L100.481 68.029L102.188 65.851Z" fill="white" fill-opacity="0.87"/>
<path d="M89.9489 81.5038L87.6582 78.5702L85.7411 81.0151L88.039 83.943L89.9489 81.5038Z" fill="white" fill-opacity="0.87"/>
<path d="M86.123 93.8891L89.945 89.003L88.0363 86.5558L82.3007 93.8885L86.123 93.8891Z" fill="white" fill-opacity="0.87"/>
<defs>
<filter id="filter0_d" x="0.5" y="0.308594" width="208" height="208" filterUnits="userSpaceOnUse" color-interpolation-filters="sRGB">
<feFlood flood-opacity="0" result="BackgroundImageFix"/>
<feColorMatrix in="SourceAlpha" type="matrix" values="0 0 0 0 0 0 0 0 0 0 0 0 0 0 0 0 0 0 127 0"/>
<feOffset dx="4" dy="4"/>
<feGaussianBlur stdDeviation="2"/>
<feColorMatrix type="matrix" values="0 0 0 0 0 0 0 0 0 0 0 0 0 0 0 0 0 0 0.25 0"/>
<feBlend mode="normal" in2="BackgroundImageFix" result="effect1_dropShadow"/>
<feBlend mode="normal" in="SourceGraphic" in2="effect1_dropShadow" result="shape"/>
</filter>
</defs>
</svg>
