<svg width="209" height="208" viewBox="0 0 209 208" fill="none" xmlns="http://www.w3.org/2000/svg">
<g filter="url(#filter0_d)">
<rect x="0.5" width="200" height="200" rx="8" fill="#121212"/>
<rect x="0.5" width="200" height="200" rx="8" fill="white" fill-opacity="0.08"/>
</g>
<path d="M25.543 179.13C24.841 179.13 24.1607 179.03 23.502 178.831C22.852 178.632 22.3363 178.367 21.955 178.038L22.54 176.725C22.9127 177.02 23.3677 177.262 23.905 177.453C24.451 177.635 24.997 177.726 25.543 177.726C26.219 177.726 26.7217 177.618 27.051 177.401C27.389 177.184 27.558 176.898 27.558 176.543C27.558 176.283 27.4627 176.071 27.272 175.906C27.09 175.733 26.856 175.598 26.57 175.503C26.284 175.408 25.894 175.299 25.4 175.178C24.7067 175.013 24.1433 174.849 23.71 174.684C23.2853 174.519 22.917 174.264 22.605 173.917C22.3017 173.562 22.15 173.085 22.15 172.487C22.15 171.984 22.2843 171.529 22.553 171.122C22.8303 170.706 23.242 170.377 23.788 170.134C24.3427 169.891 25.0187 169.77 25.816 169.77C26.3707 169.77 26.9167 169.839 27.454 169.978C27.9913 170.117 28.455 170.316 28.845 170.576L28.312 171.889C27.9133 171.655 27.4973 171.477 27.064 171.356C26.6307 171.235 26.2103 171.174 25.803 171.174C25.1357 171.174 24.6373 171.287 24.308 171.512C23.9873 171.737 23.827 172.036 23.827 172.409C23.827 172.669 23.918 172.881 24.1 173.046C24.2907 173.211 24.529 173.341 24.815 173.436C25.101 173.531 25.491 173.64 25.985 173.761C26.661 173.917 27.2157 174.082 27.649 174.255C28.0823 174.42 28.4507 174.675 28.754 175.022C29.066 175.369 29.222 175.837 29.222 176.426C29.222 176.929 29.0833 177.384 28.806 177.791C28.5373 178.198 28.1257 178.523 27.571 178.766C27.0163 179.009 26.3403 179.13 25.543 179.13ZM33.3668 171.33H30.3508V169.9H38.0728V171.33H35.0568V179H33.3668V171.33ZM46.9161 177.583V179H40.0911V169.9H46.7341V171.317H41.7811V173.683H46.1751V175.074H41.7811V177.583H46.9161ZM55.4521 176.894H50.9021L50.0051 179H48.2631L52.3581 169.9H54.0221L58.1301 179H56.3621L55.4521 176.894ZM54.8931 175.568L53.1771 171.59L51.4741 175.568H54.8931ZM68.3964 179L68.3834 172.968L65.3934 177.96H64.6394L61.6494 173.046V179H60.0374V169.9H61.4284L65.0424 175.932L68.5914 169.9H69.9824L69.9954 179H68.3964ZM83.5002 179L81.6412 176.335C81.5632 176.344 81.4462 176.348 81.2902 176.348H79.2362V179H77.5462V169.9H81.2902C82.0789 169.9 82.7636 170.03 83.3442 170.29C83.9336 170.55 84.3842 170.923 84.6962 171.408C85.0082 171.893 85.1642 172.47 85.1642 173.137C85.1642 173.822 84.9952 174.411 84.6572 174.905C84.3279 175.399 83.8512 175.767 83.2272 176.01L85.3202 179H83.5002ZM83.4612 173.137C83.4612 172.556 83.2706 172.11 82.8892 171.798C82.5079 171.486 81.9489 171.33 81.2122 171.33H79.2362V174.957H81.2122C81.9489 174.957 82.5079 174.801 82.8892 174.489C83.2706 174.168 83.4612 173.718 83.4612 173.137ZM92.056 179.13C91.1287 179.13 90.2923 178.931 89.547 178.532C88.8017 178.125 88.2167 177.566 87.792 176.855C87.3673 176.136 87.155 175.334 87.155 174.45C87.155 173.566 87.3673 172.769 87.792 172.058C88.2167 171.339 88.8017 170.78 89.547 170.381C90.2923 169.974 91.1287 169.77 92.056 169.77C92.9833 169.77 93.8197 169.974 94.565 170.381C95.3103 170.78 95.8953 171.334 96.32 172.045C96.7447 172.756 96.957 173.557 96.957 174.45C96.957 175.343 96.7447 176.144 96.32 176.855C95.8953 177.566 95.3103 178.125 94.565 178.532C93.8197 178.931 92.9833 179.13 92.056 179.13ZM92.056 177.648C92.6627 177.648 93.2087 177.514 93.694 177.245C94.1793 176.968 94.5607 176.586 94.838 176.101C95.1153 175.607 95.254 175.057 95.254 174.45C95.254 173.843 95.1153 173.297 94.838 172.812C94.5607 172.318 94.1793 171.937 93.694 171.668C93.2087 171.391 92.6627 171.252 92.056 171.252C91.4493 171.252 90.9033 171.391 90.418 171.668C89.9327 171.937 89.5513 172.318 89.274 172.812C88.9967 173.297 88.858 173.843 88.858 174.45C88.858 175.057 88.9967 175.607 89.274 176.101C89.5513 176.586 89.9327 176.968 90.418 177.245C90.9033 177.514 91.4493 177.648 92.056 177.648ZM103.749 179.13C102.822 179.13 101.986 178.931 101.24 178.532C100.495 178.125 99.91 177.566 99.4854 176.855C99.0607 176.136 98.8484 175.334 98.8484 174.45C98.8484 173.566 99.0607 172.769 99.4854 172.058C99.91 171.339 100.495 170.78 101.24 170.381C101.986 169.974 102.822 169.77 103.749 169.77C104.677 169.77 105.513 169.974 106.258 170.381C107.004 170.78 107.589 171.334 108.013 172.045C108.438 172.756 108.65 173.557 108.65 174.45C108.65 175.343 108.438 176.144 108.013 176.855C107.589 177.566 107.004 178.125 106.258 178.532C105.513 178.931 104.677 179.13 103.749 179.13ZM103.749 177.648C104.356 177.648 104.902 177.514 105.387 177.245C105.873 176.968 106.254 176.586 106.531 176.101C106.809 175.607 106.947 175.057 106.947 174.45C106.947 173.843 106.809 173.297 106.531 172.812C106.254 172.318 105.873 171.937 105.387 171.668C104.902 171.391 104.356 171.252 103.749 171.252C103.143 171.252 102.597 171.391 102.111 171.668C101.626 171.937 101.245 172.318 100.967 172.812C100.69 173.297 100.551 173.843 100.551 174.45C100.551 175.057 100.69 175.607 100.967 176.101C101.245 176.586 101.626 176.968 102.111 177.245C102.597 177.514 103.143 177.648 103.749 177.648ZM112.882 171.317V174.086H117.276V175.516H112.882V179H111.192V169.9H117.835V171.317H112.882ZM123.352 175.191L121.909 176.673V179H120.219V169.9H121.909V174.567L126.407 169.9H128.305L124.483 173.969L128.539 179H126.563L123.352 175.191ZM130.44 169.9H132.13V177.57H136.888V179H130.44V169.9ZM145.797 177.583V179H138.972V169.9H145.615V171.317H140.662V173.683H145.056V175.074H140.662V177.583H145.797ZM155.256 177.583V179H148.431V169.9H155.074V171.317H150.121V173.683H154.515V175.074H150.121V177.583H155.256ZM165.976 169.9V179H164.585L159.567 172.838V179H157.89V169.9H159.281L164.299 176.062V169.9H165.976Z" fill="white" fill-opacity="0.87"/>
<path d="M100.002 39.2051C73.6495 39.2051 52.2051 60.645 52.2051 87.0023C52.2051 113.35 73.6495 134.795 100.002 134.795C126.355 134.795 147.795 113.35 147.795 87.0023C147.795 60.645 126.355 39.2051 100.002 39.2051ZM100.002 137C72.4315 137 50 114.573 50 87.0023C50 59.427 72.4315 37 100.002 37C127.573 37 150 59.427 150 87.0023C150 114.573 127.573 137 100.002 137Z" fill="white"/>
<path d="M99.9972 43.801C76.1802 43.801 56.8005 63.1761 56.8005 86.9977C56.8005 110.81 76.1802 130.19 99.9972 130.19C123.814 130.19 143.189 110.81 143.189 86.9977C143.189 63.1761 123.814 43.801 99.9972 43.801ZM99.9972 131.168C75.6413 131.168 55.8225 111.354 55.8225 86.9977C55.8225 62.6373 75.6413 42.823 99.9972 42.823C124.353 42.823 144.172 62.6373 144.172 86.9977C144.172 111.354 124.353 131.168 99.9972 131.168Z" fill="white"/>
<path d="M79.7547 53.8416L80.7099 71.561L95.6873 64.7453L80.8813 53.1234L79.7547 53.8416Z" fill="white"/>
<path d="M83.0476 77.1196H115.337V96.3046H83.0476V77.1196Z" fill="white"/>
<path d="M74.4071 99.276L74.1309 98.4021L82.0005 95.9298V77.3879L74.801 74.4673L75.1451 73.6161L79.0392 75.2008C81.3847 76.1517 82.9196 78.4293 82.9196 80.9559V92.0766C82.9196 94.7707 81.1718 97.1524 78.6 97.9584L74.4071 99.276Z" fill="white"/>
<path d="M122.603 99.2225L115.113 96.1797V77.0807L123.313 74.5043L123.585 75.3782L117.898 77.1667C116.784 77.5154 116.028 78.5478 116.028 79.7069V91.7694C116.028 94.0606 117.418 96.1253 119.546 96.9902L122.947 98.3712L122.603 99.2225Z" fill="white"/>
<defs>
<filter id="filter0_d" x="0.5" y="0" width="208" height="208" filterUnits="userSpaceOnUse" color-interpolation-filters="sRGB">
<feFlood flood-opacity="0" result="BackgroundImageFix"/>
<feColorMatrix in="SourceAlpha" type="matrix" values="0 0 0 0 0 0 0 0 0 0 0 0 0 0 0 0 0 0 127 0"/>
<feOffset dx="4" dy="4"/>
<feGaussianBlur stdDeviation="2"/>
<feColorMatrix type="matrix" values="0 0 0 0 0 0 0 0 0 0 0 0 0 0 0 0 0 0 0.25 0"/>
<feBlend mode="normal" in2="BackgroundImageFix" result="effect1_dropShadow"/>
<feBlend mode="normal" in="SourceGraphic" in2="effect1_dropShadow" result="shape"/>
</filter>
</defs>
</svg>
