<svg width="209" height="208" viewBox="0 0 209 208" fill="none" xmlns="http://www.w3.org/2000/svg">
<g filter="url(#filter0_d)">
<rect x="0.5" width="200" height="200" rx="8" fill="#121212"/>
<rect x="0.5" width="200" height="200" rx="8" fill="white" fill-opacity="0.08"/>
</g>
<path d="M34.543 179.13C33.841 179.13 33.1607 179.03 32.502 178.831C31.852 178.632 31.3363 178.367 30.955 178.038L31.54 176.725C31.9127 177.02 32.3677 177.262 32.905 177.453C33.451 177.635 33.997 177.726 34.543 177.726C35.219 177.726 35.7217 177.618 36.051 177.401C36.389 177.184 36.558 176.898 36.558 176.543C36.558 176.283 36.4627 176.071 36.272 175.906C36.09 175.733 35.856 175.598 35.57 175.503C35.284 175.408 34.894 175.299 34.4 175.178C33.7067 175.013 33.1433 174.849 32.71 174.684C32.2853 174.519 31.917 174.264 31.605 173.917C31.3017 173.562 31.15 173.085 31.15 172.487C31.15 171.984 31.2843 171.529 31.553 171.122C31.8303 170.706 32.242 170.377 32.788 170.134C33.3427 169.891 34.0187 169.77 34.816 169.77C35.3707 169.77 35.9167 169.839 36.454 169.978C36.9913 170.117 37.455 170.316 37.845 170.576L37.312 171.889C36.9133 171.655 36.4973 171.477 36.064 171.356C35.6307 171.235 35.2103 171.174 34.803 171.174C34.1357 171.174 33.6373 171.287 33.308 171.512C32.9873 171.737 32.827 172.036 32.827 172.409C32.827 172.669 32.918 172.881 33.1 173.046C33.2907 173.211 33.529 173.341 33.815 173.436C34.101 173.531 34.491 173.64 34.985 173.761C35.661 173.917 36.2157 174.082 36.649 174.255C37.0823 174.42 37.4507 174.675 37.754 175.022C38.066 175.369 38.222 175.837 38.222 176.426C38.222 176.929 38.0833 177.384 37.806 177.791C37.5373 178.198 37.1257 178.523 36.571 178.766C36.0163 179.009 35.3403 179.13 34.543 179.13ZM42.3668 171.33H39.3508V169.9H47.0728V171.33H44.0568V179H42.3668V171.33ZM55.9161 177.583V179H49.0911V169.9H55.7341V171.317H50.7811V173.683H55.1751V175.074H50.7811V177.583H55.9161ZM64.4521 176.894H59.9021L59.0051 179H57.2631L61.3581 169.9H63.0221L67.1301 179H65.3621L64.4521 176.894ZM63.8931 175.568L62.1771 171.59L60.4741 175.568H63.8931ZM77.3964 179L77.3834 172.968L74.3934 177.96H73.6394L70.6494 173.046V179H69.0374V169.9H70.4284L74.0424 175.932L77.5914 169.9H78.9824L78.9954 179H77.3964ZM92.9942 174.268C93.4969 174.433 93.8956 174.71 94.1902 175.1C94.4849 175.481 94.6322 175.958 94.6322 176.53C94.6322 177.319 94.3289 177.93 93.7222 178.363C93.1156 178.788 92.2316 179 91.0702 179H86.5462V169.9H90.8102C91.8849 169.9 92.7126 170.112 93.2932 170.537C93.8739 170.953 94.1642 171.529 94.1642 172.266C94.1642 172.717 94.0602 173.115 93.8522 173.462C93.6442 173.809 93.3582 174.077 92.9942 174.268ZM88.2362 171.226V173.735H90.6282C91.2176 173.735 91.6682 173.631 91.9802 173.423C92.3009 173.206 92.4612 172.894 92.4612 172.487C92.4612 172.071 92.3009 171.759 91.9802 171.551C91.6682 171.334 91.2176 171.226 90.6282 171.226H88.2362ZM90.9662 177.674C92.2749 177.674 92.9292 177.236 92.9292 176.361C92.9292 175.486 92.2749 175.048 90.9662 175.048H88.2362V177.674H90.9662ZM104.011 177.583V179H97.1859V169.9H103.829V171.317H98.8759V173.683H103.27V175.074H98.8759V177.583H104.011ZM106.645 169.9H108.335V177.57H113.093V179H106.645V169.9ZM116.172 171.33H113.156V169.9H120.878V171.33H117.862V179H116.172V171.33ZM126.03 175.191L124.587 176.673V179H122.897V169.9H124.587V174.567L129.085 169.9H130.983L127.161 173.969L131.217 179H129.241L126.03 175.191ZM133.118 169.9H134.808V177.57H139.566V179H133.118V169.9ZM148.475 177.583V179H141.65V169.9H148.293V171.317H143.34V173.683H147.734V175.074H143.34V177.583H148.475ZM157.934 177.583V179H151.109V169.9H157.752V171.317H152.799V173.683H157.193V175.074H152.799V177.583H157.934ZM168.654 169.9V179H167.263L162.245 172.838V179H160.568V169.9H161.959L166.977 176.062V169.9H168.654Z" fill="white" fill-opacity="0.87"/>
<path d="M100.002 39.2051C73.6495 39.2051 52.2051 60.645 52.2051 86.9977C52.2051 113.35 73.6495 134.795 100.002 134.795C126.355 134.795 147.795 113.35 147.795 86.9977C147.795 60.645 126.355 39.2051 100.002 39.2051ZM100.002 137C72.4315 137 50 114.573 50 86.9977C50 59.427 72.4315 37 100.002 37C127.573 37 150 59.427 150 86.9977C150 114.573 127.573 137 100.002 137Z" fill="white" fill-opacity="0.87"/>
<path d="M100.004 43.8055C76.187 43.8055 56.8074 63.1807 56.8074 86.9977C56.8074 110.815 76.187 130.194 100.004 130.194C123.821 130.194 143.196 110.815 143.196 86.9977C143.196 63.1807 123.821 43.8055 100.004 43.8055ZM100.004 131.173C75.6482 131.173 55.8293 111.354 55.8293 86.9977C55.8293 62.6418 75.6482 42.823 100.004 42.823C124.36 42.823 144.179 62.6418 144.179 86.9977C144.179 111.354 124.36 131.173 100.004 131.173Z" fill="white" fill-opacity="0.87"/>
<path d="M79.7615 53.8169L80.7168 71.5363L95.6942 64.7206L80.8882 53.0987L79.7615 53.8169Z" fill="white" fill-opacity="0.87"/>
<path d="M85.7241 111.505H78.2077L110.868 58.6142H118.384L85.7241 111.505Z" fill="white" fill-opacity="0.87"/>
<path d="M95.2646 80.0034C94.1416 80.0034 93.2315 80.918 93.2315 82.0364V84.9298C93.2315 86.0482 94.1416 86.9629 95.2646 86.9629H103.646C104.769 86.9629 105.679 86.0482 105.679 84.9298V82.0364C105.679 80.918 104.769 80.0034 103.646 80.0034H95.2646ZM103.646 88.0949H95.2646C93.5168 88.0949 92.0995 86.6776 92.0995 84.9298V82.0364C92.0995 80.2887 93.5168 78.8714 95.2646 78.8714H103.646C105.394 78.8714 106.811 80.2887 106.811 82.0364V84.9298C106.811 86.6776 105.394 88.0949 103.646 88.0949Z" fill="white" fill-opacity="0.87"/>
<defs>
<filter id="filter0_d" x="0.5" y="0" width="208" height="208" filterUnits="userSpaceOnUse" color-interpolation-filters="sRGB">
<feFlood flood-opacity="0" result="BackgroundImageFix"/>
<feColorMatrix in="SourceAlpha" type="matrix" values="0 0 0 0 0 0 0 0 0 0 0 0 0 0 0 0 0 0 127 0"/>
<feOffset dx="4" dy="4"/>
<feGaussianBlur stdDeviation="2"/>
<feColorMatrix type="matrix" values="0 0 0 0 0 0 0 0 0 0 0 0 0 0 0 0 0 0 0.25 0"/>
<feBlend mode="normal" in2="BackgroundImageFix" result="effect1_dropShadow"/>
<feBlend mode="normal" in="SourceGraphic" in2="effect1_dropShadow" result="shape"/>
</filter>
</defs>
</svg>
