<svg width="209" height="209" viewBox="0 0 209 209" fill="none" xmlns="http://www.w3.org/2000/svg">
<g filter="url(#filter0_d)">
<rect x="0.5" y="0.308594" width="200" height="200" rx="8" fill="#121212"/>
<rect x="0.5" y="0.308594" width="200" height="200" rx="8" fill="white" fill-opacity="0.08"/>
</g>
<path d="M33.543 177.13C32.841 177.13 32.1607 177.03 31.502 176.831C30.852 176.632 30.3363 176.367 29.955 176.038L30.54 174.725C30.9127 175.02 31.3677 175.262 31.905 175.453C32.451 175.635 32.997 175.726 33.543 175.726C34.219 175.726 34.7217 175.618 35.051 175.401C35.389 175.184 35.558 174.898 35.558 174.543C35.558 174.283 35.4627 174.071 35.272 173.906C35.09 173.733 34.856 173.598 34.57 173.503C34.284 173.408 33.894 173.299 33.4 173.178C32.7067 173.013 32.1433 172.849 31.71 172.684C31.2853 172.519 30.917 172.264 30.605 171.917C30.3017 171.562 30.15 171.085 30.15 170.487C30.15 169.984 30.2843 169.529 30.553 169.122C30.8303 168.706 31.242 168.377 31.788 168.134C32.3427 167.891 33.0187 167.77 33.816 167.77C34.3707 167.77 34.9167 167.839 35.454 167.978C35.9913 168.117 36.455 168.316 36.845 168.576L36.312 169.889C35.9133 169.655 35.4973 169.477 35.064 169.356C34.6307 169.235 34.2103 169.174 33.803 169.174C33.1357 169.174 32.6373 169.287 32.308 169.512C31.9873 169.737 31.827 170.036 31.827 170.409C31.827 170.669 31.918 170.881 32.1 171.046C32.2907 171.211 32.529 171.341 32.815 171.436C33.101 171.531 33.491 171.64 33.985 171.761C34.661 171.917 35.2157 172.082 35.649 172.255C36.0823 172.42 36.4507 172.675 36.754 173.022C37.066 173.369 37.222 173.837 37.222 174.426C37.222 174.929 37.0833 175.384 36.806 175.791C36.5373 176.198 36.1257 176.523 35.571 176.766C35.0163 177.009 34.3403 177.13 33.543 177.13ZM41.3668 169.33H38.3508V167.9H46.0728V169.33H43.0568V177H41.3668V169.33ZM54.9161 175.583V177H48.0911V167.9H54.7341V169.317H49.7811V171.683H54.1751V173.074H49.7811V175.583H54.9161ZM63.4521 174.894H58.9021L58.0051 177H56.2631L60.3581 167.9H62.0221L66.1301 177H64.3621L63.4521 174.894ZM62.8931 173.568L61.1771 169.59L59.4741 173.568H62.8931ZM76.3964 177L76.3834 170.968L73.3934 175.96H72.6394L69.6494 171.046V177H68.0374V167.9H69.4284L73.0424 173.932L76.5914 167.9H77.9824L77.9954 177H76.3964ZM92.3712 175.583V177H85.5462V167.9H92.1892V169.317H87.2362V171.683H91.6302V173.074H87.2362V175.583H92.3712ZM103.091 167.9V177H101.7L96.6822 170.838V177H95.0052V167.9H96.3962L101.414 174.062V167.9H103.091ZM112.494 172.346H114.093V175.973C113.625 176.346 113.079 176.632 112.455 176.831C111.831 177.03 111.189 177.13 110.531 177.13C109.603 177.13 108.767 176.931 108.022 176.532C107.276 176.125 106.691 175.566 106.267 174.855C105.842 174.144 105.63 173.343 105.63 172.45C105.63 171.557 105.842 170.756 106.267 170.045C106.691 169.334 107.276 168.78 108.022 168.381C108.776 167.974 109.621 167.77 110.557 167.77C111.319 167.77 112.013 167.896 112.637 168.147C113.261 168.398 113.785 168.767 114.21 169.252L113.144 170.292C112.45 169.599 111.614 169.252 110.635 169.252C109.993 169.252 109.421 169.386 108.919 169.655C108.425 169.924 108.035 170.301 107.749 170.786C107.471 171.271 107.333 171.826 107.333 172.45C107.333 173.057 107.471 173.603 107.749 174.088C108.035 174.573 108.425 174.955 108.919 175.232C109.421 175.509 109.989 175.648 110.622 175.648C111.332 175.648 111.956 175.492 112.494 175.18V172.346ZM117.072 167.9H118.762V177H117.072V167.9ZM130.059 167.9V177H128.668L123.65 170.838V177H121.973V167.9H123.364L128.382 174.062V167.9H130.059ZM140.072 175.583V177H133.247V167.9H139.89V169.317H134.937V171.683H139.331V173.074H134.937V175.583H140.072ZM149.154 172.268C149.657 172.433 150.056 172.71 150.35 173.1C150.645 173.481 150.792 173.958 150.792 174.53C150.792 175.319 150.489 175.93 149.882 176.363C149.276 176.788 148.392 177 147.23 177H142.706V167.9H146.97C148.045 167.9 148.873 168.112 149.453 168.537C150.034 168.953 150.324 169.529 150.324 170.266C150.324 170.717 150.22 171.115 150.012 171.462C149.804 171.809 149.518 172.077 149.154 172.268ZM144.396 169.226V171.735H146.788C147.378 171.735 147.828 171.631 148.14 171.423C148.461 171.206 148.621 170.894 148.621 170.487C148.621 170.071 148.461 169.759 148.14 169.551C147.828 169.334 147.378 169.226 146.788 169.226H144.396ZM147.126 175.674C148.435 175.674 149.089 175.236 149.089 174.361C149.089 173.486 148.435 173.048 147.126 173.048H144.396V175.674H147.126ZM159.248 174.894H154.698L153.801 177H152.059L156.154 167.9H157.818L161.926 177H160.158L159.248 174.894ZM158.689 173.568L156.973 169.59L155.27 173.568H158.689ZM167.213 173.789V177H165.523V173.815L161.948 167.9H163.755L166.42 172.333L169.111 167.9H170.775L167.213 173.789Z" fill="white" fill-opacity="0.87"/>
<path d="M100 29.3907C73.6485 29.3907 52.205 50.8296 52.205 77.1811C52.205 103.533 73.6485 124.972 100 124.972C126.352 124.972 147.79 103.533 147.79 77.1811C147.79 50.8296 126.352 29.3907 100 29.3907ZM100 127.181C72.4305 127.181 50 104.751 50 77.1811C50 49.6116 72.4305 27.1812 100 27.1812C127.569 27.1812 149.995 49.6116 149.995 77.1811C149.995 104.751 127.569 127.181 100 127.181Z" fill="white" fill-opacity="0.87"/>
<path d="M99.9949 33.9865C76.1789 33.9865 56.8001 53.3607 56.8001 77.1767C56.8001 100.993 76.1789 120.367 99.9949 120.367C123.811 120.367 143.185 100.993 143.185 77.1767C143.185 53.3607 123.811 33.9865 99.9949 33.9865ZM99.9949 121.35C75.6401 121.35 55.8221 101.532 55.8221 77.1767C55.8221 52.8219 75.6401 33.004 99.9949 33.004C124.35 33.004 144.168 52.8219 144.168 77.1767C144.168 101.532 124.35 121.35 99.9949 121.35Z" fill="white" fill-opacity="0.87"/>
<path d="M79.7647 44.0175L80.7202 61.736L95.6971 54.9249L80.8916 43.3038L79.7647 44.0175Z" fill="white" fill-opacity="0.87"/>
<path d="M91.1042 76.7611C91.1042 76.9604 90.9457 77.1188 90.751 77.1188C90.5563 77.1188 90.3933 76.9604 90.3933 76.7611C90.3933 76.5619 90.5563 76.3989 90.751 76.3989C90.9457 76.3989 91.1042 76.5619 91.1042 76.7611Z" fill="white" fill-opacity="0.87"/>
<path d="M103.04 80.3444C102.47 80.3444 102.003 80.8108 102.003 81.3813C102.003 81.9563 102.47 82.4181 103.04 82.4181C103.61 82.4181 104.077 81.9563 104.077 81.3813C104.077 80.8108 103.61 80.3444 103.04 80.3444ZM100.246 86.6652C98.3583 85.6645 97.0679 83.6678 97.0679 81.3813C97.0679 79.4706 97.9644 77.7636 99.3725 76.6724L94.6772 75.6401C94.7859 76.0023 94.8402 76.3781 94.8402 76.772C94.8402 79.0269 93.011 80.8651 90.7517 80.8651C90.5253 80.8651 90.3034 80.8425 90.0906 80.8108L91.4218 85.2389C92.0059 84.7862 92.7394 84.5145 93.5362 84.5145C95.447 84.5145 97 86.072 97 87.9828V87.9918L100.246 86.6652ZM93.5362 87.8062C93.4321 87.8062 93.3597 87.8831 93.3597 87.9828C93.3597 88.0778 93.4412 88.1639 93.5362 88.1639C93.6313 88.1639 93.7083 88.0778 93.7083 87.9828C93.7083 87.8831 93.6313 87.8062 93.5362 87.8062ZM103.04 80.3444C102.47 80.3444 102.003 80.8108 102.003 81.3813C102.003 81.9563 102.47 82.4181 103.04 82.4181C103.61 82.4181 104.077 81.9563 104.077 81.3813C104.077 80.8108 103.61 80.3444 103.04 80.3444ZM103.04 80.3444C102.47 80.3444 102.003 80.8108 102.003 81.3813C102.003 81.9563 102.47 82.4181 103.04 82.4181C103.61 82.4181 104.077 81.9563 104.077 81.3813C104.077 80.8108 103.61 80.3444 103.04 80.3444ZM100.246 86.6652C98.3583 85.6645 97.0679 83.6678 97.0679 81.3813C97.0679 79.4706 97.9644 77.7636 99.3725 76.6724L94.6772 75.6401C94.7859 76.0023 94.8402 76.3781 94.8402 76.772C94.8402 79.0269 93.011 80.8651 90.7517 80.8651C90.5253 80.8651 90.3034 80.8425 90.0906 80.8108L91.4218 85.2389C92.0059 84.7862 92.7394 84.5145 93.5362 84.5145C95.447 84.5145 97 86.072 97 87.9828V87.9918L100.246 86.6652ZM103.04 80.3444C102.47 80.3444 102.003 80.8108 102.003 81.3813C102.003 81.9563 102.47 82.4181 103.04 82.4181C103.61 82.4181 104.077 81.9563 104.077 81.3813C104.077 80.8108 103.61 80.3444 103.04 80.3444ZM103.04 80.3444C102.47 80.3444 102.003 80.8108 102.003 81.3813C102.003 81.9563 102.47 82.4181 103.04 82.4181C103.61 82.4181 104.077 81.9563 104.077 81.3813C104.077 80.8108 103.61 80.3444 103.04 80.3444ZM100.246 86.6652C98.3583 85.6645 97.0679 83.6678 97.0679 81.3813C97.0679 79.4706 97.9644 77.7636 99.3725 76.6724L94.6772 75.6401C94.7859 76.0023 94.8402 76.3781 94.8402 76.772C94.8402 79.0269 93.011 80.8651 90.7517 80.8651C90.5253 80.8651 90.3034 80.8425 90.0906 80.8108L91.4218 85.2389C92.0059 84.7862 92.7394 84.5145 93.5362 84.5145C95.447 84.5145 97 86.072 97 87.9828V87.9918L100.246 86.6652ZM93.5362 87.8062C93.4321 87.8062 93.3597 87.8831 93.3597 87.9828C93.3597 88.0778 93.4412 88.1639 93.5362 88.1639C93.6313 88.1639 93.7083 88.0778 93.7083 87.9828C93.7083 87.8831 93.6313 87.8062 93.5362 87.8062ZM100.246 86.6652C98.3583 85.6645 97.0679 83.6678 97.0679 81.3813C97.0679 79.4706 97.9644 77.7636 99.3725 76.6724L94.6772 75.6401C94.7859 76.0023 94.8402 76.3781 94.8402 76.772C94.8402 79.0269 93.011 80.8651 90.7517 80.8651C90.5253 80.8651 90.3034 80.8425 90.0906 80.8108L91.4218 85.2389C92.0059 84.7862 92.7394 84.5145 93.5362 84.5145C95.447 84.5145 97 86.072 97 87.9828V87.9918L100.246 86.6652ZM103.04 80.3444C102.47 80.3444 102.003 80.8108 102.003 81.3813C102.003 81.9563 102.47 82.4181 103.04 82.4181C103.61 82.4181 104.077 81.9563 104.077 81.3813C104.077 80.8108 103.61 80.3444 103.04 80.3444ZM103.04 80.3444C102.47 80.3444 102.003 80.8108 102.003 81.3813C102.003 81.9563 102.47 82.4181 103.04 82.4181C103.61 82.4181 104.077 81.9563 104.077 81.3813C104.077 80.8108 103.61 80.3444 103.04 80.3444ZM100.246 86.6652C98.3583 85.6645 97.0679 83.6678 97.0679 81.3813C97.0679 79.4706 97.9644 77.7636 99.3725 76.6724L94.6772 75.6401C94.7859 76.0023 94.8402 76.3781 94.8402 76.772C94.8402 79.0269 93.011 80.8651 90.7517 80.8651C90.5253 80.8651 90.3034 80.8425 90.0906 80.8108L91.4218 85.2389C92.0059 84.7862 92.7394 84.5145 93.5362 84.5145C95.447 84.5145 97 86.072 97 87.9828V87.9918L100.246 86.6652ZM93.5362 87.8062C93.4321 87.8062 93.3597 87.8831 93.3597 87.9828C93.3597 88.0778 93.4412 88.1639 93.5362 88.1639C93.6313 88.1639 93.7083 88.0778 93.7083 87.9828C93.7083 87.8831 93.6313 87.8062 93.5362 87.8062ZM93.5362 87.8062C93.4321 87.8062 93.3597 87.8831 93.3597 87.9828C93.3597 88.0778 93.4412 88.1639 93.5362 88.1639C93.6313 88.1639 93.7083 88.0778 93.7083 87.9828C93.7083 87.8831 93.6313 87.8062 93.5362 87.8062ZM100.246 86.6652C98.3583 85.6645 97.0679 83.6678 97.0679 81.3813C97.0679 79.4706 97.9644 77.7636 99.3725 76.6724L94.6772 75.6401C94.7859 76.0023 94.8402 76.3781 94.8402 76.772C94.8402 79.0269 93.011 80.8651 90.7517 80.8651C90.5253 80.8651 90.3034 80.8425 90.0906 80.8108L91.4218 85.2389C92.0059 84.7862 92.7394 84.5145 93.5362 84.5145C95.447 84.5145 97 86.072 97 87.9828V87.9918L100.246 86.6652ZM103.04 80.3444C102.47 80.3444 102.003 80.8108 102.003 81.3813C102.003 81.9563 102.47 82.4181 103.04 82.4181C103.61 82.4181 104.077 81.9563 104.077 81.3813C104.077 80.8108 103.61 80.3444 103.04 80.3444ZM93.3597 87.9828C93.3597 88.0778 93.4412 88.1639 93.5362 88.1639C93.6313 88.1639 93.7083 88.0778 93.7083 87.9828C93.7083 87.8831 93.6313 87.8062 93.5362 87.8062C93.4321 87.8062 93.3597 87.8831 93.3597 87.9828ZM90.7517 80.8651C90.5253 80.8651 90.3034 80.8425 90.0906 80.8108L91.4218 85.2389C92.0059 84.7862 92.7394 84.5145 93.5362 84.5145C95.447 84.5145 97 86.072 97 87.9828V87.9918L100.246 86.6652C98.3583 85.6645 97.0679 83.6678 97.0679 81.3813C97.0679 79.4706 97.9644 77.7636 99.3725 76.6724L94.6772 75.6401C94.7859 76.0023 94.8402 76.3781 94.8402 76.772C94.8402 79.0269 93.011 80.8651 90.7517 80.8651ZM104.077 81.3813C104.077 80.8108 103.61 80.3444 103.04 80.3444C102.47 80.3444 102.003 80.8108 102.003 81.3813C102.003 81.9563 102.47 82.4181 103.04 82.4181C103.61 82.4181 104.077 81.9563 104.077 81.3813ZM102.433 69.8536L101.867 69.4688L101.917 69.3963H93.98L94.0343 69.4688L93.3189 69.9623L88.841 73.0593L88.8862 73.1272C89.4477 72.8419 90.077 72.6789 90.7517 72.6789C91.381 72.6789 91.9787 72.8193 92.5039 73.0729L103.23 75.4137C106.44 75.5133 109.012 78.1485 109.012 81.3813C109.012 83.9078 107.446 86.072 105.222 86.9504L105.096 87.0002L102.556 87.9511L95.5737 90.7854C95.0032 91.2065 94.2924 91.451 93.5362 91.451C91.6255 91.451 90.068 89.8935 90.068 87.9828C90.068 87.942 90.068 87.9103 90.077 87.8696L87.4736 79.217C86.9574 78.5379 86.6541 77.6912 86.6541 76.772C86.6541 75.631 87.1204 74.6032 87.8765 73.8652L87.8177 73.7747L83.1722 76.9939L91.1501 97.3869H104.751L112.729 76.9984V76.9939L102.433 69.8536ZM103.04 80.3444C102.47 80.3444 102.003 80.8108 102.003 81.3813C102.003 81.9563 102.47 82.4181 103.04 82.4181C103.61 82.4181 104.077 81.9563 104.077 81.3813C104.077 80.8108 103.61 80.3444 103.04 80.3444ZM100.246 86.6652C98.3583 85.6645 97.0679 83.6678 97.0679 81.3813C97.0679 79.4706 97.9644 77.7636 99.3725 76.6724L94.6772 75.6401C94.7859 76.0023 94.8402 76.3781 94.8402 76.772C94.8402 79.0269 93.011 80.8651 90.7517 80.8651C90.5253 80.8651 90.3034 80.8425 90.0906 80.8108L91.4218 85.2389C92.0059 84.7862 92.7394 84.5145 93.5362 84.5145C95.447 84.5145 97 86.072 97 87.9828V87.9918L100.246 86.6652ZM93.5362 87.8062C93.4321 87.8062 93.3597 87.8831 93.3597 87.9828C93.3597 88.0778 93.4412 88.1639 93.5362 88.1639C93.6313 88.1639 93.7083 88.0778 93.7083 87.9828C93.7083 87.8831 93.6313 87.8062 93.5362 87.8062ZM93.5362 87.8062C93.4321 87.8062 93.3597 87.8831 93.3597 87.9828C93.3597 88.0778 93.4412 88.1639 93.5362 88.1639C93.6313 88.1639 93.7083 88.0778 93.7083 87.9828C93.7083 87.8831 93.6313 87.8062 93.5362 87.8062ZM100.246 86.6652C98.3583 85.6645 97.0679 83.6678 97.0679 81.3813C97.0679 79.4706 97.9644 77.7636 99.3725 76.6724L94.6772 75.6401C94.7859 76.0023 94.8402 76.3781 94.8402 76.772C94.8402 79.0269 93.011 80.8651 90.7517 80.8651C90.5253 80.8651 90.3034 80.8425 90.0906 80.8108L91.4218 85.2389C92.0059 84.7862 92.7394 84.5145 93.5362 84.5145C95.447 84.5145 97 86.072 97 87.9828V87.9918L100.246 86.6652ZM103.04 80.3444C102.47 80.3444 102.003 80.8108 102.003 81.3813C102.003 81.9563 102.47 82.4181 103.04 82.4181C103.61 82.4181 104.077 81.9563 104.077 81.3813C104.077 80.8108 103.61 80.3444 103.04 80.3444ZM103.04 80.3444C102.47 80.3444 102.003 80.8108 102.003 81.3813C102.003 81.9563 102.47 82.4181 103.04 82.4181C103.61 82.4181 104.077 81.9563 104.077 81.3813C104.077 80.8108 103.61 80.3444 103.04 80.3444ZM100.246 86.6652C98.3583 85.6645 97.0679 83.6678 97.0679 81.3813C97.0679 79.4706 97.9644 77.7636 99.3725 76.6724L94.6772 75.6401C94.7859 76.0023 94.8402 76.3781 94.8402 76.772C94.8402 79.0269 93.011 80.8651 90.7517 80.8651C90.5253 80.8651 90.3034 80.8425 90.0906 80.8108L91.4218 85.2389C92.0059 84.7862 92.7394 84.5145 93.5362 84.5145C95.447 84.5145 97 86.072 97 87.9828V87.9918L100.246 86.6652ZM93.5362 87.8062C93.4321 87.8062 93.3597 87.8831 93.3597 87.9828C93.3597 88.0778 93.4412 88.1639 93.5362 88.1639C93.6313 88.1639 93.7083 88.0778 93.7083 87.9828C93.7083 87.8831 93.6313 87.8062 93.5362 87.8062ZM93.5362 87.8062C93.4321 87.8062 93.3597 87.8831 93.3597 87.9828C93.3597 88.0778 93.4412 88.1639 93.5362 88.1639C93.6313 88.1639 93.7083 88.0778 93.7083 87.9828C93.7083 87.8831 93.6313 87.8062 93.5362 87.8062ZM100.246 86.6652C98.3583 85.6645 97.0679 83.6678 97.0679 81.3813C97.0679 79.4706 97.9644 77.7636 99.3725 76.6724L94.6772 75.6401C94.7859 76.0023 94.8402 76.3781 94.8402 76.772C94.8402 79.0269 93.011 80.8651 90.7517 80.8651C90.5253 80.8651 90.3034 80.8425 90.0906 80.8108L91.4218 85.2389C92.0059 84.7862 92.7394 84.5145 93.5362 84.5145C95.447 84.5145 97 86.072 97 87.9828V87.9918L100.246 86.6652ZM103.04 80.3444C102.47 80.3444 102.003 80.8108 102.003 81.3813C102.003 81.9563 102.47 82.4181 103.04 82.4181C103.61 82.4181 104.077 81.9563 104.077 81.3813C104.077 80.8108 103.61 80.3444 103.04 80.3444ZM103.04 80.3444C102.47 80.3444 102.003 80.8108 102.003 81.3813C102.003 81.9563 102.47 82.4181 103.04 82.4181C103.61 82.4181 104.077 81.9563 104.077 81.3813C104.077 80.8108 103.61 80.3444 103.04 80.3444ZM93.5362 87.8062C93.4321 87.8062 93.3597 87.8831 93.3597 87.9828C93.3597 88.0778 93.4412 88.1639 93.5362 88.1639C93.6313 88.1639 93.7083 88.0778 93.7083 87.9828C93.7083 87.8831 93.6313 87.8062 93.5362 87.8062ZM100.246 86.6652C98.3583 85.6645 97.0679 83.6678 97.0679 81.3813C97.0679 79.4706 97.9644 77.7636 99.3725 76.6724L94.6772 75.6401C94.7859 76.0023 94.8402 76.3781 94.8402 76.772C94.8402 79.0269 93.011 80.8651 90.7517 80.8651C90.5253 80.8651 90.3034 80.8425 90.0906 80.8108L91.4218 85.2389C92.0059 84.7862 92.7394 84.5145 93.5362 84.5145C95.447 84.5145 97 86.072 97 87.9828V87.9918L100.246 86.6652ZM103.04 80.3444C102.47 80.3444 102.003 80.8108 102.003 81.3813C102.003 81.9563 102.47 82.4181 103.04 82.4181C103.61 82.4181 104.077 81.9563 104.077 81.3813C104.077 80.8108 103.61 80.3444 103.04 80.3444ZM103.04 80.3444C102.47 80.3444 102.003 80.8108 102.003 81.3813C102.003 81.9563 102.47 82.4181 103.04 82.4181C103.61 82.4181 104.077 81.9563 104.077 81.3813C104.077 80.8108 103.61 80.3444 103.04 80.3444Z" fill="white" fill-opacity="0.87"/>
<path d="M102.296 87.3043L96.5815 89.627C96.7264 89.3599 96.8305 89.0746 96.903 88.7667V88.7577L101.132 87.0371C101.503 87.1684 101.893 87.2544 102.296 87.3043Z" fill="white" fill-opacity="0.87"/>
<path d="M101.25 75.6849C100.874 75.7981 100.516 75.9566 100.177 76.1513H100.172L94.3722 74.879C94.2183 74.5802 94.0281 74.304 93.8062 74.0595L101.25 75.6849Z" fill="white" fill-opacity="0.87"/>
<path d="M90.877 85.7546C90.6848 85.9845 90.5192 86.2424 90.4012 86.5193L88.4824 80.1505C88.7396 80.3261 89.0206 80.4768 89.3166 80.5818L90.877 85.7546Z" fill="white" fill-opacity="0.87"/>
<path d="M103.042 83.0962C102.096 83.0962 101.321 82.3264 101.321 81.3756C101.321 80.4248 102.096 79.6551 103.042 79.6551C103.988 79.6551 104.762 80.4248 104.762 81.3756C104.762 82.3264 103.988 83.0962 103.042 83.0962ZM103.042 76.0827C100.117 76.0827 97.7534 78.4552 97.7534 81.3756C97.7534 84.296 100.117 86.6731 103.042 86.6731C105.967 86.6731 108.33 84.296 108.33 81.3756C108.33 78.4552 105.967 76.0827 103.042 76.0827Z" fill="white" fill-opacity="0.87"/>
<path d="M90.7558 77.7948C90.1808 77.7948 89.7189 77.3284 89.7189 76.7579C89.7189 76.1874 90.1808 75.7165 90.7558 75.7165C91.3263 75.7165 91.7926 76.1874 91.7926 76.7579C91.7926 77.3284 91.3263 77.7948 90.7558 77.7948ZM90.7558 73.344C88.8677 73.344 87.3419 74.8744 87.3419 76.7579C87.3419 78.6415 88.8677 80.1628 90.7558 80.1628C92.6393 80.1628 94.1606 78.6415 94.1606 76.7579C94.1606 74.8744 92.6393 73.344 90.7558 73.344Z" fill="white" fill-opacity="0.87"/>
<path d="M93.543 88.8316C93.0676 88.8316 92.6827 88.4422 92.6827 87.9713C92.6827 87.4959 93.0676 87.1111 93.543 87.1111C94.0139 87.1111 94.3942 87.4959 94.3942 87.9713C94.3942 88.4422 94.0139 88.8316 93.543 88.8316ZM93.543 85.1868C92.0036 85.1868 90.7584 86.4364 90.7584 87.9713C90.7584 89.5063 92.0036 90.7559 93.543 90.7559C95.0779 90.7559 96.3231 89.5063 96.3231 87.9713C96.3231 86.4364 95.0779 85.1868 93.543 85.1868Z" fill="white" fill-opacity="0.87"/>
<path d="M106.39 66.4119H105.865V62.3777H106.39V66.4119ZM105.43 66.4119H104.905V62.3777H105.43V66.4119ZM104.47 66.4119H103.945V62.3777H104.47V66.4119ZM103.51 66.4119H102.985V62.3777H103.51V66.4119ZM102.546 66.4119H102.021V62.3777H102.546V66.4119ZM101.59 66.4119H101.056V62.3777H101.59V66.4119ZM100.631 66.4119H100.105V62.3777H100.631V66.4119ZM99.6662 66.4119H99.1409V62.3777H99.6662V66.4119ZM98.7017 66.4119H98.1765V62.3777H98.7017V66.4119ZM97.7464 66.4119H97.2121V62.3777H97.7464V66.4119ZM96.782 66.4119H96.2567V62.3777H96.782V66.4119ZM95.8221 66.4119H95.2969V62.3777H95.8221V66.4119ZM94.8577 66.4119H94.3325V62.3777H94.8577V66.4119ZM93.9023 66.4119H93.3771V62.3777H93.9023V66.4119ZM92.9425 66.4119H92.4172V62.3777H92.9425V66.4119ZM91.978 66.4119H91.4528V62.3777H91.978V66.4119ZM91.0227 66.4119H90.4884V62.3777H91.0227V66.4119ZM90.0628 66.4119H89.5376V62.3777H90.0628V66.4119ZM89.1301 66.815H106.766V61.9203H89.1301V66.815Z" fill="white" fill-opacity="0.87"/>
<path d="M93.4257 67.3483H102.49V68.6569H93.4257V67.3483Z" fill="white" fill-opacity="0.87"/>
<path d="M93.0857 69.2769L92.9363 69.3765L78.8097 79.1836L78.3026 79.5322L76.5639 77.0057C75.7037 75.7561 76.0161 74.0536 77.2612 73.2024L87.5754 66.0938C87.8471 65.9037 88.1505 65.7724 88.4493 65.6954V67.4793H91.8496L93.0857 69.2769Z" fill="white" fill-opacity="0.87"/>
<path d="M85.4953 84.7885H82.5251C81.7192 84.7885 81.4203 83.8965 81.4203 83.8965L79.1384 79.7853L82.593 77.3901L85.4953 84.7885Z" fill="white" fill-opacity="0.87"/>
<path d="M119.345 77.0258L117.602 79.5523L102.973 69.401L102.823 69.2969L104.06 67.4994H107.46V65.72C107.759 65.7969 108.062 65.9237 108.334 66.1139L118.648 73.2225C119.893 74.0782 120.205 75.7761 119.345 77.0258Z" fill="white" fill-opacity="0.87"/>
<path d="M116.759 79.7853L114.486 83.8874C114.486 83.8874 114.182 84.7839 113.376 84.7839H110.411L113.304 77.3901L116.759 79.7853Z" fill="white" fill-opacity="0.87"/>
<path d="M76.4743 53.4024C72.1594 53.4024 68.6458 56.9114 68.6458 61.2309V94.1794C68.6458 98.4943 72.1594 102.003 76.4743 102.003H120.982C125.297 102.003 128.811 98.4943 128.811 94.1794V61.2309C128.811 56.9114 125.297 53.4024 120.982 53.4024H76.4743ZM120.982 104.267H76.4743C70.9097 104.267 66.382 99.7394 66.382 94.1794V61.2309C66.382 55.6663 70.9097 51.1385 76.4743 51.1385H120.982C126.547 51.1385 131.075 55.6663 131.075 61.2309V94.1794C131.075 99.7394 126.547 104.267 120.982 104.267Z" fill="white" fill-opacity="0.87"/>
<defs>
<filter id="filter0_d" x="0.5" y="0.308594" width="208" height="208" filterUnits="userSpaceOnUse" color-interpolation-filters="sRGB">
<feFlood flood-opacity="0" result="BackgroundImageFix"/>
<feColorMatrix in="SourceAlpha" type="matrix" values="0 0 0 0 0 0 0 0 0 0 0 0 0 0 0 0 0 0 127 0"/>
<feOffset dx="4" dy="4"/>
<feGaussianBlur stdDeviation="2"/>
<feColorMatrix type="matrix" values="0 0 0 0 0 0 0 0 0 0 0 0 0 0 0 0 0 0 0.25 0"/>
<feBlend mode="normal" in2="BackgroundImageFix" result="effect1_dropShadow"/>
<feBlend mode="normal" in="SourceGraphic" in2="effect1_dropShadow" result="shape"/>
</filter>
</defs>
</svg>
