<svg width="209" height="208" viewBox="0 0 209 208" fill="none" xmlns="http://www.w3.org/2000/svg">
<g filter="url(#filter0_d)">
<rect x="0.5" width="200" height="200" rx="8" fill="#121212"/>
<rect x="0.5" width="200" height="200" rx="8" fill="white" fill-opacity="0.08"/>
</g>
<path d="M180.632 181.141H174.487V185.998C174.487 186.532 173.934 186.969 173.258 186.969C172.583 186.969 172.03 186.532 172.03 185.998V181.141H165.885C165.209 181.141 164.656 180.704 164.656 180.17C164.656 179.636 165.209 179.199 165.885 179.199H172.03V174.342C172.03 173.808 172.583 173.371 173.258 173.371C173.934 173.371 174.487 173.808 174.487 174.342V179.199H180.632C181.308 179.199 181.861 179.636 181.861 180.17C181.861 180.704 181.308 181.141 180.632 181.141Z" fill="#121212"/>
<path d="M180.632 181.141H174.487V185.998C174.487 186.532 173.934 186.969 173.258 186.969C172.583 186.969 172.03 186.532 172.03 185.998V181.141H165.885C165.209 181.141 164.656 180.704 164.656 180.17C164.656 179.636 165.209 179.199 165.885 179.199H172.03V174.342C172.03 173.808 172.583 173.371 173.258 173.371C173.934 173.371 174.487 173.808 174.487 174.342V179.199H180.632C181.308 179.199 181.861 179.636 181.861 180.17C181.861 180.704 181.308 181.141 180.632 181.141Z" fill="white" fill-opacity="0.08"/>
<path d="M56.7329 179.13C56.0309 179.13 55.3506 179.03 54.6919 178.831C54.0419 178.632 53.5263 178.367 53.1449 178.038L53.7299 176.725C54.1026 177.02 54.5576 177.262 55.0949 177.453C55.6409 177.635 56.1869 177.726 56.7329 177.726C57.4089 177.726 57.9116 177.618 58.2409 177.401C58.5789 177.184 58.7479 176.898 58.7479 176.543C58.7479 176.283 58.6526 176.071 58.4619 175.906C58.2799 175.733 58.0459 175.598 57.7599 175.503C57.4739 175.408 57.0839 175.299 56.5899 175.178C55.8966 175.013 55.3333 174.849 54.8999 174.684C54.4753 174.519 54.1069 174.264 53.7949 173.917C53.4916 173.562 53.3399 173.085 53.3399 172.487C53.3399 171.984 53.4743 171.529 53.7429 171.122C54.0203 170.706 54.4319 170.377 54.9779 170.134C55.5326 169.891 56.2086 169.77 57.0059 169.77C57.5606 169.77 58.1066 169.839 58.6439 169.978C59.1813 170.117 59.6449 170.316 60.0349 170.576L59.5019 171.889C59.1033 171.655 58.6873 171.477 58.2539 171.356C57.8206 171.235 57.4003 171.174 56.9929 171.174C56.3256 171.174 55.8273 171.287 55.4979 171.512C55.1773 171.737 55.0169 172.036 55.0169 172.409C55.0169 172.669 55.1079 172.881 55.2899 173.046C55.4806 173.211 55.7189 173.341 56.0049 173.436C56.2909 173.531 56.6809 173.64 57.1749 173.761C57.8509 173.917 58.4056 174.082 58.8389 174.255C59.2723 174.42 59.6406 174.675 59.9439 175.022C60.2559 175.369 60.4119 175.837 60.4119 176.426C60.4119 176.929 60.2733 177.384 59.9959 177.791C59.7273 178.198 59.3156 178.523 58.7609 178.766C58.2063 179.009 57.5303 179.13 56.7329 179.13ZM64.5568 171.33H61.5408V169.9H69.2628V171.33H66.2468V179H64.5568V171.33ZM78.1061 177.583V179H71.2811V169.9H77.9241V171.317H72.9711V173.683H77.3651V175.074H72.9711V177.583H78.1061ZM86.6421 176.894H82.0921L81.1951 179H79.4531L83.5481 169.9H85.2121L89.3201 179H87.5521L86.6421 176.894ZM86.0831 175.568L84.3671 171.59L82.6641 175.568H86.0831ZM99.5864 179L99.5734 172.968L96.5834 177.96H95.8294L92.8394 173.046V179H91.2274V169.9H92.6184L96.2324 175.932L99.7814 169.9H101.172L101.185 179H99.5864ZM108.736 169.9H110.426V177.57H115.184V179H108.736V169.9ZM121.354 179.13C120.427 179.13 119.591 178.931 118.845 178.532C118.1 178.125 117.515 177.566 117.09 176.855C116.666 176.136 116.453 175.334 116.453 174.45C116.453 173.566 116.666 172.769 117.09 172.058C117.515 171.339 118.1 170.78 118.845 170.381C119.591 169.974 120.427 169.77 121.354 169.77C122.282 169.77 123.118 169.974 123.863 170.381C124.609 170.78 125.194 171.334 125.618 172.045C126.043 172.756 126.255 173.557 126.255 174.45C126.255 175.343 126.043 176.144 125.618 176.855C125.194 177.566 124.609 178.125 123.863 178.532C123.118 178.931 122.282 179.13 121.354 179.13ZM121.354 177.648C121.961 177.648 122.507 177.514 122.992 177.245C123.478 176.968 123.859 176.586 124.136 176.101C124.414 175.607 124.552 175.057 124.552 174.45C124.552 173.843 124.414 173.297 124.136 172.812C123.859 172.318 123.478 171.937 122.992 171.668C122.507 171.391 121.961 171.252 121.354 171.252C120.748 171.252 120.202 171.391 119.716 171.668C119.231 171.937 118.85 172.318 118.572 172.812C118.295 173.297 118.156 173.843 118.156 174.45C118.156 175.057 118.295 175.607 118.572 176.101C118.85 176.586 119.231 176.968 119.716 177.245C120.202 177.514 120.748 177.648 121.354 177.648ZM135.011 174.346H136.61V177.973C136.142 178.346 135.596 178.632 134.972 178.831C134.348 179.03 133.706 179.13 133.048 179.13C132.12 179.13 131.284 178.931 130.539 178.532C129.793 178.125 129.208 177.566 128.784 176.855C128.359 176.144 128.147 175.343 128.147 174.45C128.147 173.557 128.359 172.756 128.784 172.045C129.208 171.334 129.793 170.78 130.539 170.381C131.293 169.974 132.138 169.77 133.074 169.77C133.836 169.77 134.53 169.896 135.154 170.147C135.778 170.398 136.302 170.767 136.727 171.252L135.661 172.292C134.967 171.599 134.131 171.252 133.152 171.252C132.51 171.252 131.938 171.386 131.436 171.655C130.942 171.924 130.552 172.301 130.266 172.786C129.988 173.271 129.85 173.826 129.85 174.45C129.85 175.057 129.988 175.603 130.266 176.088C130.552 176.573 130.942 176.955 131.436 177.232C131.938 177.509 132.506 177.648 133.139 177.648C133.849 177.648 134.473 177.492 135.011 177.18V174.346ZM143.84 179.13C142.912 179.13 142.076 178.931 141.331 178.532C140.585 178.125 140 177.566 139.576 176.855C139.151 176.136 138.939 175.334 138.939 174.45C138.939 173.566 139.151 172.769 139.576 172.058C140 171.339 140.585 170.78 141.331 170.381C142.076 169.974 142.912 169.77 143.84 169.77C144.767 169.77 145.603 169.974 146.349 170.381C147.094 170.78 147.679 171.334 148.104 172.045C148.528 172.756 148.741 173.557 148.741 174.45C148.741 175.343 148.528 176.144 148.104 176.855C147.679 177.566 147.094 178.125 146.349 178.532C145.603 178.931 144.767 179.13 143.84 179.13ZM143.84 177.648C144.446 177.648 144.992 177.514 145.478 177.245C145.963 176.968 146.344 176.586 146.622 176.101C146.899 175.607 147.038 175.057 147.038 174.45C147.038 173.843 146.899 173.297 146.622 172.812C146.344 172.318 145.963 171.937 145.478 171.668C144.992 171.391 144.446 171.252 143.84 171.252C143.233 171.252 142.687 171.391 142.202 171.668C141.716 171.937 141.335 172.318 141.058 172.812C140.78 173.297 140.642 173.843 140.642 174.45C140.642 175.057 140.78 175.607 141.058 176.101C141.335 176.586 141.716 176.968 142.202 177.245C142.687 177.514 143.233 177.648 143.84 177.648Z" fill="white" fill-opacity="0.87"/>
<path d="M99 23.2051C72.6461 23.2051 51.2052 44.645 51.2052 71.0022C51.2052 97.3504 72.6461 118.795 99 118.795C125.354 118.795 146.795 97.3504 146.795 71.0022C146.795 44.645 125.354 23.2051 99 23.2051ZM99 121C71.428 121 49 98.573 49 71.0022C49 43.427 71.428 21 99 21C126.572 21 149 43.427 149 71.0022C149 98.573 126.572 121 99 121Z" fill="white" fill-opacity="0.87"/>
<path d="M98.9995 27.8055C75.1814 27.8055 55.8053 47.1807 55.8053 70.9977C55.8053 94.8148 75.1814 114.194 98.9995 114.194C122.818 114.194 142.194 94.8148 142.194 70.9977C142.194 47.1807 122.818 27.8055 98.9995 27.8055ZM98.9995 115.172C74.6425 115.172 54.8227 95.3536 54.8227 70.9977C54.8227 46.6418 74.6425 26.8229 98.9995 26.8229C123.357 26.8229 143.176 46.6418 143.176 70.9977C143.176 95.3536 123.357 115.172 98.9995 115.172Z" fill="white" fill-opacity="0.87"/>
<path d="M75.8166 43.1817L81.0643 60.1332L93.9294 49.8751L76.7311 42.2161L75.8166 43.1817Z" fill="white" fill-opacity="0.87"/>
<path d="M100.878 79.6283C101.312 79.6283 101.743 79.7596 102.114 80.0268L112.75 87.7515L108.689 75.2634C108.413 74.403 108.707 73.4567 109.431 72.9088L120.086 65.1705H106.95C106.031 65.1705 105.216 64.5774 104.935 63.6989L101.398 52.8228C101.195 52.1889 100.561 52.1843 100.352 52.8183L96.8159 63.6989C96.5306 64.5774 95.7201 65.1705 94.7963 65.1705H81.6646L92.2877 72.8862C93.0394 73.4476 93.3428 74.3985 93.0575 75.2634L89.0003 87.7515L99.6279 80.0313C100.004 79.7596 100.443 79.6283 100.878 79.6283ZM86.5822 93.2077C86.1475 93.2077 85.7128 93.0718 85.337 92.8001C84.5898 92.2613 84.2774 91.3104 84.5581 90.432L89.5482 75.0913L76.5025 65.6143C75.7554 65.0709 75.4429 64.1155 75.7282 63.2416C76.0135 62.3632 76.824 61.7746 77.7478 61.7746H93.8726L97.1238 51.7723C97.6581 50.1151 99.1298 49.0419 100.873 49.0419H100.878C102.616 49.0419 104.088 50.1105 104.631 51.7723L107.878 61.7746H124.003C124.927 61.7746 125.737 62.3632 126.023 63.2416C126.308 64.12 125.991 65.0754 125.244 65.6143L112.203 75.0913L117.188 90.423C117.478 91.2968 117.165 92.2522 116.418 92.7956C115.676 93.3435 114.661 93.339 113.919 92.8001L100.878 83.3231L87.832 92.8001C87.4607 93.0718 87.0215 93.2077 86.5822 93.2077Z" fill="white" fill-opacity="0.87"/>
<defs>
<filter id="filter0_d" x="0.5" y="0" width="208" height="208" filterUnits="userSpaceOnUse" color-interpolation-filters="sRGB">
<feFlood flood-opacity="0" result="BackgroundImageFix"/>
<feColorMatrix in="SourceAlpha" type="matrix" values="0 0 0 0 0 0 0 0 0 0 0 0 0 0 0 0 0 0 127 0"/>
<feOffset dx="4" dy="4"/>
<feGaussianBlur stdDeviation="2"/>
<feColorMatrix type="matrix" values="0 0 0 0 0 0 0 0 0 0 0 0 0 0 0 0 0 0 0.25 0"/>
<feBlend mode="normal" in2="BackgroundImageFix" result="effect1_dropShadow"/>
<feBlend mode="normal" in="SourceGraphic" in2="effect1_dropShadow" result="shape"/>
</filter>
</defs>
</svg>
