<svg width="209" height="209" viewBox="0 0 209 209" fill="none" xmlns="http://www.w3.org/2000/svg">
<g filter="url(#filter0_d)">
<rect x="0.5" y="0.308594" width="200" height="200" rx="8" fill="#121212"/>
<rect x="0.5" y="0.308594" width="200" height="200" rx="8" fill="white" fill-opacity="0.08"/>
</g>
<path d="M54.043 179.13C53.341 179.13 52.6607 179.03 52.002 178.831C51.352 178.632 50.8363 178.367 50.455 178.038L51.04 176.725C51.4127 177.02 51.8677 177.262 52.405 177.453C52.951 177.635 53.497 177.726 54.043 177.726C54.719 177.726 55.2217 177.618 55.551 177.401C55.889 177.184 56.058 176.898 56.058 176.543C56.058 176.283 55.9627 176.071 55.772 175.906C55.59 175.733 55.356 175.598 55.07 175.503C54.784 175.408 54.394 175.299 53.9 175.178C53.2067 175.013 52.6433 174.849 52.21 174.684C51.7853 174.519 51.417 174.264 51.105 173.917C50.8017 173.562 50.65 173.085 50.65 172.487C50.65 171.984 50.7843 171.529 51.053 171.122C51.3303 170.706 51.742 170.377 52.288 170.134C52.8427 169.891 53.5187 169.77 54.316 169.77C54.8707 169.77 55.4167 169.839 55.954 169.978C56.4913 170.117 56.955 170.316 57.345 170.576L56.812 171.889C56.4133 171.655 55.9973 171.477 55.564 171.356C55.1307 171.235 54.7103 171.174 54.303 171.174C53.6357 171.174 53.1373 171.287 52.808 171.512C52.4873 171.737 52.327 172.036 52.327 172.409C52.327 172.669 52.418 172.881 52.6 173.046C52.7907 173.211 53.029 173.341 53.315 173.436C53.601 173.531 53.991 173.64 54.485 173.761C55.161 173.917 55.7157 174.082 56.149 174.255C56.5823 174.42 56.9507 174.675 57.254 175.022C57.566 175.369 57.722 175.837 57.722 176.426C57.722 176.929 57.5833 177.384 57.306 177.791C57.0373 178.198 56.6257 178.523 56.071 178.766C55.5163 179.009 54.8403 179.13 54.043 179.13ZM61.8668 171.33H58.8508V169.9H66.5728V171.33H63.5568V179H61.8668V171.33ZM75.4161 177.583V179H68.5911V169.9H75.2341V171.317H70.2811V173.683H74.6751V175.074H70.2811V177.583H75.4161ZM83.9521 176.894H79.4021L78.5051 179H76.7631L80.8581 169.9H82.5221L86.6301 179H84.8621L83.9521 176.894ZM83.3931 175.568L81.6771 171.59L79.9741 175.568H83.3931ZM96.8964 179L96.8834 172.968L93.8934 177.96H93.1394L90.1494 173.046V179H88.5374V169.9H89.9284L93.5424 175.932L97.0914 169.9H98.4824L98.4954 179H96.8964ZM114.405 179L114.392 172.968L111.402 177.96H110.648L107.658 173.046V179H106.046V169.9H107.437L111.051 175.932L114.6 169.9H115.991L116.004 179H114.405ZM123.463 179.13C122.536 179.13 121.7 178.931 120.954 178.532C120.209 178.125 119.624 177.566 119.199 176.855C118.775 176.136 118.562 175.334 118.562 174.45C118.562 173.566 118.775 172.769 119.199 172.058C119.624 171.339 120.209 170.78 120.954 170.381C121.7 169.974 122.536 169.77 123.463 169.77C124.391 169.77 125.227 169.974 125.972 170.381C126.718 170.78 127.303 171.334 127.727 172.045C128.152 172.756 128.364 173.557 128.364 174.45C128.364 175.343 128.152 176.144 127.727 176.855C127.303 177.566 126.718 178.125 125.972 178.532C125.227 178.931 124.391 179.13 123.463 179.13ZM123.463 177.648C124.07 177.648 124.616 177.514 125.101 177.245C125.587 176.968 125.968 176.586 126.245 176.101C126.523 175.607 126.661 175.057 126.661 174.45C126.661 173.843 126.523 173.297 126.245 172.812C125.968 172.318 125.587 171.937 125.101 171.668C124.616 171.391 124.07 171.252 123.463 171.252C122.857 171.252 122.311 171.391 121.825 171.668C121.34 171.937 120.959 172.318 120.681 172.812C120.404 173.297 120.265 173.843 120.265 174.45C120.265 175.057 120.404 175.607 120.681 176.101C120.959 176.586 121.34 176.968 121.825 177.245C122.311 177.514 122.857 177.648 123.463 177.648ZM132.625 171.33H129.609V169.9H137.331V171.33H134.315V179H132.625V171.33ZM143.473 179.13C142.546 179.13 141.709 178.931 140.964 178.532C140.219 178.125 139.634 177.566 139.209 176.855C138.784 176.136 138.572 175.334 138.572 174.45C138.572 173.566 138.784 172.769 139.209 172.058C139.634 171.339 140.219 170.78 140.964 170.381C141.709 169.974 142.546 169.77 143.473 169.77C144.4 169.77 145.237 169.974 145.982 170.381C146.727 170.78 147.312 171.334 147.737 172.045C148.162 172.756 148.374 173.557 148.374 174.45C148.374 175.343 148.162 176.144 147.737 176.855C147.312 177.566 146.727 178.125 145.982 178.532C145.237 178.931 144.4 179.13 143.473 179.13ZM143.473 177.648C144.08 177.648 144.626 177.514 145.111 177.245C145.596 176.968 145.978 176.586 146.255 176.101C146.532 175.607 146.671 175.057 146.671 174.45C146.671 173.843 146.532 173.297 146.255 172.812C145.978 172.318 145.596 171.937 145.111 171.668C144.626 171.391 144.08 171.252 143.473 171.252C142.866 171.252 142.32 171.391 141.835 171.668C141.35 171.937 140.968 172.318 140.691 172.812C140.414 173.297 140.275 173.843 140.275 174.45C140.275 175.057 140.414 175.607 140.691 176.101C140.968 176.586 141.35 176.968 141.835 177.245C142.32 177.514 142.866 177.648 143.473 177.648Z" fill="white" fill-opacity="0.87"/>
<path d="M99.9977 31.2051C73.645 31.2051 52.2051 52.645 52.2051 79.0023C52.2051 105.355 73.645 126.79 99.9977 126.79C126.35 126.79 147.795 105.355 147.795 79.0023C147.795 52.645 126.35 31.2051 99.9977 31.2051ZM99.9977 129C72.427 129 50 106.573 50 79.0023C50 51.4315 72.427 29 99.9977 29C127.568 29 150 51.4315 150 79.0023C150 106.573 127.568 129 99.9977 129Z" fill="white" fill-opacity="0.87"/>
<path d="M99.9972 35.8044C76.1802 35.8044 56.805 55.1796 56.805 79.0012C56.805 102.818 76.1802 122.193 99.9972 122.193C123.814 122.193 143.194 102.818 143.194 79.0012C143.194 55.1796 123.814 35.8044 99.9972 35.8044ZM99.9972 123.176C75.6413 123.176 55.8225 103.357 55.8225 79.0012C55.8225 54.6407 75.6413 34.8264 99.9972 34.8264C124.353 34.8264 144.172 54.6407 144.172 79.0012C144.172 103.357 124.353 123.176 99.9972 123.176Z" fill="white" fill-opacity="0.87"/>
<path d="M75.4241 48.1413L76.3795 65.8607L91.3569 59.0448L76.5464 47.4278L75.4241 48.1413Z" fill="white" fill-opacity="0.87"/>
<path d="M82.0675 80.251C78.2504 80.251 75.1488 83.3571 75.1488 87.1697C75.1488 90.9822 78.2504 94.0929 82.0675 94.0929C85.8846 94.0929 88.9862 90.9822 88.9862 87.1697C88.9862 83.3571 85.8846 80.251 82.0675 80.251ZM82.0675 95.6324C77.3992 95.6324 73.6002 91.838 73.6002 87.1697C73.6002 82.5014 77.3992 78.7024 82.0675 78.7024C86.7313 78.7024 90.5303 82.5014 90.5303 87.1697C90.5303 91.838 86.7313 95.6324 82.0675 95.6324Z" fill="white" fill-opacity="0.87"/>
<path d="M118.153 80.251C114.34 80.251 111.234 83.3571 111.234 87.1697C111.234 90.9822 114.34 94.0929 118.153 94.0929C121.965 94.0929 125.071 90.9822 125.071 87.1697C125.071 83.3571 121.965 80.251 118.153 80.251ZM118.153 95.6324C113.484 95.6324 109.685 91.838 109.685 87.1697C109.685 82.5014 113.484 78.7024 118.153 78.7024C122.821 78.7024 126.615 82.5014 126.615 87.1697C126.615 91.838 122.821 95.6324 118.153 95.6324Z" fill="white" fill-opacity="0.87"/>
<path d="M87.2408 73.2686L80.0277 78.1814L83.469 84.0089L82.2917 90.1171L105.919 89.7232L103.188 83.1758L115.409 72.0189L91.5423 75.9627L87.2408 73.2686Z" fill="white" fill-opacity="0.87"/>
<path d="M82.5385 89.3473L105.296 88.9398L102.489 82.732L112.419 73.2912L91.2096 76.8003L89.1448 74.1696L80.8043 78.6568L86.7722 83.4564L82.5385 89.3473ZM106.528 90.5065L82.0269 90.8868L82.697 84.4073L79.2376 77.7105L87.4514 72.295L91.8616 75.1205L118.377 70.7419L103.87 83.624L106.528 90.5065Z" fill="white" fill-opacity="0.87"/>
<defs>
<filter id="filter0_d" x="0.5" y="0.308594" width="208" height="208" filterUnits="userSpaceOnUse" color-interpolation-filters="sRGB">
<feFlood flood-opacity="0" result="BackgroundImageFix"/>
<feColorMatrix in="SourceAlpha" type="matrix" values="0 0 0 0 0 0 0 0 0 0 0 0 0 0 0 0 0 0 127 0"/>
<feOffset dx="4" dy="4"/>
<feGaussianBlur stdDeviation="2"/>
<feColorMatrix type="matrix" values="0 0 0 0 0 0 0 0 0 0 0 0 0 0 0 0 0 0 0.25 0"/>
<feBlend mode="normal" in2="BackgroundImageFix" result="effect1_dropShadow"/>
<feBlend mode="normal" in="SourceGraphic" in2="effect1_dropShadow" result="shape"/>
</filter>
</defs>
</svg>
