<svg width="209" height="209" viewBox="0 0 209 209" fill="none" xmlns="http://www.w3.org/2000/svg">
<g filter="url(#filter0_d)">
<rect x="0.5" y="0.308594" width="200" height="200" rx="8" fill="#121212"/>
<rect x="0.5" y="0.308594" width="200" height="200" rx="8" fill="white" fill-opacity="0.08"/>
</g>
<path d="M47.043 177.13C46.341 177.13 45.6607 177.03 45.002 176.831C44.352 176.632 43.8363 176.367 43.455 176.038L44.04 174.725C44.4127 175.02 44.8677 175.262 45.405 175.453C45.951 175.635 46.497 175.726 47.043 175.726C47.719 175.726 48.2217 175.618 48.551 175.401C48.889 175.184 49.058 174.898 49.058 174.543C49.058 174.283 48.9627 174.071 48.772 173.906C48.59 173.733 48.356 173.598 48.07 173.503C47.784 173.408 47.394 173.299 46.9 173.178C46.2067 173.013 45.6433 172.849 45.21 172.684C44.7853 172.519 44.417 172.264 44.105 171.917C43.8017 171.562 43.65 171.085 43.65 170.487C43.65 169.984 43.7843 169.529 44.053 169.122C44.3303 168.706 44.742 168.377 45.288 168.134C45.8427 167.891 46.5187 167.77 47.316 167.77C47.8707 167.77 48.4167 167.839 48.954 167.978C49.4913 168.117 49.955 168.316 50.345 168.576L49.812 169.889C49.4133 169.655 48.9973 169.477 48.564 169.356C48.1307 169.235 47.7103 169.174 47.303 169.174C46.6357 169.174 46.1373 169.287 45.808 169.512C45.4873 169.737 45.327 170.036 45.327 170.409C45.327 170.669 45.418 170.881 45.6 171.046C45.7907 171.211 46.029 171.341 46.315 171.436C46.601 171.531 46.991 171.64 47.485 171.761C48.161 171.917 48.7157 172.082 49.149 172.255C49.5823 172.42 49.9507 172.675 50.254 173.022C50.566 173.369 50.722 173.837 50.722 174.426C50.722 174.929 50.5833 175.384 50.306 175.791C50.0373 176.198 49.6257 176.523 49.071 176.766C48.5163 177.009 47.8403 177.13 47.043 177.13ZM54.8668 169.33H51.8508V167.9H59.5728V169.33H56.5568V177H54.8668V169.33ZM68.4161 175.583V177H61.5911V167.9H68.2341V169.317H63.2811V171.683H67.6751V173.074H63.2811V175.583H68.4161ZM76.9521 174.894H72.4021L71.5051 177H69.7631L73.8581 167.9H75.5221L79.6301 177H77.8621L76.9521 174.894ZM76.3931 173.568L74.6771 169.59L72.9741 173.568H76.3931ZM89.8964 177L89.8834 170.968L86.8934 175.96H86.1394L83.1494 171.046V177H81.5374V167.9H82.9284L86.5424 173.932L90.0914 167.9H91.4824L91.4954 177H89.8964ZM105.494 172.268C105.997 172.433 106.396 172.71 106.69 173.1C106.985 173.481 107.132 173.958 107.132 174.53C107.132 175.319 106.829 175.93 106.222 176.363C105.616 176.788 104.732 177 103.57 177H99.0462V167.9H103.31C104.385 167.9 105.213 168.112 105.793 168.537C106.374 168.953 106.664 169.529 106.664 170.266C106.664 170.717 106.56 171.115 106.352 171.462C106.144 171.809 105.858 172.077 105.494 172.268ZM100.736 169.226V171.735H103.128C103.718 171.735 104.168 171.631 104.48 171.423C104.801 171.206 104.961 170.894 104.961 170.487C104.961 170.071 104.801 169.759 104.48 169.551C104.168 169.334 103.718 169.226 103.128 169.226H100.736ZM103.466 175.674C104.775 175.674 105.429 175.236 105.429 174.361C105.429 173.486 104.775 173.048 103.466 173.048H100.736V175.674H103.466ZM115.64 177L113.781 174.335C113.703 174.344 113.586 174.348 113.43 174.348H111.376V177H109.686V167.9H113.43C114.219 167.9 114.903 168.03 115.484 168.29C116.073 168.55 116.524 168.923 116.836 169.408C117.148 169.893 117.304 170.47 117.304 171.137C117.304 171.822 117.135 172.411 116.797 172.905C116.468 173.399 115.991 173.767 115.367 174.01L117.46 177H115.64ZM115.601 171.137C115.601 170.556 115.41 170.11 115.029 169.798C114.648 169.486 114.089 169.33 113.352 169.33H111.376V172.957H113.352C114.089 172.957 114.648 172.801 115.029 172.489C115.41 172.168 115.601 171.718 115.601 171.137ZM125.847 174.894H121.297L120.4 177H118.658L122.753 167.9H124.417L128.525 177H126.757L125.847 174.894ZM125.288 173.568L123.572 169.59L121.869 173.568H125.288ZM133.565 173.191L132.122 174.673V177H130.432V167.9H132.122V172.567L136.62 167.9H138.518L134.696 171.969L138.752 177H136.776L133.565 173.191ZM147.478 175.583V177H140.653V167.9H147.296V169.317H142.343V171.683H146.737V173.074H142.343V175.583H147.478ZM152.933 177.13C152.231 177.13 151.55 177.03 150.892 176.831C150.242 176.632 149.726 176.367 149.345 176.038L149.93 174.725C150.302 175.02 150.757 175.262 151.295 175.453C151.841 175.635 152.387 175.726 152.933 175.726C153.609 175.726 154.111 175.618 154.441 175.401C154.779 175.184 154.948 174.898 154.948 174.543C154.948 174.283 154.852 174.071 154.662 173.906C154.48 173.733 154.246 173.598 153.96 173.503C153.674 173.408 153.284 173.299 152.79 173.178C152.096 173.013 151.533 172.849 151.1 172.684C150.675 172.519 150.307 172.264 149.995 171.917C149.691 171.562 149.54 171.085 149.54 170.487C149.54 169.984 149.674 169.529 149.943 169.122C150.22 168.706 150.632 168.377 151.178 168.134C151.732 167.891 152.408 167.77 153.206 167.77C153.76 167.77 154.306 167.839 154.844 167.978C155.381 168.117 155.845 168.316 156.235 168.576L155.702 169.889C155.303 169.655 154.887 169.477 154.454 169.356C154.02 169.235 153.6 169.174 153.193 169.174C152.525 169.174 152.027 169.287 151.698 169.512C151.377 169.737 151.217 170.036 151.217 170.409C151.217 170.669 151.308 170.881 151.49 171.046C151.68 171.211 151.919 171.341 152.205 171.436C152.491 171.531 152.881 171.64 153.375 171.761C154.051 171.917 154.605 172.082 155.039 172.255C155.472 172.42 155.84 172.675 156.144 173.022C156.456 173.369 156.612 173.837 156.612 174.426C156.612 174.929 156.473 175.384 156.196 175.791C155.927 176.198 155.515 176.523 154.961 176.766C154.406 177.009 153.73 177.13 152.933 177.13Z" fill="white" fill-opacity="0.87"/>
<path d="M99.9977 25.746C73.645 25.746 52.2051 47.185 52.2051 73.541C52.2051 99.8926 73.645 121.331 99.9977 121.331C126.35 121.331 147.795 99.8926 147.795 73.541C147.795 47.185 126.35 25.746 99.9977 25.746ZM99.9977 123.541C72.427 123.541 50 101.111 50 73.541C50 45.9715 72.427 23.541 99.9977 23.541C127.568 23.541 150 45.9715 150 73.541C150 101.111 127.568 123.541 99.9977 123.541Z" fill="white" fill-opacity="0.87"/>
<path d="M99.9528 30.3495C76.1358 30.3495 56.7606 49.7237 56.7606 73.5397C56.7606 97.3557 76.1358 116.73 99.9528 116.73C123.77 116.73 143.15 97.3557 143.15 73.5397C143.15 49.7237 123.77 30.3495 99.9528 30.3495ZM99.9528 117.713C75.5969 117.713 55.7781 97.8945 55.7781 73.5397C55.7781 49.1804 75.5969 29.367 99.9528 29.367C124.309 29.367 144.128 49.1804 144.128 73.5397C144.128 97.8945 124.309 117.713 99.9528 117.713Z" fill="white" fill-opacity="0.87"/>
<path d="M100.257 92.2439C89.9239 92.2439 81.5562 83.863 81.5562 73.5306C81.5562 63.1983 89.9239 54.8174 100.257 54.8174C110.594 54.8174 118.971 63.1983 118.971 73.5306C118.971 83.863 110.594 92.2439 100.257 92.2439ZM120.673 75.2195C121.561 67.9343 118.364 61.7041 113.383 57.6337L121.366 49.6558C115.751 44.6798 108.353 41.6688 100.257 41.6688C82.6611 41.6688 68.3935 55.9313 68.3935 73.5306C68.3935 91.13 82.6611 105.392 100.257 105.392C117.295 105.392 131.201 92.0265 132.075 75.2195H120.673Z" fill="white" fill-opacity="0.87"/>
<path d="M111.445 72.474C110.1 72.474 109.018 71.3964 109.018 70.0516C109.018 68.7159 110.1 67.6293 111.445 67.6293C112.776 67.6293 113.872 68.7159 113.872 70.0516C113.872 71.3964 112.776 72.474 111.445 72.474ZM107.202 85.5909C105.871 85.5909 104.789 84.4997 104.789 83.164C104.789 81.8193 105.871 80.7416 107.202 80.7416C108.547 80.7416 109.629 81.8193 109.629 83.164C109.629 84.4997 108.547 85.5909 107.202 85.5909ZM92.9166 73.5561C92.9166 69.4766 96.213 66.1759 100.293 66.1759C104.363 66.1759 107.673 69.4766 107.673 73.5561C107.673 77.6265 104.363 80.9228 100.293 80.9228C96.213 80.9228 92.9166 77.6265 92.9166 73.5561ZM93.3513 85.5909C92.0065 85.5909 90.9243 84.4997 90.9243 83.164C90.9243 81.8193 92.0065 80.7416 93.3513 80.7416C94.6825 80.7416 95.7783 81.8193 95.7783 83.164C95.7783 84.4997 94.6825 85.5909 93.3513 85.5909ZM89.1448 72.474C87.8 72.474 86.7178 71.3964 86.7178 70.0516C86.7178 68.7159 87.8 67.6293 89.1448 67.6293C90.4896 67.6293 91.5673 68.7159 91.5673 70.0516C91.5673 71.3964 90.4896 72.474 89.1448 72.474ZM100.261 59.4295C101.592 59.4295 102.683 60.5207 102.683 61.8564C102.683 63.2011 101.592 64.2787 100.261 64.2787C98.9116 64.2787 97.834 63.2011 97.834 61.8564C97.834 60.5207 98.9116 59.4295 100.261 59.4295ZM100.293 55.9929C90.6164 55.9929 82.7423 63.8803 82.7423 73.5561C82.7423 83.2364 90.6164 91.1193 100.293 91.1193C109.987 91.1193 117.861 83.2364 117.861 73.5561C117.861 63.8803 109.987 55.9929 100.293 55.9929Z" fill="white" fill-opacity="0.87"/>
<path d="M121.972 74.0648C122.347 67.8144 119.891 61.9166 115.111 57.5532L126.219 46.4533C133.348 53.9861 137.376 63.7128 137.653 74.0626L121.972 74.0648Z" fill="white" fill-opacity="0.87"/>
<defs>
<filter id="filter0_d" x="0.5" y="0.308594" width="208" height="208" filterUnits="userSpaceOnUse" color-interpolation-filters="sRGB">
<feFlood flood-opacity="0" result="BackgroundImageFix"/>
<feColorMatrix in="SourceAlpha" type="matrix" values="0 0 0 0 0 0 0 0 0 0 0 0 0 0 0 0 0 0 127 0"/>
<feOffset dx="4" dy="4"/>
<feGaussianBlur stdDeviation="2"/>
<feColorMatrix type="matrix" values="0 0 0 0 0 0 0 0 0 0 0 0 0 0 0 0 0 0 0.25 0"/>
<feBlend mode="normal" in2="BackgroundImageFix" result="effect1_dropShadow"/>
<feBlend mode="normal" in="SourceGraphic" in2="effect1_dropShadow" result="shape"/>
</filter>
</defs>
</svg>
