<svg width="1220" height="1521" viewBox="0 0 1220 1521" fill="none" xmlns="http://www.w3.org/2000/svg">
<path d="M81.0998 1L1150.6 1C1178.1 1 1218.6 1 1218.6 74V722C1216.93 736.667 1225.6 768.5 1190.1 776C1177.02 778.764 963.895 778.994 711.6 778.396C483.048 777.855 220.751 776.634 47.5 776C1.00001 776 0.999704 773.2 1 821.6C1.0003 870 1.66667 1186.83 1 1521" stroke="white" stroke-opacity="0.87" stroke-width="1"/>
<path d="M369.1 2C400.563 28.5437 394.57 29.5268 543.394 29.5268C610.1 29.5268 850.884 29.5268 1143.69 29.5268C1156.84 29.3629 1179.74 29.4285 1182.14 60.4944C1184.54 91.5603 1183.14 227.621 1182.14 456.192C1182.14 613.979 1170.66 640.031 1218.1 700" stroke="#F05C2D"/>
<path d="M691.1 778C688.003 790.57 678.841 806.032 664.341 806.032C649.841 806.032 270.6 806.033 66.8414 805.573C39.8414 805.573 39.0649 816.336 39.0648 845.881C39.0647 875.425 39.0648 1216.29 39.0648 1399.32C39.0648 1406.7 25.5996 1429.19 2.09961 1437" stroke="#F05C2D"/>
</svg>
