<svg width="145" height="10" viewBox="0 0 145 10" fill="none" xmlns="http://www.w3.org/2000/svg">
<path d="M7.26562 6.29297C7.16016 7.19531 6.82617 7.89258 6.26367 8.38477C5.70508 8.87305 4.96094 9.11719 4.03125 9.11719C3.02344 9.11719 2.21484 8.75586 1.60547 8.0332C1 7.31055 0.697266 6.34375 0.697266 5.13281V4.3125C0.697266 3.51953 0.837891 2.82227 1.11914 2.2207C1.4043 1.61914 1.80664 1.1582 2.32617 0.837891C2.8457 0.513672 3.44727 0.351562 4.13086 0.351562C5.03711 0.351562 5.76367 0.605469 6.31055 1.11328C6.85742 1.61719 7.17578 2.31641 7.26562 3.21094H6.13477C6.03711 2.53125 5.82422 2.03906 5.49609 1.73438C5.17188 1.42969 4.7168 1.27734 4.13086 1.27734C3.41211 1.27734 2.84766 1.54297 2.4375 2.07422C2.03125 2.60547 1.82812 3.36133 1.82812 4.3418V5.16797C1.82812 6.09375 2.02148 6.83008 2.4082 7.37695C2.79492 7.92383 3.33594 8.19727 4.03125 8.19727C4.65625 8.19727 5.13477 8.05664 5.4668 7.77539C5.80273 7.49023 6.02539 6.99609 6.13477 6.29297H7.26562ZM16.1191 5.00977C16.1191 5.8457 15.9785 6.57617 15.6973 7.20117C15.416 7.82227 15.0176 8.29688 14.502 8.625C13.9863 8.95312 13.3848 9.11719 12.6973 9.11719C12.0254 9.11719 11.4297 8.95312 10.9102 8.625C10.3906 8.29297 9.98633 7.82227 9.69727 7.21289C9.41211 6.59961 9.26562 5.89062 9.25781 5.08594V4.4707C9.25781 3.65039 9.40039 2.92578 9.68555 2.29688C9.9707 1.66797 10.373 1.1875 10.8926 0.855469C11.416 0.519531 12.0137 0.351562 12.6855 0.351562C13.3691 0.351562 13.9707 0.517578 14.4902 0.849609C15.0137 1.17773 15.416 1.65625 15.6973 2.28516C15.9785 2.91016 16.1191 3.63867 16.1191 4.4707V5.00977ZM15 4.45898C15 3.44727 14.7969 2.67188 14.3906 2.13281C13.9844 1.58984 13.416 1.31836 12.6855 1.31836C11.9746 1.31836 11.4141 1.58984 11.0039 2.13281C10.5977 2.67188 10.3887 3.42188 10.377 4.38281V5.00977C10.377 5.99023 10.582 6.76172 10.9922 7.32422C11.4062 7.88281 11.9746 8.16211 12.6973 8.16211C13.4238 8.16211 13.9863 7.89844 14.3848 7.37109C14.7832 6.83984 14.9883 6.08008 15 5.0918V4.45898ZM19.6816 5.66016V9H18.5566V0.46875H21.7031C22.6367 0.46875 23.3672 0.707031 23.8945 1.18359C24.4258 1.66016 24.6914 2.29102 24.6914 3.07617C24.6914 3.9043 24.4316 4.54297 23.9121 4.99219C23.3965 5.4375 22.6562 5.66016 21.6914 5.66016H19.6816ZM19.6816 4.74023H21.7031C22.3047 4.74023 22.7656 4.59961 23.0859 4.31836C23.4062 4.0332 23.5664 3.62305 23.5664 3.08789C23.5664 2.58008 23.4062 2.17383 23.0859 1.86914C22.7656 1.56445 22.3262 1.40625 21.7676 1.39453H19.6816V4.74023ZM29.4785 4.75195L31.7051 0.46875H32.9824L30.041 5.81836V9H28.916V5.81836L25.9746 0.46875H27.2637L29.4785 4.75195ZM37.9629 5.54883H35.959V9H34.8281V0.46875H37.6523C38.6133 0.46875 39.3516 0.6875 39.8672 1.125C40.3867 1.5625 40.6465 2.19922 40.6465 3.03516C40.6465 3.56641 40.502 4.0293 40.2129 4.42383C39.9277 4.81836 39.5293 5.11328 39.0176 5.30859L41.0215 8.92969V9H39.8145L37.9629 5.54883ZM35.959 4.62891H37.6875C38.2461 4.62891 38.6895 4.48438 39.0176 4.19531C39.3496 3.90625 39.5156 3.51953 39.5156 3.03516C39.5156 2.50781 39.3574 2.10352 39.041 1.82227C38.7285 1.54102 38.2754 1.39844 37.6816 1.39453H35.959V4.62891ZM44.1855 9H43.0605V0.46875H44.1855V9ZM53.2969 7.88086C53.0078 8.29492 52.6035 8.60547 52.084 8.8125C51.5684 9.01562 50.9668 9.11719 50.2793 9.11719C49.584 9.11719 48.9668 8.95508 48.4277 8.63086C47.8887 8.30273 47.4707 7.83789 47.1738 7.23633C46.8809 6.63477 46.7305 5.9375 46.7227 5.14453V4.40039C46.7227 3.11523 47.0215 2.11914 47.6191 1.41211C48.2207 0.705078 49.0645 0.351562 50.1504 0.351562C51.041 0.351562 51.7578 0.580078 52.3008 1.03711C52.8438 1.49023 53.1758 2.13477 53.2969 2.9707H52.1719C51.9609 1.8418 51.2891 1.27734 50.1562 1.27734C49.4023 1.27734 48.8301 1.54297 48.4395 2.07422C48.0527 2.60156 47.8574 3.36719 47.8535 4.37109V5.06836C47.8535 6.02539 48.0723 6.78711 48.5098 7.35352C48.9473 7.91602 49.5391 8.19727 50.2852 8.19727C50.707 8.19727 51.0762 8.15039 51.3926 8.05664C51.709 7.96289 51.9707 7.80469 52.1777 7.58203V5.66602H50.2031V4.75195H53.2969V7.88086ZM62.4844 9H61.3535V5.05664H57.0527V9H55.9277V0.46875H57.0527V4.13672H61.3535V0.46875H62.4844V9ZM70.9512 1.39453H68.209V9H67.0898V1.39453H64.3535V0.46875H70.9512V1.39453ZM81.1699 6.77344H77.5957L76.793 9H75.6328L78.8906 0.46875H79.875L83.1387 9H81.9844L81.1699 6.77344ZM77.9355 5.84766H80.8359L79.3828 1.85742L77.9355 5.84766ZM90.9375 0.46875V6.26953C90.9336 7.07422 90.6797 7.73242 90.1758 8.24414C89.6758 8.75586 88.9961 9.04297 88.1367 9.10547L87.8379 9.11719C86.9043 9.11719 86.1602 8.86523 85.6055 8.36133C85.0508 7.85742 84.7695 7.16406 84.7617 6.28125V0.46875H85.875V6.24609C85.875 6.86328 86.0449 7.34375 86.3848 7.6875C86.7246 8.02734 87.209 8.19727 87.8379 8.19727C88.4746 8.19727 88.9609 8.02734 89.2969 7.6875C89.6367 7.34766 89.8066 6.86914 89.8066 6.25195V0.46875H90.9375ZM99.3574 1.39453H96.6152V9H95.4961V1.39453H92.7598V0.46875H99.3574V1.39453ZM107.771 5.00977C107.771 5.8457 107.631 6.57617 107.35 7.20117C107.068 7.82227 106.67 8.29688 106.154 8.625C105.639 8.95312 105.037 9.11719 104.35 9.11719C103.678 9.11719 103.082 8.95312 102.562 8.625C102.043 8.29297 101.639 7.82227 101.35 7.21289C101.064 6.59961 100.918 5.89062 100.91 5.08594V4.4707C100.91 3.65039 101.053 2.92578 101.338 2.29688C101.623 1.66797 102.025 1.1875 102.545 0.855469C103.068 0.519531 103.666 0.351562 104.338 0.351562C105.021 0.351562 105.623 0.517578 106.143 0.849609C106.666 1.17773 107.068 1.65625 107.35 2.28516C107.631 2.91016 107.771 3.63867 107.771 4.4707V5.00977ZM106.652 4.45898C106.652 3.44727 106.449 2.67188 106.043 2.13281C105.637 1.58984 105.068 1.31836 104.338 1.31836C103.627 1.31836 103.066 1.58984 102.656 2.13281C102.25 2.67188 102.041 3.42188 102.029 4.38281V5.00977C102.029 5.99023 102.234 6.76172 102.645 7.32422C103.059 7.88281 103.627 8.16211 104.35 8.16211C105.076 8.16211 105.639 7.89844 106.037 7.37109C106.436 6.83984 106.641 6.08008 106.652 5.0918V4.45898ZM111.662 0.46875L114.451 7.42969L117.24 0.46875H118.699V9H117.574V5.67773L117.68 2.0918L114.879 9H114.018L111.223 2.10938L111.334 5.67773V9H110.209V0.46875H111.662ZM127.998 5.00977C127.998 5.8457 127.857 6.57617 127.576 7.20117C127.295 7.82227 126.896 8.29688 126.381 8.625C125.865 8.95312 125.264 9.11719 124.576 9.11719C123.904 9.11719 123.309 8.95312 122.789 8.625C122.27 8.29297 121.865 7.82227 121.576 7.21289C121.291 6.59961 121.145 5.89062 121.137 5.08594V4.4707C121.137 3.65039 121.279 2.92578 121.564 2.29688C121.85 1.66797 122.252 1.1875 122.771 0.855469C123.295 0.519531 123.893 0.351562 124.564 0.351562C125.248 0.351562 125.85 0.517578 126.369 0.849609C126.893 1.17773 127.295 1.65625 127.576 2.28516C127.857 2.91016 127.998 3.63867 127.998 4.4707V5.00977ZM126.879 4.45898C126.879 3.44727 126.676 2.67188 126.27 2.13281C125.863 1.58984 125.295 1.31836 124.564 1.31836C123.854 1.31836 123.293 1.58984 122.883 2.13281C122.477 2.67188 122.268 3.42188 122.256 4.38281V5.00977C122.256 5.99023 122.461 6.76172 122.871 7.32422C123.285 7.88281 123.854 8.16211 124.576 8.16211C125.303 8.16211 125.865 7.89844 126.264 7.37109C126.662 6.83984 126.867 6.08008 126.879 5.0918V4.45898ZM136.166 1.39453H133.424V9H132.305V1.39453H129.568V0.46875H136.166V1.39453ZM144.58 5.00977C144.58 5.8457 144.439 6.57617 144.158 7.20117C143.877 7.82227 143.479 8.29688 142.963 8.625C142.447 8.95312 141.846 9.11719 141.158 9.11719C140.486 9.11719 139.891 8.95312 139.371 8.625C138.852 8.29297 138.447 7.82227 138.158 7.21289C137.873 6.59961 137.727 5.89062 137.719 5.08594V4.4707C137.719 3.65039 137.861 2.92578 138.146 2.29688C138.432 1.66797 138.834 1.1875 139.354 0.855469C139.877 0.519531 140.475 0.351562 141.146 0.351562C141.83 0.351562 142.432 0.517578 142.951 0.849609C143.475 1.17773 143.877 1.65625 144.158 2.28516C144.439 2.91016 144.58 3.63867 144.58 4.4707V5.00977ZM143.461 4.45898C143.461 3.44727 143.258 2.67188 142.852 2.13281C142.445 1.58984 141.877 1.31836 141.146 1.31836C140.436 1.31836 139.875 1.58984 139.465 2.13281C139.059 2.67188 138.85 3.42188 138.838 4.38281V5.00977C138.838 5.99023 139.043 6.76172 139.453 7.32422C139.867 7.88281 140.436 8.16211 141.158 8.16211C141.885 8.16211 142.447 7.89844 142.846 7.37109C143.244 6.83984 143.449 6.08008 143.461 5.0918V4.45898Z" fill="black"/>
</svg>
