<svg width="287" height="361" viewBox="0 0 287 361" fill="none" xmlns="http://www.w3.org/2000/svg">
<g filter="url(#filter0_d)">
<rect width="279" height="353" rx="8" fill="white" fill-opacity="0.08"/>
</g>
<path d="M251.286 319.714H242.714V328.286C242.714 329.229 241.943 330 241 330C240.057 330 239.286 329.229 239.286 328.286V319.714H230.714C229.771 319.714 229 318.943 229 318C229 317.057 229.771 316.286 230.714 316.286H239.286V307.714C239.286 306.771 240.057 306 241 306C241.943 306 242.714 306.771 242.714 307.714V316.286H251.286C252.229 316.286 253 317.057 253 318C253 318.943 252.229 319.714 251.286 319.714Z" fill="#FAFAFA"/>
<path d="M101.576 178.056H97.376L96.548 180H94.94L98.72 171.6H100.256L104.048 180H102.416L101.576 178.056ZM101.06 176.832L99.476 173.16L97.904 176.832H101.06ZM105.866 171.6H109.538C110.434 171.6 111.23 171.776 111.926 172.128C112.622 172.472 113.162 172.964 113.546 173.604C113.93 174.236 114.122 174.968 114.122 175.8C114.122 176.632 113.93 177.368 113.546 178.008C113.162 178.64 112.622 179.132 111.926 179.484C111.23 179.828 110.434 180 109.538 180H105.866V171.6ZM109.466 178.68C110.082 178.68 110.622 178.564 111.086 178.332C111.558 178.092 111.918 177.756 112.166 177.324C112.422 176.884 112.55 176.376 112.55 175.8C112.55 175.224 112.422 174.72 112.166 174.288C111.918 173.848 111.558 173.512 111.086 173.28C110.622 173.04 110.082 172.92 109.466 172.92H107.426V178.68H109.466ZM122.482 175.632C122.946 175.784 123.314 176.04 123.586 176.4C123.858 176.752 123.994 177.192 123.994 177.72C123.994 178.448 123.714 179.012 123.154 179.412C122.594 179.804 121.778 180 120.706 180H116.53V171.6H120.466C121.458 171.6 122.222 171.796 122.758 172.188C123.294 172.572 123.562 173.104 123.562 173.784C123.562 174.2 123.466 174.568 123.274 174.888C123.082 175.208 122.818 175.456 122.482 175.632ZM118.09 172.824V175.14H120.298C120.842 175.14 121.258 175.044 121.546 174.852C121.842 174.652 121.99 174.364 121.99 173.988C121.99 173.604 121.842 173.316 121.546 173.124C121.258 172.924 120.842 172.824 120.298 172.824H118.09ZM120.61 178.776C121.818 178.776 122.422 178.372 122.422 177.564C122.422 176.756 121.818 176.352 120.61 176.352H118.09V178.776H120.61ZM126.409 171.6H127.969V178.68H132.361V180H126.409V171.6ZM137.838 180.12C136.678 180.12 135.774 179.796 135.126 179.148C134.478 178.492 134.154 177.556 134.154 176.34V171.6H135.714V176.28C135.714 177.928 136.426 178.752 137.85 178.752C139.266 178.752 139.974 177.928 139.974 176.28V171.6H141.51V176.34C141.51 177.556 141.186 178.492 140.538 179.148C139.898 179.796 138.998 180.12 137.838 180.12ZM150.744 178.692V180H144.444V171.6H150.576V172.908H146.004V175.092H150.06V176.376H146.004V178.692H150.744ZM161.224 180.12C160.368 180.12 159.596 179.936 158.908 179.568C158.22 179.192 157.68 178.676 157.288 178.02C156.896 177.356 156.7 176.616 156.7 175.8C156.7 174.984 156.896 174.248 157.288 173.592C157.68 172.928 158.22 172.412 158.908 172.044C159.596 171.668 160.368 171.48 161.224 171.48C162.08 171.48 162.852 171.668 163.54 172.044C164.228 172.412 164.768 172.924 165.16 173.58C165.552 174.236 165.748 174.976 165.748 175.8C165.748 176.624 165.552 177.364 165.16 178.02C164.768 178.676 164.228 179.192 163.54 179.568C162.852 179.936 162.08 180.12 161.224 180.12ZM161.224 178.752C161.784 178.752 162.288 178.628 162.736 178.38C163.184 178.124 163.536 177.772 163.792 177.324C164.048 176.868 164.176 176.36 164.176 175.8C164.176 175.24 164.048 174.736 163.792 174.288C163.536 173.832 163.184 173.48 162.736 173.232C162.288 172.976 161.784 172.848 161.224 172.848C160.664 172.848 160.16 172.976 159.712 173.232C159.264 173.48 158.912 173.832 158.656 174.288C158.4 174.736 158.272 175.24 158.272 175.8C158.272 176.36 158.4 176.868 158.656 177.324C158.912 177.772 159.264 178.124 159.712 178.38C160.16 178.628 160.664 178.752 161.224 178.752ZM169.711 172.908V175.464H173.767V176.784H169.711V180H168.151V171.6H174.283V172.908H169.711ZM178.102 172.908V175.464H182.158V176.784H178.102V180H176.542V171.6H182.674V172.908H178.102Z" fill="white" fill-opacity="0.87"/>
<path d="M103.596 108.787C100.084 99.4308 98.2878 94.9337 97.6578 92.8191H97.6143C96.8467 95.2016 94.8226 100.781 91.9874 108.787H103.596ZM91.1365 111.036L87.1282 121.924H84.6588L96.2166 90.4365H99.0989L111.153 121.924H108.499L104.407 111.036H91.1365Z" fill="white"/>
<path d="M114.802 111.091C114.802 117.25 117.996 120.581 121.863 120.581C127.805 120.581 129.423 116.486 129.423 110.371C129.423 104.566 128.026 101.235 122.272 101.235C117.815 101.235 114.802 104.791 114.802 111.091ZM131.581 89V115.679C131.581 117.837 131.581 119.908 131.625 122.157H129.467C129.376 121.613 129.333 119.499 129.333 118.38C128.207 121.125 125.69 122.696 121.776 122.696C115.928 122.696 112.42 117.927 112.42 111.178C112.42 104.251 116.24 99.1204 122.363 99.1204C126.86 99.1204 128.656 101.058 129.333 102.495V89H131.581Z" fill="white"/>
<path d="M140.738 119.675H149.602C153.741 119.675 157.206 117.608 157.206 112.969C157.206 108.968 154.643 106.224 148.299 106.224H140.738V119.675ZM148.52 103.975C153.965 103.975 156.037 101.951 156.037 98.3083C156.037 95.2016 153.875 92.6815 149.468 92.6815H140.738V103.975H148.52ZM138.356 90.4365H149.331C155.359 90.4365 158.604 93.6302 158.604 98.1744C158.604 101.908 156.352 104.337 153.741 105.054C155.993 105.684 159.723 107.889 159.723 112.835C159.723 119.136 155.001 121.924 149.515 121.924H138.356V90.4365Z" fill="white"/>
<path d="M166.301 89H164.053V122.153H166.301V89Z" fill="white"/>
<path d="M188.7 115.455C188.7 117.656 188.747 121.169 188.747 122.02H186.586C186.499 121.437 186.452 119.952 186.452 118.105C185.503 120.763 183.211 122.563 179.206 122.563C175.969 122.563 171.831 121.303 171.831 114.419V99.5303H174.036V113.876C174.036 117.164 175.068 120.358 179.525 120.358C184.558 120.358 186.452 117.522 186.452 111.092V99.5303H188.7V115.455Z" fill="white"/>
<path d="M209.056 109.129C209.009 104.679 206.58 101.166 202.173 101.166C197.538 101.166 195.424 104.403 194.931 109.129H209.056ZM194.797 111.109C194.841 116.91 197.763 120.513 202.082 120.513C206.312 120.513 207.753 118.123 208.56 116.284H210.856C209.911 119.253 207.525 122.627 201.996 122.627C195.156 122.627 192.502 116.733 192.502 111.019C192.502 104.584 195.695 99.0518 202.264 99.0518C209.19 99.0518 211.395 105.033 211.395 109.263C211.395 109.893 211.395 110.523 211.352 111.109H194.797Z" fill="white"/>
<path d="M206.859 142.457C202.543 138.825 196.253 138.496 191.575 141.642L188.982 143.391C185.38 145.821 180.647 145.444 177.468 142.486C173.076 138.409 166.348 137.963 161.467 141.425L158.762 143.34C155.428 145.705 150.862 145.589 147.646 143.065L145.133 141.085C140.778 137.663 134.77 137.442 130.179 140.534L126.841 142.783C123.441 145.075 119.012 144.887 115.819 142.312L111.383 138.735C107.045 135.233 101.009 134.958 96.3709 138.047L83.0134 146.932L84.9035 149.775L98.2646 140.889C101.65 138.633 106.064 138.832 109.24 141.392L113.679 144.97C118.042 148.489 124.1 148.746 128.749 145.614L132.087 143.366C135.444 141.106 139.84 141.266 143.022 143.768L145.535 145.748C149.931 149.206 156.184 149.355 160.736 146.129L163.444 144.209C167.022 141.682 171.939 142.008 175.14 144.984C179.492 149.032 185.966 149.536 190.894 146.223L193.487 144.477C196.912 142.167 201.504 142.417 204.657 145.071L211.675 150.977L213.876 148.363L206.859 142.457Z" fill="white"/>
<defs>
<filter id="filter0_d" x="0" y="0" width="287" height="361" filterUnits="userSpaceOnUse" color-interpolation-filters="sRGB">
<feFlood flood-opacity="0" result="BackgroundImageFix"/>
<feColorMatrix in="SourceAlpha" type="matrix" values="0 0 0 0 0 0 0 0 0 0 0 0 0 0 0 0 0 0 127 0"/>
<feOffset dx="4" dy="4"/>
<feGaussianBlur stdDeviation="2"/>
<feColorMatrix type="matrix" values="0 0 0 0 0 0 0 0 0 0 0 0 0 0 0 0 0 0 0.25 0"/>
<feBlend mode="normal" in2="BackgroundImageFix" result="effect1_dropShadow"/>
<feBlend mode="normal" in="SourceGraphic" in2="effect1_dropShadow" result="shape"/>
</filter>
</defs>
</svg>
