<svg width="287" height="361" viewBox="0 0 287 361" fill="none" xmlns="http://www.w3.org/2000/svg">
<g filter="url(#filter0_d)">
<rect width="279" height="353" rx="8" fill="white" fill-opacity="0.08"/>
</g>
<path d="M251.286 319.714H242.714V328.286C242.714 329.229 241.943 330 241 330C240.057 330 239.286 329.229 239.286 328.286V319.714H230.714C229.771 319.714 229 318.943 229 318C229 317.057 229.771 316.286 230.714 316.286H239.286V307.714C239.286 306.771 240.057 306 241 306C241.943 306 242.714 306.771 242.714 307.714V316.286H251.286C252.229 316.286 253 317.057 253 318C253 318.943 252.229 319.714 251.286 319.714Z" fill="#FAFAFA"/>
<path d="M124.128 172.6H127.8C128.696 172.6 129.492 172.776 130.188 173.128C130.884 173.472 131.424 173.964 131.808 174.604C132.192 175.236 132.384 175.968 132.384 176.8C132.384 177.632 132.192 178.368 131.808 179.008C131.424 179.64 130.884 180.132 130.188 180.484C129.492 180.828 128.696 181 127.8 181H124.128V172.6ZM127.728 179.68C128.344 179.68 128.884 179.564 129.348 179.332C129.82 179.092 130.18 178.756 130.428 178.324C130.684 177.884 130.812 177.376 130.812 176.8C130.812 176.224 130.684 175.72 130.428 175.288C130.18 174.848 129.82 174.512 129.348 174.28C128.884 174.04 128.344 173.92 127.728 173.92H125.688V179.68H127.728ZM138.248 172.6C138.976 172.6 139.608 172.72 140.144 172.96C140.688 173.2 141.104 173.544 141.392 173.992C141.68 174.44 141.824 174.972 141.824 175.588C141.824 176.196 141.68 176.728 141.392 177.184C141.104 177.632 140.688 177.976 140.144 178.216C139.608 178.456 138.976 178.576 138.248 178.576H136.352V181H134.792V172.6H138.248ZM138.176 177.256C138.856 177.256 139.372 177.112 139.724 176.824C140.076 176.536 140.252 176.124 140.252 175.588C140.252 175.052 140.076 174.64 139.724 174.352C139.372 174.064 138.856 173.92 138.176 173.92H136.352V177.256H138.176ZM145.692 173.908V176.464H149.748V177.784H145.692V181H144.132V172.6H150.264V173.908H145.692ZM156.589 172.6H160.261C161.157 172.6 161.953 172.776 162.649 173.128C163.345 173.472 163.885 173.964 164.269 174.604C164.653 175.236 164.845 175.968 164.845 176.8C164.845 177.632 164.653 178.368 164.269 179.008C163.885 179.64 163.345 180.132 162.649 180.484C161.953 180.828 161.157 181 160.261 181H156.589V172.6ZM160.189 179.68C160.805 179.68 161.345 179.564 161.809 179.332C162.281 179.092 162.641 178.756 162.889 178.324C163.145 177.884 163.273 177.376 163.273 176.8C163.273 176.224 163.145 175.72 162.889 175.288C162.641 174.848 162.281 174.512 161.809 174.28C161.345 174.04 160.805 173.92 160.189 173.92H158.149V179.68H160.189ZM173.553 179.692V181H167.253V172.6H173.385V173.908H168.813V176.092H172.869V177.376H168.813V179.692H173.553ZM176.042 172.6H177.602V179.68H181.994V181H176.042V172.6ZM190.276 179.692V181H183.976V172.6H190.108V173.908H185.536V176.092H189.592V177.376H185.536V179.692H190.276ZM194.469 173.92H191.685V172.6H198.813V173.92H196.029V181H194.469V173.92ZM207.033 179.692V181H200.733V172.6H206.865V173.908H202.293V176.092H206.349V177.376H202.293V179.692H207.033Z" fill="white" fill-opacity="0.87"/>
<path d="M97.0662 63.3061V53.2149C97.0662 50.9953 95.2667 49.1958 93.0471 49.1958H83.5425C81.3193 49.1958 79.5162 50.9953 79.5162 53.2149V63.3061C79.5162 65.5257 77.7166 67.3288 75.4971 67.3288C73.2775 67.3288 71.478 69.1284 71.478 71.3515V137.011C71.478 139.234 73.2775 141.034 75.4971 141.034H101.089C103.312 141.034 105.112 139.234 105.112 137.011V71.3515C105.112 69.1284 103.312 67.3288 101.089 67.3288C98.8694 67.3288 97.0662 65.5257 97.0662 63.3061Z" fill="url(#paint0_linear)"/>
<path d="M155.175 95.4486V92.0052C155.175 88.9529 154.657 86.889 153.629 85.8209C152.597 84.7491 150.559 84.2168 147.506 84.2168H133.849V103.353H147.858C150.99 103.353 153.021 102.802 153.962 101.709C154.773 100.742 155.175 98.6566 155.175 95.4486ZM159.832 95.6043C159.832 100.195 159.1 103.299 157.641 104.917C156.048 106.666 152.995 107.538 148.484 107.538H129.152V80.0674H147.818C151.652 80.0674 154.458 80.6576 156.232 81.8307C157.847 82.8735 158.89 84.6079 159.361 87.0338C159.676 88.598 159.832 91.4548 159.832 95.6043Z" fill="white"/>
<path d="M181.342 84.6043H167.452V92.8995H181.421C183.04 92.8995 184.198 92.6678 184.905 92.1971C185.792 91.596 186.237 90.5279 186.237 88.9891C186.237 87.2149 185.879 86.0381 185.158 85.466C184.441 84.8939 183.17 84.6043 181.342 84.6043ZM180.951 97.4799H167.452V107.495H162.836V80.0674H181.342C184.966 80.0674 187.461 80.7372 188.815 82.0806C190.169 83.4239 190.854 85.8933 190.854 89.496C190.854 92.704 189.937 94.9091 188.113 96.1112C186.7 97.0236 184.318 97.4799 180.951 97.4799Z" fill="white"/>
<path d="M197.135 91.534H216.466V95.4879H197.135V107.657H192.75L192.79 93.4132C192.79 89.6295 193.09 86.8921 193.691 85.194C194.368 83.2641 195.661 81.9207 197.562 81.164C199.361 80.4362 202.218 80.0669 206.132 80.0669H211.223C216.151 80.0669 219.54 80.6716 221.394 81.8701C223.168 83.0142 224.236 85.194 224.602 88.4056H220.181C219.765 86.5771 218.823 85.404 217.364 84.8826C216.321 84.5169 214.207 84.3322 211.024 84.3322H206.411C202.703 84.3322 200.328 84.687 199.285 85.3895C197.957 86.2512 197.236 88.3006 197.135 91.534Z" fill="white"/>
<path d="M133.951 119.965V119.237C133.951 118.513 133.879 117.995 133.731 117.688C133.589 117.38 133.325 117.181 132.941 117.097C132.673 117.029 132.156 116.996 131.395 116.996H130.135C129.085 116.996 128.426 117.105 128.147 117.322C127.814 117.59 127.648 118.231 127.648 119.248V119.972C127.648 120.961 127.818 121.584 128.158 121.844C128.426 122.04 129.074 122.138 130.106 122.138H131.421C132.166 122.138 132.67 122.109 132.93 122.051C133.314 121.971 133.575 121.783 133.727 121.479C133.875 121.178 133.951 120.675 133.951 119.965ZM135.259 120.009C135.259 121.022 135.135 121.768 134.896 122.243C134.658 122.717 134.252 123.032 133.676 123.191C133.227 123.322 132.478 123.387 131.442 123.387H130.041C128.973 123.387 128.198 123.296 127.713 123.119C127.177 122.92 126.808 122.558 126.616 122.029C126.435 121.537 126.341 120.758 126.341 119.694C126.341 118.564 126.42 117.753 126.572 117.257C126.753 116.677 127.108 116.275 127.637 116.051C128.14 115.834 128.944 115.725 130.063 115.725H131.453C132.648 115.725 133.506 115.848 134.035 116.094C134.56 116.344 134.9 116.782 135.063 117.42C135.193 117.898 135.259 118.759 135.259 120.009Z" fill="white"/>
<path d="M137.429 118.908H142.795V120.005H137.429V123.387H136.212L136.219 119.429C136.219 118.379 136.306 117.619 136.469 117.148C136.661 116.612 137.02 116.239 137.548 116.029C138.048 115.823 138.841 115.725 139.927 115.725H141.343C142.712 115.725 143.657 115.892 144.167 116.221C144.66 116.543 144.96 117.148 145.058 118.039H143.834C143.714 117.532 143.454 117.206 143.048 117.061C142.759 116.956 142.172 116.909 141.285 116.909H140.003C138.978 116.909 138.316 117.007 138.026 117.202C137.653 117.441 137.458 118.01 137.429 118.908Z" fill="white"/>
<path d="M146.223 118.908H151.593V120.005H146.223V123.387H145.007L145.018 119.429C145.018 118.379 145.101 117.619 145.268 117.148C145.456 116.612 145.818 116.239 146.343 116.029C146.843 115.823 147.639 115.725 148.722 115.725H150.138C151.506 115.725 152.451 115.892 152.962 116.221C153.454 116.543 153.751 117.148 153.852 118.039H152.629C152.509 117.532 152.248 117.206 151.843 117.061C151.557 116.956 150.97 116.909 150.083 116.909H148.798C147.773 116.909 147.111 117.007 146.821 117.202C146.452 117.441 146.256 118.01 146.223 118.908Z" fill="white"/>
<path d="M161.401 115.505L158.985 124.472L157.957 124.473L160.38 115.507L161.401 115.505Z" fill="white"/>
<path d="M173.836 119.998V119.038C173.836 118.191 173.691 117.622 173.405 117.322C173.119 117.025 172.55 116.877 171.703 116.877H167.908V122.192H171.801C172.673 122.192 173.235 122.04 173.495 121.736C173.723 121.468 173.836 120.888 173.836 119.998ZM175.125 120.041C175.125 121.316 174.926 122.177 174.52 122.626C174.075 123.112 173.227 123.354 171.975 123.354H166.605V115.725H171.79C172.854 115.725 173.633 115.888 174.125 116.214C174.578 116.504 174.868 116.985 174.994 117.659C175.085 118.097 175.125 118.886 175.125 120.041Z" fill="white"/>
<path d="M182.423 119.998H177.242L177.249 118.89H182.423V119.998ZM185.197 121.127C185.197 122.101 184.882 122.731 184.252 123.032C183.781 123.264 182.843 123.379 181.438 123.379H179.755C178.687 123.379 177.912 123.289 177.426 123.108C176.898 122.912 176.532 122.55 176.326 122.022C176.148 121.533 176.058 120.758 176.058 119.694C176.058 118.549 176.137 117.731 176.297 117.235C176.474 116.656 176.829 116.257 177.35 116.04C177.846 115.834 178.658 115.725 179.776 115.725H181.456C182.8 115.725 183.763 115.921 184.349 116.301C184.9 116.656 185.175 117.21 185.175 117.966H183.948C183.948 117.481 183.712 117.166 183.252 117.018C182.952 116.931 182.34 116.891 181.402 116.891H179.849C178.813 116.891 178.143 116.985 177.839 117.184C177.463 117.43 177.271 118.003 177.26 118.901V119.998C177.256 121.011 177.437 121.656 177.81 121.92C178.096 122.13 178.766 122.239 179.816 122.239H181.413C182.372 122.239 182.988 122.192 183.27 122.109C183.734 121.967 183.966 121.642 183.958 121.127H185.197Z" fill="white"/>
<path d="M192.15 123.343H185.69V115.725H186.983V122.181H192.15V123.343Z" fill="white"/>
<path d="M198.221 119.998H193.036L193.044 118.89H198.221V119.998ZM200.991 121.127C200.991 122.101 200.68 122.731 200.046 123.032C199.576 123.264 198.638 123.379 197.233 123.379H195.549C194.481 123.379 193.706 123.289 193.221 123.108C192.696 122.912 192.327 122.55 192.12 122.022C191.943 121.533 191.852 120.758 191.852 119.694C191.852 118.549 191.932 117.731 192.091 117.235C192.269 116.656 192.624 116.257 193.145 116.04C193.641 115.834 194.452 115.725 195.571 115.725H197.251C198.598 115.725 199.558 115.921 200.144 116.301C200.694 116.656 200.97 117.21 200.97 117.966H199.746C199.746 117.481 199.507 117.166 199.047 117.018C198.75 116.931 198.135 116.891 197.2 116.891H195.643C194.608 116.891 193.938 116.985 193.634 117.184C193.257 117.43 193.065 118.003 193.055 118.901V119.998C193.051 121.011 193.232 121.656 193.605 121.92C193.895 122.13 194.561 122.239 195.614 122.239H197.211C198.167 122.239 198.783 122.192 199.069 122.109C199.532 121.967 199.76 121.642 199.757 121.127H200.991Z" fill="white"/>
<path d="M209.037 116.887H205.604V123.343H204.308V116.887H200.886V115.725H209.037V116.887Z" fill="white"/>
<path d="M215.452 119.998H210.267L210.278 118.89H215.452V119.998ZM218.226 121.127C218.226 122.101 217.911 122.731 217.281 123.032C216.806 123.264 215.868 123.379 214.464 123.379H212.78C211.715 123.379 210.94 123.289 210.452 123.108C209.927 122.912 209.557 122.55 209.355 122.022C209.174 121.533 209.083 120.758 209.083 119.694C209.083 118.549 209.163 117.731 209.322 117.235C209.503 116.656 209.854 116.257 210.379 116.04C210.875 115.834 211.686 115.725 212.802 115.725H214.482C215.829 115.725 216.792 115.921 217.378 116.301C217.929 116.656 218.204 117.21 218.204 117.966H216.976C216.976 117.481 216.741 117.166 216.281 117.018C215.981 116.931 215.369 116.891 214.431 116.891H212.874C211.838 116.891 211.169 116.985 210.864 117.184C210.492 117.43 210.296 118.003 210.289 118.901V119.998C210.281 121.011 210.466 121.656 210.835 121.92C211.125 122.13 211.791 122.239 212.845 122.239H214.442C215.398 122.239 216.017 122.192 216.299 122.109C216.763 121.967 216.991 121.642 216.987 121.127H218.226Z" fill="white"/>
<defs>
<filter id="filter0_d" x="0" y="0" width="287" height="361" filterUnits="userSpaceOnUse" color-interpolation-filters="sRGB">
<feFlood flood-opacity="0" result="BackgroundImageFix"/>
<feColorMatrix in="SourceAlpha" type="matrix" values="0 0 0 0 0 0 0 0 0 0 0 0 0 0 0 0 0 0 127 0"/>
<feOffset dx="4" dy="4"/>
<feGaussianBlur stdDeviation="2"/>
<feColorMatrix type="matrix" values="0 0 0 0 0 0 0 0 0 0 0 0 0 0 0 0 0 0 0.25 0"/>
<feBlend mode="normal" in2="BackgroundImageFix" result="effect1_dropShadow"/>
<feBlend mode="normal" in="SourceGraphic" in2="effect1_dropShadow" result="shape"/>
</filter>
<linearGradient id="paint0_linear" x1="88.2948" y1="49.1958" x2="88.2948" y2="141.034" gradientUnits="userSpaceOnUse">
<stop stop-color="#9D9337"/>
<stop offset="1" stop-color="#003F9E"/>
</linearGradient>
</defs>
</svg>
