<svg width="287" height="361" viewBox="0 0 287 361" fill="none" xmlns="http://www.w3.org/2000/svg">
<g filter="url(#filter0_d)">
<rect width="279" height="353" rx="8" fill="#121212"/>
<rect width="279" height="353" rx="8" fill="white" fill-opacity="0.08"/>
</g>
<path d="M251.286 319.714H242.714V328.286C242.714 329.229 241.943 330 241 330C240.057 330 239.286 329.229 239.286 328.286V319.714H230.714C229.771 319.714 229 318.943 229 318C229 317.057 229.771 316.286 230.714 316.286H239.286V307.714C239.286 306.771 240.057 306 241 306C241.943 306 242.714 306.771 242.714 307.714V316.286H251.286C252.229 316.286 253 317.057 253 318C253 318.943 252.229 319.714 251.286 319.714Z" fill="#FAFAFA"/>
<path d="M116.85 65.225C107.117 65.225 99.1949 75.9354 99.1949 89.097C99.1949 102.262 107.117 112.969 116.85 112.969C126.583 112.969 134.505 102.262 134.505 89.097C134.505 75.9354 126.583 65.225 116.85 65.225ZM116.85 114.964C106.017 114.964 97.1998 103.359 97.1998 89.097C97.1998 74.8347 106.017 63.23 116.85 63.23C127.683 63.23 136.5 74.8347 136.5 89.097C136.5 103.359 127.683 114.964 116.85 114.964Z" fill="#6F6F6F"/>
<path d="M98.4235 78.8105C93.539 78.8105 89.5706 84.3069 89.5706 91.0633C89.5706 97.8161 93.539 103.313 98.4235 103.313C103.308 103.313 107.28 97.8161 107.28 91.0633C107.28 84.3069 103.308 78.8105 98.4235 78.8105ZM98.4235 105.97C92.0762 105.97 86.9093 99.2826 86.9093 91.0633C86.9093 82.8405 92.0762 76.1528 98.4235 76.1528C104.774 76.1528 109.941 82.8405 109.941 91.0633C109.941 99.2826 104.774 105.97 98.4235 105.97Z" fill="#7A7A7A"/>
<path d="M127.877 124.078L108.408 115.558L79.456 142.374L99.8919 102.48L60.2259 82.3555L101.713 83.315L111.363 45.521L116.2 75.1066L118.144 86.9648L139.131 81.7943L123.311 102.784L127.877 124.078Z" fill="url(#paint0_radial)"/>
<path d="M66.0445 83.8521L101.677 101.927L84.058 136.325L108.133 114.024L126.023 121.853L121.877 102.499L135.818 84.0078L117.054 88.6316L111.077 52.0469L102.734 84.6994L66.0445 83.8521ZM74.8394 148.487L98.0923 103.089L54.3927 80.9229L100.681 81.991L111.645 39.0591L119.22 85.362L142.44 79.6375L124.734 103.129L129.713 126.368L108.665 117.156L74.8394 148.487Z" fill="white"/>
<path d="M154.605 91.7049V81.6587H160.219V82.7286H156.036V85.9523H159.538V87.0083H156.036V90.6349H160.51V91.7049H154.605Z" fill="white"/>
<path d="M164.073 91.7039L167.408 86.66L164.24 81.6577H165.921L168.325 85.4511L170.868 81.6577H172.215L169.006 86.5071L172.299 91.7039H170.617L168.061 87.716L165.421 91.7039H164.073Z" fill="white"/>
<path d="M177.056 91.7039V81.6577H178.487V85.8957H183.267V81.6577H184.684V91.7039H183.267V86.9657H178.487V91.7039H177.056Z" fill="white"/>
<path d="M195.467 87.8688L193.758 83.5336L192.049 87.8688H195.467ZM196.982 91.7039L195.884 88.9249H191.632L190.535 91.7039H189.201L193.189 81.6577H194.592L198.524 91.7039H196.982Z" fill="white"/>
<path d="M203.006 81.6577H204.437V87.9939C204.437 89.0082 204.618 89.7447 204.993 90.2032C205.368 90.6618 205.966 90.8841 206.772 90.8841C207.578 90.8841 208.133 90.6757 208.467 90.2449C208.8 89.8142 208.967 89.0777 208.967 88.0495V81.6577H210.218V88.0217C210.218 89.3973 209.94 90.3978 209.37 91.023C208.814 91.6483 207.911 91.954 206.688 91.954C205.424 91.954 204.507 91.6344 203.909 90.9813C203.312 90.3422 203.006 89.3417 203.006 87.98V81.6577Z" fill="white"/>
<path d="M217.796 91.9649C217.115 91.9649 216.253 91.812 215.211 91.5202V90.1168C216.337 90.6448 217.268 90.8949 218.004 90.8949C218.56 90.8949 219.004 90.756 219.352 90.4642C219.699 90.1724 219.866 89.7833 219.866 89.297C219.866 88.9079 219.755 88.5744 219.532 88.2965C219.31 88.0186 218.893 87.7129 218.296 87.3656L217.601 86.9765C216.74 86.4902 216.142 86.0177 215.795 85.587C215.433 85.1562 215.267 84.656 215.267 84.0863C215.267 83.3082 215.545 82.669 216.1 82.1688C216.67 81.6686 217.379 81.4185 218.254 81.4185C219.018 81.4185 219.838 81.5574 220.7 81.8075V83.1137C219.644 82.6968 218.852 82.4884 218.324 82.4884C217.837 82.4884 217.434 82.6134 217.115 82.8774C216.781 83.1415 216.628 83.4749 216.628 83.8779C216.628 84.2114 216.74 84.5032 216.976 84.7672C217.212 85.0173 217.643 85.323 218.268 85.6843L218.991 86.0872C219.852 86.5874 220.463 87.046 220.811 87.4906C221.144 87.9214 221.325 88.4494 221.325 89.0747C221.325 89.9362 221.005 90.6448 220.352 91.1728C219.713 91.7009 218.852 91.9649 217.796 91.9649Z" fill="white"/>
<path d="M228.819 91.7039V82.7276H225.262V81.6577H233.808V82.7276H230.251V91.7039H228.819Z" fill="white"/>
<path d="M160.274 108.455V98.4092H163.011C164.22 98.4092 165.095 98.6176 165.623 99.0345C166.151 99.4374 166.415 100.104 166.415 101.049C166.415 102.119 166.054 102.953 165.332 103.55C164.609 104.162 163.609 104.467 162.316 104.467H161.691V108.455H160.274ZM161.691 103.384H162.261C163.108 103.384 163.761 103.189 164.22 102.8C164.692 102.411 164.915 101.869 164.915 101.16C164.915 100.549 164.734 100.118 164.373 99.8682C164.012 99.6042 163.414 99.4791 162.566 99.4791H161.691V103.384Z" fill="white"/>
<path d="M174.548 108.717C173.159 108.717 172.033 108.23 171.186 107.272C170.338 106.299 169.921 105.021 169.921 103.437C169.921 101.839 170.338 100.56 171.199 99.6155C172.047 98.6567 173.186 98.1704 174.618 98.1704C176.035 98.1704 177.174 98.6567 178.022 99.6016C178.883 100.56 179.314 101.839 179.314 103.423C179.314 105.048 178.883 106.341 178.022 107.286C177.174 108.244 176.007 108.717 174.548 108.717ZM174.576 107.647C175.604 107.647 176.396 107.286 176.952 106.549C177.508 105.799 177.8 104.757 177.8 103.409C177.8 102.103 177.508 101.088 176.952 100.352C176.382 99.6016 175.604 99.2403 174.618 99.2403C173.617 99.2403 172.839 99.6155 172.269 100.352C171.714 101.088 171.436 102.117 171.436 103.437C171.436 104.743 171.714 105.771 172.269 106.521C172.825 107.272 173.589 107.647 174.576 107.647Z" fill="white"/>
<path d="M183.846 108.455V98.4092H186.583C187.792 98.4092 188.668 98.6176 189.196 99.0345C189.724 99.4374 189.988 100.104 189.988 101.049C189.988 102.119 189.627 102.953 188.904 103.55C188.181 104.162 187.181 104.467 185.889 104.467H185.263V108.455H183.846ZM185.263 103.384H185.833C186.681 103.384 187.334 103.189 187.792 102.8C188.265 102.411 188.487 101.869 188.487 101.16C188.487 100.549 188.306 100.118 187.945 99.8682C187.584 99.6042 186.986 99.4791 186.139 99.4791H185.263V103.384Z" fill="white"/>
<path d="M196.048 108.717C195.367 108.717 194.506 108.564 193.464 108.272V106.869C194.589 107.397 195.52 107.647 196.256 107.647C196.812 107.647 197.257 107.508 197.604 107.216C197.952 106.924 198.118 106.535 198.118 106.049C198.118 105.66 198.007 105.326 197.785 105.048C197.563 104.771 197.146 104.465 196.548 104.118L195.853 103.728C194.992 103.242 194.394 102.77 194.047 102.339C193.686 101.908 193.519 101.408 193.519 100.838C193.519 100.06 193.797 99.421 194.353 98.9207C194.922 98.4205 195.631 98.1704 196.507 98.1704C197.271 98.1704 198.091 98.3094 198.952 98.5595V99.8656C197.896 99.4488 197.104 99.2403 196.576 99.2403C196.09 99.2403 195.687 99.3654 195.367 99.6294C195.034 99.8934 194.881 100.227 194.881 100.63C194.881 100.963 194.992 101.255 195.228 101.519C195.464 101.769 195.895 102.075 196.52 102.436L197.243 102.839C198.104 103.339 198.716 103.798 199.063 104.243C199.397 104.673 199.577 105.201 199.577 105.827C199.577 106.688 199.258 107.397 198.605 107.925C197.966 108.453 197.104 108.717 196.048 108.717Z" fill="white"/>
<defs>
<filter id="filter0_d" x="0" y="0" width="287" height="361" filterUnits="userSpaceOnUse" color-interpolation-filters="sRGB">
<feFlood flood-opacity="0" result="BackgroundImageFix"/>
<feColorMatrix in="SourceAlpha" type="matrix" values="0 0 0 0 0 0 0 0 0 0 0 0 0 0 0 0 0 0 127 0"/>
<feOffset dx="4" dy="4"/>
<feGaussianBlur stdDeviation="2"/>
<feColorMatrix type="matrix" values="0 0 0 0 0 0 0 0 0 0 0 0 0 0 0 0 0 0 0.25 0"/>
<feBlend mode="normal" in2="BackgroundImageFix" result="effect1_dropShadow"/>
<feBlend mode="normal" in="SourceGraphic" in2="effect1_dropShadow" result="shape"/>
</filter>
<radialGradient id="paint0_radial" cx="0" cy="0" r="1" gradientUnits="userSpaceOnUse" gradientTransform="translate(107.5 94.3467) rotate(99.25) scale(48.6601 39.6427)">
<stop stop-color="#FFD43D"/>
<stop offset="1" stop-color="#E77625"/>
</radialGradient>
</defs>
</svg>
