<svg width="287" height="361" viewBox="0 0 287 361" fill="none" xmlns="http://www.w3.org/2000/svg">
<g filter="url(#filter0_d)">
<rect width="279" height="353" rx="8" fill="white" fill-opacity="0.08"/>
</g>
<path d="M251.286 319.714H242.714V328.286C242.714 329.229 241.943 330 241 330C240.057 330 239.286 329.229 239.286 328.286V319.714H230.714C229.771 319.714 229 318.943 229 318C229 317.057 229.771 316.286 230.714 316.286H239.286V307.714C239.286 306.771 240.057 306 241 306C241.943 306 242.714 306.771 242.714 307.714V316.286H251.286C252.229 316.286 253 317.057 253 318C253 318.943 252.229 319.714 251.286 319.714Z" fill="#FAFAFA"/>
<path d="M146.89 111.835L146.912 113.265C146.927 114.38 146.492 114.731 145.786 114.941L145.775 114.945C145.355 115.072 144.099 115.289 140.402 115.289H135.42C131.292 115.289 130.22 114.742 129.988 114.576C129.695 114.362 129.072 113.623 128.913 111.136H144.96V104.861H128.96C129.159 103.007 129.691 102.363 130.028 102.142C130.35 101.935 131.531 101.454 135.525 101.454H140.362C143.994 101.454 145.279 101.671 145.703 101.794C146.557 102.062 146.876 102.497 146.876 103.395V104.803H152.3C152.209 106.005 152.159 107.374 152.159 108.978C152.159 110.017 152.209 110.948 152.278 111.835H146.89ZM165.668 112.421H175.629C175.48 114.018 175.107 114.442 175.038 114.5C174.973 114.557 174.296 115.05 171.273 115.05H164.23C161.689 115.05 160.646 114.691 160.247 114.478C159.911 114.293 159.433 113.924 159.216 112.87C159.121 112.389 159.009 111.223 159.009 108.402C159.009 104.235 159.531 102.989 159.755 102.649C160.345 101.758 162.09 101.237 164.658 101.182C166.276 101.16 167.294 101.15 167.71 101.15L171.715 101.182C172.909 101.182 173.891 101.371 174.622 101.733C175.621 102.254 175.755 102.88 175.755 103.427V104.839H182.697L182.707 103.442C182.74 99.1618 180.575 97.1631 178.753 96.2434C177.019 95.3672 174.51 94.9399 171.074 94.9399H164.502C160.964 94.9399 158.386 95.3925 156.619 96.3231C154.91 97.2211 153.734 98.6839 153.053 100.625C152.557 99.1365 151.673 97.909 150.312 97.0364C148.234 95.6713 145.033 95.0087 140.536 95.0087H135.289C131.589 95.0087 128.942 95.3672 127.197 96.0986C125.173 96.9423 123.8 98.492 123.116 100.69C122.562 102.381 122.298 105.028 122.298 108.779C122.298 112.298 122.606 114.829 123.239 116.524C124.021 118.558 125.448 119.978 127.483 120.731C129.17 121.357 131.705 121.665 135.22 121.665H140.471C145.109 121.665 148.179 121.263 149.838 120.445C151.087 119.858 152.499 118.674 153.176 116.353C153.516 117.277 153.907 118.099 154.422 118.696C156.12 120.691 159.284 121.665 164.096 121.665H171.378C175.799 121.665 178.764 120.785 180.437 118.975C181.987 117.288 182.74 114.308 182.74 109.861V106.081H165.668V112.421Z" fill="white"/>
<path d="M204.418 103.8C204.418 104.843 204.227 105.777 201.935 105.777H189.501V102.062H201.935C204.418 102.062 204.418 103.108 204.418 103.8ZM210.002 108.916C210.777 107.797 211.164 106.244 211.164 104.274C211.164 101.048 210.338 98.6656 208.687 97.1846C207.141 95.8341 204.809 95.1787 201.565 95.1787H182.784V121.734H189.501V112.656L201.902 112.627C203.14 112.627 204.042 112.859 204.44 113.29C204.737 113.612 205.096 114.347 205.096 115.988V121.734H211.91V114.398C211.91 111.548 211.073 109.883 210.002 108.916Z" fill="white"/>
<path d="M106.808 132.764C104.834 135.143 100.971 133.786 100.917 130.697L100.352 97.5484L103.589 96.4694L110.008 121.265C110.957 124.918 110.088 128.803 107.68 131.707L106.808 132.764ZM117.239 123.133L112.691 94.5468C112.601 94.1883 112.51 93.8299 112.424 93.4714C113.919 91.8348 114.654 89.5283 114.067 87.1495L107.42 60.3446C106.446 56.4088 102.868 53.6787 98.8165 53.7801L69.1367 54.5115C64.9221 54.6129 61.4063 57.7738 60.8596 61.9522L57.5719 86.9214C56.9563 91.5958 60.5952 95.7489 65.3132 95.7489C65.3711 95.7489 65.4145 95.796 65.4145 95.8503V139.003C65.4145 145.35 70.5561 150.492 76.9034 150.492H89.5436V151.198C89.5436 152.994 91.0028 154.453 92.8023 154.453H96.9156C99.4864 154.453 101.862 153.081 103.14 150.85L116.374 127.844C117.188 126.417 117.496 124.755 117.239 123.133Z" fill="white"/>
<path d="M133.319 134.119V133.387C133.319 132.667 133.243 132.149 133.094 131.841C132.953 131.534 132.689 131.334 132.305 131.251C132.037 131.182 131.523 131.15 130.763 131.15H129.503C128.449 131.15 127.79 131.258 127.511 131.476C127.182 131.744 127.015 132.385 127.015 133.402V134.126C127.015 135.115 127.182 135.737 127.522 135.998C127.794 136.194 128.438 136.291 129.47 136.291H130.784C131.534 136.291 132.037 136.262 132.294 136.204C132.678 136.125 132.942 135.933 133.094 135.632C133.243 135.332 133.319 134.829 133.319 134.119ZM134.622 134.162C134.622 135.176 134.503 135.922 134.26 136.396C134.021 136.871 133.616 137.186 133.044 137.345C132.591 137.475 131.842 137.541 130.806 137.541H129.405C128.337 137.541 127.562 137.45 127.077 137.269C126.541 137.073 126.175 136.711 125.98 136.183C125.798 135.69 125.708 134.912 125.708 133.844C125.708 132.714 125.784 131.903 125.936 131.411C126.117 130.831 126.472 130.429 127.001 130.205C127.504 129.988 128.308 129.879 129.427 129.879H130.817C132.012 129.879 132.87 130.002 133.399 130.248C133.924 130.494 134.268 130.936 134.427 131.573C134.557 132.051 134.622 132.913 134.622 134.162Z" fill="white"/>
<path d="M136.796 133.065H142.166V134.162H136.796V137.544H135.58L135.591 133.587C135.591 132.537 135.674 131.776 135.84 131.306C136.029 130.77 136.391 130.397 136.916 130.187C137.415 129.98 138.212 129.879 139.298 129.879H140.71C142.079 129.879 143.024 130.049 143.535 130.379C144.031 130.701 144.328 131.306 144.429 132.196H143.201C143.082 131.689 142.821 131.363 142.419 131.219C142.13 131.114 141.543 131.063 140.656 131.063H139.374C138.346 131.063 137.683 131.164 137.394 131.356C137.024 131.599 136.829 132.167 136.796 133.065Z" fill="white"/>
<path d="M145.528 133.065H150.897V134.162H145.528V137.544H144.315L144.322 133.587C144.322 132.537 144.405 131.776 144.572 131.306C144.764 130.77 145.122 130.397 145.651 130.187C146.15 129.98 146.943 129.879 148.029 129.879H149.442C150.814 129.879 151.755 130.049 152.266 130.379C152.762 130.701 153.059 131.306 153.16 132.196H151.933C151.813 131.689 151.553 131.363 151.151 131.219C150.861 131.114 150.274 131.063 149.387 131.063H148.106C147.077 131.063 146.415 131.164 146.125 131.356C145.756 131.599 145.56 132.167 145.528 133.065Z" fill="white"/>
<path d="M160.772 129.419L158.36 138.388L157.329 138.388L159.752 129.419L160.772 129.419Z" fill="white"/>
<path d="M173.203 134.151V133.196C173.203 132.348 173.058 131.776 172.772 131.479C172.486 131.182 171.921 131.034 171.074 131.034H167.279V136.346H171.168C172.041 136.346 172.606 136.194 172.866 135.889C173.091 135.625 173.203 135.046 173.203 134.151ZM174.492 134.195C174.492 135.469 174.293 136.335 173.887 136.784C173.442 137.269 172.595 137.512 171.342 137.512H165.972V129.879H171.161C172.222 129.879 173.004 130.042 173.493 130.371C173.945 130.657 174.235 131.139 174.365 131.812C174.456 132.251 174.492 133.043 174.492 134.195Z" fill="white"/>
<path d="M181.794 134.151H176.609L176.617 133.043H181.794V134.151ZM184.568 135.281C184.568 136.255 184.253 136.885 183.619 137.186C183.148 137.414 182.211 137.533 180.806 137.533H179.122C178.054 137.533 177.279 137.439 176.794 137.258C176.269 137.066 175.9 136.704 175.693 136.175C175.516 135.687 175.425 134.912 175.425 133.847C175.425 132.703 175.505 131.885 175.664 131.389C175.845 130.809 176.196 130.411 176.722 130.194C177.218 129.988 178.029 129.879 179.144 129.879H180.824C182.171 129.879 183.13 130.074 183.717 130.455C184.267 130.809 184.542 131.363 184.542 132.117H183.319C183.319 131.631 183.08 131.32 182.62 131.172C182.323 131.085 181.711 131.045 180.773 131.045H179.216C178.181 131.045 177.511 131.139 177.207 131.338C176.83 131.584 176.638 132.156 176.631 133.054V134.151C176.624 135.165 176.805 135.806 177.178 136.074C177.467 136.284 178.134 136.393 179.187 136.393H180.784C181.74 136.393 182.355 136.346 182.642 136.262C183.105 136.121 183.333 135.795 183.329 135.281H184.568Z" fill="white"/>
<path d="M191.513 137.497H185.058V129.879H186.35V136.335H191.513V137.497Z" fill="white"/>
<path d="M197.589 134.151H192.404L192.415 133.043H197.589V134.151ZM200.362 135.281C200.362 136.255 200.047 136.885 199.417 137.186C198.943 137.414 198.005 137.533 196.6 137.533H194.917C193.852 137.533 193.077 137.439 192.592 137.258C192.064 137.066 191.694 136.704 191.491 136.175C191.31 135.687 191.22 134.912 191.22 133.847C191.22 132.703 191.3 131.885 191.459 131.389C191.64 130.809 191.991 130.411 192.516 130.194C193.012 129.988 193.823 129.879 194.938 129.879H196.619C197.965 129.879 198.929 130.074 199.515 130.455C200.066 130.809 200.341 131.363 200.341 132.117H199.113C199.113 131.631 198.878 131.32 198.418 131.172C198.118 131.085 197.506 131.045 196.568 131.045H195.011C193.975 131.045 193.305 131.139 193.001 131.338C192.628 131.584 192.433 132.156 192.426 133.054V134.151C192.418 135.165 192.603 135.806 192.972 136.074C193.262 136.284 193.928 136.393 194.982 136.393H196.579C197.535 136.393 198.154 136.346 198.436 136.262C198.9 136.121 199.131 135.795 199.124 135.281H200.362Z" fill="white"/>
<path d="M208.348 131.041H204.912V137.497H203.619V131.041H200.194V129.879H208.348V131.041Z" fill="white"/>
<path d="M214.816 134.151H209.634L209.642 133.043H214.816V134.151ZM217.589 135.281C217.589 136.255 217.274 136.885 216.644 137.186C216.174 137.414 215.236 137.533 213.831 137.533H212.144C211.079 137.533 210.304 137.439 209.819 137.258C209.29 137.066 208.925 136.704 208.718 136.175C208.541 135.687 208.45 134.912 208.45 133.847C208.45 132.703 208.527 131.885 208.689 131.389C208.867 130.809 209.222 130.411 209.743 130.194C210.239 129.988 211.05 129.879 212.169 129.879H213.849C215.192 129.879 216.156 130.074 216.742 130.455C217.292 130.809 217.568 131.363 217.568 132.117H216.34C216.34 131.631 216.105 131.32 215.645 131.172C215.344 131.085 214.733 131.045 213.795 131.045H212.241C211.206 131.045 210.532 131.139 210.232 131.338C209.855 131.584 209.66 132.156 209.653 133.054V134.151C209.649 135.165 209.83 135.806 210.199 136.074C210.489 136.284 211.159 136.393 212.209 136.393H213.806C214.762 136.393 215.381 136.346 215.663 136.262C216.127 136.121 216.358 135.795 216.351 135.281H217.589Z" fill="white"/>
<defs>
<filter id="filter0_d" x="0" y="0" width="287" height="361" filterUnits="userSpaceOnUse" color-interpolation-filters="sRGB">
<feFlood flood-opacity="0" result="BackgroundImageFix"/>
<feColorMatrix in="SourceAlpha" type="matrix" values="0 0 0 0 0 0 0 0 0 0 0 0 0 0 0 0 0 0 127 0"/>
<feOffset dx="4" dy="4"/>
<feGaussianBlur stdDeviation="2"/>
<feColorMatrix type="matrix" values="0 0 0 0 0 0 0 0 0 0 0 0 0 0 0 0 0 0 0.25 0"/>
<feBlend mode="normal" in2="BackgroundImageFix" result="effect1_dropShadow"/>
<feBlend mode="normal" in="SourceGraphic" in2="effect1_dropShadow" result="shape"/>
</filter>
</defs>
</svg>
