<svg width="371" height="389" viewBox="0 0 371 389" fill="none" xmlns="http://www.w3.org/2000/svg">
<g filter="url(#filter0_d)">
<rect x="49" y="28" width="279" height="353" rx="8" fill="white" fill-opacity="0.08"/>
</g>
<path d="M300.286 347.714H291.714V356.286C291.714 357.229 290.943 358 290 358C289.057 358 288.286 357.229 288.286 356.286V347.714H279.714C278.771 347.714 278 346.943 278 346C278 345.057 278.771 344.286 279.714 344.286H288.286V335.714C288.286 334.771 289.057 334 290 334C290.943 334 291.714 334.771 291.714 335.714V344.286H300.286C301.229 344.286 302 345.057 302 346C302 346.943 301.229 347.714 300.286 347.714Z" fill="#FAFAFA"/>
<path d="M116.428 263.692V265H110.128V256.6H116.26V257.908H111.688V260.092H115.744V261.376H111.688V263.692H116.428ZM122.77 265.12C121.922 265.12 121.154 264.936 120.466 264.568C119.786 264.192 119.25 263.676 118.858 263.02C118.474 262.364 118.282 261.624 118.282 260.8C118.282 259.976 118.478 259.236 118.87 258.58C119.262 257.924 119.798 257.412 120.478 257.044C121.166 256.668 121.934 256.48 122.782 256.48C123.47 256.48 124.098 256.6 124.666 256.84C125.234 257.08 125.714 257.428 126.106 257.884L125.098 258.832C124.49 258.176 123.742 257.848 122.854 257.848C122.278 257.848 121.762 257.976 121.306 258.232C120.85 258.48 120.494 258.828 120.238 259.276C119.982 259.724 119.854 260.232 119.854 260.8C119.854 261.368 119.982 261.876 120.238 262.324C120.494 262.772 120.85 263.124 121.306 263.38C121.762 263.628 122.278 263.752 122.854 263.752C123.742 263.752 124.49 263.42 125.098 262.756L126.106 263.716C125.714 264.172 125.23 264.52 124.654 264.76C124.086 265 123.458 265.12 122.77 265.12ZM132.099 265.12C131.243 265.12 130.471 264.936 129.783 264.568C129.095 264.192 128.555 263.676 128.163 263.02C127.771 262.356 127.575 261.616 127.575 260.8C127.575 259.984 127.771 259.248 128.163 258.592C128.555 257.928 129.095 257.412 129.783 257.044C130.471 256.668 131.243 256.48 132.099 256.48C132.955 256.48 133.727 256.668 134.415 257.044C135.103 257.412 135.643 257.924 136.035 258.58C136.427 259.236 136.623 259.976 136.623 260.8C136.623 261.624 136.427 262.364 136.035 263.02C135.643 263.676 135.103 264.192 134.415 264.568C133.727 264.936 132.955 265.12 132.099 265.12ZM132.099 263.752C132.659 263.752 133.163 263.628 133.611 263.38C134.059 263.124 134.411 262.772 134.667 262.324C134.923 261.868 135.051 261.36 135.051 260.8C135.051 260.24 134.923 259.736 134.667 259.288C134.411 258.832 134.059 258.48 133.611 258.232C133.163 257.976 132.659 257.848 132.099 257.848C131.539 257.848 131.035 257.976 130.587 258.232C130.139 258.48 129.787 258.832 129.531 259.288C129.275 259.736 129.147 260.24 129.147 260.8C129.147 261.36 129.275 261.868 129.531 262.324C129.787 262.772 130.139 263.124 130.587 263.38C131.035 263.628 131.539 263.752 132.099 263.752ZM146.49 256.6V265H145.206L140.574 259.312V265H139.026V256.6H140.31L144.942 262.288V256.6H146.49ZM153.415 265.12C152.559 265.12 151.787 264.936 151.099 264.568C150.411 264.192 149.871 263.676 149.479 263.02C149.087 262.356 148.891 261.616 148.891 260.8C148.891 259.984 149.087 259.248 149.479 258.592C149.871 257.928 150.411 257.412 151.099 257.044C151.787 256.668 152.559 256.48 153.415 256.48C154.271 256.48 155.043 256.668 155.731 257.044C156.419 257.412 156.959 257.924 157.351 258.58C157.743 259.236 157.939 259.976 157.939 260.8C157.939 261.624 157.743 262.364 157.351 263.02C156.959 263.676 156.419 264.192 155.731 264.568C155.043 264.936 154.271 265.12 153.415 265.12ZM153.415 263.752C153.975 263.752 154.479 263.628 154.927 263.38C155.375 263.124 155.727 262.772 155.983 262.324C156.239 261.868 156.367 261.36 156.367 260.8C156.367 260.24 156.239 259.736 155.983 259.288C155.727 258.832 155.375 258.48 154.927 258.232C154.479 257.976 153.975 257.848 153.415 257.848C152.855 257.848 152.351 257.976 151.903 258.232C151.455 258.48 151.103 258.832 150.847 259.288C150.591 259.736 150.463 260.24 150.463 260.8C150.463 261.36 150.591 261.868 150.847 262.324C151.103 262.772 151.455 263.124 151.903 263.38C152.351 263.628 152.855 263.752 153.415 263.752ZM168.059 265L168.047 259.432L165.287 264.04H164.591L161.831 259.504V265H160.343V256.6H161.627L164.963 262.168L168.239 256.6H169.523L169.535 265H168.059ZM176.178 262.036V265H174.618V262.06L171.318 256.6H172.986L175.446 260.692L177.93 256.6H179.466L176.178 262.036ZM187.008 257.92H184.224V256.6H191.352V257.92H188.568V265H187.008V257.92ZM196.732 265.12C195.572 265.12 194.668 264.796 194.02 264.148C193.372 263.492 193.048 262.556 193.048 261.34V256.6H194.608V261.28C194.608 262.928 195.32 263.752 196.744 263.752C198.16 263.752 198.868 262.928 198.868 261.28V256.6H200.404V261.34C200.404 262.556 200.08 263.492 199.432 264.148C198.792 264.796 197.892 265.12 196.732 265.12ZM210.803 256.6V265H209.519L204.887 259.312V265H203.339V256.6H204.623L209.255 262.288V256.6H210.803ZM220.104 263.692V265H213.804V256.6H219.936V257.908H215.364V260.092H219.42V261.376H215.364V263.692H220.104ZM230.271 265.12C229.111 265.12 228.207 264.796 227.559 264.148C226.911 263.492 226.587 262.556 226.587 261.34V256.6H228.147V261.28C228.147 262.928 228.859 263.752 230.283 263.752C231.699 263.752 232.407 262.928 232.407 261.28V256.6H233.943V261.34C233.943 262.556 233.619 263.492 232.971 264.148C232.331 264.796 231.431 265.12 230.271 265.12ZM240.334 256.6C241.062 256.6 241.694 256.72 242.23 256.96C242.774 257.2 243.19 257.544 243.478 257.992C243.766 258.44 243.91 258.972 243.91 259.588C243.91 260.196 243.766 260.728 243.478 261.184C243.19 261.632 242.774 261.976 242.23 262.216C241.694 262.456 241.062 262.576 240.334 262.576H238.438V265H236.878V256.6H240.334ZM240.262 261.256C240.942 261.256 241.458 261.112 241.81 260.824C242.162 260.536 242.338 260.124 242.338 259.588C242.338 259.052 242.162 258.64 241.81 258.352C241.458 258.064 240.942 257.92 240.262 257.92H238.438V261.256H240.262ZM252.105 257.92H249.321V256.6H256.449V257.92H253.665V265H252.105V257.92ZM266.086 265L266.074 259.432L263.314 264.04H262.618L259.858 259.504V265H258.37V256.6H259.654L262.99 262.168L266.266 256.6H267.55L267.562 265H266.086Z" fill="white" fill-opacity="0.87"/>
<g filter="url(#filter1_d)">
<path d="M245.733 160.905C244.977 162.403 243.699 163.4 241.897 163.904C240.459 164.316 238.107 164.521 234.839 164.521H230.421C227.06 164.521 224.619 164.234 223.086 163.663C221.397 163.049 220.243 161.903 219.626 160.238C219.055 158.684 218.767 156.232 218.767 152.872C218.767 149.309 219.009 146.75 219.488 145.196C220.059 143.372 221.18 142.102 222.848 141.392C224.42 140.711 226.971 140.367 230.488 140.367H234.871C238.639 140.367 241.354 140.757 243.007 141.53C244.664 142.308 245.743 143.702 246.251 145.711C246.659 147.219 246.861 149.937 246.861 153.865C246.861 157.062 246.488 159.408 245.733 160.905ZM213.047 163.354C211.652 164.156 209.247 164.553 205.819 164.553H198.725C194.268 164.553 191.323 163.698 189.886 161.984C188.605 160.48 187.966 157.449 187.966 152.907C187.966 149.479 188.193 147.002 188.651 145.469C189.201 143.621 190.262 142.308 191.837 141.53C193.413 140.757 195.858 140.367 199.169 140.367H205.783C209.14 140.367 211.539 140.778 212.98 141.601C214.942 142.698 215.925 144.788 215.925 147.868H211.745C211.77 145.494 209.733 144.305 205.645 144.305H199.204C195.982 144.305 193.938 144.887 193.072 146.051C192.409 146.946 192.079 149.068 192.079 152.424C192.079 154.894 192.157 156.527 192.316 157.325C192.547 158.56 193.129 159.426 194.062 159.93C194.999 160.433 196.575 160.685 198.793 160.685H205.68C207.621 160.685 208.991 160.526 209.793 160.206C211.141 159.678 211.801 158.595 211.78 156.949H215.957C215.957 160.125 214.988 162.261 213.047 163.354ZM175.071 140.445C178.325 140.547 180.826 141.03 182.487 141.942C184.244 142.9 185.237 144.398 185.468 146.431C185.51 146.843 185.556 148.156 185.606 150.37V153.865H160.596C160.568 157.062 161.139 159.085 162.306 159.93C163.218 160.593 165.333 160.923 168.644 160.923H173.68C176.696 160.923 178.651 160.785 179.542 160.512C181 160.079 181.721 159.053 181.699 157.431H185.606C185.606 160.49 184.609 162.488 182.625 163.425C181.139 164.156 178.179 164.521 173.751 164.521H168.442C165.078 164.521 162.637 164.234 161.107 163.663C159.443 163.049 158.286 161.903 157.647 160.238C157.076 158.709 156.792 156.264 156.792 152.907C156.792 150.973 156.867 149.359 157.012 148.017L100.995 173.893L250.339 173.198L270.274 100.534L175.071 140.445Z" fill="#00FF0A"/>
</g>
<path d="M239.569 144.676C238.728 144.47 237.103 144.367 234.704 144.367H230.73C227.419 144.367 225.329 144.708 224.459 145.396C223.409 146.237 222.884 148.26 222.884 151.457V153.757C222.884 156.862 223.423 158.824 224.495 159.647C225.339 160.265 227.383 160.57 230.627 160.57H234.771C237.131 160.57 238.714 160.481 239.534 160.297C240.747 160.048 241.585 159.445 242.053 158.501C242.525 157.554 242.756 155.96 242.756 153.721V151.425C242.756 149.14 242.529 147.515 242.071 146.542C241.613 145.57 240.783 144.949 239.569 144.676Z" fill="#00FF0A"/>
<path d="M160.592 150.43H181.727C181.681 148.191 181.638 146.97 181.592 146.764C181.383 145.575 180.563 144.812 179.126 144.468C178.189 144.241 176.358 144.127 173.644 144.127H168.743C167.796 144.127 166.979 144.159 166.224 144.213L161.429 146.221C160.901 147.19 160.606 148.567 160.592 150.43Z" fill="#00FF0A"/>
<defs>
<filter id="filter0_d" x="49" y="28" width="287" height="361" filterUnits="userSpaceOnUse" color-interpolation-filters="sRGB">
<feFlood flood-opacity="0" result="BackgroundImageFix"/>
<feColorMatrix in="SourceAlpha" type="matrix" values="0 0 0 0 0 0 0 0 0 0 0 0 0 0 0 0 0 0 127 0"/>
<feOffset dx="4" dy="4"/>
<feGaussianBlur stdDeviation="2"/>
<feColorMatrix type="matrix" values="0 0 0 0 0 0 0 0 0 0 0 0 0 0 0 0 0 0 0.25 0"/>
<feBlend mode="normal" in2="BackgroundImageFix" result="effect1_dropShadow"/>
<feBlend mode="normal" in="SourceGraphic" in2="effect1_dropShadow" result="shape"/>
</filter>
<filter id="filter1_d" x="0.994873" y="0.53418" width="369.279" height="273.359" filterUnits="userSpaceOnUse" color-interpolation-filters="sRGB">
<feFlood flood-opacity="0" result="BackgroundImageFix"/>
<feColorMatrix in="SourceAlpha" type="matrix" values="0 0 0 0 0 0 0 0 0 0 0 0 0 0 0 0 0 0 127 0"/>
<feOffset/>
<feGaussianBlur stdDeviation="50"/>
<feColorMatrix type="matrix" values="0 0 0 0 0.8 0 0 0 0 1 0 0 0 0 0 0 0 0 1 0"/>
<feBlend mode="lighten" in2="BackgroundImageFix" result="effect1_dropShadow"/>
<feBlend mode="normal" in="SourceGraphic" in2="effect1_dropShadow" result="shape"/>
</filter>
</defs>
</svg>
