<svg width="291" height="404" viewBox="0 0 291 404" fill="none" xmlns="http://www.w3.org/2000/svg">
<g filter="url(#filter0_d)">
<rect x="4" y="43" width="279" height="353" rx="8" fill="white" fill-opacity="0.08"/>
</g>
<path d="M255.286 362.714H246.714V371.286C246.714 372.229 245.943 373 245 373C244.057 373 243.286 372.229 243.286 371.286V362.714H234.714C233.771 362.714 233 361.943 233 361C233 360.057 233.771 359.286 234.714 359.286H243.286V350.714C243.286 349.771 244.057 349 245 349C245.943 349 246.714 349.771 246.714 350.714V359.286H255.286C256.229 359.286 257 360.057 257 361C257 361.943 256.229 362.714 255.286 362.714Z" fill="#FAFAFA"/>
<path d="M55.128 251.6H56.688V260H55.128V251.6ZM67.174 251.6V260H65.89L61.258 254.312V260H59.71V251.6H60.994L65.626 257.288V251.6H67.174ZM71.8789 252.92H69.0949V251.6H76.2229V252.92H73.4389V260H71.8789V252.92ZM83.1698 258.056H78.9698L78.1418 260H76.5337L80.3138 251.6H81.8498L85.6418 260H84.0098L83.1698 258.056ZM82.6537 256.832L81.0698 253.16L79.4978 256.832H82.6537ZM90.352 256.484L89.02 257.852V260H87.46V251.6H89.02V255.908L93.172 251.6H94.924L91.396 255.356L95.14 260H93.316L90.352 256.484ZM103.252 258.692V260H96.9522V251.6H103.084V252.908H98.5122V255.092H102.568V256.376H98.5122V258.692H103.252ZM108.213 249.896H109.557L105.597 261.2H104.253L108.213 249.896ZM113.314 260.12C112.666 260.12 112.038 260.028 111.43 259.844C110.83 259.66 110.354 259.416 110.002 259.112L110.542 257.9C110.886 258.172 111.306 258.396 111.802 258.572C112.306 258.74 112.81 258.824 113.314 258.824C113.938 258.824 114.402 258.724 114.706 258.524C115.018 258.324 115.174 258.06 115.174 257.732C115.174 257.492 115.086 257.296 114.91 257.144C114.742 256.984 114.526 256.86 114.262 256.772C113.998 256.684 113.638 256.584 113.182 256.472C112.542 256.32 112.022 256.168 111.622 256.016C111.23 255.864 110.89 255.628 110.602 255.308C110.322 254.98 110.182 254.54 110.182 253.988C110.182 253.524 110.306 253.104 110.554 252.728C110.81 252.344 111.19 252.04 111.694 251.816C112.206 251.592 112.83 251.48 113.566 251.48C114.078 251.48 114.582 251.544 115.078 251.672C115.574 251.8 116.002 251.984 116.362 252.224L115.87 253.436C115.502 253.22 115.118 253.056 114.718 252.944C114.318 252.832 113.93 252.776 113.554 252.776C112.938 252.776 112.478 252.88 112.174 253.088C111.878 253.296 111.73 253.572 111.73 253.916C111.73 254.156 111.814 254.352 111.982 254.504C112.158 254.656 112.378 254.776 112.642 254.864C112.906 254.952 113.266 255.052 113.722 255.164C114.346 255.308 114.858 255.46 115.258 255.62C115.658 255.772 115.998 256.008 116.278 256.328C116.566 256.648 116.71 257.08 116.71 257.624C116.71 258.088 116.582 258.508 116.326 258.884C116.078 259.26 115.698 259.56 115.186 259.784C114.674 260.008 114.05 260.12 113.314 260.12ZM131.283 251.6L128.499 260H126.843L124.767 253.784L122.655 260H120.987L118.203 251.6H119.823L121.911 257.984L124.083 251.6H125.523L127.647 258.02L129.795 251.6H131.283ZM133.304 251.6H134.864V260H133.304V251.6ZM143.382 260L141.666 257.54C141.594 257.548 141.486 257.552 141.342 257.552H139.446V260H137.886V251.6H141.342C142.07 251.6 142.702 251.72 143.238 251.96C143.782 252.2 144.198 252.544 144.486 252.992C144.774 253.44 144.918 253.972 144.918 254.588C144.918 255.22 144.762 255.764 144.45 256.22C144.146 256.676 143.706 257.016 143.13 257.24L145.062 260H143.382ZM143.346 254.588C143.346 254.052 143.17 253.64 142.818 253.352C142.466 253.064 141.95 252.92 141.27 252.92H139.446V256.268H141.27C141.95 256.268 142.466 256.124 142.818 255.836C143.17 255.54 143.346 255.124 143.346 254.588ZM147.413 251.6H148.973V258.68H153.365V260H147.413V251.6ZM160.973 252.908V255.464H165.029V256.784H160.973V260H159.413V251.6H165.545V252.908H160.973ZM167.804 251.6H169.364V258.68H173.756V260H167.804V251.6ZM181.244 258.056H177.044L176.216 260H174.608L178.388 251.6H179.924L183.716 260H182.084L181.244 258.056ZM180.728 256.832L179.144 253.16L177.572 256.832H180.728ZM188.99 251.6C189.718 251.6 190.35 251.72 190.886 251.96C191.43 252.2 191.846 252.544 192.134 252.992C192.422 253.44 192.566 253.972 192.566 254.588C192.566 255.196 192.422 255.728 192.134 256.184C191.846 256.632 191.43 256.976 190.886 257.216C190.35 257.456 189.718 257.576 188.99 257.576H187.094V260H185.534V251.6H188.99ZM188.918 256.256C189.598 256.256 190.114 256.112 190.466 255.824C190.818 255.536 190.994 255.124 190.994 254.588C190.994 254.052 190.818 253.64 190.466 253.352C190.114 253.064 189.598 252.92 188.918 252.92H187.094V256.256H188.918ZM197.595 260.12C196.947 260.12 196.319 260.028 195.711 259.844C195.111 259.66 194.635 259.416 194.283 259.112L194.823 257.9C195.167 258.172 195.587 258.396 196.083 258.572C196.587 258.74 197.091 258.824 197.595 258.824C198.219 258.824 198.683 258.724 198.987 258.524C199.299 258.324 199.455 258.06 199.455 257.732C199.455 257.492 199.367 257.296 199.191 257.144C199.023 256.984 198.807 256.86 198.543 256.772C198.279 256.684 197.919 256.584 197.463 256.472C196.823 256.32 196.303 256.168 195.903 256.016C195.511 255.864 195.171 255.628 194.883 255.308C194.603 254.98 194.463 254.54 194.463 253.988C194.463 253.524 194.587 253.104 194.835 252.728C195.091 252.344 195.471 252.04 195.975 251.816C196.487 251.592 197.111 251.48 197.847 251.48C198.359 251.48 198.863 251.544 199.359 251.672C199.855 251.8 200.283 251.984 200.643 252.224L200.151 253.436C199.783 253.22 199.399 253.056 198.999 252.944C198.599 252.832 198.211 252.776 197.835 252.776C197.219 252.776 196.759 252.88 196.455 253.088C196.159 253.296 196.011 253.572 196.011 253.916C196.011 254.156 196.095 254.352 196.263 254.504C196.439 254.656 196.659 254.776 196.923 254.864C197.187 254.952 197.547 255.052 198.003 255.164C198.627 255.308 199.139 255.46 199.539 255.62C199.939 255.772 200.279 256.008 200.559 256.328C200.847 256.648 200.991 257.08 200.991 257.624C200.991 258.088 200.863 258.508 200.607 258.884C200.359 259.26 199.979 259.56 199.467 259.784C198.955 260.008 198.331 260.12 197.595 260.12ZM211.279 260.12C210.423 260.12 209.651 259.936 208.963 259.568C208.275 259.192 207.735 258.676 207.343 258.02C206.951 257.356 206.755 256.616 206.755 255.8C206.755 254.984 206.951 254.248 207.343 253.592C207.735 252.928 208.275 252.412 208.963 252.044C209.651 251.668 210.423 251.48 211.279 251.48C212.135 251.48 212.907 251.668 213.595 252.044C214.283 252.412 214.823 252.924 215.215 253.58C215.607 254.236 215.803 254.976 215.803 255.8C215.803 256.624 215.607 257.364 215.215 258.02C214.823 258.676 214.283 259.192 213.595 259.568C212.907 259.936 212.135 260.12 211.279 260.12ZM211.279 258.752C211.839 258.752 212.343 258.628 212.791 258.38C213.239 258.124 213.591 257.772 213.847 257.324C214.103 256.868 214.231 256.36 214.231 255.8C214.231 255.24 214.103 254.736 213.847 254.288C213.591 253.832 213.239 253.48 212.791 253.232C212.343 252.976 211.839 252.848 211.279 252.848C210.719 252.848 210.215 252.976 209.767 253.232C209.319 253.48 208.967 253.832 208.711 254.288C208.455 254.736 208.327 255.24 208.327 255.8C208.327 256.36 208.455 256.868 208.711 257.324C208.967 257.772 209.319 258.124 209.767 258.38C210.215 258.628 210.719 258.752 211.279 258.752ZM219.766 252.908V255.464H223.822V256.784H219.766V260H218.206V251.6H224.338V252.908H219.766ZM228.157 252.908V255.464H232.213V256.784H228.157V260H226.597V251.6H232.729V252.908H228.157Z" fill="white" fill-opacity="0.87"/>
<g filter="url(#filter1_d)">
<path d="M149.832 117.146L146.438 121.652L153.141 128.75L156.89 123.827L149.832 117.146Z" fill="url(#paint0_linear)"/>
</g>
<g filter="url(#filter2_d)">
<path d="M135.422 136.291L132.181 140.589L136.552 148.001L128.933 150.735L127.351 146.998L122.09 153.972L122.249 154.414L121.492 154.765L113.277 165.667L122.694 161.601C122.771 161.894 122.771 162.195 122.901 162.481L124.632 166.243L140.314 145.64L135.422 136.291Z" fill="url(#paint1_linear)"/>
</g>
<g filter="url(#filter3_d)">
<path d="M143.401 125.761L139.378 131.099L145.122 139.378L149.451 133.682L143.401 125.761Z" fill="url(#paint2_linear)"/>
</g>
<g filter="url(#filter4_d)">
<path d="M107.367 168.233L108.041 167.944L116.065 157.295L113.143 158.649L105.441 113.945L107.469 113.022L120.949 150.813L126.069 144.02L111.85 110.491L113.881 109.568L130.628 137.981L133.97 133.545L120.24 107.286L122.267 106.359L137.692 128.61L141.632 123.381L126.899 104.078L128.926 103.155L144.467 119.616L147.766 115.241L128.561 97.0682C128.032 96.5686 127.261 96.4273 126.591 96.7025L101.313 107.08C100.575 107.388 100.115 108.134 100.18 108.938L104.797 166.683C104.898 167.947 106.209 168.733 107.367 168.233Z" fill="url(#paint3_linear)"/>
</g>
<g filter="url(#filter5_d)">
<path d="M158.954 125.761L155.105 130.816L162.224 138.358L155.511 141.505L151.234 135.9L146.817 141.7L147.921 143.294L144.713 144.467L125.96 169.107L133.362 185.231C134.053 186.741 135.813 187.429 137.348 186.795L165.888 174.973C167.608 174.259 168.31 172.199 167.383 170.584L154.359 147.885L171.001 140.701C172.217 140.176 172.5 138.579 171.54 137.667L158.954 125.761Z" fill="url(#paint4_linear)"/>
</g>
<path d="M69.2226 198.514H70.2292V204.452H69.2226V198.514Z" fill="white"/>
<path d="M75.2562 198.514C76.0782 198.514 76.7118 198.727 77.1717 199.151C77.6279 199.578 77.8596 200.197 77.8596 201.008V204.452H76.8494V200.882C76.8494 200.415 76.701 200.049 76.4149 199.788C76.1216 199.524 75.7378 199.394 75.2562 199.394H74.0106C73.5327 199.394 73.1452 199.524 72.8592 199.788C72.5659 200.049 72.4211 200.415 72.4211 200.882V204.452H71.4108V201.008C71.4108 200.197 71.6389 199.578 72.0988 199.151C72.555 198.727 73.1959 198.514 74.0106 198.514H75.2562Z" fill="white"/>
<path d="M81.966 199.419V202.334C81.966 202.786 82.0782 203.109 82.3136 203.297C82.4946 203.449 82.7843 203.539 83.1645 203.561V204.452H83.0993C82.3172 204.452 81.756 204.278 81.4337 203.938C81.1114 203.594 80.9485 203.029 80.9485 202.236V199.419H78.2763V198.514H84.9966V199.412L81.966 199.419Z" fill="white"/>
<path d="M89.9084 201.744H87.859C87.4208 201.744 87.095 201.787 86.8777 201.867C86.5192 202.011 86.3454 202.279 86.3454 202.681C86.3491 203.058 86.5192 203.311 86.8524 203.427C87.0443 203.5 87.3738 203.536 87.8445 203.536H89.5427C90.1329 203.536 90.5529 203.456 90.8064 203.293C91.0381 203.141 91.154 202.891 91.154 202.555C91.125 202.008 90.7122 201.736 89.9084 201.744ZM92.2221 204.488H91.1721V203.97C90.7376 204.322 90.2017 204.495 89.5608 204.495H87.8191C86.9682 204.495 86.3635 204.394 86.0232 204.198C85.5452 203.927 85.3062 203.398 85.3062 202.613H85.3243C85.3352 201.881 85.5851 201.381 86.0703 201.113C86.4215 200.922 87.0044 200.827 87.8264 200.827H89.9265C90.0967 200.827 90.285 200.853 90.4914 200.903C90.8426 200.983 91.0743 201.106 91.1866 201.276C91.183 200.585 91.0743 200.114 90.8679 199.868C90.6398 199.614 90.1944 199.491 89.5282 199.491H87.8517C86.8379 199.491 86.3418 199.785 86.3527 200.371H85.3171C85.3099 199.64 85.6249 199.122 86.2585 198.818C86.6677 198.619 87.1927 198.514 87.8191 198.514H89.6223C90.6507 198.514 91.3785 198.785 91.813 199.321C92.099 199.672 92.2475 200.1 92.2475 200.61C92.2475 200.726 92.2403 200.831 92.2221 200.918V204.488Z" fill="white"/>
<path d="M94.4048 204.452H93.3982V198.514H94.4048V200.961H95.5888C96.4252 200.961 97.0118 200.932 97.3449 200.878C97.7686 200.802 98.0582 200.657 98.2176 200.444C98.3733 200.223 98.4529 199.868 98.4529 199.379V198.514H99.4595V199.455C99.4595 200.404 99.1662 201.056 98.5869 201.41C99.1662 201.762 99.4595 202.417 99.4595 203.373V204.441H98.4529V203.442C98.4529 202.942 98.3805 202.58 98.2284 202.37C98.08 202.153 97.7975 202.011 97.3775 201.946C97.048 201.892 96.447 201.867 95.5743 201.867H94.4048V204.452Z" fill="white"/>
<path d="M106.666 200.979C106.655 200.426 106.644 200.125 106.633 200.071C106.586 199.777 106.38 199.589 106.025 199.506C105.793 199.448 105.344 199.419 104.667 199.419H103.458C102.65 199.419 102.129 199.495 101.893 199.651C101.6 199.843 101.452 200.284 101.444 200.979H106.666ZM107.625 202.721C107.625 203.478 107.379 203.97 106.89 204.206C106.521 204.383 105.793 204.477 104.692 204.477H103.385C102.552 204.477 101.948 204.405 101.571 204.264C101.158 204.112 100.872 203.829 100.713 203.416C100.572 203.036 100.503 202.431 100.503 201.606C100.503 200.712 100.561 200.074 100.688 199.69C100.829 199.241 101.104 198.93 101.51 198.76C101.901 198.597 102.527 198.514 103.4 198.514H104.71C105.681 198.514 106.391 198.64 106.854 198.894C107.288 199.129 107.535 199.502 107.593 200.002C107.603 200.107 107.614 200.429 107.625 200.979V201.841H101.444C101.437 202.631 101.578 203.134 101.868 203.34C102.093 203.503 102.614 203.587 103.432 203.587H104.678C105.424 203.587 105.905 203.554 106.13 203.485C106.488 203.377 106.666 203.123 106.658 202.721H107.625Z" fill="white"/>
<path d="M108.03 205.226L109.971 198.035L110.716 198.236L108.774 205.427L108.03 205.226Z" fill="white"/>
<path d="M118.375 202.703C118.375 203.362 118.209 203.822 117.868 204.093C117.568 204.329 117.09 204.448 116.42 204.448H113.447C112.144 204.448 111.496 203.887 111.503 202.765H112.524C112.524 203.282 112.89 203.539 113.625 203.539H116.188C116.547 203.539 116.811 203.496 116.989 203.398C117.22 203.268 117.336 203.036 117.336 202.703C117.336 202.326 117.133 202.066 116.735 201.932C116.489 201.852 116.13 201.805 115.656 201.805C115.468 201.805 115.178 201.812 114.805 201.827C114.425 201.845 114.139 201.852 113.943 201.852C113.194 201.852 112.633 201.754 112.256 201.57C111.727 201.302 111.467 200.835 111.467 200.165C111.467 199.553 111.648 199.118 112.006 198.85C112.318 198.622 112.792 198.514 113.433 198.514H116.261C117.655 198.514 118.35 199.071 118.35 200.19H117.286C117.286 199.669 116.913 199.412 116.167 199.412H113.494C112.883 199.412 112.571 199.665 112.571 200.179C112.571 200.715 113.136 200.983 114.258 200.983C114.436 200.983 114.693 200.972 115.044 200.958C115.392 200.936 115.652 200.925 115.83 200.925C116.594 200.925 117.177 201.03 117.572 201.24C118.111 201.523 118.375 202.011 118.375 202.703Z" fill="white"/>
<path d="M120.295 201.57C120.295 202.902 120.965 203.572 122.298 203.572C123.152 203.572 123.742 203.369 124.057 202.967C124.333 202.62 124.47 201.997 124.47 201.106V198.514H125.412V201.175C125.412 201.986 125.524 202.565 125.752 202.917C126.034 203.351 126.556 203.572 127.327 203.572C128.113 203.572 128.67 203.434 128.993 203.163C129.362 202.862 129.547 202.334 129.547 201.57L129.554 198.514H130.459V201.552C130.459 203.485 129.536 204.452 127.682 204.452C126.954 204.452 126.429 204.401 126.114 204.307C125.596 204.155 125.202 203.826 124.937 203.322C124.524 204.072 123.8 204.452 122.761 204.452C122.033 204.452 121.555 204.43 121.327 204.39C120.031 204.177 119.379 203.232 119.379 201.552V198.514H120.288L120.295 201.57Z" fill="white"/>
<path d="M131.715 198.514H132.721V204.452H131.715V198.514Z" fill="white"/>
<path d="M137.733 199.394H136.495C136.039 199.394 135.662 199.528 135.354 199.803C135.05 200.078 134.898 200.436 134.898 200.882V204.448H133.888V198.514H134.898V199.292C135.257 198.771 135.792 198.514 136.495 198.514H137.733C138.403 198.514 138.939 198.655 139.345 198.937C139.794 199.256 140.033 199.719 140.058 200.324H139.048C138.975 199.705 138.537 199.394 137.733 199.394Z" fill="white"/>
<path d="M143.898 204.452C142.695 204.452 141.91 204.267 141.548 203.905C141.175 203.539 140.997 202.761 141.008 201.57L141.026 198.514H142.033L142.026 201.794C142.026 202.569 142.163 203.069 142.431 203.282C142.652 203.46 143.155 203.543 143.941 203.543H146.483V204.452H143.898Z" fill="white"/>
<path d="M151.275 200.998H155.457V201.852H151.275V204.488H150.326L150.337 201.403C150.337 200.585 150.398 199.995 150.529 199.625C150.677 199.209 150.956 198.919 151.369 198.753C151.76 198.593 152.379 198.514 153.223 198.514H154.327C155.392 198.514 156.127 198.648 156.525 198.905C156.912 199.155 157.141 199.625 157.224 200.32H156.264C156.177 199.922 155.971 199.672 155.652 199.56C155.424 199.48 154.972 199.437 154.28 199.437H153.284C152.481 199.437 151.966 199.517 151.742 199.669C151.456 199.853 151.3 200.299 151.275 200.998Z" fill="white"/>
<path d="M160.411 204.452C159.208 204.452 158.423 204.267 158.061 203.905C157.688 203.539 157.51 202.761 157.521 201.57L157.539 198.514H158.546L158.539 201.794C158.539 202.569 158.676 203.069 158.944 203.282C159.165 203.46 159.668 203.543 160.454 203.543H162.996V204.452H160.411Z" fill="white"/>
<path d="M167.908 201.744H165.862C165.42 201.744 165.094 201.787 164.877 201.867C164.522 202.011 164.345 202.279 164.345 202.681C164.352 203.058 164.518 203.311 164.852 203.427C165.043 203.5 165.377 203.536 165.844 203.536H167.546C168.132 203.536 168.556 203.456 168.806 203.293C169.037 203.141 169.157 202.891 169.157 202.555C169.128 202.008 168.711 201.736 167.908 201.744ZM170.221 204.488H169.171V203.97C168.737 204.322 168.201 204.495 167.56 204.495H165.818C164.967 204.495 164.363 204.394 164.022 204.198C163.548 203.927 163.309 203.398 163.309 202.613H163.327C163.338 201.881 163.588 201.381 164.073 201.113C164.424 200.922 165.007 200.827 165.826 200.827H167.926C168.096 200.827 168.284 200.853 168.494 200.903C168.845 200.983 169.074 201.106 169.189 201.276C169.182 200.585 169.074 200.114 168.871 199.868C168.643 199.614 168.197 199.491 167.531 199.491H165.851C164.837 199.491 164.341 199.785 164.356 200.371H163.316C163.313 199.64 163.628 199.122 164.258 198.818C164.671 198.619 165.192 198.514 165.818 198.514H167.622C168.65 198.514 169.381 198.785 169.816 199.321C170.102 199.672 170.247 200.1 170.247 200.61C170.247 200.726 170.243 200.831 170.221 200.918V204.488Z" fill="white"/>
<path d="M175.391 199.495H172.385V201.291H175.409C175.76 201.291 176.01 201.24 176.162 201.139C176.358 201.008 176.452 200.777 176.452 200.447C176.452 200.06 176.372 199.806 176.22 199.683C176.064 199.56 175.785 199.495 175.391 199.495ZM175.311 202.283H172.385V204.452H171.386V198.514H175.391C176.177 198.514 176.716 198.662 177.009 198.952C177.303 199.241 177.447 199.774 177.447 200.556C177.447 201.247 177.252 201.725 176.857 201.986C176.549 202.182 176.035 202.283 175.311 202.283Z" fill="white"/>
<path d="M185.011 202.703C185.011 203.362 184.84 203.822 184.504 204.093C184.203 204.329 183.722 204.448 183.055 204.448H180.083C178.779 204.448 178.131 203.887 178.135 202.765H179.159C179.159 203.282 179.525 203.539 180.26 203.539H182.824C183.182 203.539 183.443 203.496 183.62 203.398C183.856 203.268 183.968 203.036 183.968 202.703C183.968 202.326 183.769 202.066 183.37 201.932C183.124 201.852 182.766 201.805 182.291 201.805C182.099 201.805 181.813 201.812 181.437 201.827C181.06 201.845 180.774 201.852 180.579 201.852C179.829 201.852 179.264 201.754 178.891 201.57C178.363 201.302 178.102 200.835 178.102 200.165C178.102 199.553 178.279 199.118 178.642 198.85C178.953 198.622 179.427 198.514 180.065 198.514H182.896C184.29 198.514 184.985 199.071 184.985 200.19H183.917C183.917 199.669 183.544 199.412 182.802 199.412H180.13C179.514 199.412 179.206 199.665 179.206 200.179C179.206 200.715 179.771 200.983 180.894 200.983C181.071 200.983 181.328 200.972 181.676 200.958C182.023 200.936 182.284 200.925 182.462 200.925C183.229 200.925 183.812 201.03 184.207 201.24C184.743 201.523 185.011 202.011 185.011 202.703Z" fill="white"/>
<path d="M195.715 201.816V201.251C195.715 200.686 195.657 200.281 195.545 200.042C195.432 199.799 195.226 199.647 194.925 199.582C194.715 199.528 194.317 199.502 193.723 199.502H192.742C191.92 199.502 191.406 199.589 191.192 199.759C190.932 199.966 190.801 200.469 190.801 201.258V201.827C190.801 202.594 190.935 203.08 191.199 203.282C191.41 203.434 191.913 203.511 192.717 203.511H193.741C194.321 203.511 194.715 203.489 194.915 203.442C195.215 203.384 195.425 203.235 195.537 202.996C195.653 202.765 195.715 202.37 195.715 201.816ZM196.729 201.852C196.729 202.641 196.638 203.221 196.45 203.59C196.261 203.963 195.946 204.206 195.501 204.329C195.146 204.434 194.567 204.485 193.756 204.485H192.662C191.833 204.485 191.232 204.416 190.852 204.275C190.435 204.122 190.149 203.84 189.997 203.424C189.856 203.043 189.784 202.435 189.784 201.602C189.784 200.722 189.845 200.089 189.961 199.709C190.102 199.256 190.381 198.941 190.794 198.767C191.185 198.597 191.811 198.514 192.68 198.514H193.767C194.697 198.514 195.367 198.608 195.776 198.803C196.189 198.995 196.453 199.336 196.577 199.835C196.682 200.208 196.729 200.878 196.729 201.852Z" fill="white"/>
<path d="M198.764 200.998H202.947V201.852H198.764V204.488H197.816L197.827 201.403C197.827 200.585 197.892 199.995 198.019 199.625C198.167 199.209 198.446 198.919 198.859 198.753C199.25 198.593 199.869 198.514 200.713 198.514H201.817C202.881 198.514 203.616 198.648 204.015 198.905C204.402 199.155 204.63 199.625 204.714 200.32H203.754C203.667 199.922 203.461 199.672 203.142 199.56C202.918 199.48 202.461 199.437 201.77 199.437H200.774C199.97 199.437 199.456 199.517 199.232 199.669C198.946 199.853 198.79 200.299 198.764 200.998Z" fill="white"/>
<path d="M205.914 200.998H210.093V201.852H205.914V204.488H204.965L204.973 201.403C204.973 200.585 205.038 199.995 205.165 199.625C205.317 199.209 205.592 198.919 206.005 198.753C206.396 198.593 207.015 198.514 207.859 198.514H208.963C210.031 198.514 210.763 198.648 211.164 198.905C211.548 199.155 211.776 199.625 211.86 200.32H210.904C210.813 199.922 210.607 199.672 210.292 199.56C210.064 199.48 209.607 199.437 208.919 199.437H207.92C207.116 199.437 206.602 199.517 206.378 199.669C206.092 199.853 205.936 200.299 205.914 200.998Z" fill="white"/>
<defs>
<filter id="filter0_d" x="4" y="43" width="287" height="361" filterUnits="userSpaceOnUse" color-interpolation-filters="sRGB">
<feFlood flood-opacity="0" result="BackgroundImageFix"/>
<feColorMatrix in="SourceAlpha" type="matrix" values="0 0 0 0 0 0 0 0 0 0 0 0 0 0 0 0 0 0 127 0"/>
<feOffset dx="4" dy="4"/>
<feGaussianBlur stdDeviation="2"/>
<feColorMatrix type="matrix" values="0 0 0 0 0 0 0 0 0 0 0 0 0 0 0 0 0 0 0.25 0"/>
<feBlend mode="normal" in2="BackgroundImageFix" result="effect1_dropShadow"/>
<feBlend mode="normal" in="SourceGraphic" in2="effect1_dropShadow" result="shape"/>
</filter>
<filter id="filter1_d" x="45.4537" y="21.146" width="212.092" height="211.623" filterUnits="userSpaceOnUse" color-interpolation-filters="sRGB">
<feFlood flood-opacity="0" result="BackgroundImageFix"/>
<feColorMatrix in="SourceAlpha" type="matrix" values="0 0 0 0 0 0 0 0 0 0 0 0 0 0 0 0 0 0 127 0"/>
<feOffset dy="4"/>
<feGaussianBlur stdDeviation="50"/>
<feColorMatrix type="matrix" values="0 0 0 0 0.86 0 0 0 0 0 0 0 0 0 1 0 0 0 1 0"/>
<feBlend mode="normal" in2="BackgroundImageFix" result="effect1_dropShadow"/>
<feBlend mode="normal" in="SourceGraphic" in2="effect1_dropShadow" result="shape"/>
</filter>
<filter id="filter2_d" x="13.2766" y="40.291" width="227.037" height="229.952" filterUnits="userSpaceOnUse" color-interpolation-filters="sRGB">
<feFlood flood-opacity="0" result="BackgroundImageFix"/>
<feColorMatrix in="SourceAlpha" type="matrix" values="0 0 0 0 0 0 0 0 0 0 0 0 0 0 0 0 0 0 127 0"/>
<feOffset dy="4"/>
<feGaussianBlur stdDeviation="50"/>
<feColorMatrix type="matrix" values="0 0 0 0 0.86 0 0 0 0 0 0 0 0 0 1 0 0 0 1 0"/>
<feBlend mode="normal" in2="BackgroundImageFix" result="effect1_dropShadow"/>
<feBlend mode="normal" in="SourceGraphic" in2="effect1_dropShadow" result="shape"/>
</filter>
<filter id="filter3_d" x="37.4793" y="29.7612" width="213.587" height="213.634" filterUnits="userSpaceOnUse" color-interpolation-filters="sRGB">
<feFlood flood-opacity="0" result="BackgroundImageFix"/>
<feColorMatrix in="SourceAlpha" type="matrix" values="0 0 0 0 0 0 0 0 0 0 0 0 0 0 0 0 0 0 127 0"/>
<feOffset dy="4"/>
<feGaussianBlur stdDeviation="50"/>
<feColorMatrix type="matrix" values="0 0 0 0 0.86 0 0 0 0 0 0 0 0 0 1 0 0 0 1 0"/>
<feBlend mode="normal" in2="BackgroundImageFix" result="effect1_dropShadow"/>
<feBlend mode="normal" in="SourceGraphic" in2="effect1_dropShadow" result="shape"/>
</filter>
<filter id="filter4_d" x="0.173889" y="0.563965" width="247.592" height="271.822" filterUnits="userSpaceOnUse" color-interpolation-filters="sRGB">
<feFlood flood-opacity="0" result="BackgroundImageFix"/>
<feColorMatrix in="SourceAlpha" type="matrix" values="0 0 0 0 0 0 0 0 0 0 0 0 0 0 0 0 0 0 127 0"/>
<feOffset dy="4"/>
<feGaussianBlur stdDeviation="50"/>
<feColorMatrix type="matrix" values="0 0 0 0 0.86 0 0 0 0 0 0 0 0 0 1 0 0 0 1 0"/>
<feBlend mode="normal" in2="BackgroundImageFix" result="effect1_dropShadow"/>
<feBlend mode="normal" in="SourceGraphic" in2="effect1_dropShadow" result="shape"/>
</filter>
<filter id="filter5_d" x="25.9604" y="29.7612" width="246.155" height="261.269" filterUnits="userSpaceOnUse" color-interpolation-filters="sRGB">
<feFlood flood-opacity="0" result="BackgroundImageFix"/>
<feColorMatrix in="SourceAlpha" type="matrix" values="0 0 0 0 0 0 0 0 0 0 0 0 0 0 0 0 0 0 127 0"/>
<feOffset dy="4"/>
<feGaussianBlur stdDeviation="50"/>
<feColorMatrix type="matrix" values="0 0 0 0 0.86 0 0 0 0 0 0 0 0 0 1 0 0 0 1 0"/>
<feBlend mode="normal" in2="BackgroundImageFix" result="effect1_dropShadow"/>
<feBlend mode="normal" in="SourceGraphic" in2="effect1_dropShadow" result="shape"/>
</filter>
<linearGradient id="paint0_linear" x1="147.643" y1="120.053" x2="155.357" y2="125.863" gradientUnits="userSpaceOnUse">
<stop stop-color="#DB00FF"/>
<stop offset="1" stop-color="#EE1DB3"/>
</linearGradient>
<linearGradient id="paint1_linear" x1="126.795" y1="136.291" x2="126.795" y2="166.243" gradientUnits="userSpaceOnUse">
<stop stop-color="#DB00FF"/>
<stop offset="1" stop-color="#EE1DB3"/>
</linearGradient>
<linearGradient id="paint2_linear" x1="140.44" y1="129.689" x2="148.105" y2="135.467" gradientUnits="userSpaceOnUse">
<stop stop-color="#DB00FF"/>
<stop offset="1" stop-color="#EE1DB3"/>
</linearGradient>
<linearGradient id="paint3_linear" x1="123.97" y1="96.564" x2="123.97" y2="168.385" gradientUnits="userSpaceOnUse">
<stop stop-color="#DB00FF"/>
<stop offset="1" stop-color="#EE1DB3"/>
</linearGradient>
<linearGradient id="paint4_linear" x1="149.038" y1="125.761" x2="149.038" y2="187.03" gradientUnits="userSpaceOnUse">
<stop stop-color="#DB00FF"/>
<stop offset="1" stop-color="#EE1DB3"/>
</linearGradient>
</defs>
</svg>
