<svg width="287" height="361" viewBox="0 0 287 361" fill="none" xmlns="http://www.w3.org/2000/svg">
<g filter="url(#filter0_d)">
<rect width="279" height="353" rx="8" fill="white" fill-opacity="0.08"/>
<rect width="279" height="353" rx="8" fill="#121212" fill-opacity="0.08"/>
</g>
<path d="M251.286 319.714H242.714V328.286C242.714 329.229 241.943 330 241 330C240.057 330 239.286 329.229 239.286 328.286V319.714H230.714C229.771 319.714 229 318.943 229 318C229 317.057 229.771 316.286 230.714 316.286H239.286V307.714C239.286 306.771 240.057 306 241 306C241.943 306 242.714 306.771 242.714 307.714V316.286H251.286C252.229 316.286 253 317.057 253 318C253 318.943 252.229 319.714 251.286 319.714Z" fill="#FAFAFA"/>
<path d="M184.442 117.315L117.982 115.921C114.037 115.838 110.357 114.223 107.62 111.37C104.891 108.521 103.432 104.776 103.512 100.831C103.686 92.7844 110.284 86.3569 118.291 86.3569H118.599L168.542 87.4058C170.309 87.4748 172.189 86.7562 173.547 85.4569C174.9 84.1576 175.67 82.4083 175.706 80.5319L175.724 79.8278C175.76 77.9551 175.071 76.1767 173.772 74.823C172.469 73.4657 170.727 72.6999 168.847 72.66L105.196 71.3244L105.363 63.5649L169.01 64.9005C172.955 64.9876 176.639 66.599 179.372 69.4517C182.105 72.3007 183.563 76.0461 183.48 79.9948L183.465 80.6989C183.382 84.6439 181.771 88.3204 178.922 91.0569C176.069 93.7897 172.451 95.2088 168.375 95.1652L118.436 94.1164C114.549 93.9893 111.348 97.1214 111.272 100.994C111.228 102.867 111.928 104.645 113.22 105.999C114.52 107.356 116.269 108.122 118.142 108.162L184.609 109.555L184.442 117.315Z" fill="white"/>
<path d="M123.512 70.8022L95.2948 74.4315L95.59 60.3678L125.055 64.5039L123.512 70.8022Z" fill="white"/>
<path d="M95.9204 60.8088L95.641 74.0884L123.231 70.5389L124.625 64.8373L95.9204 60.8088ZM94.9369 74.8723L95.2454 60.0176L125.477 64.2602L123.79 71.1632L94.9369 74.8723Z" fill="white"/>
<path d="M122.85 142.909L122.893 140.895C122.933 138.895 122.763 137.465 122.367 136.605C121.979 135.749 121.242 135.186 120.16 134.921C119.406 134.729 117.954 134.606 115.805 134.562L112.238 134.486C109.269 134.424 107.389 134.685 106.598 135.27C105.643 135.988 105.132 137.752 105.073 140.554L105.034 142.565C104.972 145.287 105.418 147.018 106.366 147.758C107.113 148.313 108.942 148.622 111.849 148.684L115.566 148.763C117.674 148.807 119.101 148.756 119.841 148.611C120.934 148.415 121.696 147.903 122.135 147.083C122.57 146.259 122.81 144.869 122.85 142.909ZM126.537 143.105C126.475 145.907 126.098 147.958 125.39 149.253C124.69 150.549 123.525 151.402 121.895 151.808C120.6 152.142 118.484 152.277 115.555 152.215L111.592 152.131C108.579 152.07 106.395 151.772 105.034 151.242C103.531 150.672 102.515 149.649 101.992 148.176C101.51 146.804 101.303 144.648 101.361 141.704C101.426 138.583 101.687 136.348 102.148 134.994C102.693 133.404 103.72 132.315 105.23 131.724C106.652 131.158 108.946 130.904 112.096 130.969L116.03 131.052C119.413 131.121 121.837 131.513 123.307 132.228C124.777 132.936 125.717 134.177 126.131 135.952C126.472 137.277 126.606 139.661 126.537 143.105Z" fill="white"/>
<path d="M111.391 134.974C108.459 134.974 107.312 135.344 106.869 135.671C106.303 136.096 105.61 137.297 105.544 140.571L105.501 142.585C105.428 145.757 106.081 146.947 106.648 147.386C107.09 147.72 108.364 148.138 111.841 148.21L115.558 148.286C117.608 148.334 119.02 148.283 119.735 148.145C120.682 147.974 121.317 147.557 121.687 146.867C122.087 146.116 122.308 144.788 122.352 142.911L122.388 140.897C122.431 138.977 122.268 137.605 121.909 136.818C121.582 136.096 120.962 135.635 120.029 135.406C119.307 135.217 117.877 135.101 115.775 135.058L112.211 134.981C111.925 134.978 111.652 134.974 111.391 134.974ZM116.944 149.274C116.512 149.274 116.048 149.266 115.539 149.259L111.819 149.179C108.782 149.114 106.894 148.78 106.056 148.156C104.964 147.299 104.466 145.474 104.528 142.563L104.572 140.556C104.633 137.569 105.192 135.718 106.288 134.894C107.178 134.234 109.072 133.954 112.229 134.012L115.797 134.085C118.004 134.136 119.466 134.256 120.265 134.462C121.481 134.76 122.333 135.421 122.794 136.415C123.223 137.351 123.404 138.825 123.361 140.919L123.317 142.93C123.273 144.987 123.019 146.428 122.54 147.321C122.036 148.276 121.15 148.874 119.913 149.099C119.314 149.216 118.338 149.274 116.944 149.274ZM111.13 131.457C108.535 131.457 106.608 131.701 105.388 132.187C104.006 132.728 103.087 133.7 102.586 135.163C102.147 136.462 101.893 138.672 101.828 141.728C101.77 144.603 101.973 146.722 102.434 148.025C102.909 149.368 103.81 150.275 105.189 150.802C106.492 151.306 108.64 151.596 111.587 151.658L115.55 151.742C118.403 151.807 120.504 151.673 121.756 151.35C123.263 150.972 124.308 150.217 124.943 149.034C125.611 147.807 125.981 145.815 126.032 143.107C126.104 139.718 125.974 137.355 125.647 136.081C125.262 134.437 124.42 133.326 123.077 132.673C121.677 131.998 119.299 131.617 116.004 131.548L112.07 131.468C111.75 131.461 111.435 131.457 111.13 131.457ZM116.882 152.725C116.45 152.725 116 152.721 115.525 152.711L111.562 152.627C108.466 152.562 106.267 152.26 104.84 151.709C103.207 151.085 102.089 149.952 101.516 148.352C101.015 146.915 100.797 144.741 100.859 141.706C100.924 138.509 101.186 136.266 101.668 134.851C102.26 133.123 103.396 131.929 105.029 131.287C106.531 130.684 108.793 130.423 112.092 130.499L116.026 130.579C119.51 130.652 121.956 131.051 123.502 131.802C125.103 132.579 126.141 133.94 126.587 135.849C126.935 137.217 127.073 139.602 127.001 143.126C126.939 146.029 126.551 148.116 125.796 149.495C125.037 150.91 123.753 151.85 121.996 152.29C120.853 152.583 119.176 152.725 116.882 152.725Z" fill="white"/>
<path d="M147.285 143.398L134.325 143.126L134.194 149.372L147.31 149.644C149.644 149.695 150.838 148.639 150.882 146.476C150.925 144.476 149.727 143.449 147.285 143.398ZM146.73 134.916L134.503 134.662L134.39 139.943L146.646 140.201C148.82 140.248 149.923 139.409 149.956 137.689C149.996 135.885 148.918 134.963 146.73 134.916ZM147.702 152.838L130.467 152.475L130.91 131.432L146.762 131.762C148.936 131.81 150.566 132.176 151.658 132.858C152.99 133.726 153.636 135.163 153.593 137.163C153.571 138.306 153.473 139.173 153.295 139.769C153.008 140.705 152.468 141.355 151.658 141.718C153.611 142.298 154.562 143.993 154.504 146.791C154.456 149.034 153.887 150.613 152.805 151.531C151.72 152.449 150.018 152.885 147.702 152.838Z" fill="white"/>
<path d="M134.878 139.492L146.648 139.739C146.703 139.742 146.753 139.742 146.808 139.742C149.12 139.742 149.443 138.654 149.468 137.699C149.479 136.944 149.279 136.4 148.855 136.037C148.405 135.652 147.683 135.445 146.706 135.427L134.965 135.18L134.878 139.492ZM146.801 140.711C146.746 140.711 146.688 140.711 146.626 140.708L133.888 140.443L134.018 134.19L146.732 134.454C147.937 134.48 148.866 134.763 149.483 135.3C150.136 135.859 150.459 136.672 150.434 137.721C150.405 139.093 149.748 140.711 146.801 140.711ZM134.679 148.917L147.312 149.182C148.303 149.211 149.127 148.993 149.621 148.551C150.121 148.112 150.372 147.436 150.386 146.493C150.412 145.408 150.111 143.963 147.269 143.905L134.788 143.644L134.679 148.917ZM147.454 150.155H147.291L133.688 149.868L133.84 142.653L147.291 142.936C150.709 143.009 151.395 144.918 151.359 146.511C151.334 147.727 150.967 148.656 150.267 149.277C149.61 149.857 148.662 150.155 147.454 150.155ZM147.708 152.376C149.933 152.423 151.497 152.02 152.484 151.182C153.449 150.365 153.968 148.892 154.008 146.805C154.063 144.228 153.246 142.722 151.511 142.203L150.263 141.833L151.453 141.296C152.128 140.994 152.575 140.457 152.825 139.648C152.981 139.111 153.076 138.273 153.101 137.173C153.141 135.336 152.578 134.063 151.388 133.286C150.379 132.658 148.819 132.313 146.746 132.273L131.376 131.947L130.959 152.024L147.708 152.376ZM148.042 153.349C147.926 153.349 147.806 153.345 147.683 153.345L129.964 152.975L130.429 130.959L146.764 131.301C149.014 131.348 150.746 131.74 151.907 132.469C153.391 133.438 154.117 135.024 154.07 137.195C154.045 138.396 153.939 139.289 153.754 139.931C153.537 140.646 153.177 141.219 152.687 141.648C154.266 142.512 155.035 144.246 154.981 146.827C154.927 149.2 154.302 150.917 153.108 151.922C151.976 152.88 150.317 153.349 148.042 153.349Z" fill="white"/>
<path d="M178.467 144.132L178.525 141.49C178.573 139.149 178.202 137.56 177.408 136.721C176.616 135.887 175.023 135.44 172.628 135.389L161.907 135.164L161.598 149.845L172.595 150.077C175.056 150.128 176.66 149.74 177.415 148.916C178.064 148.19 178.416 146.593 178.467 144.132ZM182.122 144.328C182.046 147.852 181.422 150.222 180.249 151.438C178.972 152.752 176.566 153.373 173.02 153.296L157.838 152.981L158.281 131.905L172.94 132.214C175.952 132.275 178.141 132.773 179.516 133.702C180.768 134.529 181.563 135.879 181.89 137.748C182.111 138.953 182.187 141.149 182.122 144.328Z" fill="white"/>
<path d="M162.087 149.39L172.597 149.611C172.735 149.615 172.873 149.615 173.003 149.615C175.573 149.615 176.622 149.074 177.05 148.61C177.435 148.178 177.914 147.045 177.979 144.146L178.034 141.503C178.077 139.304 177.747 137.816 177.05 137.076C176.357 136.343 174.862 135.943 172.608 135.896L162.373 135.682L162.087 149.39ZM173.011 150.584C172.873 150.584 172.724 150.584 172.575 150.58L161.096 150.341L161.422 134.691L172.63 134.927C175.185 134.982 176.858 135.468 177.754 136.408C178.643 137.355 179.054 139.025 178.999 141.522L178.948 144.167C178.89 146.77 178.502 148.435 177.765 149.259C176.952 150.152 175.395 150.584 173.011 150.584ZM158.33 152.526L173.029 152.834C176.419 152.885 178.72 152.33 179.896 151.121C180.973 150.003 181.558 147.724 181.63 144.338C181.692 141.199 181.619 139.017 181.405 137.856C181.1 136.107 180.393 134.887 179.242 134.129C177.947 133.254 175.823 132.782 172.924 132.721L158.751 132.423L158.33 152.526ZM173.595 153.81C173.399 153.81 173.203 153.807 173.003 153.803L157.336 153.476L157.8 131.432L172.945 131.748C176.074 131.817 178.313 132.332 179.783 133.323C181.14 134.219 182.008 135.689 182.363 137.685C182.588 138.927 182.665 141.108 182.599 144.36V144.363C182.523 148.047 181.866 150.479 180.592 151.796C179.275 153.15 176.985 153.81 173.595 153.81Z" fill="white"/>
<defs>
<filter id="filter0_d" x="0" y="0" width="287" height="361" filterUnits="userSpaceOnUse" color-interpolation-filters="sRGB">
<feFlood flood-opacity="0" result="BackgroundImageFix"/>
<feColorMatrix in="SourceAlpha" type="matrix" values="0 0 0 0 0 0 0 0 0 0 0 0 0 0 0 0 0 0 127 0"/>
<feOffset dx="4" dy="4"/>
<feGaussianBlur stdDeviation="2"/>
<feColorMatrix type="matrix" values="0 0 0 0 0 0 0 0 0 0 0 0 0 0 0 0 0 0 0.25 0"/>
<feBlend mode="normal" in2="BackgroundImageFix" result="effect1_dropShadow"/>
<feBlend mode="normal" in="SourceGraphic" in2="effect1_dropShadow" result="shape"/>
</filter>
</defs>
</svg>
