<svg width="287" height="361" viewBox="0 0 287 361" fill="none" xmlns="http://www.w3.org/2000/svg">
<g filter="url(#filter0_d)">
<rect width="279" height="353" rx="8" fill="white" fill-opacity="0.08"/>
</g>
<path d="M251.286 319.714H242.714V328.286C242.714 329.229 241.943 330 241 330C240.057 330 239.286 329.229 239.286 328.286V319.714H230.714C229.771 319.714 229 318.943 229 318C229 317.057 229.771 316.286 230.714 316.286H239.286V307.714C239.286 306.771 240.057 306 241 306C241.943 306 242.714 306.771 242.714 307.714V316.286H251.286C252.229 316.286 253 317.057 253 318C253 318.943 252.229 319.714 251.286 319.714Z" fill="#FAFAFA"/>
<path d="M51.592 233.6V242H50.032V238.4H45.688V242H44.128V233.6H45.688V237.068H50.032V233.6H51.592ZM54.5928 233.6H56.1528V242H54.5928V233.6ZM58.7069 238.04H62.0069V239.288H58.7069V238.04ZM67.9981 233.6C68.7261 233.6 69.3581 233.72 69.8941 233.96C70.4381 234.2 70.8541 234.544 71.1421 234.992C71.4301 235.44 71.5741 235.972 71.5741 236.588C71.5741 237.196 71.4301 237.728 71.1421 238.184C70.8541 238.632 70.4381 238.976 69.8941 239.216C69.3581 239.456 68.7261 239.576 67.9981 239.576H66.1021V242H64.5421V233.6H67.9981ZM67.9261 238.256C68.6061 238.256 69.1221 238.112 69.4741 237.824C69.8261 237.536 70.0021 237.124 70.0021 236.588C70.0021 236.052 69.8261 235.64 69.4741 235.352C69.1221 235.064 68.6061 234.92 67.9261 234.92H66.1021V238.256H67.9261ZM80.1819 240.692V242H73.8819V233.6H80.0139V234.908H75.4419V237.092H79.4979V238.376H75.4419V240.692H80.1819ZM88.167 242L86.451 239.54C86.379 239.548 86.271 239.552 86.127 239.552H84.231V242H82.671V233.6H86.127C86.855 233.6 87.487 233.72 88.023 233.96C88.567 234.2 88.983 234.544 89.271 234.992C89.559 235.44 89.703 235.972 89.703 236.588C89.703 237.22 89.547 237.764 89.235 238.22C88.931 238.676 88.491 239.016 87.915 239.24L89.847 242H88.167ZM88.131 236.588C88.131 236.052 87.955 235.64 87.603 235.352C87.251 235.064 86.735 234.92 86.055 234.92H84.231V238.268H86.055C86.735 238.268 87.251 238.124 87.603 237.836C87.955 237.54 88.131 237.124 88.131 236.588ZM93.7583 234.908V237.464H97.8143V238.784H93.7583V242H92.1983V233.6H98.3303V234.908H93.7583ZM104.419 242.12C103.563 242.12 102.791 241.936 102.103 241.568C101.415 241.192 100.875 240.676 100.483 240.02C100.091 239.356 99.8952 238.616 99.8952 237.8C99.8952 236.984 100.091 236.248 100.483 235.592C100.875 234.928 101.415 234.412 102.103 234.044C102.791 233.668 103.563 233.48 104.419 233.48C105.275 233.48 106.047 233.668 106.735 234.044C107.423 234.412 107.963 234.924 108.355 235.58C108.747 236.236 108.943 236.976 108.943 237.8C108.943 238.624 108.747 239.364 108.355 240.02C107.963 240.676 107.423 241.192 106.735 241.568C106.047 241.936 105.275 242.12 104.419 242.12ZM104.419 240.752C104.979 240.752 105.483 240.628 105.931 240.38C106.379 240.124 106.731 239.772 106.987 239.324C107.243 238.868 107.371 238.36 107.371 237.8C107.371 237.24 107.243 236.736 106.987 236.288C106.731 235.832 106.379 235.48 105.931 235.232C105.483 234.976 104.979 234.848 104.419 234.848C103.859 234.848 103.355 234.976 102.907 235.232C102.459 235.48 102.107 235.832 101.851 236.288C101.595 236.736 101.467 237.24 101.467 237.8C101.467 238.36 101.595 238.868 101.851 239.324C102.107 239.772 102.459 240.124 102.907 240.38C103.355 240.628 103.859 240.752 104.419 240.752ZM116.843 242L115.127 239.54C115.055 239.548 114.947 239.552 114.803 239.552H112.907V242H111.347V233.6H114.803C115.531 233.6 116.163 233.72 116.699 233.96C117.243 234.2 117.659 234.544 117.947 234.992C118.235 235.44 118.379 235.972 118.379 236.588C118.379 237.22 118.223 237.764 117.911 238.22C117.607 238.676 117.167 239.016 116.591 239.24L118.523 242H116.843ZM116.807 236.588C116.807 236.052 116.631 235.64 116.279 235.352C115.927 235.064 115.411 234.92 114.731 234.92H112.907V238.268H114.731C115.411 238.268 115.927 238.124 116.279 237.836C116.631 237.54 116.807 237.124 116.807 236.588ZM128.59 242L128.578 236.432L125.818 241.04H125.122L122.362 236.504V242H120.874V233.6H122.158L125.494 239.168L128.77 233.6H130.054L130.066 242H128.59ZM138.533 240.056H134.333L133.505 242H131.897L135.677 233.6H137.213L141.005 242H139.373L138.533 240.056ZM138.017 238.832L136.433 235.16L134.861 238.832H138.017ZM150.287 233.6V242H149.003L144.371 236.312V242H142.823V233.6H144.107L148.739 239.288V233.6H150.287ZM157.176 242.12C156.328 242.12 155.56 241.936 154.872 241.568C154.192 241.192 153.656 240.676 153.264 240.02C152.88 239.364 152.688 238.624 152.688 237.8C152.688 236.976 152.884 236.236 153.276 235.58C153.668 234.924 154.204 234.412 154.884 234.044C155.572 233.668 156.34 233.48 157.188 233.48C157.876 233.48 158.504 233.6 159.072 233.84C159.64 234.08 160.12 234.428 160.512 234.884L159.504 235.832C158.896 235.176 158.148 234.848 157.26 234.848C156.684 234.848 156.168 234.976 155.712 235.232C155.256 235.48 154.9 235.828 154.644 236.276C154.388 236.724 154.26 237.232 154.26 237.8C154.26 238.368 154.388 238.876 154.644 239.324C154.9 239.772 155.256 240.124 155.712 240.38C156.168 240.628 156.684 240.752 157.26 240.752C158.148 240.752 158.896 240.42 159.504 239.756L160.512 240.716C160.12 241.172 159.636 241.52 159.06 241.76C158.492 242 157.864 242.12 157.176 242.12ZM169.057 240.692V242H162.757V233.6H168.889V234.908H164.317V237.092H168.373V238.376H164.317V240.692H169.057ZM177.316 234.92H174.532V233.6H181.66V234.92H178.876V242H177.316V234.92ZM187.041 242.12C185.881 242.12 184.977 241.796 184.329 241.148C183.681 240.492 183.357 239.556 183.357 238.34V233.6H184.917V238.28C184.917 239.928 185.629 240.752 187.053 240.752C188.469 240.752 189.177 239.928 189.177 238.28V233.6H190.713V238.34C190.713 239.556 190.389 240.492 189.741 241.148C189.101 241.796 188.201 242.12 187.041 242.12ZM201.112 233.6V242H199.828L195.196 236.312V242H193.648V233.6H194.932L199.564 239.288V233.6H201.112ZM210.412 240.692V242H204.112V233.6H210.244V234.908H205.672V237.092H209.728V238.376H205.672V240.692H210.412ZM220.58 242.12C219.42 242.12 218.516 241.796 217.868 241.148C217.22 240.492 216.896 239.556 216.896 238.34V233.6H218.456V238.28C218.456 239.928 219.168 240.752 220.592 240.752C222.008 240.752 222.716 239.928 222.716 238.28V233.6H224.252V238.34C224.252 239.556 223.928 240.492 223.28 241.148C222.64 241.796 221.74 242.12 220.58 242.12ZM230.643 233.6C231.371 233.6 232.003 233.72 232.539 233.96C233.083 234.2 233.499 234.544 233.787 234.992C234.075 235.44 234.219 235.972 234.219 236.588C234.219 237.196 234.075 237.728 233.787 238.184C233.499 238.632 233.083 238.976 232.539 239.216C232.003 239.456 231.371 239.576 230.643 239.576H228.747V242H227.187V233.6H230.643ZM230.571 238.256C231.251 238.256 231.767 238.112 232.119 237.824C232.471 237.536 232.647 237.124 232.647 236.588C232.647 236.052 232.471 235.64 232.119 235.352C231.767 235.064 231.251 234.92 230.571 234.92H228.747V238.256H230.571Z" fill="white" fill-opacity="0.87"/>
<path d="M139.308 127.25C122.562 130.132 122.483 127.664 121.634 123.884C120.729 119.849 120.402 117.692 138.229 116.712L169.627 119.101L139.308 127.25ZM128.322 73.9033C98.0884 73.9033 74.0655 90.8403 73.5808 111.722C72.8557 142.572 71.4205 136.102 129.765 136.102C189.551 136.102 183.067 138.093 183.067 111.722C183.067 90.8366 158.559 73.9033 128.322 73.9033Z" fill="white"/>
<path d="M138.199 117.179C128.205 117.731 123.374 118.697 122.085 120.399C121.435 121.255 121.612 122.304 121.976 123.923L122.04 124.22C122.803 127.676 123.268 129.773 139.225 127.022L167.542 119.414L138.199 117.179ZM128.213 128.972C122.727 128.972 121.968 127.158 121.352 124.374L121.285 124.077C120.947 122.574 120.627 121.154 121.521 119.974C122.742 118.359 126.049 117.145 138.207 116.476L171.712 119.02L139.364 127.714C134.322 128.582 130.76 128.972 128.213 128.972ZM128.318 74.3704C113.823 74.3704 100.211 78.2815 89.9917 85.3862C79.8663 92.427 74.1593 101.824 73.9264 111.848L73.87 114.237C73.6108 124.712 73.468 130.479 76.3722 133.387C79.7837 136.806 87.4857 136.618 104.389 136.227C111.163 136.066 119.594 135.867 129.761 135.867C133.987 135.867 137.88 135.878 141.468 135.885C166.618 135.953 177.029 135.976 180.76 132.155C183.123 129.731 183.014 125.636 182.83 118.847C182.773 116.784 182.713 114.44 182.713 111.836C182.713 91.1797 158.311 74.3704 128.318 74.3704ZM92.1445 137.137C83.274 137.137 78.4837 136.505 75.8725 133.887C72.7541 130.765 72.8969 124.888 73.1599 114.222L73.22 111.829C73.7197 90.4283 97.923 73.6641 128.318 73.6641C158.698 73.6641 183.416 90.7889 183.416 111.836C183.416 114.432 183.48 116.769 183.532 118.828C183.724 125.801 183.837 130.013 181.263 132.651C177.326 136.682 167.557 136.656 141.468 136.592C137.88 136.584 133.987 136.573 129.761 136.573C119.601 136.573 111.178 136.772 104.404 136.93C99.6287 137.043 95.5823 137.137 92.1445 137.137Z" fill="white"/>
<path d="M51.2566 159.489H49.78V155.653H43.2877V159.489H41.8074V150.788H43.2877V154.338H49.78V150.788H51.2566V159.489Z" fill="white"/>
<path d="M53.2049 150.788H54.6814V159.489H53.2049V150.788Z" fill="white"/>
<path d="M66.2703 154.632V155.5C66.2703 156.984 66.0336 157.98 65.564 158.495C65.0605 159.039 64.0762 159.314 62.6184 159.314H59.9471C58.3616 159.314 57.3096 159.013 56.7987 158.408C56.3253 157.86 56.0886 156.785 56.0886 155.181C56.0886 153.937 56.1637 153.039 56.314 152.483C56.5018 151.792 56.8813 151.292 57.4486 150.995C58.016 150.695 58.8951 150.548 60.0974 150.548H62.5057C63.6779 150.548 64.5345 150.687 65.0943 150.969C65.8796 151.367 66.2628 152.093 66.2553 153.144H64.7412C64.7412 152.664 64.5082 152.303 64.0461 152.062C63.6967 151.89 63.2646 151.803 62.7462 151.803L61.2771 151.792C61.1193 151.792 60.7436 151.792 60.1462 151.803C58.989 151.826 58.2489 152.085 57.922 152.573C57.6853 152.934 57.5689 153.734 57.5689 154.967C57.5689 155.838 57.5914 156.417 57.6515 156.706C57.7417 157.153 57.9558 157.469 58.2902 157.649C58.6284 157.833 59.1957 157.924 59.9997 157.924H62.5808C63.4675 157.924 64.0386 157.815 64.2978 157.6C64.5759 157.352 64.7149 156.793 64.7149 155.921H61.0404V154.632H66.2703Z" fill="white"/>
<path d="M77.0344 159.489H75.5541V155.653H69.0619V159.489H67.5853V150.788H69.0619V154.338H75.5541V150.788H77.0344V159.489Z" fill="white"/>
<path d="M89.9842 152.227H85.5771V154.86H90.0105C90.5215 154.86 90.8897 154.785 91.1151 154.639C91.3969 154.447 91.5359 154.109 91.5359 153.617C91.5359 153.057 91.4232 152.685 91.194 152.501C90.9686 152.32 90.5628 152.227 89.9842 152.227ZM89.8602 156.311H85.5771V159.493H84.1119V150.788H89.9842C91.1377 150.788 91.9267 150.998 92.3587 151.426C92.787 151.855 93.0012 152.636 93.0012 153.782C93.0012 154.796 92.7119 155.495 92.1333 155.878C91.6824 156.168 90.9273 156.311 89.8602 156.311Z" fill="white"/>
<path d="M101.06 155.668H95.1348L95.1499 154.402H101.06V155.668ZM104.227 156.961C104.227 158.069 103.863 158.794 103.145 159.132C102.604 159.399 101.533 159.53 99.9252 159.53H98.0053C96.7842 159.53 95.9013 159.425 95.3452 159.219C94.7403 158.997 94.3233 158.58 94.0941 157.975C93.8837 157.423 93.7823 156.536 93.7823 155.319C93.7823 154.011 93.8725 153.079 94.0566 152.516C94.2594 151.851 94.6652 151.396 95.2588 151.148C95.8262 150.908 96.7542 150.788 98.0278 150.788H99.9552C101.481 150.788 102.585 151.009 103.254 151.445C103.885 151.851 104.201 152.486 104.201 153.346H102.796C102.796 152.79 102.533 152.433 102.003 152.264C101.661 152.166 100.962 152.118 99.8876 152.118H98.118C96.9307 152.118 96.1643 152.227 95.8149 152.452C95.3866 152.734 95.1687 153.391 95.1611 154.413V155.668C95.1536 156.829 95.3565 157.558 95.7811 157.866C96.1117 158.106 96.8781 158.227 98.0767 158.227H99.8989C100.992 158.227 101.702 158.178 102.025 158.076C102.551 157.919 102.818 157.547 102.811 156.961H104.227Z" fill="white"/>
<path d="M112.142 152.275H107.062V154.669H112.142C113.092 154.669 113.57 154.255 113.57 153.433C113.57 152.659 113.092 152.275 112.142 152.275ZM115.283 159.489H113.818V157.9C113.818 157.28 113.69 156.829 113.438 156.559C113.186 156.284 112.751 156.149 112.131 156.149L107.062 156.16V159.489H105.638V150.788H112.007C113.055 150.788 113.81 150.987 114.276 151.396C114.764 151.832 115.009 152.568 115.009 153.605C115.009 154.545 114.742 155.146 114.216 155.405C114.926 155.593 115.283 156.232 115.283 157.314V159.489Z" fill="white"/>
<path d="M118.289 154.424H124.421V155.679H118.289V159.542H116.896L116.907 155.022C116.907 153.82 117.005 152.952 117.196 152.414C117.41 151.802 117.82 151.374 118.421 151.137C118.992 150.904 119.901 150.788 121.145 150.788H122.757C124.32 150.788 125.398 150.979 125.988 151.359C126.548 151.723 126.886 152.414 127.002 153.433H125.601C125.469 152.854 125.169 152.478 124.707 152.313C124.372 152.2 123.703 152.14 122.693 152.14H121.231C120.055 152.14 119.304 152.249 118.969 152.475C118.545 152.749 118.32 153.403 118.289 154.424Z" fill="white"/>
<path d="M136.544 155.631V154.796C136.544 153.97 136.457 153.38 136.292 153.031C136.126 152.677 135.826 152.452 135.383 152.354C135.078 152.275 134.492 152.242 133.628 152.242H132.185C130.983 152.242 130.224 152.366 129.908 152.614C129.533 152.918 129.341 153.651 129.341 154.811V155.642C129.341 156.769 129.533 157.483 129.923 157.78C130.228 158.001 130.972 158.114 132.144 158.114H133.647C134.5 158.114 135.074 158.08 135.371 158.013C135.815 157.922 136.119 157.708 136.288 157.363C136.457 157.017 136.544 156.442 136.544 155.631ZM138.031 155.679C138.031 156.84 137.892 157.689 137.622 158.23C137.348 158.771 136.885 159.136 136.232 159.316C135.709 159.467 134.857 159.542 133.673 159.542H132.073C130.855 159.542 129.969 159.436 129.416 159.23C128.8 159.008 128.383 158.595 128.161 157.986C127.955 157.426 127.853 156.536 127.853 155.319C127.853 154.03 127.94 153.102 128.113 152.538C128.319 151.877 128.725 151.415 129.326 151.163C129.897 150.912 130.825 150.788 132.095 150.788H133.684C135.052 150.788 136.033 150.93 136.634 151.212C137.235 151.49 137.626 151.997 137.806 152.726C137.956 153.271 138.031 154.259 138.031 155.679Z" fill="white"/>
<path d="M146.299 152.275H141.223V154.669H146.299C147.253 154.669 147.727 154.255 147.727 153.433C147.727 152.659 147.253 152.275 146.299 152.275ZM149.444 159.489H147.975V157.9C147.975 157.28 147.851 156.829 147.599 156.559C147.343 156.284 146.908 156.149 146.288 156.149L141.223 156.16V159.489H139.799V150.788H146.164C147.216 150.788 147.971 150.987 148.433 151.396C148.921 151.832 149.169 152.568 149.169 153.605C149.169 154.545 148.903 155.146 148.377 155.405C149.087 155.593 149.444 156.232 149.444 157.314V159.489Z" fill="white"/>
<path d="M165.938 159.489L165.927 155.007C165.927 154.094 165.739 153.41 165.367 152.944C164.901 152.366 164.139 152.076 163.068 152.076H162.674C161.561 152.076 160.799 152.384 160.378 153.004C160.036 153.515 159.867 154.372 159.867 155.589V159.489H158.488V155.691C158.488 154.522 158.315 153.662 157.966 153.106C157.538 152.418 156.79 152.076 155.73 152.076H155.298C154.194 152.076 153.431 152.418 152.999 153.094C152.653 153.639 152.48 154.518 152.48 155.728L152.492 159.489H151.026V150.788H152.48V151.892C153.029 151.152 153.904 150.788 155.099 150.788H155.918C157.466 150.788 158.533 151.336 159.123 152.437C159.724 151.336 160.787 150.788 162.313 150.788H163.38C165.972 150.788 167.268 152.2 167.268 155.029V159.489H165.938Z" fill="white"/>
<path d="M170.47 154.338H177.56C177.553 153.35 177.346 152.723 176.951 152.452C176.64 152.227 175.948 152.114 174.889 152.114H173.112C172.071 152.114 171.395 152.23 171.075 152.46C170.681 152.741 170.478 153.369 170.47 154.338ZM177.571 155.653H170.47V159.489H168.99V154.323C168.99 152.884 169.294 151.918 169.899 151.43C170.429 151.002 171.436 150.788 172.913 150.788H175.11C176.572 150.788 177.571 151.002 178.12 151.445C178.736 151.941 179.048 152.899 179.048 154.323V159.489H177.571V155.653Z" fill="white"/>
<path d="M188.725 159.489V154.263C188.725 153.575 188.511 153.038 188.086 152.655C187.658 152.268 187.091 152.076 186.392 152.076H184.577C183.908 152.076 183.349 152.275 182.902 152.681C182.454 153.079 182.229 153.609 182.229 154.263V159.489H180.756V150.788H182.229V151.926C182.759 151.167 183.544 150.788 184.577 150.788H186.392C187.59 150.788 188.526 151.099 189.195 151.723C189.871 152.347 190.205 153.256 190.205 154.447V159.489H188.725Z" fill="white"/>
<path d="M201.944 156.795C201.944 157.945 201.591 158.719 200.889 159.117C200.385 159.406 199.514 159.549 198.266 159.549H195.7C194.085 159.549 193.018 159.241 192.495 158.617C192.033 158.073 191.804 156.976 191.804 155.33C191.804 154.086 191.883 153.188 192.048 152.636C192.247 151.967 192.631 151.49 193.205 151.208C193.773 150.927 194.663 150.788 195.862 150.788H198.259C199.476 150.788 200.34 150.934 200.862 151.235C201.576 151.629 201.933 152.388 201.933 153.508H200.419C200.427 152.644 199.686 152.215 198.206 152.215H195.873C194.704 152.215 193.964 152.426 193.649 152.846C193.412 153.17 193.288 153.94 193.288 155.157C193.288 156.048 193.318 156.641 193.378 156.93C193.461 157.381 193.671 157.693 194.013 157.877C194.351 158.058 194.922 158.148 195.726 158.148H198.217C198.924 158.148 199.42 158.091 199.709 157.975C200.197 157.783 200.442 157.393 200.43 156.795H201.944Z" fill="white"/>
<path d="M210.159 155.668H204.238L204.249 154.402H210.159V155.668ZM213.326 156.961C213.326 158.069 212.966 158.794 212.244 159.132C211.707 159.399 210.636 159.53 209.028 159.53H207.108C205.887 159.53 205.004 159.425 204.444 159.219C203.843 158.997 203.426 158.58 203.193 157.975C202.987 157.423 202.882 156.536 202.882 155.319C202.882 154.011 202.975 153.079 203.16 152.516C203.362 151.851 203.768 151.396 204.362 151.148C204.929 150.908 205.853 150.788 207.131 150.788H209.054C210.584 150.788 211.688 151.009 212.357 151.445C212.984 151.851 213.3 152.486 213.3 153.346H211.899C211.899 152.79 211.636 152.433 211.102 152.264C210.764 152.166 210.061 152.118 208.991 152.118H207.217C206.034 152.118 205.267 152.227 204.918 152.452C204.49 152.734 204.272 153.391 204.264 154.413V155.668C204.257 156.829 204.46 157.558 204.884 157.866C205.215 158.106 205.981 158.227 207.18 158.227H209.002C210.095 158.227 210.805 158.178 211.128 158.076C211.654 157.919 211.921 157.547 211.91 156.961H213.326Z" fill="white"/>
<defs>
<filter id="filter0_d" x="0" y="0" width="287" height="361" filterUnits="userSpaceOnUse" color-interpolation-filters="sRGB">
<feFlood flood-opacity="0" result="BackgroundImageFix"/>
<feColorMatrix in="SourceAlpha" type="matrix" values="0 0 0 0 0 0 0 0 0 0 0 0 0 0 0 0 0 0 127 0"/>
<feOffset dx="4" dy="4"/>
<feGaussianBlur stdDeviation="2"/>
<feColorMatrix type="matrix" values="0 0 0 0 0 0 0 0 0 0 0 0 0 0 0 0 0 0 0.25 0"/>
<feBlend mode="normal" in2="BackgroundImageFix" result="effect1_dropShadow"/>
<feBlend mode="normal" in="SourceGraphic" in2="effect1_dropShadow" result="shape"/>
</filter>
</defs>
</svg>
