<svg width="389" height="376" viewBox="0 0 389 376" fill="none" xmlns="http://www.w3.org/2000/svg">
<g filter="url(#filter0_d)">
<rect x="53" y="15" width="279" height="353" rx="8" fill="white" fill-opacity="0.08"/>
</g>
<path d="M304.286 334.714H295.714V343.286C295.714 344.229 294.943 345 294 345C293.057 345 292.286 344.229 292.286 343.286V334.714H283.714C282.771 334.714 282 333.943 282 333C282 332.057 282.771 331.286 283.714 331.286H292.286V322.714C292.286 321.771 293.057 321 294 321C294.943 321 295.714 321.771 295.714 322.714V331.286H304.286C305.229 331.286 306 332.057 306 333C306 333.943 305.229 334.714 304.286 334.714Z" fill="#FAFAFA"/>
<g filter="url(#filter1_d)">
<path d="M142.053 161.911H100.809V159.088H141.214L188.519 127.985H233.742L263.555 100.119H288.088V102.942H264.666L234.857 130.808H189.359L142.053 161.911Z" fill="url(#paint0_linear)"/>
</g>
<path d="M122.001 154.076H118.283V135.832L117.278 136.261L112.405 141.1L110.429 139.121L116.673 132.726H122.001V154.076Z" fill="white"/>
<path d="M223.123 110.601C223.123 112.897 222.32 114.561 220.718 115.595C219.501 116.406 217.693 116.893 215.295 117.058C213.348 117.099 211.398 117.139 209.451 117.179C208.087 117.242 207.031 117.385 206.279 117.604C204.879 118.011 204.182 118.701 204.182 119.68C204.156 120.083 204.149 120.732 204.149 121.627H223.006V124.886H200.068V120.593C200.068 117.26 201.744 115.229 205.091 114.499C208.204 114.316 211.317 114.132 214.444 113.953C217.792 113.707 219.468 112.519 219.468 110.389C219.468 108.823 218.921 107.767 217.825 107.221C217.073 106.836 215.816 106.642 214.045 106.642H210.272C208.204 106.642 206.789 106.792 206.037 107.096C204.659 107.606 203.966 108.702 203.966 110.389H200.222C200.222 107.646 201.175 105.729 203.082 104.632C204.527 103.818 206.737 103.415 209.726 103.415H213.257C216.666 103.415 219.013 103.76 220.293 104.449C222.181 105.443 223.123 107.492 223.123 110.601Z" fill="white"/>
<path d="M287.609 90.2008C287.609 92.881 286.799 94.6593 285.174 95.5319C284.056 96.1589 282.036 96.4742 279.114 96.4742H273.449C270.626 96.4742 268.635 96.1589 267.48 95.5319C265.855 94.6593 265.034 92.9214 265.012 90.3218H268.576C268.576 91.5427 269.071 92.375 270.068 92.8187C270.721 93.123 271.744 93.277 273.148 93.277H279.601C282.542 93.277 284.019 92.21 284.019 90.0798C284.019 87.8872 282.303 86.7909 278.872 86.7909C278.281 86.7909 277.42 86.8349 276.279 86.9266C275.143 87.0182 274.303 87.0622 273.753 87.0622V83.8357C274.281 83.8357 275.099 83.876 276.206 83.9567C277.31 84.0374 278.149 84.0814 278.718 84.0814C282.252 84.0814 284.019 83.0621 284.019 81.0345C284.019 79.2269 282.424 78.3212 279.235 78.3212L274.332 78.3542C272.565 78.3542 271.308 78.4862 270.556 78.7466C269.196 79.1939 268.506 80.1105 268.484 81.4928H265.012C265.012 78.8089 265.874 77.0123 267.601 76.0993C268.796 75.4503 270.89 75.124 273.878 75.124H279.356C281.996 75.124 283.895 75.4173 285.053 76.0077C286.758 76.8583 287.609 78.4642 287.609 80.8181C287.609 82.2408 287.385 83.2637 286.942 83.8944C286.454 84.6277 285.541 85.1043 284.199 85.328C285.541 85.57 286.465 86.1089 286.971 86.9412C287.396 87.6526 287.609 88.7378 287.609 90.2008Z" fill="white"/>
<path d="M127.085 77.2851C127.984 77.2851 128.688 77.6041 129.19 78.242C129.696 78.88 129.85 79.65 129.663 80.5483L128.801 84.6218C128.603 85.5311 128.116 86.3047 127.338 86.9427C126.568 87.5843 125.732 87.9033 124.834 87.9033H109.02L109.266 86.7557H125.076C125.659 86.7557 126.205 86.5467 126.708 86.1361C127.221 85.7107 127.54 85.2084 127.665 84.6218L128.534 80.5483C128.658 79.9653 128.545 79.4667 128.207 79.0523C127.881 78.638 127.426 78.429 126.843 78.429H113.578C112.727 78.429 112.06 78.1247 111.583 77.5124C111.099 76.9037 110.945 76.1668 111.121 75.3161L111.884 71.7669C112.071 70.9016 112.533 70.1647 113.27 69.556C114.01 68.951 114.802 68.6504 115.66 68.6504H131.617L131.375 69.7833H115.415C114.876 69.7833 114.37 69.9777 113.904 70.3627C113.435 70.7513 113.145 71.217 113.028 71.7669L112.272 75.3161C112.166 75.8551 112.258 76.3171 112.555 76.7058C112.863 77.0907 113.281 77.2851 113.823 77.2851H127.085Z" fill="white"/>
<path d="M135.156 68.6504H152.352L152.114 69.798H144.088L140.241 87.9033H139.094L142.94 69.798H134.914L135.156 68.6504Z" fill="white"/>
<path d="M174.885 74.4252C175.153 73.1492 174.94 72.0603 174.232 71.162C173.517 70.2527 172.516 69.798 171.24 69.798H160.839C159.559 69.798 158.375 70.2527 157.275 71.162C156.178 72.0603 155.496 73.1492 155.229 74.4252L154.62 77.2851H174.276L174.885 74.4252ZM171.482 68.6504C173.077 68.6504 174.317 69.2187 175.208 70.3517C176.099 71.4773 176.37 72.8339 176.029 74.4252L173.169 87.8887H172.021L174.034 78.4327H154.374L152.365 87.8887H151.218L154.077 74.4252C154.422 72.8339 155.269 71.4773 156.629 70.3517C158.004 69.2187 159.489 68.6504 161.08 68.6504H171.482Z" fill="white"/>
<path d="M200.388 69.798H185.766C184.486 69.798 183.302 70.2527 182.202 71.162C181.095 72.0603 180.409 73.1492 180.142 74.4252L178.506 82.1139C178.235 83.3935 178.462 84.4825 179.181 85.3808C179.889 86.2901 180.886 86.7447 182.162 86.7447H192.564C193.843 86.7447 195.028 86.2901 196.128 85.3808C197.224 84.4825 197.906 83.3935 198.174 82.1139L198.944 78.4987H188.978L189.22 77.3547H200.333L199.321 82.1139C198.98 83.7052 198.13 85.0654 196.758 86.1911C195.394 87.324 193.913 87.8887 192.322 87.8887H181.92C180.325 87.8887 179.086 87.324 178.195 86.1911C177.304 85.0654 177.032 83.7052 177.373 82.1139L179.005 74.4252C179.346 72.8339 180.197 71.4773 181.553 70.3517C182.932 69.215 184.417 68.6504 186.008 68.6504H200.63L200.388 69.798Z" fill="white"/>
<path d="M204.485 71.7816C204.665 70.92 205.13 70.183 205.875 69.5707C206.612 68.9584 207.407 68.6504 208.262 68.6504H221.322L221.08 69.798H208.02C207.477 69.798 206.978 69.9923 206.509 70.381C206.032 70.766 205.735 71.2353 205.618 71.7816L204.43 77.3547H219.474L219.228 78.5024H204.188L202.432 86.7447H217.476L217.237 87.8923H201.057L204.485 71.7816Z" fill="white"/>
<defs>
<filter id="filter0_d" x="53" y="15" width="287" height="361" filterUnits="userSpaceOnUse" color-interpolation-filters="sRGB">
<feFlood flood-opacity="0" result="BackgroundImageFix"/>
<feColorMatrix in="SourceAlpha" type="matrix" values="0 0 0 0 0 0 0 0 0 0 0 0 0 0 0 0 0 0 127 0"/>
<feOffset dx="4" dy="4"/>
<feGaussianBlur stdDeviation="2"/>
<feColorMatrix type="matrix" values="0 0 0 0 0 0 0 0 0 0 0 0 0 0 0 0 0 0 0.25 0"/>
<feBlend mode="normal" in2="BackgroundImageFix" result="effect1_dropShadow"/>
<feBlend mode="normal" in="SourceGraphic" in2="effect1_dropShadow" result="shape"/>
</filter>
<filter id="filter1_d" x="0.808716" y="0.119141" width="387.279" height="261.792" filterUnits="userSpaceOnUse" color-interpolation-filters="sRGB">
<feFlood flood-opacity="0" result="BackgroundImageFix"/>
<feColorMatrix in="SourceAlpha" type="matrix" values="0 0 0 0 0 0 0 0 0 0 0 0 0 0 0 0 0 0 127 0"/>
<feOffset/>
<feGaussianBlur stdDeviation="50"/>
<feColorMatrix type="matrix" values="0 0 0 0 1 0 0 0 0 0.66 0 0 0 0 0 0 0 0 1 0"/>
<feBlend mode="normal" in2="BackgroundImageFix" result="effect1_dropShadow"/>
<feBlend mode="normal" in="SourceGraphic" in2="effect1_dropShadow" result="shape"/>
</filter>
<linearGradient id="paint0_linear" x1="194.448" y1="100.119" x2="194.448" y2="161.911" gradientUnits="userSpaceOnUse">
<stop stop-color="#FF0000"/>
<stop offset="1" stop-color="#FF6B00"/>
</linearGradient>
</defs>
</svg>
