<svg width="208" height="261" viewBox="0 0 208 261" fill="none" xmlns="http://www.w3.org/2000/svg">
<g filter="url(#filter0_d)">
<rect width="200" height="253" rx="8" fill="white" fill-opacity="0.08"/>
</g>
<path d="M44.5244 138.74V147.14H42.9644V143.54H38.6204V147.14H37.0604V138.74H38.6204V142.208H42.9644V138.74H44.5244ZM47.5253 138.74H49.0853V147.14H47.5253V138.74ZM51.6393 143.18H54.9393V144.428H51.6393V143.18ZM60.9305 138.74C61.6585 138.74 62.2905 138.86 62.8265 139.1C63.3705 139.34 63.7865 139.684 64.0745 140.132C64.3625 140.58 64.5065 141.112 64.5065 141.728C64.5065 142.336 64.3625 142.868 64.0745 143.324C63.7865 143.772 63.3705 144.116 62.8265 144.356C62.2905 144.596 61.6585 144.716 60.9305 144.716H59.0345V147.14H57.4745V138.74H60.9305ZM60.8585 143.396C61.5385 143.396 62.0545 143.252 62.4065 142.964C62.7585 142.676 62.9345 142.264 62.9345 141.728C62.9345 141.192 62.7585 140.78 62.4065 140.492C62.0545 140.204 61.5385 140.06 60.8585 140.06H59.0345V143.396H60.8585ZM73.1143 145.832V147.14H66.8143V138.74H72.9463V140.048H68.3743V142.232H72.4303V143.516H68.3743V145.832H73.1143ZM81.0994 147.14L79.3834 144.68C79.3114 144.688 79.2034 144.692 79.0594 144.692H77.1634V147.14H75.6034V138.74H79.0594C79.7874 138.74 80.4194 138.86 80.9554 139.1C81.4994 139.34 81.9154 139.684 82.2034 140.132C82.4914 140.58 82.6354 141.112 82.6354 141.728C82.6354 142.36 82.4794 142.904 82.1674 143.36C81.8634 143.816 81.4234 144.156 80.8474 144.38L82.7794 147.14H81.0994ZM81.0634 141.728C81.0634 141.192 80.8874 140.78 80.5354 140.492C80.1834 140.204 79.6674 140.06 78.9874 140.06H77.1634V143.408H78.9874C79.6674 143.408 80.1834 143.264 80.5354 142.976C80.8874 142.68 81.0634 142.264 81.0634 141.728ZM86.6908 140.048V142.604H90.7468V143.924H86.6908V147.14H85.1308V138.74H91.2628V140.048H86.6908ZM97.3516 147.26C96.4956 147.26 95.7236 147.076 95.0356 146.708C94.3476 146.332 93.8076 145.816 93.4156 145.16C93.0236 144.496 92.8276 143.756 92.8276 142.94C92.8276 142.124 93.0236 141.388 93.4156 140.732C93.8076 140.068 94.3476 139.552 95.0356 139.184C95.7236 138.808 96.4956 138.62 97.3516 138.62C98.2076 138.62 98.9796 138.808 99.6676 139.184C100.356 139.552 100.896 140.064 101.288 140.72C101.68 141.376 101.876 142.116 101.876 142.94C101.876 143.764 101.68 144.504 101.288 145.16C100.896 145.816 100.356 146.332 99.6676 146.708C98.9796 147.076 98.2076 147.26 97.3516 147.26ZM97.3516 145.892C97.9116 145.892 98.4156 145.768 98.8636 145.52C99.3116 145.264 99.6636 144.912 99.9196 144.464C100.176 144.008 100.304 143.5 100.304 142.94C100.304 142.38 100.176 141.876 99.9196 141.428C99.6636 140.972 99.3116 140.62 98.8636 140.372C98.4156 140.116 97.9116 139.988 97.3516 139.988C96.7916 139.988 96.2876 140.116 95.8396 140.372C95.3916 140.62 95.0396 140.972 94.7836 141.428C94.5276 141.876 94.3996 142.38 94.3996 142.94C94.3996 143.5 94.5276 144.008 94.7836 144.464C95.0396 144.912 95.3916 145.264 95.8396 145.52C96.2876 145.768 96.7916 145.892 97.3516 145.892ZM109.775 147.14L108.059 144.68C107.987 144.688 107.879 144.692 107.735 144.692H105.839V147.14H104.279V138.74H107.735C108.463 138.74 109.095 138.86 109.631 139.1C110.175 139.34 110.591 139.684 110.879 140.132C111.167 140.58 111.311 141.112 111.311 141.728C111.311 142.36 111.155 142.904 110.843 143.36C110.539 143.816 110.099 144.156 109.523 144.38L111.455 147.14H109.775ZM109.739 141.728C109.739 141.192 109.563 140.78 109.211 140.492C108.859 140.204 108.343 140.06 107.663 140.06H105.839V143.408H107.663C108.343 143.408 108.859 143.264 109.211 142.976C109.563 142.68 109.739 142.264 109.739 141.728ZM121.523 147.14L121.511 141.572L118.751 146.18H118.055L115.295 141.644V147.14H113.807V138.74H115.091L118.427 144.308L121.703 138.74H122.987L122.999 147.14H121.523ZM131.465 145.196H127.265L126.437 147.14H124.829L128.609 138.74H130.145L133.937 147.14H132.305L131.465 145.196ZM130.949 143.972L129.365 140.3L127.793 143.972H130.949ZM143.22 138.74V147.14H141.936L137.304 141.452V147.14H135.756V138.74H137.04L141.672 144.428V138.74H143.22ZM150.109 147.26C149.261 147.26 148.493 147.076 147.805 146.708C147.125 146.332 146.589 145.816 146.197 145.16C145.813 144.504 145.621 143.764 145.621 142.94C145.621 142.116 145.817 141.376 146.209 140.72C146.601 140.064 147.137 139.552 147.817 139.184C148.505 138.808 149.273 138.62 150.121 138.62C150.809 138.62 151.437 138.74 152.005 138.98C152.573 139.22 153.053 139.568 153.445 140.024L152.437 140.972C151.829 140.316 151.081 139.988 150.193 139.988C149.617 139.988 149.101 140.116 148.645 140.372C148.189 140.62 147.833 140.968 147.577 141.416C147.321 141.864 147.193 142.372 147.193 142.94C147.193 143.508 147.321 144.016 147.577 144.464C147.833 144.912 148.189 145.264 148.645 145.52C149.101 145.768 149.617 145.892 150.193 145.892C151.081 145.892 151.829 145.56 152.437 144.896L153.445 145.856C153.053 146.312 152.569 146.66 151.993 146.9C151.425 147.14 150.797 147.26 150.109 147.26ZM161.989 145.832V147.14H155.689V138.74H161.821V140.048H157.249V142.232H161.305V143.516H157.249V145.832H161.989ZM72.3328 156.06H69.5488V154.74H76.6768V156.06H73.8928V163.14H72.3328V156.06ZM82.0572 163.26C80.8972 163.26 79.9932 162.936 79.3452 162.288C78.6972 161.632 78.3732 160.696 78.3732 159.48V154.74H79.9332V159.42C79.9332 161.068 80.6452 161.892 82.0692 161.892C83.4852 161.892 84.1932 161.068 84.1932 159.42V154.74H85.7292V159.48C85.7292 160.696 85.4052 161.632 84.7572 162.288C84.1172 162.936 83.2172 163.26 82.0572 163.26ZM96.128 154.74V163.14H94.844L90.212 157.452V163.14H88.664V154.74H89.948L94.58 160.428V154.74H96.128ZM105.429 161.832V163.14H99.1288V154.74H105.261V156.048H100.689V158.232H104.745V159.516H100.689V161.832H105.429ZM115.596 163.26C114.436 163.26 113.532 162.936 112.884 162.288C112.236 161.632 111.912 160.696 111.912 159.48V154.74H113.472V159.42C113.472 161.068 114.184 161.892 115.608 161.892C117.024 161.892 117.732 161.068 117.732 159.42V154.74H119.268V159.48C119.268 160.696 118.944 161.632 118.296 162.288C117.656 162.936 116.756 163.26 115.596 163.26ZM125.659 154.74C126.387 154.74 127.019 154.86 127.555 155.1C128.099 155.34 128.515 155.684 128.803 156.132C129.091 156.58 129.235 157.112 129.235 157.728C129.235 158.336 129.091 158.868 128.803 159.324C128.515 159.772 128.099 160.116 127.555 160.356C127.019 160.596 126.387 160.716 125.659 160.716H123.763V163.14H122.203V154.74H125.659ZM125.587 159.396C126.267 159.396 126.783 159.252 127.135 158.964C127.487 158.676 127.663 158.264 127.663 157.728C127.663 157.192 127.487 156.78 127.135 156.492C126.783 156.204 126.267 156.06 125.587 156.06H123.763V159.396H125.587Z" fill="white" fill-opacity="0.87"/>
<path d="M98.7618 85.3316C91.4043 86.5975 91.3696 85.5132 90.9965 83.8528C90.5987 82.0802 90.4551 81.1328 98.288 80.702L112.084 81.7517L98.7618 85.3316ZM93.9349 61.8965C80.6511 61.8965 70.096 69.3368 69.8831 78.5102C69.5645 92.0622 68.9339 89.2201 94.5688 89.2201C120.838 89.2201 117.988 90.0949 117.988 78.5102C117.988 69.3352 107.22 61.8965 93.9349 61.8965Z" fill="url(#paint0_linear)"/>
<path d="M98.2744 80.9073C93.8834 81.1499 91.7605 81.5741 91.1943 82.3218C90.9087 82.6981 90.9863 83.1586 91.1464 83.8699L91.1744 84.0003C91.5096 85.5187 91.7142 86.4397 98.7251 85.2316L111.167 81.8894L98.2744 80.9073ZM93.8867 86.0882C91.4765 86.0882 91.1431 85.291 90.8724 84.068L90.8426 83.9376C90.6941 83.2774 90.5538 82.6535 90.9466 82.1353C91.4831 81.4256 92.9358 80.8925 98.2777 80.5987L112.999 81.7161L98.7862 85.5353C96.5708 85.9165 95.0059 86.0882 93.8867 86.0882ZM93.9329 62.1018C87.5642 62.1018 81.5834 63.8199 77.0933 66.941C72.6444 70.034 70.1369 74.1618 70.0346 78.5653L70.0098 79.615C69.8959 84.2165 69.8332 86.75 71.1092 88.0275C72.6081 89.5294 75.9922 89.4469 83.4191 89.2752C86.3954 89.2043 90.0998 89.1168 94.5668 89.1168C96.4239 89.1168 98.1341 89.1217 99.7106 89.125C110.761 89.1547 115.335 89.1646 116.974 87.4861C118.013 86.4216 117.965 84.6225 117.884 81.6401C117.859 80.734 117.833 79.7041 117.833 78.5603C117.833 69.486 107.111 62.1018 93.9329 62.1018ZM78.0392 89.6746C74.1417 89.6746 72.0369 89.3974 70.8897 88.247C69.5195 86.8754 69.5822 84.2941 69.6978 79.6084L69.7242 78.557C69.9438 69.1559 80.5781 61.7915 93.9329 61.7915C107.281 61.7915 118.142 69.3144 118.142 78.5603C118.142 79.7008 118.17 80.7274 118.193 81.6319C118.277 84.6952 118.326 86.5453 117.196 87.704C115.466 89.4749 111.174 89.4634 99.7106 89.4353C98.1341 89.432 96.4239 89.4271 94.5668 89.4271C90.1031 89.4271 86.402 89.5146 83.4257 89.5839C81.3275 89.6334 79.5496 89.6746 78.0392 89.6746Z" fill="white"/>
<path d="M60.0746 99.4939H59.4258V97.8088H56.5733V99.4939H55.9229V95.6714H56.5733V97.2311H59.4258V95.6714H60.0746V99.4939Z" fill="white"/>
<path d="M60.9303 95.6714H61.5791V99.4939H60.9303V95.6714Z" fill="white"/>
<path d="M66.6709 97.3605V97.7417C66.6709 98.3937 66.5669 98.831 66.3605 99.0572C66.1393 99.2965 65.7068 99.417 65.0663 99.417H63.8926C63.196 99.417 62.7338 99.2849 62.5093 99.0192C62.3013 98.7782 62.1973 98.3062 62.1973 97.6014C62.1973 97.0551 62.2303 96.6607 62.2963 96.4164C62.3789 96.1127 62.5456 95.8932 62.7948 95.7628C63.0441 95.6308 63.4304 95.5664 63.9586 95.5664H65.0168C65.5318 95.5664 65.9082 95.6275 66.1542 95.7513C66.4992 95.9262 66.6676 96.2448 66.6643 96.7069H65.999C65.999 96.4956 65.8967 96.3372 65.6936 96.2315C65.5401 96.1556 65.3503 96.1177 65.1224 96.1177L64.477 96.1127C64.4077 96.1127 64.2426 96.1127 63.9801 96.1177C63.4717 96.1276 63.1465 96.2415 63.0028 96.456C62.8988 96.6145 62.8477 96.966 62.8477 97.5074C62.8477 97.8903 62.8576 98.1445 62.884 98.2715C62.9236 98.4679 63.0177 98.6066 63.1646 98.6858C63.3132 98.7667 63.5625 98.8063 63.9157 98.8063H65.0498C65.4394 98.8063 65.6903 98.7584 65.8042 98.6644C65.9264 98.5554 65.9875 98.3095 65.9875 97.9266H64.373V97.3605H66.6709Z" fill="white"/>
<path d="M71.3998 99.4939H70.7494V97.8088H67.8968V99.4939H67.248V95.6714H67.8968V97.2311H70.7494V95.6714H71.3998V99.4939Z" fill="white"/>
<path d="M77.0909 96.3035H75.1545V97.4605H77.1025C77.327 97.4605 77.4887 97.4275 77.5878 97.3631C77.7116 97.279 77.7727 97.1304 77.7727 96.9142C77.7727 96.6683 77.7232 96.5049 77.6225 96.424C77.5234 96.3448 77.3451 96.3035 77.0909 96.3035ZM77.0364 98.0976H75.1545V99.4955H74.5107V95.6714H77.0909C77.5977 95.6714 77.9444 95.7638 78.1342 95.952C78.3224 96.1401 78.4165 96.4834 78.4165 96.9868C78.4165 97.4324 78.2894 97.7394 78.0352 97.9078C77.8371 98.0349 77.5053 98.0976 77.0364 98.0976Z" fill="white"/>
<path d="M81.9563 97.8154H79.3531L79.3597 97.2591H81.9563V97.8154ZM83.348 98.3831C83.348 98.87 83.1878 99.1886 82.8725 99.3371C82.6348 99.4543 82.1643 99.512 81.4578 99.512H80.6143C80.0778 99.512 79.6898 99.4658 79.4455 99.3751C79.1797 99.2777 78.9965 99.0945 78.8958 98.8287C78.8034 98.5861 78.7588 98.1966 78.7588 97.6619C78.7588 97.0875 78.7984 96.6782 78.8793 96.4306C78.9684 96.1385 79.1467 95.9388 79.4075 95.8298C79.6568 95.7242 80.0646 95.6714 80.6242 95.6714H81.471C82.1412 95.6714 82.6266 95.7688 82.9204 95.9602C83.1977 96.1385 83.3364 96.4174 83.3364 96.7954H82.719C82.719 96.5511 82.6035 96.3943 82.3707 96.32C82.2205 96.2771 81.9134 96.2557 81.4413 96.2557H80.6638C80.1421 96.2557 79.8054 96.3035 79.6519 96.4025C79.4637 96.5263 79.3679 96.8152 79.3646 97.2641V97.8154C79.3613 98.3254 79.4505 98.6455 79.637 98.7809C79.7823 98.8865 80.119 98.9393 80.6456 98.9393H81.4463C81.9266 98.9393 82.2386 98.9179 82.3806 98.8733C82.6117 98.804 82.7289 98.6406 82.7256 98.3831H83.348Z" fill="white"/>
<path d="M86.8263 96.325H84.5944V97.3763H86.8263C87.2439 97.3763 87.4535 97.1948 87.4535 96.8333C87.4535 96.4933 87.2439 96.325 86.8263 96.325ZM88.2063 99.4939H87.5625V98.7957C87.5625 98.5234 87.5064 98.3254 87.3958 98.2065C87.2852 98.086 87.0937 98.0266 86.8213 98.0266L84.5944 98.0316V99.4939H83.9688V95.6714H86.7668C87.2274 95.6714 87.5592 95.7589 87.7639 95.9388C87.9785 96.1302 88.0858 96.4537 88.0858 96.9092C88.0858 97.3219 87.9686 97.5859 87.7375 97.6998C88.0495 97.7823 88.2063 98.0629 88.2063 98.5383V99.4939Z" fill="white"/>
<path d="M89.5275 97.269H92.2216V97.8203H89.5275V99.517H88.915L88.92 97.5315C88.92 97.0033 88.9629 96.6221 89.0471 96.386C89.1412 96.117 89.3211 95.9289 89.5853 95.8249C89.8362 95.7226 90.2357 95.6714 90.7821 95.6714H91.4903C92.177 95.6714 92.6508 95.7556 92.9099 95.9223C93.1559 96.0824 93.3045 96.386 93.3556 96.8333H92.7399C92.6821 96.5791 92.5501 96.4141 92.347 96.3415C92.2001 96.292 91.9063 96.2656 91.4622 96.2656H90.82C90.3033 96.2656 89.9732 96.3134 89.8263 96.4125C89.6397 96.5329 89.5407 96.8201 89.5275 97.269Z" fill="white"/>
<path d="M97.5468 97.7989V97.4324C97.5468 97.0693 97.5088 96.8102 97.4362 96.6567C97.3635 96.5016 97.2315 96.4025 97.0367 96.3596C96.903 96.325 96.6454 96.3101 96.2658 96.3101H95.6319C95.1036 96.3101 94.7702 96.3646 94.6315 96.4735C94.4664 96.6072 94.3822 96.929 94.3822 97.439V97.8038C94.3822 98.2989 94.4664 98.6125 94.6381 98.7429C94.7718 98.8403 95.0987 98.8898 95.6137 98.8898H96.274C96.6487 98.8898 96.9013 98.875 97.0317 98.8453C97.2265 98.8056 97.3602 98.7116 97.4345 98.5597C97.5088 98.4079 97.5468 98.1554 97.5468 97.7989ZM98.2005 97.8203C98.2005 98.3303 98.1394 98.7033 98.0205 98.941C97.9 99.1786 97.697 99.3387 97.4098 99.418C97.1803 99.484 96.8056 99.517 96.2856 99.517H95.5823C95.0475 99.517 94.6579 99.4708 94.4152 99.38C94.1445 99.2826 93.9613 99.1011 93.8639 98.8337C93.7731 98.5878 93.7285 98.1966 93.7285 97.6619C93.7285 97.0957 93.7665 96.6881 93.8424 96.4405C93.9332 96.15 94.1115 95.947 94.3756 95.8364C94.6265 95.7259 95.0343 95.6714 95.5922 95.6714H96.2905C96.8914 95.6714 97.3223 95.7341 97.5864 95.8579C97.8505 95.98 98.0222 96.2028 98.1014 96.523C98.1675 96.7624 98.2005 97.1964 98.2005 97.8203Z" fill="white"/>
<path d="M101.833 96.325H99.6032V97.3763H101.833C102.253 97.3763 102.461 97.1948 102.461 96.8333C102.461 96.4933 102.253 96.325 101.833 96.325ZM103.215 99.4939H102.57V98.7957C102.57 98.5234 102.515 98.3254 102.405 98.2065C102.292 98.086 102.101 98.0266 101.828 98.0266L99.6032 98.0316V99.4939H98.9775V95.6714H101.774C102.236 95.6714 102.568 95.7589 102.771 95.9388C102.986 96.1302 103.095 96.4537 103.095 96.9092C103.095 97.3219 102.977 97.5859 102.746 97.6998C103.058 97.7823 103.215 98.0629 103.215 98.5383V99.4939Z" fill="white"/>
<path d="M110.462 99.4939L110.457 97.5249C110.457 97.1238 110.375 96.8234 110.211 96.6188C110.006 96.3646 109.671 96.2375 109.201 96.2375H109.028C108.539 96.2375 108.204 96.3728 108.019 96.6452C107.869 96.8696 107.794 97.2459 107.794 97.7807V99.4939H107.189V97.8253C107.189 97.312 107.113 96.934 106.959 96.6897C106.771 96.3877 106.442 96.2375 105.977 96.2375H105.787C105.302 96.2375 104.967 96.3877 104.777 96.6848C104.625 96.9241 104.549 97.3103 104.549 97.8418L104.554 99.4939H103.91V95.6714H104.549V96.1566C104.79 95.8315 105.175 95.6714 105.7 95.6714H106.059C106.74 95.6714 107.208 95.9124 107.468 96.3959C107.732 95.9124 108.199 95.6714 108.869 95.6714H109.338C110.477 95.6714 111.046 96.292 111.046 97.5348V99.4939H110.462Z" fill="white"/>
<path d="M112.454 97.2311H115.569C115.566 96.797 115.475 96.5214 115.302 96.4025C115.165 96.3035 114.861 96.254 114.395 96.254H113.615C113.157 96.254 112.86 96.3052 112.72 96.4058C112.547 96.5296 112.457 96.8053 112.454 97.2311ZM115.574 97.8088H112.454V99.4939H111.804V97.2245C111.804 96.5924 111.937 96.1682 112.203 95.9536C112.436 95.7655 112.878 95.6714 113.527 95.6714H114.493C115.135 95.6714 115.574 95.7655 115.815 95.9602C116.086 96.1781 116.223 96.599 116.223 97.2245V99.4939H115.574V97.8088Z" fill="white"/>
<path d="M120.475 99.4939V97.1981C120.475 96.896 120.381 96.66 120.194 96.4917C120.006 96.3217 119.757 96.2375 119.45 96.2375H118.652C118.359 96.2375 118.113 96.325 117.916 96.5032C117.72 96.6782 117.621 96.9109 117.621 97.1981V99.4939H116.974V95.6714H117.621V96.1715C117.853 95.8381 118.199 95.6714 118.652 95.6714H119.45C119.976 95.6714 120.387 95.8084 120.681 96.0824C120.978 96.3563 121.125 96.7557 121.125 97.279V99.4939H120.475Z" fill="white"/>
<path d="M126.283 98.3105C126.283 98.8155 126.127 99.1555 125.819 99.3305C125.598 99.4576 125.215 99.5203 124.666 99.5203H123.539C122.829 99.5203 122.36 99.385 122.131 99.111C121.928 98.8717 121.827 98.3897 121.827 97.6668C121.827 97.1205 121.862 96.726 121.934 96.4834C122.022 96.1896 122.19 95.98 122.443 95.8562C122.692 95.7325 123.083 95.6714 123.61 95.6714H124.663C125.198 95.6714 125.578 95.7358 125.807 95.8678C126.121 96.0411 126.278 96.3745 126.278 96.8663H125.612C125.616 96.4867 125.29 96.2986 124.64 96.2986H123.615C123.102 96.2986 122.776 96.391 122.638 96.5758C122.534 96.7178 122.479 97.0561 122.479 97.5909C122.479 97.9821 122.492 98.2428 122.519 98.3699C122.555 98.568 122.648 98.705 122.798 98.7858C122.946 98.8651 123.197 98.9047 123.551 98.9047H124.645C124.955 98.9047 125.173 98.8799 125.3 98.8287C125.515 98.7446 125.622 98.5729 125.617 98.3105H126.283Z" fill="white"/>
<path d="M129.892 97.8154H127.29L127.295 97.2591H129.892V97.8154ZM131.284 98.3831C131.284 98.87 131.125 99.1886 130.808 99.3371C130.572 99.4543 130.102 99.512 129.395 99.512H128.551C128.015 99.512 127.627 99.4658 127.381 99.3751C127.117 99.2777 126.934 99.0945 126.831 98.8287C126.741 98.5861 126.694 98.1966 126.694 97.6619C126.694 97.0875 126.736 96.6782 126.816 96.4306C126.906 96.1385 127.084 95.9388 127.345 95.8298C127.594 95.7242 128 95.6714 128.561 95.6714H129.407C130.078 95.6714 130.564 95.7688 130.858 95.9602C131.133 96.1385 131.272 96.4174 131.272 96.7954H130.656C130.656 96.5511 130.541 96.3943 130.306 96.32C130.158 96.2771 129.849 96.2557 129.379 96.2557H128.599C128.079 96.2557 127.743 96.3035 127.589 96.4025C127.401 96.5263 127.305 96.8152 127.302 97.2641V97.8154C127.299 98.3254 127.388 98.6455 127.574 98.7809C127.719 98.8865 128.056 98.9393 128.583 98.9393H129.383C129.864 98.9393 130.176 98.9179 130.318 98.8733C130.549 98.804 130.666 98.6406 130.661 98.3831H131.284Z" fill="white"/>
<defs>
<filter id="filter0_d" x="0" y="0" width="208" height="261" filterUnits="userSpaceOnUse" color-interpolation-filters="sRGB">
<feFlood flood-opacity="0" result="BackgroundImageFix"/>
<feColorMatrix in="SourceAlpha" type="matrix" values="0 0 0 0 0 0 0 0 0 0 0 0 0 0 0 0 0 0 127 0"/>
<feOffset dx="4" dy="4"/>
<feGaussianBlur stdDeviation="2"/>
<feColorMatrix type="matrix" values="0 0 0 0 0 0 0 0 0 0 0 0 0 0 0 0 0 0 0.25 0"/>
<feBlend mode="normal" in2="BackgroundImageFix" result="effect1_dropShadow"/>
<feBlend mode="normal" in="SourceGraphic" in2="effect1_dropShadow" result="shape"/>
</filter>
<linearGradient id="paint0_linear" x1="69.6279" y1="79.95" x2="117.959" y2="80.3895" gradientUnits="userSpaceOnUse">
<stop stop-color="#290081"/>
<stop offset="1" stop-color="#FF0F00"/>
</linearGradient>
</defs>
</svg>
