<svg width="208" height="261" viewBox="0 0 208 261" fill="none" xmlns="http://www.w3.org/2000/svg">
<g filter="url(#filter0_d)">
<rect width="200" height="253" rx="8" fill="white" fill-opacity="0.08"/>
</g>
<path d="M80.1739 153.077H75.9739L75.1459 155.021H73.5379L77.3179 146.621H78.8539L82.6459 155.021H81.0139L80.1739 153.077ZM79.6579 151.853L78.0739 148.181L76.5019 151.853H79.6579ZM84.4642 146.621H88.1362C89.0322 146.621 89.8282 146.797 90.5242 147.149C91.2202 147.493 91.7602 147.985 92.1442 148.625C92.5282 149.257 92.7202 149.989 92.7202 150.821C92.7202 151.653 92.5282 152.389 92.1442 153.029C91.7602 153.661 91.2202 154.153 90.5242 154.505C89.8282 154.849 89.0322 155.021 88.1362 155.021H84.4642V146.621ZM88.0642 153.701C88.6802 153.701 89.2202 153.585 89.6842 153.353C90.1562 153.113 90.5162 152.777 90.7642 152.345C91.0202 151.905 91.1482 151.397 91.1482 150.821C91.1482 150.245 91.0202 149.741 90.7642 149.309C90.5162 148.869 90.1562 148.533 89.6842 148.301C89.2202 148.061 88.6802 147.941 88.0642 147.941H86.0242V153.701H88.0642ZM101.08 150.653C101.544 150.805 101.912 151.061 102.184 151.421C102.456 151.773 102.592 152.213 102.592 152.741C102.592 153.469 102.312 154.033 101.752 154.433C101.192 154.825 100.376 155.021 99.3042 155.021H95.1282V146.621H99.0642C100.056 146.621 100.82 146.817 101.356 147.209C101.892 147.593 102.16 148.125 102.16 148.805C102.16 149.221 102.064 149.589 101.872 149.909C101.68 150.229 101.416 150.477 101.08 150.653ZM96.6882 147.845V150.161H98.8962C99.4402 150.161 99.8562 150.065 100.144 149.873C100.44 149.673 100.588 149.385 100.588 149.009C100.588 148.625 100.44 148.337 100.144 148.145C99.8562 147.945 99.4402 147.845 98.8962 147.845H96.6882ZM99.2082 153.797C100.416 153.797 101.02 153.393 101.02 152.585C101.02 151.777 100.416 151.373 99.2082 151.373H96.6882V153.797H99.2082ZM105.007 146.621H106.567V153.701H110.959V155.021H105.007V146.621ZM116.436 155.141C115.276 155.141 114.372 154.817 113.724 154.169C113.076 153.513 112.752 152.577 112.752 151.361V146.621H114.312V151.301C114.312 152.949 115.024 153.773 116.448 153.773C117.864 153.773 118.572 152.949 118.572 151.301V146.621H120.108V151.361C120.108 152.577 119.784 153.513 119.136 154.169C118.496 154.817 117.596 155.141 116.436 155.141ZM129.342 153.713V155.021H123.042V146.621H129.174V147.929H124.602V150.113H128.658V151.397H124.602V153.713H129.342ZM93.7612 171.141C92.9052 171.141 92.1332 170.957 91.4452 170.589C90.7572 170.213 90.2172 169.697 89.8252 169.041C89.4332 168.377 89.2372 167.637 89.2372 166.821C89.2372 166.005 89.4332 165.269 89.8252 164.613C90.2172 163.949 90.7572 163.433 91.4452 163.065C92.1332 162.689 92.9052 162.501 93.7612 162.501C94.6172 162.501 95.3892 162.689 96.0772 163.065C96.7652 163.433 97.3052 163.945 97.6972 164.601C98.0892 165.257 98.2852 165.997 98.2852 166.821C98.2852 167.645 98.0892 168.385 97.6972 169.041C97.3052 169.697 96.7652 170.213 96.0772 170.589C95.3892 170.957 94.6172 171.141 93.7612 171.141ZM93.7612 169.773C94.3212 169.773 94.8252 169.649 95.2732 169.401C95.7212 169.145 96.0732 168.793 96.3292 168.345C96.5852 167.889 96.7132 167.381 96.7132 166.821C96.7132 166.261 96.5852 165.757 96.3292 165.309C96.0732 164.853 95.7212 164.501 95.2732 164.253C94.8252 163.997 94.3212 163.869 93.7612 163.869C93.2012 163.869 92.6972 163.997 92.2492 164.253C91.8012 164.501 91.4492 164.853 91.1932 165.309C90.9372 165.757 90.8092 166.261 90.8092 166.821C90.8092 167.381 90.9372 167.889 91.1932 168.345C91.4492 168.793 91.8012 169.145 92.2492 169.401C92.6972 169.649 93.2012 169.773 93.7612 169.773ZM102.249 163.929V166.485H106.305V167.805H102.249V171.021H100.689V162.621H106.821V163.929H102.249ZM110.639 163.929V166.485H114.695V167.805H110.639V171.021H109.079V162.621H115.211V163.929H110.639Z" fill="white" fill-opacity="0.87"/>
<path d="M78.5829 82.0283C77.0398 77.9183 76.2507 75.9428 75.9739 75.0139H75.9548C75.6176 76.0605 74.7283 78.5116 73.4826 82.0283H78.5829ZM73.1088 83.0161L71.3477 87.7989H70.2627L75.3408 73.9673H76.6071L81.9031 87.7989H80.737L78.9393 83.0161H73.1088Z" fill="white"/>
<path d="M83.5068 83.04C83.5068 85.7456 84.9099 87.2089 86.6089 87.2089C89.2196 87.2089 89.9307 85.41 89.9307 82.7235C89.9307 80.1738 89.3166 78.7105 86.7887 78.7105C84.8304 78.7105 83.5068 80.2724 83.5068 83.04ZM90.8788 73.3359V85.0553C90.8788 86.0033 90.8788 86.9131 90.8979 87.9008H89.9498C89.91 87.6623 89.8909 86.7334 89.8909 86.2419C89.3962 87.4475 88.2905 88.1378 86.5708 88.1378C84.0015 88.1378 82.46 86.0431 82.46 83.0782C82.46 80.0354 84.1383 77.7816 86.8285 77.7816C88.8043 77.7816 89.5934 78.6326 89.8909 79.264V73.3359H90.8788Z" fill="white"/>
<path d="M94.9023 86.8112H98.7967C100.615 86.8112 102.138 85.903 102.138 83.8654C102.138 82.1079 101.011 80.9022 98.224 80.9022H94.9023V86.8112ZM98.321 79.9145C100.714 79.9145 101.624 79.0253 101.624 77.4252C101.624 76.0605 100.674 74.9534 98.7378 74.9534H94.9023V79.9145H98.321ZM93.8555 73.9673H98.6774C101.326 73.9673 102.752 75.3702 102.752 77.3663C102.752 79.0062 101.762 80.0735 100.615 80.3884C101.605 80.6652 103.243 81.6339 103.243 83.8066C103.243 86.5742 101.169 87.7989 98.7585 87.7989H93.8555V73.9673Z" fill="white"/>
<path d="M106.133 73.3359H105.146V87.8993H106.133V73.3359Z" fill="white"/>
<path d="M115.974 84.9573C115.974 85.9243 115.995 87.4672 115.995 87.841H115.045C115.007 87.5849 114.986 86.9328 114.986 86.1216C114.57 87.2891 113.563 88.0796 111.803 88.0796C110.381 88.0796 108.562 87.5261 108.562 84.5024V77.9619H109.531V84.2638C109.531 85.708 109.985 87.1109 111.943 87.1109C114.154 87.1109 114.986 85.8655 114.986 83.0406V77.9619H115.974V84.9573Z" fill="white"/>
<path d="M124.918 82.178C124.897 80.2232 123.83 78.6804 121.894 78.6804C119.857 78.6804 118.928 80.1023 118.712 82.178H124.918ZM118.653 83.0481C118.672 85.5962 119.956 87.1788 121.854 87.1788C123.712 87.1788 124.345 86.129 124.7 85.321H125.709C125.293 86.6253 124.245 88.1077 121.816 88.1077C118.811 88.1077 117.645 85.5183 117.645 83.0083C117.645 80.1819 119.048 77.7515 121.934 77.7515C124.977 77.7515 125.946 80.3791 125.946 82.2369C125.946 82.5137 125.946 82.7904 125.927 83.0481H118.653Z" fill="white"/>
<path d="M123.953 96.8185C122.056 95.2231 119.293 95.0784 117.237 96.4606L116.098 97.2289C114.516 98.2961 112.436 98.1307 111.039 96.8312C109.11 95.0402 106.154 94.8446 104.009 96.3652L102.821 97.2066C101.356 98.2452 99.3498 98.1943 97.9371 97.0857L96.833 96.2157C94.9192 94.7126 92.2799 94.6155 90.2627 95.9739L88.7959 96.9616C87.3021 97.9685 85.3565 97.8858 83.9533 96.7549L82.0045 95.1834C80.0986 93.6453 77.4467 93.5244 75.4088 94.8812L69.54 98.7844L70.3705 100.033L76.2408 96.1298C77.7282 95.1388 79.6675 95.2263 81.0627 96.3509L83.0131 97.9224C84.9301 99.4684 87.5916 99.5813 89.6343 98.2055L91.1011 97.2177C92.5758 96.2252 94.5071 96.2952 95.9055 97.3943L97.0096 98.2643C98.9409 99.7833 101.688 99.8485 103.688 98.4313L104.878 97.5883C106.45 96.4781 108.61 96.6213 110.017 97.9287C111.929 99.707 114.773 99.9281 116.938 98.4727L118.077 97.706C119.582 96.6913 121.6 96.801 122.985 97.9669L126.068 100.561L127.036 99.4127L123.953 96.8185Z" fill="white"/>
<defs>
<filter id="filter0_d" x="0" y="0" width="208" height="261" filterUnits="userSpaceOnUse" color-interpolation-filters="sRGB">
<feFlood flood-opacity="0" result="BackgroundImageFix"/>
<feColorMatrix in="SourceAlpha" type="matrix" values="0 0 0 0 0 0 0 0 0 0 0 0 0 0 0 0 0 0 127 0"/>
<feOffset dx="4" dy="4"/>
<feGaussianBlur stdDeviation="2"/>
<feColorMatrix type="matrix" values="0 0 0 0 0 0 0 0 0 0 0 0 0 0 0 0 0 0 0.25 0"/>
<feBlend mode="normal" in2="BackgroundImageFix" result="effect1_dropShadow"/>
<feBlend mode="normal" in="SourceGraphic" in2="effect1_dropShadow" result="shape"/>
</filter>
</defs>
</svg>
