<svg width="276" height="296" viewBox="0 0 276 296" fill="none" xmlns="http://www.w3.org/2000/svg">
<g filter="url(#filter0_d)">
<rect x="42" y="35" width="200" height="253" rx="8" fill="white" fill-opacity="0.08"/>
</g>
<path d="M93.554 190.863V192.171H87.254V183.771H93.386V185.079H88.814V187.263H92.87V188.547H88.814V190.863H93.554ZM99.8959 192.291C99.0479 192.291 98.2799 192.107 97.5919 191.739C96.9119 191.363 96.3759 190.847 95.9839 190.191C95.5999 189.535 95.4079 188.795 95.4079 187.971C95.4079 187.147 95.6039 186.407 95.9959 185.751C96.3879 185.095 96.9239 184.583 97.6039 184.215C98.2919 183.839 99.0599 183.651 99.9079 183.651C100.596 183.651 101.224 183.771 101.792 184.011C102.36 184.251 102.84 184.599 103.232 185.055L102.224 186.003C101.616 185.347 100.868 185.019 99.9799 185.019C99.4039 185.019 98.8879 185.147 98.4319 185.403C97.9759 185.651 97.6199 185.999 97.3639 186.447C97.1079 186.895 96.9799 187.403 96.9799 187.971C96.9799 188.539 97.1079 189.047 97.3639 189.495C97.6199 189.943 97.9759 190.295 98.4319 190.551C98.8879 190.799 99.4039 190.923 99.9799 190.923C100.868 190.923 101.616 190.591 102.224 189.927L103.232 190.887C102.84 191.343 102.356 191.691 101.78 191.931C101.212 192.171 100.584 192.291 99.8959 192.291ZM109.225 192.291C108.369 192.291 107.597 192.107 106.909 191.739C106.221 191.363 105.681 190.847 105.289 190.191C104.897 189.527 104.701 188.787 104.701 187.971C104.701 187.155 104.897 186.419 105.289 185.763C105.681 185.099 106.221 184.583 106.909 184.215C107.597 183.839 108.369 183.651 109.225 183.651C110.081 183.651 110.853 183.839 111.541 184.215C112.229 184.583 112.769 185.095 113.161 185.751C113.553 186.407 113.749 187.147 113.749 187.971C113.749 188.795 113.553 189.535 113.161 190.191C112.769 190.847 112.229 191.363 111.541 191.739C110.853 192.107 110.081 192.291 109.225 192.291ZM109.225 190.923C109.785 190.923 110.289 190.799 110.737 190.551C111.185 190.295 111.537 189.943 111.793 189.495C112.049 189.039 112.177 188.531 112.177 187.971C112.177 187.411 112.049 186.907 111.793 186.459C111.537 186.003 111.185 185.651 110.737 185.403C110.289 185.147 109.785 185.019 109.225 185.019C108.665 185.019 108.161 185.147 107.713 185.403C107.265 185.651 106.913 186.003 106.657 186.459C106.401 186.907 106.273 187.411 106.273 187.971C106.273 188.531 106.401 189.039 106.657 189.495C106.913 189.943 107.265 190.295 107.713 190.551C108.161 190.799 108.665 190.923 109.225 190.923ZM123.616 183.771V192.171H122.332L117.7 186.483V192.171H116.152V183.771H117.436L122.068 189.459V183.771H123.616ZM130.541 192.291C129.685 192.291 128.913 192.107 128.225 191.739C127.537 191.363 126.997 190.847 126.605 190.191C126.213 189.527 126.017 188.787 126.017 187.971C126.017 187.155 126.213 186.419 126.605 185.763C126.997 185.099 127.537 184.583 128.225 184.215C128.913 183.839 129.685 183.651 130.541 183.651C131.397 183.651 132.169 183.839 132.857 184.215C133.545 184.583 134.085 185.095 134.477 185.751C134.869 186.407 135.065 187.147 135.065 187.971C135.065 188.795 134.869 189.535 134.477 190.191C134.085 190.847 133.545 191.363 132.857 191.739C132.169 192.107 131.397 192.291 130.541 192.291ZM130.541 190.923C131.101 190.923 131.605 190.799 132.053 190.551C132.501 190.295 132.853 189.943 133.109 189.495C133.365 189.039 133.493 188.531 133.493 187.971C133.493 187.411 133.365 186.907 133.109 186.459C132.853 186.003 132.501 185.651 132.053 185.403C131.605 185.147 131.101 185.019 130.541 185.019C129.981 185.019 129.477 185.147 129.029 185.403C128.581 185.651 128.229 186.003 127.973 186.459C127.717 186.907 127.589 187.411 127.589 187.971C127.589 188.531 127.717 189.039 127.973 189.495C128.229 189.943 128.581 190.295 129.029 190.551C129.477 190.799 129.981 190.923 130.541 190.923ZM145.185 192.171L145.173 186.603L142.413 191.211H141.717L138.957 186.675V192.171H137.469V183.771H138.753L142.089 189.339L145.365 183.771H146.649L146.661 192.171H145.185ZM153.304 189.207V192.171H151.744V189.231L148.444 183.771H150.112L152.572 187.863L155.056 183.771H156.592L153.304 189.207ZM164.134 185.091H161.35V183.771H168.478V185.091H165.694V192.171H164.134V185.091ZM173.858 192.291C172.698 192.291 171.794 191.967 171.146 191.319C170.498 190.663 170.174 189.727 170.174 188.511V183.771H171.734V188.451C171.734 190.099 172.446 190.923 173.87 190.923C175.286 190.923 175.994 190.099 175.994 188.451V183.771H177.53V188.511C177.53 189.727 177.206 190.663 176.558 191.319C175.918 191.967 175.018 192.291 173.858 192.291ZM187.929 183.771V192.171H186.645L182.013 186.483V192.171H180.465V183.771H181.749L186.381 189.459V183.771H187.929ZM197.23 190.863V192.171H190.93V183.771H197.062V185.079H192.49V187.263H196.546V188.547H192.49V190.863H197.23ZM137.261 208.291C136.101 208.291 135.197 207.967 134.549 207.319C133.901 206.663 133.577 205.727 133.577 204.511V199.771H135.137V204.451C135.137 206.099 135.849 206.923 137.273 206.923C138.689 206.923 139.397 206.099 139.397 204.451V199.771H140.933V204.511C140.933 205.727 140.609 206.663 139.961 207.319C139.321 207.967 138.421 208.291 137.261 208.291ZM147.323 199.771C148.051 199.771 148.683 199.891 149.219 200.131C149.763 200.371 150.179 200.715 150.467 201.163C150.755 201.611 150.899 202.143 150.899 202.759C150.899 203.367 150.755 203.899 150.467 204.355C150.179 204.803 149.763 205.147 149.219 205.387C148.683 205.627 148.051 205.747 147.323 205.747H145.427V208.171H143.867V199.771H147.323ZM147.251 204.427C147.931 204.427 148.447 204.283 148.799 203.995C149.151 203.707 149.327 203.295 149.327 202.759C149.327 202.223 149.151 201.811 148.799 201.523C148.447 201.235 147.931 201.091 147.251 201.091H145.427V204.427H147.251Z" fill="white" fill-opacity="0.87"/>
<g filter="url(#filter1_d)">
<path d="M164.579 127.137C164.247 127.795 163.686 128.233 162.894 128.455C162.262 128.635 161.229 128.726 159.793 128.726H157.852C156.375 128.726 155.303 128.6 154.629 128.349C153.887 128.079 153.38 127.576 153.109 126.844C152.858 126.162 152.732 125.085 152.732 123.608C152.732 122.043 152.838 120.919 153.048 120.237C153.299 119.435 153.792 118.877 154.525 118.566C155.215 118.266 156.336 118.115 157.881 118.115H159.807C161.463 118.115 162.655 118.287 163.382 118.626C164.11 118.968 164.584 119.58 164.807 120.463C164.986 121.125 165.075 122.319 165.075 124.045C165.075 125.449 164.911 126.48 164.579 127.137ZM150.218 128.213C149.606 128.565 148.549 128.74 147.043 128.74H143.926C141.968 128.74 140.674 128.364 140.042 127.611C139.48 126.95 139.199 125.619 139.199 123.624C139.199 122.118 139.299 121.03 139.5 120.357C139.741 119.545 140.208 118.968 140.9 118.626C141.592 118.287 142.666 118.115 144.121 118.115H147.027C148.502 118.115 149.556 118.296 150.189 118.658C151.051 119.139 151.483 120.057 151.483 121.41H149.646C149.657 120.368 148.762 119.845 146.966 119.845H144.137C142.721 119.845 141.823 120.101 141.442 120.612C141.151 121.005 141.006 121.937 141.006 123.412C141.006 124.497 141.04 125.214 141.11 125.565C141.212 126.107 141.467 126.487 141.877 126.709C142.289 126.93 142.981 127.041 143.956 127.041H146.982C147.835 127.041 148.436 126.971 148.789 126.83C149.381 126.598 149.671 126.123 149.662 125.399H151.497C151.497 126.795 151.071 127.733 150.218 128.213ZM133.533 118.149C134.963 118.195 136.062 118.407 136.792 118.807C137.563 119.228 138 119.886 138.101 120.779C138.12 120.96 138.14 121.537 138.162 122.509V124.045H127.174C127.161 125.449 127.412 126.338 127.925 126.709C128.326 127 129.255 127.145 130.71 127.145H132.922C134.247 127.145 135.106 127.084 135.498 126.964C136.138 126.774 136.455 126.324 136.446 125.611H138.162C138.162 126.955 137.724 127.833 136.852 128.244C136.199 128.565 134.899 128.726 132.953 128.726H130.621C129.143 128.726 128.07 128.6 127.398 128.349C126.667 128.079 126.159 127.576 125.878 126.844C125.627 126.173 125.502 125.099 125.502 123.624C125.502 122.774 125.535 122.065 125.599 121.476L100.987 132.843L166.603 132.537L175.362 100.618L133.533 118.149Z" fill="#00FF0A"/>
</g>
<path d="M161.872 120.008C161.502 119.918 160.788 119.873 159.734 119.873H157.988C156.534 119.873 155.615 120.022 155.233 120.325C154.772 120.694 154.541 121.583 154.541 122.987V123.997C154.541 125.361 154.778 126.223 155.249 126.585C155.62 126.856 156.518 126.99 157.943 126.99H159.764C160.801 126.99 161.496 126.951 161.856 126.87C162.389 126.761 162.757 126.496 162.963 126.081C163.171 125.665 163.272 124.965 163.272 123.982V122.973C163.272 121.969 163.172 121.255 162.971 120.828C162.77 120.401 162.405 120.128 161.872 120.008Z" fill="#00FF0A"/>
<path d="M127.172 122.536H136.458C136.438 121.552 136.419 121.016 136.399 120.925C136.307 120.403 135.946 120.068 135.315 119.917C134.903 119.817 134.099 119.767 132.906 119.767H130.753C130.337 119.767 129.978 119.781 129.646 119.805L127.54 120.687C127.308 121.112 127.178 121.717 127.172 122.536Z" fill="#00FF0A"/>
<defs>
<filter id="filter0_d" x="42" y="35" width="208" height="261" filterUnits="userSpaceOnUse" color-interpolation-filters="sRGB">
<feFlood flood-opacity="0" result="BackgroundImageFix"/>
<feColorMatrix in="SourceAlpha" type="matrix" values="0 0 0 0 0 0 0 0 0 0 0 0 0 0 0 0 0 0 127 0"/>
<feOffset dx="4" dy="4"/>
<feGaussianBlur stdDeviation="2"/>
<feColorMatrix type="matrix" values="0 0 0 0 0 0 0 0 0 0 0 0 0 0 0 0 0 0 0.25 0"/>
<feBlend mode="normal" in2="BackgroundImageFix" result="effect1_dropShadow"/>
<feBlend mode="normal" in="SourceGraphic" in2="effect1_dropShadow" result="shape"/>
</filter>
<filter id="filter1_d" x="0.987305" y="0.617676" width="274.375" height="232.225" filterUnits="userSpaceOnUse" color-interpolation-filters="sRGB">
<feFlood flood-opacity="0" result="BackgroundImageFix"/>
<feColorMatrix in="SourceAlpha" type="matrix" values="0 0 0 0 0 0 0 0 0 0 0 0 0 0 0 0 0 0 127 0"/>
<feOffset/>
<feGaussianBlur stdDeviation="50"/>
<feColorMatrix type="matrix" values="0 0 0 0 0.8 0 0 0 0 1 0 0 0 0 0 0 0 0 1 0"/>
<feBlend mode="lighten" in2="BackgroundImageFix" result="effect1_dropShadow"/>
<feBlend mode="normal" in="SourceGraphic" in2="effect1_dropShadow" result="shape"/>
</filter>
</defs>
</svg>
