<svg width="233" height="293" viewBox="0 0 233 293" fill="none" xmlns="http://www.w3.org/2000/svg">
<rect x="16" y="40" width="200" height="253" rx="8" fill="white" fill-opacity="0.08"/>
<path d="M67.3775 183.037H68.9375V191.437H67.3775V183.037ZM79.4236 183.037V191.437H78.1396L73.5076 185.749V191.437H71.9596V183.037H73.2436L77.8756 188.725V183.037H79.4236ZM84.1284 184.357H81.3444V183.037H88.4724V184.357H85.6884V191.437H84.1284V184.357ZM95.4193 189.493H91.2193L90.3913 191.437H88.7833L92.5633 183.037H94.0993L97.8913 191.437H96.2593L95.4193 189.493ZM94.9033 188.269L93.3193 184.597L91.7473 188.269H94.9033ZM102.602 187.921L101.27 189.289V191.437H99.7096V183.037H101.27V187.345L105.422 183.037H107.174L103.646 186.793L107.39 191.437H105.566L102.602 187.921ZM115.502 190.129V191.437H109.202V183.037H115.334V184.345H110.762V186.529H114.818V187.813H110.762V190.129H115.502ZM120.463 181.333H121.807L117.847 192.637H116.503L120.463 181.333ZM125.564 191.557C124.916 191.557 124.288 191.465 123.68 191.281C123.08 191.097 122.604 190.853 122.252 190.549L122.792 189.337C123.136 189.609 123.556 189.833 124.052 190.009C124.556 190.177 125.06 190.261 125.564 190.261C126.188 190.261 126.652 190.161 126.956 189.961C127.268 189.761 127.424 189.497 127.424 189.169C127.424 188.929 127.336 188.733 127.16 188.581C126.992 188.421 126.776 188.297 126.512 188.209C126.248 188.121 125.888 188.021 125.432 187.909C124.792 187.757 124.272 187.605 123.872 187.453C123.48 187.301 123.14 187.065 122.852 186.745C122.572 186.417 122.432 185.977 122.432 185.425C122.432 184.961 122.556 184.541 122.804 184.165C123.06 183.781 123.44 183.477 123.944 183.253C124.456 183.029 125.08 182.917 125.816 182.917C126.328 182.917 126.832 182.981 127.328 183.109C127.824 183.237 128.252 183.421 128.612 183.661L128.12 184.873C127.752 184.657 127.368 184.493 126.968 184.381C126.568 184.269 126.18 184.213 125.804 184.213C125.188 184.213 124.728 184.317 124.424 184.525C124.128 184.733 123.98 185.009 123.98 185.353C123.98 185.593 124.064 185.789 124.232 185.941C124.408 186.093 124.628 186.213 124.892 186.301C125.156 186.389 125.516 186.489 125.972 186.601C126.596 186.745 127.108 186.897 127.508 187.057C127.908 187.209 128.248 187.445 128.528 187.765C128.816 188.085 128.96 188.517 128.96 189.061C128.96 189.525 128.832 189.945 128.576 190.321C128.328 190.697 127.948 190.997 127.436 191.221C126.924 191.445 126.3 191.557 125.564 191.557ZM143.532 183.037L140.748 191.437H139.092L137.016 185.221L134.904 191.437H133.236L130.452 183.037H132.072L134.16 189.421L136.332 183.037H137.772L139.896 189.457L142.044 183.037H143.532ZM145.553 183.037H147.113V191.437H145.553V183.037ZM155.631 191.437L153.915 188.977C153.843 188.985 153.735 188.989 153.591 188.989H151.695V191.437H150.135V183.037H153.591C154.319 183.037 154.951 183.157 155.487 183.397C156.031 183.637 156.447 183.981 156.735 184.429C157.023 184.877 157.167 185.409 157.167 186.025C157.167 186.657 157.011 187.201 156.699 187.657C156.395 188.113 155.955 188.453 155.379 188.677L157.311 191.437H155.631ZM155.595 186.025C155.595 185.489 155.419 185.077 155.067 184.789C154.715 184.501 154.199 184.357 153.519 184.357H151.695V187.705H153.519C154.199 187.705 154.715 187.561 155.067 187.273C155.419 186.977 155.595 186.561 155.595 186.025ZM159.663 183.037H161.223V190.117H165.615V191.437H159.663V183.037ZM81.6348 200.345V202.901H85.6908V204.221H81.6348V207.437H80.0748V199.037H86.2068V200.345H81.6348ZM88.4654 199.037H90.0254V206.117H94.4174V207.437H88.4654V199.037ZM101.906 205.493H97.7056L96.8776 207.437H95.2696L99.0496 199.037H100.586L104.378 207.437H102.746L101.906 205.493ZM101.39 204.269L99.8056 200.597L98.2336 204.269H101.39ZM109.652 199.037C110.38 199.037 111.012 199.157 111.548 199.397C112.092 199.637 112.508 199.981 112.796 200.429C113.084 200.877 113.228 201.409 113.228 202.025C113.228 202.633 113.084 203.165 112.796 203.621C112.508 204.069 112.092 204.413 111.548 204.653C111.012 204.893 110.38 205.013 109.652 205.013H107.756V207.437H106.196V199.037H109.652ZM109.58 203.693C110.26 203.693 110.776 203.549 111.128 203.261C111.48 202.973 111.656 202.561 111.656 202.025C111.656 201.489 111.48 201.077 111.128 200.789C110.776 200.501 110.26 200.357 109.58 200.357H107.756V203.693H109.58ZM118.257 207.557C117.609 207.557 116.981 207.465 116.373 207.281C115.773 207.097 115.297 206.853 114.945 206.549L115.485 205.337C115.829 205.609 116.249 205.833 116.745 206.009C117.249 206.177 117.753 206.261 118.257 206.261C118.881 206.261 119.345 206.161 119.649 205.961C119.961 205.761 120.117 205.497 120.117 205.169C120.117 204.929 120.029 204.733 119.853 204.581C119.685 204.421 119.469 204.297 119.205 204.209C118.941 204.121 118.581 204.021 118.125 203.909C117.485 203.757 116.965 203.605 116.565 203.453C116.173 203.301 115.833 203.065 115.545 202.745C115.265 202.417 115.125 201.977 115.125 201.425C115.125 200.961 115.249 200.541 115.497 200.165C115.753 199.781 116.133 199.477 116.637 199.253C117.149 199.029 117.773 198.917 118.509 198.917C119.021 198.917 119.525 198.981 120.021 199.109C120.517 199.237 120.945 199.421 121.305 199.661L120.813 200.873C120.445 200.657 120.061 200.493 119.661 200.381C119.261 200.269 118.873 200.213 118.497 200.213C117.881 200.213 117.421 200.317 117.117 200.525C116.821 200.733 116.673 201.009 116.673 201.353C116.673 201.593 116.757 201.789 116.925 201.941C117.101 202.093 117.321 202.213 117.585 202.301C117.849 202.389 118.209 202.489 118.665 202.601C119.289 202.745 119.801 202.897 120.201 203.057C120.601 203.209 120.941 203.445 121.221 203.765C121.509 204.085 121.653 204.517 121.653 205.061C121.653 205.525 121.525 205.945 121.269 206.321C121.021 206.697 120.641 206.997 120.129 207.221C119.617 207.445 118.993 207.557 118.257 207.557ZM131.94 207.557C131.084 207.557 130.312 207.373 129.624 207.005C128.936 206.629 128.396 206.113 128.004 205.457C127.612 204.793 127.416 204.053 127.416 203.237C127.416 202.421 127.612 201.685 128.004 201.029C128.396 200.365 128.936 199.849 129.624 199.481C130.312 199.105 131.084 198.917 131.94 198.917C132.796 198.917 133.568 199.105 134.256 199.481C134.944 199.849 135.484 200.361 135.876 201.017C136.268 201.673 136.464 202.413 136.464 203.237C136.464 204.061 136.268 204.801 135.876 205.457C135.484 206.113 134.944 206.629 134.256 207.005C133.568 207.373 132.796 207.557 131.94 207.557ZM131.94 206.189C132.5 206.189 133.004 206.065 133.452 205.817C133.9 205.561 134.252 205.209 134.508 204.761C134.764 204.305 134.892 203.797 134.892 203.237C134.892 202.677 134.764 202.173 134.508 201.725C134.252 201.269 133.9 200.917 133.452 200.669C133.004 200.413 132.5 200.285 131.94 200.285C131.38 200.285 130.876 200.413 130.428 200.669C129.98 200.917 129.628 201.269 129.372 201.725C129.116 202.173 128.988 202.677 128.988 203.237C128.988 203.797 129.116 204.305 129.372 204.761C129.628 205.209 129.98 205.561 130.428 205.817C130.876 206.065 131.38 206.189 131.94 206.189ZM140.428 200.345V202.901H144.484V204.221H140.428V207.437H138.868V199.037H145V200.345H140.428ZM148.818 200.345V202.901H152.874V204.221H148.818V207.437H147.258V199.037H153.39V200.345H148.818Z" fill="white" fill-opacity="0.87"/>
<g filter="url(#filter0_d)">
<path d="M122.436 105.863L120.944 107.843L123.889 110.961L125.536 108.798L122.436 105.863Z" fill="url(#paint0_linear)"/>
</g>
<g filter="url(#filter1_d)">
<path d="M116.105 114.273L114.681 116.161L116.601 119.417L113.254 120.618L112.559 118.976L110.247 122.04L110.317 122.234L109.985 122.388L106.375 127.177L110.513 125.391C110.546 125.52 110.546 125.652 110.604 125.778L111.364 127.43L118.254 118.38L116.105 114.273Z" fill="url(#paint1_linear)"/>
</g>
<g filter="url(#filter2_d)">
<path d="M119.61 109.647L117.843 111.992L120.366 115.629L122.269 113.127L119.61 109.647Z" fill="url(#paint2_linear)"/>
</g>
<g filter="url(#filter3_d)">
<path d="M103.779 128.304L104.075 128.177L107.6 123.499L106.316 124.094L102.932 104.457L103.823 104.051L109.746 120.652L111.996 117.668L105.748 102.94L106.641 102.534L113.998 115.015L115.467 113.067L109.434 101.532L110.325 101.125L117.102 110.899L118.833 108.602L112.36 100.123L113.251 99.7171L120.079 106.948L121.528 105.026L113.09 97.0433C112.858 96.8238 112.519 96.7618 112.225 96.8826L101.119 101.441C100.794 101.576 100.592 101.904 100.621 102.257L102.649 127.624C102.694 128.179 103.27 128.524 103.779 128.304Z" fill="url(#paint3_linear)"/>
</g>
<g filter="url(#filter4_d)">
<path d="M126.444 109.647L124.753 111.868L127.881 115.181L124.931 116.563L123.053 114.101L121.112 116.649L121.597 117.349L120.187 117.864L111.948 128.688L115.2 135.771C115.504 136.434 116.277 136.737 116.952 136.458L129.491 131.265C130.246 130.952 130.555 130.047 130.148 129.337L124.425 119.366L131.737 116.21C132.272 115.98 132.396 115.278 131.974 114.877L126.444 109.647Z" fill="url(#paint4_linear)"/>
</g>
<path d="M87.0197 141.606H87.4619V144.215H87.0197V141.606Z" fill="white"/>
<path d="M89.67 141.606C90.0311 141.606 90.3095 141.7 90.5115 141.886C90.712 142.074 90.8138 142.346 90.8138 142.702V144.215H90.37V142.646C90.37 142.441 90.3047 142.28 90.1791 142.166C90.0502 142.05 89.8816 141.992 89.67 141.992H89.1227C88.9127 141.992 88.7425 142.05 88.6168 142.166C88.488 142.28 88.4243 142.441 88.4243 142.646V144.215H87.9805V142.702C87.9805 142.346 88.0807 142.074 88.2827 141.886C88.4832 141.7 88.7648 141.606 89.1227 141.606H89.67Z" fill="white"/>
<path d="M92.6182 142.004V143.284C92.6182 143.483 92.6675 143.624 92.7709 143.707C92.8504 143.774 92.9777 143.814 93.1447 143.823V144.215H93.1161C92.7725 144.215 92.5259 144.138 92.3843 143.989C92.2427 143.838 92.1711 143.589 92.1711 143.241V142.004H90.9971V141.606H93.9497V142L92.6182 142.004Z" fill="white"/>
<path d="M96.1079 143.025H95.2075C95.015 143.025 94.8718 143.044 94.7764 143.079C94.6189 143.142 94.5425 143.26 94.5425 143.437C94.5441 143.602 94.6189 143.713 94.7652 143.764C94.8496 143.796 94.9943 143.812 95.2011 143.812H95.9473C96.2066 143.812 96.3911 143.777 96.5025 143.706C96.6043 143.639 96.6552 143.529 96.6552 143.381C96.6425 143.141 96.4611 143.022 96.1079 143.025ZM97.1245 144.23H96.6631V144.003C96.4722 144.157 96.2368 144.234 95.9552 144.234H95.19C94.8161 144.234 94.5505 144.189 94.4009 144.103C94.1909 143.984 94.0859 143.752 94.0859 143.406H94.0939C94.0987 143.085 94.2084 142.866 94.4216 142.748C94.5759 142.664 94.8321 142.622 95.1932 142.622H96.1159C96.1907 142.622 96.2734 142.633 96.3641 142.656C96.5184 142.691 96.6202 142.745 96.6695 142.82C96.6679 142.516 96.6202 142.309 96.5295 142.201C96.4293 142.089 96.2336 142.035 95.9409 142.035H95.2043C94.7589 142.035 94.5409 142.164 94.5457 142.422H94.0907C94.0875 142.101 94.2259 141.873 94.5043 141.74C94.6841 141.652 94.9148 141.606 95.19 141.606H95.9823C96.4341 141.606 96.7538 141.725 96.9447 141.961C97.0704 142.115 97.1356 142.303 97.1356 142.527C97.1356 142.578 97.1325 142.624 97.1245 142.662V144.23Z" fill="white"/>
<path d="M98.0839 144.215H97.6416V141.606H98.0839V142.681H98.6041C98.9716 142.681 99.2293 142.668 99.3756 142.645C99.5618 142.611 99.689 142.548 99.759 142.454C99.8275 142.357 99.8625 142.201 99.8625 141.986V141.606H100.305V142.02C100.305 142.436 100.176 142.723 99.9213 142.878C100.176 143.033 100.305 143.321 100.305 143.741V144.21H99.8625V143.771C99.8625 143.551 99.8306 143.392 99.7638 143.3C99.6986 143.204 99.5745 143.142 99.39 143.114C99.2452 143.09 98.9811 143.079 98.5977 143.079H98.0839V144.215Z" fill="white"/>
<path d="M103.47 142.689C103.466 142.446 103.461 142.314 103.456 142.29C103.435 142.161 103.345 142.078 103.189 142.042C103.087 142.016 102.89 142.004 102.592 142.004H102.061C101.706 142.004 101.477 142.037 101.374 142.105C101.245 142.19 101.18 142.384 101.176 142.689H103.47ZM103.892 143.454C103.892 143.787 103.784 144.003 103.569 144.106C103.407 144.184 103.087 144.226 102.603 144.226H102.029C101.663 144.226 101.397 144.194 101.232 144.132C101.051 144.065 100.925 143.941 100.855 143.76C100.793 143.593 100.763 143.327 100.763 142.964C100.763 142.571 100.788 142.291 100.844 142.123C100.906 141.926 101.027 141.789 101.205 141.714C101.377 141.643 101.652 141.606 102.035 141.606H102.611C103.038 141.606 103.349 141.662 103.553 141.773C103.744 141.876 103.852 142.04 103.878 142.26C103.882 142.306 103.887 142.447 103.892 142.689V143.068H101.176C101.173 143.414 101.235 143.636 101.362 143.726C101.461 143.798 101.69 143.834 102.05 143.834H102.597C102.925 143.834 103.136 143.82 103.235 143.79C103.392 143.742 103.47 143.631 103.467 143.454H103.892Z" fill="white"/>
<path d="M104.07 144.555L104.923 141.396L105.25 141.484L104.397 144.643L104.07 144.555Z" fill="white"/>
<path d="M108.615 143.446C108.615 143.736 108.542 143.938 108.393 144.057C108.261 144.16 108.051 144.213 107.756 144.213H106.45C105.878 144.213 105.593 143.966 105.596 143.473H106.045C106.045 143.701 106.205 143.814 106.528 143.814H107.655C107.812 143.814 107.928 143.795 108.006 143.752C108.108 143.694 108.159 143.593 108.159 143.446C108.159 143.281 108.07 143.166 107.895 143.107C107.787 143.072 107.629 143.052 107.421 143.052C107.338 143.052 107.211 143.055 107.047 143.061C106.88 143.069 106.754 143.072 106.668 143.072C106.339 143.072 106.092 143.03 105.927 142.948C105.695 142.831 105.58 142.626 105.58 142.331C105.58 142.062 105.66 141.872 105.817 141.754C105.954 141.654 106.162 141.606 106.444 141.606H107.686C108.299 141.606 108.604 141.851 108.604 142.342H108.137C108.137 142.113 107.973 142 107.645 142H106.471C106.202 142 106.065 142.112 106.065 142.338C106.065 142.573 106.313 142.691 106.807 142.691C106.885 142.691 106.998 142.686 107.152 142.68C107.305 142.67 107.419 142.665 107.497 142.665C107.833 142.665 108.089 142.711 108.262 142.804C108.499 142.928 108.615 143.142 108.615 143.446Z" fill="white"/>
<path d="M109.459 142.948C109.459 143.534 109.753 143.828 110.339 143.828C110.714 143.828 110.974 143.739 111.112 143.562C111.233 143.41 111.293 143.136 111.293 142.745V141.606H111.707V142.775C111.707 143.131 111.756 143.386 111.857 143.54C111.981 143.731 112.21 143.828 112.549 143.828C112.894 143.828 113.139 143.768 113.28 143.648C113.443 143.516 113.524 143.284 113.524 142.948L113.527 141.606H113.925V142.94C113.925 143.79 113.519 144.215 112.705 144.215C112.385 144.215 112.154 144.192 112.016 144.151C111.788 144.084 111.615 143.939 111.499 143.718C111.317 144.047 110.999 144.215 110.543 144.215C110.223 144.215 110.013 144.205 109.913 144.187C109.343 144.094 109.057 143.678 109.057 142.94V141.606H109.456L109.459 142.948Z" fill="white"/>
<path d="M114.476 141.606H114.918V144.215H114.476V141.606Z" fill="white"/>
<path d="M117.12 141.992H116.576C116.376 141.992 116.21 142.051 116.075 142.172C115.941 142.293 115.875 142.451 115.875 142.646V144.213H115.431V141.606H115.875V141.948C116.032 141.719 116.267 141.606 116.576 141.606H117.12C117.414 141.606 117.65 141.668 117.828 141.792C118.025 141.932 118.13 142.136 118.142 142.401H117.698C117.666 142.129 117.473 141.992 117.12 141.992Z" fill="white"/>
<path d="M119.828 144.215C119.3 144.215 118.955 144.133 118.796 143.974C118.632 143.814 118.554 143.472 118.559 142.948L118.567 141.606H119.009L119.006 143.047C119.006 143.387 119.066 143.607 119.184 143.701C119.281 143.779 119.502 143.815 119.847 143.815H120.964V144.215H119.828Z" fill="white"/>
<path d="M123.07 142.697H124.908V143.072H123.07V144.23H122.653L122.658 142.875C122.658 142.516 122.685 142.257 122.742 142.094C122.808 141.911 122.93 141.784 123.111 141.711C123.283 141.641 123.555 141.606 123.926 141.606H124.411C124.879 141.606 125.202 141.665 125.377 141.778C125.547 141.887 125.647 142.094 125.684 142.4H125.262C125.224 142.225 125.133 142.115 124.993 142.066C124.893 142.031 124.694 142.012 124.391 142.012H123.953C123.6 142.012 123.374 142.047 123.275 142.113C123.15 142.194 123.081 142.39 123.07 142.697Z" fill="white"/>
<path d="M127.083 144.215C126.555 144.215 126.21 144.133 126.051 143.974C125.887 143.814 125.809 143.472 125.814 142.948L125.822 141.606H126.264L126.261 143.047C126.261 143.387 126.321 143.607 126.439 143.701C126.536 143.779 126.757 143.815 127.102 143.815H128.219V144.215H127.083Z" fill="white"/>
<path d="M130.378 143.025H129.479C129.285 143.025 129.142 143.044 129.046 143.079C128.89 143.142 128.812 143.26 128.812 143.437C128.816 143.602 128.889 143.713 129.035 143.764C129.119 143.796 129.266 143.812 129.471 143.812H130.219C130.476 143.812 130.663 143.777 130.772 143.706C130.874 143.639 130.927 143.529 130.927 143.381C130.914 143.141 130.731 143.022 130.378 143.025ZM131.394 144.23H130.933V144.003C130.742 144.157 130.507 144.234 130.225 144.234H129.46C129.086 144.234 128.82 144.189 128.671 144.103C128.462 143.984 128.357 143.752 128.357 143.406H128.365C128.37 143.085 128.48 142.866 128.693 142.748C128.847 142.664 129.104 142.622 129.463 142.622H130.386C130.461 142.622 130.543 142.633 130.636 142.656C130.79 142.691 130.89 142.745 130.941 142.82C130.938 142.516 130.89 142.309 130.801 142.201C130.701 142.089 130.505 142.035 130.212 142.035H129.474C129.029 142.035 128.811 142.164 128.817 142.422H128.361C128.359 142.101 128.497 141.873 128.774 141.74C128.956 141.652 129.185 141.606 129.46 141.606H130.252C130.704 141.606 131.025 141.725 131.216 141.961C131.342 142.115 131.406 142.303 131.406 142.527C131.406 142.578 131.404 142.624 131.394 142.662V144.23Z" fill="white"/>
<path d="M133.665 142.037H132.344V142.826H133.673C133.827 142.826 133.937 142.804 134.004 142.759C134.09 142.702 134.131 142.6 134.131 142.455C134.131 142.285 134.096 142.174 134.029 142.12C133.961 142.066 133.838 142.037 133.665 142.037ZM133.63 143.262H132.344V144.215H131.905V141.606H133.665C134.01 141.606 134.247 141.671 134.376 141.798C134.505 141.926 134.568 142.159 134.568 142.503C134.568 142.807 134.482 143.017 134.309 143.131C134.174 143.217 133.948 143.262 133.63 143.262Z" fill="white"/>
<path d="M137.892 143.446C137.892 143.736 137.817 143.938 137.669 144.057C137.537 144.16 137.325 144.213 137.033 144.213H135.727C135.154 144.213 134.869 143.966 134.871 143.473H135.321C135.321 143.701 135.482 143.814 135.805 143.814H136.931C137.088 143.814 137.203 143.795 137.281 143.752C137.384 143.694 137.434 143.593 137.434 143.446C137.434 143.281 137.346 143.166 137.171 143.107C137.063 143.072 136.905 143.052 136.697 143.052C136.613 143.052 136.487 143.055 136.322 143.061C136.156 143.069 136.031 143.072 135.945 143.072C135.615 143.072 135.367 143.03 135.203 142.948C134.971 142.831 134.856 142.626 134.856 142.331C134.856 142.062 134.934 141.872 135.093 141.754C135.23 141.654 135.439 141.606 135.719 141.606H136.963C137.575 141.606 137.881 141.851 137.881 142.342H137.411C137.411 142.113 137.248 142 136.921 142H135.747C135.477 142 135.342 142.112 135.342 142.338C135.342 142.573 135.59 142.691 136.083 142.691C136.161 142.691 136.274 142.686 136.427 142.68C136.579 142.67 136.694 142.665 136.772 142.665C137.109 142.665 137.365 142.711 137.539 142.804C137.774 142.928 137.892 143.142 137.892 143.446Z" fill="white"/>
<path d="M142.595 143.057V142.808C142.595 142.56 142.57 142.382 142.52 142.277C142.471 142.171 142.38 142.104 142.248 142.075C142.156 142.051 141.981 142.04 141.72 142.04H141.289C140.928 142.04 140.702 142.078 140.608 142.153C140.494 142.244 140.436 142.465 140.436 142.812V143.061C140.436 143.399 140.495 143.612 140.611 143.701C140.704 143.768 140.925 143.801 141.278 143.801H141.728C141.983 143.801 142.156 143.791 142.244 143.771C142.376 143.745 142.468 143.68 142.517 143.575C142.568 143.473 142.595 143.3 142.595 143.057ZM143.041 143.072C143.041 143.419 143.001 143.674 142.918 143.836C142.835 144 142.697 144.106 142.501 144.16C142.345 144.207 142.091 144.229 141.734 144.229H141.254C140.89 144.229 140.626 144.199 140.459 144.137C140.276 144.07 140.15 143.946 140.083 143.763C140.021 143.596 139.989 143.329 139.989 142.963C139.989 142.576 140.016 142.298 140.067 142.131C140.129 141.932 140.252 141.794 140.433 141.717C140.605 141.643 140.88 141.606 141.262 141.606H141.739C142.148 141.606 142.442 141.647 142.622 141.733C142.804 141.818 142.92 141.967 142.974 142.187C143.02 142.35 143.041 142.645 143.041 143.072Z" fill="white"/>
<path d="M143.934 142.697H145.772V143.072H143.934V144.23H143.518L143.522 142.875C143.522 142.516 143.551 142.257 143.607 142.094C143.672 141.911 143.794 141.784 143.976 141.711C144.148 141.641 144.42 141.606 144.79 141.606H145.275C145.743 141.606 146.066 141.665 146.241 141.778C146.411 141.887 146.512 142.094 146.548 142.4H146.127C146.088 142.225 145.998 142.115 145.858 142.066C145.759 142.031 145.559 142.012 145.255 142.012H144.817C144.464 142.012 144.238 142.047 144.14 142.113C144.014 142.194 143.946 142.39 143.934 142.697Z" fill="white"/>
<path d="M147.076 142.697H148.912V143.072H147.076V144.23H146.659L146.662 142.875C146.662 142.516 146.691 142.257 146.747 142.094C146.813 141.911 146.934 141.784 147.116 141.711C147.288 141.641 147.56 141.606 147.93 141.606H148.415C148.885 141.606 149.206 141.665 149.383 141.778C149.551 141.887 149.652 142.094 149.688 142.4H149.268C149.228 142.225 149.138 142.115 148.999 142.066C148.899 142.031 148.699 142.012 148.396 142.012H147.957C147.604 142.012 147.378 142.047 147.28 142.113C147.154 142.194 147.086 142.39 147.076 142.697Z" fill="white"/>
<defs>
<filter id="filter0_d" x="20.9443" y="9.86328" width="204.592" height="205.097" filterUnits="userSpaceOnUse" color-interpolation-filters="sRGB">
<feFlood flood-opacity="0" result="BackgroundImageFix"/>
<feColorMatrix in="SourceAlpha" type="matrix" values="0 0 0 0 0 0 0 0 0 0 0 0 0 0 0 0 0 0 127 0"/>
<feOffset dy="4"/>
<feGaussianBlur stdDeviation="50"/>
<feColorMatrix type="matrix" values="0 0 0 0 0.86 0 0 0 0 0 0 0 0 0 1 0 0 0 1 0"/>
<feBlend mode="normal" in2="BackgroundImageFix" result="effect1_dropShadow"/>
<feBlend mode="normal" in="SourceGraphic" in2="effect1_dropShadow" result="shape"/>
</filter>
<filter id="filter1_d" x="6.375" y="18.2729" width="211.879" height="213.157" filterUnits="userSpaceOnUse" color-interpolation-filters="sRGB">
<feFlood flood-opacity="0" result="BackgroundImageFix"/>
<feColorMatrix in="SourceAlpha" type="matrix" values="0 0 0 0 0 0 0 0 0 0 0 0 0 0 0 0 0 0 127 0"/>
<feOffset dy="4"/>
<feGaussianBlur stdDeviation="50"/>
<feColorMatrix type="matrix" values="0 0 0 0 0.86 0 0 0 0 0 0 0 0 0 1 0 0 0 1 0"/>
<feBlend mode="normal" in2="BackgroundImageFix" result="effect1_dropShadow"/>
<feBlend mode="normal" in="SourceGraphic" in2="effect1_dropShadow" result="shape"/>
</filter>
<filter id="filter2_d" x="17.8428" y="13.6475" width="204.426" height="205.981" filterUnits="userSpaceOnUse" color-interpolation-filters="sRGB">
<feFlood flood-opacity="0" result="BackgroundImageFix"/>
<feColorMatrix in="SourceAlpha" type="matrix" values="0 0 0 0 0 0 0 0 0 0 0 0 0 0 0 0 0 0 127 0"/>
<feOffset dy="4"/>
<feGaussianBlur stdDeviation="50"/>
<feColorMatrix type="matrix" values="0 0 0 0 0.86 0 0 0 0 0 0 0 0 0 1 0 0 0 1 0"/>
<feBlend mode="normal" in2="BackgroundImageFix" result="effect1_dropShadow"/>
<feBlend mode="normal" in="SourceGraphic" in2="effect1_dropShadow" result="shape"/>
</filter>
<filter id="filter3_d" x="0.618164" y="0.821777" width="220.91" height="231.55" filterUnits="userSpaceOnUse" color-interpolation-filters="sRGB">
<feFlood flood-opacity="0" result="BackgroundImageFix"/>
<feColorMatrix in="SourceAlpha" type="matrix" values="0 0 0 0 0 0 0 0 0 0 0 0 0 0 0 0 0 0 127 0"/>
<feOffset dy="4"/>
<feGaussianBlur stdDeviation="50"/>
<feColorMatrix type="matrix" values="0 0 0 0 0.86 0 0 0 0 0 0 0 0 0 1 0 0 0 1 0"/>
<feBlend mode="normal" in2="BackgroundImageFix" result="effect1_dropShadow"/>
<feBlend mode="normal" in="SourceGraphic" in2="effect1_dropShadow" result="shape"/>
</filter>
<filter id="filter4_d" x="11.9482" y="13.6475" width="220.279" height="226.914" filterUnits="userSpaceOnUse" color-interpolation-filters="sRGB">
<feFlood flood-opacity="0" result="BackgroundImageFix"/>
<feColorMatrix in="SourceAlpha" type="matrix" values="0 0 0 0 0 0 0 0 0 0 0 0 0 0 0 0 0 0 127 0"/>
<feOffset dy="4"/>
<feGaussianBlur stdDeviation="50"/>
<feColorMatrix type="matrix" values="0 0 0 0 0.86 0 0 0 0 0 0 0 0 0 1 0 0 0 1 0"/>
<feBlend mode="normal" in2="BackgroundImageFix" result="effect1_dropShadow"/>
<feBlend mode="normal" in="SourceGraphic" in2="effect1_dropShadow" result="shape"/>
</filter>
<linearGradient id="paint0_linear" x1="121.474" y1="107.14" x2="124.862" y2="109.693" gradientUnits="userSpaceOnUse">
<stop stop-color="#DB00FF"/>
<stop offset="1" stop-color="#EE1DB3"/>
</linearGradient>
<linearGradient id="paint1_linear" x1="112.315" y1="114.273" x2="112.315" y2="127.43" gradientUnits="userSpaceOnUse">
<stop stop-color="#DB00FF"/>
<stop offset="1" stop-color="#EE1DB3"/>
</linearGradient>
<linearGradient id="paint2_linear" x1="118.31" y1="111.373" x2="121.677" y2="113.912" gradientUnits="userSpaceOnUse">
<stop stop-color="#DB00FF"/>
<stop offset="1" stop-color="#EE1DB3"/>
</linearGradient>
<linearGradient id="paint3_linear" x1="111.073" y1="96.8218" x2="111.073" y2="128.371" gradientUnits="userSpaceOnUse">
<stop stop-color="#DB00FF"/>
<stop offset="1" stop-color="#EE1DB3"/>
</linearGradient>
<linearGradient id="paint4_linear" x1="122.088" y1="109.647" x2="122.088" y2="136.562" gradientUnits="userSpaceOnUse">
<stop stop-color="#DB00FF"/>
<stop offset="1" stop-color="#EE1DB3"/>
</linearGradient>
</defs>
</svg>
