<svg width="208" height="261" viewBox="0 0 208 261" fill="none" xmlns="http://www.w3.org/2000/svg">
<g filter="url(#filter0_d)">
<rect width="200" height="253" rx="8" fill="white" fill-opacity="0.08"/>
</g>
<path d="M73.4689 83.2485C73.1265 82.985 72.925 82.5789 72.9166 82.1476L72.7891 75.369C72.7773 74.8068 73.0979 74.2899 73.6065 74.0499L73.7341 73.9878C74.6842 73.538 75.777 74.2312 75.777 75.2818V82.1191C75.777 83.3106 74.4089 83.9803 73.4689 83.2485ZM85.7075 73.6958L81.3096 60.7982C81.1233 60.2477 80.6197 59.8651 80.0389 59.8332L77.1349 59.6603C76.3108 59.6134 75.6192 60.2662 75.6192 61.0902V72.7039L76.252 69.5404L71.4294 73.0849C71.0769 73.345 70.8621 73.7495 70.847 74.1875L70.575 81.8069C70.5633 82.161 70.6808 82.5051 70.9091 82.7769L75.2851 87.9997C75.5017 88.2565 75.6192 88.5821 75.6192 88.9178V98.9606C75.6192 99.751 76.2587 100.392 77.051 100.392H79.8559C80.3662 100.392 80.8413 100.119 81.0964 99.6738L87.71 88.1743C87.8729 87.889 87.9333 87.5567 87.8829 87.2344L85.7662 73.9324C85.7528 73.8519 85.7343 73.773 85.7075 73.6958Z" fill="white"/>
<path d="M101.067 80.7871C101.067 82.0072 100.911 82.7994 100.606 83.1669C100.25 83.5831 99.4744 83.7912 98.286 83.7912H92.9598V76.5193H98.15C99.3116 76.5193 100.087 76.7223 100.478 77.1285C100.871 77.5363 101.067 78.3184 101.067 79.4797V80.7871ZM101.469 75.6113C100.794 75.1649 99.7279 74.9434 98.2709 74.9434H91.1738V85.3822H98.5227C100.24 85.3822 101.398 85.0499 102.006 84.387C102.56 83.7711 102.838 82.5913 102.838 80.8459C102.838 79.2716 102.778 78.1841 102.657 77.59C102.479 76.6686 102.081 76.0074 101.469 75.6113Z" fill="white"/>
<path d="M93.6862 83.0534H98.2856C99.6318 83.0534 99.9776 82.7698 100.053 82.6825C100.098 82.6305 100.342 82.2647 100.342 80.776V79.4653C100.342 78.1596 100.073 77.74 99.9558 77.6225C99.8433 77.5034 99.4438 77.2332 98.1496 77.2332H93.6862V83.0534ZM98.2856 84.5051H92.2343V75.7815H98.1496C99.5294 75.7815 100.463 76.0533 101.002 76.6139C101.535 77.1644 101.794 78.0975 101.794 79.4653V80.776C101.794 82.2042 101.592 83.1088 101.161 83.6224C100.651 84.2182 99.714 84.5051 98.2856 84.5051ZM91.9019 84.6444H98.5239C99.9977 84.6444 101.015 84.3826 101.468 83.8842C101.762 83.562 102.113 82.7665 102.113 80.8348C102.113 78.9484 102.022 78.0992 101.947 77.7165C101.804 76.9915 101.519 76.4981 101.074 76.2094L101.069 76.2044C100.689 75.956 99.8936 75.6556 98.2705 75.6556H91.9019V84.6444ZM98.5239 86.0962H90.4482V74.2056H98.2705C99.8836 74.2056 101.062 74.4623 101.866 74.991C102.648 75.4978 103.155 76.3202 103.372 77.4379C103.503 78.0925 103.565 79.2035 103.565 80.8348C103.565 82.7849 103.231 84.1007 102.544 84.8609C101.785 85.6917 100.473 86.0962 98.5239 86.0962Z" fill="white"/>
<path d="M114.603 79.7332C113.91 79.3656 112.888 79.1827 111.54 79.1827C111.231 79.1827 110.773 79.2011 110.162 79.2347C109.553 79.27 109.094 79.2851 108.787 79.2851C106.813 79.2851 105.826 78.8151 105.826 77.8753C105.826 76.9707 106.368 76.5209 107.448 76.5209H112.133C113.443 76.5209 114.096 76.9758 114.096 77.8887H115.971C115.971 75.9252 114.748 74.9434 112.299 74.9434H107.328C106.209 74.9434 105.375 75.1431 104.831 75.5391C104.196 76.004 103.879 76.7727 103.879 77.8451C103.879 79.0232 104.341 79.8456 105.262 80.3138C105.925 80.6394 106.917 80.8039 108.237 80.8039C108.572 80.8039 109.074 80.7922 109.741 80.767C110.404 80.7418 110.905 80.7301 111.241 80.7301C112.074 80.7301 112.703 80.8039 113.131 80.9533C113.835 81.1899 114.187 81.643 114.187 82.306C114.187 82.8917 113.984 83.2978 113.578 83.5261C113.269 83.6939 112.804 83.7778 112.18 83.7778H107.671C106.383 83.7778 105.739 83.323 105.739 82.41H103.938C103.929 84.3837 105.069 85.3688 107.36 85.3688H112.581C113.751 85.3688 114.598 85.1607 115.124 84.7445C115.72 84.2679 116.017 83.4556 116.017 82.306C116.017 81.0875 115.545 80.2283 114.603 79.7332Z" fill="white"/>
<path d="M111.541 78.4432C112.227 78.4432 112.835 78.4869 113.372 78.5792V77.876C113.372 77.6511 113.372 77.2332 112.135 77.2332H107.448C106.553 77.2332 106.553 77.5672 106.553 77.8609C106.553 78.4969 108.264 78.5473 108.788 78.5473C109.085 78.5473 109.531 78.5305 110.12 78.4952C110.752 78.4617 111.225 78.4432 111.541 78.4432ZM104.734 83.1223C104.813 83.4831 104.96 83.7701 105.18 83.9916C105.603 84.4162 106.335 84.631 107.361 84.631H112.581C113.823 84.631 114.404 84.3759 114.671 84.1628C115.082 83.8355 115.29 83.2062 115.29 82.2932C115.29 81.345 114.965 80.7307 114.267 80.3632L114.263 80.3615C113.677 80.0527 112.763 79.8949 111.541 79.8949C111.24 79.8949 110.797 79.9134 110.206 79.947C109.575 79.9822 109.105 80.0007 108.788 80.0007C105.741 80.0007 105.101 78.8359 105.101 77.8609C105.101 76.5585 105.979 75.7815 107.448 75.7815H112.135C113.835 75.7815 114.475 76.5014 114.703 77.1493H115.17C114.97 76.3571 114.307 75.6556 112.299 75.6556H107.329C106.386 75.6556 105.669 75.815 105.261 76.1121C104.819 76.4343 104.606 76.9982 104.606 77.8323C104.606 79.0172 105.167 79.4384 105.59 79.6533C106.144 79.9251 107.039 80.0644 108.237 80.0644C108.568 80.0644 109.06 80.0527 109.713 80.0275C110.387 80.0023 110.899 79.9906 111.242 79.9906C112.163 79.9906 112.86 80.0762 113.372 80.2541C114.364 80.5881 114.914 81.3131 114.914 82.2932C114.914 83.369 114.379 83.8926 113.931 84.1443C113.509 84.3776 112.937 84.4917 112.18 84.4917H107.671C105.988 84.4917 105.358 83.7701 105.133 83.1223H104.734ZM112.581 86.0827H107.361C105.934 86.0827 104.856 85.7236 104.151 85.0153C103.524 84.3843 103.208 83.5032 103.213 82.3922L103.218 81.6705H106.466V82.3956C106.466 82.6356 106.466 83.0383 107.671 83.0383H112.18C112.835 83.0383 113.115 82.936 113.226 82.8772C113.3 82.8353 113.462 82.7446 113.462 82.2932C113.462 82.0515 113.417 81.8014 112.9 81.6269C112.652 81.5413 112.172 81.4423 111.242 81.4423C110.911 81.4423 110.419 81.454 109.768 81.4809C109.09 81.5044 108.579 81.5161 108.237 81.5161C106.795 81.5161 105.716 81.3332 104.942 80.9522C104.123 80.5377 103.154 79.6633 103.154 77.8323C103.154 76.5216 103.574 75.5499 104.401 74.9407C105.081 74.4456 106.04 74.2056 107.329 74.2056H112.299C116.128 74.2056 116.699 76.5048 116.699 77.876V78.6027H113.501C114.063 78.7067 114.54 78.8645 114.943 79.0793C115.766 79.5123 116.744 80.4202 116.744 82.2932C116.744 83.6677 116.35 84.6797 115.578 85.299C114.913 85.826 113.932 86.0827 112.581 86.0827Z" fill="white"/>
<path d="M122.757 79.732V81.2794H127.158C127.158 82.3199 126.988 82.9878 126.653 83.2866C126.346 83.5434 125.661 83.6726 124.6 83.6726H121.506C120.544 83.6726 119.863 83.5635 119.46 83.3453C119.059 83.1271 118.804 82.7512 118.695 82.2142C118.626 81.8684 118.591 81.1736 118.591 80.1331C118.591 78.6562 118.735 77.6996 119.02 77.2632C119.41 76.6792 120.296 76.3704 121.684 76.3402C122.399 76.3318 122.849 76.3268 123.039 76.3268L124.793 76.3402C125.417 76.3402 125.939 76.4459 126.356 76.654C126.911 76.941 127.188 77.3723 127.188 77.948H129.003C129.015 76.6893 128.546 75.8199 127.605 75.345C126.94 75.0076 125.909 74.8381 124.511 74.8381H121.625C120.189 74.8381 119.128 75.016 118.45 75.3735C117.77 75.731 117.316 76.3268 117.088 77.1592C116.91 77.8221 116.821 78.8996 116.821 80.3865C116.821 82.3098 117.103 83.5987 117.669 84.2533C118.283 84.9766 119.542 85.3391 121.447 85.3391H124.645C126.389 85.3391 127.564 85.0118 128.17 84.3573C128.736 83.7431 129.018 82.5481 129.018 80.7725V79.732H122.757Z" fill="white"/>
<path d="M121.627 75.5521C119.992 75.5521 119.181 75.7971 118.788 76.0052C118.29 76.2653 117.962 76.7 117.791 77.3361C117.63 77.9285 117.548 78.9506 117.548 80.3721C117.548 82.5354 117.912 83.4114 118.219 83.7655C118.545 84.1482 119.364 84.5996 121.447 84.5996H124.645C126.547 84.5996 127.322 84.1918 127.638 83.8511C127.883 83.5843 128.294 82.8291 128.294 80.7597V80.4442H123.483V80.5382H127.886V81.2632C127.886 82.5538 127.648 83.3644 127.134 83.8176C126.661 84.2136 125.884 84.3865 124.599 84.3865H121.507C120.411 84.3865 119.631 84.2506 119.115 83.9703C118.708 83.7488 118.174 83.2872 117.982 82.3474C117.904 81.9413 117.867 81.2146 117.867 80.1203C117.867 78.4572 118.04 77.4183 118.417 76.8477C118.949 76.0438 120.014 75.636 121.67 75.6024C122.394 75.5907 122.85 75.5873 123.04 75.5873L124.801 75.6024C125.531 75.6024 126.167 75.7316 126.683 75.9918C127.235 76.2771 127.614 76.6966 127.795 77.2068H128.21C128.047 76.46 127.619 76.1495 127.278 75.98C126.894 75.7837 126.102 75.5521 124.512 75.5521H121.627ZM124.645 86.0514H121.447C119.298 86.0514 117.885 85.6116 117.116 84.7087C116.43 83.9166 116.096 82.4968 116.096 80.3721C116.096 78.8029 116.193 77.6851 116.389 76.9551C116.67 75.923 117.251 75.1694 118.112 74.7179C118.904 74.3017 120.054 74.1003 121.627 74.1003H124.512C126.041 74.1003 127.159 74.29 127.935 74.6844C128.761 75.0989 129.746 76.0052 129.729 77.9402L129.722 78.6602H126.463V77.9335C126.463 77.7154 126.411 77.4854 126.021 77.2857C125.719 77.133 125.303 77.0558 124.794 77.0558L123.033 77.039C122.852 77.039 122.406 77.044 121.697 77.0558C120.222 77.0843 119.768 77.4401 119.629 77.6499C119.557 77.759 119.319 78.2641 119.319 80.1203C119.319 81.4109 119.374 81.8909 119.408 82.0621C119.493 82.48 119.676 82.6226 119.807 82.6931C119.975 82.7837 120.413 82.9331 121.507 82.9331H124.599C125.905 82.9331 126.176 82.725 126.187 82.7166C126.187 82.7166 126.327 82.579 126.397 81.9899H122.031V78.9925H129.746V80.7597C129.746 82.7401 129.405 84.0727 128.705 84.8329C127.95 85.6536 126.622 86.0514 124.645 86.0514Z" fill="white"/>
<path d="M22.732 152.993C22.084 152.993 21.456 152.901 20.848 152.717C20.248 152.533 19.772 152.289 19.42 151.985L19.96 150.773C20.304 151.045 20.724 151.269 21.22 151.445C21.724 151.613 22.228 151.697 22.732 151.697C23.356 151.697 23.82 151.597 24.124 151.397C24.436 151.197 24.592 150.933 24.592 150.605C24.592 150.365 24.504 150.169 24.328 150.017C24.16 149.857 23.944 149.733 23.68 149.645C23.416 149.557 23.056 149.457 22.6 149.345C21.96 149.193 21.44 149.041 21.04 148.889C20.648 148.737 20.308 148.501 20.02 148.181C19.74 147.853 19.6 147.413 19.6 146.861C19.6 146.397 19.724 145.977 19.972 145.601C20.228 145.217 20.608 144.913 21.112 144.689C21.624 144.465 22.248 144.353 22.984 144.353C23.496 144.353 24 144.417 24.496 144.545C24.992 144.673 25.42 144.857 25.78 145.097L25.288 146.309C24.92 146.093 24.536 145.929 24.136 145.817C23.736 145.705 23.348 145.649 22.972 145.649C22.356 145.649 21.896 145.753 21.592 145.961C21.296 146.169 21.148 146.445 21.148 146.789C21.148 147.029 21.232 147.225 21.4 147.377C21.576 147.529 21.796 147.649 22.06 147.737C22.324 147.825 22.684 147.925 23.14 148.037C23.764 148.181 24.276 148.333 24.676 148.493C25.076 148.645 25.416 148.881 25.696 149.201C25.984 149.521 26.128 149.953 26.128 150.497C26.128 150.961 26 151.381 25.744 151.757C25.496 152.133 25.116 152.433 24.604 152.657C24.092 152.881 23.468 152.993 22.732 152.993ZM31.8809 144.473C32.6089 144.473 33.2409 144.593 33.7769 144.833C34.3209 145.073 34.7369 145.417 35.0249 145.865C35.3129 146.313 35.4569 146.845 35.4569 147.461C35.4569 148.069 35.3129 148.601 35.0249 149.057C34.7369 149.505 34.3209 149.849 33.7769 150.089C33.2409 150.329 32.6089 150.449 31.8809 150.449H29.9849V152.873H28.4249V144.473H31.8809ZM31.8089 149.129C32.4889 149.129 33.0049 148.985 33.3569 148.697C33.7089 148.409 33.8849 147.997 33.8849 147.461C33.8849 146.925 33.7089 146.513 33.3569 146.225C33.0049 145.937 32.4889 145.793 31.8089 145.793H29.9849V149.129H31.8089ZM44.0647 151.565V152.873H37.7647V144.473H43.8967V145.781H39.3247V147.965H43.3807V149.249H39.3247V151.565H44.0647ZM52.8538 151.565V152.873H46.5538V144.473H52.6858V145.781H48.1138V147.965H52.1698V149.249H48.1138V151.565H52.8538ZM55.3428 144.473H59.0148C59.9108 144.473 60.7068 144.649 61.4028 145.001C62.0988 145.345 62.6388 145.837 63.0228 146.477C63.4068 147.109 63.5988 147.841 63.5988 148.673C63.5988 149.505 63.4068 150.241 63.0228 150.881C62.6388 151.513 62.0988 152.005 61.4028 152.357C60.7068 152.701 59.9108 152.873 59.0148 152.873H55.3428V144.473ZM58.9428 151.553C59.5588 151.553 60.0988 151.437 60.5628 151.205C61.0348 150.965 61.3948 150.629 61.6428 150.197C61.8988 149.757 62.0268 149.249 62.0268 148.673C62.0268 148.097 61.8988 147.593 61.6428 147.161C61.3948 146.721 61.0348 146.385 60.5628 146.153C60.0988 145.913 59.5588 145.793 58.9428 145.793H56.9028V151.553H58.9428ZM70.0733 144.473H71.6333V151.553H76.0253V152.873H70.0733V144.473ZM78.0069 144.473H79.5669V152.873H78.0069V144.473ZM90.3049 152.873L90.2929 147.305L87.5329 151.913H86.8369L84.0769 147.377V152.873H82.5889V144.473H83.8729L87.2089 150.041L90.4849 144.473H91.7689L91.7809 152.873H90.3049ZM94.7999 144.473H96.3599V152.873H94.7999V144.473ZM101.086 145.793H98.3019V144.473H105.43V145.793H102.646V152.873H101.086V145.793ZM116.913 152.873L115.197 150.413C115.125 150.421 115.017 150.425 114.873 150.425H112.977V152.873H111.417V144.473H114.873C115.601 144.473 116.233 144.593 116.769 144.833C117.313 145.073 117.729 145.417 118.017 145.865C118.305 146.313 118.449 146.845 118.449 147.461C118.449 148.093 118.293 148.637 117.981 149.093C117.677 149.549 117.237 149.889 116.661 150.113L118.593 152.873H116.913ZM116.877 147.461C116.877 146.925 116.701 146.513 116.349 146.225C115.997 145.937 115.481 145.793 114.801 145.793H112.977V149.141H114.801C115.481 149.141 115.997 148.997 116.349 148.709C116.701 148.413 116.877 147.997 116.877 147.461ZM127.244 151.565V152.873H120.944V144.473H127.076V145.781H122.504V147.965H126.56V149.249H122.504V151.565H127.244ZM137.449 152.873L137.437 147.305L134.677 151.913H133.981L131.221 147.377V152.873H129.733V144.473H131.017L134.353 150.041L137.629 144.473H138.913L138.925 152.873H137.449ZM145.868 152.993C145.012 152.993 144.24 152.809 143.552 152.441C142.864 152.065 142.324 151.549 141.932 150.893C141.54 150.229 141.344 149.489 141.344 148.673C141.344 147.857 141.54 147.121 141.932 146.465C142.324 145.801 142.864 145.285 143.552 144.917C144.24 144.541 145.012 144.353 145.868 144.353C146.724 144.353 147.496 144.541 148.184 144.917C148.872 145.285 149.412 145.797 149.804 146.453C150.196 147.109 150.392 147.849 150.392 148.673C150.392 149.497 150.196 150.237 149.804 150.893C149.412 151.549 148.872 152.065 148.184 152.441C147.496 152.809 146.724 152.993 145.868 152.993ZM145.868 151.625C146.428 151.625 146.932 151.501 147.38 151.253C147.828 150.997 148.18 150.645 148.436 150.197C148.692 149.741 148.82 149.233 148.82 148.673C148.82 148.113 148.692 147.609 148.436 147.161C148.18 146.705 147.828 146.353 147.38 146.105C146.932 145.849 146.428 145.721 145.868 145.721C145.308 145.721 144.804 145.849 144.356 146.105C143.908 146.353 143.556 146.705 143.3 147.161C143.044 147.609 142.916 148.113 142.916 148.673C142.916 149.233 143.044 149.741 143.3 150.197C143.556 150.645 143.908 150.997 144.356 151.253C144.804 151.501 145.308 151.625 145.868 151.625ZM160.206 144.473L156.546 152.873H155.01L151.338 144.473H153.03L155.826 150.953L158.646 144.473H160.206ZM168.143 151.565V152.873H161.843V144.473H167.975V145.781H163.403V147.965H167.459V149.249H163.403V151.565H168.143Z" fill="white" fill-opacity="0.87"/>
<defs>
<filter id="filter0_d" x="0" y="0" width="208" height="261" filterUnits="userSpaceOnUse" color-interpolation-filters="sRGB">
<feFlood flood-opacity="0" result="BackgroundImageFix"/>
<feColorMatrix in="SourceAlpha" type="matrix" values="0 0 0 0 0 0 0 0 0 0 0 0 0 0 0 0 0 0 127 0"/>
<feOffset dx="4" dy="4"/>
<feGaussianBlur stdDeviation="2"/>
<feColorMatrix type="matrix" values="0 0 0 0 0 0 0 0 0 0 0 0 0 0 0 0 0 0 0.25 0"/>
<feBlend mode="normal" in2="BackgroundImageFix" result="effect1_dropShadow"/>
<feBlend mode="normal" in="SourceGraphic" in2="effect1_dropShadow" result="shape"/>
</filter>
</defs>
</svg>
