<svg width="208" height="261" viewBox="0 0 208 261" fill="none" xmlns="http://www.w3.org/2000/svg">
<g filter="url(#filter0_d)">
<rect width="200" height="253" rx="8" fill="white" fill-opacity="0.08"/>
<rect width="200" height="253" rx="8" fill="#121212" fill-opacity="0.08"/>
</g>
<path d="M91.8753 71.6985L80.2127 72.6831C79.8452 72.7133 79.5015 72.8676 79.2359 73.1221L71.2481 81.3708L70.8933 81.1338L65.9473 81.7971C65.758 81.8177 65.5926 81.9386 65.5146 82.1152L62.5333 88.7845C62.3313 89.2394 62.791 89.7054 63.2476 89.5098L68.383 87.3084C68.7823 87.1382 69.2134 87.4802 69.1354 87.9081L68.7393 90.0903C68.6757 90.4323 68.9493 90.7472 69.2993 90.7329L71.999 90.6232C72.4285 90.6073 72.7085 91.0733 72.4906 91.4455L70.0247 95.6764C69.7718 96.1059 70.1806 96.6197 70.6563 96.4717L78.5804 94.0238C78.7984 93.9554 78.9527 93.7566 78.9638 93.5276L79.9963 89.7086V89.3364L90.4197 83.3876C90.8079 83.1777 91.0926 82.8166 91.2088 82.3919L93.5696 73.7344C93.8655 72.6528 92.9937 71.6046 91.8753 71.6985Z" fill="white"/>
<path d="M104.064 81.4064H99.5742V76.1082H100.473V80.5968H104.064V81.4064Z" fill="white"/>
<path d="M105.047 78.2697H109.365C109.36 77.6701 109.236 77.2868 108.993 77.1198C108.802 76.9846 108.385 76.9162 107.737 76.9162H106.657C106.022 76.9162 105.61 76.9862 105.418 77.1277C105.176 77.2995 105.052 77.6796 105.047 78.2697ZM109.373 79.0698H105.047V81.4064H104.148V78.2618C104.148 77.3838 104.333 76.7985 104.7 76.501C105.022 76.2386 105.634 76.1082 106.538 76.1082H107.874C108.762 76.1082 109.373 76.2418 109.705 76.509C110.084 76.8096 110.272 77.3949 110.272 78.2618V81.4064H109.373V79.0698Z" fill="white"/>
<path d="M113.304 81.4064C112.573 81.4064 112.005 81.2171 111.596 80.8369C111.187 80.4552 110.983 79.9033 110.983 79.178V76.1082H111.882V79.2893C111.882 79.7092 112.013 80.0353 112.272 80.2691C112.533 80.5045 112.875 80.6206 113.304 80.6206H114.415C114.844 80.6206 115.188 80.5045 115.449 80.2691C115.708 80.0353 115.837 79.7092 115.837 79.2893V76.1082H116.738V79.178C116.738 79.9033 116.532 80.4552 116.123 80.8369C115.716 81.2171 115.147 81.4064 114.415 81.4064H113.304Z" fill="white"/>
<path d="M122.329 81.4064V78.2236C122.329 77.8053 122.199 77.4792 121.94 77.2454C121.68 77.01 121.337 76.8939 120.907 76.8939H119.803C119.396 76.8939 119.055 77.0164 118.783 77.2613C118.511 77.5063 118.376 77.826 118.376 78.2236V81.4064H117.476V76.1082H118.376V76.8032C118.697 76.3388 119.175 76.1082 119.803 76.1082H120.907C121.637 76.1082 122.208 76.2974 122.617 76.6776C123.025 77.0593 123.228 77.6112 123.228 78.3381V81.4064H122.329Z" fill="white"/>
<path d="M130.092 79.6613C130.092 80.3611 129.877 80.8319 129.451 81.0753C129.142 81.2502 128.609 81.3393 127.855 81.3393H126.29C125.306 81.3393 124.657 81.15 124.339 80.7715C124.056 80.439 123.916 79.771 123.916 78.7674C123.916 78.0134 123.965 77.4663 124.067 77.1291C124.188 76.7203 124.422 76.4308 124.769 76.259C125.117 76.0872 125.656 76.0029 126.388 76.0029H127.847C128.588 76.0029 129.118 76.0936 129.435 76.2733C129.867 76.5151 130.084 76.978 130.084 77.6571H129.163C129.167 77.1338 128.719 76.8714 127.815 76.8714H126.395C125.683 76.8714 125.232 77.0002 125.041 77.2563C124.894 77.4535 124.821 77.9212 124.821 78.664C124.821 79.2079 124.84 79.5674 124.877 79.744C124.926 80.0175 125.055 80.2084 125.26 80.3182C125.469 80.4279 125.816 80.4852 126.304 80.4852H127.825C128.253 80.4852 128.553 80.4502 128.732 80.3786C129.029 80.2641 129.175 80.0239 129.169 79.6613H130.092Z" fill="white"/>
<path d="M136.241 81.4064H135.343V79.0698H131.386V81.4064H130.487V76.1082H131.386V78.2697H135.343V76.1082H136.241V81.4064Z" fill="white"/>
<path d="M105.618 87.651C105.618 88.3509 105.405 88.8233 104.979 89.065C104.67 89.2416 104.137 89.3307 103.381 89.3307H101.816C100.833 89.3307 100.184 89.1414 99.8656 88.7628C99.584 88.4304 99.4424 87.7623 99.4424 86.7587C99.4424 86.0032 99.4917 85.4576 99.5935 85.1188C99.7144 84.71 99.9499 84.4221 100.297 84.2488C100.645 84.0786 101.184 83.9927 101.915 83.9927H103.373C104.116 83.9927 104.645 84.0833 104.961 84.2647C105.394 84.5064 105.612 84.9677 105.612 85.6485H104.689C104.694 85.1236 104.247 84.8627 103.343 84.8627H101.923C101.211 84.8627 100.76 84.99 100.569 85.2476C100.422 85.4433 100.349 85.9125 100.349 86.6537C100.349 87.1977 100.367 87.5572 100.403 87.7353C100.453 88.0073 100.581 88.1982 100.788 88.3095C100.995 88.4193 101.342 88.4765 101.832 88.4765H103.351C103.779 88.4765 104.081 88.4399 104.26 88.3699C104.555 88.2538 104.703 88.0152 104.697 87.651H105.618Z" fill="white"/>
<path d="M111.227 86.9416V86.4358C111.227 85.9316 111.177 85.5721 111.076 85.3574C110.975 85.1427 110.792 85.0059 110.525 84.9454C110.337 84.9009 109.98 84.877 109.45 84.877H108.573C107.843 84.877 107.382 84.9534 107.191 85.1045C106.957 85.2906 106.842 85.7375 106.842 86.4438V86.9496C106.842 87.6351 106.96 88.0677 107.197 88.2491C107.383 88.3843 107.835 88.4527 108.551 88.4527H109.467C109.986 88.4527 110.334 88.432 110.517 88.3922C110.785 88.3381 110.969 88.2045 111.072 87.9962C111.176 87.7862 111.227 87.4363 111.227 86.9416ZM112.135 86.9718C112.135 87.678 112.052 88.195 111.884 88.5242C111.72 88.8551 111.437 89.0762 111.039 89.1859C110.722 89.2782 110.201 89.3227 109.48 89.3227H108.506C107.765 89.3227 107.224 89.2591 106.887 89.1334C106.515 88.9982 106.26 88.7469 106.123 88.3779C105.998 88.0343 105.936 87.4935 105.936 86.7523C105.936 85.9666 105.988 85.4019 106.093 85.0584C106.22 84.6559 106.467 84.3776 106.834 84.2201C107.183 84.069 107.746 83.9927 108.521 83.9927H109.488C110.322 83.9927 110.92 84.0786 111.284 84.2503C111.65 84.4221 111.887 84.7291 111.998 85.1729C112.089 85.5053 112.135 86.105 112.135 86.9718Z" fill="white"/>
<path d="M117.702 89.2909V86.1081C117.702 85.6898 117.573 85.3638 117.314 85.1299C117.054 84.8945 116.711 84.7784 116.281 84.7784H115.177C114.768 84.7784 114.429 84.8993 114.156 85.1443C113.885 85.3892 113.75 85.7105 113.75 86.1081V89.2909H112.85V83.9927H113.75V84.6862C114.071 84.2233 114.549 83.9927 115.177 83.9927H116.281C117.011 83.9927 117.582 84.182 117.991 84.5621C118.397 84.9438 118.602 85.4958 118.602 86.2211V89.2909H117.702Z" fill="white"/>
<path d="M124.354 84.8007H121.967V89.2909H121.066V84.8007H118.685V83.9927H124.354V84.8007Z" fill="white"/>
<path d="M128.717 84.8993H125.625V86.3579H128.717C129.296 86.3579 129.587 86.105 129.587 85.6007C129.587 85.1315 129.296 84.8993 128.717 84.8993ZM130.629 89.2909H129.738V88.3222C129.738 87.9453 129.661 87.6717 129.507 87.5063C129.353 87.3392 129.087 87.2565 128.71 87.2565L125.625 87.2645V89.2909H124.757V83.9927H128.634C129.275 83.9927 129.736 84.1151 130.018 84.3617C130.315 84.6289 130.465 85.0774 130.465 85.7073C130.465 86.2815 130.303 86.6473 129.98 86.8032C130.412 86.9193 130.629 87.3074 130.629 87.9675V89.2909Z" fill="white"/>
<path d="M136.568 86.9416V86.4358C136.568 85.9316 136.518 85.5721 136.416 85.3574C136.316 85.1427 136.133 85.0059 135.866 84.9454C135.678 84.9009 135.32 84.877 134.791 84.877H133.914C133.184 84.877 132.722 84.9534 132.532 85.1045C132.298 85.2906 132.183 85.7375 132.183 86.4438V86.9496C132.183 87.6351 132.301 88.0677 132.538 88.2491C132.724 88.3843 133.176 88.4527 133.892 88.4527H134.808C135.327 88.4527 135.675 88.432 135.858 88.3922C136.125 88.3381 136.31 88.2045 136.413 87.9962C136.517 87.7862 136.568 87.4363 136.568 86.9416ZM137.476 86.9718C137.476 87.678 137.393 88.195 137.225 88.5242C137.061 88.8551 136.778 89.0762 136.38 89.1859C136.063 89.2782 135.541 89.3227 134.821 89.3227H133.847C133.106 89.3227 132.565 89.2591 132.228 89.1334C131.855 88.9982 131.601 88.7469 131.464 88.3779C131.338 88.0343 131.276 87.4935 131.276 86.7523C131.276 85.9666 131.329 85.4019 131.434 85.0584C131.561 84.6559 131.808 84.3776 132.175 84.2201C132.524 84.069 133.087 83.9927 133.862 83.9927H134.829C135.662 83.9927 136.261 84.0786 136.625 84.2503C136.991 84.4221 137.228 84.7291 137.339 85.1729C137.43 85.5053 137.476 86.105 137.476 86.9718Z" fill="white"/>
<path d="M142.547 89.2909H138.058V83.9927H138.956V88.4813H142.547V89.2909Z" fill="white"/>
<path d="M38.128 145.188H39.688V152.268H44.08V153.588H38.128V145.188ZM51.5682 151.644H47.3682L46.5402 153.588H44.9322L48.7122 145.188H50.2482L54.0402 153.588H52.4082L51.5682 151.644ZM51.0522 150.42L49.4682 146.748L47.8962 150.42H51.0522ZM59.2947 153.708C58.1347 153.708 57.2307 153.384 56.5827 152.736C55.9347 152.08 55.6107 151.144 55.6107 149.928V145.188H57.1707V149.868C57.1707 151.516 57.8827 152.34 59.3067 152.34C60.7227 152.34 61.4307 151.516 61.4307 149.868V145.188H62.9667V149.928C62.9667 151.144 62.6427 152.08 61.9947 152.736C61.3547 153.384 60.4547 153.708 59.2947 153.708ZM73.3654 145.188V153.588H72.0814L67.4494 147.9V153.588H65.9014V145.188H67.1854L71.8174 150.876V145.188H73.3654ZM80.2543 153.708C79.4063 153.708 78.6383 153.524 77.9503 153.156C77.2703 152.78 76.7343 152.264 76.3423 151.608C75.9583 150.952 75.7663 150.212 75.7663 149.388C75.7663 148.564 75.9623 147.824 76.3543 147.168C76.7463 146.512 77.2823 146 77.9623 145.632C78.6503 145.256 79.4183 145.068 80.2663 145.068C80.9543 145.068 81.5823 145.188 82.1503 145.428C82.7183 145.668 83.1983 146.016 83.5903 146.472L82.5823 147.42C81.9743 146.764 81.2263 146.436 80.3383 146.436C79.7623 146.436 79.2463 146.564 78.7903 146.82C78.3343 147.068 77.9783 147.416 77.7223 147.864C77.4663 148.312 77.3383 148.82 77.3383 149.388C77.3383 149.956 77.4663 150.464 77.7223 150.912C77.9783 151.36 78.3343 151.712 78.7903 151.968C79.2463 152.216 79.7623 152.34 80.3383 152.34C81.2263 152.34 81.9743 152.008 82.5823 151.344L83.5903 152.304C83.1983 152.76 82.7143 153.108 82.1383 153.348C81.5703 153.588 80.9423 153.708 80.2543 153.708ZM93.299 145.188V153.588H91.739V149.988H87.395V153.588H85.835V145.188H87.395V148.656H91.739V145.188H93.299ZM104.254 153.708C103.406 153.708 102.638 153.524 101.95 153.156C101.27 152.78 100.734 152.264 100.342 151.608C99.9583 150.952 99.7663 150.212 99.7663 149.388C99.7663 148.564 99.9623 147.824 100.354 147.168C100.746 146.512 101.282 146 101.962 145.632C102.65 145.256 103.418 145.068 104.266 145.068C104.954 145.068 105.582 145.188 106.15 145.428C106.718 145.668 107.198 146.016 107.59 146.472L106.582 147.42C105.974 146.764 105.226 146.436 104.338 146.436C103.762 146.436 103.246 146.564 102.79 146.82C102.334 147.068 101.978 147.416 101.722 147.864C101.466 148.312 101.338 148.82 101.338 149.388C101.338 149.956 101.466 150.464 101.722 150.912C101.978 151.36 102.334 151.712 102.79 151.968C103.246 152.216 103.762 152.34 104.338 152.34C105.226 152.34 105.974 152.008 106.582 151.344L107.59 152.304C107.198 152.76 106.714 153.108 106.138 153.348C105.57 153.588 104.942 153.708 104.254 153.708ZM113.583 153.708C112.727 153.708 111.955 153.524 111.267 153.156C110.579 152.78 110.039 152.264 109.647 151.608C109.255 150.944 109.059 150.204 109.059 149.388C109.059 148.572 109.255 147.836 109.647 147.18C110.039 146.516 110.579 146 111.267 145.632C111.955 145.256 112.727 145.068 113.583 145.068C114.439 145.068 115.211 145.256 115.899 145.632C116.587 146 117.127 146.512 117.519 147.168C117.911 147.824 118.107 148.564 118.107 149.388C118.107 150.212 117.911 150.952 117.519 151.608C117.127 152.264 116.587 152.78 115.899 153.156C115.211 153.524 114.439 153.708 113.583 153.708ZM113.583 152.34C114.143 152.34 114.647 152.216 115.095 151.968C115.543 151.712 115.895 151.36 116.151 150.912C116.407 150.456 116.535 149.948 116.535 149.388C116.535 148.828 116.407 148.324 116.151 147.876C115.895 147.42 115.543 147.068 115.095 146.82C114.647 146.564 114.143 146.436 113.583 146.436C113.023 146.436 112.519 146.564 112.071 146.82C111.623 147.068 111.271 147.42 111.015 147.876C110.759 148.324 110.631 148.828 110.631 149.388C110.631 149.948 110.759 150.456 111.015 150.912C111.271 151.36 111.623 151.712 112.071 151.968C112.519 152.216 113.023 152.34 113.583 152.34ZM127.975 145.188V153.588H126.691L122.059 147.9V153.588H120.511V145.188H121.795L126.427 150.876V145.188H127.975ZM132.68 146.508H129.896V145.188H137.024V146.508H134.24V153.588H132.68V146.508ZM144.44 153.588L142.724 151.128C142.652 151.136 142.544 151.14 142.4 151.14H140.504V153.588H138.944V145.188H142.4C143.128 145.188 143.76 145.308 144.296 145.548C144.84 145.788 145.256 146.132 145.544 146.58C145.832 147.028 145.976 147.56 145.976 148.176C145.976 148.808 145.82 149.352 145.508 149.808C145.204 150.264 144.764 150.604 144.188 150.828L146.12 153.588H144.44ZM144.404 148.176C144.404 147.64 144.228 147.228 143.876 146.94C143.524 146.652 143.008 146.508 142.328 146.508H140.504V149.856H142.328C143.008 149.856 143.524 149.712 143.876 149.424C144.228 149.128 144.404 148.712 144.404 148.176ZM152.396 153.708C151.54 153.708 150.768 153.524 150.08 153.156C149.392 152.78 148.852 152.264 148.46 151.608C148.068 150.944 147.872 150.204 147.872 149.388C147.872 148.572 148.068 147.836 148.46 147.18C148.852 146.516 149.392 146 150.08 145.632C150.768 145.256 151.54 145.068 152.396 145.068C153.252 145.068 154.024 145.256 154.712 145.632C155.4 146 155.94 146.512 156.332 147.168C156.724 147.824 156.92 148.564 156.92 149.388C156.92 150.212 156.724 150.952 156.332 151.608C155.94 152.264 155.4 152.78 154.712 153.156C154.024 153.524 153.252 153.708 152.396 153.708ZM152.396 152.34C152.956 152.34 153.46 152.216 153.908 151.968C154.356 151.712 154.708 151.36 154.964 150.912C155.22 150.456 155.348 149.948 155.348 149.388C155.348 148.828 155.22 148.324 154.964 147.876C154.708 147.42 154.356 147.068 153.908 146.82C153.46 146.564 152.956 146.436 152.396 146.436C151.836 146.436 151.332 146.564 150.884 146.82C150.436 147.068 150.084 147.42 149.828 147.876C149.572 148.324 149.444 148.828 149.444 149.388C149.444 149.948 149.572 150.456 149.828 150.912C150.084 151.36 150.436 151.712 150.884 151.968C151.332 152.216 151.836 152.34 152.396 152.34ZM159.323 145.188H160.883V152.268H165.275V153.588H159.323V145.188Z" fill="white" fill-opacity="0.87"/>
<defs>
<filter id="filter0_d" x="0" y="0" width="208" height="261" filterUnits="userSpaceOnUse" color-interpolation-filters="sRGB">
<feFlood flood-opacity="0" result="BackgroundImageFix"/>
<feColorMatrix in="SourceAlpha" type="matrix" values="0 0 0 0 0 0 0 0 0 0 0 0 0 0 0 0 0 0 127 0"/>
<feOffset dx="4" dy="4"/>
<feGaussianBlur stdDeviation="2"/>
<feColorMatrix type="matrix" values="0 0 0 0 0 0 0 0 0 0 0 0 0 0 0 0 0 0 0.25 0"/>
<feBlend mode="normal" in2="BackgroundImageFix" result="effect1_dropShadow"/>
<feBlend mode="normal" in="SourceGraphic" in2="effect1_dropShadow" result="shape"/>
</filter>
</defs>
</svg>
