<svg width="208" height="261" viewBox="0 0 208 261" fill="none" xmlns="http://www.w3.org/2000/svg">
<g filter="url(#filter0_d)">
<rect width="200" height="253" rx="8" fill="white" fill-opacity="0.08"/>
</g>
<path d="M72.2323 151.342H68.0323L67.2043 153.286H65.5962L69.3763 144.886H70.9123L74.7043 153.286H73.0723L72.2323 151.342ZM71.7162 150.118L70.1323 146.446L68.5603 150.118H71.7162ZM83.9865 144.886V153.286H82.7025L78.0705 147.598V153.286H76.5225V144.886H77.8065L82.4385 150.574V144.886H83.9865ZM88.6914 146.206H85.9074V144.886H93.0354V146.206H90.2514V153.286H88.6914V146.206ZM94.9561 144.886H96.5161V153.286H94.9561V144.886ZM99.0702 149.326H102.37V150.574H99.0702V149.326ZM104.905 144.886H106.465V151.966H110.857V153.286H104.905V144.886ZM118.346 151.342H114.146L113.318 153.286H111.71L115.49 144.886H117.026L120.818 153.286H119.186L118.346 151.342ZM117.83 150.118L116.246 146.446L114.674 150.118H117.83ZM128.255 148.99H129.731V152.338C129.299 152.682 128.795 152.946 128.219 153.13C127.643 153.314 127.051 153.406 126.443 153.406C125.587 153.406 124.815 153.222 124.127 152.854C123.439 152.478 122.899 151.962 122.507 151.306C122.115 150.65 121.919 149.91 121.919 149.086C121.919 148.262 122.115 147.522 122.507 146.866C122.899 146.21 123.439 145.698 124.127 145.33C124.823 144.954 125.603 144.766 126.467 144.766C127.171 144.766 127.811 144.882 128.387 145.114C128.963 145.346 129.447 145.686 129.839 146.134L128.855 147.094C128.215 146.454 127.443 146.134 126.539 146.134C125.947 146.134 125.419 146.258 124.955 146.506C124.499 146.754 124.139 147.102 123.875 147.55C123.619 147.998 123.491 148.51 123.491 149.086C123.491 149.646 123.619 150.15 123.875 150.598C124.139 151.046 124.499 151.398 124.955 151.654C125.419 151.91 125.943 152.038 126.527 152.038C127.183 152.038 127.759 151.894 128.255 151.606V148.99Z" fill="white" fill-opacity="0.87"/>
<path d="M92.6084 73.0515C93.8 72.6586 94.1086 72.5711 99.6402 72.6013C99.9075 72.6013 100.173 72.6013 100.455 72.6156C100.636 72.6013 100.848 72.6156 101.043 72.6284C110.406 72.9353 116.835 75.7777 119.571 77.0009C119.964 77.1775 120.287 77.3079 120.511 77.4097C121.634 77.8471 123.332 78.065 124.582 78.2257C125.214 78.3148 125.917 78.4006 126.098 78.4738C126.098 78.4897 126.113 78.5183 126.113 78.5311C126.14 78.5899 126.154 78.6488 126.183 78.7363C126.267 78.9844 126.393 79.3773 126.491 79.8004C126.518 79.8449 126.533 79.9038 126.547 79.961L126.603 80.1646C126.631 80.295 126.66 80.4128 126.701 80.5146L126.884 81.2717C126.884 81.3019 126.884 81.3305 126.899 81.4037L126.911 81.4769C126.954 81.5771 126.969 81.6805 126.981 81.7823C126.981 81.8268 126.981 81.8554 126.997 81.9127C127.01 82.0161 127.01 82.0892 127.01 82.1481C127.01 82.3215 127.026 82.4535 127.08 82.6141C127.096 82.6285 127.096 82.6428 127.096 82.6571C127.151 82.8177 127.249 82.9195 127.333 83.0341L127.347 83.05C127.361 83.0802 127.389 83.1088 127.389 83.1088L127.431 83.1677C127.446 83.1963 127.459 83.2392 127.503 83.2854L127.53 83.3426C127.573 83.4158 127.6 83.489 127.641 83.5908L127.656 83.648C127.699 83.7355 127.711 83.8214 127.74 83.9105C127.979 84.8426 127.896 87.4671 127.67 88.0508C127.656 88.0794 127.641 88.1081 127.641 88.1081C127.487 88.1526 127.319 88.2687 127.096 88.4453C127.026 88.501 126.954 88.5598 126.843 88.633C126.829 88.6616 126.8 88.6759 126.759 88.6918C126.73 88.7205 126.716 88.7348 126.689 88.7507L126.547 88.8525C126.491 88.8954 126.436 88.9241 126.38 88.9686C126.323 88.9972 126.267 89.0402 126.224 89.0704C126.113 89.1277 126.014 89.2008 125.888 89.2597L125.621 89.4203C125.354 89.5667 124.921 89.6971 124.414 89.8275C124.358 89.8275 124.302 89.8434 124.245 89.8577C124.204 89.8721 124.146 89.8864 124.062 89.9023H124.021C123.979 89.9166 123.951 89.9166 123.936 89.9293C123.346 90.0613 122.743 90.1488 122.35 90.2077C122.42 89.8577 122.449 89.4792 122.449 89.0847C122.449 85.6156 119.74 82.7875 116.399 82.7875C113.072 82.7875 110.363 85.6156 110.363 89.0847C110.363 89.4792 110.393 89.8577 110.463 90.2506L92.6084 73.0515ZM110.897 90.6149L110.856 90.397C110.756 89.9595 110.714 89.5205 110.714 89.0847C110.714 85.8192 113.269 83.1534 116.399 83.1534C119.544 83.1534 122.097 85.8192 122.097 89.0847C122.097 89.5508 122.056 89.9754 121.943 90.3683L121.93 90.6005H122.153C122.533 90.556 123.276 90.4542 124.035 90.2808C124.049 90.2649 124.062 90.2649 124.076 90.2649C124.105 90.2649 124.146 90.2506 124.146 90.2506C124.204 90.2363 124.261 90.222 124.329 90.2077C124.372 90.2077 124.414 90.1918 124.484 90.179C125.018 90.047 125.495 89.9023 125.775 89.74L126.055 89.581C126.183 89.5205 126.296 89.449 126.421 89.3774C126.463 89.3312 126.518 89.3042 126.576 89.274C126.631 89.2294 126.689 89.1881 126.773 89.1277L126.954 88.9972C126.997 88.9686 127.051 88.9384 127.067 88.9097C127.151 88.8525 127.236 88.792 127.306 88.7348C127.487 88.6028 127.656 88.4723 127.711 88.4723L127.81 88.4596L127.866 88.3992C127.909 88.3562 127.952 88.2687 127.993 88.2099C128.244 87.5402 128.33 84.8426 128.077 83.8373C128.063 83.7355 128.036 83.648 127.993 83.5319C127.979 83.5017 127.966 83.4747 127.952 83.4285C127.923 83.357 127.896 83.2695 127.853 83.182C127.839 83.1375 127.81 83.0929 127.796 83.0802C127.769 83.05 127.74 83.007 127.726 82.9784C127.711 82.9625 127.699 82.9339 127.684 82.9036L127.6 82.7875C127.516 82.7 127.459 82.6285 127.431 82.541L127.403 82.4535C127.376 82.3644 127.361 82.2785 127.361 82.1481C127.361 82.0749 127.361 81.9859 127.347 81.8856C127.347 81.8411 127.333 81.8109 127.333 81.7823V81.7393C127.306 81.6232 127.291 81.5039 127.249 81.3735C127.249 81.3464 127.249 81.3162 127.236 81.3019L127.039 80.3968C126.997 80.295 126.969 80.1933 126.94 80.0771L126.884 79.8576C126.87 79.8004 126.843 79.7415 126.829 79.7002C126.716 79.2596 126.603 78.8826 126.518 78.6201C126.491 78.5311 126.463 78.4579 126.448 78.415C126.436 78.3863 126.421 78.3736 126.421 78.3736L126.407 78.2988C126.323 78.0952 126.043 78.0507 124.624 77.8614C123.403 77.7024 121.719 77.4829 120.638 77.0614C120.414 76.9739 120.104 76.8419 119.711 76.6669C116.948 75.4421 110.49 72.5711 101.07 72.2657C100.875 72.2498 100.663 72.2498 100.455 72.2498C100.187 72.2355 99.9075 72.2355 99.6402 72.2355C94.053 72.2068 93.73 72.3086 92.4971 72.7015L110.897 90.6149ZM101.675 78.3418C101.675 76.8848 101.578 75.2815 101.338 73.3298H101.801C101.942 73.3441 102.054 73.3441 102.152 73.3441C103.374 73.3441 106.069 73.6352 107.937 74.1887C109.677 74.6977 113.101 76.7973 113.578 77.3954C112.763 77.5258 107.725 77.9648 101.675 78.3418ZM108.034 73.8388C106.139 73.271 103.401 72.9799 102.152 72.9799C102.054 72.9799 101.942 72.9799 101.801 72.964H100.945L100.973 73.1676C101.226 75.2815 101.338 76.9882 101.325 78.5311V78.7363L101.508 78.7204C107.359 78.3561 113.452 77.8614 113.788 77.7167C113.901 77.6721 113.971 77.5863 113.971 77.4542C113.957 76.7544 109.618 74.3048 108.034 73.8388ZM101.675 78.3418C101.675 76.8848 101.578 75.2815 101.338 73.3298H101.801C101.942 73.3441 102.054 73.3441 102.152 73.3441C103.374 73.3441 106.069 73.6352 107.937 74.1887C109.677 74.6977 113.101 76.7973 113.578 77.3954C112.763 77.5258 107.725 77.9648 101.675 78.3418ZM108.034 73.8388C106.139 73.271 103.401 72.9799 102.152 72.9799C102.054 72.9799 101.942 72.9799 101.801 72.964H100.945L100.973 73.1676C101.226 75.2815 101.338 76.9882 101.325 78.5311V78.7363L101.508 78.7204C107.359 78.3561 113.452 77.8614 113.788 77.7167C113.901 77.6721 113.971 77.5863 113.971 77.4542C113.957 76.7544 109.618 74.3048 108.034 73.8388ZM101.675 78.3418C101.675 76.8848 101.578 75.2815 101.338 73.3298H101.801C101.942 73.3441 102.054 73.3441 102.152 73.3441C103.374 73.3441 106.069 73.6352 107.937 74.1887C109.677 74.6977 113.101 76.7973 113.578 77.3954C112.763 77.5258 107.725 77.9648 101.675 78.3418ZM108.034 73.8388C106.139 73.271 103.401 72.9799 102.152 72.9799C102.054 72.9799 101.942 72.9799 101.801 72.964H100.945L100.973 73.1676C101.226 75.2815 101.338 76.9882 101.325 78.5311V78.7363L101.508 78.7204C107.359 78.3561 113.452 77.8614 113.788 77.7167C113.901 77.6721 113.971 77.5863 113.971 77.4542C113.957 76.7544 109.618 74.3048 108.034 73.8388ZM101.675 78.3418C101.675 76.8848 101.578 75.2815 101.338 73.3298H101.801C101.942 73.3441 102.054 73.3441 102.152 73.3441C103.374 73.3441 106.069 73.6352 107.937 74.1887C109.677 74.6977 113.101 76.7973 113.578 77.3954C112.763 77.5258 107.725 77.9648 101.675 78.3418ZM108.034 73.8388C106.139 73.271 103.401 72.9799 102.152 72.9799C102.054 72.9799 101.942 72.9799 101.801 72.964H100.945L100.973 73.1676C101.226 75.2815 101.338 76.9882 101.325 78.5311V78.7363L101.508 78.7204C107.359 78.3561 113.452 77.8614 113.788 77.7167C113.901 77.6721 113.971 77.5863 113.971 77.4542C113.957 76.7544 109.618 74.3048 108.034 73.8388ZM101.675 78.3418C101.675 76.8848 101.578 75.2815 101.338 73.3298H101.801C101.942 73.3441 102.054 73.3441 102.152 73.3441C103.374 73.3441 106.069 73.6352 107.937 74.1887C109.677 74.6977 113.101 76.7973 113.578 77.3954C112.763 77.5258 107.725 77.9648 101.675 78.3418ZM108.034 73.8388C106.139 73.271 103.401 72.9799 102.152 72.9799C102.054 72.9799 101.942 72.9799 101.801 72.964H100.945L100.973 73.1676C101.226 75.2815 101.338 76.9882 101.325 78.5311V78.7363L101.508 78.7204C107.359 78.3561 113.452 77.8614 113.788 77.7167C113.901 77.6721 113.971 77.5863 113.971 77.4542C113.957 76.7544 109.618 74.3048 108.034 73.8388Z" fill="white"/>
<path d="M99.9536 73.2822C100.108 73.2965 100.25 73.2965 100.388 73.2965V73.2822H99.9536ZM92.9775 78.8064C94.1993 78.7618 95.5325 78.703 96.9627 78.6171C95.6582 78.676 94.3107 78.7475 92.9775 78.8064Z" fill="white"/>
<path d="M93.0181 73.6051C93.0897 73.5765 93.1597 73.5479 93.2297 73.5335C93.3426 73.489 93.4413 73.4604 93.524 73.4317C93.5813 73.4158 93.6226 73.4015 93.6497 73.4015C93.7483 73.3872 93.8756 73.3729 94.0156 73.3443C94.3385 73.3124 94.7458 73.2854 95.1801 73.2711C95.8817 73.2409 96.7535 73.2281 97.7924 73.2281C98.5353 73.2281 99.2926 73.2409 99.9528 73.2409H100.389V73.2552C100.627 75.1655 100.726 76.8404 100.726 78.3562C100.163 78.3865 99.6298 78.431 99.0969 78.4596C98.8296 78.4739 98.5353 78.4883 98.2553 78.5026C97.821 78.5328 97.3835 78.5614 96.9619 78.5757C95.5317 78.6632 94.1985 78.7221 92.9783 78.765C92.6967 78.7793 92.4295 78.7793 92.1495 78.7952L93.0181 73.6051ZM100.907 78.7062L101.074 78.6919V78.5185C101.074 78.0365 101.074 77.5419 101.047 77.017C101.047 76.6957 101.019 76.3744 101.006 76.0244C100.949 75.1066 100.852 74.1157 100.726 73.0516L100.697 72.8909H100.541C99.7428 72.8766 98.7739 72.8623 97.7924 72.8623C95.6574 72.8623 94.2828 72.9212 93.594 73.0389C93.3554 73.0818 92.6267 73.3586 91.6436 73.7674" fill="white"/>
<path d="M113.525 87.3488L115.631 88.0694V85.7757C114.777 85.9682 114.012 86.5392 113.525 87.3488ZM115.983 88.5561L115.486 88.405L114.828 88.1712L113.009 87.5588L113.11 87.3663C113.673 86.2895 114.672 85.5451 115.781 85.3765L115.983 85.3462V88.5561ZM117.111 85.7789V88.0646L119.201 87.3488C118.735 86.5535 117.976 85.9841 117.111 85.7789ZM116.759 88.5609V85.3431L116.963 85.3781C118.089 85.5658 119.08 86.3102 119.616 87.3695L119.713 87.5604L116.759 88.5609ZM116.361 89.6663C116.077 89.6663 115.838 89.4245 115.838 89.1366C115.838 88.8376 116.073 88.5911 116.361 88.5911C116.652 88.5911 116.888 88.8376 116.888 89.1366C116.888 89.4245 116.648 89.6663 116.361 89.6663ZM113.059 88.801C113.047 88.9076 113.043 89.0205 113.043 89.1366C113.043 89.9733 113.334 90.767 113.865 91.3921L115.181 89.5184L114.498 89.2957L113.059 88.801ZM113.905 91.9568L113.759 91.8073C113.071 91.0915 112.693 90.1435 112.693 89.1366C112.693 88.9203 112.709 88.7135 112.742 88.5259L112.779 88.3191L115.733 89.3164L115.443 89.7665L115.023 90.3376L113.905 91.9568ZM117.559 89.5184L117.589 89.5645L118.873 91.3905C119.403 90.7575 119.683 89.9828 119.683 89.1366C119.683 89.0285 119.677 88.9219 119.666 88.8169L117.559 89.5184ZM118.838 91.9584L117.007 89.3164L119.947 88.3382L119.984 88.5434C120.017 88.7406 120.035 88.9331 120.035 89.1366C120.035 90.1371 119.661 91.0851 118.983 91.8057L118.838 91.9584ZM115.055 92.3004C115.86 92.6694 116.807 92.6821 117.669 92.2972L116.364 90.4219L115.055 92.3004ZM116.361 92.9493C115.779 92.9493 115.222 92.8093 114.708 92.5342L114.529 92.434L116.36 89.7999L117.076 90.8116L118.199 92.4371L118.013 92.5342C117.491 92.8062 116.92 92.9493 116.361 92.9493ZM116.361 84.3696C113.838 84.3696 111.787 86.509 111.787 89.1366C111.787 91.7564 113.838 93.8878 116.361 93.8878C118.894 93.8878 120.954 91.7564 120.954 89.1366C120.954 86.509 118.894 84.3696 116.361 84.3696ZM116.361 94.2536C113.646 94.2536 111.438 91.9568 111.438 89.1366C111.438 86.3086 113.646 84.0054 116.361 84.0054C119.087 84.0054 121.304 86.3086 121.304 89.1366C121.304 91.9568 119.087 94.2536 116.361 94.2536Z" fill="white"/>
<path d="M113.059 88.6924C113.048 88.799 113.043 88.9119 113.043 89.028C113.043 89.8647 113.334 90.6584 113.866 91.2835L115.182 89.4098L114.499 89.1871L113.059 88.6924ZM113.906 91.8482L113.759 91.6986C113.072 90.9813 112.693 90.0349 112.693 89.028C112.693 88.8117 112.709 88.6049 112.743 88.4172L112.779 88.2104L115.734 89.2078L115.444 89.6563L115.024 90.2289L113.906 91.8482Z" fill="white"/>
<path d="M113.524 87.2697L115.631 87.9902V85.6966C114.776 85.889 114.011 86.46 113.524 87.2697ZM115.982 88.4769L115.486 88.3258L114.827 88.092L113.009 87.4796L113.109 87.2872C113.672 86.2103 114.671 85.4659 115.78 85.2973L115.982 85.2671V88.4769Z" fill="white"/>
<path d="M115.053 92.183C115.858 92.5505 116.806 92.5632 117.668 92.1799L116.362 90.303L115.053 92.183ZM116.359 92.8304C115.775 92.8304 115.22 92.6904 114.706 92.4153L114.526 92.3167L116.357 89.6826L117.075 90.6926L118.197 92.3198L118.01 92.4153C117.489 92.6873 116.917 92.8304 116.359 92.8304Z" fill="white"/>
<path d="M117.105 85.7013V87.987L119.196 87.2712C118.731 86.4759 117.971 85.9065 117.105 85.7013ZM116.754 88.4833V85.2671L116.958 85.3005C118.084 85.4882 119.075 86.2326 119.611 87.2919L119.708 87.4828L116.754 88.4833Z" fill="white"/>
<path d="M117.556 89.6006L117.586 89.6452L118.87 91.4728C119.4 90.8381 119.68 90.0651 119.68 89.2189C119.68 89.1091 119.673 89.0042 119.662 88.8992L117.556 89.6006ZM118.835 92.0406L117.004 89.3986L119.944 88.4204L119.979 88.6256C120.014 88.8228 120.031 89.0153 120.031 89.2189C120.031 90.2194 119.658 91.1658 118.98 91.8863L118.835 92.0406Z" fill="white"/>
<path d="M113.059 88.6924C113.048 88.799 113.043 88.9119 113.043 89.028C113.043 89.8647 113.334 90.6584 113.866 91.2835L115.182 89.4098L114.499 89.1871L113.059 88.6924ZM113.906 91.8482L113.759 91.6986C113.072 90.9813 112.693 90.0349 112.693 89.028C112.693 88.8117 112.709 88.6049 112.743 88.4172L112.779 88.2104L115.734 89.2078L115.444 89.6563L115.024 90.2289L113.906 91.8482Z" fill="white"/>
<path d="M113.524 87.2697L115.631 87.9902V85.6966C114.776 85.889 114.011 86.46 113.524 87.2697ZM115.982 88.4769L115.486 88.3258L114.827 88.092L113.009 87.4796L113.109 87.2872C113.672 86.2103 114.671 85.4659 115.78 85.2973L115.982 85.2671V88.4769Z" fill="white"/>
<path d="M115.053 92.183C115.858 92.5505 116.806 92.5632 117.668 92.1799L116.362 90.303L115.053 92.183ZM116.359 92.8304C115.775 92.8304 115.22 92.6904 114.706 92.4153L114.526 92.3167L116.357 89.6826L117.075 90.6926L118.197 92.3198L118.01 92.4153C117.489 92.6873 116.917 92.8304 116.359 92.8304Z" fill="white"/>
<path d="M117.105 85.7013V87.987L119.196 87.2712C118.731 86.4759 117.971 85.9065 117.105 85.7013ZM116.754 88.4833V85.2671L116.958 85.3005C118.084 85.4882 119.075 86.2326 119.611 87.2919L119.708 87.4828L116.754 88.4833Z" fill="white"/>
<path d="M117.556 89.6006L117.586 89.6452L118.87 91.4728C119.4 90.8381 119.68 90.0651 119.68 89.2189C119.68 89.1091 119.673 89.0042 119.662 88.8992L117.556 89.6006ZM118.835 92.0406L117.004 89.3986L119.944 88.4204L119.979 88.6256C120.014 88.8228 120.031 89.0153 120.031 89.2189C120.031 90.2194 119.658 91.1658 118.98 91.8863L118.835 92.0406Z" fill="white"/>
<path d="M126.599 89.3955L132.132 88.3362L135.625 87.5806C137.278 87.5265 136.788 89.6086 136.788 91.3265V92.4176L129.801 91.6621L126.89 90.3021L126.599 89.3955Z" fill="white"/>
<path d="M90.4264 69.2246L116.485 96.5878L107.167 96.436L82.8547 68.6206L90.4264 69.2246Z" fill="white"/>
<path d="M67.3615 92.6192C67.4379 92.2948 67.3774 92.0196 67.177 91.7905C66.9702 91.5615 66.6854 91.447 66.3211 91.447H63.3477C62.9818 91.447 62.6429 91.5615 62.3295 91.7905C62.0161 92.0196 61.8204 92.2948 61.7441 92.6192L61.5691 93.343H67.1881L67.3615 92.6192ZM66.3895 91.1543C66.8445 91.1543 67.1993 91.299 67.4538 91.5869C67.7083 91.8701 67.7879 92.2152 67.6892 92.6192L66.8715 96.0327H66.5438L67.1181 93.6356H61.4991L60.9264 96.0327H60.5986L61.4164 92.6192C61.5134 92.2152 61.7568 91.8701 62.145 91.5869C62.5379 91.299 62.9611 91.1543 63.4177 91.1543H66.3895Z" fill="white"/>
<path d="M73.1928 91.1543C73.6478 91.1543 74.001 91.2975 74.2524 91.5853C74.5101 91.8701 74.5896 92.2136 74.491 92.6176L73.6749 96.0247H73.3471L74.1633 92.6176C74.2412 92.2948 74.1776 92.018 73.9708 91.7889C73.7703 91.5599 73.4887 91.4454 73.1228 91.4454H70.151C69.7851 91.4454 69.4463 91.5599 69.1281 91.7889C68.8147 92.018 68.6206 92.2948 68.5427 92.6176L67.7249 96.0263H67.4004L68.2181 92.6176C68.3167 92.2136 68.5602 91.8701 68.9467 91.5853C69.3413 91.2975 69.766 91.1543 70.2195 91.1543H73.1928Z" fill="white"/>
<path d="M75.3757 91.1543H80.2915L80.2215 91.4454H77.9275L76.8281 96.0343H76.502L77.5997 91.4454H75.3057L75.3757 91.1543Z" fill="white"/>
<path d="M80.901 91.1543H81.2287L80.0562 96.0486H79.7285L80.901 91.1543Z" fill="white"/>
<path d="M81.1783 95.2405C81.1449 95.3805 81.1719 95.4982 81.2594 95.5968C81.3485 95.6939 81.471 95.7432 81.6253 95.7432H85.3576L85.2876 96.0343H81.5553C81.3119 96.0343 81.121 95.9563 80.981 95.802C80.8458 95.6462 80.8028 95.4601 80.8537 95.2405L81.8337 91.1543H82.1567L81.1783 95.2405Z" fill="white"/>
<path d="M92.59 92.6192C92.668 92.2948 92.6059 92.0196 92.4055 91.7905C92.2003 91.5615 91.9139 91.447 91.5496 91.447H88.5762C88.2119 91.447 87.8714 91.5615 87.558 91.7905C87.2446 92.0196 87.0505 92.2948 86.9726 92.6192L86.7976 93.343H92.4166L92.59 92.6192ZM91.6196 91.1543C92.073 91.1543 92.4278 91.299 92.6839 91.5869C92.9369 91.8701 93.0164 92.2152 92.9178 92.6192L92.1 96.0327H91.7723L92.3482 93.6356H86.7292L86.1549 96.0327H85.8271L86.6449 92.6192C86.7419 92.2152 86.9853 91.8701 87.3735 91.5869C87.7664 91.299 88.1896 91.1543 88.6462 91.1543H91.6196Z" fill="white"/>
<path d="M99.5562 91.447H95.3753C95.011 91.447 94.6721 91.5615 94.3571 91.7921C94.0421 92.0196 93.8449 92.2948 93.7669 92.6192L93.3008 94.5693C93.2244 94.8922 93.2896 95.169 93.4933 95.3948C93.6969 95.6271 93.9817 95.7416 94.3476 95.7416H97.3194C97.6837 95.7416 98.0225 95.6271 98.336 95.3948C98.6509 95.169 98.8466 94.8922 98.9246 94.5693L99.1425 93.6531H96.2932L96.3632 93.3605H99.5403L99.2507 94.5693C99.1537 94.9717 98.9087 95.3169 98.5189 95.6C98.1275 95.8879 97.7044 96.0327 97.2494 96.0327H94.2776C93.8226 96.0327 93.4678 95.8879 93.2133 95.6C92.9587 95.3169 92.8808 94.9717 92.9778 94.5693L93.444 92.6192C93.5426 92.2152 93.7844 91.8717 94.1726 91.5869C94.5655 91.299 94.9903 91.1543 95.4453 91.1543H99.6246L99.5562 91.447Z" fill="white"/>
<defs>
<filter id="filter0_d" x="0" y="0" width="208" height="261" filterUnits="userSpaceOnUse" color-interpolation-filters="sRGB">
<feFlood flood-opacity="0" result="BackgroundImageFix"/>
<feColorMatrix in="SourceAlpha" type="matrix" values="0 0 0 0 0 0 0 0 0 0 0 0 0 0 0 0 0 0 127 0"/>
<feOffset dx="4" dy="4"/>
<feGaussianBlur stdDeviation="2"/>
<feColorMatrix type="matrix" values="0 0 0 0 0 0 0 0 0 0 0 0 0 0 0 0 0 0 0.25 0"/>
<feBlend mode="normal" in2="BackgroundImageFix" result="effect1_dropShadow"/>
<feBlend mode="normal" in="SourceGraphic" in2="effect1_dropShadow" result="shape"/>
</filter>
</defs>
</svg>
