<svg width="287" height="361" viewBox="0 0 287 361" fill="none" xmlns="http://www.w3.org/2000/svg">
<g filter="url(#filter0_d)">
<rect width="279" height="353" rx="8" fill="white" fill-opacity="0.08"/>
<rect width="279" height="353" rx="8" fill="#121212" fill-opacity="0.08"/>
</g>
<path d="M251.286 319.714H242.714V328.286C242.714 329.229 241.943 330 241 330C240.057 330 239.286 329.229 239.286 328.286V319.714H230.714C229.771 319.714 229 318.943 229 318C229 317.057 229.771 316.286 230.714 316.286H239.286V307.714C239.286 306.771 240.057 306 241 306C241.943 306 242.714 306.771 242.714 307.714V316.286H251.286C252.229 316.286 253 317.057 253 318C253 318.943 252.229 319.714 251.286 319.714Z" fill="#FAFAFA"/>
<path d="M54.732 232.12C54.084 232.12 53.456 232.028 52.848 231.844C52.248 231.66 51.772 231.416 51.42 231.112L51.96 229.9C52.304 230.172 52.724 230.396 53.22 230.572C53.724 230.74 54.228 230.824 54.732 230.824C55.356 230.824 55.82 230.724 56.124 230.524C56.436 230.324 56.592 230.06 56.592 229.732C56.592 229.492 56.504 229.296 56.328 229.144C56.16 228.984 55.944 228.86 55.68 228.772C55.416 228.684 55.056 228.584 54.6 228.472C53.96 228.32 53.44 228.168 53.04 228.016C52.648 227.864 52.308 227.628 52.02 227.308C51.74 226.98 51.6 226.54 51.6 225.988C51.6 225.524 51.724 225.104 51.972 224.728C52.228 224.344 52.608 224.04 53.112 223.816C53.624 223.592 54.248 223.48 54.984 223.48C55.496 223.48 56 223.544 56.496 223.672C56.992 223.8 57.42 223.984 57.78 224.224L57.288 225.436C56.92 225.22 56.536 225.056 56.136 224.944C55.736 224.832 55.348 224.776 54.972 224.776C54.356 224.776 53.896 224.88 53.592 225.088C53.296 225.296 53.148 225.572 53.148 225.916C53.148 226.156 53.232 226.352 53.4 226.504C53.576 226.656 53.796 226.776 54.06 226.864C54.324 226.952 54.684 227.052 55.14 227.164C55.764 227.308 56.276 227.46 56.676 227.62C57.076 227.772 57.416 228.008 57.696 228.328C57.984 228.648 58.128 229.08 58.128 229.624C58.128 230.088 58 230.508 57.744 230.884C57.496 231.26 57.116 231.56 56.604 231.784C56.092 232.008 55.468 232.12 54.732 232.12ZM68.1409 232L68.1289 226.432L65.3689 231.04H64.6729L61.9129 226.504V232H60.4249V223.6H61.7089L65.0449 229.168L68.3209 223.6H69.6049L69.6169 232H68.1409ZM78.0838 230.056H73.8838L73.0558 232H71.4478L75.2278 223.6H76.7638L80.5558 232H78.9238L78.0838 230.056ZM77.5678 228.832L75.9838 225.16L74.4118 228.832H77.5678ZM87.8701 232L86.1541 229.54C86.0821 229.548 85.9741 229.552 85.8301 229.552H83.9341V232H82.3741V223.6H85.8301C86.5581 223.6 87.1901 223.72 87.7261 223.96C88.2701 224.2 88.6861 224.544 88.9741 224.992C89.2621 225.44 89.4061 225.972 89.4061 226.588C89.4061 227.22 89.2501 227.764 88.9381 228.22C88.6341 228.676 88.1941 229.016 87.6181 229.24L89.5501 232H87.8701ZM87.8341 226.588C87.8341 226.052 87.6581 225.64 87.3061 225.352C86.9541 225.064 86.4381 224.92 85.7581 224.92H83.9341V228.268H85.7581C86.4381 228.268 86.9541 228.124 87.3061 227.836C87.6581 227.54 87.8341 227.124 87.8341 226.588ZM93.4883 224.92H90.7043V223.6H97.8323V224.92H95.0483V232H93.4883V224.92ZM106.795 227.068C107.571 227.164 108.163 227.428 108.571 227.86C108.979 228.292 109.183 228.832 109.183 229.48C109.183 229.968 109.059 230.412 108.811 230.812C108.563 231.212 108.187 231.532 107.683 231.772C107.187 232.004 106.579 232.12 105.859 232.12C105.259 232.12 104.679 232.036 104.119 231.868C103.567 231.692 103.095 231.452 102.703 231.148L103.375 229.936C103.679 230.192 104.047 230.396 104.479 230.548C104.919 230.692 105.371 230.764 105.835 230.764C106.387 230.764 106.819 230.652 107.131 230.428C107.451 230.196 107.611 229.884 107.611 229.492C107.611 229.1 107.459 228.796 107.155 228.58C106.859 228.356 106.403 228.244 105.787 228.244H105.019V227.176L106.927 224.908H103.111V223.6H108.835V224.644L106.795 227.068ZM114.77 226.816C115.322 226.816 115.818 226.924 116.258 227.14C116.698 227.348 117.042 227.648 117.29 228.04C117.538 228.432 117.662 228.884 117.662 229.396C117.662 229.94 117.526 230.42 117.254 230.836C116.982 231.244 116.614 231.56 116.15 231.784C115.686 232.008 115.166 232.12 114.59 232.12C113.438 232.12 112.542 231.76 111.902 231.04C111.27 230.32 110.954 229.288 110.954 227.944C110.954 227 111.126 226.196 111.47 225.532C111.814 224.86 112.294 224.352 112.91 224.008C113.534 223.656 114.254 223.48 115.07 223.48C115.502 223.48 115.906 223.528 116.282 223.624C116.666 223.712 116.998 223.844 117.278 224.02L116.702 225.196C116.286 224.924 115.754 224.788 115.106 224.788C114.298 224.788 113.666 225.036 113.21 225.532C112.754 226.028 112.526 226.744 112.526 227.68V227.692C112.774 227.404 113.09 227.188 113.474 227.044C113.858 226.892 114.29 226.816 114.77 226.816ZM114.506 230.896C114.994 230.896 115.39 230.768 115.694 230.512C115.998 230.248 116.15 229.9 116.15 229.468C116.15 229.028 115.998 228.68 115.694 228.424C115.39 228.168 114.982 228.04 114.47 228.04C113.966 228.04 113.554 228.176 113.234 228.448C112.922 228.72 112.766 229.064 112.766 229.48C112.766 229.888 112.918 230.228 113.222 230.5C113.534 230.764 113.962 230.896 114.506 230.896ZM122.731 232.12C122.059 232.12 121.459 231.952 120.931 231.616C120.403 231.272 119.987 230.776 119.683 230.128C119.379 229.472 119.227 228.696 119.227 227.8C119.227 226.904 119.379 226.132 119.683 225.484C119.987 224.828 120.403 224.332 120.931 223.996C121.459 223.652 122.059 223.48 122.731 223.48C123.403 223.48 124.003 223.652 124.531 223.996C125.067 224.332 125.487 224.828 125.791 225.484C126.095 226.132 126.247 226.904 126.247 227.8C126.247 228.696 126.095 229.472 125.791 230.128C125.487 230.776 125.067 231.272 124.531 231.616C124.003 231.952 123.403 232.12 122.731 232.12ZM122.731 230.764C123.331 230.764 123.803 230.516 124.147 230.02C124.499 229.524 124.675 228.784 124.675 227.8C124.675 226.816 124.499 226.076 124.147 225.58C123.803 225.084 123.331 224.836 122.731 224.836C122.139 224.836 121.667 225.084 121.315 225.58C120.971 226.076 120.799 226.816 120.799 227.8C120.799 228.784 120.971 229.524 121.315 230.02C121.667 230.516 122.139 230.764 122.731 230.764ZM132.718 223.6H136.39C137.286 223.6 138.082 223.776 138.778 224.128C139.474 224.472 140.014 224.964 140.398 225.604C140.782 226.236 140.974 226.968 140.974 227.8C140.974 228.632 140.782 229.368 140.398 230.008C140.014 230.64 139.474 231.132 138.778 231.484C138.082 231.828 137.286 232 136.39 232H132.718V223.6ZM136.318 230.68C136.934 230.68 137.474 230.564 137.938 230.332C138.41 230.092 138.77 229.756 139.018 229.324C139.274 228.884 139.402 228.376 139.402 227.8C139.402 227.224 139.274 226.72 139.018 226.288C138.77 225.848 138.41 225.512 137.938 225.28C137.474 225.04 136.934 224.92 136.318 224.92H134.278V230.68H136.318ZM148.713 230.056H144.513L143.685 232H142.077L145.857 223.6H147.393L151.185 232H149.553L148.713 230.056ZM148.197 228.832L146.613 225.16L145.041 228.832H148.197ZM155.607 232.12C154.959 232.12 154.331 232.028 153.723 231.844C153.123 231.66 152.647 231.416 152.295 231.112L152.835 229.9C153.179 230.172 153.599 230.396 154.095 230.572C154.599 230.74 155.103 230.824 155.607 230.824C156.231 230.824 156.695 230.724 156.999 230.524C157.311 230.324 157.467 230.06 157.467 229.732C157.467 229.492 157.379 229.296 157.203 229.144C157.035 228.984 156.819 228.86 156.555 228.772C156.291 228.684 155.931 228.584 155.475 228.472C154.835 228.32 154.315 228.168 153.915 228.016C153.523 227.864 153.183 227.628 152.895 227.308C152.615 226.98 152.475 226.54 152.475 225.988C152.475 225.524 152.599 225.104 152.847 224.728C153.103 224.344 153.483 224.04 153.987 223.816C154.499 223.592 155.123 223.48 155.859 223.48C156.371 223.48 156.875 223.544 157.371 223.672C157.867 223.8 158.295 223.984 158.655 224.224L158.163 225.436C157.795 225.22 157.411 225.056 157.011 224.944C156.611 224.832 156.223 224.776 155.847 224.776C155.231 224.776 154.771 224.88 154.467 225.088C154.171 225.296 154.023 225.572 154.023 225.916C154.023 226.156 154.107 226.352 154.275 226.504C154.451 226.656 154.671 226.776 154.935 226.864C155.199 226.952 155.559 227.052 156.015 227.164C156.639 227.308 157.151 227.46 157.551 227.62C157.951 227.772 158.291 228.008 158.571 228.328C158.859 228.648 159.003 229.08 159.003 229.624C159.003 230.088 158.875 230.508 158.619 230.884C158.371 231.26 157.991 231.56 157.479 231.784C156.967 232.008 156.343 232.12 155.607 232.12ZM168.764 223.6V232H167.204V228.4H162.86V232H161.3V223.6H162.86V227.068H167.204V223.6H168.764ZM179.719 232.12C178.871 232.12 178.103 231.936 177.415 231.568C176.735 231.192 176.199 230.676 175.807 230.02C175.423 229.364 175.231 228.624 175.231 227.8C175.231 226.976 175.427 226.236 175.819 225.58C176.211 224.924 176.747 224.412 177.427 224.044C178.115 223.668 178.883 223.48 179.731 223.48C180.419 223.48 181.047 223.6 181.615 223.84C182.183 224.08 182.663 224.428 183.055 224.884L182.047 225.832C181.439 225.176 180.691 224.848 179.803 224.848C179.227 224.848 178.711 224.976 178.255 225.232C177.799 225.48 177.443 225.828 177.187 226.276C176.931 226.724 176.803 227.232 176.803 227.8C176.803 228.368 176.931 228.876 177.187 229.324C177.443 229.772 177.799 230.124 178.255 230.38C178.711 230.628 179.227 230.752 179.803 230.752C180.691 230.752 181.439 230.42 182.047 229.756L183.055 230.716C182.663 231.172 182.179 231.52 181.603 231.76C181.035 232 180.407 232.12 179.719 232.12ZM190.572 230.056H186.372L185.544 232H183.936L187.716 223.6H189.252L193.044 232H191.412L190.572 230.056ZM190.056 228.832L188.472 225.16L186.9 228.832H190.056ZM202.578 232L202.566 226.432L199.806 231.04H199.11L196.35 226.504V232H194.862V223.6H196.146L199.482 229.168L202.758 223.6H204.042L204.054 232H202.578ZM213.373 230.692V232H207.073V223.6H213.205V224.908H208.633V227.092H212.689V228.376H208.633V230.692H213.373ZM221.358 232L219.642 229.54C219.57 229.548 219.462 229.552 219.318 229.552H217.422V232H215.862V223.6H219.318C220.046 223.6 220.678 223.72 221.214 223.96C221.758 224.2 222.174 224.544 222.462 224.992C222.75 225.44 222.894 225.972 222.894 226.588C222.894 227.22 222.738 227.764 222.426 228.22C222.122 228.676 221.682 229.016 221.106 229.24L223.038 232H221.358ZM221.322 226.588C221.322 226.052 221.146 225.64 220.794 225.352C220.442 225.064 219.926 224.92 219.246 224.92H217.422V228.268H219.246C219.926 228.268 220.442 228.124 220.794 227.836C221.146 227.54 221.322 227.124 221.322 226.588ZM230.838 230.056H226.638L225.81 232H224.202L227.982 223.6H229.518L233.31 232H231.678L230.838 230.056ZM230.322 228.832L228.738 225.16L227.166 228.832H230.322ZM55.104 243.068C55.88 243.164 56.472 243.428 56.88 243.86C57.288 244.292 57.492 244.832 57.492 245.48C57.492 245.968 57.368 246.412 57.12 246.812C56.872 247.212 56.496 247.532 55.992 247.772C55.496 248.004 54.888 248.12 54.168 248.12C53.568 248.12 52.988 248.036 52.428 247.868C51.876 247.692 51.404 247.452 51.012 247.148L51.684 245.936C51.988 246.192 52.356 246.396 52.788 246.548C53.228 246.692 53.68 246.764 54.144 246.764C54.696 246.764 55.128 246.652 55.44 246.428C55.76 246.196 55.92 245.884 55.92 245.492C55.92 245.1 55.768 244.796 55.464 244.58C55.168 244.356 54.712 244.244 54.096 244.244H53.328V243.176L55.236 240.908H51.42V239.6H57.144V240.644L55.104 243.068ZM63.0784 242.816C63.6304 242.816 64.1264 242.924 64.5664 243.14C65.0064 243.348 65.3504 243.648 65.5984 244.04C65.8464 244.432 65.9704 244.884 65.9704 245.396C65.9704 245.94 65.8344 246.42 65.5624 246.836C65.2904 247.244 64.9224 247.56 64.4584 247.784C63.9944 248.008 63.4744 248.12 62.8984 248.12C61.7464 248.12 60.8504 247.76 60.2104 247.04C59.5784 246.32 59.2624 245.288 59.2624 243.944C59.2624 243 59.4344 242.196 59.7784 241.532C60.1224 240.86 60.6024 240.352 61.2184 240.008C61.8424 239.656 62.5624 239.48 63.3784 239.48C63.8104 239.48 64.2144 239.528 64.5904 239.624C64.9744 239.712 65.3064 239.844 65.5864 240.02L65.0104 241.196C64.5944 240.924 64.0624 240.788 63.4144 240.788C62.6064 240.788 61.9744 241.036 61.5184 241.532C61.0624 242.028 60.8344 242.744 60.8344 243.68V243.692C61.0824 243.404 61.3984 243.188 61.7824 243.044C62.1664 242.892 62.5984 242.816 63.0784 242.816ZM62.8144 246.896C63.3024 246.896 63.6984 246.768 64.0024 246.512C64.3064 246.248 64.4584 245.9 64.4584 245.468C64.4584 245.028 64.3064 244.68 64.0024 244.424C63.6984 244.168 63.2904 244.04 62.7784 244.04C62.2744 244.04 61.8624 244.176 61.5424 244.448C61.2304 244.72 61.0744 245.064 61.0744 245.48C61.0744 245.888 61.2264 246.228 61.5304 246.5C61.8424 246.764 62.2704 246.896 62.8144 246.896ZM71.0398 248.12C70.3678 248.12 69.7678 247.952 69.2398 247.616C68.7118 247.272 68.2958 246.776 67.9918 246.128C67.6878 245.472 67.5358 244.696 67.5358 243.8C67.5358 242.904 67.6878 242.132 67.9918 241.484C68.2958 240.828 68.7118 240.332 69.2398 239.996C69.7678 239.652 70.3678 239.48 71.0398 239.48C71.7118 239.48 72.3118 239.652 72.8398 239.996C73.3758 240.332 73.7958 240.828 74.0998 241.484C74.4038 242.132 74.5558 242.904 74.5558 243.8C74.5558 244.696 74.4038 245.472 74.0998 246.128C73.7958 246.776 73.3758 247.272 72.8398 247.616C72.3118 247.952 71.7118 248.12 71.0398 248.12ZM71.0398 246.764C71.6398 246.764 72.1118 246.516 72.4558 246.02C72.8078 245.524 72.9838 244.784 72.9838 243.8C72.9838 242.816 72.8078 242.076 72.4558 241.58C72.1118 241.084 71.6398 240.836 71.0398 240.836C70.4478 240.836 69.9758 241.084 69.6238 241.58C69.2798 242.076 69.1078 242.816 69.1078 243.8C69.1078 244.784 69.2798 245.524 69.6238 246.02C69.9758 246.516 70.4478 246.764 71.0398 246.764ZM83.6304 248.12C82.9824 248.12 82.3544 248.028 81.7464 247.844C81.1464 247.66 80.6704 247.416 80.3184 247.112L80.8584 245.9C81.2024 246.172 81.6224 246.396 82.1184 246.572C82.6224 246.74 83.1264 246.824 83.6304 246.824C84.2544 246.824 84.7184 246.724 85.0224 246.524C85.3344 246.324 85.4904 246.06 85.4904 245.732C85.4904 245.492 85.4024 245.296 85.2264 245.144C85.0584 244.984 84.8424 244.86 84.5784 244.772C84.3144 244.684 83.9544 244.584 83.4984 244.472C82.8584 244.32 82.3384 244.168 81.9384 244.016C81.5464 243.864 81.2064 243.628 80.9184 243.308C80.6384 242.98 80.4984 242.54 80.4984 241.988C80.4984 241.524 80.6224 241.104 80.8704 240.728C81.1264 240.344 81.5064 240.04 82.0104 239.816C82.5224 239.592 83.1464 239.48 83.8824 239.48C84.3944 239.48 84.8984 239.544 85.3944 239.672C85.8904 239.8 86.3184 239.984 86.6784 240.224L86.1864 241.436C85.8184 241.22 85.4344 241.056 85.0344 240.944C84.6344 240.832 84.2464 240.776 83.8704 240.776C83.2544 240.776 82.7944 240.88 82.4904 241.088C82.1944 241.296 82.0464 241.572 82.0464 241.916C82.0464 242.156 82.1304 242.352 82.2984 242.504C82.4744 242.656 82.6944 242.776 82.9584 242.864C83.2224 242.952 83.5824 243.052 84.0384 243.164C84.6624 243.308 85.1744 243.46 85.5744 243.62C85.9744 243.772 86.3144 244.008 86.5944 244.328C86.8824 244.648 87.0264 245.08 87.0264 245.624C87.0264 246.088 86.8984 246.508 86.6424 246.884C86.3944 247.26 86.0144 247.56 85.5024 247.784C84.9904 248.008 84.3664 248.12 83.6304 248.12ZM95.6233 246.692V248H89.3233V239.6H95.4553V240.908H90.8833V243.092H94.9393V244.376H90.8833V246.692H95.6233ZM101.965 248.12C101.117 248.12 100.349 247.936 99.6612 247.568C98.9812 247.192 98.4452 246.676 98.0532 246.02C97.6692 245.364 97.4772 244.624 97.4772 243.8C97.4772 242.976 97.6732 242.236 98.0652 241.58C98.4572 240.924 98.9932 240.412 99.6732 240.044C100.361 239.668 101.129 239.48 101.977 239.48C102.665 239.48 103.293 239.6 103.861 239.84C104.429 240.08 104.909 240.428 105.301 240.884L104.293 241.832C103.685 241.176 102.937 240.848 102.049 240.848C101.473 240.848 100.957 240.976 100.501 241.232C100.045 241.48 99.6892 241.828 99.4332 242.276C99.1772 242.724 99.0492 243.232 99.0492 243.8C99.0492 244.368 99.1772 244.876 99.4332 245.324C99.6892 245.772 100.045 246.124 100.501 246.38C100.957 246.628 101.473 246.752 102.049 246.752C102.937 246.752 103.685 246.42 104.293 245.756L105.301 246.716C104.909 247.172 104.425 247.52 103.849 247.76C103.281 248 102.653 248.12 101.965 248.12ZM111.099 248.12C109.939 248.12 109.035 247.796 108.387 247.148C107.739 246.492 107.415 245.556 107.415 244.34V239.6H108.975V244.28C108.975 245.928 109.687 246.752 111.111 246.752C112.527 246.752 113.235 245.928 113.235 244.28V239.6H114.771V244.34C114.771 245.556 114.447 246.492 113.799 247.148C113.159 247.796 112.259 248.12 111.099 248.12ZM123.202 248L121.486 245.54C121.414 245.548 121.306 245.552 121.162 245.552H119.266V248H117.706V239.6H121.162C121.89 239.6 122.522 239.72 123.058 239.96C123.602 240.2 124.018 240.544 124.306 240.992C124.594 241.44 124.738 241.972 124.738 242.588C124.738 243.22 124.582 243.764 124.27 244.22C123.966 244.676 123.526 245.016 122.95 245.24L124.882 248H123.202ZM123.166 242.588C123.166 242.052 122.99 241.64 122.638 241.352C122.286 241.064 121.77 240.92 121.09 240.92H119.266V244.268H121.09C121.77 244.268 122.286 244.124 122.638 243.836C122.99 243.54 123.166 243.124 123.166 242.588ZM133.533 246.692V248H127.233V239.6H133.365V240.908H128.793V243.092H132.849V244.376H128.793V246.692H133.533Z" fill="white" fill-opacity="0.87"/>
<defs>
<filter id="filter0_d" x="0" y="0" width="287" height="361" filterUnits="userSpaceOnUse" color-interpolation-filters="sRGB">
<feFlood flood-opacity="0" result="BackgroundImageFix"/>
<feColorMatrix in="SourceAlpha" type="matrix" values="0 0 0 0 0 0 0 0 0 0 0 0 0 0 0 0 0 0 127 0"/>
<feOffset dx="4" dy="4"/>
<feGaussianBlur stdDeviation="2"/>
<feColorMatrix type="matrix" values="0 0 0 0 0 0 0 0 0 0 0 0 0 0 0 0 0 0 0.25 0"/>
<feBlend mode="normal" in2="BackgroundImageFix" result="effect1_dropShadow"/>
<feBlend mode="normal" in="SourceGraphic" in2="effect1_dropShadow" result="shape"/>
</filter>
</defs>
</svg>
