<svg width="208" height="261" viewBox="0 0 208 261" fill="none" xmlns="http://www.w3.org/2000/svg">
<g filter="url(#filter0_d)">
<rect width="200" height="253" rx="8" fill="white" fill-opacity="0.08"/>
</g>
<path d="M85.3967 149.49H89.0687C89.9647 149.49 90.7607 149.666 91.4567 150.018C92.1527 150.362 92.6927 150.854 93.0767 151.494C93.4607 152.126 93.6527 152.858 93.6527 153.69C93.6527 154.522 93.4607 155.258 93.0767 155.898C92.6927 156.53 92.1527 157.022 91.4567 157.374C90.7607 157.718 89.9647 157.89 89.0687 157.89H85.3967V149.49ZM88.9967 156.57C89.6127 156.57 90.1527 156.454 90.6167 156.222C91.0887 155.982 91.4487 155.646 91.6967 155.214C91.9527 154.774 92.0807 154.266 92.0807 153.69C92.0807 153.114 91.9527 152.61 91.6967 152.178C91.4487 151.738 91.0887 151.402 90.6167 151.17C90.1527 150.93 89.6127 150.81 88.9967 150.81H86.9567V156.57H88.9967ZM99.5167 149.49C100.245 149.49 100.877 149.61 101.413 149.85C101.957 150.09 102.373 150.434 102.661 150.882C102.949 151.33 103.093 151.862 103.093 152.478C103.093 153.086 102.949 153.618 102.661 154.074C102.373 154.522 101.957 154.866 101.413 155.106C100.877 155.346 100.245 155.466 99.5167 155.466H97.6207V157.89H96.0607V149.49H99.5167ZM99.4447 154.146C100.125 154.146 100.641 154.002 100.993 153.714C101.345 153.426 101.521 153.014 101.521 152.478C101.521 151.942 101.345 151.53 100.993 151.242C100.641 150.954 100.125 150.81 99.4447 150.81H97.6207V154.146H99.4447ZM106.961 150.798V153.354H111.017V154.674H106.961V157.89H105.401V149.49H111.533V150.798H106.961ZM73.5022 165.49H77.1742C78.0702 165.49 78.8662 165.666 79.5622 166.018C80.2582 166.362 80.7982 166.854 81.1822 167.494C81.5662 168.126 81.7582 168.858 81.7582 169.69C81.7582 170.522 81.5662 171.258 81.1822 171.898C80.7982 172.53 80.2582 173.022 79.5622 173.374C78.8662 173.718 78.0702 173.89 77.1742 173.89H73.5022V165.49ZM77.1022 172.57C77.7182 172.57 78.2582 172.454 78.7222 172.222C79.1942 171.982 79.5542 171.646 79.8022 171.214C80.0582 170.774 80.1862 170.266 80.1862 169.69C80.1862 169.114 80.0582 168.61 79.8022 168.178C79.5542 167.738 79.1942 167.402 78.7222 167.17C78.2582 166.93 77.7182 166.81 77.1022 166.81H75.0622V172.57H77.1022ZM90.4662 172.582V173.89H84.1662V165.49H90.2982V166.798H85.7262V168.982H89.7822V170.266H85.7262V172.582H90.4662ZM92.9553 165.49H94.5153V172.57H98.9073V173.89H92.9553V165.49ZM107.189 172.582V173.89H100.889V165.49H107.021V166.798H102.449V168.982H106.505V170.266H102.449V172.582H107.189ZM111.382 166.81H108.598V165.49H115.726V166.81H112.942V173.89H111.382V166.81ZM123.947 172.582V173.89H117.647V165.49H123.779V166.798H119.207V168.982H123.263V170.266H119.207V172.582H123.947Z" fill="white" fill-opacity="0.87"/>
<path d="M76.9819 70.6272V66.1942C76.9819 65.2192 76.1913 64.4287 75.2161 64.4287H71.04C70.0632 64.4287 69.271 65.2192 69.271 66.1942V70.6272C69.271 71.6022 68.4803 72.3943 67.5051 72.3943C66.5299 72.3943 65.7393 73.1848 65.7393 74.1614V103.005C65.7393 103.982 66.5299 104.772 67.5051 104.772H78.7494C79.7262 104.772 80.5168 103.982 80.5168 103.005V74.1614C80.5168 73.1848 79.7262 72.3943 78.7494 72.3943C77.7742 72.3943 76.9819 71.6022 76.9819 70.6272Z" fill="url(#paint0_linear)"/>
<path d="M102.513 84.747V83.2344C102.513 81.8935 102.285 80.9869 101.833 80.5177C101.38 80.0469 100.484 79.813 99.1432 79.813H93.1425V88.2192H99.2975C100.674 88.2192 101.566 87.9775 101.98 87.4971C102.336 87.0724 102.513 86.1563 102.513 84.747ZM104.559 84.8154C104.559 86.8323 104.237 88.1954 103.596 88.9064C102.896 89.6746 101.555 90.0579 99.5728 90.0579H91.0791V77.9902H99.28C100.965 77.9902 102.198 78.2495 102.977 78.7648C103.687 79.2229 104.145 79.9848 104.352 81.0505C104.49 81.7376 104.559 82.9926 104.559 84.8154Z" fill="white"/>
<path d="M114.01 79.9832H107.907V83.6272H114.045C114.756 83.6272 115.265 83.5254 115.575 83.3187C115.965 83.0546 116.161 82.5854 116.161 81.9094C116.161 81.13 116.003 80.6131 115.687 80.3618C115.372 80.1105 114.813 79.9832 114.01 79.9832ZM113.838 85.6393H107.907V90.0389H105.879V77.9902H114.01C115.602 77.9902 116.698 78.2845 117.293 78.8746C117.888 79.4647 118.189 80.5495 118.189 82.1321C118.189 83.5413 117.787 84.51 116.985 85.0381C116.364 85.4389 115.318 85.6393 113.838 85.6393Z" fill="white"/>
<path d="M120.949 83.0271H129.443V84.764H120.949V90.1099H119.022L119.04 83.8526C119.04 82.1905 119.172 80.988 119.436 80.242C119.734 79.3942 120.302 78.8041 121.137 78.4717C121.927 78.152 123.183 77.9897 124.902 77.9897H127.139C129.304 77.9897 130.793 78.2554 131.608 78.7819C132.387 79.2845 132.857 80.242 133.017 81.6528H131.075C130.892 80.8496 130.478 80.3343 129.837 80.1052C129.379 79.9446 128.45 79.8634 127.052 79.8634H125.025C123.396 79.8634 122.352 80.0193 121.894 80.3279C121.31 80.7065 120.994 81.6067 120.949 83.0271Z" fill="white"/>
<path d="M93.1878 95.5169V95.1972C93.1878 94.879 93.1559 94.6516 93.0907 94.5164C93.0287 94.3812 92.9125 94.2937 92.7439 94.2571C92.6262 94.2269 92.3987 94.2126 92.0646 94.2126H91.511C91.0496 94.2126 90.7601 94.2603 90.6376 94.3557C90.4912 94.4734 90.4181 94.755 90.4181 95.2019V95.52C90.4181 95.9543 90.4928 96.2279 90.6424 96.3424C90.7601 96.4283 91.0449 96.4712 91.4983 96.4712H92.0757C92.4035 96.4712 92.6246 96.4585 92.7391 96.433C92.9078 96.398 93.0223 96.3153 93.0891 96.1817C93.1543 96.0497 93.1878 95.8286 93.1878 95.5169ZM93.7621 95.536C93.7621 95.9813 93.708 96.309 93.603 96.5173C93.498 96.7257 93.3198 96.8641 93.0669 96.9341C92.8696 96.9913 92.5403 97.02 92.0853 97.02H91.4696C91.0003 97.02 90.6599 96.9802 90.4467 96.9023C90.2112 96.8148 90.049 96.6557 89.9647 96.4235C89.8851 96.2072 89.8438 95.8652 89.8438 95.3976C89.8438 94.9013 89.8787 94.545 89.9456 94.3271C90.0251 94.0726 90.181 93.8961 90.4133 93.7974C90.6344 93.702 90.9876 93.6543 91.4792 93.6543H92.0901C92.615 93.6543 92.9921 93.7084 93.2243 93.8165C93.455 93.9263 93.6046 94.1187 93.6762 94.3987C93.7334 94.6086 93.7621 94.9872 93.7621 95.536Z" fill="white"/>
<path d="M94.7162 95.0524H97.0738V95.5344H94.7162V97.02H94.1816L94.1848 95.2815C94.1848 94.8202 94.223 94.4862 94.2946 94.2794C94.3789 94.044 94.5364 93.8802 94.7687 93.7879C94.9882 93.6972 95.3366 93.6543 95.8139 93.6543H96.4359C97.0373 93.6543 97.4525 93.7275 97.6768 93.8722C97.8931 94.0138 98.0252 94.2794 98.0681 94.6707H97.5304C97.4779 94.448 97.3634 94.3048 97.1852 94.2412C97.0579 94.1951 96.8002 94.1744 96.4105 94.1744H95.8473C95.3971 94.1744 95.1059 94.2174 94.9787 94.3033C94.8148 94.4082 94.7289 94.658 94.7162 95.0524Z" fill="white"/>
<path d="M98.5804 95.0524H100.94V95.5344H98.5804V97.02H98.0459L98.0507 95.2815C98.0507 94.8202 98.0873 94.4862 98.1604 94.2794C98.2432 94.044 98.4023 93.8802 98.6329 93.7879C98.8525 93.6972 99.2025 93.6543 99.6781 93.6543H100.3C100.902 93.6543 101.317 93.7275 101.541 93.8722C101.757 94.0138 101.888 94.2794 101.932 94.6707H101.395C101.342 94.448 101.228 94.3048 101.049 94.2412C100.924 94.1951 100.666 94.1744 100.276 94.1744H99.7115C99.2613 94.1744 98.9702 94.2174 98.8429 94.3033C98.6807 94.4082 98.5947 94.658 98.5804 95.0524Z" fill="white"/>
<path d="M105.248 93.5572L104.187 97.4966L103.735 97.4969L104.8 93.5583L105.248 93.5572Z" fill="white"/>
<path d="M110.712 95.5312V95.1097C110.712 94.7375 110.648 94.4878 110.523 94.3557C110.397 94.2253 110.147 94.1601 109.775 94.1601H108.108V96.4951H109.818C110.201 96.4951 110.448 96.4283 110.563 96.2947C110.663 96.177 110.712 95.9225 110.712 95.5312ZM111.278 95.5503C111.278 96.1101 111.191 96.4887 111.013 96.6859C110.817 96.8991 110.445 97.0056 109.894 97.0056H107.535V93.6543H109.813C110.281 93.6543 110.623 93.7259 110.839 93.869C111.038 93.9963 111.166 94.2078 111.221 94.5037C111.261 94.6961 111.278 95.0429 111.278 95.5503Z" fill="white"/>
<path d="M114.485 95.5312H112.209L112.212 95.0445H114.485V95.5312ZM115.704 96.0274C115.704 96.4553 115.565 96.7321 115.289 96.8641C115.082 96.9659 114.67 97.0168 114.053 97.0168H113.313C112.843 97.0168 112.503 96.977 112.29 96.8975C112.058 96.8116 111.897 96.6525 111.806 96.4203C111.728 96.2056 111.688 95.8652 111.688 95.3976C111.688 94.8949 111.723 94.5355 111.793 94.3176C111.871 94.0631 112.027 93.8881 112.256 93.7927C112.474 93.702 112.831 93.6543 113.322 93.6543H114.06C114.651 93.6543 115.074 93.7402 115.332 93.9072C115.573 94.0631 115.694 94.3064 115.694 94.6389H115.155C115.155 94.4257 115.052 94.2873 114.85 94.2221C114.717 94.184 114.449 94.1665 114.037 94.1665H113.354C112.899 94.1665 112.605 94.2078 112.471 94.2953C112.306 94.4035 112.221 94.6548 112.217 95.0492V95.5312C112.215 95.9765 112.295 96.2597 112.458 96.3758C112.584 96.468 112.878 96.5157 113.34 96.5157H114.041C114.463 96.5157 114.733 96.4951 114.857 96.4585C115.061 96.3965 115.163 96.2533 115.16 96.0274H115.704Z" fill="white"/>
<path d="M118.759 97.0009H115.921V93.6543H116.489V96.4903H118.759V97.0009Z" fill="white"/>
<path d="M121.426 95.5312H119.148L119.151 95.0445H121.426V95.5312ZM122.643 96.0274C122.643 96.4553 122.506 96.7321 122.228 96.8641C122.021 96.9659 121.609 97.0168 120.992 97.0168H120.252C119.783 97.0168 119.442 96.977 119.229 96.8975C118.999 96.8116 118.836 96.6525 118.746 96.4203C118.668 96.2056 118.628 95.8652 118.628 95.3976C118.628 94.8949 118.663 94.5355 118.733 94.3176C118.811 94.0631 118.967 93.8881 119.196 93.7927C119.414 93.702 119.77 93.6543 120.262 93.6543H121C121.592 93.6543 122.013 93.7402 122.271 93.9072C122.513 94.0631 122.634 94.3064 122.634 94.6389H122.096C122.096 94.4257 121.991 94.2873 121.789 94.2221C121.659 94.184 121.388 94.1665 120.978 94.1665H120.294C119.839 94.1665 119.544 94.2078 119.411 94.2953C119.245 94.4035 119.161 94.6548 119.156 95.0492V95.5312C119.155 95.9765 119.234 96.2597 119.398 96.3758C119.525 96.468 119.818 96.5157 120.281 96.5157H120.982C121.402 96.5157 121.673 96.4951 121.799 96.4585C122.002 96.3965 122.102 96.2533 122.101 96.0274H122.643Z" fill="white"/>
<path d="M126.179 94.1649H124.671V97.0009H124.101V94.1649H122.598V93.6543H126.179V94.1649Z" fill="white"/>
<path d="M128.997 95.5312H126.718L126.723 95.0445H128.997V95.5312ZM130.215 96.0274C130.215 96.4553 130.077 96.7321 129.8 96.8641C129.592 96.9659 129.18 97.0168 128.562 97.0168H127.823C127.355 97.0168 127.014 96.977 126.8 96.8975C126.569 96.8116 126.407 96.6525 126.318 96.4203C126.238 96.2056 126.198 95.8652 126.198 95.3976C126.198 94.8949 126.233 94.5355 126.303 94.3176C126.383 94.0631 126.537 93.8881 126.768 93.7927C126.986 93.702 127.342 93.6543 127.832 93.6543H128.57C129.162 93.6543 129.585 93.7402 129.843 93.9072C130.085 94.0631 130.206 94.3064 130.206 94.6389H129.666C129.666 94.4257 129.563 94.2873 129.361 94.2221C129.229 94.184 128.96 94.1665 128.548 94.1665H127.864C127.409 94.1665 127.115 94.2078 126.981 94.2953C126.817 94.4035 126.731 94.6548 126.728 95.0492V95.5312C126.725 95.9765 126.806 96.2597 126.968 96.3758C127.095 96.468 127.388 96.5157 127.851 96.5157H128.553C128.973 96.5157 129.245 96.4951 129.369 96.4585C129.572 96.3965 129.673 96.2533 129.671 96.0274H130.215Z" fill="white"/>
<defs>
<filter id="filter0_d" x="0" y="0" width="208" height="261" filterUnits="userSpaceOnUse" color-interpolation-filters="sRGB">
<feFlood flood-opacity="0" result="BackgroundImageFix"/>
<feColorMatrix in="SourceAlpha" type="matrix" values="0 0 0 0 0 0 0 0 0 0 0 0 0 0 0 0 0 0 127 0"/>
<feOffset dx="4" dy="4"/>
<feGaussianBlur stdDeviation="2"/>
<feColorMatrix type="matrix" values="0 0 0 0 0 0 0 0 0 0 0 0 0 0 0 0 0 0 0.25 0"/>
<feBlend mode="normal" in2="BackgroundImageFix" result="effect1_dropShadow"/>
<feBlend mode="normal" in="SourceGraphic" in2="effect1_dropShadow" result="shape"/>
</filter>
<linearGradient id="paint0_linear" x1="73.1281" y1="64.4287" x2="73.1281" y2="104.772" gradientUnits="userSpaceOnUse">
<stop stop-color="#FAFF00"/>
<stop offset="1" stop-color="#003F9E"/>
</linearGradient>
</defs>
</svg>
