<svg width="208" height="261" viewBox="0 0 208 261" fill="none" xmlns="http://www.w3.org/2000/svg">
<g filter="url(#filter0_d)">
<rect width="200" height="253" rx="8" fill="white" fill-opacity="0.08"/>
<rect width="200" height="253" rx="8" fill="#121212" fill-opacity="0.08"/>
</g>
<path d="M121.817 84.5359L92.1637 83.9142C90.4035 83.8769 88.7615 83.1564 87.5405 81.8839C86.3228 80.6129 85.6718 78.9421 85.7074 77.1822C85.7852 73.5928 88.7291 70.7254 92.3014 70.7254H92.439L114.723 71.1933C115.511 71.2241 116.35 70.9035 116.956 70.3239C117.56 69.7443 117.903 68.9639 117.919 68.1269L117.927 67.8128C117.944 66.9774 117.636 66.184 117.056 65.5801C116.475 64.9746 115.698 64.633 114.859 64.6152L86.4588 64.0194L86.5333 60.5579L114.932 61.1537C116.692 61.1925 118.336 61.9114 119.555 63.1839C120.774 64.4549 121.425 66.1257 121.388 67.8873L121.381 68.2014C121.344 69.9613 120.625 71.6013 119.354 72.8221C118.081 74.0412 116.467 74.6743 114.648 74.6549L92.3662 74.187C90.6319 74.1303 89.2036 75.5275 89.1696 77.255C89.1502 78.0905 89.4627 78.8838 90.0392 79.4877C90.6189 80.0932 91.3994 80.4348 92.235 80.4526L121.892 81.0744L121.817 84.5359Z" fill="#C7C7C7"/>
<path d="M94.6321 63.7864L82.0418 65.4055L82.1735 59.1316L95.3205 60.9767L94.6321 63.7864Z" fill="#DADADA"/>
<path d="M82.3197 59.328L82.195 65.2521L94.5052 63.6687L95.1271 61.1252L82.3197 59.328ZM81.8809 65.6018L82.0185 58.9751L95.5076 60.8678L94.7546 63.9472L81.8809 65.6018Z" fill="white"/>
<path d="M94.3365 95.9537L94.3559 95.0551C94.3737 94.163 94.2976 93.5251 94.1211 93.1414C93.9479 92.7593 93.6191 92.5084 93.1366 92.3902C92.7998 92.3044 92.152 92.2493 91.1934 92.2299L89.6016 92.1959C88.2769 92.1684 87.4381 92.2849 87.0851 92.5456C86.6592 92.8662 86.4309 93.653 86.405 94.9029L86.3872 95.7999C86.3596 97.0141 86.5588 97.7864 86.9815 98.1167C87.315 98.3644 88.1312 98.502 89.4283 98.5296L91.0865 98.5652C92.0273 98.5846 92.6637 98.562 92.9941 98.4972C93.4815 98.4098 93.8216 98.1815 94.0175 97.8156C94.2118 97.4481 94.3187 96.828 94.3365 95.9537ZM95.9818 96.0411C95.9542 97.291 95.7858 98.2058 95.47 98.7838C95.1575 99.3618 94.6377 99.7422 93.9106 99.9236C93.3325 100.073 92.3884 100.132 91.0816 100.105L89.3133 100.068C87.9693 100.04 86.9944 99.9074 86.3872 99.671C85.7168 99.4168 85.2633 98.9602 85.0302 98.3029C84.8148 97.6909 84.7225 96.7292 84.7484 95.4162C84.7775 94.0238 84.8941 93.0265 85.0998 92.4225C85.3427 91.7134 85.801 91.2277 86.4746 90.9638C87.1094 90.7112 88.1328 90.5979 89.5384 90.627L91.2938 90.6643C92.803 90.695 93.8847 90.8699 94.5405 91.1888C95.1964 91.5046 95.6158 92.0583 95.8004 92.85C95.9526 93.4409 96.0125 94.5046 95.9818 96.0411Z" fill="white"/>
<path d="M89.2234 92.4137C87.915 92.4137 87.4033 92.5788 87.2057 92.7245C86.9531 92.9139 86.6438 93.4498 86.6147 94.9102L86.5952 95.8088C86.5628 97.2238 86.8543 97.7549 87.1069 97.9508C87.3045 98.0997 87.8729 98.2859 89.4242 98.3183L91.0824 98.3523C91.9973 98.3733 92.6273 98.3507 92.9463 98.2892C93.3689 98.2131 93.6523 98.0269 93.8175 97.7193C93.9956 97.3841 94.0944 96.7915 94.1138 95.9545L94.13 95.0559C94.1494 94.1995 94.0766 93.5875 93.9163 93.2361C93.7705 92.9139 93.4936 92.7083 93.0774 92.6063C92.7552 92.5221 92.1172 92.4703 91.1796 92.4509L89.5894 92.4169C89.4615 92.4153 89.34 92.4137 89.2234 92.4137ZM91.701 98.7927C91.5083 98.7927 91.301 98.7894 91.0743 98.7862L89.4145 98.7506C88.0591 98.7214 87.217 98.5725 86.843 98.294C86.3556 97.9119 86.1337 97.0975 86.1612 95.7991L86.1807 94.9037C86.2082 93.5713 86.4576 92.7456 86.9466 92.378C87.3434 92.0834 88.1887 91.9587 89.5975 91.9846L91.1893 92.017C92.1738 92.0397 92.8264 92.0931 93.1827 92.1854C93.7252 92.3181 94.1057 92.6128 94.3114 93.0564C94.5025 93.4741 94.5834 94.1315 94.564 95.0656L94.5446 95.9626C94.5251 96.8806 94.4118 97.5233 94.198 97.9216C93.9729 98.3474 93.5778 98.6146 93.0256 98.715C92.7584 98.7668 92.3228 98.7927 91.701 98.7927ZM89.1068 90.8448C87.949 90.8448 87.0891 90.9533 86.545 91.1702C85.9281 91.4115 85.5184 91.8454 85.2949 92.4978C85.099 93.0775 84.9856 94.0635 84.9565 95.4267C84.9305 96.709 85.0212 97.6545 85.2269 98.2357C85.439 98.8348 85.8406 99.2395 86.456 99.4743C87.0373 99.6993 87.996 99.8289 89.3109 99.8564L91.0792 99.8936C92.352 99.9228 93.2896 99.8629 93.8482 99.7188C94.5203 99.5504 94.9866 99.2136 95.27 98.6858C95.568 98.1386 95.7332 97.2497 95.7558 96.0419C95.7882 94.5297 95.7299 93.4757 95.5842 92.9075C95.4125 92.174 95.0368 91.6786 94.4377 91.3872C93.8126 91.086 92.752 90.916 91.2816 90.8853L89.5262 90.8497C89.3837 90.8464 89.2428 90.8448 89.1068 90.8448ZM91.6735 100.332C91.4808 100.332 91.28 100.331 91.0678 100.326L89.2995 100.289C87.9182 100.26 86.9369 100.125 86.3005 99.8791C85.5718 99.6006 85.073 99.0954 84.8172 98.3814C84.5937 97.7403 84.4966 96.7705 84.5241 95.417C84.5532 93.9906 84.6698 92.99 84.8852 92.3586C85.1492 91.5879 85.656 91.0553 86.3847 90.7687C87.0551 90.4999 88.064 90.3834 89.5359 90.4174L91.2913 90.453C92.8459 90.4854 93.9373 90.6635 94.6271 90.9986C95.3413 91.3451 95.8044 91.9522 96.0036 92.8038C96.159 93.4142 96.2206 94.4779 96.1882 96.05C96.1607 97.3453 95.9874 98.2762 95.6506 98.8914C95.3121 99.5229 94.7389 99.9422 93.9551 100.138C93.445 100.269 92.6969 100.332 91.6735 100.332Z" fill="white"/>
<path d="M105.238 96.1715L99.4557 96.05L99.3974 98.8364L105.25 98.9578C106.291 98.9805 106.824 98.5094 106.843 97.5444C106.863 96.6523 106.328 96.1941 105.238 96.1715ZM104.991 92.3878L99.5351 92.2744L99.4849 94.6301L104.953 94.7451C105.923 94.7661 106.416 94.3921 106.43 93.6247C106.448 92.8201 105.967 92.4088 104.991 92.3878ZM105.425 100.383L97.7344 100.221L97.9319 90.8335L105.005 90.9808C105.975 91.0019 106.702 91.1654 107.19 91.4698C107.784 91.8567 108.072 92.4979 108.053 93.39C108.043 93.9 107.999 94.2869 107.92 94.5524C107.792 94.9701 107.551 95.26 107.19 95.4219C108.061 95.6809 108.485 96.437 108.459 97.6853C108.438 98.6858 108.184 99.3901 107.701 99.7997C107.217 100.209 106.458 100.404 105.425 100.383Z" fill="white"/>
<path d="M99.7033 94.4289L104.955 94.539C104.979 94.5406 105.002 94.5406 105.026 94.5406C106.058 94.5406 106.202 94.0549 106.213 93.6291C106.218 93.2924 106.129 93.0495 105.939 92.8876C105.739 92.716 105.416 92.6237 104.981 92.6156L99.7422 92.5055L99.7033 94.4289ZM105.023 94.9729C104.999 94.9729 104.973 94.9729 104.945 94.9713L99.2612 94.8531L99.3195 92.0635L104.992 92.1817C105.53 92.193 105.944 92.3193 106.22 92.5589C106.511 92.8083 106.655 93.1709 106.644 93.6388C106.631 94.2508 106.338 94.9729 105.023 94.9729ZM99.6143 98.6336L105.251 98.7518C105.693 98.7647 106.061 98.6676 106.281 98.4701C106.505 98.2741 106.616 97.973 106.623 97.5521C106.634 97.068 106.5 96.4236 105.232 96.3977L99.6628 96.2811L99.6143 98.6336ZM105.314 99.1857H105.241L99.1722 99.0578L99.2402 95.8391L105.241 95.9654C106.767 95.9978 107.073 96.8494 107.057 97.5602C107.045 98.1025 106.882 98.517 106.569 98.7939C106.276 99.0529 105.854 99.1857 105.314 99.1857ZM105.428 100.177C106.42 100.198 107.118 100.018 107.559 99.6439C107.989 99.2796 108.221 98.6222 108.239 97.6913C108.263 96.5418 107.899 95.8699 107.125 95.6383L106.568 95.4732L107.099 95.2336C107.4 95.0992 107.599 94.8596 107.711 94.4985C107.781 94.2589 107.823 93.8849 107.834 93.3944C107.852 92.5751 107.601 92.0068 107.07 91.6604C106.62 91.3803 105.923 91.2265 104.999 91.2087L98.1407 91.0629L97.9544 100.019L105.428 100.177ZM105.577 100.61C105.525 100.61 105.471 100.609 105.416 100.609L97.5107 100.444L97.718 90.6226L105.007 90.7747C106.011 90.7958 106.783 90.9707 107.301 91.2961C107.964 91.7284 108.287 92.4359 108.266 93.4041C108.255 93.94 108.208 94.3383 108.126 94.6248C108.028 94.9438 107.868 95.1996 107.649 95.3906C108.354 95.776 108.697 96.5499 108.673 97.701C108.649 98.7599 108.37 99.5257 107.837 99.9741C107.332 100.402 106.592 100.61 105.577 100.61Z" fill="white"/>
<path d="M119.152 96.4992L119.178 95.3206C119.199 94.2763 119.033 93.5671 118.679 93.1931C118.326 92.8208 117.615 92.6216 116.546 92.599L111.763 92.4986L111.625 99.0476L116.531 99.1512C117.629 99.1739 118.345 99.0007 118.682 98.6331C118.972 98.3093 119.129 97.5969 119.152 96.4992ZM120.782 96.5867C120.748 98.1587 120.47 99.216 119.947 99.7584C119.377 100.344 118.303 100.621 116.721 100.587L109.947 100.446L110.145 91.0447L116.685 91.1823C118.029 91.2098 119.006 91.4316 119.62 91.8461C120.178 92.2152 120.533 92.8175 120.679 93.6513C120.777 94.1889 120.811 95.1684 120.782 96.5867Z" fill="white"/>
<path d="M111.843 98.8445L116.533 98.9433C116.594 98.9449 116.656 98.9449 116.714 98.9449C117.861 98.9449 118.329 98.7037 118.52 98.4964C118.692 98.3038 118.905 97.7986 118.934 96.505L118.959 95.3263C118.978 94.3452 118.831 93.6814 118.52 93.3511C118.211 93.0241 117.543 92.846 116.538 92.8249L111.971 92.7294L111.843 98.8445ZM116.718 99.3772C116.656 99.3772 116.59 99.3772 116.523 99.3756L111.401 99.2687L111.547 92.2874L116.548 92.3926C117.688 92.4169 118.434 92.6339 118.834 93.0532C119.231 93.4758 119.414 94.2205 119.389 95.3344L119.367 96.5147C119.341 97.6756 119.168 98.4187 118.839 98.7862C118.476 99.1845 117.781 99.3772 116.718 99.3772ZM110.167 100.243L116.726 100.381C118.238 100.404 119.265 100.156 119.789 99.6168C120.27 99.1181 120.531 98.1014 120.563 96.5908C120.591 95.1903 120.559 94.2173 120.463 93.6992C120.327 92.9188 120.011 92.3748 119.498 92.0364C118.92 91.6463 117.973 91.4358 116.679 91.4083L110.355 91.2755L110.167 100.243ZM116.978 100.817C116.891 100.817 116.803 100.815 116.714 100.813L109.724 100.668L109.931 90.8335L116.688 90.9744C118.084 91.0051 119.083 91.235 119.739 91.677C120.345 92.0769 120.732 92.7326 120.891 93.6231C120.991 94.1768 121.025 95.1499 120.996 96.6005V96.6021C120.962 98.2455 120.669 99.3302 120.1 99.9179C119.513 100.522 118.491 100.817 116.978 100.817Z" fill="white"/>
<path d="M19.4758 149.066C18.6198 149.066 17.8478 148.882 17.1598 148.514C16.4718 148.138 15.9318 147.622 15.5398 146.966C15.1478 146.302 14.9518 145.562 14.9518 144.746C14.9518 143.93 15.1478 143.194 15.5398 142.538C15.9318 141.874 16.4718 141.358 17.1598 140.99C17.8478 140.614 18.6198 140.426 19.4758 140.426C20.3318 140.426 21.1038 140.614 21.7918 140.99C22.4798 141.358 23.0198 141.87 23.4118 142.526C23.8038 143.182 23.9998 143.922 23.9998 144.746C23.9998 145.57 23.8038 146.31 23.4118 146.966C23.0198 147.622 22.4798 148.138 21.7918 148.514C21.1038 148.882 20.3318 149.066 19.4758 149.066ZM19.4758 147.698C20.0358 147.698 20.5398 147.574 20.9878 147.326C21.4358 147.07 21.7878 146.718 22.0438 146.27C22.2998 145.814 22.4278 145.306 22.4278 144.746C22.4278 144.186 22.2998 143.682 22.0438 143.234C21.7878 142.778 21.4358 142.426 20.9878 142.178C20.5398 141.922 20.0358 141.794 19.4758 141.794C18.9158 141.794 18.4118 141.922 17.9638 142.178C17.5158 142.426 17.1638 142.778 16.9078 143.234C16.6518 143.682 16.5238 144.186 16.5238 144.746C16.5238 145.306 16.6518 145.814 16.9078 146.27C17.1638 146.718 17.5158 147.07 17.9638 147.326C18.4118 147.574 18.9158 147.698 19.4758 147.698ZM32.7034 147.638V148.946H26.4034V140.546H32.5354V141.854H27.9634V144.038H32.0194V145.322H27.9634V147.638H32.7034ZM42.9085 148.946L42.8965 143.378L40.1365 147.986H39.4405L36.6805 143.45V148.946H35.1925V140.546H36.4765L39.8125 146.114L43.0885 140.546H44.3725L44.3845 148.946H42.9085ZM55.3938 149.066C54.5378 149.066 53.7658 148.882 53.0778 148.514C52.3898 148.138 51.8498 147.622 51.4578 146.966C51.0658 146.302 50.8698 145.562 50.8698 144.746C50.8698 143.93 51.0658 143.194 51.4578 142.538C51.8498 141.874 52.3898 141.358 53.0778 140.99C53.7658 140.614 54.5378 140.426 55.3938 140.426C56.2498 140.426 57.0218 140.614 57.7098 140.99C58.3978 141.358 58.9378 141.87 59.3298 142.526C59.7218 143.182 59.9178 143.922 59.9178 144.746C59.9178 145.57 59.7218 146.31 59.3298 146.966C58.9378 147.622 58.3978 148.138 57.7098 148.514C57.0218 148.882 56.2498 149.066 55.3938 149.066ZM55.3938 147.698C55.9538 147.698 56.4578 147.574 56.9058 147.326C57.3538 147.07 57.7058 146.718 57.9618 146.27C58.2178 145.814 58.3458 145.306 58.3458 144.746C58.3458 144.186 58.2178 143.682 57.9618 143.234C57.7058 142.778 57.3538 142.426 56.9058 142.178C56.4578 141.922 55.9538 141.794 55.3938 141.794C54.8338 141.794 54.3298 141.922 53.8818 142.178C53.4338 142.426 53.0818 142.778 52.8258 143.234C52.5698 143.682 52.4418 144.186 52.4418 144.746C52.4418 145.306 52.5698 145.814 52.8258 146.27C53.0818 146.718 53.4338 147.07 53.8818 147.326C54.3298 147.574 54.8338 147.698 55.3938 147.698ZM67.8174 148.946L66.1014 146.486C66.0294 146.494 65.9214 146.498 65.7774 146.498H63.8814V148.946H62.3214V140.546H65.7774C66.5054 140.546 67.1374 140.666 67.6734 140.906C68.2174 141.146 68.6334 141.49 68.9214 141.938C69.2094 142.386 69.3534 142.918 69.3534 143.534C69.3534 144.166 69.1974 144.71 68.8854 145.166C68.5814 145.622 68.1414 145.962 67.5654 146.186L69.4974 148.946H67.8174ZM67.7814 143.534C67.7814 142.998 67.6054 142.586 67.2534 142.298C66.9014 142.01 66.3854 141.866 65.7054 141.866H63.8814V145.214H65.7054C66.3854 145.214 66.9014 145.07 67.2534 144.782C67.6054 144.486 67.7814 144.07 67.7814 143.534ZM71.8487 140.546H73.4087V148.946H71.8487V140.546ZM82.1667 144.65H83.6427V147.998C83.2107 148.342 82.7067 148.606 82.1307 148.79C81.5547 148.974 80.9627 149.066 80.3547 149.066C79.4987 149.066 78.7267 148.882 78.0387 148.514C77.3507 148.138 76.8107 147.622 76.4187 146.966C76.0267 146.31 75.8307 145.57 75.8307 144.746C75.8307 143.922 76.0267 143.182 76.4187 142.526C76.8107 141.87 77.3507 141.358 78.0387 140.99C78.7347 140.614 79.5147 140.426 80.3787 140.426C81.0827 140.426 81.7227 140.542 82.2987 140.774C82.8747 141.006 83.3587 141.346 83.7507 141.794L82.7667 142.754C82.1267 142.114 81.3547 141.794 80.4507 141.794C79.8587 141.794 79.3307 141.918 78.8667 142.166C78.4107 142.414 78.0507 142.762 77.7867 143.21C77.5307 143.658 77.4027 144.17 77.4027 144.746C77.4027 145.306 77.5307 145.81 77.7867 146.258C78.0507 146.706 78.4107 147.058 78.8667 147.314C79.3307 147.57 79.8547 147.698 80.4387 147.698C81.0947 147.698 81.6707 147.554 82.1667 147.266V144.65ZM86.4503 140.546H88.0103V148.946H86.4503V140.546ZM98.4963 140.546V148.946H97.2123L92.5803 143.258V148.946H91.0323V140.546H92.3163L96.9483 146.234V140.546H98.4963ZM106.945 147.002H102.745L101.917 148.946H100.309L104.089 140.546H105.625L109.417 148.946H107.785L106.945 147.002ZM106.429 145.778L104.845 142.106L103.273 145.778H106.429ZM111.235 140.546H112.795V147.626H117.187V148.946H111.235V140.546ZM128.731 148.946L127.015 146.486C126.943 146.494 126.835 146.498 126.691 146.498H124.795V148.946H123.235V140.546H126.691C127.419 140.546 128.051 140.666 128.587 140.906C129.131 141.146 129.547 141.49 129.835 141.938C130.123 142.386 130.267 142.918 130.267 143.534C130.267 144.166 130.111 144.71 129.799 145.166C129.495 145.622 129.055 145.962 128.479 146.186L130.411 148.946H128.731ZM128.695 143.534C128.695 142.998 128.519 142.586 128.167 142.298C127.815 142.01 127.299 141.866 126.619 141.866H124.795V145.214H126.619C127.299 145.214 127.815 145.07 128.167 144.782C128.519 144.486 128.695 144.07 128.695 143.534ZM139.063 147.638V148.946H132.763V140.546H138.895V141.854H134.323V144.038H138.379V145.322H134.323V147.638H139.063ZM140.849 144.986H144.149V146.234H140.849V144.986ZM154.401 148.946L154.389 143.378L151.629 147.986H150.933L148.173 143.45V148.946H146.685V140.546H147.969L151.305 146.114L154.581 140.546H155.865L155.877 148.946H154.401ZM164.344 147.002H160.144L159.316 148.946H157.708L161.488 140.546H163.024L166.816 148.946H165.184L164.344 147.002ZM163.828 145.778L162.244 142.106L160.672 145.778H163.828ZM172.09 140.546C172.818 140.546 173.45 140.666 173.986 140.906C174.53 141.146 174.946 141.49 175.234 141.938C175.522 142.386 175.666 142.918 175.666 143.534C175.666 144.142 175.522 144.674 175.234 145.13C174.946 145.578 174.53 145.922 173.986 146.162C173.45 146.402 172.818 146.522 172.09 146.522H170.194V148.946H168.634V140.546H172.09ZM172.018 145.202C172.698 145.202 173.214 145.058 173.566 144.77C173.918 144.482 174.094 144.07 174.094 143.534C174.094 142.998 173.918 142.586 173.566 142.298C173.214 142.01 172.698 141.866 172.018 141.866H170.194V145.202H172.018ZM180.695 149.066C180.047 149.066 179.419 148.974 178.811 148.79C178.211 148.606 177.735 148.362 177.383 148.058L177.923 146.846C178.267 147.118 178.687 147.342 179.183 147.518C179.687 147.686 180.191 147.77 180.695 147.77C181.319 147.77 181.783 147.67 182.087 147.47C182.399 147.27 182.555 147.006 182.555 146.678C182.555 146.438 182.467 146.242 182.291 146.09C182.123 145.93 181.907 145.806 181.643 145.718C181.379 145.63 181.019 145.53 180.563 145.418C179.923 145.266 179.403 145.114 179.003 144.962C178.611 144.81 178.271 144.574 177.983 144.254C177.703 143.926 177.563 143.486 177.563 142.934C177.563 142.47 177.687 142.05 177.935 141.674C178.191 141.29 178.571 140.986 179.075 140.762C179.587 140.538 180.211 140.426 180.947 140.426C181.459 140.426 181.963 140.49 182.459 140.618C182.955 140.746 183.383 140.93 183.743 141.17L183.251 142.382C182.883 142.166 182.499 142.002 182.099 141.89C181.699 141.778 181.311 141.722 180.935 141.722C180.319 141.722 179.859 141.826 179.555 142.034C179.259 142.242 179.111 142.518 179.111 142.862C179.111 143.102 179.195 143.298 179.363 143.45C179.539 143.602 179.759 143.722 180.023 143.81C180.287 143.898 180.647 143.998 181.103 144.11C181.727 144.254 182.239 144.406 182.639 144.566C183.039 144.718 183.379 144.954 183.659 145.274C183.947 145.594 184.091 146.026 184.091 146.57C184.091 147.034 183.963 147.454 183.707 147.83C183.459 148.206 183.079 148.506 182.567 148.73C182.055 148.954 181.431 149.066 180.695 149.066ZM74.5189 156.546L70.8589 164.946H69.3229L65.6509 156.546H67.3429L70.1389 163.026L72.9589 156.546H74.5189ZM76.1553 156.546H77.7153V164.946H76.1553V156.546ZM86.1854 163.002H81.9854L81.1574 164.946H79.5494L83.3294 156.546H84.8654L88.6574 164.946H87.0254L86.1854 163.002ZM85.6694 161.778L84.0854 158.106L82.5134 161.778H85.6694ZM98.4661 165.066C97.6101 165.066 96.8381 164.882 96.1501 164.514C95.4621 164.138 94.9221 163.622 94.5301 162.966C94.1381 162.302 93.9421 161.562 93.9421 160.746C93.9421 159.93 94.1381 159.194 94.5301 158.538C94.9221 157.874 95.4621 157.358 96.1501 156.99C96.8381 156.614 97.6101 156.426 98.4661 156.426C99.3221 156.426 100.094 156.614 100.782 156.99C101.47 157.358 102.01 157.87 102.402 158.526C102.794 159.182 102.99 159.922 102.99 160.746C102.99 161.57 102.794 162.31 102.402 162.966C102.01 163.622 101.47 164.138 100.782 164.514C100.094 164.882 99.3221 165.066 98.4661 165.066ZM98.4661 163.698C99.0261 163.698 99.5301 163.574 99.9781 163.326C100.426 163.07 100.778 162.718 101.034 162.27C101.29 161.814 101.418 161.306 101.418 160.746C101.418 160.186 101.29 159.682 101.034 159.234C100.778 158.778 100.426 158.426 99.9781 158.178C99.5301 157.922 99.0261 157.794 98.4661 157.794C97.9061 157.794 97.4021 157.922 96.9541 158.178C96.5061 158.426 96.1541 158.778 95.8981 159.234C95.6421 159.682 95.5141 160.186 95.5141 160.746C95.5141 161.306 95.6421 161.814 95.8981 162.27C96.1541 162.718 96.5061 163.07 96.9541 163.326C97.4021 163.574 97.9061 163.698 98.4661 163.698ZM111.346 160.578C111.81 160.73 112.178 160.986 112.45 161.346C112.722 161.698 112.858 162.138 112.858 162.666C112.858 163.394 112.578 163.958 112.018 164.358C111.458 164.75 110.642 164.946 109.57 164.946H105.394V156.546H109.33C110.322 156.546 111.086 156.742 111.622 157.134C112.158 157.518 112.426 158.05 112.426 158.73C112.426 159.146 112.33 159.514 112.138 159.834C111.946 160.154 111.682 160.402 111.346 160.578ZM106.954 157.77V160.086H109.162C109.706 160.086 110.122 159.99 110.41 159.798C110.706 159.598 110.854 159.31 110.854 158.934C110.854 158.55 110.706 158.262 110.41 158.07C110.122 157.87 109.706 157.77 109.162 157.77H106.954ZM109.474 163.722C110.682 163.722 111.286 163.318 111.286 162.51C111.286 161.702 110.682 161.298 109.474 161.298H106.954V163.722H109.474ZM115.273 156.546H118.945C119.841 156.546 120.637 156.722 121.333 157.074C122.029 157.418 122.569 157.91 122.953 158.55C123.337 159.182 123.529 159.914 123.529 160.746C123.529 161.578 123.337 162.314 122.953 162.954C122.569 163.586 122.029 164.078 121.333 164.43C120.637 164.774 119.841 164.946 118.945 164.946H115.273V156.546ZM118.873 163.626C119.489 163.626 120.029 163.51 120.493 163.278C120.965 163.038 121.325 162.702 121.573 162.27C121.829 161.83 121.957 161.322 121.957 160.746C121.957 160.17 121.829 159.666 121.573 159.234C121.325 158.794 120.965 158.458 120.493 158.226C120.029 157.986 119.489 157.866 118.873 157.866H116.833V163.626H118.873ZM130.003 156.546H131.563V164.946H130.003V156.546ZM134.585 156.546H136.145V164.946H134.585V156.546Z" fill="white" fill-opacity="0.87"/>
<defs>
<filter id="filter0_d" x="0" y="0" width="208" height="261" filterUnits="userSpaceOnUse" color-interpolation-filters="sRGB">
<feFlood flood-opacity="0" result="BackgroundImageFix"/>
<feColorMatrix in="SourceAlpha" type="matrix" values="0 0 0 0 0 0 0 0 0 0 0 0 0 0 0 0 0 0 127 0"/>
<feOffset dx="4" dy="4"/>
<feGaussianBlur stdDeviation="2"/>
<feColorMatrix type="matrix" values="0 0 0 0 0 0 0 0 0 0 0 0 0 0 0 0 0 0 0.25 0"/>
<feBlend mode="normal" in2="BackgroundImageFix" result="effect1_dropShadow"/>
<feBlend mode="normal" in="SourceGraphic" in2="effect1_dropShadow" result="shape"/>
</filter>
</defs>
</svg>
