<svg width="208" height="261" viewBox="0 0 208 261" fill="none" xmlns="http://www.w3.org/2000/svg">
<g filter="url(#filter0_d)">
<rect width="200" height="253" rx="8" fill="white" fill-opacity="0.08"/>
</g>
<path d="M87.1905 56.9301C78.1098 56.9301 70.7218 64.3167 70.7218 73.3957C70.7218 82.4747 78.1098 89.8598 87.1905 89.8598C96.2696 89.8598 103.658 82.4747 103.658 73.3957C103.658 64.3167 96.2696 56.9301 87.1905 56.9301ZM87.1905 91.6746C77.1091 91.6746 68.9082 83.4736 68.9082 73.3957C68.9082 63.3162 77.1091 55.1152 87.1905 55.1152C97.2702 55.1152 105.471 63.3162 105.471 73.3957C105.471 83.4736 97.2702 91.6746 87.1905 91.6746Z" fill="white"/>
<path d="M68.4499 73.3963H66.6347C66.6347 62.0507 75.8666 52.8206 87.2158 52.8206V54.6354C76.8688 54.6354 68.4499 63.0511 68.4499 73.3963Z" fill="#FF0000"/>
<path d="M73.9234 76.4833L74.5273 78.1931L70.5867 79.5845L69.9827 77.8748L73.9234 76.4833Z" fill="white"/>
<path d="M73.8327 71.8106L74.1309 73.604L69.9705 74.2954L69.6724 72.502L73.8327 71.8106Z" fill="white"/>
<path d="M86.2971 56.0351L88.1123 56.0383L88.1034 61.1345L86.2882 61.1313L86.2971 56.0351Z" fill="white"/>
<path d="M72.3712 64.5304L75.8457 66.6147L74.9118 68.171L71.4373 66.0866L72.3712 64.5304Z" fill="white"/>
<path d="M76.2707 59.1319L79.5127 62.6055L78.1856 63.8436L74.9436 60.37L76.2707 59.1319Z" fill="white"/>
<path d="M82.4946 56.7157L83.6543 60.6538L81.913 61.1664L80.7533 57.2283L82.4946 56.7157Z" fill="white"/>
<path d="M117.266 66.9153C117.266 67.3559 117.152 67.6709 116.923 67.8538C116.72 68.0128 116.394 68.094 115.944 68.094H113.935C113.054 68.094 112.614 67.7138 112.618 66.9535H113.311C113.311 67.305 113.559 67.48 114.054 67.48H115.79C116.03 67.48 116.21 67.4498 116.328 67.3846C116.485 67.2955 116.563 67.1412 116.563 66.9153C116.563 66.6593 116.428 66.4843 116.156 66.3936C115.992 66.3364 115.75 66.3077 115.43 66.3077C115.3 66.3077 115.106 66.3125 114.85 66.3221C114.595 66.3316 114.403 66.3364 114.272 66.3364C113.765 66.3364 113.384 66.2743 113.127 66.1487C112.774 65.9674 112.594 65.6524 112.594 65.1975C112.594 64.7856 112.718 64.4913 112.963 64.31C113.171 64.1589 113.493 64.0825 113.922 64.0825H115.836C116.778 64.0825 117.249 64.4595 117.249 65.215H116.528C116.528 64.8635 116.277 64.6885 115.774 64.6885H113.97C113.553 64.6885 113.346 64.8619 113.346 65.2086C113.346 65.5713 113.723 65.7542 114.485 65.7542C114.601 65.7542 114.78 65.7463 115.013 65.7335C115.247 65.7192 115.425 65.7129 115.543 65.7129C116.062 65.7129 116.455 65.7828 116.722 65.9244C117.085 66.1153 117.266 66.4445 117.266 66.9153Z" fill="white"/>
<path d="M120.55 64.7458H118.519V65.9594H120.563C120.799 65.9594 120.969 65.9244 121.071 65.856C121.201 65.7685 121.265 65.6127 121.265 65.3868C121.265 65.1275 121.214 64.9557 121.109 64.8714C121.002 64.7871 120.818 64.7458 120.55 64.7458ZM120.493 66.629H118.519V68.094H117.843V64.0825H120.55C121.08 64.0825 121.445 64.1811 121.643 64.3768C121.842 64.574 121.941 64.9351 121.941 65.46C121.941 65.9308 121.807 66.2521 121.54 66.4286C121.335 66.5638 120.985 66.629 120.493 66.629Z" fill="white"/>
<path d="M126.467 65.7217C126.461 65.3479 126.453 65.1444 126.445 65.1094C126.412 64.9105 126.275 64.7833 126.035 64.726C125.877 64.6879 125.573 64.6688 125.117 64.6688H124.299C123.753 64.6688 123.4 64.7197 123.239 64.8231C123.041 64.9535 122.94 65.2525 122.936 65.7217H126.467ZM127.115 66.9003C127.115 67.4109 126.949 67.7449 126.617 67.9024C126.369 68.0233 125.874 68.0853 125.134 68.0853H124.246C123.686 68.0853 123.278 68.0376 123.023 67.9422C122.743 67.8388 122.551 67.6479 122.444 67.3696C122.349 67.1135 122.301 66.7063 122.301 66.1464C122.301 65.5436 122.342 65.1109 122.426 64.8517C122.524 64.5463 122.708 64.3363 122.983 64.2218C123.246 64.1105 123.671 64.0564 124.258 64.0564H125.145C125.798 64.0564 126.281 64.1423 126.595 64.3125C126.889 64.4747 127.053 64.7228 127.092 65.0632C127.099 65.1316 127.107 65.3511 127.115 65.7217V66.3055H122.936C122.932 66.8383 123.028 67.1771 123.222 67.3187C123.375 67.4284 123.728 67.4841 124.281 67.4841H125.123C125.627 67.4841 125.953 67.4618 126.103 67.4141C126.346 67.3441 126.466 67.1707 126.462 66.9003H127.115Z" fill="white"/>
<path d="M131.665 65.7217C131.657 65.3479 131.65 65.1444 131.642 65.1094C131.607 64.9105 131.47 64.7833 131.23 64.726C131.074 64.6879 130.769 64.6688 130.312 64.6688H129.496C128.949 64.6688 128.597 64.7197 128.437 64.8231C128.238 64.9535 128.138 65.2525 128.133 65.7217H131.665ZM132.312 66.9003C132.312 67.4109 132.147 67.7449 131.814 67.9024C131.566 68.0233 131.071 68.0853 130.331 68.0853H129.444C128.882 68.0853 128.475 68.0376 128.22 67.9422C127.94 67.8388 127.748 67.6479 127.641 67.3696C127.546 67.1135 127.498 66.7063 127.498 66.1464C127.498 65.5436 127.539 65.1109 127.624 64.8517C127.721 64.5463 127.905 64.3363 128.181 64.2218C128.443 64.1105 128.868 64.0564 129.455 64.0564H130.343C130.995 64.0564 131.478 64.1423 131.792 64.3125C132.085 64.4747 132.25 64.7228 132.29 65.0632C132.296 65.1316 132.302 65.3511 132.312 65.7217V66.3055H128.133C128.13 66.8383 128.225 67.1771 128.419 67.3187C128.572 67.4284 128.925 67.4841 129.479 67.4841H130.319C130.825 67.4841 131.151 67.4618 131.3 67.4141C131.544 67.3441 131.663 67.1707 131.66 66.9003H132.312Z" fill="white"/>
<path d="M136.715 66.3316V65.829C136.715 65.3804 136.638 65.0798 136.487 64.9223C136.338 64.7681 136.039 64.6885 135.592 64.6885H133.594V67.4879H135.643C136.101 67.4879 136.398 67.4068 136.537 67.2462C136.656 67.1046 136.715 66.8008 136.715 66.3316ZM137.396 66.3555C137.396 67.0267 137.288 67.48 137.074 67.7154C136.842 67.9715 136.395 68.0987 135.735 68.0987H132.906V64.0825H135.636C136.199 64.0825 136.61 64.1684 136.869 64.3402C137.105 64.4929 137.259 64.7458 137.327 65.1021C137.372 65.3295 137.396 65.7479 137.396 66.3555Z" fill="white"/>
<path d="M116.02 75.3471H112.619V71.3357H113.3V74.7348H116.02V75.3471Z" fill="white"/>
<path d="M116.421 71.3357H117.104V75.3471H116.421V71.3357Z" fill="white"/>
<path d="M124.763 73.2826C124.763 72.3823 124.315 71.9306 123.413 71.9306C122.834 71.9306 122.436 72.0658 122.223 72.3378C122.035 72.5748 121.943 72.9931 121.943 73.5959V75.3487H121.306V73.5514C121.306 72.9978 121.23 72.605 121.079 72.3727C120.886 72.0769 120.533 71.9306 120.013 71.9306C119.483 71.9306 119.106 72.0228 118.887 72.2057C118.637 72.4077 118.513 72.7672 118.513 73.2826L118.508 75.3487H117.896V73.2937C117.896 71.9894 118.521 71.3357 119.773 71.3357C120.264 71.3357 120.619 71.3691 120.831 71.4343C121.182 71.5361 121.448 71.7572 121.628 72.0976C121.906 71.5902 122.396 71.3357 123.098 71.3357C123.591 71.3357 123.914 71.3468 124.066 71.3707C124.943 71.5202 125.384 72.1596 125.384 73.2937V75.3487H124.77L124.763 73.2826Z" fill="white"/>
<path d="M126.236 71.3357H126.917V75.3471H126.236V71.3357Z" fill="white"/>
<path d="M129.934 71.9481V73.9172C129.934 74.2226 130.012 74.4389 130.168 74.5693C130.295 74.6727 130.488 74.7316 130.747 74.7475V75.3487H130.701C130.169 75.3487 129.796 75.231 129.576 75.002C129.358 74.7697 129.247 74.388 129.247 73.8536V71.9481H127.444V71.3357H131.983V71.9433L129.934 71.9481Z" fill="white"/>
<path d="M115.778 79.2496H113.436V80.3535H115.778C116.217 80.3535 116.436 80.1626 116.436 79.7825C116.436 79.4262 116.217 79.2496 115.778 79.2496ZM117.227 82.5755H116.551V81.8423C116.551 81.556 116.492 81.3492 116.376 81.2235C116.26 81.0979 116.059 81.0358 115.773 81.0358L113.436 81.0406V82.5755H112.777V78.5625H115.714C116.201 78.5625 116.548 78.6563 116.762 78.8424C116.988 79.046 117.101 79.3848 117.101 79.862C117.101 80.2962 116.979 80.573 116.734 80.6907C117.063 80.7798 117.227 81.0724 117.227 81.5735V82.5755Z" fill="white"/>
<path d="M122.088 80.2278C122.082 79.854 122.074 79.6505 122.066 79.6155C122.033 79.4166 121.896 79.2894 121.654 79.2321C121.498 79.194 121.194 79.1749 120.738 79.1749H119.92C119.374 79.1749 119.021 79.2258 118.86 79.3292C118.662 79.4596 118.561 79.7586 118.557 80.2278H122.088ZM122.736 81.4065C122.736 81.917 122.57 82.251 122.238 82.4085C121.99 82.5294 121.495 82.5914 120.755 82.5914H119.868C119.308 82.5914 118.899 82.5437 118.644 82.4483C118.364 82.3449 118.172 82.154 118.065 81.8757C117.97 81.6196 117.922 81.2124 117.922 80.6525C117.922 80.0497 117.963 79.6171 118.048 79.3578C118.145 79.0524 118.329 78.8424 118.604 78.7295C118.867 78.6166 119.292 78.5625 119.879 78.5625H120.766C121.419 78.5625 121.902 78.6484 122.216 78.8186C122.51 78.9808 122.674 79.2305 122.714 79.5693C122.72 79.6377 122.728 79.8588 122.736 80.2278V80.8116H118.557C118.553 81.346 118.649 81.6832 118.843 81.8248C118.996 81.9345 119.349 81.9902 119.903 81.9902H120.744C121.248 81.9902 121.575 81.9679 121.724 81.9202C121.967 81.8502 122.087 81.6768 122.084 81.4065H122.736Z" fill="white"/>
<path d="M130.198 80.5094C130.198 79.6091 129.748 79.1574 128.847 79.1574C128.268 79.1574 127.87 79.2926 127.657 79.563C127.47 79.8016 127.377 80.2199 127.377 80.8227V82.5755H126.741V80.7782C126.741 80.2247 126.665 79.8318 126.513 79.5996C126.321 79.3037 125.966 79.1574 125.448 79.1574C124.918 79.1574 124.539 79.2496 124.321 79.4325C124.071 79.6345 123.947 79.994 123.947 80.5094L123.943 82.5755H123.33V80.5205C123.33 79.2162 123.955 78.5625 125.207 78.5625C125.699 78.5625 126.054 78.5959 126.265 78.6595C126.617 78.7629 126.882 78.984 127.061 79.3244C127.341 78.817 127.831 78.5625 128.532 78.5625C129.025 78.5625 129.348 78.5736 129.501 78.5975C130.378 78.747 130.817 79.3864 130.817 80.5205V82.5755H130.204L130.198 80.5094Z" fill="white"/>
<path d="M135.593 80.7941V80.4107C135.593 80.0306 135.555 79.757 135.479 79.5948C135.402 79.4341 135.262 79.3292 135.06 79.283C134.919 79.248 134.648 79.2321 134.247 79.2321H133.582C133.03 79.2321 132.68 79.2894 132.536 79.4039C132.361 79.5455 132.272 79.8827 132.272 80.4171V80.8004C132.272 81.319 132.362 81.6466 132.54 81.7834C132.684 81.8868 133.024 81.9393 133.567 81.9393H134.259C134.652 81.9393 134.917 81.9234 135.054 81.8932C135.256 81.8502 135.396 81.7516 135.476 81.5925C135.554 81.4335 135.593 81.1679 135.593 80.7941ZM136.279 80.8179C136.279 81.3524 136.217 81.7437 136.09 81.9934C135.964 82.2431 135.752 82.4101 135.45 82.4928C135.21 82.5612 134.815 82.5978 134.27 82.5978H133.532C132.972 82.5978 132.563 82.5501 132.307 82.4546C132.025 82.3513 131.833 82.1588 131.729 81.882C131.634 81.6228 131.586 81.2124 131.586 80.6509C131.586 80.0561 131.626 79.6298 131.707 79.3689C131.801 79.0635 131.987 78.852 132.265 78.7343C132.529 78.6198 132.956 78.5625 133.544 78.5625H134.276C134.904 78.5625 135.359 78.6277 135.635 78.7566C135.912 78.887 136.091 79.1192 136.176 79.4548C136.246 79.7061 136.279 80.161 136.279 80.8179Z" fill="white"/>
<path d="M141.581 78.5625L139.56 82.5739H138.512L136.493 78.5625H137.277L139.012 82.0013L139.082 81.9616L140.798 78.5625H141.581Z" fill="white"/>
<path d="M145.962 80.2278C145.954 79.854 145.946 79.6505 145.94 79.6155C145.905 79.4166 145.768 79.2894 145.528 79.2321C145.371 79.194 145.067 79.1749 144.61 79.1749H143.792C143.247 79.1749 142.894 79.2258 142.735 79.3292C142.536 79.4596 142.434 79.7586 142.431 80.2278H145.962ZM146.608 81.4065C146.608 81.917 146.444 82.251 146.11 82.4085C145.864 82.5294 145.369 82.5914 144.629 82.5914H143.742C143.18 82.5914 142.771 82.5437 142.517 82.4483C142.237 82.3449 142.044 82.154 141.939 81.8757C141.842 81.6196 141.796 81.2124 141.796 80.6525C141.796 80.0497 141.836 79.6171 141.922 79.3578C142.017 79.0524 142.202 78.8424 142.477 78.7295C142.739 78.6166 143.166 78.5625 143.753 78.5625H144.64C145.293 78.5625 145.776 78.6484 146.088 78.8186C146.382 78.9808 146.548 79.2305 146.588 79.5693C146.592 79.6377 146.6 79.8588 146.608 80.2278V80.8116H142.431C142.426 81.346 142.521 81.6832 142.717 81.8248C142.87 81.9345 143.221 81.9902 143.775 81.9902H144.617C145.121 81.9902 145.447 81.9679 145.596 81.9202C145.841 81.8502 145.961 81.6768 145.956 81.4065H146.608Z" fill="white"/>
<path d="M149.803 79.1574H148.967C148.657 79.1574 148.399 79.2512 148.193 79.4341C147.987 79.6202 147.886 79.862 147.886 80.1642V82.5739H147.203V78.5625H147.886V79.089C148.127 78.7375 148.489 78.5625 148.967 78.5625H149.803C150.253 78.5625 150.616 78.6579 150.891 78.8488C151.196 79.0651 151.355 79.3785 151.371 79.7872H150.69C150.639 79.3673 150.345 79.1574 149.803 79.1574Z" fill="white"/>
<path d="M22.732 145.406C22.084 145.406 21.456 145.314 20.848 145.13C20.248 144.946 19.772 144.702 19.42 144.398L19.96 143.186C20.304 143.458 20.724 143.682 21.22 143.858C21.724 144.026 22.228 144.11 22.732 144.11C23.356 144.11 23.82 144.01 24.124 143.81C24.436 143.61 24.592 143.346 24.592 143.018C24.592 142.778 24.504 142.582 24.328 142.43C24.16 142.27 23.944 142.146 23.68 142.058C23.416 141.97 23.056 141.87 22.6 141.758C21.96 141.606 21.44 141.454 21.04 141.302C20.648 141.15 20.308 140.914 20.02 140.594C19.74 140.266 19.6 139.826 19.6 139.274C19.6 138.81 19.724 138.39 19.972 138.014C20.228 137.63 20.608 137.326 21.112 137.102C21.624 136.878 22.248 136.766 22.984 136.766C23.496 136.766 24 136.83 24.496 136.958C24.992 137.086 25.42 137.27 25.78 137.51L25.288 138.722C24.92 138.506 24.536 138.342 24.136 138.23C23.736 138.118 23.348 138.062 22.972 138.062C22.356 138.062 21.896 138.166 21.592 138.374C21.296 138.582 21.148 138.858 21.148 139.202C21.148 139.442 21.232 139.638 21.4 139.79C21.576 139.942 21.796 140.062 22.06 140.15C22.324 140.238 22.684 140.338 23.14 140.45C23.764 140.594 24.276 140.746 24.676 140.906C25.076 141.058 25.416 141.294 25.696 141.614C25.984 141.934 26.128 142.366 26.128 142.91C26.128 143.374 26 143.794 25.744 144.17C25.496 144.546 25.116 144.846 24.604 145.07C24.092 145.294 23.468 145.406 22.732 145.406ZM31.8809 136.886C32.6089 136.886 33.2409 137.006 33.7769 137.246C34.3209 137.486 34.7369 137.83 35.0249 138.278C35.3129 138.726 35.4569 139.258 35.4569 139.874C35.4569 140.482 35.3129 141.014 35.0249 141.47C34.7369 141.918 34.3209 142.262 33.7769 142.502C33.2409 142.742 32.6089 142.862 31.8809 142.862H29.9849V145.286H28.4249V136.886H31.8809ZM31.8089 141.542C32.4889 141.542 33.0049 141.398 33.3569 141.11C33.7089 140.822 33.8849 140.41 33.8849 139.874C33.8849 139.338 33.7089 138.926 33.3569 138.638C33.0049 138.35 32.4889 138.206 31.8089 138.206H29.9849V141.542H31.8089ZM44.0647 143.978V145.286H37.7647V136.886H43.8967V138.194H39.3247V140.378H43.3807V141.662H39.3247V143.978H44.0647ZM52.8538 143.978V145.286H46.5538V136.886H52.6858V138.194H48.1138V140.378H52.1698V141.662H48.1138V143.978H52.8538ZM55.3428 136.886H59.0148C59.9108 136.886 60.7068 137.062 61.4028 137.414C62.0988 137.758 62.6388 138.25 63.0228 138.89C63.4068 139.522 63.5988 140.254 63.5988 141.086C63.5988 141.918 63.4068 142.654 63.0228 143.294C62.6388 143.926 62.0988 144.418 61.4028 144.77C60.7068 145.114 59.9108 145.286 59.0148 145.286H55.3428V136.886ZM58.9428 143.966C59.5588 143.966 60.0988 143.85 60.5628 143.618C61.0348 143.378 61.3948 143.042 61.6428 142.61C61.8988 142.17 62.0268 141.662 62.0268 141.086C62.0268 140.51 61.8988 140.006 61.6428 139.574C61.3948 139.134 61.0348 138.798 60.5628 138.566C60.0988 138.326 59.5588 138.206 58.9428 138.206H56.9028V143.966H58.9428ZM70.0733 136.886H71.6333V143.966H76.0253V145.286H70.0733V136.886ZM78.0069 136.886H79.5669V145.286H78.0069V136.886ZM90.3049 145.286L90.2929 139.718L87.5329 144.326H86.8369L84.0769 139.79V145.286H82.5889V136.886H83.8729L87.2089 142.454L90.4849 136.886H91.7689L91.7809 145.286H90.3049ZM94.7999 136.886H96.3599V145.286H94.7999V136.886ZM101.086 138.206H98.3019V136.886H105.43V138.206H102.646V145.286H101.086V138.206ZM116.913 145.286L115.197 142.826C115.125 142.834 115.017 142.838 114.873 142.838H112.977V145.286H111.417V136.886H114.873C115.601 136.886 116.233 137.006 116.769 137.246C117.313 137.486 117.729 137.83 118.017 138.278C118.305 138.726 118.449 139.258 118.449 139.874C118.449 140.506 118.293 141.05 117.981 141.506C117.677 141.962 117.237 142.302 116.661 142.526L118.593 145.286H116.913ZM116.877 139.874C116.877 139.338 116.701 138.926 116.349 138.638C115.997 138.35 115.481 138.206 114.801 138.206H112.977V141.554H114.801C115.481 141.554 115.997 141.41 116.349 141.122C116.701 140.826 116.877 140.41 116.877 139.874ZM127.244 143.978V145.286H120.944V136.886H127.076V138.194H122.504V140.378H126.56V141.662H122.504V143.978H127.244ZM137.449 145.286L137.437 139.718L134.677 144.326H133.981L131.221 139.79V145.286H129.733V136.886H131.017L134.353 142.454L137.629 136.886H138.913L138.925 145.286H137.449ZM145.868 145.406C145.012 145.406 144.24 145.222 143.552 144.854C142.864 144.478 142.324 143.962 141.932 143.306C141.54 142.642 141.344 141.902 141.344 141.086C141.344 140.27 141.54 139.534 141.932 138.878C142.324 138.214 142.864 137.698 143.552 137.33C144.24 136.954 145.012 136.766 145.868 136.766C146.724 136.766 147.496 136.954 148.184 137.33C148.872 137.698 149.412 138.21 149.804 138.866C150.196 139.522 150.392 140.262 150.392 141.086C150.392 141.91 150.196 142.65 149.804 143.306C149.412 143.962 148.872 144.478 148.184 144.854C147.496 145.222 146.724 145.406 145.868 145.406ZM145.868 144.038C146.428 144.038 146.932 143.914 147.38 143.666C147.828 143.41 148.18 143.058 148.436 142.61C148.692 142.154 148.82 141.646 148.82 141.086C148.82 140.526 148.692 140.022 148.436 139.574C148.18 139.118 147.828 138.766 147.38 138.518C146.932 138.262 146.428 138.134 145.868 138.134C145.308 138.134 144.804 138.262 144.356 138.518C143.908 138.766 143.556 139.118 143.3 139.574C143.044 140.022 142.916 140.526 142.916 141.086C142.916 141.646 143.044 142.154 143.3 142.61C143.556 143.058 143.908 143.41 144.356 143.666C144.804 143.914 145.308 144.038 145.868 144.038ZM160.206 136.886L156.546 145.286H155.01L151.338 136.886H153.03L155.826 143.366L158.646 136.886H160.206ZM168.143 143.978V145.286H161.843V136.886H167.975V138.194H163.403V140.378H167.459V141.662H163.403V143.978H168.143ZM176.128 145.286L174.412 142.826C174.34 142.834 174.232 142.838 174.088 142.838H172.192V145.286H170.632V136.886H174.088C174.816 136.886 175.448 137.006 175.984 137.246C176.528 137.486 176.944 137.83 177.232 138.278C177.52 138.726 177.664 139.258 177.664 139.874C177.664 140.506 177.508 141.05 177.196 141.506C176.892 141.962 176.452 142.302 175.876 142.526L177.808 145.286H176.128ZM176.092 139.874C176.092 139.338 175.916 138.926 175.564 138.638C175.212 138.35 174.696 138.206 174.016 138.206H172.192V141.554H174.016C174.696 141.554 175.212 141.41 175.564 141.122C175.916 140.826 176.092 140.41 176.092 139.874Z" fill="white" fill-opacity="0.87"/>
<defs>
<filter id="filter0_d" x="0" y="0" width="208" height="261" filterUnits="userSpaceOnUse" color-interpolation-filters="sRGB">
<feFlood flood-opacity="0" result="BackgroundImageFix"/>
<feColorMatrix in="SourceAlpha" type="matrix" values="0 0 0 0 0 0 0 0 0 0 0 0 0 0 0 0 0 0 127 0"/>
<feOffset dx="4" dy="4"/>
<feGaussianBlur stdDeviation="2"/>
<feColorMatrix type="matrix" values="0 0 0 0 0 0 0 0 0 0 0 0 0 0 0 0 0 0 0.25 0"/>
<feBlend mode="normal" in2="BackgroundImageFix" result="effect1_dropShadow"/>
<feBlend mode="normal" in="SourceGraphic" in2="effect1_dropShadow" result="shape"/>
</filter>
</defs>
</svg>
