<svg width="208" height="261" viewBox="0 0 208 261" fill="none" xmlns="http://www.w3.org/2000/svg">
<g filter="url(#filter0_d)">
<rect width="200" height="253" rx="8" fill="white" fill-opacity="0.08"/>
</g>
<path d="M100.612 87.9322L100.626 88.8088C100.634 89.4924 100.368 89.7076 99.9354 89.8364L99.9288 89.8386C99.6713 89.9163 98.9012 90.0494 96.6354 90.0494H93.5817C91.0517 90.0494 90.3948 89.7143 90.2528 89.6122C90.073 89.4813 89.6913 89.0286 89.5937 87.5039H99.4294V83.6579H89.6225C89.7446 82.5217 90.0708 82.1266 90.2772 81.9913C90.4747 81.8648 91.1982 81.5696 93.646 81.5696H96.611C98.8369 81.5696 99.6247 81.7028 99.8844 81.7782C100.408 81.9424 100.603 82.2088 100.603 82.7591V83.6224H103.928C103.872 84.3592 103.841 85.1981 103.841 86.1812C103.841 86.8182 103.872 87.3885 103.915 87.9322H100.612ZM112.121 88.2918H118.227C118.136 89.2705 117.907 89.5301 117.865 89.5656C117.825 89.6011 117.41 89.9029 115.557 89.9029H111.24C109.682 89.9029 109.043 89.6832 108.799 89.5523C108.593 89.4391 108.3 89.2127 108.167 88.5669C108.109 88.2718 108.04 87.5572 108.04 85.8284C108.04 83.274 108.36 82.5106 108.497 82.302C108.859 81.756 109.929 81.4364 111.502 81.4032C112.494 81.3898 113.118 81.3832 113.373 81.3832L115.828 81.4032C116.56 81.4032 117.161 81.5186 117.61 81.7405C118.222 82.0601 118.304 82.444 118.304 82.7791V83.6446H122.559L122.565 82.788C122.585 80.1648 121.258 78.9398 120.142 78.3761C119.079 77.839 117.541 77.5771 115.435 77.5771H111.407C109.239 77.5771 107.658 77.8546 106.575 78.4249C105.528 78.9753 104.807 79.8719 104.389 81.0614C104.085 80.1493 103.544 79.3969 102.709 78.8621C101.436 78.0254 99.4738 77.6193 96.7175 77.6193H93.5018C91.2337 77.6193 89.6114 77.839 88.5417 78.2873C87.3012 78.8044 86.4601 79.7542 86.0406 81.1013C85.7011 82.1377 85.5391 83.76 85.5391 86.0592C85.5391 88.2163 85.7277 89.7676 86.1161 90.8062C86.5954 92.0534 87.4698 92.9234 88.717 93.385C89.7512 93.7689 91.3047 93.9575 93.4596 93.9575H96.6775C99.5204 93.9575 101.402 93.7112 102.419 93.2096C103.184 92.8501 104.05 92.1244 104.465 90.7019C104.674 91.2678 104.913 91.7716 105.228 92.1377C106.269 93.3606 108.209 93.9575 111.158 93.9575H115.621C118.331 93.9575 120.148 93.4183 121.174 92.3086C122.124 91.2744 122.585 89.448 122.585 86.7227V84.4058H112.121V88.2918Z" fill="white"/>
<path d="M135.872 83.0077C135.872 83.6468 135.755 84.2194 134.35 84.2194H126.729V81.9425H134.35C135.872 81.9425 135.872 82.5838 135.872 83.0077ZM139.295 86.1435C139.769 85.4578 140.007 84.5057 140.007 83.2984C140.007 81.3211 139.501 79.8608 138.489 78.9531C137.541 78.1253 136.112 77.7236 134.124 77.7236H122.612V93.9997H126.729V88.436L134.33 88.4183C135.089 88.4183 135.642 88.5603 135.886 88.8244C136.068 89.0219 136.287 89.4724 136.287 90.4777V93.9997H140.464V89.5035C140.464 87.7569 139.951 86.7361 139.295 86.1435Z" fill="white"/>
<path d="M76.0444 100.76C74.8349 102.218 72.467 101.386 72.4337 99.4931L72.0875 79.1758L74.0715 78.5144L78.0063 93.712C78.5877 95.9512 78.0551 98.3325 76.5793 100.112L76.0444 100.76ZM82.4381 94.8571L79.6507 77.336C79.5953 77.1163 79.5398 76.8966 79.4865 76.6769C80.4031 75.6738 80.8536 74.2601 80.4941 72.8021L76.4195 56.3729C75.8225 53.9605 73.6299 52.2872 71.1465 52.3493L52.9552 52.7976C50.372 52.8598 48.2171 54.7972 47.882 57.3582L45.8669 72.6622C45.4896 75.5273 47.72 78.0728 50.6117 78.0728C50.6472 78.0728 50.6738 78.1017 50.6738 78.1349V104.584C50.6738 108.474 53.8252 111.626 57.7155 111.626H65.463V112.059C65.463 113.159 66.3574 114.054 67.4603 114.054H69.9814C71.5571 114.054 73.0129 113.213 73.7963 111.846L81.9077 97.7444C82.4071 96.87 82.5957 95.8513 82.4381 94.8571Z" fill="white"/>
<path d="M92.2938 101.59V101.142C92.2938 100.701 92.2472 100.383 92.1562 100.195C92.0697 100.006 91.9076 99.8838 91.6724 99.8328C91.5082 99.7906 91.193 99.7707 90.727 99.7707H89.9547C89.3089 99.7707 88.905 99.8372 88.7341 99.9704C88.5321 100.135 88.4301 100.527 88.4301 101.151V101.595C88.4301 102.201 88.5321 102.582 88.7408 102.742C88.9072 102.862 89.3022 102.922 89.9347 102.922H90.7403C91.1997 102.922 91.5082 102.904 91.6657 102.869C91.901 102.82 92.063 102.702 92.1562 102.518C92.2472 102.334 92.2938 102.025 92.2938 101.59ZM93.0927 101.617C93.0927 102.238 93.0195 102.696 92.8708 102.986C92.7243 103.277 92.4758 103.47 92.1251 103.568C91.8477 103.648 91.3883 103.688 90.7536 103.688H89.8948C89.2401 103.688 88.7652 103.632 88.4678 103.521C88.1393 103.401 87.9152 103.179 87.7954 102.855C87.6844 102.554 87.6289 102.076 87.6289 101.422C87.6289 100.729 87.6755 100.232 87.7687 99.9304C87.8797 99.5754 88.0972 99.329 88.4212 99.1914C88.7297 99.0583 89.2223 98.9917 89.9081 98.9917H90.7603C91.4926 98.9917 92.0186 99.0672 92.3426 99.2181C92.6644 99.369 92.8752 99.6397 92.9729 100.03C93.0528 100.323 93.0927 100.851 93.0927 101.617Z" fill="white"/>
<path d="M94.4254 100.945H97.7165V101.617H94.4254V103.69H93.6797L93.6863 101.264C93.6863 100.621 93.7374 100.155 93.8395 99.8661C93.9549 99.5376 94.1768 99.3091 94.4986 99.1803C94.8049 99.0538 95.2931 98.9917 95.9589 98.9917H96.8244C97.6633 98.9917 98.2425 99.096 98.5554 99.298C98.8594 99.4955 99.0414 99.8661 99.1036 100.412H98.3512C98.278 100.101 98.1182 99.9016 97.8719 99.8128C97.6943 99.7485 97.3348 99.7174 96.7911 99.7174H96.0055C95.3752 99.7174 94.9691 99.7795 94.7915 99.8972C94.5652 100.046 94.4453 100.394 94.4254 100.945Z" fill="white"/>
<path d="M99.7767 100.945H103.068V101.617H99.7767V103.69H99.0332L99.0376 101.264C99.0376 100.621 99.0887 100.155 99.1908 99.8661C99.3084 99.5376 99.5281 99.3091 99.8521 99.1803C100.158 99.0538 100.644 98.9917 101.31 98.9917H102.176C103.017 98.9917 103.594 99.096 103.907 99.298C104.211 99.4955 104.393 99.8661 104.455 100.412H103.703C103.629 100.101 103.47 99.9016 103.223 99.8128C103.046 99.7485 102.686 99.7174 102.142 99.7174H101.357C100.727 99.7174 100.32 99.7795 100.143 99.8972C99.9165 100.046 99.7966 100.394 99.7767 100.945Z" fill="white"/>
<path d="M109.12 98.7102L107.642 104.207L107.01 104.208L108.495 98.7099L109.12 98.7102Z" fill="white"/>
<path d="M116.74 101.61V101.025C116.74 100.505 116.652 100.155 116.476 99.9726C116.301 99.7906 115.955 99.6996 115.436 99.6996H113.11V102.955H115.493C116.028 102.955 116.374 102.862 116.534 102.676C116.672 102.514 116.74 102.159 116.74 101.61ZM117.531 101.637C117.531 102.418 117.408 102.949 117.16 103.224C116.887 103.521 116.368 103.67 115.6 103.67H112.309V98.9917H115.489C116.139 98.9917 116.618 99.0916 116.918 99.2935C117.195 99.4688 117.373 99.764 117.453 100.177C117.508 100.445 117.531 100.931 117.531 101.637Z" fill="white"/>
<path d="M122.005 101.61H118.827L118.832 100.931H122.005V101.61ZM123.705 102.303C123.705 102.9 123.512 103.286 123.124 103.47C122.835 103.61 122.26 103.683 121.399 103.683H120.367C119.713 103.683 119.238 103.626 118.94 103.515C118.619 103.397 118.392 103.175 118.266 102.851C118.157 102.551 118.102 102.076 118.102 101.424C118.102 100.723 118.15 100.221 118.248 99.9171C118.359 99.562 118.574 99.3179 118.896 99.1848C119.2 99.0583 119.697 98.9917 120.381 98.9917H121.41C122.236 98.9917 122.824 99.1115 123.184 99.3446C123.521 99.5621 123.69 99.9016 123.69 100.363H122.94C122.94 100.066 122.793 99.875 122.511 99.784C122.329 99.7307 121.954 99.7063 121.379 99.7063H120.425C119.79 99.7063 119.38 99.764 119.193 99.8861C118.963 100.037 118.845 100.388 118.841 100.938V101.61C118.836 102.232 118.947 102.625 119.176 102.789C119.353 102.918 119.762 102.984 120.407 102.984H121.386C121.972 102.984 122.349 102.955 122.525 102.904C122.809 102.818 122.948 102.618 122.946 102.303H123.705Z" fill="white"/>
<path d="M127.963 103.661H124.006V98.9917H124.798V102.949H127.963V103.661Z" fill="white"/>
<path d="M131.686 101.61H128.508L128.515 100.931H131.686V101.61ZM133.386 102.303C133.386 102.9 133.193 103.286 132.807 103.47C132.516 103.61 131.941 103.683 131.08 103.683H130.048C129.396 103.683 128.921 103.626 128.623 103.515C128.299 103.397 128.073 103.175 127.949 102.851C127.838 102.551 127.782 102.076 127.782 101.424C127.782 100.723 127.831 100.221 127.929 99.9171C128.04 99.562 128.255 99.3179 128.577 99.1848C128.881 99.0583 129.378 98.9917 130.061 98.9917H131.091C131.917 98.9917 132.507 99.1115 132.867 99.3446C133.204 99.5621 133.373 99.9016 133.373 100.363H132.62C132.62 100.066 132.476 99.875 132.194 99.784C132.01 99.7307 131.635 99.7063 131.06 99.7063H130.106C129.471 99.7063 129.061 99.764 128.874 99.8861C128.646 100.037 128.526 100.388 128.521 100.938V101.61C128.517 102.232 128.63 102.625 128.856 102.789C129.034 102.918 129.442 102.984 130.088 102.984H131.067C131.653 102.984 132.032 102.955 132.205 102.904C132.489 102.818 132.631 102.618 132.627 102.303H133.386Z" fill="white"/>
<path d="M138.281 99.7041H136.175V103.661H135.383V99.7041H133.283V98.9917H138.281V99.7041Z" fill="white"/>
<path d="M142.245 101.61H139.069L139.074 100.931H142.245V101.61ZM143.945 102.303C143.945 102.9 143.752 103.286 143.366 103.47C143.077 103.61 142.503 103.683 141.642 103.683H140.607C139.955 103.683 139.48 103.626 139.183 103.515C138.859 103.397 138.634 103.175 138.508 102.851C138.399 102.551 138.344 102.076 138.344 101.424C138.344 100.723 138.39 100.221 138.49 99.9171C138.599 99.562 138.816 99.3179 139.136 99.1848C139.44 99.0583 139.937 98.9917 140.623 98.9917H141.653C142.476 98.9917 143.066 99.1115 143.426 99.3446C143.763 99.5621 143.932 99.9016 143.932 100.363H143.18C143.18 100.066 143.035 99.875 142.753 99.784C142.569 99.7307 142.194 99.7063 141.619 99.7063H140.667C140.033 99.7063 139.62 99.764 139.436 99.8861C139.205 100.037 139.085 100.388 139.081 100.938V101.61C139.078 102.232 139.189 102.625 139.416 102.789C139.593 102.918 140.004 102.984 140.647 102.984H141.626C142.212 102.984 142.591 102.955 142.765 102.904C143.049 102.818 143.191 102.618 143.186 102.303H143.945Z" fill="white"/>
<path d="M59.428 167.692V169H53.128V160.6H59.26V161.908H54.688V164.092H58.744V165.376H54.688V167.692H59.428ZM67.6179 164.704H69.0939V168.052C68.6619 168.396 68.1579 168.66 67.5819 168.844C67.0059 169.028 66.4139 169.12 65.8059 169.12C64.9499 169.12 64.1779 168.936 63.4899 168.568C62.8019 168.192 62.2619 167.676 61.8699 167.02C61.4779 166.364 61.2819 165.624 61.2819 164.8C61.2819 163.976 61.4779 163.236 61.8699 162.58C62.2619 161.924 62.8019 161.412 63.4899 161.044C64.1859 160.668 64.9659 160.48 65.8299 160.48C66.5339 160.48 67.1739 160.596 67.7499 160.828C68.3259 161.06 68.8099 161.4 69.2019 161.848L68.2179 162.808C67.5779 162.168 66.8059 161.848 65.9019 161.848C65.3099 161.848 64.7819 161.972 64.3179 162.22C63.8619 162.468 63.5019 162.816 63.2379 163.264C62.9819 163.712 62.8539 164.224 62.8539 164.8C62.8539 165.36 62.9819 165.864 63.2379 166.312C63.5019 166.76 63.8619 167.112 64.3179 167.368C64.7819 167.624 65.3059 167.752 65.8899 167.752C66.5459 167.752 67.1219 167.608 67.6179 167.32V164.704ZM77.3974 169L75.6814 166.54C75.6094 166.548 75.5014 166.552 75.3574 166.552H73.4614V169H71.9014V160.6H75.3574C76.0854 160.6 76.7174 160.72 77.2534 160.96C77.7974 161.2 78.2134 161.544 78.5014 161.992C78.7894 162.44 78.9334 162.972 78.9334 163.588C78.9334 164.22 78.7774 164.764 78.4654 165.22C78.1614 165.676 77.7214 166.016 77.1454 166.24L79.0774 169H77.3974ZM77.3614 163.588C77.3614 163.052 77.1854 162.64 76.8334 162.352C76.4814 162.064 75.9654 161.92 75.2854 161.92H73.4614V165.268H75.2854C75.9654 165.268 76.4814 165.124 76.8334 164.836C77.1854 164.54 77.3614 164.124 77.3614 163.588ZM85.4952 160.6H89.1672C90.0632 160.6 90.8592 160.776 91.5552 161.128C92.2512 161.472 92.7912 161.964 93.1752 162.604C93.5592 163.236 93.7512 163.968 93.7512 164.8C93.7512 165.632 93.5592 166.368 93.1752 167.008C92.7912 167.64 92.2512 168.132 91.5552 168.484C90.8592 168.828 90.0632 169 89.1672 169H85.4952V160.6ZM89.0952 167.68C89.7112 167.68 90.2512 167.564 90.7152 167.332C91.1872 167.092 91.5472 166.756 91.7952 166.324C92.0512 165.884 92.1792 165.376 92.1792 164.8C92.1792 164.224 92.0512 163.72 91.7952 163.288C91.5472 162.848 91.1872 162.512 90.7152 162.28C90.2512 162.04 89.7112 161.92 89.0952 161.92H87.0552V167.68H89.0952ZM102.459 167.692V169H96.1593V160.6H102.291V161.908H97.7193V164.092H101.775V165.376H97.7193V167.692H102.459ZM104.948 160.6H106.508V167.68H110.9V169H104.948V160.6ZM119.182 167.692V169H112.882V160.6H119.014V161.908H114.442V164.092H118.498V165.376H114.442V167.692H119.182ZM123.375 161.92H120.591V160.6H127.719V161.92H124.935V169H123.375V161.92ZM135.94 167.692V169H129.64V160.6H135.772V161.908H131.2V164.092H135.256V165.376H131.2V167.692H135.94Z" fill="white" fill-opacity="0.87"/>
<defs>
<filter id="filter0_d" x="0" y="0" width="208" height="261" filterUnits="userSpaceOnUse" color-interpolation-filters="sRGB">
<feFlood flood-opacity="0" result="BackgroundImageFix"/>
<feColorMatrix in="SourceAlpha" type="matrix" values="0 0 0 0 0 0 0 0 0 0 0 0 0 0 0 0 0 0 127 0"/>
<feOffset dx="4" dy="4"/>
<feGaussianBlur stdDeviation="2"/>
<feColorMatrix type="matrix" values="0 0 0 0 0 0 0 0 0 0 0 0 0 0 0 0 0 0 0.25 0"/>
<feBlend mode="normal" in2="BackgroundImageFix" result="effect1_dropShadow"/>
<feBlend mode="normal" in="SourceGraphic" in2="effect1_dropShadow" result="shape"/>
</filter>
</defs>
</svg>
