<svg width="287" height="361" viewBox="0 0 287 361" fill="none" xmlns="http://www.w3.org/2000/svg">
<g filter="url(#filter0_d)">
<rect width="279" height="353" rx="8" fill="white" fill-opacity="0.08"/>
<rect width="279" height="353" rx="8" fill="#121212" fill-opacity="0.08"/>
</g>
<path d="M251.286 319.714H242.714V328.286C242.714 329.229 241.943 330 241 330C240.057 330 239.286 329.229 239.286 328.286V319.714H230.714C229.771 319.714 229 318.943 229 318C229 317.057 229.771 316.286 230.714 316.286H239.286V307.714C239.286 306.771 240.057 306 241 306C241.943 306 242.714 306.771 242.714 307.714V316.286H251.286C252.229 316.286 253 317.057 253 318C253 318.943 252.229 319.714 251.286 319.714Z" fill="#FAFAFA"/>
<path d="M55.584 223.6C56.312 223.6 56.944 223.72 57.48 223.96C58.024 224.2 58.44 224.544 58.728 224.992C59.016 225.44 59.16 225.972 59.16 226.588C59.16 227.196 59.016 227.728 58.728 228.184C58.44 228.632 58.024 228.976 57.48 229.216C56.944 229.456 56.312 229.576 55.584 229.576H53.688V232H52.128V223.6H55.584ZM55.512 228.256C56.192 228.256 56.708 228.112 57.06 227.824C57.412 227.536 57.588 227.124 57.588 226.588C57.588 226.052 57.412 225.64 57.06 225.352C56.708 225.064 56.192 224.92 55.512 224.92H53.688V228.256H55.512ZM65.509 232.12C64.653 232.12 63.881 231.936 63.193 231.568C62.505 231.192 61.965 230.676 61.573 230.02C61.181 229.356 60.985 228.616 60.985 227.8C60.985 226.984 61.181 226.248 61.573 225.592C61.965 224.928 62.505 224.412 63.193 224.044C63.881 223.668 64.653 223.48 65.509 223.48C66.365 223.48 67.137 223.668 67.825 224.044C68.513 224.412 69.053 224.924 69.445 225.58C69.837 226.236 70.033 226.976 70.033 227.8C70.033 228.624 69.837 229.364 69.445 230.02C69.053 230.676 68.513 231.192 67.825 231.568C67.137 231.936 66.365 232.12 65.509 232.12ZM65.509 230.752C66.069 230.752 66.573 230.628 67.021 230.38C67.469 230.124 67.821 229.772 68.077 229.324C68.333 228.868 68.461 228.36 68.461 227.8C68.461 227.24 68.333 226.736 68.077 226.288C67.821 225.832 67.469 225.48 67.021 225.232C66.573 224.976 66.069 224.848 65.509 224.848C64.949 224.848 64.445 224.976 63.997 225.232C63.549 225.48 63.197 225.832 62.941 226.288C62.685 226.736 62.557 227.24 62.557 227.8C62.557 228.36 62.685 228.868 62.941 229.324C63.197 229.772 63.549 230.124 63.997 230.38C64.445 230.628 64.949 230.752 65.509 230.752ZM84.4431 223.6L81.6591 232H80.0031L77.9271 225.784L75.8151 232H74.1471L71.3631 223.6H72.9831L75.0711 229.984L77.2431 223.6H78.6831L80.8071 230.02L82.9551 223.6H84.4431ZM92.7639 230.692V232H86.4639V223.6H92.5959V224.908H88.0239V227.092H92.0799V228.376H88.0239V230.692H92.7639ZM100.749 232L99.033 229.54C98.961 229.548 98.853 229.552 98.709 229.552H96.813V232H95.253V223.6H98.709C99.437 223.6 100.069 223.72 100.605 223.96C101.149 224.2 101.565 224.544 101.853 224.992C102.141 225.44 102.285 225.972 102.285 226.588C102.285 227.22 102.129 227.764 101.817 228.22C101.513 228.676 101.073 229.016 100.497 229.24L102.429 232H100.749ZM100.713 226.588C100.713 226.052 100.537 225.64 100.185 225.352C99.833 225.064 99.317 224.92 98.637 224.92H96.813V228.268H98.637C99.317 228.268 99.833 228.124 100.185 227.836C100.537 227.54 100.713 227.124 100.713 226.588ZM111.451 232.12C110.803 232.12 110.175 232.028 109.567 231.844C108.967 231.66 108.491 231.416 108.139 231.112L108.679 229.9C109.023 230.172 109.443 230.396 109.939 230.572C110.443 230.74 110.947 230.824 111.451 230.824C112.075 230.824 112.539 230.724 112.843 230.524C113.155 230.324 113.311 230.06 113.311 229.732C113.311 229.492 113.223 229.296 113.047 229.144C112.879 228.984 112.663 228.86 112.399 228.772C112.135 228.684 111.775 228.584 111.319 228.472C110.679 228.32 110.159 228.168 109.759 228.016C109.367 227.864 109.027 227.628 108.739 227.308C108.459 226.98 108.319 226.54 108.319 225.988C108.319 225.524 108.443 225.104 108.691 224.728C108.947 224.344 109.327 224.04 109.831 223.816C110.343 223.592 110.967 223.48 111.703 223.48C112.215 223.48 112.719 223.544 113.215 223.672C113.711 223.8 114.139 223.984 114.499 224.224L114.007 225.436C113.639 225.22 113.255 225.056 112.855 224.944C112.455 224.832 112.067 224.776 111.691 224.776C111.075 224.776 110.615 224.88 110.311 225.088C110.015 225.296 109.867 225.572 109.867 225.916C109.867 226.156 109.951 226.352 110.119 226.504C110.295 226.656 110.515 226.776 110.779 226.864C111.043 226.952 111.403 227.052 111.859 227.164C112.483 227.308 112.995 227.46 113.395 227.62C113.795 227.772 114.135 228.008 114.415 228.328C114.703 228.648 114.847 229.08 114.847 229.624C114.847 230.088 114.719 230.508 114.463 230.884C114.215 231.26 113.835 231.56 113.323 231.784C112.811 232.008 112.187 232.12 111.451 232.12ZM118.73 224.92H115.946V223.6H123.074V224.92H120.29V232H118.73V224.92ZM131.295 230.692V232H124.995V223.6H131.127V224.908H126.555V227.092H130.611V228.376H126.555V230.692H131.295ZM140.084 230.692V232H133.784V223.6H139.916V224.908H135.344V227.092H139.4V228.376H135.344V230.692H140.084ZM148.069 232L146.353 229.54C146.281 229.548 146.173 229.552 146.029 229.552H144.133V232H142.573V223.6H146.029C146.757 223.6 147.389 223.72 147.925 223.96C148.469 224.2 148.885 224.544 149.173 224.992C149.461 225.44 149.605 225.972 149.605 226.588C149.605 227.22 149.449 227.764 149.137 228.22C148.833 228.676 148.393 229.016 147.817 229.24L149.749 232H148.069ZM148.033 226.588C148.033 226.052 147.857 225.64 147.505 225.352C147.153 225.064 146.637 224.92 145.957 224.92H144.133V228.268H145.957C146.637 228.268 147.153 228.124 147.505 227.836C147.857 227.54 148.033 227.124 148.033 226.588ZM152.101 223.6H153.661V232H152.101V223.6ZM164.147 223.6V232H162.863L158.231 226.312V232H156.683V223.6H157.967L162.599 229.288V223.6H164.147ZM172.884 227.704H174.36V231.052C173.928 231.396 173.424 231.66 172.848 231.844C172.272 232.028 171.68 232.12 171.072 232.12C170.216 232.12 169.444 231.936 168.756 231.568C168.068 231.192 167.528 230.676 167.136 230.02C166.744 229.364 166.548 228.624 166.548 227.8C166.548 226.976 166.744 226.236 167.136 225.58C167.528 224.924 168.068 224.412 168.756 224.044C169.452 223.668 170.232 223.48 171.096 223.48C171.8 223.48 172.44 223.596 173.016 223.828C173.592 224.06 174.076 224.4 174.468 224.848L173.484 225.808C172.844 225.168 172.072 224.848 171.168 224.848C170.576 224.848 170.048 224.972 169.584 225.22C169.128 225.468 168.768 225.816 168.504 226.264C168.248 226.712 168.12 227.224 168.12 227.8C168.12 228.36 168.248 228.864 168.504 229.312C168.768 229.76 169.128 230.112 169.584 230.368C170.048 230.624 170.572 230.752 171.156 230.752C171.812 230.752 172.388 230.608 172.884 230.32V227.704Z" fill="white" fill-opacity="0.87"/>
<path d="M140.792 48.7747C112.6 48.7747 89.7391 71.6283 89.7391 99.8273C89.7391 128.019 112.6 150.876 140.792 150.876C168.987 150.876 191.844 128.019 191.844 99.8273C191.844 71.6283 168.987 48.7747 140.792 48.7747ZM201.297 99.8273C201.297 133.237 174.208 160.326 140.792 160.326C107.379 160.326 80.2898 133.237 80.2898 99.8273C80.2898 66.4106 107.379 39.3218 140.792 39.3218C174.208 39.3218 201.297 66.4106 201.297 99.8273Z" fill="white" stroke="white"/>
<path d="M146.048 145.724C146.307 143.664 146.722 141.049 147.367 138.169C145.214 138.577 143.019 138.783 140.784 138.783C138.553 138.783 136.354 138.577 134.197 138.169C134.846 141.049 135.258 143.664 135.517 145.724C137.276 145.927 139.035 146.026 140.784 146.026C142.533 146.026 144.292 145.927 146.048 145.724ZM140.784 133.984C145.736 133.984 150.425 132.792 154.617 130.66C151.39 138.957 150.606 147.626 150.45 149.899C147.318 150.499 144.09 150.825 140.784 150.825C137.478 150.825 134.247 150.499 131.115 149.899C130.959 147.626 130.175 138.957 126.95 130.66C131.14 132.792 135.829 133.984 140.784 133.984Z" fill="white" stroke="white"/>
<path d="M169.74 84.7781C161.592 83.1039 151.667 81.7524 140.845 81.7524C130.02 81.7524 120.095 83.1039 111.948 84.7781C109.876 89.3041 108.709 94.387 108.709 99.7643C108.709 104.936 109.791 109.838 111.724 114.236C112.348 114.453 112.987 114.69 113.64 114.953C120.283 117.62 124.43 124.012 127.012 130.648C131.201 132.78 135.89 133.972 140.845 133.972C145.797 133.972 150.486 132.78 154.679 130.648C157.258 124.012 161.404 117.62 168.048 114.953C168.704 114.69 169.342 114.453 169.967 114.236C171.896 109.838 172.978 104.936 172.978 99.7643C172.978 94.387 171.815 89.3041 169.74 84.7781Z" fill="white" stroke="white"/>
<path d="M140.794 133.54C136.254 133.54 131.884 132.465 127.805 130.351C124.708 122.196 120.299 116.879 114.699 114.549C114.124 114.315 113.567 114.102 113.017 113.896C111.166 109.462 110.229 104.723 110.229 99.8072C110.229 94.7066 111.233 89.8081 113.219 85.2466C122.541 83.278 131.817 82.2812 140.794 82.2812C149.775 82.2812 159.051 83.278 168.372 85.2466C170.355 89.8081 171.363 94.7066 171.363 99.8072C171.363 104.723 170.426 109.462 168.575 113.896C168.025 114.102 167.464 114.315 166.89 114.549C161.289 116.879 156.88 122.196 153.787 130.351C149.708 132.465 145.334 133.54 140.794 133.54Z" fill="white" stroke="white"/>
<path d="M152.33 99.5657C152.33 105.933 147.169 111.097 140.798 111.097C134.431 111.097 129.267 105.933 129.267 99.5657C129.267 93.1988 134.431 88.0343 140.798 88.0343C147.169 88.0343 152.33 93.1988 152.33 99.5657Z" fill="white" stroke="white"/>
<path d="M151.404 99.6123C151.404 105.444 146.676 110.172 140.841 110.172C135.013 110.172 130.285 105.444 130.285 99.6123C130.285 93.7774 135.013 89.0528 140.841 89.0528C146.676 89.0528 151.404 93.7774 151.404 99.6123Z" fill="white" stroke="white"/>
<path d="M90.3575 99.8266C90.3575 112.284 94.8977 123.698 102.407 132.513L94.8587 140.064C85.4235 129.31 79.6951 115.224 79.6951 99.8266C79.6951 87.1672 83.5649 75.391 90.1837 65.626L98.6505 72.1454C93.4115 80.0979 90.3575 89.6111 90.3575 99.8266Z" fill="white" stroke="white"/>
<path d="M191.282 99.8266C191.282 112.284 186.741 123.698 179.229 132.513L186.78 140.064C196.216 129.31 201.94 115.224 201.94 99.8266C201.94 87.1672 198.071 75.391 191.452 65.626L182.985 72.1454C188.228 80.0979 191.282 89.6111 191.282 99.8266Z" fill="white" stroke="white"/>
<path d="M182.211 107.178C183.542 107.178 184.751 107.256 185.829 107.384C186.252 104.876 186.464 102.333 186.464 99.7788C186.464 97.9272 186.351 96.0615 186.124 94.217C183.914 93.4473 180.782 92.4435 176.902 91.4148C177.462 94.1354 177.746 96.9269 177.746 99.7788C177.746 102.418 177.501 105.018 177.015 107.554C178.778 107.306 180.512 107.178 182.211 107.178ZM169.939 114.251C171.868 109.856 172.95 104.95 172.95 99.7788C172.95 94.4014 171.787 89.3221 169.712 84.7925C180.183 86.9491 187.695 89.6307 190.434 90.6806C190.976 93.6317 191.264 96.6715 191.264 99.7788C191.264 104.379 190.639 108.838 189.479 113.077C187.539 112.374 180.622 110.48 169.939 114.251Z" fill="white" stroke="white"/>
<path d="M103.85 99.7788C103.85 96.9269 104.134 94.1354 104.698 91.4148C100.817 92.4435 97.6852 93.4473 95.4754 94.217C95.2484 96.0615 95.1348 97.9236 95.1348 99.7788C95.1348 102.333 95.3477 104.876 95.7733 107.384C96.8481 107.256 98.0541 107.178 99.3878 107.178C101.087 107.178 102.818 107.306 104.581 107.554C104.095 105.018 103.85 102.418 103.85 99.7788ZM92.1199 113.077C90.96 108.838 90.3357 104.379 90.3357 99.7788C90.3357 96.6715 90.623 93.6317 91.1622 90.6806C93.9005 89.6307 101.417 86.9491 111.888 84.7925C109.816 89.3221 108.649 94.4014 108.649 99.7788C108.649 104.95 109.727 109.856 111.661 114.251C100.977 110.48 94.0565 112.374 92.1199 113.077Z" fill="white" stroke="white"/>
<defs>
<filter id="filter0_d" x="0" y="0" width="287" height="361" filterUnits="userSpaceOnUse" color-interpolation-filters="sRGB">
<feFlood flood-opacity="0" result="BackgroundImageFix"/>
<feColorMatrix in="SourceAlpha" type="matrix" values="0 0 0 0 0 0 0 0 0 0 0 0 0 0 0 0 0 0 127 0"/>
<feOffset dx="4" dy="4"/>
<feGaussianBlur stdDeviation="2"/>
<feColorMatrix type="matrix" values="0 0 0 0 0 0 0 0 0 0 0 0 0 0 0 0 0 0 0.25 0"/>
<feBlend mode="normal" in2="BackgroundImageFix" result="effect1_dropShadow"/>
<feBlend mode="normal" in="SourceGraphic" in2="effect1_dropShadow" result="shape"/>
</filter>
</defs>
</svg>
