<svg width="287" height="361" viewBox="0 0 287 361" fill="none" xmlns="http://www.w3.org/2000/svg">
<g filter="url(#filter0_d)">
<rect width="279" height="353" rx="8" fill="white" fill-opacity="0.08"/>
<rect width="279" height="353" rx="8" fill="#121212" fill-opacity="0.08"/>
</g>
<path d="M251.286 319.714H242.714V328.286C242.714 329.229 241.943 330 241 330C240.057 330 239.286 329.229 239.286 328.286V319.714H230.714C229.771 319.714 229 318.943 229 318C229 317.057 229.771 316.286 230.714 316.286H239.286V307.714C239.286 306.771 240.057 306 241 306C241.943 306 242.714 306.771 242.714 307.714V316.286H251.286C252.229 316.286 253 317.057 253 318C253 318.943 252.229 319.714 251.286 319.714Z" fill="#FAFAFA"/>
<path d="M42.428 232.692V234H36.128V225.6H42.26V226.908H37.688V229.092H41.744V230.376H37.688V232.692H42.428ZM44.9171 225.6H46.4771V232.68H50.8691V234H44.9171V225.6ZM59.1507 232.692V234H52.8507V225.6H58.9827V226.908H54.4107V229.092H58.4667V230.376H54.4107V232.692H59.1507ZM65.4926 234.12C64.6446 234.12 63.8766 233.936 63.1886 233.568C62.5086 233.192 61.9726 232.676 61.5806 232.02C61.1966 231.364 61.0046 230.624 61.0046 229.8C61.0046 228.976 61.2006 228.236 61.5926 227.58C61.9846 226.924 62.5206 226.412 63.2006 226.044C63.8886 225.668 64.6566 225.48 65.5046 225.48C66.1926 225.48 66.8206 225.6 67.3886 225.84C67.9566 226.08 68.4366 226.428 68.8286 226.884L67.8206 227.832C67.2126 227.176 66.4646 226.848 65.5766 226.848C65.0006 226.848 64.4846 226.976 64.0286 227.232C63.5726 227.48 63.2166 227.828 62.9606 228.276C62.7046 228.724 62.5766 229.232 62.5766 229.8C62.5766 230.368 62.7046 230.876 62.9606 231.324C63.2166 231.772 63.5726 232.124 64.0286 232.38C64.4846 232.628 65.0006 232.752 65.5766 232.752C66.4646 232.752 67.2126 232.42 67.8206 231.756L68.8286 232.716C68.4366 233.172 67.9526 233.52 67.3766 233.76C66.8086 234 66.1806 234.12 65.4926 234.12ZM72.6836 226.92H69.8996V225.6H77.0276V226.92H74.2436V234H72.6836V226.92ZM84.4443 234L82.7283 231.54C82.6563 231.548 82.5483 231.552 82.4043 231.552H80.5083V234H78.9483V225.6H82.4043C83.1323 225.6 83.7643 225.72 84.3003 225.96C84.8443 226.2 85.2603 226.544 85.5483 226.992C85.8363 227.44 85.9803 227.972 85.9803 228.588C85.9803 229.22 85.8243 229.764 85.5123 230.22C85.2083 230.676 84.7683 231.016 84.1923 231.24L86.1243 234H84.4443ZM84.4083 228.588C84.4083 228.052 84.2323 227.64 83.8803 227.352C83.5283 227.064 83.0123 226.92 82.3323 226.92H80.5083V230.268H82.3323C83.0123 230.268 83.5283 230.124 83.8803 229.836C84.2323 229.54 84.4083 229.124 84.4083 228.588ZM88.4757 225.6H90.0357V234H88.4757V225.6ZM96.9457 234.12C96.0977 234.12 95.3297 233.936 94.6417 233.568C93.9617 233.192 93.4257 232.676 93.0337 232.02C92.6497 231.364 92.4577 230.624 92.4577 229.8C92.4577 228.976 92.6537 228.236 93.0457 227.58C93.4377 226.924 93.9737 226.412 94.6537 226.044C95.3417 225.668 96.1097 225.48 96.9577 225.48C97.6457 225.48 98.2737 225.6 98.8417 225.84C99.4097 226.08 99.8897 226.428 100.282 226.884L99.2737 227.832C98.6657 227.176 97.9177 226.848 97.0297 226.848C96.4537 226.848 95.9377 226.976 95.4817 227.232C95.0257 227.48 94.6697 227.828 94.4137 228.276C94.1577 228.724 94.0297 229.232 94.0297 229.8C94.0297 230.368 94.1577 230.876 94.4137 231.324C94.6697 231.772 95.0257 232.124 95.4817 232.38C95.9377 232.628 96.4537 232.752 97.0297 232.752C97.9177 232.752 98.6657 232.42 99.2737 231.756L100.282 232.716C99.8897 233.172 99.4057 233.52 98.8297 233.76C98.2617 234 97.6337 234.12 96.9457 234.12ZM114.273 225.6L110.613 234H109.077L105.405 225.6H107.097L109.893 232.08L112.713 225.6H114.273ZM122.209 232.692V234H115.909V225.6H122.041V226.908H117.469V229.092H121.525V230.376H117.469V232.692H122.209ZM132.162 225.6V234H130.602V230.4H126.258V234H124.698V225.6H126.258V229.068H130.602V225.6H132.162ZM135.163 225.6H136.723V234H135.163V225.6ZM143.633 234.12C142.785 234.12 142.017 233.936 141.329 233.568C140.649 233.192 140.113 232.676 139.721 232.02C139.337 231.364 139.145 230.624 139.145 229.8C139.145 228.976 139.341 228.236 139.733 227.58C140.125 226.924 140.661 226.412 141.341 226.044C142.029 225.668 142.797 225.48 143.645 225.48C144.333 225.48 144.961 225.6 145.529 225.84C146.097 226.08 146.577 226.428 146.969 226.884L145.961 227.832C145.353 227.176 144.605 226.848 143.717 226.848C143.141 226.848 142.625 226.976 142.169 227.232C141.713 227.48 141.357 227.828 141.101 228.276C140.845 228.724 140.717 229.232 140.717 229.8C140.717 230.368 140.845 230.876 141.101 231.324C141.357 231.772 141.713 232.124 142.169 232.38C142.625 232.628 143.141 232.752 143.717 232.752C144.605 232.752 145.353 232.42 145.961 231.756L146.969 232.716C146.577 233.172 146.093 233.52 145.517 233.76C144.949 234 144.321 234.12 143.633 234.12ZM149.214 225.6H150.774V232.68H155.166V234H149.214V225.6ZM163.448 232.692V234H157.148V225.6H163.28V226.908H158.708V229.092H162.764V230.376H158.708V232.692H163.448ZM172.607 234.12C171.959 234.12 171.331 234.028 170.723 233.844C170.123 233.66 169.647 233.416 169.295 233.112L169.835 231.9C170.179 232.172 170.599 232.396 171.095 232.572C171.599 232.74 172.103 232.824 172.607 232.824C173.231 232.824 173.695 232.724 173.999 232.524C174.311 232.324 174.467 232.06 174.467 231.732C174.467 231.492 174.379 231.296 174.203 231.144C174.035 230.984 173.819 230.86 173.555 230.772C173.291 230.684 172.931 230.584 172.475 230.472C171.835 230.32 171.315 230.168 170.915 230.016C170.523 229.864 170.183 229.628 169.895 229.308C169.615 228.98 169.475 228.54 169.475 227.988C169.475 227.524 169.599 227.104 169.847 226.728C170.103 226.344 170.483 226.04 170.987 225.816C171.499 225.592 172.123 225.48 172.859 225.48C173.371 225.48 173.875 225.544 174.371 225.672C174.867 225.8 175.295 225.984 175.655 226.224L175.163 227.436C174.795 227.22 174.411 227.056 174.011 226.944C173.611 226.832 173.223 226.776 172.847 226.776C172.231 226.776 171.771 226.88 171.467 227.088C171.171 227.296 171.023 227.572 171.023 227.916C171.023 228.156 171.107 228.352 171.275 228.504C171.451 228.656 171.671 228.776 171.935 228.864C172.199 228.952 172.559 229.052 173.015 229.164C173.639 229.308 174.151 229.46 174.551 229.62C174.951 229.772 175.291 230.008 175.571 230.328C175.859 230.648 176.003 231.08 176.003 231.624C176.003 232.088 175.875 232.508 175.619 232.884C175.371 233.26 174.991 233.56 174.479 233.784C173.967 234.008 173.343 234.12 172.607 234.12ZM182.224 234.12C181.368 234.12 180.596 233.936 179.908 233.568C179.22 233.192 178.68 232.676 178.288 232.02C177.896 231.356 177.7 230.616 177.7 229.8C177.7 228.984 177.896 228.248 178.288 227.592C178.68 226.928 179.22 226.412 179.908 226.044C180.596 225.668 181.368 225.48 182.224 225.48C183.08 225.48 183.852 225.668 184.54 226.044C185.228 226.412 185.768 226.924 186.16 227.58C186.552 228.236 186.748 228.976 186.748 229.8C186.748 230.624 186.552 231.364 186.16 232.02C185.768 232.676 185.228 233.192 184.54 233.568C183.852 233.936 183.08 234.12 182.224 234.12ZM182.224 232.752C182.784 232.752 183.288 232.628 183.736 232.38C184.184 232.124 184.536 231.772 184.792 231.324C185.048 230.868 185.176 230.36 185.176 229.8C185.176 229.24 185.048 228.736 184.792 228.288C184.536 227.832 184.184 227.48 183.736 227.232C183.288 226.976 182.784 226.848 182.224 226.848C181.664 226.848 181.16 226.976 180.712 227.232C180.264 227.48 179.912 227.832 179.656 228.288C179.4 228.736 179.272 229.24 179.272 229.8C179.272 230.36 179.4 230.868 179.656 231.324C179.912 231.772 180.264 232.124 180.712 232.38C181.16 232.628 181.664 232.752 182.224 232.752ZM189.151 225.6H190.711V232.68H195.103V234H189.151V225.6ZM200.58 234.12C199.42 234.12 198.516 233.796 197.868 233.148C197.22 232.492 196.896 231.556 196.896 230.34V225.6H198.456V230.28C198.456 231.928 199.168 232.752 200.592 232.752C202.008 232.752 202.716 231.928 202.716 230.28V225.6H204.252V230.34C204.252 231.556 203.928 232.492 203.28 233.148C202.64 233.796 201.74 234.12 200.58 234.12ZM208.738 226.92H205.954V225.6H213.082V226.92H210.298V234H208.738V226.92ZM215.003 225.6H216.563V234H215.003V225.6ZM223.509 234.12C222.653 234.12 221.881 233.936 221.193 233.568C220.505 233.192 219.965 232.676 219.573 232.02C219.181 231.356 218.985 230.616 218.985 229.8C218.985 228.984 219.181 228.248 219.573 227.592C219.965 226.928 220.505 226.412 221.193 226.044C221.881 225.668 222.653 225.48 223.509 225.48C224.365 225.48 225.137 225.668 225.825 226.044C226.513 226.412 227.053 226.924 227.445 227.58C227.837 228.236 228.033 228.976 228.033 229.8C228.033 230.624 227.837 231.364 227.445 232.02C227.053 232.676 226.513 233.192 225.825 233.568C225.137 233.936 224.365 234.12 223.509 234.12ZM223.509 232.752C224.069 232.752 224.573 232.628 225.021 232.38C225.469 232.124 225.821 231.772 226.077 231.324C226.333 230.868 226.461 230.36 226.461 229.8C226.461 229.24 226.333 228.736 226.077 228.288C225.821 227.832 225.469 227.48 225.021 227.232C224.573 226.976 224.069 226.848 223.509 226.848C222.949 226.848 222.445 226.976 221.997 227.232C221.549 227.48 221.197 227.832 220.941 228.288C220.685 228.736 220.557 229.24 220.557 229.8C220.557 230.36 220.685 230.868 220.941 231.324C221.197 231.772 221.549 232.124 221.997 232.38C222.445 232.628 222.949 232.752 223.509 232.752ZM237.901 225.6V234H236.617L231.985 228.312V234H230.437V225.6H231.721L236.353 231.288V225.6H237.901ZM243.505 234.12C242.857 234.12 242.229 234.028 241.621 233.844C241.021 233.66 240.545 233.416 240.193 233.112L240.733 231.9C241.077 232.172 241.497 232.396 241.993 232.572C242.497 232.74 243.001 232.824 243.505 232.824C244.129 232.824 244.593 232.724 244.897 232.524C245.209 232.324 245.365 232.06 245.365 231.732C245.365 231.492 245.277 231.296 245.101 231.144C244.933 230.984 244.717 230.86 244.453 230.772C244.189 230.684 243.829 230.584 243.373 230.472C242.733 230.32 242.213 230.168 241.813 230.016C241.421 229.864 241.081 229.628 240.793 229.308C240.513 228.98 240.373 228.54 240.373 227.988C240.373 227.524 240.497 227.104 240.745 226.728C241.001 226.344 241.381 226.04 241.885 225.816C242.397 225.592 243.021 225.48 243.757 225.48C244.269 225.48 244.773 225.544 245.269 225.672C245.765 225.8 246.193 225.984 246.553 226.224L246.061 227.436C245.693 227.22 245.309 227.056 244.909 226.944C244.509 226.832 244.121 226.776 243.745 226.776C243.129 226.776 242.669 226.88 242.365 227.088C242.069 227.296 241.921 227.572 241.921 227.916C241.921 228.156 242.005 228.352 242.173 228.504C242.349 228.656 242.569 228.776 242.833 228.864C243.097 228.952 243.457 229.052 243.913 229.164C244.537 229.308 245.049 229.46 245.449 229.62C245.849 229.772 246.189 230.008 246.469 230.328C246.757 230.648 246.901 231.08 246.901 231.624C246.901 232.088 246.773 232.508 246.517 232.884C246.269 233.26 245.889 233.56 245.377 233.784C244.865 234.008 244.241 234.12 243.505 234.12Z" fill="white" fill-opacity="0.87"/>
<path d="M225.58 134.157C225.538 133.886 225.464 133.654 225.348 133.344C225.306 133.267 225.267 133.19 225.228 133.074C225.151 132.88 225.074 132.645 224.958 132.416C224.922 132.3 224.842 132.181 224.803 132.142C224.729 132.068 224.648 131.952 224.613 131.875C224.571 131.833 224.532 131.759 224.493 131.678L224.261 131.369C224.033 131.14 223.875 130.947 223.797 130.715L223.72 130.483C223.643 130.247 223.604 130.019 223.604 129.67C223.604 129.477 223.604 129.245 223.569 128.974C223.569 128.858 223.527 128.777 223.527 128.704V128.588C223.453 128.275 223.414 127.965 223.298 127.617C223.298 127.543 223.298 127.463 223.259 127.424L222.718 125.026C222.598 124.755 222.525 124.488 222.444 124.179L222.289 123.595C222.25 123.441 222.173 123.286 222.138 123.17C221.829 122.01 221.516 121.004 221.284 120.312C221.206 120.076 221.129 119.883 221.094 119.767C221.052 119.689 221.013 119.654 221.013 119.654L220.974 119.454C220.742 118.916 219.969 118.796 216.063 118.297C212.698 117.872 208.057 117.292 205.076 116.17C204.457 115.938 203.607 115.586 202.524 115.126C194.905 111.874 177.112 104.255 151.159 103.443C150.618 103.404 150.037 103.404 149.457 103.404C148.723 103.369 147.949 103.369 147.214 103.369C131.819 103.288 130.93 103.559 127.526 104.603C122.808 106.034 110.855 112.109 102.965 116.131C99.9068 117.64 97.5477 118.877 96.7391 119.187C95.382 119.767 91.905 120.269 87.5279 120.733L87.4154 121.7C92.0175 121.198 95.6141 120.733 97.1223 120.076C97.9345 119.728 100.22 118.568 103.387 116.982C110.777 113.231 123.153 106.966 127.836 105.531C131.123 104.491 131.974 104.255 147.214 104.336C147.949 104.336 148.684 104.336 149.457 104.371C149.96 104.336 150.537 104.371 151.082 104.41C176.876 105.222 194.596 112.767 202.137 116.015C203.223 116.479 204.113 116.828 204.728 117.098C207.822 118.258 212.501 118.842 215.947 119.264C217.687 119.496 219.624 119.728 220.123 119.921C220.123 119.96 220.162 120.037 220.162 120.076C220.239 120.231 220.278 120.385 220.359 120.617C220.587 121.275 220.939 122.319 221.206 123.441C221.284 123.557 221.322 123.711 221.361 123.866L221.516 124.407C221.593 124.755 221.674 125.065 221.786 125.336L222.289 127.347C222.289 127.424 222.289 127.501 222.328 127.698L222.37 127.891C222.482 128.159 222.525 128.429 222.563 128.704C222.563 128.82 222.563 128.893 222.598 129.048C222.637 129.322 222.637 129.516 222.637 129.67C222.637 130.135 222.679 130.483 222.831 130.908C222.869 130.947 222.869 130.985 222.869 131.02C223.024 131.449 223.298 131.72 223.527 132.026L223.569 132.068C223.604 132.142 223.681 132.223 223.681 132.223L223.797 132.378C223.84 132.455 223.875 132.571 223.994 132.687L224.068 132.842C224.188 133.035 224.261 133.228 224.377 133.499L224.416 133.654C224.532 133.886 224.571 134.114 224.648 134.35C225.306 136.825 225.074 143.786 224.458 145.333C224.416 145.414 224.377 145.488 224.377 145.488C223.952 145.604 223.488 145.913 222.869 146.381C222.679 146.532 222.482 146.687 222.173 146.883C222.138 146.957 222.057 146.996 221.941 147.038C221.864 147.112 221.829 147.151 221.748 147.193L221.361 147.46C221.206 147.58 221.052 147.653 220.897 147.773C220.742 147.85 220.587 147.963 220.471 148.044C220.162 148.198 219.891 148.388 219.543 148.543L218.809 148.972C218.074 149.358 216.875 149.703 215.483 150.051C215.328 150.051 215.173 150.093 215.019 150.128C214.903 150.167 214.748 150.206 214.516 150.248H214.4C214.284 150.283 214.206 150.283 214.168 150.322C212.544 150.673 210.877 150.905 209.798 151.06C209.988 150.128 210.068 149.126 210.068 148.079C210.068 138.875 202.601 131.369 193.397 131.369C184.228 131.369 176.764 138.875 176.764 148.079C176.764 149.126 176.845 150.128 177.035 151.173H96.8903C97.0837 150.012 97.1997 149.049 97.1997 148.079C97.1997 140.963 92.7136 134.853 86.4064 132.455L86.2939 133.457C92.0948 135.742 96.2328 141.466 96.2328 148.079C96.2328 149.126 96.1168 150.248 95.8075 151.563L95.6949 152.143H178.234L178.118 151.563C177.847 150.399 177.734 149.242 177.734 148.079C177.734 139.416 184.773 132.335 193.397 132.335C202.063 132.335 209.102 139.416 209.102 148.079C209.102 149.32 208.986 150.438 208.673 151.482L208.638 152.104H209.253C210.297 151.988 212.347 151.718 214.438 151.253C214.477 151.215 214.516 151.215 214.555 151.215C214.632 151.215 214.748 151.173 214.748 151.173C214.903 151.137 215.057 151.099 215.251 151.06C215.367 151.06 215.483 151.018 215.68 150.983C217.149 150.635 218.46 150.248 219.234 149.823L220.007 149.394C220.359 149.242 220.668 149.049 221.013 148.852C221.129 148.736 221.284 148.659 221.438 148.582C221.593 148.465 221.748 148.353 221.983 148.198L222.482 147.85C222.598 147.773 222.753 147.696 222.792 147.618C223.024 147.46 223.259 147.305 223.453 147.151C223.952 146.803 224.416 146.458 224.571 146.458L224.841 146.419L224.996 146.265C225.112 146.149 225.228 145.913 225.348 145.758C226.04 143.979 226.272 136.825 225.58 134.157ZM76.9667 132.764L76.6995 131.833C69.3481 133.573 63.8988 140.189 63.8988 148.079C63.8988 149.126 63.9726 150.128 64.1659 151.173H56.8181C54.7297 151.173 54.7297 151.173 52.4902 151.018L50.2437 150.905C49.2382 150.863 48.4225 150.635 47.8846 150.283C47.6878 150.093 47.5752 149.977 47.4979 149.858L47.4206 149.742C47.3784 149.629 47.3432 149.548 47.3045 149.475C47.2272 149.088 47.2659 148.698 47.3432 148.314C47.3784 148.233 47.4206 148.16 47.4206 148.079C47.4592 148.005 47.4592 147.963 47.4592 147.928C47.4592 147.889 47.4979 147.85 47.4979 147.85L47.5331 147.696C47.6526 147.495 47.7264 147.383 47.7264 147.383L47.846 147.305V147.151C47.8846 147.073 47.962 146.957 48.0007 146.803C48.0393 146.764 48.0393 146.729 48.078 146.648C48.1132 146.574 48.1553 146.458 48.1553 146.458C48.2678 146.226 48.3487 146.026 48.4225 145.72C48.4647 145.488 48.5034 145.259 48.5034 145.104C48.5034 143.825 48.5034 142.703 48.5807 141.62L48.5421 139.687C48.6194 139.416 48.6194 139.107 48.6194 138.875V138.449C48.6581 138.333 48.6581 138.182 48.6581 138.024C48.6581 137.827 48.6581 137.598 48.6932 137.289C48.6932 137.096 48.6932 136.902 48.7354 136.632C48.7354 136.554 48.7354 136.438 48.7741 136.357V136.048C48.8128 135.7 48.8479 135.394 48.8901 135.081C49.2804 132.181 50.0116 131.175 51.4777 129.168C51.7906 128.739 52.1387 128.275 52.4902 127.775C54.0723 125.529 64.3628 124.098 74.1084 123.054L73.8377 122.126C63.4312 123.209 53.5274 124.639 51.7133 127.192C51.3265 127.733 51.0171 128.201 50.7078 128.588C49.1995 130.672 48.3487 131.833 47.962 134.926C47.9233 135.278 47.846 135.587 47.8073 135.974V136.245C47.7686 136.4 47.7686 136.512 47.7686 136.554C47.7264 136.786 47.7264 137.057 47.7264 137.212C47.6878 137.525 47.6878 137.792 47.6878 138.024C47.6878 138.136 47.6878 138.256 47.6526 138.372V138.875C47.6526 139.068 47.6526 139.3 47.6139 139.609V141.62C47.5331 142.661 47.5331 143.825 47.5331 145.104C47.5331 145.217 47.5331 145.372 47.4979 145.565C47.4592 145.72 47.3784 145.836 47.2659 146.071C47.2659 146.149 47.2272 146.184 47.1885 146.265C47.1498 146.338 47.1112 146.419 47.0338 146.609L46.953 146.764C46.9178 146.803 46.8791 146.883 46.8791 146.919C46.8369 146.996 46.7631 147.112 46.6858 147.267C46.6436 147.305 46.6436 147.383 46.5698 147.58L46.4151 148.005C46.3377 148.508 46.2182 149.088 46.3764 149.703C46.4151 149.896 46.5311 150.051 46.5698 150.206L46.6436 150.322C46.7983 150.554 46.9916 150.789 47.3045 151.018C48.0007 151.563 48.9675 151.83 50.205 151.876L52.4094 151.988C54.7297 152.143 54.7297 152.143 56.8181 152.143H65.3683L65.2488 151.563C64.9816 150.399 64.8621 149.242 64.8621 148.079C64.8621 140.654 70.0091 134.385 76.9667 132.764ZM152.822 119.573C152.822 115.702 152.551 111.452 151.894 106.27H153.17C153.557 106.308 153.87 106.308 154.137 106.308C157.505 106.308 164.93 107.082 170.074 108.551C174.869 109.905 184.305 115.474 185.624 117.06C183.377 117.408 169.493 118.568 152.822 119.573ZM170.344 107.62C165.123 106.115 157.579 105.342 154.137 105.342C153.87 105.342 153.557 105.342 153.17 105.299H150.811L150.888 105.841C151.584 111.452 151.894 115.977 151.855 120.076V120.617L152.358 120.579C168.488 119.608 185.272 118.297 186.204 117.91C186.513 117.794 186.703 117.562 186.703 117.214C186.668 115.358 174.714 108.861 170.344 107.62ZM152.822 119.573C152.822 115.702 152.551 111.452 151.894 106.27H153.17C153.557 106.308 153.87 106.308 154.137 106.308C157.505 106.308 164.93 107.082 170.074 108.551C174.869 109.905 184.305 115.474 185.624 117.06C183.377 117.408 169.493 118.568 152.822 119.573ZM170.344 107.62C165.123 106.115 157.579 105.342 154.137 105.342C153.87 105.342 153.557 105.342 153.17 105.299H150.811L150.888 105.841C151.584 111.452 151.894 115.977 151.855 120.076V120.617L152.358 120.579C168.488 119.608 185.272 118.297 186.204 117.91C186.513 117.794 186.703 117.562 186.703 117.214C186.668 115.358 174.714 108.861 170.344 107.62ZM152.822 119.573C152.822 115.702 152.551 111.452 151.894 106.27H153.17C153.557 106.308 153.87 106.308 154.137 106.308C157.505 106.308 164.93 107.082 170.074 108.551C174.869 109.905 184.305 115.474 185.624 117.06C183.377 117.408 169.493 118.568 152.822 119.573ZM170.344 107.62C165.123 106.115 157.579 105.342 154.137 105.342C153.87 105.342 153.557 105.342 153.17 105.299H150.811L150.888 105.841C151.584 111.452 151.894 115.977 151.855 120.076V120.617L152.358 120.579C168.488 119.608 185.272 118.297 186.204 117.91C186.513 117.794 186.703 117.562 186.703 117.214C186.668 115.358 174.714 108.861 170.344 107.62ZM152.822 119.573C152.822 115.702 152.551 111.452 151.894 106.27H153.17C153.557 106.308 153.87 106.308 154.137 106.308C157.505 106.308 164.93 107.082 170.074 108.551C174.869 109.905 184.305 115.474 185.624 117.06C183.377 117.408 169.493 118.568 152.822 119.573ZM170.344 107.62C165.123 106.115 157.579 105.342 154.137 105.342C153.87 105.342 153.557 105.342 153.17 105.299H150.811L150.888 105.841C151.584 111.452 151.894 115.977 151.855 120.076V120.617L152.358 120.579C168.488 119.608 185.272 118.297 186.204 117.91C186.513 117.794 186.703 117.562 186.703 117.214C186.668 115.358 174.714 108.861 170.344 107.62ZM152.822 119.573C152.822 115.702 152.551 111.452 151.894 106.27H153.17C153.557 106.308 153.87 106.308 154.137 106.308C157.505 106.308 164.93 107.082 170.074 108.551C174.869 109.905 184.305 115.474 185.624 117.06C183.377 117.408 169.493 118.568 152.822 119.573ZM170.344 107.62C165.123 106.115 157.579 105.342 154.137 105.342C153.87 105.342 153.557 105.342 153.17 105.299H150.811L150.888 105.841C151.584 111.452 151.894 115.977 151.855 120.076V120.617L152.358 120.579C168.488 119.608 185.272 118.297 186.204 117.91C186.513 117.794 186.703 117.562 186.703 117.214C186.668 115.358 174.714 108.861 170.344 107.62Z" fill="white"/>
<path d="M170.344 107.62C165.123 106.115 157.579 105.342 154.137 105.342C153.87 105.342 153.557 105.342 153.17 105.299H150.811L150.888 105.841C151.584 111.452 151.894 115.977 151.855 120.076V120.617L152.358 120.579C168.488 119.608 185.272 118.297 186.204 117.91C186.513 117.794 186.703 117.562 186.703 117.214C186.668 115.358 174.714 108.861 170.344 107.62M225.58 134.157C225.538 133.886 225.464 133.654 225.348 133.344C225.306 133.267 225.267 133.19 225.228 133.074C225.151 132.88 225.074 132.645 224.958 132.416C224.922 132.3 224.842 132.181 224.803 132.142C224.729 132.068 224.648 131.952 224.613 131.875C224.571 131.833 224.532 131.759 224.493 131.678L224.261 131.369C224.033 131.14 223.875 130.947 223.797 130.715L223.72 130.483C223.643 130.247 223.604 130.019 223.604 129.67C223.604 129.477 223.604 129.245 223.569 128.974C223.569 128.858 223.527 128.777 223.527 128.704V128.588C223.453 128.275 223.414 127.965 223.298 127.617C223.298 127.543 223.298 127.463 223.259 127.424L222.718 125.026C222.598 124.755 222.525 124.488 222.444 124.179L222.289 123.595C222.25 123.441 222.173 123.286 222.138 123.17C221.829 122.01 221.516 121.004 221.284 120.312C221.206 120.076 221.129 119.883 221.094 119.767C221.052 119.689 221.013 119.654 221.013 119.654L220.974 119.454C220.742 118.916 219.969 118.796 216.063 118.297C212.698 117.872 208.057 117.292 205.076 116.17C204.457 115.938 203.607 115.586 202.524 115.126C194.905 111.874 177.112 104.255 151.159 103.443C150.618 103.404 150.037 103.404 149.457 103.404C148.723 103.369 147.949 103.369 147.214 103.369C131.819 103.288 130.93 103.559 127.526 104.603C122.808 106.034 110.855 112.109 102.965 116.131C99.9068 117.64 97.5477 118.877 96.7391 119.187C95.382 119.767 91.905 120.269 87.5279 120.733L87.4154 121.7C92.0175 121.198 95.6141 120.733 97.1223 120.076C97.9345 119.728 100.22 118.568 103.387 116.982C110.777 113.231 123.153 106.966 127.836 105.531C131.123 104.491 131.974 104.255 147.214 104.336C147.949 104.336 148.684 104.336 149.457 104.371C149.96 104.336 150.537 104.371 151.082 104.41C176.877 105.222 194.596 112.767 202.137 116.015C203.223 116.479 204.113 116.828 204.728 117.098C207.822 118.258 212.501 118.842 215.947 119.264C217.687 119.496 219.624 119.728 220.123 119.921C220.123 119.96 220.162 120.037 220.162 120.076C220.239 120.231 220.278 120.385 220.359 120.617C220.587 121.275 220.939 122.319 221.206 123.441C221.284 123.557 221.322 123.711 221.361 123.866L221.516 124.407C221.593 124.755 221.674 125.065 221.786 125.336L222.289 127.347C222.289 127.424 222.289 127.501 222.328 127.698L222.37 127.891C222.482 128.159 222.525 128.429 222.563 128.704C222.563 128.82 222.563 128.893 222.598 129.048C222.637 129.322 222.637 129.516 222.637 129.67C222.637 130.135 222.679 130.483 222.831 130.908C222.869 130.947 222.869 130.985 222.869 131.02C223.024 131.449 223.298 131.72 223.527 132.026L223.569 132.068C223.604 132.142 223.681 132.223 223.681 132.223L223.797 132.378C223.84 132.455 223.875 132.571 223.994 132.687L224.068 132.842C224.188 133.035 224.261 133.228 224.377 133.499L224.416 133.654C224.532 133.886 224.571 134.114 224.648 134.35C225.306 136.825 225.074 143.786 224.458 145.333C224.416 145.414 224.377 145.488 224.377 145.488C223.952 145.604 223.488 145.913 222.869 146.381C222.679 146.532 222.482 146.687 222.173 146.883C222.138 146.957 222.057 146.996 221.941 147.038C221.864 147.112 221.829 147.151 221.748 147.193L221.361 147.46C221.206 147.58 221.052 147.653 220.897 147.773C220.742 147.85 220.587 147.963 220.471 148.044C220.162 148.198 219.891 148.388 219.543 148.543L218.809 148.972C218.074 149.358 216.875 149.703 215.483 150.051C215.328 150.051 215.173 150.093 215.019 150.128C214.903 150.167 214.748 150.206 214.516 150.248H214.4C214.284 150.283 214.206 150.283 214.168 150.322C212.544 150.673 210.877 150.905 209.798 151.06C209.988 150.128 210.068 149.126 210.068 148.079C210.068 138.875 202.601 131.369 193.397 131.369C184.228 131.369 176.764 138.875 176.764 148.079C176.764 149.126 176.845 150.128 177.035 151.173H96.8903C97.0837 150.012 97.1997 149.049 97.1997 148.079C97.1997 140.963 92.7136 134.853 86.4064 132.455L86.2939 133.457C92.0948 135.742 96.2329 141.466 96.2329 148.079C96.2329 149.126 96.1168 150.248 95.8075 151.563L95.6949 152.143H178.234L178.118 151.563C177.847 150.399 177.734 149.242 177.734 148.079C177.734 139.416 184.773 132.335 193.397 132.335C202.063 132.335 209.102 139.416 209.102 148.079C209.102 149.32 208.986 150.438 208.673 151.482L208.638 152.104H209.253C210.297 151.988 212.347 151.718 214.438 151.253C214.477 151.215 214.516 151.215 214.555 151.215C214.632 151.215 214.748 151.173 214.748 151.173C214.903 151.137 215.057 151.099 215.251 151.06C215.367 151.06 215.483 151.018 215.68 150.983C217.149 150.635 218.46 150.248 219.234 149.823L220.007 149.394C220.359 149.242 220.668 149.049 221.013 148.852C221.129 148.736 221.284 148.659 221.438 148.582C221.593 148.465 221.748 148.353 221.983 148.198L222.482 147.85C222.598 147.773 222.753 147.696 222.792 147.618C223.024 147.46 223.259 147.305 223.453 147.151C223.952 146.803 224.416 146.458 224.571 146.458L224.841 146.419L224.996 146.265C225.112 146.149 225.228 145.913 225.348 145.758C226.04 143.979 226.272 136.825 225.58 134.157V134.157ZM76.9667 132.764L76.6995 131.833C69.3481 133.573 63.8988 140.189 63.8988 148.079C63.8988 149.126 63.9726 150.128 64.1659 151.173H56.8181C54.7297 151.173 54.7297 151.173 52.4902 151.018L50.2437 150.905C49.2382 150.863 48.4225 150.635 47.8846 150.283C47.6878 150.093 47.5752 149.977 47.4979 149.858L47.4206 149.742C47.3784 149.629 47.3432 149.548 47.3045 149.475C47.2272 149.088 47.2659 148.698 47.3432 148.314C47.3784 148.233 47.4206 148.16 47.4206 148.079C47.4592 148.005 47.4592 147.963 47.4592 147.928C47.4592 147.889 47.4979 147.85 47.4979 147.85L47.5331 147.696C47.6526 147.495 47.7264 147.383 47.7264 147.383L47.846 147.305V147.151C47.8846 147.073 47.962 146.957 48.0007 146.803C48.0393 146.764 48.0393 146.729 48.078 146.648C48.1132 146.574 48.1553 146.458 48.1553 146.458C48.2678 146.226 48.3487 146.026 48.4225 145.72C48.4647 145.488 48.5034 145.259 48.5034 145.104C48.5034 143.825 48.5034 142.703 48.5807 141.62L48.5421 139.687C48.6194 139.416 48.6194 139.107 48.6194 138.875V138.449C48.6581 138.333 48.6581 138.182 48.6581 138.024C48.6581 137.827 48.6581 137.598 48.6932 137.289C48.6932 137.096 48.6932 136.902 48.7354 136.632C48.7354 136.554 48.7354 136.438 48.7741 136.357V136.048C48.8128 135.7 48.8479 135.394 48.8901 135.081C49.2804 132.181 50.0116 131.175 51.4777 129.168C51.7906 128.739 52.1387 128.275 52.4902 127.775C54.0723 125.529 64.3628 124.098 74.1084 123.054L73.8377 122.126C63.4312 123.209 53.5274 124.639 51.7133 127.192C51.3265 127.733 51.0171 128.201 50.7078 128.588C49.1995 130.672 48.3487 131.833 47.962 134.926C47.9233 135.278 47.846 135.587 47.8073 135.974V136.245C47.7686 136.4 47.7686 136.512 47.7686 136.554C47.7264 136.786 47.7264 137.057 47.7264 137.212C47.6878 137.525 47.6878 137.792 47.6878 138.024C47.6878 138.136 47.6878 138.256 47.6526 138.372V138.875C47.6526 139.068 47.6526 139.3 47.6139 139.609V141.62C47.5331 142.661 47.5331 143.825 47.5331 145.104C47.5331 145.217 47.5331 145.372 47.4979 145.565C47.4592 145.72 47.3784 145.836 47.2659 146.071C47.2659 146.149 47.2272 146.184 47.1885 146.265C47.1498 146.338 47.1112 146.419 47.0338 146.609L46.953 146.764C46.9178 146.803 46.8791 146.883 46.8791 146.919C46.8369 146.996 46.7631 147.112 46.6858 147.267C46.6436 147.305 46.6436 147.383 46.5698 147.58L46.4151 148.005C46.3377 148.508 46.2182 149.088 46.3764 149.703C46.4151 149.896 46.5311 150.051 46.5698 150.206L46.6436 150.322C46.7983 150.554 46.9916 150.789 47.3045 151.018C48.0007 151.563 48.9675 151.83 50.205 151.876L52.4094 151.988C54.7297 152.143 54.7297 152.143 56.8181 152.143H65.3683L65.2488 151.563C64.9816 150.399 64.8621 149.242 64.8621 148.079C64.8621 140.654 70.0091 134.385 76.9667 132.764V132.764ZM152.822 119.573C152.822 115.702 152.551 111.452 151.894 106.27H153.17C153.557 106.308 153.87 106.308 154.137 106.308C157.505 106.308 164.93 107.082 170.074 108.551C174.869 109.905 184.305 115.474 185.624 117.06C183.377 117.408 169.493 118.568 152.822 119.573ZM170.344 107.62C165.123 106.115 157.579 105.342 154.137 105.342C153.87 105.342 153.557 105.342 153.17 105.299H150.811L150.888 105.841C151.584 111.452 151.894 115.977 151.855 120.076V120.617L152.358 120.579C168.488 119.608 185.272 118.297 186.204 117.91C186.513 117.794 186.703 117.562 186.703 117.214C186.668 115.358 174.714 108.861 170.344 107.62V107.62ZM152.822 119.573C152.822 115.702 152.551 111.452 151.894 106.27H153.17C153.557 106.308 153.87 106.308 154.137 106.308C157.505 106.308 164.93 107.082 170.074 108.551C174.869 109.905 184.305 115.474 185.624 117.06C183.377 117.408 169.493 118.568 152.822 119.573ZM170.344 107.62C165.123 106.115 157.579 105.342 154.137 105.342C153.87 105.342 153.557 105.342 153.17 105.299H150.811L150.888 105.841C151.584 111.452 151.894 115.977 151.855 120.076V120.617L152.358 120.579C168.488 119.608 185.272 118.297 186.204 117.91C186.513 117.794 186.703 117.562 186.703 117.214C186.668 115.358 174.714 108.861 170.344 107.62V107.62ZM152.822 119.573C152.822 115.702 152.551 111.452 151.894 106.27H153.17C153.557 106.308 153.87 106.308 154.137 106.308C157.505 106.308 164.93 107.082 170.074 108.551C174.869 109.905 184.305 115.474 185.624 117.06C183.377 117.408 169.493 118.568 152.822 119.573ZM170.344 107.62C165.123 106.115 157.579 105.342 154.137 105.342C153.87 105.342 153.557 105.342 153.17 105.299H150.811L150.888 105.841C151.584 111.452 151.894 115.977 151.855 120.076V120.617L152.358 120.579C168.488 119.608 185.272 118.297 186.204 117.91C186.513 117.794 186.703 117.562 186.703 117.214C186.668 115.358 174.714 108.861 170.344 107.62V107.62ZM152.822 119.573C152.822 115.702 152.551 111.452 151.894 106.27H153.17C153.557 106.308 153.87 106.308 154.137 106.308C157.505 106.308 164.93 107.082 170.074 108.551C174.869 109.905 184.305 115.474 185.624 117.06C183.377 117.408 169.493 118.568 152.822 119.573ZM170.344 107.62C165.123 106.115 157.579 105.342 154.137 105.342C153.87 105.342 153.557 105.342 153.17 105.299H150.811L150.888 105.841C151.584 111.452 151.894 115.977 151.855 120.076V120.617L152.358 120.579C168.488 119.608 185.272 118.297 186.204 117.91C186.513 117.794 186.703 117.562 186.703 117.214C186.668 115.358 174.714 108.861 170.344 107.62V107.62ZM152.822 119.573C152.822 115.702 152.551 111.452 151.894 106.27H153.17C153.557 106.308 153.87 106.308 154.137 106.308C157.505 106.308 164.93 107.082 170.074 108.551C174.869 109.905 184.305 115.474 185.624 117.06C183.377 117.408 169.493 118.568 152.822 119.573Z" stroke="white" stroke-width="2"/>
<path d="M148.074 106.264C148.5 106.302 148.883 106.302 149.273 106.302V106.264H148.074ZM128.847 120.921C132.215 120.805 135.885 120.65 139.833 120.421C136.237 120.576 132.524 120.766 128.847 120.921Z" fill="white" stroke="white" stroke-width="2"/>
<path d="M145.721 120.06C144.986 120.099 144.177 120.138 143.404 120.176C142.201 120.254 141.002 120.335 139.842 120.37C135.894 120.602 132.224 120.757 128.856 120.873C128.082 120.911 127.347 120.911 126.577 120.953C125.607 120.989 124.679 121.027 123.789 121.066C122.591 121.108 121.43 121.147 120.27 121.182C119.149 121.182 118.027 121.221 116.983 121.221C115.552 121.263 114.156 121.263 112.884 121.263H112.609C112.571 121.221 112.536 121.182 112.497 121.147H112.729C113.151 121.147 113.928 120.953 114.083 119.519C114.156 118.865 114.353 117.237 114.353 115.922C114.353 114.917 113.46 114.414 112.497 114.34L115.397 112.945C115.939 112.67 116.48 112.403 117.022 112.171C117.83 111.823 118.607 111.475 119.381 111.127C120 110.818 120.618 110.543 121.237 110.315C124.408 108.923 127.193 107.801 128.972 107.179C129.169 107.105 129.362 107.024 129.552 106.989C129.865 106.869 130.132 106.796 130.367 106.715C130.522 106.676 130.638 106.641 130.712 106.641C130.986 106.602 131.331 106.56 131.721 106.486C132.61 106.405 133.732 106.332 134.931 106.293C136.861 106.216 139.262 106.177 142.127 106.177C144.177 106.177 146.262 106.216 148.083 106.216H149.282V106.251C149.936 111.32 150.207 115.764 150.207 119.79C148.663 119.867 147.194 119.987 145.721 120.06ZM111.681 119.79C111.101 119.519 110.637 119.364 110.293 119.596C109.983 119.79 109.941 120.06 109.983 120.215C109.983 120.602 110.331 120.911 110.831 121.221C110.057 121.221 109.322 121.221 108.665 121.182C106.151 121.147 104.337 120.989 103.251 120.795C103.328 120.679 103.448 120.602 103.521 120.525C105.107 119.21 106.731 117.817 108.82 116.619C109.361 116.309 109.829 116.077 110.25 115.845C110.873 115.574 111.414 115.381 112.261 115.304C112.261 115.304 113.386 115.304 113.386 115.922C113.386 117.199 113.193 118.784 113.116 119.403C113.038 120.176 112.806 120.176 112.729 120.176C112.416 120.176 111.991 119.987 111.681 119.79ZM151.096 116.232C151.096 115.381 151.022 114.53 150.984 113.602C150.829 111.166 150.555 108.536 150.207 105.709L150.133 105.284H149.707C147.5 105.245 144.831 105.207 142.127 105.207C136.246 105.207 132.456 105.365 130.561 105.674C129.903 105.79 127.892 106.521 125.182 107.608C124.331 107.956 123.368 108.339 122.355 108.768C114.547 112.094 103.831 117.199 101.433 120.022C101.201 120.335 101.201 120.602 101.24 120.757C101.278 120.989 101.433 121.147 101.626 121.263C101.781 121.375 101.936 121.453 102.013 121.453C102.09 121.491 102.206 121.53 102.322 121.569C103.367 121.878 105.378 122.075 108.626 122.149C109.709 122.187 110.873 122.23 112.149 122.23H112.884C123.325 122.23 139.224 121.414 150.709 120.718L151.177 120.679V120.215C151.177 118.939 151.177 117.624 151.096 116.232Z" fill="white"/>
<path d="M151.096 116.232C151.096 115.381 151.022 114.53 150.984 113.602C150.829 111.166 150.555 108.536 150.207 105.709L150.133 105.284H149.707C147.5 105.245 144.831 105.207 142.127 105.207C136.246 105.207 132.456 105.365 130.561 105.674C129.903 105.79 127.892 106.521 125.182 107.608C124.331 107.956 123.368 108.339 122.355 108.768C114.547 112.094 103.831 117.199 101.433 120.022C101.201 120.335 101.201 120.602 101.24 120.757C101.278 120.989 101.433 121.147 101.626 121.263C101.781 121.375 101.936 121.453 102.013 121.453C102.09 121.491 102.206 121.53 102.322 121.569C103.367 121.878 105.378 122.075 108.626 122.149C109.709 122.187 110.873 122.23 112.149 122.23H112.884C123.325 122.23 139.224 121.414 150.709 120.718L151.177 120.679V120.215C151.177 118.939 151.177 117.624 151.096 116.232M145.721 120.06C144.986 120.099 144.177 120.138 143.404 120.176C142.201 120.254 141.002 120.335 139.842 120.37C135.894 120.602 132.224 120.757 128.856 120.873C128.082 120.911 127.347 120.911 126.577 120.953C125.607 120.989 124.679 121.027 123.789 121.066C122.591 121.108 121.43 121.147 120.27 121.182C119.149 121.182 118.027 121.221 116.983 121.221C115.552 121.263 114.156 121.263 112.884 121.263H112.609C112.571 121.221 112.536 121.182 112.497 121.147H112.729C113.151 121.147 113.928 120.953 114.083 119.519C114.156 118.865 114.353 117.237 114.353 115.922C114.353 114.917 113.46 114.414 112.497 114.34L115.397 112.945C115.939 112.67 116.48 112.403 117.022 112.171C117.83 111.823 118.607 111.475 119.381 111.127C120 110.818 120.618 110.543 121.237 110.315C124.408 108.923 127.193 107.801 128.972 107.179C129.169 107.105 129.362 107.024 129.552 106.989C129.865 106.869 130.132 106.796 130.367 106.715C130.522 106.676 130.638 106.641 130.712 106.641C130.986 106.602 131.331 106.56 131.721 106.486C132.61 106.405 133.732 106.332 134.931 106.293C136.861 106.216 139.262 106.177 142.127 106.177C144.177 106.177 146.262 106.216 148.083 106.216H149.282V106.251C149.936 111.32 150.207 115.764 150.207 119.79C148.663 119.867 147.194 119.987 145.721 120.06V120.06ZM111.681 119.79C111.101 119.519 110.637 119.364 110.293 119.596C109.983 119.79 109.941 120.06 109.983 120.215C109.983 120.602 110.331 120.911 110.831 121.221C110.057 121.221 109.322 121.221 108.665 121.182C106.151 121.147 104.337 120.989 103.251 120.795C103.328 120.679 103.448 120.602 103.521 120.525C105.107 119.21 106.731 117.817 108.82 116.619C109.361 116.309 109.829 116.077 110.25 115.845C110.873 115.574 111.414 115.381 112.261 115.304C112.261 115.304 113.386 115.304 113.386 115.922C113.386 117.199 113.193 118.784 113.116 119.403C113.038 120.176 112.806 120.176 112.729 120.176C112.416 120.176 111.991 119.987 111.681 119.79V119.79Z" stroke="white" stroke-width="2"/>
<path d="M48.9261 134.622L49.2882 134.633C50.0722 134.661 50.8597 134.682 51.6402 134.682C53.1871 134.682 54.4 134.58 55.4583 134.362C58.0318 133.75 58.9107 131.743 59.5857 129.31C57.6908 129.19 55.8169 129.173 54.3578 129.173C53.4824 129.173 52.6035 129.18 51.7281 129.187H51.489L51.3976 129.317C50.0511 131.166 49.3304 132.151 48.9261 134.622ZM51.6402 135.649C50.8492 135.649 50.0511 135.628 49.26 135.6L47.8186 135.561L47.8889 135.027C48.3108 131.912 49.1757 130.72 50.6136 128.744L50.9933 128.224L51.7175 128.22C52.5965 128.213 53.4789 128.206 54.3578 128.206C55.9856 128.206 58.1197 128.227 60.2432 128.385L60.8197 128.431L60.6756 128.99C59.9197 131.873 58.967 134.52 55.6692 135.304C54.5301 135.54 53.2539 135.649 51.6402 135.649Z" fill="white"/>
<path d="M51.6402 135.649C50.8492 135.649 50.0511 135.628 49.26 135.6L47.8186 135.561L47.8889 135.027C48.3108 131.912 49.1757 130.72 50.6136 128.744L50.9933 128.224L51.7175 128.22C52.5965 128.213 53.4789 128.206 54.3578 128.206C55.9856 128.206 58.1197 128.227 60.2432 128.385L60.8197 128.431L60.6756 128.99C59.9197 131.873 58.967 134.52 55.6692 135.304C54.5301 135.54 53.2539 135.649 51.6402 135.649M48.9261 134.622L49.2882 134.633C50.0722 134.661 50.8597 134.682 51.6402 134.682C53.1871 134.682 54.4 134.58 55.4583 134.362C58.0318 133.75 58.9107 131.743 59.5857 129.31C57.6908 129.19 55.8169 129.173 54.3578 129.173C53.4824 129.173 52.6035 129.18 51.7281 129.187H51.489L51.3976 129.317C50.0511 131.166 49.3304 132.151 48.9261 134.622V134.622Z" stroke="white" stroke-width="2"/>
<path d="M78.5518 145.218L72.7509 143.327C74.0658 141.158 76.1928 139.65 78.5518 139.147V145.218ZM78.935 138.103C75.8799 138.528 73.1376 140.5 71.5907 143.366L71.3165 143.865L76.3475 145.489L78.1651 146.111L79.5151 146.533V138.025L78.935 138.103ZM82.609 145.218V139.147C85.0102 139.688 87.0986 141.193 88.3748 143.327L82.609 145.218ZM89.535 143.366C88.0654 140.581 85.3196 138.605 82.2258 138.103L81.6457 137.983V146.533L89.8057 143.865L89.535 143.366ZM80.5593 146.611C79.7507 146.611 79.1319 147.268 79.1319 148.08C79.1319 148.815 79.7894 149.476 80.5593 149.476C81.3363 149.476 81.9937 148.815 81.9937 148.08C81.9937 147.268 81.375 146.611 80.5593 146.611ZM73.6755 154.039C72.206 152.376 71.3938 150.285 71.3938 148.08C71.3938 147.774 71.436 147.461 71.4712 147.194L75.4158 148.467L77.3108 149.089L73.6755 154.039ZM70.7012 145.915L70.5817 146.46C70.5043 146.959 70.427 147.497 70.427 148.08C70.427 150.752 71.4712 153.262 73.4048 155.161L73.7915 155.548L76.8854 151.255L78.0104 149.743L78.819 148.544L70.7012 145.915ZM87.4853 154.039L83.9274 149.205L83.85 149.089L89.651 147.229C89.6896 147.497 89.6896 147.774 89.6896 148.08C89.6896 150.323 88.9549 152.376 87.4853 154.039ZM90.5404 146.495L90.4244 145.953L82.3418 148.544L87.3693 155.548L87.7947 155.161C89.651 153.224 90.6565 150.71 90.6565 148.08C90.6565 147.539 90.6213 146.997 90.5404 146.495ZM76.9627 156.472L80.5593 151.483L84.1594 156.437C81.8004 157.478 79.1706 157.443 76.9627 156.472ZM82.5351 152.489L80.5593 149.824L75.4967 156.824L75.9959 157.095C77.4303 157.829 78.935 158.181 80.5593 158.181C82.1097 158.181 83.6567 157.787 85.1262 157.095L85.629 156.824L82.5351 152.489ZM87.4853 154.039L83.9274 149.205L83.85 149.089L89.651 147.229C89.6896 147.497 89.6896 147.774 89.6896 148.08C89.6896 150.323 88.9549 152.376 87.4853 154.039ZM90.5404 146.495L90.4244 145.953L82.3418 148.544L87.3693 155.548L87.7947 155.161C89.651 153.224 90.6565 150.71 90.6565 148.08C90.6565 147.539 90.6213 146.997 90.5404 146.495ZM82.609 145.218V139.147C85.0102 139.688 87.0986 141.193 88.3748 143.327L82.609 145.218ZM89.535 143.366C88.0654 140.581 85.3196 138.605 82.2258 138.103L81.6457 137.983V146.533L89.8057 143.865L89.535 143.366ZM76.9627 156.472L80.5593 151.483L84.1594 156.437C81.8004 157.478 79.1706 157.443 76.9627 156.472ZM82.5351 152.489L80.5593 149.824L75.4967 156.824L75.9959 157.095C77.4303 157.829 78.935 158.181 80.5593 158.181C82.1097 158.181 83.6567 157.787 85.1262 157.095L85.629 156.824L82.5351 152.489ZM80.5593 146.611C79.7507 146.611 79.1319 147.268 79.1319 148.08C79.1319 148.815 79.7894 149.476 80.5593 149.476C81.3363 149.476 81.9937 148.815 81.9937 148.08C81.9937 147.268 81.375 146.611 80.5593 146.611ZM78.5518 145.218L72.7509 143.327C74.0658 141.158 76.1928 139.65 78.5518 139.147V145.218ZM78.935 138.103C75.8799 138.528 73.1376 140.5 71.5907 143.366L71.3165 143.865L76.3475 145.489L78.1651 146.111L79.5151 146.533V138.025L78.935 138.103ZM73.6755 154.039C72.206 152.376 71.3938 150.285 71.3938 148.08C71.3938 147.774 71.436 147.461 71.4712 147.194L75.4158 148.467L77.3108 149.089L73.6755 154.039ZM70.7012 145.915L70.5817 146.46C70.5043 146.959 70.427 147.497 70.427 148.08C70.427 150.752 71.4712 153.262 73.4048 155.161L73.7915 155.548L76.8854 151.255L78.0104 149.743L78.819 148.544L70.7012 145.915ZM73.6755 154.039C72.206 152.376 71.3938 150.285 71.3938 148.08C71.3938 147.774 71.436 147.461 71.4712 147.194L75.4158 148.467L77.3108 149.089L73.6755 154.039ZM70.7012 145.915L70.5817 146.46C70.5043 146.959 70.427 147.497 70.427 148.08C70.427 150.752 71.4712 153.262 73.4048 155.161L73.7915 155.548L76.8854 151.255L78.0104 149.743L78.819 148.544L70.7012 145.915ZM78.5518 145.218L72.7509 143.327C74.0658 141.158 76.1928 139.65 78.5518 139.147V145.218ZM78.935 138.103C75.8799 138.528 73.1376 140.5 71.5907 143.366L71.3165 143.865L76.3475 145.489L78.1651 146.111L79.5151 146.533V138.025L78.935 138.103ZM80.5593 146.611C79.7507 146.611 79.1319 147.268 79.1319 148.08C79.1319 148.815 79.7894 149.476 80.5593 149.476C81.3363 149.476 81.9937 148.815 81.9937 148.08C81.9937 147.268 81.375 146.611 80.5593 146.611ZM76.9627 156.472L80.5593 151.483L84.1594 156.437C81.8004 157.478 79.1706 157.443 76.9627 156.472ZM82.5351 152.489L80.5593 149.824L75.4967 156.824L75.9959 157.095C77.4303 157.829 78.935 158.181 80.5593 158.181C82.1097 158.181 83.6567 157.787 85.1262 157.095L85.629 156.824L82.5351 152.489ZM82.609 145.218V139.147C85.0102 139.688 87.0986 141.193 88.3748 143.327L82.609 145.218ZM89.535 143.366C88.0654 140.581 85.3196 138.605 82.2258 138.103L81.6457 137.983V146.533L89.8057 143.865L89.535 143.366ZM87.4853 154.039L83.9274 149.205L83.85 149.089L89.651 147.229C89.6896 147.497 89.6896 147.774 89.6896 148.08C89.6896 150.323 88.9549 152.376 87.4853 154.039ZM90.5404 146.495L90.4244 145.953L82.3418 148.544L87.3693 155.548L87.7947 155.161C89.651 153.224 90.6565 150.71 90.6565 148.08C90.6565 147.539 90.6213 146.997 90.5404 146.495ZM87.4853 154.039L83.9274 149.205L83.85 149.089L89.651 147.229C89.6896 147.497 89.6896 147.774 89.6896 148.08C89.6896 150.323 88.9549 152.376 87.4853 154.039ZM90.5404 146.495L90.4244 145.953L82.3418 148.544L87.3693 155.548L87.7947 155.161C89.651 153.224 90.6565 150.71 90.6565 148.08C90.6565 147.539 90.6213 146.997 90.5404 146.495ZM82.609 145.218V139.147C85.0102 139.688 87.0986 141.193 88.3748 143.327L82.609 145.218ZM89.535 143.366C88.0654 140.581 85.3196 138.605 82.2258 138.103L81.6457 137.983V146.533L89.8057 143.865L89.535 143.366ZM76.9627 156.472L80.5593 151.483L84.1594 156.437C81.8004 157.478 79.1706 157.443 76.9627 156.472ZM82.5351 152.489L80.5593 149.824L75.4967 156.824L75.9959 157.095C77.4303 157.829 78.935 158.181 80.5593 158.181C82.1097 158.181 83.6567 157.787 85.1262 157.095L85.629 156.824L82.5351 152.489ZM80.5593 146.611C79.7507 146.611 79.1319 147.268 79.1319 148.08C79.1319 148.815 79.7894 149.476 80.5593 149.476C81.3363 149.476 81.9937 148.815 81.9937 148.08C81.9937 147.268 81.375 146.611 80.5593 146.611ZM78.5518 145.218L72.7509 143.327C74.0658 141.158 76.1928 139.65 78.5518 139.147V145.218ZM78.935 138.103C75.8799 138.528 73.1376 140.5 71.5907 143.366L71.3165 143.865L76.3475 145.489L78.1651 146.111L79.5151 146.533V138.025L78.935 138.103ZM73.6755 154.039C72.206 152.376 71.3938 150.285 71.3938 148.08C71.3938 147.774 71.436 147.461 71.4712 147.194L75.4158 148.467L77.3108 149.089L73.6755 154.039ZM70.7012 145.915L70.5817 146.46C70.5043 146.959 70.427 147.497 70.427 148.08C70.427 150.752 71.4712 153.262 73.4048 155.161L73.7915 155.548L76.8854 151.255L78.0104 149.743L78.819 148.544L70.7012 145.915ZM73.6755 154.039C72.206 152.376 71.3938 150.285 71.3938 148.08C71.3938 147.774 71.436 147.461 71.4712 147.194L75.4158 148.467L77.3108 149.089L73.6755 154.039ZM70.7012 145.915L70.5817 146.46C70.5043 146.959 70.427 147.497 70.427 148.08C70.427 150.752 71.4712 153.262 73.4048 155.161L73.7915 155.548L76.8854 151.255L78.0104 149.743L78.819 148.544L70.7012 145.915ZM78.5518 145.218L72.7509 143.327C74.0658 141.158 76.1928 139.65 78.5518 139.147V145.218ZM78.935 138.103C75.8799 138.528 73.1376 140.5 71.5907 143.366L71.3165 143.865L76.3475 145.489L78.1651 146.111L79.5151 146.533V138.025L78.935 138.103ZM80.5593 146.611C79.7507 146.611 79.1319 147.268 79.1319 148.08C79.1319 148.815 79.7894 149.476 80.5593 149.476C81.3363 149.476 81.9937 148.815 81.9937 148.08C81.9937 147.268 81.375 146.611 80.5593 146.611ZM76.9627 156.472L80.5593 151.483L84.1594 156.437C81.8004 157.478 79.1706 157.443 76.9627 156.472ZM82.5351 152.489L80.5593 149.824L75.4967 156.824L75.9959 157.095C77.4303 157.829 78.935 158.181 80.5593 158.181C82.1097 158.181 83.6567 157.787 85.1262 157.095L85.629 156.824L82.5351 152.489ZM82.609 145.218V139.147C85.0102 139.688 87.0986 141.193 88.3748 143.327L82.609 145.218ZM89.535 143.366C88.0654 140.581 85.3196 138.605 82.2258 138.103L81.6457 137.983V146.533L89.8057 143.865L89.535 143.366ZM87.4853 154.039L83.9274 149.205L83.85 149.089L89.651 147.229C89.6896 147.497 89.6896 147.774 89.6896 148.08C89.6896 150.323 88.9549 152.376 87.4853 154.039ZM90.5404 146.495L90.4244 145.953L82.3418 148.544L87.3693 155.548L87.7947 155.161C89.651 153.224 90.6565 150.71 90.6565 148.08C90.6565 147.539 90.6213 146.997 90.5404 146.495ZM87.4853 154.039L83.9274 149.205L83.85 149.089L89.651 147.229C89.6896 147.497 89.6896 147.774 89.6896 148.08C89.6896 150.323 88.9549 152.376 87.4853 154.039ZM90.5404 146.495L90.4244 145.953L82.3418 148.544L87.3693 155.548L87.7947 155.161C89.651 153.224 90.6565 150.71 90.6565 148.08C90.6565 147.539 90.6213 146.997 90.5404 146.495ZM82.609 145.218V139.147C85.0102 139.688 87.0986 141.193 88.3748 143.327L82.609 145.218ZM89.535 143.366C88.0654 140.581 85.3196 138.605 82.2258 138.103L81.6457 137.983V146.533L89.8057 143.865L89.535 143.366ZM76.9627 156.472L80.5593 151.483L84.1594 156.437C81.8004 157.478 79.1706 157.443 76.9627 156.472ZM82.5351 152.489L80.5593 149.824L75.4967 156.824L75.9959 157.095C77.4303 157.829 78.935 158.181 80.5593 158.181C82.1097 158.181 83.6567 157.787 85.1262 157.095L85.629 156.824L82.5351 152.489ZM80.5593 146.611C79.7507 146.611 79.1319 147.268 79.1319 148.08C79.1319 148.815 79.7894 149.476 80.5593 149.476C81.3363 149.476 81.9937 148.815 81.9937 148.08C81.9937 147.268 81.375 146.611 80.5593 146.611ZM78.5518 145.218L72.7509 143.327C74.0658 141.158 76.1928 139.65 78.5518 139.147V145.218ZM78.935 138.103C75.8799 138.528 73.1376 140.5 71.5907 143.366L71.3165 143.865L76.3475 145.489L78.1651 146.111L79.5151 146.533V138.025L78.935 138.103ZM73.6755 154.039C72.206 152.376 71.3938 150.285 71.3938 148.08C71.3938 147.774 71.436 147.461 71.4712 147.194L75.4158 148.467L77.3108 149.089L73.6755 154.039ZM70.7012 145.915L70.5817 146.46C70.5043 146.959 70.427 147.497 70.427 148.08C70.427 150.752 71.4712 153.262 73.4048 155.161L73.7915 155.548L76.8854 151.255L78.0104 149.743L78.819 148.544L70.7012 145.915ZM73.6755 154.039C72.206 152.376 71.3938 150.285 71.3938 148.08C71.3938 147.774 71.436 147.461 71.4712 147.194L75.4158 148.467L77.3108 149.089L73.6755 154.039ZM70.7012 145.915L70.5817 146.46C70.5043 146.959 70.427 147.497 70.427 148.08C70.427 150.752 71.4712 153.262 73.4048 155.161L73.7915 155.548L76.8854 151.255L78.0104 149.743L78.819 148.544L70.7012 145.915ZM78.5518 145.218L72.7509 143.327C74.0658 141.158 76.1928 139.65 78.5518 139.147V145.218ZM78.935 138.103C75.8799 138.528 73.1376 140.5 71.5907 143.366L71.3165 143.865L76.3475 145.489L78.1651 146.111L79.5151 146.533V138.025L78.935 138.103ZM80.5593 146.611C79.7507 146.611 79.1319 147.268 79.1319 148.08C79.1319 148.815 79.7894 149.476 80.5593 149.476C81.3363 149.476 81.9937 148.815 81.9937 148.08C81.9937 147.268 81.375 146.611 80.5593 146.611ZM76.9627 156.472L80.5593 151.483L84.1594 156.437C81.8004 157.478 79.1706 157.443 76.9627 156.472ZM82.5351 152.489L80.5593 149.824L75.4967 156.824L75.9959 157.095C77.4303 157.829 78.935 158.181 80.5593 158.181C82.1097 158.181 83.6567 157.787 85.1262 157.095L85.629 156.824L82.5351 152.489ZM82.609 145.218V139.147C85.0102 139.688 87.0986 141.193 88.3748 143.327L82.609 145.218ZM89.535 143.366C88.0654 140.581 85.3196 138.605 82.2258 138.103L81.6457 137.983V146.533L89.8057 143.865L89.535 143.366ZM87.4853 154.039L83.9274 149.205L83.85 149.089L89.651 147.229C89.6896 147.497 89.6896 147.774 89.6896 148.08C89.6896 150.323 88.9549 152.376 87.4853 154.039ZM90.5404 146.495L90.4244 145.953L82.3418 148.544L87.3693 155.548L87.7947 155.161C89.651 153.224 90.6565 150.71 90.6565 148.08C90.6565 147.539 90.6213 146.997 90.5404 146.495ZM87.4853 154.039L83.9274 149.205L83.85 149.089L89.651 147.229C89.6896 147.497 89.6896 147.774 89.6896 148.08C89.6896 150.323 88.9549 152.376 87.4853 154.039ZM90.5404 146.495L90.4244 145.953L82.3418 148.544L87.3693 155.548L87.7947 155.161C89.651 153.224 90.6565 150.71 90.6565 148.08C90.6565 147.539 90.6213 146.997 90.5404 146.495ZM82.609 145.218V139.147C85.0102 139.688 87.0986 141.193 88.3748 143.327L82.609 145.218ZM89.535 143.366C88.0654 140.581 85.3196 138.605 82.2258 138.103L81.6457 137.983V146.533L89.8057 143.865L89.535 143.366ZM76.9627 156.472L80.5593 151.483L84.1594 156.437C81.8004 157.478 79.1706 157.443 76.9627 156.472ZM82.5351 152.489L80.5593 149.824L75.4967 156.824L75.9959 157.095C77.4303 157.829 78.935 158.181 80.5593 158.181C82.1097 158.181 83.6567 157.787 85.1262 157.095L85.629 156.824L82.5351 152.489ZM80.5593 146.611C79.7507 146.611 79.1319 147.268 79.1319 148.08C79.1319 148.815 79.7894 149.476 80.5593 149.476C81.3363 149.476 81.9937 148.815 81.9937 148.08C81.9937 147.268 81.375 146.611 80.5593 146.611ZM78.5518 145.218L72.7509 143.327C74.0658 141.158 76.1928 139.65 78.5518 139.147V145.218ZM78.935 138.103C75.8799 138.528 73.1376 140.5 71.5907 143.366L71.3165 143.865L76.3475 145.489L78.1651 146.111L79.5151 146.533V138.025L78.935 138.103ZM73.6755 154.039C72.206 152.376 71.3938 150.285 71.3938 148.08C71.3938 147.774 71.436 147.461 71.4712 147.194L75.4158 148.467L77.3108 149.089L73.6755 154.039ZM70.7012 145.915L70.5817 146.46C70.5043 146.959 70.427 147.497 70.427 148.08C70.427 150.752 71.4712 153.262 73.4048 155.161L73.7915 155.548L76.8854 151.255L78.0104 149.743L78.819 148.544L70.7012 145.915ZM73.6755 154.039C72.206 152.376 71.3938 150.285 71.3938 148.08C71.3938 147.774 71.436 147.461 71.4712 147.194L75.4158 148.467L77.3108 149.089L73.6755 154.039ZM70.7012 145.915L70.5817 146.46C70.5043 146.959 70.427 147.497 70.427 148.08C70.427 150.752 71.4712 153.262 73.4048 155.161L73.7915 155.548L76.8854 151.255L78.0104 149.743L78.819 148.544L70.7012 145.915ZM78.5518 145.218L72.7509 143.327C74.0658 141.158 76.1928 139.65 78.5518 139.147V145.218ZM78.935 138.103C75.8799 138.528 73.1376 140.5 71.5907 143.366L71.3165 143.865L76.3475 145.489L78.1651 146.111L79.5151 146.533V138.025L78.935 138.103ZM80.5593 146.611C79.7507 146.611 79.1319 147.268 79.1319 148.08C79.1319 148.815 79.7894 149.476 80.5593 149.476C81.3363 149.476 81.9937 148.815 81.9937 148.08C81.9937 147.268 81.375 146.611 80.5593 146.611ZM76.9627 156.472L80.5593 151.483L84.1594 156.437C81.8004 157.478 79.1706 157.443 76.9627 156.472ZM82.5351 152.489L80.5593 149.824L75.4967 156.824L75.9959 157.095C77.4303 157.829 78.935 158.181 80.5593 158.181C82.1097 158.181 83.6567 157.787 85.1262 157.095L85.629 156.824L82.5351 152.489ZM82.609 145.218V139.147C85.0102 139.688 87.0986 141.193 88.3748 143.327L82.609 145.218ZM89.535 143.366C88.0654 140.581 85.3196 138.605 82.2258 138.103L81.6457 137.983V146.533L89.8057 143.865L89.535 143.366ZM87.4853 154.039L83.9274 149.205L83.85 149.089L89.651 147.229C89.6896 147.497 89.6896 147.774 89.6896 148.08C89.6896 150.323 88.9549 152.376 87.4853 154.039ZM90.5404 146.495L90.4244 145.953L82.3418 148.544L87.3693 155.548L87.7947 155.161C89.651 153.224 90.6565 150.71 90.6565 148.08C90.6565 147.539 90.6213 146.997 90.5404 146.495ZM87.4853 154.039L83.9274 149.205L83.85 149.089L89.651 147.229C89.6896 147.497 89.6896 147.774 89.6896 148.08C89.6896 150.323 88.9549 152.376 87.4853 154.039ZM90.5404 146.495L90.4244 145.953L82.3418 148.544L87.3693 155.548L87.7947 155.161C89.651 153.224 90.6565 150.71 90.6565 148.08C90.6565 147.539 90.6213 146.997 90.5404 146.495ZM82.609 145.218V139.147C85.0102 139.688 87.0986 141.193 88.3748 143.327L82.609 145.218ZM89.535 143.366C88.0654 140.581 85.3196 138.605 82.2258 138.103L81.6457 137.983V146.533L89.8057 143.865L89.535 143.366ZM76.9627 156.472L80.5593 151.483L84.1594 156.437C81.8004 157.478 79.1706 157.443 76.9627 156.472ZM82.5351 152.489L80.5593 149.824L75.4967 156.824L75.9959 157.095C77.4303 157.829 78.935 158.181 80.5593 158.181C82.1097 158.181 83.6567 157.787 85.1262 157.095L85.629 156.824L82.5351 152.489ZM80.5593 146.611C79.7507 146.611 79.1319 147.268 79.1319 148.08C79.1319 148.815 79.7894 149.476 80.5593 149.476C81.3363 149.476 81.9937 148.815 81.9937 148.08C81.9937 147.268 81.375 146.611 80.5593 146.611ZM78.5518 145.218L72.7509 143.327C74.0658 141.158 76.1928 139.65 78.5518 139.147V145.218ZM78.935 138.103C75.8799 138.528 73.1376 140.5 71.5907 143.366L71.3165 143.865L76.3475 145.489L78.1651 146.111L79.5151 146.533V138.025L78.935 138.103ZM73.6755 154.039C72.206 152.376 71.3938 150.285 71.3938 148.08C71.3938 147.774 71.436 147.461 71.4712 147.194L75.4158 148.467L77.3108 149.089L73.6755 154.039ZM70.7012 145.915L70.5817 146.46C70.5043 146.959 70.427 147.497 70.427 148.08C70.427 150.752 71.4712 153.262 73.4048 155.161L73.7915 155.548L76.8854 151.255L78.0104 149.743L78.819 148.544L70.7012 145.915ZM73.6755 154.039C72.206 152.376 71.3938 150.285 71.3938 148.08C71.3938 147.774 71.436 147.461 71.4712 147.194L75.4158 148.467L77.3108 149.089L73.6755 154.039ZM70.7012 145.915L70.5817 146.46C70.5043 146.959 70.427 147.497 70.427 148.08C70.427 150.752 71.4712 153.262 73.4048 155.161L73.7915 155.548L76.8854 151.255L78.0104 149.743L78.819 148.544L70.7012 145.915ZM78.5518 145.218L72.7509 143.327C74.0658 141.158 76.1928 139.65 78.5518 139.147V145.218ZM78.935 138.103C75.8799 138.528 73.1376 140.5 71.5907 143.366L71.3165 143.865L76.3475 145.489L78.1651 146.111L79.5151 146.533V138.025L78.935 138.103ZM80.5593 146.611C79.7507 146.611 79.1319 147.268 79.1319 148.08C79.1319 148.815 79.7894 149.476 80.5593 149.476C81.3363 149.476 81.9937 148.815 81.9937 148.08C81.9937 147.268 81.375 146.611 80.5593 146.611ZM76.9627 156.472L80.5593 151.483L84.1594 156.437C81.8004 157.478 79.1706 157.443 76.9627 156.472ZM82.5351 152.489L80.5593 149.824L75.4967 156.824L75.9959 157.095C77.4303 157.829 78.935 158.181 80.5593 158.181C82.1097 158.181 83.6567 157.787 85.1262 157.095L85.629 156.824L82.5351 152.489ZM82.609 145.218V139.147C85.0102 139.688 87.0986 141.193 88.3748 143.327L82.609 145.218ZM89.535 143.366C88.0654 140.581 85.3196 138.605 82.2258 138.103L81.6457 137.983V146.533L89.8057 143.865L89.535 143.366ZM87.4853 154.039L83.9274 149.205L83.85 149.089L89.651 147.229C89.6896 147.497 89.6896 147.774 89.6896 148.08C89.6896 150.323 88.9549 152.376 87.4853 154.039ZM90.5404 146.495L90.4244 145.953L82.3418 148.544L87.3693 155.548L87.7947 155.161C89.651 153.224 90.6565 150.71 90.6565 148.08C90.6565 147.539 90.6213 146.997 90.5404 146.495ZM87.4853 154.039L83.9274 149.205L83.85 149.089L89.651 147.229C89.6896 147.497 89.6896 147.774 89.6896 148.08C89.6896 150.323 88.9549 152.376 87.4853 154.039ZM90.5404 146.495L90.4244 145.953L82.3418 148.544L87.3693 155.548L87.7947 155.161C89.651 153.224 90.6565 150.71 90.6565 148.08C90.6565 147.539 90.6213 146.997 90.5404 146.495ZM82.609 145.218V139.147C85.0102 139.688 87.0986 141.193 88.3748 143.327L82.609 145.218ZM89.535 143.366C88.0654 140.581 85.3196 138.605 82.2258 138.103L81.6457 137.983V146.533L89.8057 143.865L89.535 143.366ZM76.9627 156.472L80.5593 151.483L84.1594 156.437C81.8004 157.478 79.1706 157.443 76.9627 156.472ZM82.5351 152.489L80.5593 149.824L75.4967 156.824L75.9959 157.095C77.4303 157.829 78.935 158.181 80.5593 158.181C82.1097 158.181 83.6567 157.787 85.1262 157.095L85.629 156.824L82.5351 152.489ZM80.5593 146.611C79.7507 146.611 79.1319 147.268 79.1319 148.08C79.1319 148.815 79.7894 149.476 80.5593 149.476C81.3363 149.476 81.9937 148.815 81.9937 148.08C81.9937 147.268 81.375 146.611 80.5593 146.611ZM78.5518 145.218L72.7509 143.327C74.0658 141.158 76.1928 139.65 78.5518 139.147V145.218ZM78.935 138.103C75.8799 138.528 73.1376 140.5 71.5907 143.366L71.3165 143.865L76.3475 145.489L78.1651 146.111L79.5151 146.533V138.025L78.935 138.103ZM73.6755 154.039C72.206 152.376 71.3938 150.285 71.3938 148.08C71.3938 147.774 71.436 147.461 71.4712 147.194L75.4158 148.467L77.3108 149.089L73.6755 154.039ZM70.7012 145.915L70.5817 146.46C70.5043 146.959 70.427 147.497 70.427 148.08C70.427 150.752 71.4712 153.262 73.4048 155.161L73.7915 155.548L76.8854 151.255L78.0104 149.743L78.819 148.544L70.7012 145.915ZM73.6755 154.039C72.206 152.376 71.3938 150.285 71.3938 148.08C71.3938 147.774 71.436 147.461 71.4712 147.194L75.4158 148.467L77.3108 149.089L73.6755 154.039ZM70.7012 145.915L70.5817 146.46C70.5043 146.959 70.427 147.497 70.427 148.08C70.427 150.752 71.4712 153.262 73.4048 155.161L73.7915 155.548L76.8854 151.255L78.0104 149.743L78.819 148.544L70.7012 145.915ZM78.5518 145.218L72.7509 143.327C74.0658 141.158 76.1928 139.65 78.5518 139.147V145.218ZM78.935 138.103C75.8799 138.528 73.1376 140.5 71.5907 143.366L71.3165 143.865L76.3475 145.489L78.1651 146.111L79.5151 146.533V138.025L78.935 138.103ZM80.5593 146.611C79.7507 146.611 79.1319 147.268 79.1319 148.08C79.1319 148.815 79.7894 149.476 80.5593 149.476C81.3363 149.476 81.9937 148.815 81.9937 148.08C81.9937 147.268 81.375 146.611 80.5593 146.611ZM76.9627 156.472L80.5593 151.483L84.1594 156.437C81.8004 157.478 79.1706 157.443 76.9627 156.472ZM82.5351 152.489L80.5593 149.824L75.4967 156.824L75.9959 157.095C77.4303 157.829 78.935 158.181 80.5593 158.181C82.1097 158.181 83.6567 157.787 85.1262 157.095L85.629 156.824L82.5351 152.489ZM82.609 145.218V139.147C85.0102 139.688 87.0986 141.193 88.3748 143.327L82.609 145.218ZM89.535 143.366C88.0654 140.581 85.3196 138.605 82.2258 138.103L81.6457 137.983V146.533L89.8057 143.865L89.535 143.366ZM87.4853 154.039L83.9274 149.205L83.85 149.089L89.651 147.229C89.6896 147.497 89.6896 147.774 89.6896 148.08C89.6896 150.323 88.9549 152.376 87.4853 154.039ZM90.5404 146.495L90.4244 145.953L82.3418 148.544L87.3693 155.548L87.7947 155.161C89.651 153.224 90.6565 150.71 90.6565 148.08C90.6565 147.539 90.6213 146.997 90.5404 146.495ZM73.6755 154.039C72.206 152.376 71.3938 150.285 71.3938 148.08C71.3938 147.774 71.436 147.461 71.4712 147.194L75.4158 148.467L77.3108 149.089L73.6755 154.039ZM70.7012 145.915L70.5817 146.46C70.5043 146.959 70.427 147.497 70.427 148.08C70.427 150.752 71.4712 153.262 73.4048 155.161L73.7915 155.548L76.8854 151.255L78.0104 149.743L78.819 148.544L70.7012 145.915ZM78.5518 145.218L72.7509 143.327C74.0658 141.158 76.1928 139.65 78.5518 139.147V145.218ZM78.935 138.103C75.8799 138.528 73.1376 140.5 71.5907 143.366L71.3165 143.865L76.3475 145.489L78.1651 146.111L79.5151 146.533V138.025L78.935 138.103ZM80.5593 146.611C79.7507 146.611 79.1319 147.268 79.1319 148.08C79.1319 148.815 79.7894 149.476 80.5593 149.476C81.3363 149.476 81.9937 148.815 81.9937 148.08C81.9937 147.268 81.375 146.611 80.5593 146.611ZM76.9627 156.472L80.5593 151.483L84.1594 156.437C81.8004 157.478 79.1706 157.443 76.9627 156.472ZM82.5351 152.489L80.5593 149.824L75.4967 156.824L75.9959 157.095C77.4303 157.829 78.935 158.181 80.5593 158.181C82.1097 158.181 83.6567 157.787 85.1262 157.095L85.629 156.824L82.5351 152.489ZM82.609 145.218V139.147C85.0102 139.688 87.0986 141.193 88.3748 143.327L82.609 145.218ZM89.535 143.366C88.0654 140.581 85.3196 138.605 82.2258 138.103L81.6457 137.983V146.533L89.8057 143.865L89.535 143.366ZM87.4853 154.039L83.9274 149.205L83.85 149.089L89.651 147.229C89.6896 147.497 89.6896 147.774 89.6896 148.08C89.6896 150.323 88.9549 152.376 87.4853 154.039ZM90.5404 146.495L90.4244 145.953L82.3418 148.544L87.3693 155.548L87.7947 155.161C89.651 153.224 90.6565 150.71 90.6565 148.08C90.6565 147.539 90.6213 146.997 90.5404 146.495ZM73.6755 154.039C72.206 152.376 71.3938 150.285 71.3938 148.08C71.3938 147.774 71.436 147.461 71.4712 147.194L75.4158 148.467L77.3108 149.089L73.6755 154.039ZM70.7012 145.915L70.5817 146.46C70.5043 146.959 70.427 147.497 70.427 148.08C70.427 150.752 71.4712 153.262 73.4048 155.161L73.7915 155.548L76.8854 151.255L78.0104 149.743L78.819 148.544L70.7012 145.915ZM78.5518 145.218L72.7509 143.327C74.0658 141.158 76.1928 139.65 78.5518 139.147V145.218ZM78.935 138.103C75.8799 138.528 73.1376 140.5 71.5907 143.366L71.3165 143.865L76.3475 145.489L78.1651 146.111L79.5151 146.533V138.025L78.935 138.103ZM80.5593 146.611C79.7507 146.611 79.1319 147.268 79.1319 148.08C79.1319 148.815 79.7894 149.476 80.5593 149.476C81.3363 149.476 81.9937 148.815 81.9937 148.08C81.9937 147.268 81.375 146.611 80.5593 146.611ZM76.9627 156.472L80.5593 151.483L84.1594 156.437C81.8004 157.478 79.1706 157.443 76.9627 156.472ZM82.5351 152.489L80.5593 149.824L75.4967 156.824L75.9959 157.095C77.4303 157.829 78.935 158.181 80.5593 158.181C82.1097 158.181 83.6567 157.787 85.1262 157.095L85.629 156.824L82.5351 152.489ZM82.609 145.218V139.147C85.0102 139.688 87.0986 141.193 88.3748 143.327L82.609 145.218ZM89.535 143.366C88.0654 140.581 85.3196 138.605 82.2258 138.103L81.6457 137.983V146.533L89.8057 143.865L89.535 143.366ZM87.4853 154.039L83.9274 149.205L83.85 149.089L89.651 147.229C89.6896 147.497 89.6896 147.774 89.6896 148.08C89.6896 150.323 88.9549 152.376 87.4853 154.039ZM90.5404 146.495L90.4244 145.953L82.3418 148.544L87.3693 155.548L87.7947 155.161C89.651 153.224 90.6565 150.71 90.6565 148.08C90.6565 147.539 90.6213 146.997 90.5404 146.495ZM73.6755 154.039C72.206 152.376 71.3938 150.285 71.3938 148.08C71.3938 147.774 71.436 147.461 71.4712 147.194L75.4158 148.467L77.3108 149.089L73.6755 154.039ZM78.819 148.544L70.7012 145.915L70.5817 146.46C70.5043 146.959 70.427 147.497 70.427 148.08C70.427 150.752 71.4712 153.262 73.4048 155.161L73.7915 155.548L76.8854 151.255L78.0104 149.743L78.819 148.544ZM78.5518 139.147V145.218L72.7509 143.327C74.0658 141.158 76.1928 139.65 78.5518 139.147ZM71.5907 143.366L71.3165 143.865L76.3475 145.489L78.1651 146.111L79.5151 146.533V138.025L78.935 138.103C75.8799 138.528 73.1376 140.5 71.5907 143.366ZM80.5593 149.476C81.3363 149.476 81.9937 148.815 81.9937 148.08C81.9937 147.268 81.375 146.611 80.5593 146.611C79.7507 146.611 79.1319 147.268 79.1319 148.08C79.1319 148.815 79.7894 149.476 80.5593 149.476ZM80.5593 151.483L84.1594 156.437C81.8004 157.478 79.1706 157.443 76.9627 156.472L80.5593 151.483ZM80.5593 158.181C82.1097 158.181 83.6567 157.787 85.1262 157.095L85.629 156.824L82.5351 152.489L80.5593 149.824L75.4967 156.824L75.9959 157.095C77.4303 157.829 78.935 158.181 80.5593 158.181ZM82.609 145.218V139.147C85.0102 139.688 87.0986 141.193 88.3748 143.327L82.609 145.218ZM89.535 143.366C88.0654 140.581 85.3196 138.605 82.2258 138.103L81.6457 137.983V146.533L89.8057 143.865L89.535 143.366ZM83.85 149.089L89.651 147.229C89.6896 147.497 89.6896 147.774 89.6896 148.08C89.6896 150.323 88.9549 152.376 87.4853 154.039L83.9274 149.205L83.85 149.089ZM87.7947 155.161C89.651 153.224 90.6565 150.71 90.6565 148.08C90.6565 147.539 90.6213 146.997 90.5404 146.495L90.4244 145.953L82.3418 148.544L87.3693 155.548L87.7947 155.161ZM86.0966 135.628L85.977 136.668C90.2311 138.683 93.2089 143.014 93.2089 148.08C93.2089 155.003 87.524 160.688 80.5593 160.688C73.6017 160.688 67.9519 155.003 67.9519 148.08C67.9519 142.009 72.206 136.942 77.8557 135.744L77.585 134.815C71.5098 136.169 66.9851 141.583 66.9851 148.08C66.9851 155.548 73.0603 161.658 80.5593 161.658C88.0654 161.658 94.1757 155.548 94.1757 148.08C94.1757 142.511 90.8498 137.755 86.0966 135.628ZM87.4853 154.039L83.9274 149.205L83.85 149.089L89.651 147.229C89.6896 147.497 89.6896 147.774 89.6896 148.08C89.6896 150.323 88.9549 152.376 87.4853 154.039ZM90.5404 146.495L90.4244 145.953L82.3418 148.544L87.3693 155.548L87.7947 155.161C89.651 153.224 90.6565 150.71 90.6565 148.08C90.6565 147.539 90.6213 146.997 90.5404 146.495ZM82.609 145.218V139.147C85.0102 139.688 87.0986 141.193 88.3748 143.327L82.609 145.218ZM89.535 143.366C88.0654 140.581 85.3196 138.605 82.2258 138.103L81.6457 137.983V146.533L89.8057 143.865L89.535 143.366ZM76.9627 156.472L80.5593 151.483L84.1594 156.437C81.8004 157.478 79.1706 157.443 76.9627 156.472ZM82.5351 152.489L80.5593 149.824L75.4967 156.824L75.9959 157.095C77.4303 157.829 78.935 158.181 80.5593 158.181C82.1097 158.181 83.6567 157.787 85.1262 157.095L85.629 156.824L82.5351 152.489ZM80.5593 146.611C79.7507 146.611 79.1319 147.268 79.1319 148.08C79.1319 148.815 79.7894 149.476 80.5593 149.476C81.3363 149.476 81.9937 148.815 81.9937 148.08C81.9937 147.268 81.375 146.611 80.5593 146.611ZM78.5518 145.218L72.7509 143.327C74.0658 141.158 76.1928 139.65 78.5518 139.147V145.218ZM78.935 138.103C75.8799 138.528 73.1376 140.5 71.5907 143.366L71.3165 143.865L76.3475 145.489L78.1651 146.111L79.5151 146.533V138.025L78.935 138.103ZM73.6755 154.039C72.206 152.376 71.3938 150.285 71.3938 148.08C71.3938 147.774 71.436 147.461 71.4712 147.194L75.4158 148.467L77.3108 149.089L73.6755 154.039ZM70.7012 145.915L70.5817 146.46C70.5043 146.959 70.427 147.497 70.427 148.08C70.427 150.752 71.4712 153.262 73.4048 155.161L73.7915 155.548L76.8854 151.255L78.0104 149.743L78.819 148.544L70.7012 145.915ZM87.4853 154.039L83.9274 149.205L83.85 149.089L89.651 147.229C89.6896 147.497 89.6896 147.774 89.6896 148.08C89.6896 150.323 88.9549 152.376 87.4853 154.039ZM90.5404 146.495L90.4244 145.953L82.3418 148.544L87.3693 155.548L87.7947 155.161C89.651 153.224 90.6565 150.71 90.6565 148.08C90.6565 147.539 90.6213 146.997 90.5404 146.495ZM82.609 145.218V139.147C85.0102 139.688 87.0986 141.193 88.3748 143.327L82.609 145.218ZM89.535 143.366C88.0654 140.581 85.3196 138.605 82.2258 138.103L81.6457 137.983V146.533L89.8057 143.865L89.535 143.366ZM76.9627 156.472L80.5593 151.483L84.1594 156.437C81.8004 157.478 79.1706 157.443 76.9627 156.472ZM82.5351 152.489L80.5593 149.824L75.4967 156.824L75.9959 157.095C77.4303 157.829 78.935 158.181 80.5593 158.181C82.1097 158.181 83.6567 157.787 85.1262 157.095L85.629 156.824L82.5351 152.489ZM80.5593 146.611C79.7507 146.611 79.1319 147.268 79.1319 148.08C79.1319 148.815 79.7894 149.476 80.5593 149.476C81.3363 149.476 81.9937 148.815 81.9937 148.08C81.9937 147.268 81.375 146.611 80.5593 146.611ZM78.5518 145.218L72.7509 143.327C74.0658 141.158 76.1928 139.65 78.5518 139.147V145.218ZM78.935 138.103C75.8799 138.528 73.1376 140.5 71.5907 143.366L71.3165 143.865L76.3475 145.489L78.1651 146.111L79.5151 146.533V138.025L78.935 138.103ZM73.6755 154.039C72.206 152.376 71.3938 150.285 71.3938 148.08C71.3938 147.774 71.436 147.461 71.4712 147.194L75.4158 148.467L77.3108 149.089L73.6755 154.039ZM70.7012 145.915L70.5817 146.46C70.5043 146.959 70.427 147.497 70.427 148.08C70.427 150.752 71.4712 153.262 73.4048 155.161L73.7915 155.548L76.8854 151.255L78.0104 149.743L78.819 148.544L70.7012 145.915ZM87.4853 154.039L83.9274 149.205L83.85 149.089L89.651 147.229C89.6896 147.497 89.6896 147.774 89.6896 148.08C89.6896 150.323 88.9549 152.376 87.4853 154.039ZM90.5404 146.495L90.4244 145.953L82.3418 148.544L87.3693 155.548L87.7947 155.161C89.651 153.224 90.6565 150.71 90.6565 148.08C90.6565 147.539 90.6213 146.997 90.5404 146.495ZM82.609 145.218V139.147C85.0102 139.688 87.0986 141.193 88.3748 143.327L82.609 145.218ZM89.535 143.366C88.0654 140.581 85.3196 138.605 82.2258 138.103L81.6457 137.983V146.533L89.8057 143.865L89.535 143.366ZM76.9627 156.472L80.5593 151.483L84.1594 156.437C81.8004 157.478 79.1706 157.443 76.9627 156.472ZM82.5351 152.489L80.5593 149.824L75.4967 156.824L75.9959 157.095C77.4303 157.829 78.935 158.181 80.5593 158.181C82.1097 158.181 83.6567 157.787 85.1262 157.095L85.629 156.824L82.5351 152.489ZM80.5593 146.611C79.7507 146.611 79.1319 147.268 79.1319 148.08C79.1319 148.815 79.7894 149.476 80.5593 149.476C81.3363 149.476 81.9937 148.815 81.9937 148.08C81.9937 147.268 81.375 146.611 80.5593 146.611ZM78.5518 145.218L72.7509 143.327C74.0658 141.158 76.1928 139.65 78.5518 139.147V145.218ZM78.935 138.103C75.8799 138.528 73.1376 140.5 71.5907 143.366L71.3165 143.865L76.3475 145.489L78.1651 146.111L79.5151 146.533V138.025L78.935 138.103ZM73.6755 154.039C72.206 152.376 71.3938 150.285 71.3938 148.08C71.3938 147.774 71.436 147.461 71.4712 147.194L75.4158 148.467L77.3108 149.089L73.6755 154.039ZM70.7012 145.915L70.5817 146.46C70.5043 146.959 70.427 147.497 70.427 148.08C70.427 150.752 71.4712 153.262 73.4048 155.161L73.7915 155.548L76.8854 151.255L78.0104 149.743L78.819 148.544L70.7012 145.915Z" fill="white" stroke="white" stroke-width="2"/>
<path d="M71.4641 147.195C71.436 147.476 71.4184 147.775 71.4184 148.085C71.4184 150.307 72.22 152.409 73.686 154.068L77.3142 149.097L75.4333 148.507L71.4641 147.195ZM73.7985 155.573L73.3977 155.172C71.4992 153.274 70.4551 150.757 70.4551 148.085C70.4551 147.512 70.5008 146.967 70.5922 146.464L70.6906 145.919L78.833 148.563L78.035 149.758L76.8818 151.27L73.7985 155.573Z" fill="white" stroke="white" stroke-width="2"/>
<path d="M72.7675 143.304L78.5685 145.213V139.127C76.2164 139.637 74.1105 141.152 72.7675 143.304ZM79.5388 146.506L78.1747 146.106L76.3571 145.48L71.3472 143.856L71.6249 143.349C73.1753 140.487 75.9246 138.512 78.9868 138.069L79.5388 137.988V146.506Z" fill="white" stroke="white" stroke-width="2"/>
<path d="M76.9665 156.521C79.1849 157.495 81.7936 157.53 84.1702 156.514L80.5701 151.533L76.9665 156.521ZM80.5631 158.241C78.9599 158.241 77.4271 157.872 76.0137 157.14L75.511 156.88L80.5596 149.884L82.5354 152.566L85.6257 156.887L85.1159 157.14C83.678 157.861 82.103 158.241 80.5631 158.241Z" fill="white"/>
<path d="M80.5631 158.241C78.9599 158.241 77.4271 157.872 76.0137 157.14L75.511 156.88L80.5596 149.884L82.5354 152.566L85.6257 156.887L85.1159 157.14C83.678 157.861 82.103 158.241 80.5631 158.241M76.9665 156.521C79.1849 157.495 81.7936 157.53 84.1702 156.514L80.5701 151.533L76.9665 156.521V156.521Z" stroke="white" stroke-width="2"/>
<path d="M82.6243 139.141V145.213L88.3901 143.314C87.1033 141.198 85.0115 139.686 82.6243 139.141ZM81.6575 146.527V137.988L82.22 138.079C85.3244 138.578 88.0561 140.554 89.5292 143.363L89.7964 143.873L81.6575 146.527Z" fill="white" stroke="white" stroke-width="2"/>
<path d="M83.8736 149.051L83.951 149.174L87.4913 154.019C88.9538 152.339 89.7238 150.285 89.7238 148.039C89.7238 147.751 89.7062 147.469 89.6746 147.192L83.8736 149.051ZM87.3929 155.531L82.3513 148.517L90.4515 145.919L90.5465 146.467C90.6449 146.984 90.6871 147.501 90.6871 148.039C90.6871 150.697 89.6605 153.211 87.7936 155.12L87.3929 155.531Z" fill="white" stroke="white" stroke-width="2"/>
<path d="M71.4641 147.195C71.436 147.476 71.4184 147.775 71.4184 148.085C71.4184 150.307 72.22 152.409 73.686 154.068L77.3142 149.097L75.4333 148.507L71.4641 147.195ZM73.7985 155.573L73.3977 155.172C71.4992 153.274 70.4551 150.757 70.4551 148.085C70.4551 147.512 70.5008 146.967 70.5922 146.464L70.6906 145.919L78.833 148.563L78.035 149.758L76.8818 151.27L73.7985 155.573Z" fill="white" stroke="white" stroke-width="2"/>
<path d="M72.7675 143.304L78.5685 145.213V139.127C76.2164 139.637 74.1105 141.152 72.7675 143.304ZM79.5388 146.506L78.1747 146.106L76.3571 145.48L71.3472 143.856L71.6249 143.349C73.1753 140.487 75.9246 138.512 78.9868 138.069L79.5388 137.988V146.506Z" fill="white" stroke="white" stroke-width="2"/>
<path d="M76.9665 156.521C79.1849 157.495 81.7936 157.53 84.1702 156.514L80.5701 151.533L76.9665 156.521ZM80.5631 158.241C78.9599 158.241 77.4271 157.872 76.0137 157.14L75.511 156.88L80.5596 149.884L82.5354 152.566L85.6257 156.887L85.1159 157.14C83.678 157.861 82.103 158.241 80.5631 158.241Z" fill="white"/>
<path d="M80.5631 158.241C78.9599 158.241 77.4271 157.872 76.0137 157.14L75.511 156.88L80.5596 149.884L82.5354 152.566L85.6257 156.887L85.1159 157.14C83.678 157.861 82.103 158.241 80.5631 158.241M76.9665 156.521C79.1849 157.495 81.7936 157.53 84.1702 156.514L80.5701 151.533L76.9665 156.521V156.521Z" stroke="white" stroke-width="2"/>
<path d="M82.6243 139.141V145.213L88.3901 143.314C87.1033 141.198 85.0115 139.686 82.6243 139.141ZM81.6575 146.527V137.988L82.22 138.079C85.3244 138.578 88.0561 140.554 89.5292 143.363L89.7964 143.873L81.6575 146.527Z" fill="white" stroke="white" stroke-width="2"/>
<path d="M83.8736 149.051L83.951 149.174L87.4913 154.019C88.9538 152.339 89.7238 150.285 89.7238 148.039C89.7238 147.751 89.7062 147.469 89.6746 147.192L83.8736 149.051ZM87.3929 155.531L82.3513 148.517L90.4515 145.919L90.5465 146.467C90.6449 146.984 90.6871 147.501 90.6871 148.039C90.6871 150.697 89.6605 153.211 87.7936 155.12L87.3929 155.531Z" fill="white" stroke="white" stroke-width="2"/>
<path d="M185.463 143.424L191.264 145.334V139.248C188.908 139.758 186.799 141.273 185.463 143.424ZM192.231 146.627L190.867 146.226L189.052 145.601L184.039 143.976L184.317 143.47C185.864 140.608 188.616 138.636 191.679 138.19L192.231 138.109V146.627ZM195.342 139.251V145.323L201.104 143.424C199.821 141.312 197.726 139.796 195.342 139.251ZM194.375 146.638V138.102L194.934 138.193C198.039 138.689 200.77 140.665 202.243 143.477L202.514 143.983L194.375 146.638ZM193.282 149.573C192.494 149.573 191.833 148.93 191.833 148.167C191.833 147.369 192.48 146.719 193.282 146.719C194.076 146.719 194.727 147.369 194.727 148.167C194.727 148.93 194.062 149.573 193.282 149.573ZM184.176 147.278C184.148 147.559 184.13 147.858 184.13 148.167C184.13 150.386 184.935 152.492 186.398 154.151L190.026 149.18L188.145 148.589L184.176 147.278ZM186.511 155.656L186.11 155.251C184.211 153.353 183.167 150.836 183.167 148.167C183.167 147.594 183.213 147.046 183.304 146.546L183.403 145.998L191.545 148.642L190.747 149.837L189.594 151.352L186.511 155.656ZM196.58 149.18L196.66 149.303L200.197 154.147C201.66 152.463 202.43 150.41 202.43 148.167C202.43 147.879 202.412 147.598 202.384 147.316L196.58 149.18ZM200.099 155.656L195.057 148.642L203.157 146.047L203.259 146.592C203.351 147.112 203.397 147.626 203.397 148.167C203.397 150.822 202.37 153.335 200.5 155.244L200.099 155.656ZM189.678 156.563C191.893 157.54 194.505 157.572 196.882 156.556L193.285 151.574L189.678 156.563ZM193.282 158.285C191.672 158.285 190.139 157.913 188.725 157.181L188.223 156.921L193.275 149.929L195.247 152.608L198.337 156.928L197.831 157.181C196.39 157.902 194.815 158.285 193.282 158.285ZM193.282 135.518C186.328 135.518 180.674 141.192 180.674 148.167C180.674 155.121 186.328 160.778 193.282 160.778C200.257 160.778 205.931 155.121 205.931 148.167C205.931 141.192 200.257 135.518 193.282 135.518ZM193.282 161.745C185.797 161.745 179.704 155.656 179.704 148.167C179.704 140.658 185.797 134.551 193.282 134.551C200.788 134.551 206.898 140.658 206.898 148.167C206.898 155.656 200.788 161.745 193.282 161.745Z" fill="white" stroke="white" stroke-width="2"/>
<path d="M184.183 147.195C184.155 147.476 184.137 147.775 184.137 148.085C184.137 150.307 184.942 152.409 186.405 154.068L190.033 149.097L188.152 148.507L184.183 147.195ZM186.518 155.573L186.117 155.172C184.218 153.274 183.174 150.757 183.174 148.085C183.174 147.512 183.223 146.967 183.311 146.464L183.41 145.919L191.556 148.563L190.754 149.758L189.601 151.27L186.518 155.573Z" fill="white" stroke="white" stroke-width="2"/>
<path d="M185.457 143.304L191.258 145.213V139.127C188.902 139.637 186.793 141.152 185.457 143.304ZM192.225 146.506L190.861 146.106L189.047 145.48L184.033 143.856L184.311 143.349C185.858 140.487 188.611 138.515 191.673 138.069L192.225 137.988V146.506Z" fill="white" stroke="white" stroke-width="2"/>
<path d="M189.685 156.521C191.9 157.495 194.513 157.53 196.889 156.514L193.289 151.533L189.685 156.521ZM193.286 158.241C191.675 158.241 190.146 157.872 188.733 157.14L188.23 156.88L193.279 149.884L195.254 152.566L198.345 156.887L197.835 157.14C196.397 157.861 194.822 158.241 193.286 158.241Z" fill="white"/>
<path d="M193.286 158.241C191.675 158.241 190.146 157.872 188.733 157.14L188.23 156.88L193.279 149.884L195.254 152.566L198.345 156.887L197.835 157.14C196.397 157.861 194.822 158.241 193.286 158.241M189.685 156.521C191.9 157.495 194.513 157.53 196.889 156.514L193.289 151.533L189.685 156.521V156.521Z" stroke="white" stroke-width="2"/>
<path d="M195.34 139.141V145.213L201.106 143.314C199.822 141.198 197.727 139.686 195.34 139.141ZM194.376 146.527V137.988L194.935 138.079C198.04 138.578 200.772 140.554 202.245 143.363L202.512 143.873L194.376 146.527Z" fill="white" stroke="white" stroke-width="2"/>
<path d="M196.593 149.051L196.67 149.174L200.21 154.019C201.673 152.339 202.443 150.285 202.443 148.039C202.443 147.751 202.425 147.469 202.397 147.192L196.593 149.051ZM200.112 155.531L195.07 148.517L203.171 145.919L203.269 146.467C203.364 146.984 203.406 147.501 203.406 148.039C203.406 150.697 202.379 153.211 200.513 155.12L200.112 155.531Z" fill="white" stroke="white" stroke-width="2"/>
<path d="M184.183 147.195C184.155 147.476 184.137 147.775 184.137 148.085C184.137 150.307 184.942 152.409 186.405 154.068L190.033 149.097L188.152 148.507L184.183 147.195ZM186.518 155.573L186.117 155.172C184.218 153.274 183.174 150.757 183.174 148.085C183.174 147.512 183.223 146.967 183.311 146.464L183.41 145.919L191.556 148.563L190.754 149.758L189.601 151.27L186.518 155.573Z" fill="white" stroke="white" stroke-width="2"/>
<path d="M185.457 143.304L191.258 145.213V139.127C188.902 139.637 186.793 141.152 185.457 143.304ZM192.225 146.506L190.861 146.106L189.047 145.48L184.033 143.856L184.311 143.349C185.858 140.487 188.611 138.515 191.673 138.069L192.225 137.988V146.506Z" fill="white" stroke="white" stroke-width="2"/>
<path d="M189.685 156.521C191.9 157.495 194.513 157.53 196.889 156.514L193.289 151.533L189.685 156.521ZM193.286 158.241C191.675 158.241 190.146 157.872 188.733 157.14L188.23 156.88L193.279 149.884L195.254 152.566L198.345 156.887L197.835 157.14C196.397 157.861 194.822 158.241 193.286 158.241Z" fill="white"/>
<path d="M193.286 158.241C191.675 158.241 190.146 157.872 188.733 157.14L188.23 156.88L193.279 149.884L195.254 152.566L198.345 156.887L197.835 157.14C196.397 157.861 194.822 158.241 193.286 158.241M189.685 156.521C191.9 157.495 194.513 157.53 196.889 156.514L193.289 151.533L189.685 156.521V156.521Z" stroke="white" stroke-width="2"/>
<path d="M195.34 139.141V145.213L201.106 143.314C199.822 141.198 197.727 139.686 195.34 139.141ZM194.376 146.527V137.988L194.935 138.079C198.04 138.578 200.772 140.554 202.245 143.363L202.512 143.873L194.376 146.527Z" fill="white" stroke="white" stroke-width="2"/>
<path d="M196.593 149.051L196.67 149.174L200.21 154.019C201.673 152.339 202.443 150.285 202.443 148.039C202.443 147.751 202.425 147.469 202.397 147.192L196.593 149.051ZM200.112 155.531L195.07 148.517L203.171 145.919L203.269 146.467C203.364 146.984 203.406 147.501 203.406 148.039C203.406 150.697 202.379 153.211 200.513 155.12L200.112 155.531Z" fill="white" stroke="white" stroke-width="2"/>
<path d="M144.664 68.1953C144.664 68.1953 125.514 96.9188 143.465 98.1176C161.42 99.313 142.27 77.7721 144.664 68.1953Z" fill="#14FF00" stroke="white" stroke-width="2"/>
<path d="M162.871 72.1606C162.871 72.1606 133.177 89.7674 148.843 98.6165C164.509 107.466 156.57 79.7581 162.871 72.1606Z" fill="#14FF00" stroke="white" stroke-width="2"/>
<defs>
<filter id="filter0_d" x="0" y="0" width="287" height="361" filterUnits="userSpaceOnUse" color-interpolation-filters="sRGB">
<feFlood flood-opacity="0" result="BackgroundImageFix"/>
<feColorMatrix in="SourceAlpha" type="matrix" values="0 0 0 0 0 0 0 0 0 0 0 0 0 0 0 0 0 0 127 0"/>
<feOffset dx="4" dy="4"/>
<feGaussianBlur stdDeviation="2"/>
<feColorMatrix type="matrix" values="0 0 0 0 0 0 0 0 0 0 0 0 0 0 0 0 0 0 0.25 0"/>
<feBlend mode="normal" in2="BackgroundImageFix" result="effect1_dropShadow"/>
<feBlend mode="normal" in="SourceGraphic" in2="effect1_dropShadow" result="shape"/>
</filter>
</defs>
</svg>
