<svg width="287" height="361" viewBox="0 0 287 361" fill="none" xmlns="http://www.w3.org/2000/svg">
<g filter="url(#filter0_d)">
<rect width="279" height="353" rx="8" fill="white" fill-opacity="0.08"/>
<rect width="279" height="353" rx="8" fill="#121212" fill-opacity="0.08"/>
</g>
<path d="M251.286 319.714H242.714V328.286C242.714 329.229 241.943 330 241 330C240.057 330 239.286 329.229 239.286 328.286V319.714H230.714C229.771 319.714 229 318.943 229 318C229 317.057 229.771 316.286 230.714 316.286H239.286V307.714C239.286 306.771 240.057 306 241 306C241.943 306 242.714 306.771 242.714 307.714V316.286H251.286C252.229 316.286 253 317.057 253 318C253 318.943 252.229 319.714 251.286 319.714Z" fill="#FAFAFA"/>
<path d="M122.844 234L122.832 228.432L120.072 233.04H119.376L116.616 228.504V234H115.128V225.6H116.412L119.748 231.168L123.024 225.6H124.308L124.32 234H122.844ZM133.639 232.692V234H127.339V225.6H133.471V226.908H128.899V229.092H132.955V230.376H128.899V232.692H133.639ZM139.981 234.12C139.133 234.12 138.365 233.936 137.677 233.568C136.997 233.192 136.461 232.676 136.069 232.02C135.685 231.364 135.493 230.624 135.493 229.8C135.493 228.976 135.689 228.236 136.081 227.58C136.473 226.924 137.009 226.412 137.689 226.044C138.377 225.668 139.145 225.48 139.993 225.48C140.681 225.48 141.309 225.6 141.877 225.84C142.445 226.08 142.925 226.428 143.317 226.884L142.309 227.832C141.701 227.176 140.953 226.848 140.065 226.848C139.489 226.848 138.973 226.976 138.517 227.232C138.061 227.48 137.705 227.828 137.449 228.276C137.193 228.724 137.065 229.232 137.065 229.8C137.065 230.368 137.193 230.876 137.449 231.324C137.705 231.772 138.061 232.124 138.517 232.38C138.973 232.628 139.489 232.752 140.065 232.752C140.953 232.752 141.701 232.42 142.309 231.756L143.317 232.716C142.925 233.172 142.441 233.52 141.865 233.76C141.297 234 140.669 234.12 139.981 234.12ZM153.026 225.6V234H151.466V230.4H147.122V234H145.562V225.6H147.122V229.068H151.466V225.6H153.026ZM161.474 232.056H157.274L156.446 234H154.838L158.618 225.6H160.154L163.946 234H162.314L161.474 232.056ZM160.958 230.832L159.374 227.16L157.802 230.832H160.958ZM173.229 225.6V234H171.945L167.313 228.312V234H165.765V225.6H167.049L171.681 231.288V225.6H173.229ZM176.23 225.6H177.79V234H176.23V225.6ZM184.7 234.12C183.852 234.12 183.084 233.936 182.396 233.568C181.716 233.192 181.18 232.676 180.788 232.02C180.404 231.364 180.212 230.624 180.212 229.8C180.212 228.976 180.408 228.236 180.8 227.58C181.192 226.924 181.728 226.412 182.408 226.044C183.096 225.668 183.864 225.48 184.712 225.48C185.4 225.48 186.028 225.6 186.596 225.84C187.164 226.08 187.644 226.428 188.036 226.884L187.028 227.832C186.42 227.176 185.672 226.848 184.784 226.848C184.208 226.848 183.692 226.976 183.236 227.232C182.78 227.48 182.424 227.828 182.168 228.276C181.912 228.724 181.784 229.232 181.784 229.8C181.784 230.368 181.912 230.876 182.168 231.324C182.424 231.772 182.78 232.124 183.236 232.38C183.692 232.628 184.208 232.752 184.784 232.752C185.672 232.752 186.42 232.42 187.028 231.756L188.036 232.716C187.644 233.172 187.16 233.52 186.584 233.76C186.016 234 185.388 234.12 184.7 234.12Z" fill="white" fill-opacity="0.87"/>
<path d="M173.467 104.252C174.079 104.252 174.701 104.484 175.155 104.955L182.489 112.289L184.552 110.222L175.039 100.712C177.127 96.5103 176.895 91.3387 174.016 87.2323C171.2 83.2314 166.594 81.2591 162.052 81.6599L168.12 90.305C168.95 91.5004 168.658 93.1317 167.473 93.9649L160.916 98.574C159.721 99.4072 158.089 99.126 157.256 97.9306L151.178 89.2714C149.265 93.4235 149.546 98.4334 152.352 102.434C155.681 107.173 161.549 109.061 166.837 107.546L177.036 117.742L179.106 115.678L171.78 108.348C170.841 107.406 170.841 105.894 171.78 104.955C172.233 104.484 172.855 104.252 173.467 104.252ZM214.935 131.653C211.683 126.928 205.924 124.97 200.682 126.352L190.898 116.567L188.834 118.635L195.402 125.202C196.341 126.144 196.341 127.653 195.402 128.595C194.934 129.066 194.326 129.298 193.7 129.298C193.092 129.298 192.48 129.066 192.013 128.595L185.442 122.013L183.378 124.091L192.315 133.028C190.125 137.226 190.265 142.457 193.127 146.637C195.898 150.67 200.493 152.674 205.045 152.336L199.062 143.617C198.243 142.422 198.548 140.805 199.744 139.972L206.35 135.433C207.542 134.614 209.176 134.916 210.01 136.104L215.979 144.816C217.934 140.699 217.702 135.675 214.935 131.653Z" fill="white"/>
<path d="M214.935 131.653C211.683 126.928 205.924 124.97 200.682 126.352L190.898 116.567L188.834 118.635L195.402 125.202C196.341 126.144 196.341 127.653 195.402 128.595C194.934 129.066 194.326 129.298 193.7 129.298C193.092 129.298 192.48 129.066 192.013 128.595L185.442 122.013L183.378 124.091L192.315 133.028C190.125 137.226 190.265 142.457 193.127 146.637C195.898 150.67 200.493 152.674 205.045 152.336L199.062 143.617C198.243 142.422 198.548 140.805 199.744 139.972L206.35 135.433C207.542 134.614 209.176 134.916 210.01 136.104L215.979 144.816C217.934 140.699 217.702 135.675 214.935 131.653M173.467 104.252C174.079 104.252 174.701 104.484 175.155 104.955L182.489 112.289L184.552 110.222L175.039 100.712C177.127 96.5103 176.895 91.3387 174.016 87.2323C171.2 83.2314 166.594 81.2591 162.052 81.6599L168.12 90.305C168.95 91.5004 168.658 93.1317 167.473 93.9649L160.916 98.574C159.721 99.4072 158.089 99.126 157.256 97.9306L151.178 89.2714C149.265 93.4235 149.546 98.4334 152.352 102.434C155.681 107.173 161.549 109.061 166.837 107.546L177.036 117.742L179.106 115.678L171.78 108.348C170.841 107.406 170.841 105.894 171.78 104.955C172.233 104.484 172.855 104.252 173.467 104.252V104.252Z" stroke="white" stroke-width="2"/>
<path d="M181.109 128.892C180.662 129.335 179.942 129.335 179.495 128.892L172.098 121.495C171.652 121.048 171.652 120.324 172.098 119.881L172.495 119.484C172.938 119.037 173.663 119.037 174.109 119.484L181.503 126.881C181.949 127.327 181.949 128.052 181.503 128.498L181.109 128.892Z" fill="white" stroke="white" stroke-width="2"/>
<path d="M177.805 130.747L161.64 148.379L159.646 150.548C159.024 151.17 158.321 151.638 157.544 151.944C156.96 152.193 156.359 152.33 155.754 152.376C155.554 152.401 155.354 152.411 155.143 152.411C153.511 152.425 151.88 151.803 150.636 150.558C148.139 148.062 148.139 144.023 150.636 141.537L152.798 139.558L170.426 123.378L177.805 130.747Z" fill="white" stroke="white" stroke-width="2"/>
<path d="M210.942 92.8849L207.873 97.7191L205.152 98.8792L180.735 123.303L177.711 120.276L202.135 95.8522L203.295 93.1451L208.129 90.0688L208.386 90.329L204.821 93.3068C204.199 93.9291 204.48 95.2686 205.102 95.9014C205.746 96.5343 207.12 96.9104 207.757 96.2741L210.675 92.6142L210.942 92.8849Z" fill="white" stroke="white" stroke-width="2"/>
<path d="M125.373 123.645C123.345 127.699 117.333 130.656 110.22 130.656C102.887 130.656 96.699 127.499 94.8989 123.227L98.1861 122.116V116.241C101.751 119.412 106.104 121.146 110.547 121.146C114.777 121.146 118.806 119.644 122.262 116.783V122.39L125.373 123.645Z" fill="white" stroke="white" stroke-width="2"/>
<path d="M131.785 96.0622C131.353 98.8466 130.084 100.738 129.082 101.104L128.421 101.36L128.245 102.035C127.043 106.792 124.596 111.05 121.354 114.006C118.194 116.914 114.46 118.454 110.543 118.454C106.356 118.454 102.412 116.721 99.1384 113.44C96.1781 110.494 94.016 106.56 92.8698 102.064L92.68 101.346L91.9768 101.114C91.9628 101.114 91.9206 101.09 91.8292 101.037C90.8659 100.467 89.7057 98.6849 89.3154 96.0516C89.0834 94.5223 89.1537 93.0352 89.4912 91.875L91.235 91.5339L91.3686 91.4671C91.4635 91.4425 91.6956 91.3757 92.1421 91.2949L93.0984 92.7539L93.2601 93.0738L93.3937 93.1828L93.7734 93.777C94.7754 95.2782 95.8019 96.5087 98.5583 96.5087H99.5145L100.112 96.1852C100.559 95.9954 103.976 95.4399 110.543 95.4399C117.044 95.4399 120.546 96.0059 121.069 96.2098L121.597 96.5087H122.557C125.26 96.5087 126.287 95.3309 127.257 93.9141L127.77 93.116L127.813 93.0598L127.974 92.8066L128.973 91.2949C129.395 91.3757 129.613 91.4425 129.704 91.4671L129.852 91.5199L131.638 92.0226C131.933 93.1723 132.003 94.6032 131.785 96.0622ZM132.692 90.9152L130.27 90.2366L130.151 90.198C129.922 90.1171 129.405 89.9694 128.34 89.8042L126.828 92.0894L126.772 92.1984L126.705 92.2652L126.477 92.6273C126.354 92.8207 126.245 92.9965 126.139 93.1547C125.26 94.4414 124.568 95.1586 122.557 95.1586H121.948L121.65 94.9934C121.055 94.684 117.181 94.0864 110.543 94.0864C104.141 94.0864 100.151 94.6313 99.4653 94.9934L99.1665 95.1586H98.5583C96.491 95.1586 95.816 94.4133 94.923 93.0598C94.8281 92.9156 94.7332 92.7644 94.6242 92.6027L94.4062 92.2652L94.3429 92.2125L94.2726 92.0754L92.7714 89.8042C91.6956 89.9694 91.1788 90.1171 90.9503 90.1874L90.8307 90.2366L88.4928 90.6972C87.8705 92.1175 87.6525 94.1039 87.9759 96.252C88.3943 99.0646 89.6529 101.318 91.0979 102.169C91.2491 102.267 91.3967 102.348 91.562 102.401C92.7714 107.182 95.1094 111.345 98.1786 114.4C101.571 117.793 105.867 119.804 110.543 119.804C114.92 119.804 118.974 118.035 122.258 115.008C125.664 111.901 128.259 107.492 129.556 102.373C131.191 101.765 132.65 99.3318 133.125 96.252C133.42 94.2129 133.23 92.3074 132.692 90.9152Z" fill="white"/>
<path d="M132.692 90.9152L130.27 90.2366L130.151 90.198C129.922 90.1171 129.405 89.9694 128.34 89.8042L126.828 92.0894L126.772 92.1984L126.705 92.2652L126.477 92.6273C126.354 92.8207 126.245 92.9965 126.139 93.1547C125.26 94.4414 124.568 95.1586 122.557 95.1586H121.948L121.65 94.9934C121.055 94.684 117.181 94.0864 110.543 94.0864C104.141 94.0864 100.151 94.6313 99.4653 94.9934L99.1665 95.1586H98.5583C96.491 95.1586 95.816 94.4133 94.923 93.0598C94.8281 92.9156 94.7332 92.7644 94.6242 92.6027L94.4062 92.2652L94.3429 92.2125L94.2726 92.0754L92.7714 89.8042C91.6956 89.9694 91.1788 90.1171 90.9503 90.1874L90.8307 90.2366L88.4928 90.6972C87.8705 92.1175 87.6525 94.1039 87.9759 96.252C88.3943 99.0646 89.6529 101.318 91.0979 102.169C91.2491 102.267 91.3967 102.348 91.562 102.401C92.7714 107.182 95.1094 111.345 98.1786 114.4C101.571 117.793 105.867 119.804 110.543 119.804C114.92 119.804 118.974 118.035 122.258 115.008C125.664 111.901 128.259 107.492 129.556 102.373C131.191 101.765 132.65 99.3318 133.125 96.252C133.42 94.2129 133.23 92.3074 132.692 90.9152M131.785 96.0622C131.353 98.8466 130.084 100.738 129.082 101.104L128.421 101.36L128.245 102.035C127.043 106.792 124.596 111.05 121.354 114.006C118.194 116.914 114.46 118.454 110.543 118.454C106.356 118.454 102.412 116.721 99.1384 113.44C96.1781 110.494 94.016 106.56 92.8698 102.064L92.68 101.346L91.9768 101.114C91.9628 101.114 91.9206 101.09 91.8292 101.037C90.8659 100.467 89.7057 98.6849 89.3154 96.0516C89.0834 94.5223 89.1537 93.0352 89.4912 91.875L91.235 91.5339L91.3686 91.4671C91.4635 91.4425 91.6956 91.3757 92.1421 91.2949L93.0984 92.7539L93.2601 93.0738L93.3937 93.1828L93.7734 93.777C94.7754 95.2782 95.8019 96.5087 98.5583 96.5087H99.5145L100.112 96.1852C100.559 95.9954 103.976 95.4399 110.543 95.4399C117.044 95.4399 120.546 96.0059 121.069 96.2098L121.597 96.5087H122.557C125.26 96.5087 126.287 95.3309 127.257 93.9141L127.77 93.116L127.813 93.0598L127.974 92.8066L128.973 91.2949C129.395 91.3757 129.613 91.4425 129.704 91.4671L129.852 91.5199L131.638 92.0226C131.933 93.1723 132.003 94.6032 131.785 96.0622V96.0622Z" stroke="white" stroke-width="2"/>
<path d="M79.9629 151.566H91.5613V141.62H129.137V151.566H140.539V162.025H79.8961V151.566H79.9629Z" fill="white" stroke="white" stroke-width="2"/>
<path d="M85.7314 148.774C84.1353 148.774 82.838 147.477 82.838 145.87C82.838 144.274 84.1353 142.977 85.7314 142.977C87.3381 142.977 88.6354 144.274 88.6354 145.87C88.6354 147.477 87.3381 148.774 85.7314 148.774ZM81.2841 125.342V150.177H90.1788V122.585L81.2841 125.342Z" fill="white" stroke="white" stroke-width="2"/>
<path d="M134.903 148.774C133.297 148.774 132.014 147.477 132.014 145.87C132.014 144.274 133.297 142.977 134.903 142.977C136.496 142.977 137.793 144.274 137.793 145.87C137.793 147.477 136.496 148.774 134.903 148.774ZM130.456 122.585V150.177H139.351V125.342L130.456 122.585Z" fill="white" stroke="white" stroke-width="2"/>
<path d="M131.267 81.2273V89.4998C131.267 89.1201 130.075 88.779 127.993 88.4978C127.902 88.4837 127.793 88.4732 127.698 88.4556L125.698 91.4826C125.684 91.4967 125.684 91.5108 125.67 91.5248C124.4 93.4585 124.267 93.9155 122.576 93.9155H122.305C121.169 93.3073 116.332 92.8467 110.562 92.8467C104.807 92.8467 100.008 93.2932 98.8481 93.9155H98.5774C96.8758 93.9155 96.7422 93.4585 95.4836 91.5248C95.4695 91.5108 95.4695 91.4967 95.4554 91.4826L93.4409 88.4556C93.3495 88.4732 93.2405 88.4837 93.1456 88.4978C91.0784 88.779 89.876 89.1201 89.876 89.4998V81.2273C89.876 72.1602 99.1329 66.0112 110.562 66.0112C121.996 66.0112 131.267 72.1602 131.267 81.2273Z" fill="white"/>
<path d="M131.267 81.2273V89.4998C131.267 89.1201 130.075 88.779 127.993 88.4978C127.902 88.4837 127.793 88.4732 127.698 88.4556L125.698 91.4826C125.684 91.4967 125.684 91.5108 125.67 91.5248C124.4 93.4585 124.267 93.9155 122.576 93.9155H122.305C121.169 93.3073 116.332 92.8467 110.562 92.8467C104.807 92.8467 100.008 93.2932 98.8481 93.9155H98.5774C96.8758 93.9155 96.7422 93.4585 95.4836 91.5248C95.4695 91.5108 95.4695 91.4967 95.4554 91.4826L93.4409 88.4556C93.3495 88.4732 93.2405 88.4837 93.1456 88.4978C91.0784 88.779 89.876 89.1201 89.876 89.4998V81.2273C89.876 72.1602 99.1329 66.0112 110.562 66.0112C121.996 66.0112 131.267 72.1602 131.267 81.2273" stroke="white" stroke-width="2"/>
<defs>
<filter id="filter0_d" x="0" y="0" width="287" height="361" filterUnits="userSpaceOnUse" color-interpolation-filters="sRGB">
<feFlood flood-opacity="0" result="BackgroundImageFix"/>
<feColorMatrix in="SourceAlpha" type="matrix" values="0 0 0 0 0 0 0 0 0 0 0 0 0 0 0 0 0 0 127 0"/>
<feOffset dx="4" dy="4"/>
<feGaussianBlur stdDeviation="2"/>
<feColorMatrix type="matrix" values="0 0 0 0 0 0 0 0 0 0 0 0 0 0 0 0 0 0 0.25 0"/>
<feBlend mode="normal" in2="BackgroundImageFix" result="effect1_dropShadow"/>
<feBlend mode="normal" in="SourceGraphic" in2="effect1_dropShadow" result="shape"/>
</filter>
</defs>
</svg>
