<svg width="287" height="361" viewBox="0 0 287 361" fill="none" xmlns="http://www.w3.org/2000/svg">
<g filter="url(#filter0_d)">
<rect width="279" height="353" rx="8" fill="white" fill-opacity="0.08"/>
<rect width="279" height="353" rx="8" fill="#121212" fill-opacity="0.08"/>
</g>
<path d="M251.286 319.714H242.714V328.286C242.714 329.229 241.943 330 241 330C240.057 330 239.286 329.229 239.286 328.286V319.714H230.714C229.771 319.714 229 318.943 229 318C229 317.057 229.771 316.286 230.714 316.286H239.286V307.714C239.286 306.771 240.057 306 241 306C241.943 306 242.714 306.771 242.714 307.714V316.286H251.286C252.229 316.286 253 317.057 253 318C253 318.943 252.229 319.714 251.286 319.714Z" fill="#FAFAFA"/>
<path d="M61.016 180.12C60.168 180.12 59.4 179.936 58.712 179.568C58.032 179.192 57.496 178.676 57.104 178.02C56.72 177.364 56.528 176.624 56.528 175.8C56.528 174.976 56.724 174.236 57.116 173.58C57.508 172.924 58.044 172.412 58.724 172.044C59.412 171.668 60.18 171.48 61.028 171.48C61.716 171.48 62.344 171.6 62.912 171.84C63.48 172.08 63.96 172.428 64.352 172.884L63.344 173.832C62.736 173.176 61.988 172.848 61.1 172.848C60.524 172.848 60.008 172.976 59.552 173.232C59.096 173.48 58.74 173.828 58.484 174.276C58.228 174.724 58.1 175.232 58.1 175.8C58.1 176.368 58.228 176.876 58.484 177.324C58.74 177.772 59.096 178.124 59.552 178.38C60.008 178.628 60.524 178.752 61.1 178.752C61.988 178.752 62.736 178.42 63.344 177.756L64.352 178.716C63.96 179.172 63.476 179.52 62.9 179.76C62.332 180 61.704 180.12 61.016 180.12ZM66.5968 171.6H68.1568V178.68H72.5488V180H66.5968V171.6ZM74.5303 171.6H76.0903V180H74.5303V171.6ZM86.8284 180L86.8164 174.432L84.0564 179.04H83.3604L80.6004 174.504V180H79.1124V171.6H80.3964L83.7324 177.168L87.0084 171.6H88.2924L88.3044 180H86.8284ZM96.7713 178.056H92.5713L91.7433 180H90.1353L93.9153 171.6H95.4513L99.2433 180H97.6113L96.7713 178.056ZM96.2553 176.832L94.6713 173.16L93.0993 176.832H96.2553ZM102.344 172.92H99.5597V171.6H106.688V172.92H103.904V180H102.344V172.92ZM114.908 178.692V180H108.608V171.6H114.74V172.908H110.168V175.092H114.224V176.376H110.168V178.692H114.908ZM125.352 180.12C124.504 180.12 123.736 179.936 123.048 179.568C122.368 179.192 121.832 178.676 121.44 178.02C121.056 177.364 120.864 176.624 120.864 175.8C120.864 174.976 121.06 174.236 121.452 173.58C121.844 172.924 122.38 172.412 123.06 172.044C123.748 171.668 124.516 171.48 125.364 171.48C126.052 171.48 126.68 171.6 127.248 171.84C127.816 172.08 128.296 172.428 128.688 172.884L127.68 173.832C127.072 173.176 126.324 172.848 125.436 172.848C124.86 172.848 124.344 172.976 123.888 173.232C123.432 173.48 123.076 173.828 122.82 174.276C122.564 174.724 122.436 175.232 122.436 175.8C122.436 176.368 122.564 176.876 122.82 177.324C123.076 177.772 123.432 178.124 123.888 178.38C124.344 178.628 124.86 178.752 125.436 178.752C126.324 178.752 127.072 178.42 127.68 177.756L128.688 178.716C128.296 179.172 127.812 179.52 127.236 179.76C126.668 180 126.04 180.12 125.352 180.12ZM134.681 180.12C133.825 180.12 133.053 179.936 132.365 179.568C131.677 179.192 131.137 178.676 130.745 178.02C130.353 177.356 130.157 176.616 130.157 175.8C130.157 174.984 130.353 174.248 130.745 173.592C131.137 172.928 131.677 172.412 132.365 172.044C133.053 171.668 133.825 171.48 134.681 171.48C135.537 171.48 136.309 171.668 136.997 172.044C137.685 172.412 138.225 172.924 138.617 173.58C139.009 174.236 139.205 174.976 139.205 175.8C139.205 176.624 139.009 177.364 138.617 178.02C138.225 178.676 137.685 179.192 136.997 179.568C136.309 179.936 135.537 180.12 134.681 180.12ZM134.681 178.752C135.241 178.752 135.745 178.628 136.193 178.38C136.641 178.124 136.993 177.772 137.249 177.324C137.505 176.868 137.633 176.36 137.633 175.8C137.633 175.24 137.505 174.736 137.249 174.288C136.993 173.832 136.641 173.48 136.193 173.232C135.745 172.976 135.241 172.848 134.681 172.848C134.121 172.848 133.617 172.976 133.169 173.232C132.721 173.48 132.369 173.832 132.113 174.288C131.857 174.736 131.729 175.24 131.729 175.8C131.729 176.36 131.857 176.868 132.113 177.324C132.369 177.772 132.721 178.124 133.169 178.38C133.617 178.628 134.121 178.752 134.681 178.752ZM149.072 171.6V180H147.788L143.156 174.312V180H141.608V171.6H142.892L147.524 177.288V171.6H149.072ZM153.777 172.92H150.993V171.6H158.121V172.92H155.337V180H153.777V172.92ZM165.538 180L163.822 177.54C163.75 177.548 163.642 177.552 163.498 177.552H161.602V180H160.042V171.6H163.498C164.226 171.6 164.858 171.72 165.394 171.96C165.938 172.2 166.354 172.544 166.642 172.992C166.93 173.44 167.074 173.972 167.074 174.588C167.074 175.22 166.918 175.764 166.606 176.22C166.302 176.676 165.862 177.016 165.286 177.24L167.218 180H165.538ZM165.502 174.588C165.502 174.052 165.326 173.64 164.974 173.352C164.622 173.064 164.106 172.92 163.426 172.92H161.602V176.268H163.426C164.106 176.268 164.622 176.124 164.974 175.836C165.326 175.54 165.502 175.124 165.502 174.588ZM173.493 180.12C172.637 180.12 171.865 179.936 171.177 179.568C170.489 179.192 169.949 178.676 169.557 178.02C169.165 177.356 168.969 176.616 168.969 175.8C168.969 174.984 169.165 174.248 169.557 173.592C169.949 172.928 170.489 172.412 171.177 172.044C171.865 171.668 172.637 171.48 173.493 171.48C174.349 171.48 175.121 171.668 175.809 172.044C176.497 172.412 177.037 172.924 177.429 173.58C177.821 174.236 178.017 174.976 178.017 175.8C178.017 176.624 177.821 177.364 177.429 178.02C177.037 178.676 176.497 179.192 175.809 179.568C175.121 179.936 174.349 180.12 173.493 180.12ZM173.493 178.752C174.053 178.752 174.557 178.628 175.005 178.38C175.453 178.124 175.805 177.772 176.061 177.324C176.317 176.868 176.445 176.36 176.445 175.8C176.445 175.24 176.317 174.736 176.061 174.288C175.805 173.832 175.453 173.48 175.005 173.232C174.557 172.976 174.053 172.848 173.493 172.848C172.933 172.848 172.429 172.976 171.981 173.232C171.533 173.48 171.181 173.832 170.925 174.288C170.669 174.736 170.541 175.24 170.541 175.8C170.541 176.36 170.669 176.868 170.925 177.324C171.181 177.772 171.533 178.124 171.981 178.38C172.429 178.628 172.933 178.752 173.493 178.752ZM180.421 171.6H181.981V178.68H186.373V180H180.421V171.6ZM198.721 180.132L197.665 179.112C196.881 179.784 195.941 180.12 194.845 180.12C194.261 180.12 193.737 180.024 193.273 179.832C192.809 179.64 192.445 179.376 192.181 179.04C191.917 178.696 191.785 178.308 191.785 177.876C191.785 177.356 191.937 176.9 192.241 176.508C192.545 176.108 193.041 175.716 193.729 175.332C193.393 174.996 193.153 174.684 193.009 174.396C192.865 174.1 192.793 173.796 192.793 173.484C192.793 172.892 193.013 172.416 193.453 172.056C193.901 171.688 194.493 171.504 195.229 171.504C195.909 171.504 196.453 171.672 196.861 172.008C197.269 172.336 197.473 172.784 197.473 173.352C197.473 173.784 197.337 174.168 197.065 174.504C196.801 174.84 196.365 175.18 195.757 175.524L197.569 177.252C197.769 176.86 197.925 176.388 198.037 175.836L199.249 176.232C199.089 176.976 198.837 177.616 198.493 178.152L199.549 179.16L198.721 180.132ZM195.229 172.572C194.901 172.572 194.641 172.656 194.449 172.824C194.257 172.984 194.161 173.196 194.161 173.46C194.161 173.652 194.213 173.836 194.317 174.012C194.421 174.18 194.621 174.412 194.917 174.708C195.397 174.444 195.729 174.216 195.913 174.024C196.105 173.824 196.201 173.608 196.201 173.376C196.201 173.128 196.113 172.932 195.937 172.788C195.769 172.644 195.533 172.572 195.229 172.572ZM194.953 178.896C195.649 178.896 196.257 178.684 196.777 178.26L194.557 176.136C194.077 176.4 193.737 176.656 193.537 176.904C193.345 177.144 193.249 177.416 193.249 177.72C193.249 178.072 193.405 178.356 193.717 178.572C194.029 178.788 194.441 178.896 194.953 178.896ZM211.158 178.056H206.958L206.13 180H204.522L208.302 171.6H209.838L213.63 180H211.998L211.158 178.056ZM210.642 176.832L209.058 173.16L207.486 176.832H210.642ZM219.219 180.12C218.371 180.12 217.603 179.936 216.915 179.568C216.235 179.192 215.699 178.676 215.307 178.02C214.923 177.364 214.731 176.624 214.731 175.8C214.731 174.976 214.927 174.236 215.319 173.58C215.711 172.924 216.247 172.412 216.927 172.044C217.615 171.668 218.383 171.48 219.231 171.48C219.919 171.48 220.547 171.6 221.115 171.84C221.683 172.08 222.163 172.428 222.555 172.884L221.547 173.832C220.939 173.176 220.191 172.848 219.303 172.848C218.727 172.848 218.211 172.976 217.755 173.232C217.299 173.48 216.943 173.828 216.687 174.276C216.431 174.724 216.303 175.232 216.303 175.8C216.303 176.368 216.431 176.876 216.687 177.324C216.943 177.772 217.299 178.124 217.755 178.38C218.211 178.628 218.727 178.752 219.303 178.752C220.191 178.752 220.939 178.42 221.547 177.756L222.555 178.716C222.163 179.172 221.679 179.52 221.103 179.76C220.535 180 219.907 180.12 219.219 180.12Z" fill="white" fill-opacity="0.87"/>
<path d="M142.254 122.733C126.31 122.733 113.386 109.81 113.386 93.8625C113.386 77.919 126.31 64.9952 142.254 64.9952C158.201 64.9952 171.124 77.919 171.124 93.8625C171.124 109.81 158.201 122.733 142.254 122.733ZM191.258 41.4424H92.4925C81.372 41.4424 72.3589 50.4555 72.3589 61.576V129.95C72.3589 141.071 81.372 150.084 92.4925 150.084H191.258C202.375 150.084 211.392 141.071 211.392 129.95V61.576C211.392 50.4555 202.375 41.4424 191.258 41.4424Z" fill="url(#paint0_linear)" stroke="url(#paint1_linear)"/>
<path d="M140.73 90.8366L141.491 68.8042C141.491 68.8042 161.246 71.0849 140.73 90.8366Z" fill="white" stroke="white"/>
<path d="M141.986 94.2726L163.492 89.4248C163.492 89.4248 166.292 109.113 141.986 94.2726Z" fill="white" stroke="white"/>
<path d="M141.718 96.8271L142.807 118.845C142.807 118.845 122.932 118.227 141.718 96.8271Z" fill="white" stroke="white"/>
<path d="M140.625 93.7983L118.606 94.8873C118.606 94.8873 119.222 75.0154 140.625 93.7983Z" fill="white" stroke="white"/>
<defs>
<filter id="filter0_d" x="0" y="0" width="287" height="361" filterUnits="userSpaceOnUse" color-interpolation-filters="sRGB">
<feFlood flood-opacity="0" result="BackgroundImageFix"/>
<feColorMatrix in="SourceAlpha" type="matrix" values="0 0 0 0 0 0 0 0 0 0 0 0 0 0 0 0 0 0 127 0"/>
<feOffset dx="4" dy="4"/>
<feGaussianBlur stdDeviation="2"/>
<feColorMatrix type="matrix" values="0 0 0 0 0 0 0 0 0 0 0 0 0 0 0 0 0 0 0.25 0"/>
<feBlend mode="normal" in2="BackgroundImageFix" result="effect1_dropShadow"/>
<feBlend mode="normal" in="SourceGraphic" in2="effect1_dropShadow" result="shape"/>
</filter>
<linearGradient id="paint0_linear" x1="79.5" y1="50" x2="202" y2="144" gradientUnits="userSpaceOnUse">
<stop stop-color="#0085FF"/>
<stop offset="1" stop-color="#00D1FF"/>
</linearGradient>
<linearGradient id="paint1_linear" x1="141.875" y1="41.4424" x2="141.875" y2="150.084" gradientUnits="userSpaceOnUse">
<stop stop-color="#0085FF"/>
<stop offset="1" stop-color="#00D1FF"/>
</linearGradient>
</defs>
</svg>
