<svg width="287" height="361" viewBox="0 0 287 361" fill="none" xmlns="http://www.w3.org/2000/svg">
<g filter="url(#filter0_d)">
<rect width="279" height="353" rx="8" fill="white" fill-opacity="0.08"/>
<rect width="279" height="353" rx="8" fill="#121212" fill-opacity="0.08"/>
</g>
<path d="M251.286 319.714H242.714V328.286C242.714 329.229 241.943 330 241 330C240.057 330 239.286 329.229 239.286 328.286V319.714H230.714C229.771 319.714 229 318.943 229 318C229 317.057 229.771 316.286 230.714 316.286H239.286V307.714C239.286 306.771 240.057 306 241 306C241.943 306 242.714 306.771 242.714 307.714V316.286H251.286C252.229 316.286 253 317.057 253 318C253 318.943 252.229 319.714 251.286 319.714Z" fill="#FAFAFA"/>
<path d="M75.624 204L73.908 201.54C73.836 201.548 73.728 201.552 73.584 201.552H71.688V204H70.128V195.6H73.584C74.312 195.6 74.944 195.72 75.48 195.96C76.024 196.2 76.44 196.544 76.728 196.992C77.016 197.44 77.16 197.972 77.16 198.588C77.16 199.22 77.004 199.764 76.692 200.22C76.388 200.676 75.948 201.016 75.372 201.24L77.304 204H75.624ZM75.588 198.588C75.588 198.052 75.412 197.64 75.06 197.352C74.708 197.064 74.192 196.92 73.512 196.92H71.688V200.268H73.512C74.192 200.268 74.708 200.124 75.06 199.836C75.412 199.54 75.588 199.124 75.588 198.588ZM85.9553 202.692V204H79.6553V195.6H85.7873V196.908H81.2153V199.092H85.2713V200.376H81.2153V202.692H85.9553ZM91.9004 195.6C92.6284 195.6 93.2604 195.72 93.7964 195.96C94.3404 196.2 94.7564 196.544 95.0444 196.992C95.3324 197.44 95.4764 197.972 95.4764 198.588C95.4764 199.196 95.3324 199.728 95.0444 200.184C94.7564 200.632 94.3404 200.976 93.7964 201.216C93.2604 201.456 92.6284 201.576 91.9004 201.576H90.0044V204H88.4444V195.6H91.9004ZM91.8284 200.256C92.5084 200.256 93.0244 200.112 93.3764 199.824C93.7284 199.536 93.9044 199.124 93.9044 198.588C93.9044 198.052 93.7284 197.64 93.3764 197.352C93.0244 197.064 92.5084 196.92 91.8284 196.92H90.0044V200.256H91.8284ZM104.084 202.692V204H97.7843V195.6H103.916V196.908H99.3443V199.092H103.4V200.376H99.3443V202.692H104.084ZM106.573 195.6H108.133V202.68H112.525V204H106.573V195.6ZM114.507 195.6H116.067V202.68H120.459V204H114.507V195.6ZM128.741 202.692V204H122.441V195.6H128.573V196.908H124.001V199.092H128.057V200.376H124.001V202.692H128.741ZM138.694 195.6V204H137.41L132.778 198.312V204H131.23V195.6H132.514L137.146 201.288V195.6H138.694ZM143.398 196.92H140.614V195.6H147.742V196.92H144.958V204H143.398V196.92ZM156.334 204.12C155.686 204.12 155.058 204.028 154.45 203.844C153.85 203.66 153.374 203.416 153.022 203.112L153.562 201.9C153.906 202.172 154.326 202.396 154.822 202.572C155.326 202.74 155.83 202.824 156.334 202.824C156.958 202.824 157.422 202.724 157.726 202.524C158.038 202.324 158.194 202.06 158.194 201.732C158.194 201.492 158.106 201.296 157.93 201.144C157.762 200.984 157.546 200.86 157.282 200.772C157.018 200.684 156.658 200.584 156.202 200.472C155.562 200.32 155.042 200.168 154.642 200.016C154.25 199.864 153.91 199.628 153.622 199.308C153.342 198.98 153.202 198.54 153.202 197.988C153.202 197.524 153.326 197.104 153.574 196.728C153.83 196.344 154.21 196.04 154.714 195.816C155.226 195.592 155.85 195.48 156.586 195.48C157.098 195.48 157.602 195.544 158.098 195.672C158.594 195.8 159.022 195.984 159.382 196.224L158.89 197.436C158.522 197.22 158.138 197.056 157.738 196.944C157.338 196.832 156.95 196.776 156.574 196.776C155.958 196.776 155.498 196.88 155.194 197.088C154.898 197.296 154.75 197.572 154.75 197.916C154.75 198.156 154.834 198.352 155.002 198.504C155.178 198.656 155.398 198.776 155.662 198.864C155.926 198.952 156.286 199.052 156.742 199.164C157.366 199.308 157.878 199.46 158.278 199.62C158.678 199.772 159.018 200.008 159.298 200.328C159.586 200.648 159.73 201.08 159.73 201.624C159.73 202.088 159.602 202.508 159.346 202.884C159.098 203.26 158.718 203.56 158.206 203.784C157.694 204.008 157.07 204.12 156.334 204.12ZM168.326 202.692V204H162.026V195.6H168.158V196.908H163.586V199.092H167.642V200.376H163.586V202.692H168.326ZM176.312 204L174.596 201.54C174.524 201.548 174.416 201.552 174.272 201.552H172.376V204H170.816V195.6H174.272C175 195.6 175.632 195.72 176.168 195.96C176.712 196.2 177.128 196.544 177.416 196.992C177.704 197.44 177.848 197.972 177.848 198.588C177.848 199.22 177.692 199.764 177.38 200.22C177.076 200.676 176.636 201.016 176.06 201.24L177.992 204H176.312ZM176.276 198.588C176.276 198.052 176.1 197.64 175.747 197.352C175.396 197.064 174.88 196.92 174.2 196.92H172.376V200.268H174.2C174.88 200.268 175.396 200.124 175.747 199.836C176.1 199.54 176.276 199.124 176.276 198.588ZM188.023 195.6L184.363 204H182.827L179.155 195.6H180.847L183.643 202.08L186.463 195.6H188.023ZM189.659 195.6H191.219V204H189.659V195.6ZM198.129 204.12C197.281 204.12 196.513 203.936 195.825 203.568C195.145 203.192 194.609 202.676 194.217 202.02C193.833 201.364 193.641 200.624 193.641 199.8C193.641 198.976 193.837 198.236 194.229 197.58C194.621 196.924 195.157 196.412 195.837 196.044C196.525 195.668 197.293 195.48 198.141 195.48C198.829 195.48 199.457 195.6 200.025 195.84C200.593 196.08 201.073 196.428 201.465 196.884L200.457 197.832C199.849 197.176 199.101 196.848 198.213 196.848C197.637 196.848 197.121 196.976 196.665 197.232C196.209 197.48 195.853 197.828 195.597 198.276C195.341 198.724 195.213 199.232 195.213 199.8C195.213 200.368 195.341 200.876 195.597 201.324C195.853 201.772 196.209 202.124 196.665 202.38C197.121 202.628 197.637 202.752 198.213 202.752C199.101 202.752 199.849 202.42 200.457 201.756L201.465 202.716C201.073 203.172 200.589 203.52 200.013 203.76C199.445 204 198.817 204.12 198.129 204.12ZM210.01 202.692V204H203.71V195.6H209.842V196.908H205.27V199.092H209.326V200.376H205.27V202.692H210.01ZM215.103 204.12C214.455 204.12 213.827 204.028 213.219 203.844C212.619 203.66 212.143 203.416 211.791 203.112L212.331 201.9C212.675 202.172 213.095 202.396 213.591 202.572C214.095 202.74 214.599 202.824 215.103 202.824C215.727 202.824 216.191 202.724 216.495 202.524C216.807 202.324 216.963 202.06 216.963 201.732C216.963 201.492 216.875 201.296 216.699 201.144C216.531 200.984 216.315 200.86 216.051 200.772C215.787 200.684 215.427 200.584 214.971 200.472C214.331 200.32 213.811 200.168 213.411 200.016C213.019 199.864 212.679 199.628 212.391 199.308C212.111 198.98 211.971 198.54 211.971 197.988C211.971 197.524 212.095 197.104 212.343 196.728C212.599 196.344 212.979 196.04 213.483 195.816C213.995 195.592 214.619 195.48 215.355 195.48C215.867 195.48 216.371 195.544 216.867 195.672C217.363 195.8 217.791 195.984 218.151 196.224L217.659 197.436C217.291 197.22 216.907 197.056 216.507 196.944C216.107 196.832 215.719 196.776 215.343 196.776C214.727 196.776 214.267 196.88 213.963 197.088C213.667 197.296 213.519 197.572 213.519 197.916C213.519 198.156 213.603 198.352 213.771 198.504C213.947 198.656 214.167 198.776 214.431 198.864C214.695 198.952 215.055 199.052 215.511 199.164C216.135 199.308 216.647 199.46 217.047 199.62C217.447 199.772 217.787 200.008 218.067 200.328C218.355 200.648 218.499 201.08 218.499 201.624C218.499 202.088 218.371 202.508 218.115 202.884C217.867 203.26 217.487 203.56 216.975 203.784C216.463 204.008 215.839 204.12 215.103 204.12Z" fill="white" fill-opacity="0.87"/>
<path d="M153.064 73.1461C148.085 63.4738 134.175 63.8226 129.515 73.6539C117.131 99.7788 103.024 141.778 140.342 141.776C176.724 141.777 168.31 105.669 156.122 79.4022C155.12 77.2422 154.092 75.1456 153.064 73.1461Z" fill="white"/>
<path d="M151.493 79.7255L128.747 78.9618L117.368 73.2724L111.088 60.0834L114.281 58.563L120.038 70.6559L129.981 75.6238L151.253 76.2143L164.824 73.9231L178.267 61.0558L180.714 63.6088L166.479 77.2291L151.493 79.7255Z" fill="white"/>
<path d="M123.871 93.0367L101.835 84.4691L103.119 81.1737L124.416 89.4548L159.535 87.0751L185.708 80.5054L186.563 83.9317L160.083 90.5545L123.871 93.0367Z" fill="white"/>
<path d="M118.377 109.919L98.7954 102.574L100.037 99.2649L118.971 106.365L163.549 105.177L186.808 98.6143L187.766 102.019L163.864 108.706L118.377 109.919Z" fill="white"/>
<path d="M185.482 123.12L116.27 121.313L98.9227 121.914L98.7954 118.382L116.252 117.781L185.571 119.584L185.482 123.12Z" fill="white"/>
<path d="M204.74 174.26H191.501L72.3337 46.6665H85.5722L204.74 174.26Z" fill="#221F1F"/>
<defs>
<filter id="filter0_d" x="0" y="0" width="287" height="361" filterUnits="userSpaceOnUse" color-interpolation-filters="sRGB">
<feFlood flood-opacity="0" result="BackgroundImageFix"/>
<feColorMatrix in="SourceAlpha" type="matrix" values="0 0 0 0 0 0 0 0 0 0 0 0 0 0 0 0 0 0 127 0"/>
<feOffset dx="4" dy="4"/>
<feGaussianBlur stdDeviation="2"/>
<feColorMatrix type="matrix" values="0 0 0 0 0 0 0 0 0 0 0 0 0 0 0 0 0 0 0.25 0"/>
<feBlend mode="normal" in2="BackgroundImageFix" result="effect1_dropShadow"/>
<feBlend mode="normal" in="SourceGraphic" in2="effect1_dropShadow" result="shape"/>
</filter>
</defs>
</svg>
