<svg width="287" height="361" viewBox="0 0 287 361" fill="none" xmlns="http://www.w3.org/2000/svg">
<g filter="url(#filter0_d)">
<rect width="279" height="353" rx="8" fill="white" fill-opacity="0.08"/>
<rect width="279" height="353" rx="8" fill="#121212" fill-opacity="0.08"/>
</g>
<path d="M251.286 319.714H242.714V328.286C242.714 329.229 241.943 330 241 330C240.057 330 239.286 329.229 239.286 328.286V319.714H230.714C229.771 319.714 229 318.943 229 318C229 317.057 229.771 316.286 230.714 316.286H239.286V307.714C239.286 306.771 240.057 306 241 306C241.943 306 242.714 306.771 242.714 307.714V316.286H251.286C252.229 316.286 253 317.057 253 318C253 318.943 252.229 319.714 251.286 319.714Z" fill="#FAFAFA"/>
<path d="M116.08 237.632C116.544 237.784 116.912 238.04 117.184 238.4C117.456 238.752 117.592 239.192 117.592 239.72C117.592 240.448 117.312 241.012 116.752 241.412C116.192 241.804 115.376 242 114.304 242H110.128V233.6H114.064C115.056 233.6 115.82 233.796 116.356 234.188C116.892 234.572 117.16 235.104 117.16 235.784C117.16 236.2 117.064 236.568 116.872 236.888C116.68 237.208 116.416 237.456 116.08 237.632ZM111.688 234.824V237.14H113.896C114.44 237.14 114.856 237.044 115.144 236.852C115.44 236.652 115.588 236.364 115.588 235.988C115.588 235.604 115.44 235.316 115.144 235.124C114.856 234.924 114.44 234.824 113.896 234.824H111.688ZM114.208 240.776C115.416 240.776 116.02 240.372 116.02 239.564C116.02 238.756 115.416 238.352 114.208 238.352H111.688V240.776H114.208ZM125.503 242L123.787 239.54C123.715 239.548 123.607 239.552 123.463 239.552H121.567V242H120.007V233.6H123.463C124.191 233.6 124.823 233.72 125.359 233.96C125.903 234.2 126.319 234.544 126.607 234.992C126.895 235.44 127.039 235.972 127.039 236.588C127.039 237.22 126.883 237.764 126.571 238.22C126.267 238.676 125.827 239.016 125.251 239.24L127.183 242H125.503ZM125.467 236.588C125.467 236.052 125.291 235.64 124.939 235.352C124.587 235.064 124.071 234.92 123.391 234.92H121.567V238.268H123.391C124.071 238.268 124.587 238.124 124.939 237.836C125.291 237.54 125.467 237.124 125.467 236.588ZM134.982 240.056H130.782L129.954 242H128.346L132.126 233.6H133.662L137.454 242H135.822L134.982 240.056ZM134.466 238.832L132.882 235.16L131.31 238.832H134.466ZM142.165 238.484L140.833 239.852V242H139.273V233.6H140.833V237.908L144.985 233.6H146.737L143.209 237.356L146.953 242H145.129L142.165 238.484ZM155.065 240.692V242H148.765V233.6H154.897V234.908H150.325V237.092H154.381V238.376H150.325V240.692H155.065ZM160.158 242.12C159.51 242.12 158.882 242.028 158.274 241.844C157.674 241.66 157.198 241.416 156.846 241.112L157.386 239.9C157.73 240.172 158.15 240.396 158.646 240.572C159.15 240.74 159.654 240.824 160.158 240.824C160.782 240.824 161.246 240.724 161.55 240.524C161.862 240.324 162.018 240.06 162.018 239.732C162.018 239.492 161.93 239.296 161.754 239.144C161.586 238.984 161.37 238.86 161.106 238.772C160.842 238.684 160.482 238.584 160.026 238.472C159.386 238.32 158.866 238.168 158.466 238.016C158.074 237.864 157.734 237.628 157.446 237.308C157.166 236.98 157.026 236.54 157.026 235.988C157.026 235.524 157.15 235.104 157.398 234.728C157.654 234.344 158.034 234.04 158.538 233.816C159.05 233.592 159.674 233.48 160.41 233.48C160.922 233.48 161.426 233.544 161.922 233.672C162.418 233.8 162.846 233.984 163.206 234.224L162.714 235.436C162.346 235.22 161.962 235.056 161.562 234.944C161.162 234.832 160.774 234.776 160.398 234.776C159.782 234.776 159.322 234.88 159.018 235.088C158.722 235.296 158.574 235.572 158.574 235.916C158.574 236.156 158.658 236.352 158.826 236.504C159.002 236.656 159.222 236.776 159.486 236.864C159.75 236.952 160.11 237.052 160.566 237.164C161.19 237.308 161.702 237.46 162.102 237.62C162.502 237.772 162.842 238.008 163.122 238.328C163.41 238.648 163.554 239.08 163.554 239.624C163.554 240.088 163.426 240.508 163.17 240.884C162.922 241.26 162.542 241.56 162.03 241.784C161.518 242.008 160.894 242.12 160.158 242.12Z" fill="white" fill-opacity="0.87"/>
<path d="M138.362 164.304C119.169 164.304 103.632 148.746 103.632 129.553C103.632 110.364 119.169 94.802 138.362 94.802C157.555 94.802 173.117 110.364 173.117 129.553C173.117 148.746 157.555 164.304 138.362 164.304ZM176.278 132.693C177.922 119.154 171.985 107.584 162.743 100.028L177.558 85.2161C167.141 75.9732 153.394 70.3794 138.362 70.3794C105.683 70.3794 79.1921 96.8706 79.1921 129.553C79.1921 162.236 105.683 188.727 138.362 188.727C169.998 188.727 195.832 163.901 197.455 132.693H176.278Z" fill="white" stroke="white"/>
<path d="M159.062 127.426C156.565 127.426 154.557 125.422 154.557 122.922C154.557 120.443 156.565 118.417 159.062 118.417C161.537 118.417 163.566 120.443 163.566 122.922C163.566 125.422 161.537 127.426 159.062 127.426ZM151.183 151.785C148.708 151.785 146.703 149.752 146.703 147.277C146.703 144.781 148.708 142.776 151.183 142.776C153.683 142.776 155.688 144.781 155.688 147.277C155.688 149.752 153.683 151.785 151.183 151.785ZM124.65 129.431C124.65 121.854 130.778 115.726 138.355 115.726C145.911 115.726 152.06 121.854 152.06 129.431C152.06 136.988 145.911 143.115 138.355 143.115C130.778 143.115 124.65 136.988 124.65 129.431ZM125.46 151.785C122.963 151.785 120.958 149.752 120.958 147.277C120.958 144.781 122.963 142.776 125.46 142.776C127.938 142.776 129.964 144.781 129.964 147.277C129.964 149.752 127.938 151.785 125.46 151.785ZM117.649 127.426C115.149 127.426 113.148 125.422 113.148 122.922C113.148 120.443 115.149 118.417 117.649 118.417C120.145 118.417 122.154 120.443 122.154 122.922C122.154 125.422 120.145 127.426 117.649 127.426ZM138.292 103.195C140.767 103.195 142.793 105.228 142.793 107.703C142.793 110.199 140.767 112.204 138.292 112.204C135.792 112.204 133.79 110.199 133.79 107.703C133.79 105.228 135.792 103.195 138.292 103.195ZM138.355 96.8159C120.382 96.8159 105.761 111.458 105.761 129.431C105.761 147.408 120.382 162.05 138.355 162.05C156.349 162.05 170.974 147.408 170.974 129.431C170.974 111.458 156.349 96.8159 138.355 96.8159Z" fill="white" stroke="white"/>
<path d="M178.627 130.633C179.32 119.03 174.766 108.073 165.886 99.9821L186.512 79.3566C199.754 93.349 207.234 111.406 207.744 130.632L178.627 130.633Z" fill="#FC5C2E" stroke="white"/>
<defs>
<filter id="filter0_d" x="0" y="0" width="287" height="361" filterUnits="userSpaceOnUse" color-interpolation-filters="sRGB">
<feFlood flood-opacity="0" result="BackgroundImageFix"/>
<feColorMatrix in="SourceAlpha" type="matrix" values="0 0 0 0 0 0 0 0 0 0 0 0 0 0 0 0 0 0 127 0"/>
<feOffset dx="4" dy="4"/>
<feGaussianBlur stdDeviation="2"/>
<feColorMatrix type="matrix" values="0 0 0 0 0 0 0 0 0 0 0 0 0 0 0 0 0 0 0.25 0"/>
<feBlend mode="normal" in2="BackgroundImageFix" result="effect1_dropShadow"/>
<feBlend mode="normal" in="SourceGraphic" in2="effect1_dropShadow" result="shape"/>
</filter>
</defs>
</svg>
