<svg width="287" height="361" viewBox="0 0 287 361" fill="none" xmlns="http://www.w3.org/2000/svg">
<g filter="url(#filter0_d)">
<rect width="279" height="353" rx="8" fill="white" fill-opacity="0.08"/>
<rect width="279" height="353" rx="8" fill="#121212" fill-opacity="0.08"/>
</g>
<path d="M251.286 319.714H242.714V328.286C242.714 329.229 241.943 330 241 330C240.057 330 239.286 329.229 239.286 328.286V319.714H230.714C229.771 319.714 229 318.943 229 318C229 317.057 229.771 316.286 230.714 316.286H239.286V307.714C239.286 306.771 240.057 306 241 306C241.943 306 242.714 306.771 242.714 307.714V316.286H251.286C252.229 316.286 253 317.057 253 318C253 318.943 252.229 319.714 251.286 319.714Z" fill="#FAFAFA"/>
<path d="M50.128 218.6H51.688V225.68H56.08V227H50.128V218.6ZM61.5564 227.12C60.3964 227.12 59.4924 226.796 58.8444 226.148C58.1964 225.492 57.8724 224.556 57.8724 223.34V218.6H59.4324V223.28C59.4324 224.928 60.1444 225.752 61.5684 225.752C62.9844 225.752 63.6924 224.928 63.6924 223.28V218.6H65.2284V223.34C65.2284 224.556 64.9044 225.492 64.2564 226.148C63.6164 226.796 62.7164 227.12 61.5564 227.12ZM74.1152 222.632C74.5792 222.784 74.9472 223.04 75.2192 223.4C75.4912 223.752 75.6272 224.192 75.6272 224.72C75.6272 225.448 75.3472 226.012 74.7872 226.412C74.2272 226.804 73.4112 227 72.3392 227H68.1632V218.6H72.0992C73.0912 218.6 73.8552 218.796 74.3912 219.188C74.9272 219.572 75.1952 220.104 75.1952 220.784C75.1952 221.2 75.0992 221.568 74.9072 221.888C74.7152 222.208 74.4512 222.456 74.1152 222.632ZM69.7232 219.824V222.14H71.9312C72.4752 222.14 72.8912 222.044 73.1792 221.852C73.4752 221.652 73.6232 221.364 73.6232 220.988C73.6232 220.604 73.4752 220.316 73.1792 220.124C72.8912 219.924 72.4752 219.824 71.9312 219.824H69.7232ZM72.2432 225.776C73.4512 225.776 74.0552 225.372 74.0552 224.564C74.0552 223.756 73.4512 223.352 72.2432 223.352H69.7232V225.776H72.2432ZM83.5381 227L81.8221 224.54C81.7501 224.548 81.6421 224.552 81.4981 224.552H79.6021V227H78.0421V218.6H81.4981C82.2261 218.6 82.8581 218.72 83.3941 218.96C83.9381 219.2 84.3541 219.544 84.6421 219.992C84.9301 220.44 85.0741 220.972 85.0741 221.588C85.0741 222.22 84.9181 222.764 84.6061 223.22C84.3021 223.676 83.8621 224.016 83.2861 224.24L85.2181 227H83.5381ZM83.5021 221.588C83.5021 221.052 83.3261 220.64 82.9741 220.352C82.6221 220.064 82.1061 219.92 81.4261 219.92H79.6021V223.268H81.4261C82.1061 223.268 82.6221 223.124 82.9741 222.836C83.3261 222.54 83.5021 222.124 83.5021 221.588ZM87.5694 218.6H89.1294V227H87.5694V218.6ZM96.0394 227.12C95.1914 227.12 94.4234 226.936 93.7354 226.568C93.0554 226.192 92.5194 225.676 92.1274 225.02C91.7434 224.364 91.5514 223.624 91.5514 222.8C91.5514 221.976 91.7474 221.236 92.1394 220.58C92.5314 219.924 93.0674 219.412 93.7474 219.044C94.4354 218.668 95.2034 218.48 96.0514 218.48C96.7394 218.48 97.3674 218.6 97.9354 218.84C98.5034 219.08 98.9834 219.428 99.3754 219.884L98.3674 220.832C97.7594 220.176 97.0114 219.848 96.1234 219.848C95.5474 219.848 95.0314 219.976 94.5754 220.232C94.1194 220.48 93.7634 220.828 93.5074 221.276C93.2514 221.724 93.1234 222.232 93.1234 222.8C93.1234 223.368 93.2514 223.876 93.5074 224.324C93.7634 224.772 94.1194 225.124 94.5754 225.38C95.0314 225.628 95.5474 225.752 96.1234 225.752C97.0114 225.752 97.7594 225.42 98.3674 224.756L99.3754 225.716C98.9834 226.172 98.4994 226.52 97.9234 226.76C97.3554 227 96.7274 227.12 96.0394 227.12ZM106.892 225.056H102.692L101.864 227H100.256L104.036 218.6H105.572L109.364 227H107.732L106.892 225.056ZM106.376 223.832L104.792 220.16L103.22 223.832H106.376ZM112.465 219.92H109.681V218.6H116.809V219.92H114.025V227H112.465V219.92ZM118.73 218.6H120.29V227H118.73V218.6ZM127.236 227.12C126.38 227.12 125.608 226.936 124.92 226.568C124.232 226.192 123.692 225.676 123.3 225.02C122.908 224.356 122.712 223.616 122.712 222.8C122.712 221.984 122.908 221.248 123.3 220.592C123.692 219.928 124.232 219.412 124.92 219.044C125.608 218.668 126.38 218.48 127.236 218.48C128.092 218.48 128.864 218.668 129.552 219.044C130.24 219.412 130.78 219.924 131.172 220.58C131.564 221.236 131.76 221.976 131.76 222.8C131.76 223.624 131.564 224.364 131.172 225.02C130.78 225.676 130.24 226.192 129.552 226.568C128.864 226.936 128.092 227.12 127.236 227.12ZM127.236 225.752C127.796 225.752 128.3 225.628 128.748 225.38C129.196 225.124 129.548 224.772 129.804 224.324C130.06 223.868 130.188 223.36 130.188 222.8C130.188 222.24 130.06 221.736 129.804 221.288C129.548 220.832 129.196 220.48 128.748 220.232C128.3 219.976 127.796 219.848 127.236 219.848C126.676 219.848 126.172 219.976 125.724 220.232C125.276 220.48 124.924 220.832 124.668 221.288C124.412 221.736 124.284 222.24 124.284 222.8C124.284 223.36 124.412 223.868 124.668 224.324C124.924 224.772 125.276 225.124 125.724 225.38C126.172 225.628 126.676 225.752 127.236 225.752ZM141.627 218.6V227H140.343L135.711 221.312V227H134.163V218.6H135.447L140.079 224.288V218.6H141.627ZM156.41 227L156.398 221.432L153.638 226.04H152.942L150.182 221.504V227H148.694V218.6H149.978L153.314 224.168L156.59 218.6H157.874L157.886 227H156.41ZM166.353 225.056H162.153L161.325 227H159.717L163.497 218.6H165.033L168.825 227H167.193L166.353 225.056ZM165.837 223.832L164.253 220.16L162.681 223.832H165.837ZM178.108 218.6V227H176.824L172.192 221.312V227H170.644V218.6H171.928L176.56 224.288V218.6H178.108ZM186.556 225.056H182.356L181.528 227H179.92L183.7 218.6H185.236L189.028 227H187.396L186.556 225.056ZM186.04 223.832L184.456 220.16L182.884 223.832H186.04ZM196.466 222.704H197.942V226.052C197.51 226.396 197.006 226.66 196.43 226.844C195.854 227.028 195.262 227.12 194.654 227.12C193.798 227.12 193.026 226.936 192.338 226.568C191.65 226.192 191.11 225.676 190.718 225.02C190.326 224.364 190.13 223.624 190.13 222.8C190.13 221.976 190.326 221.236 190.718 220.58C191.11 219.924 191.65 219.412 192.338 219.044C193.034 218.668 193.814 218.48 194.678 218.48C195.382 218.48 196.022 218.596 196.598 218.828C197.174 219.06 197.658 219.4 198.05 219.848L197.066 220.808C196.426 220.168 195.654 219.848 194.75 219.848C194.158 219.848 193.63 219.972 193.166 220.22C192.71 220.468 192.35 220.816 192.086 221.264C191.83 221.712 191.702 222.224 191.702 222.8C191.702 223.36 191.83 223.864 192.086 224.312C192.35 224.76 192.71 225.112 193.166 225.368C193.63 225.624 194.154 225.752 194.738 225.752C195.394 225.752 195.97 225.608 196.466 225.32V222.704ZM207.049 225.692V227H200.749V218.6H206.881V219.908H202.309V222.092H206.365V223.376H202.309V225.692H207.049ZM217.254 227L217.242 221.432L214.482 226.04H213.786L211.026 221.504V227H209.538V218.6H210.822L214.158 224.168L217.434 218.6H218.718L218.73 227H217.254ZM228.049 225.692V227H221.749V218.6H227.881V219.908H223.309V222.092H227.365V223.376H223.309V225.692H228.049ZM238.002 218.6V227H236.718L232.086 221.312V227H230.538V218.6H231.822L236.454 224.288V218.6H238.002ZM242.707 219.92H239.923V218.6H247.051V219.92H244.267V227H242.707V219.92Z" fill="white" fill-opacity="0.87"/>
<path d="M141.889 94.1696L139.563 65.5569L161.772 93.3952L163.006 94.944L141.889 94.1696ZM161.036 147.576H103.532V105.58H161.036V147.576ZM173.84 94.944L173.582 94.6258L173.522 94.5656L139.085 52.8311L138.131 51.6749C137.455 51.0808 136.557 50.7449 135.585 50.7449H123.655V47.8384H105.105V50.7449H95.162C92.9733 50.7449 91.1841 52.5129 91.1841 54.7193V156.444C91.1841 158.651 92.9733 160.419 95.162 160.419H170.718C172.906 160.419 174.696 158.651 174.696 156.444V97.3696C174.696 96.4361 174.377 95.5981 173.84 94.944Z" fill="white" stroke="white"/>
<path d="M139.084 52.6928L138.125 51.54C138.529 51.8547 138.847 52.2543 139.084 52.6928Z" fill="white" stroke="white"/>
<path d="M103.531 37.2637H125.238V45.7994H103.531V37.2637Z" fill="white" stroke="white"/>
<path d="M130.982 138.258C130.307 139.17 128.974 138.354 128.178 137.919C127.227 137.402 125.374 135.889 125.533 134.577C125.813 132.731 127.662 133.98 128.716 134.853C130.109 136.126 131.283 137.88 130.982 138.258ZM141.183 126.208L141.024 125.967L132.952 111.551L124.402 126.742C123.606 128.138 123.189 129.747 123.189 131.455C123.189 136.844 127.563 141.179 132.952 141.179C138.34 141.179 142.697 136.844 142.697 131.455C142.697 129.524 142.138 127.718 141.183 126.208Z" fill="white" stroke="white"/>
<defs>
<filter id="filter0_d" x="0" y="0" width="287" height="361" filterUnits="userSpaceOnUse" color-interpolation-filters="sRGB">
<feFlood flood-opacity="0" result="BackgroundImageFix"/>
<feColorMatrix in="SourceAlpha" type="matrix" values="0 0 0 0 0 0 0 0 0 0 0 0 0 0 0 0 0 0 127 0"/>
<feOffset dx="4" dy="4"/>
<feGaussianBlur stdDeviation="2"/>
<feColorMatrix type="matrix" values="0 0 0 0 0 0 0 0 0 0 0 0 0 0 0 0 0 0 0.25 0"/>
<feBlend mode="normal" in2="BackgroundImageFix" result="effect1_dropShadow"/>
<feBlend mode="normal" in="SourceGraphic" in2="effect1_dropShadow" result="shape"/>
</filter>
</defs>
</svg>
