<svg width="287" height="361" viewBox="0 0 287 361" fill="none" xmlns="http://www.w3.org/2000/svg">
<g filter="url(#filter0_d)">
<rect width="279" height="353" rx="8" fill="white" fill-opacity="0.08"/>
<rect width="279" height="353" rx="8" fill="#121212" fill-opacity="0.08"/>
</g>
<path d="M251.286 319.714H242.714V328.286C242.714 329.229 241.943 330 241 330C240.057 330 239.286 329.229 239.286 328.286V319.714H230.714C229.771 319.714 229 318.943 229 318C229 317.057 229.771 316.286 230.714 316.286H239.286V307.714C239.286 306.771 240.057 306 241 306C241.943 306 242.714 306.771 242.714 307.714V316.286H251.286C252.229 316.286 253 317.057 253 318C253 318.943 252.229 319.714 251.286 319.714Z" fill="#FAFAFA"/>
<path d="M104.832 216.92H102.048V215.6H109.176V216.92H106.392V224H104.832V216.92ZM111.097 215.6H112.657V224H111.097V215.6ZM121.175 224L119.459 221.54C119.387 221.548 119.279 221.552 119.135 221.552H117.239V224H115.679V215.6H119.135C119.863 215.6 120.495 215.72 121.031 215.96C121.575 216.2 121.991 216.544 122.279 216.992C122.567 217.44 122.711 217.972 122.711 218.588C122.711 219.22 122.555 219.764 122.243 220.22C121.939 220.676 121.499 221.016 120.923 221.24L122.855 224H121.175ZM121.139 218.588C121.139 218.052 120.963 217.64 120.611 217.352C120.259 217.064 119.743 216.92 119.063 216.92H117.239V220.268H119.063C119.743 220.268 120.259 220.124 120.611 219.836C120.963 219.54 121.139 219.124 121.139 218.588ZM131.506 222.692V224H125.206V215.6H131.338V216.908H126.766V219.092H130.822V220.376H126.766V222.692H131.506ZM143.558 224L141.842 221.54C141.77 221.548 141.662 221.552 141.518 221.552H139.622V224H138.062V215.6H141.518C142.246 215.6 142.878 215.72 143.414 215.96C143.958 216.2 144.374 216.544 144.662 216.992C144.95 217.44 145.094 217.972 145.094 218.588C145.094 219.22 144.938 219.764 144.626 220.22C144.322 220.676 143.882 221.016 143.306 221.24L145.238 224H143.558ZM143.522 218.588C143.522 218.052 143.346 217.64 142.994 217.352C142.642 217.064 142.126 216.92 141.446 216.92H139.622V220.268H141.446C142.126 220.268 142.642 220.124 142.994 219.836C143.346 219.54 143.522 219.124 143.522 218.588ZM153.889 222.692V224H147.589V215.6H153.721V216.908H149.149V219.092H153.205V220.376H149.149V222.692H153.889ZM159.834 215.6C160.562 215.6 161.194 215.72 161.73 215.96C162.274 216.2 162.69 216.544 162.978 216.992C163.266 217.44 163.41 217.972 163.41 218.588C163.41 219.196 163.266 219.728 162.978 220.184C162.69 220.632 162.274 220.976 161.73 221.216C161.194 221.456 160.562 221.576 159.834 221.576H157.938V224H156.378V215.6H159.834ZM159.762 220.256C160.442 220.256 160.958 220.112 161.31 219.824C161.662 219.536 161.838 219.124 161.838 218.588C161.838 218.052 161.662 217.64 161.31 217.352C160.958 217.064 160.442 216.92 159.762 216.92H157.938V220.256H159.762ZM170.744 222.056H166.544L165.716 224H164.108L167.888 215.6H169.424L173.216 224H171.584L170.744 222.056ZM170.228 220.832L168.644 217.16L167.072 220.832H170.228ZM175.034 215.6H176.594V224H175.034V215.6ZM185.112 224L183.396 221.54C183.324 221.548 183.216 221.552 183.072 221.552H181.176V224H179.616V215.6H183.072C183.8 215.6 184.432 215.72 184.968 215.96C185.512 216.2 185.928 216.544 186.216 216.992C186.504 217.44 186.648 217.972 186.648 218.588C186.648 219.22 186.492 219.764 186.18 220.22C185.876 220.676 185.436 221.016 184.86 221.24L186.792 224H185.112ZM185.076 218.588C185.076 218.052 184.9 217.64 184.548 217.352C184.196 217.064 183.68 216.92 183 216.92H181.176V220.268H183C183.68 220.268 184.196 220.124 184.548 219.836C184.9 219.54 185.076 219.124 185.076 218.588Z" fill="white" fill-opacity="0.87"/>
<path d="M155.811 113.033C155.811 123.267 147.517 131.561 137.279 131.561C127.049 131.561 118.755 123.267 118.755 113.033C118.755 102.802 127.049 94.5054 137.279 94.5054C147.517 94.5054 155.811 102.802 155.811 113.033Z" fill="white" stroke="white" stroke-width="2"/>
<path d="M151.043 72.8271C147.334 80.5934 140.576 89.6815 137.265 89.6815C133.956 89.6815 127.196 80.5934 123.49 72.8271C119.978 73.7026 118.16 74.6202 118.16 74.6202C118.16 74.6202 131.777 101.101 137.265 101.101C142.76 101.101 156.373 74.6202 156.373 74.6202C156.373 74.6202 154.555 73.7026 151.043 72.8271Z" fill="white"/>
<path d="M151.043 72.8271C147.334 80.5934 140.576 89.6815 137.265 89.6815C133.956 89.6815 127.196 80.5934 123.49 72.8271C119.978 73.7026 118.16 74.6202 118.16 74.6202C118.16 74.6202 131.777 101.101 137.265 101.101C142.76 101.101 156.373 74.6202 156.373 74.6202C156.373 74.6202 154.555 73.7026 151.043 72.8271" stroke="white" stroke-width="2"/>
<path d="M109.253 81.0409C114.129 88.1357 118.619 98.5316 116.963 101.4C115.307 104.266 104.057 105.577 95.4782 104.902C94.4797 108.379 94.3672 110.411 94.3672 110.411C94.3672 110.411 124.107 111.867 126.852 107.11C129.598 102.353 113.472 77.3213 113.472 77.3213C113.472 77.3213 111.77 78.4358 109.253 81.0409Z" fill="white"/>
<path d="M109.253 81.0409C114.129 88.1357 118.619 98.5316 116.963 101.4C115.307 104.266 104.057 105.577 95.4782 104.902C94.4797 108.379 94.3672 110.411 94.3672 110.411C94.3672 110.411 124.107 111.867 126.852 107.11C129.598 102.353 113.472 77.3213 113.472 77.3213C113.472 77.3213 111.77 78.4358 109.253 81.0409" stroke="white" stroke-width="2"/>
<path d="M95.4782 121.375C104.057 120.7 115.307 122.011 116.963 124.88C118.619 127.745 114.129 138.141 109.253 145.236C111.77 147.838 113.472 148.955 113.472 148.955C113.472 148.955 129.598 123.924 126.852 119.167C124.107 114.414 94.3672 115.862 94.3672 115.862C94.3672 115.862 94.4797 117.898 95.4782 121.375Z" fill="white"/>
<path d="M95.4782 121.375C104.057 120.7 115.307 122.011 116.963 124.88C118.619 127.745 114.129 138.141 109.253 145.236C111.77 147.838 113.472 148.955 113.472 148.955C113.472 148.955 129.598 123.924 126.852 119.167C124.107 114.414 94.3672 115.862 94.3672 115.862C94.3672 115.862 94.4797 117.898 95.4782 121.375" stroke="white" stroke-width="2"/>
<path d="M123.49 153.445C127.196 145.679 133.956 136.591 137.265 136.591C140.576 136.591 147.334 145.679 151.043 153.445C154.555 152.57 156.373 151.652 156.373 151.652C156.373 151.652 142.756 125.172 137.265 125.172C131.773 125.172 118.16 151.652 118.16 151.652C118.16 151.652 119.978 152.57 123.49 153.445Z" fill="white"/>
<path d="M123.49 153.445C127.196 145.679 133.956 136.591 137.265 136.591C140.576 136.591 147.334 145.679 151.043 153.445C154.555 152.57 156.373 151.652 156.373 151.652C156.373 151.652 142.756 125.172 137.265 125.172C131.773 125.172 118.16 151.652 118.16 151.652C118.16 151.652 119.978 152.57 123.49 153.445" stroke="white" stroke-width="2"/>
<path d="M165.287 145.233C160.411 138.139 155.921 127.746 157.577 124.877C159.233 122.009 170.483 120.701 179.062 121.372C180.06 117.895 180.172 115.863 180.172 115.863C180.172 115.863 150.429 114.411 147.687 119.164C144.941 123.921 161.068 148.953 161.068 148.953C161.068 148.953 162.77 147.839 165.287 145.233Z" fill="white" stroke="white" stroke-width="2"/>
<path d="M179.062 104.902C170.483 105.577 159.233 104.266 157.577 101.4C155.921 98.5316 160.411 88.1357 165.287 81.0409C162.77 78.4393 161.068 77.3213 161.068 77.3213C161.068 77.3213 144.941 102.353 147.687 107.11C150.429 111.867 180.172 110.415 180.172 110.415C180.172 110.415 180.06 108.383 179.062 104.902Z" fill="white" stroke="white" stroke-width="2"/>
<path d="M137.286 66.7471C111.649 66.7471 90.8644 87.532 90.8644 113.169C90.8644 138.809 111.649 159.59 137.286 159.59C162.926 159.59 183.708 138.809 183.708 113.169C183.708 87.532 162.926 66.7471 137.286 66.7471ZM179.165 113.169C179.165 136.299 160.416 155.048 137.286 155.048C114.16 155.048 95.4102 136.299 95.4102 113.169C95.4102 90.0387 114.16 71.2894 137.286 71.2894C160.416 71.2894 179.165 90.0387 179.165 113.169Z" fill="white" stroke="white" stroke-width="2"/>
<path d="M182.821 113.099C182.821 138.246 162.43 158.638 137.282 158.638C112.134 158.638 91.7465 138.246 91.7465 113.099C91.7465 87.9506 112.134 67.5629 137.282 67.5629C162.43 67.5629 182.821 87.9506 182.821 113.099ZM137.282 50.6206C102.775 50.6206 74.8042 78.5952 74.8042 113.099C74.8042 147.605 102.775 175.576 137.282 175.576C171.789 175.576 199.76 147.605 199.76 113.099C199.76 78.5952 171.789 50.6206 137.282 50.6206Z" fill="white"/>
<path d="M137.282 50.6206C102.775 50.6206 74.8042 78.5952 74.8042 113.099C74.8042 147.605 102.775 175.576 137.282 175.576C171.789 175.576 199.76 147.605 199.76 113.099C199.76 78.5952 171.789 50.6206 137.282 50.6206M182.821 113.099C182.821 138.246 162.43 158.638 137.282 158.638C112.134 158.638 91.7465 138.246 91.7465 113.099C91.7465 87.9505 112.134 67.5629 137.282 67.5629C162.43 67.5629 182.821 87.9505 182.821 113.099V113.099Z" stroke="white" stroke-width="2"/>
<path d="M195.705 113.017C195.705 145.291 169.544 171.455 137.267 171.455C104.992 171.455 78.8317 145.291 78.8317 113.017C78.8317 80.7427 104.992 54.5787 137.267 54.5787C169.544 54.5787 195.705 80.7427 195.705 113.017ZM137.267 51.6782C103.389 51.6782 75.9277 79.1395 75.9277 113.017C75.9277 146.895 103.389 174.356 137.267 174.356C171.148 174.356 198.605 146.895 198.605 113.017C198.605 79.1395 171.148 51.6782 137.267 51.6782Z" fill="white"/>
<path d="M137.267 51.6782C103.389 51.6782 75.9277 79.1395 75.9277 113.017C75.9277 146.895 103.389 174.356 137.267 174.356C171.148 174.356 198.605 146.895 198.605 113.017C198.605 79.1395 171.148 51.6782 137.267 51.6782M195.705 113.017C195.705 145.291 169.544 171.455 137.267 171.455C104.992 171.455 78.8317 145.291 78.8317 113.017C78.8317 80.7427 104.992 54.5787 137.267 54.5787C169.544 54.5787 195.705 80.7427 195.705 113.017Z" stroke="white" stroke-width="2"/>
<path d="M188.171 112.993C188.171 141.119 165.372 163.918 137.246 163.918C109.124 163.918 86.3207 141.119 86.3207 112.993C86.3207 84.8673 109.124 62.0714 137.246 62.0714C165.372 62.0714 188.171 84.8673 188.171 112.993ZM137.246 54.5864C104.989 54.5864 78.8357 80.7364 78.8357 112.993C78.8357 145.25 104.989 171.4 137.246 171.4C169.503 171.4 195.653 145.25 195.653 112.993C195.653 80.7364 169.503 54.5864 137.246 54.5864Z" fill="white" stroke="white" stroke-width="2"/>
<path d="M144.61 113.213C144.61 117.271 141.322 120.558 137.265 120.558C133.212 120.558 129.924 117.271 129.924 113.213C129.924 109.16 133.212 105.873 137.265 105.873C141.322 105.873 144.61 109.16 144.61 113.213Z" fill="white" stroke="white" stroke-width="2"/>
<path d="M138.896 51.8773H132.899L133.461 49.8276H138.334L138.896 51.8773Z" fill="white" stroke="white" stroke-width="2"/>
<path d="M132.45 52.0711L126.488 52.6969L126.829 50.5981L131.673 50.0918L132.45 52.0711Z" fill="white" stroke="white" stroke-width="2"/>
<path d="M126.077 52.7732L120.209 54.0213L120.336 51.8943L125.103 50.8853L126.077 52.7732Z" fill="white" stroke="white" stroke-width="2"/>
<path d="M119.863 54.5108L114.161 56.3636L114.062 54.2401L118.696 52.7354L119.863 54.5108Z" fill="white" stroke="white" stroke-width="2"/>
<path d="M113.846 56.4959L108.365 58.9359L108.048 56.8335L112.495 54.8506L113.846 56.4959Z" fill="white" stroke="white" stroke-width="2"/>
<path d="M108.032 59.2525L102.836 62.2514L102.298 60.1947L106.517 57.7583L108.032 59.2525Z" fill="white" stroke="white" stroke-width="2"/>
<path d="M102.549 62.5243L97.6937 66.0505L96.9448 64.0606L100.886 61.1953L102.549 62.5243Z" fill="white" stroke="white" stroke-width="2"/>
<path d="M97.4648 66.5709L93.0068 70.5859L92.0541 68.6839L95.6718 65.4248L97.4648 66.5709Z" fill="white" stroke="white" stroke-width="2"/>
<path d="M92.8531 70.8722L88.8381 75.3301L87.692 73.5406L90.9511 69.9194L92.8531 70.8722Z" fill="white" stroke="white" stroke-width="2"/>
<path d="M88.6478 75.9554L85.1215 80.8071L83.7926 79.1442L86.6579 75.2065L88.6478 75.9554Z" fill="white" stroke="white" stroke-width="2"/>
<path d="M85.0472 81.032L82.0483 86.2283L80.5541 84.713L82.9905 80.4941L85.0472 81.032Z" fill="white" stroke="white" stroke-width="2"/>
<path d="M81.9957 86.63L79.5593 92.111L77.9104 90.761L79.8933 86.3101L81.9957 86.63Z" fill="white" stroke="white" stroke-width="2"/>
<path d="M79.556 92.7527L77.7067 98.4588L75.9277 97.288L77.4325 92.6543L79.556 92.7527Z" fill="white" stroke="white" stroke-width="2"/>
<path d="M77.6793 98.7354L76.4348 104.6L74.5398 103.626L75.5558 98.8584L77.6793 98.7354Z" fill="white" stroke="white" stroke-width="2"/>
<path d="M76.5536 105.08L75.9243 111.046L73.9449 110.273L74.4512 105.428L76.5536 105.08Z" fill="white" stroke="white" stroke-width="2"/>
<path d="M76.0643 111.425V117.423L74.0111 116.86V111.987L76.0643 111.425Z" fill="white" stroke="white" stroke-width="2"/>
<path d="M76.1887 118.034L76.8145 124L74.7156 123.655L74.2094 118.807L76.1887 118.034Z" fill="white" stroke="white" stroke-width="2"/>
<path d="M77.0261 124.378L78.2707 130.246L76.1472 130.123L75.1346 125.356L77.0261 124.378Z" fill="white" stroke="white" stroke-width="2"/>
<path d="M78.5623 130.459L80.4151 136.165L78.2916 136.263L76.7869 131.63L78.5623 130.459Z" fill="white" stroke="white" stroke-width="2"/>
<path d="M80.6794 136.54L83.1158 142.021L81.0169 142.34L79.0341 137.89L80.6794 136.54Z" fill="white" stroke="white" stroke-width="2"/>
<path d="M83.4397 142.355L86.4386 147.552L84.3819 148.086L81.942 143.871L83.4397 142.355Z" fill="white" stroke="white" stroke-width="2"/>
<path d="M86.7738 147.907L90.2965 152.758L88.3101 153.511L85.4448 149.57L86.7738 147.907Z" fill="white" stroke="white" stroke-width="2"/>
<path d="M90.6887 152.93L94.7037 157.388L92.8052 158.344L89.5426 154.723L90.6887 152.93Z" fill="white" stroke="white" stroke-width="2"/>
<path d="M95.1217 157.425L99.5797 161.44L97.7901 162.586L94.1689 159.327L95.1217 157.425Z" fill="white" stroke="white" stroke-width="2"/>
<path d="M100.007 161.654L104.862 165.181L103.199 166.51L99.2579 163.644L100.007 161.654Z" fill="white" stroke="white" stroke-width="2"/>
<path d="M105.281 165.355L110.478 168.354L108.962 169.849L104.744 167.412L105.281 165.355Z" fill="white" stroke="white" stroke-width="2"/>
<path d="M110.883 168.527L116.364 170.967L115.014 172.613L110.56 170.63L110.883 168.527Z" fill="white" stroke="white" stroke-width="2"/>
<path d="M116.805 170.907L122.511 172.76L121.34 174.539L116.706 173.031L116.805 170.907Z" fill="white" stroke="white" stroke-width="2"/>
<path d="M122.985 172.757L128.853 174.005L127.875 175.893L123.108 174.881L122.985 172.757Z" fill="white" stroke="white" stroke-width="2"/>
<path d="M129.264 173.815L135.23 174.441L134.456 176.424L129.612 175.914L129.264 173.815Z" fill="white" stroke="white" stroke-width="2"/>
<path d="M135.674 174.344H141.672L141.11 176.393H136.237L135.674 174.344Z" fill="white" stroke="white" stroke-width="2"/>
<path d="M142.085 174.177L148.048 173.551L147.707 175.65L142.859 176.159L142.085 174.177Z" fill="white" stroke="white" stroke-width="2"/>
<path d="M148.43 173.477L154.298 172.229L154.175 174.356L149.407 175.368L148.43 173.477Z" fill="white" stroke="white" stroke-width="2"/>
<path d="M154.643 171.967L160.349 170.114L160.447 172.241L155.813 173.742L154.643 171.967Z" fill="white" stroke="white" stroke-width="2"/>
<path d="M160.723 169.646L166.204 167.206L166.52 169.312L162.073 171.291L160.723 169.646Z" fill="white" stroke="white" stroke-width="2"/>
<path d="M166.473 167.036L171.669 164.033L172.204 166.093L167.988 168.53L166.473 167.036Z" fill="white" stroke="white" stroke-width="2"/>
<path d="M171.959 163.594L176.814 160.068L177.563 162.058L173.622 164.923L171.959 163.594Z" fill="white" stroke="white" stroke-width="2"/>
<path d="M177.048 159.589L181.506 155.574L182.458 157.476L178.841 160.739L177.048 159.589Z" fill="white" stroke="white" stroke-width="2"/>
<path d="M181.674 155.273L185.689 150.815L186.835 152.608L183.573 156.226L181.674 155.273Z" fill="white" stroke="white" stroke-width="2"/>
<path d="M185.904 150.38L189.427 145.528L190.756 147.187L187.89 151.128L185.904 150.38Z" fill="white" stroke="white" stroke-width="2"/>
<path d="M189.473 145.172L192.475 139.976L193.966 141.491L191.533 145.71L189.473 145.172Z" fill="white" stroke="white" stroke-width="2"/>
<path d="M192.579 139.377L195.015 133.896L196.661 135.246L194.681 139.697L192.579 139.377Z" fill="white" stroke="white" stroke-width="2"/>
<path d="M195.025 133.521L196.877 127.815L198.656 128.986L197.148 133.62L195.025 133.521Z" fill="white" stroke="white" stroke-width="2"/>
<path d="M196.809 127.338L198.054 121.471L199.948 122.448L198.932 127.212L196.809 127.338Z" fill="white" stroke="white" stroke-width="2"/>
<path d="M197.999 121.092L198.628 115.126L200.607 115.899L200.101 120.748L197.999 121.092Z" fill="white" stroke="white" stroke-width="2"/>
<path d="M198.527 114.779V108.781L200.577 109.344V114.217L198.527 114.779Z" fill="white" stroke="white" stroke-width="2"/>
<path d="M198.364 108.402L197.734 102.436L199.837 102.781L200.343 107.625L198.364 108.402Z" fill="white" stroke="white" stroke-width="2"/>
<path d="M197.525 101.959L196.28 96.0913L198.404 96.2179L199.416 100.982L197.525 101.959Z" fill="white" stroke="white" stroke-width="2"/>
<path d="M196.015 95.8117L194.165 90.1057L196.289 90.0107L197.794 94.641L196.015 95.8117Z" fill="white" stroke="white" stroke-width="2"/>
<path d="M193.895 89.7281L191.456 84.2471L193.558 83.9307L195.541 88.3781L193.895 89.7281Z" fill="white" stroke="white" stroke-width="2"/>
<path d="M191.084 83.8489L188.085 78.6527L190.142 78.1147L192.582 82.3336L191.084 83.8489Z" fill="white" stroke="white" stroke-width="2"/>
<path d="M187.778 78.4312L184.252 73.5795L186.241 72.8271L189.107 76.7683L187.778 78.4312Z" fill="white" stroke="white" stroke-width="2"/>
<path d="M183.838 73.2189L179.823 68.761L181.725 67.8047L184.988 71.4259L183.838 73.2189Z" fill="white" stroke="white" stroke-width="2"/>
<path d="M179.457 68.7353L174.999 64.7203L176.788 63.5742L180.409 66.8333L179.457 68.7353Z" fill="white" stroke="white" stroke-width="2"/>
<path d="M174.567 64.4641L169.711 60.9378L171.374 59.6089L175.316 62.4742L174.567 64.4641Z" fill="white" stroke="white" stroke-width="2"/>
<path d="M169.29 60.9296L164.094 57.9307L165.609 56.4365L169.824 58.8729L169.29 60.9296Z" fill="white" stroke="white" stroke-width="2"/>
<path d="M163.627 57.8782L158.146 55.4383L159.496 53.793L163.95 55.7723L163.627 57.8782Z" fill="white" stroke="white" stroke-width="2"/>
<path d="M157.705 55.31L151.999 53.4572L153.17 51.6782L157.803 53.1865L157.705 55.31Z" fill="white" stroke="white" stroke-width="2"/>
<path d="M151.588 53.492L145.72 52.2474L146.698 50.356L151.465 51.3685L151.588 53.492Z" fill="white" stroke="white" stroke-width="2"/>
<path d="M145.276 52.4363L139.309 51.807L140.083 49.8276L144.928 50.3374L145.276 52.4363Z" fill="white" stroke="white" stroke-width="2"/>
<defs>
<filter id="filter0_d" x="0" y="0" width="287" height="361" filterUnits="userSpaceOnUse" color-interpolation-filters="sRGB">
<feFlood flood-opacity="0" result="BackgroundImageFix"/>
<feColorMatrix in="SourceAlpha" type="matrix" values="0 0 0 0 0 0 0 0 0 0 0 0 0 0 0 0 0 0 127 0"/>
<feOffset dx="4" dy="4"/>
<feGaussianBlur stdDeviation="2"/>
<feColorMatrix type="matrix" values="0 0 0 0 0 0 0 0 0 0 0 0 0 0 0 0 0 0 0.25 0"/>
<feBlend mode="normal" in2="BackgroundImageFix" result="effect1_dropShadow"/>
<feBlend mode="normal" in="SourceGraphic" in2="effect1_dropShadow" result="shape"/>
</filter>
</defs>
</svg>
