<svg width="287" height="361" viewBox="0 0 287 361" fill="none" xmlns="http://www.w3.org/2000/svg">
<g filter="url(#filter0_d)">
<rect width="279" height="353" rx="8" fill="white" fill-opacity="0.08"/>
<rect width="279" height="353" rx="8" fill="#121212" fill-opacity="0.08"/>
</g>
<path d="M251.286 319.714H242.714V328.286C242.714 329.229 241.943 330 241 330C240.057 330 239.286 329.229 239.286 328.286V319.714H230.714C229.771 319.714 229 318.943 229 318C229 317.057 229.771 316.286 230.714 316.286H239.286V307.714C239.286 306.771 240.057 306 241 306C241.943 306 242.714 306.771 242.714 307.714V316.286H251.286C252.229 316.286 253 317.057 253 318C253 318.943 252.229 319.714 251.286 319.714Z" fill="#FAFAFA"/>
<path d="M95.128 191.6H96.688V200H95.128V191.6ZM107.174 191.6V200H105.89L101.258 194.312V200H99.71V191.6H100.994L105.626 197.288V191.6H107.174ZM112.779 200.12C112.131 200.12 111.503 200.028 110.895 199.844C110.295 199.66 109.819 199.416 109.467 199.112L110.007 197.9C110.351 198.172 110.771 198.396 111.267 198.572C111.771 198.74 112.275 198.824 112.779 198.824C113.403 198.824 113.867 198.724 114.171 198.524C114.483 198.324 114.639 198.06 114.639 197.732C114.639 197.492 114.551 197.296 114.375 197.144C114.207 196.984 113.991 196.86 113.727 196.772C113.463 196.684 113.103 196.584 112.647 196.472C112.007 196.32 111.487 196.168 111.087 196.016C110.695 195.864 110.355 195.628 110.067 195.308C109.787 194.98 109.647 194.54 109.647 193.988C109.647 193.524 109.771 193.104 110.019 192.728C110.275 192.344 110.655 192.04 111.159 191.816C111.671 191.592 112.295 191.48 113.031 191.48C113.543 191.48 114.047 191.544 114.543 191.672C115.039 191.8 115.467 191.984 115.827 192.224L115.335 193.436C114.967 193.22 114.583 193.056 114.183 192.944C113.783 192.832 113.395 192.776 113.019 192.776C112.403 192.776 111.943 192.88 111.639 193.088C111.343 193.296 111.195 193.572 111.195 193.916C111.195 194.156 111.279 194.352 111.447 194.504C111.623 194.656 111.843 194.776 112.107 194.864C112.371 194.952 112.731 195.052 113.187 195.164C113.811 195.308 114.323 195.46 114.723 195.62C115.123 195.772 115.463 196.008 115.743 196.328C116.031 196.648 116.175 197.08 116.175 197.624C116.175 198.088 116.047 198.508 115.791 198.884C115.543 199.26 115.163 199.56 114.651 199.784C114.139 200.008 113.515 200.12 112.779 200.12ZM122.084 200.12C120.924 200.12 120.02 199.796 119.372 199.148C118.724 198.492 118.4 197.556 118.4 196.34V191.6H119.96V196.28C119.96 197.928 120.672 198.752 122.096 198.752C123.512 198.752 124.22 197.928 124.22 196.28V191.6H125.756V196.34C125.756 197.556 125.432 198.492 124.784 199.148C124.144 199.796 123.244 200.12 122.084 200.12ZM134.187 200L132.471 197.54C132.399 197.548 132.291 197.552 132.147 197.552H130.251V200H128.691V191.6H132.147C132.875 191.6 133.507 191.72 134.043 191.96C134.587 192.2 135.003 192.544 135.291 192.992C135.579 193.44 135.723 193.972 135.723 194.588C135.723 195.22 135.567 195.764 135.255 196.22C134.951 196.676 134.511 197.016 133.935 197.24L135.867 200H134.187ZM134.151 194.588C134.151 194.052 133.975 193.64 133.622 193.352C133.271 193.064 132.755 192.92 132.075 192.92H130.251V196.268H132.075C132.755 196.268 133.271 196.124 133.622 195.836C133.975 195.54 134.151 195.124 134.151 194.588ZM143.666 198.056H139.466L138.638 200H137.03L140.81 191.6H142.346L146.138 200H144.506L143.666 198.056ZM143.15 196.832L141.566 193.16L139.994 196.832H143.15ZM155.42 191.6V200H154.136L149.504 194.312V200H147.956V191.6H149.24L153.872 197.288V191.6H155.42ZM162.309 200.12C161.461 200.12 160.693 199.936 160.005 199.568C159.325 199.192 158.789 198.676 158.397 198.02C158.013 197.364 157.821 196.624 157.821 195.8C157.821 194.976 158.017 194.236 158.409 193.58C158.801 192.924 159.337 192.412 160.017 192.044C160.705 191.668 161.473 191.48 162.321 191.48C163.009 191.48 163.637 191.6 164.205 191.84C164.773 192.08 165.253 192.428 165.645 192.884L164.637 193.832C164.029 193.176 163.281 192.848 162.393 192.848C161.817 192.848 161.301 192.976 160.845 193.232C160.389 193.48 160.033 193.828 159.777 194.276C159.521 194.724 159.393 195.232 159.393 195.8C159.393 196.368 159.521 196.876 159.777 197.324C160.033 197.772 160.389 198.124 160.845 198.38C161.301 198.628 161.817 198.752 162.393 198.752C163.281 198.752 164.029 198.42 164.637 197.756L165.645 198.716C165.253 199.172 164.769 199.52 164.193 199.76C163.625 200 162.997 200.12 162.309 200.12ZM174.19 198.692V200H167.89V191.6H174.022V192.908H169.45V195.092H173.506V196.376H169.45V198.692H174.19Z" fill="white" fill-opacity="0.87"/>
<path d="M92.5561 84.0872C92.1097 84.8887 91.8073 85.497 91.6983 85.8204C91.3854 86.7767 91.2588 87.2548 91.1604 87.5185C90.6049 87.3814 89.9967 87.1458 89.5045 87.304C89.0158 87.4939 88.9314 87.9685 88.3584 88.1197C87.6763 88.2568 86.6779 87.8806 86.0134 87.7857C84.5755 87.5501 83.0883 87.3568 81.6539 87.0228C79.3476 86.4989 78.5495 84.3473 78.6831 82.1887C78.8343 80.1777 80.8875 79.5132 82.5117 79.2706C84.1325 78.9788 86.3368 78.2546 87.8662 79.1757C90.0916 80.5398 89.2127 84.6989 92.5561 84.0872Z" fill="white" stroke="white"/>
<path d="M192.866 132.808C190.127 132.808 187.508 132.903 184.84 132.952C183.732 132.977 182.653 132.977 181.546 132.977C179.239 132.977 174.381 133.17 172.289 132.4C168.857 131.247 167.964 126.705 167.026 123.456C167.268 123.386 167.507 123.337 167.771 123.288C168.108 123.242 168.492 123.172 168.878 123.098C169.118 123.073 169.381 123.027 169.648 122.978C169.743 122.978 169.814 122.978 169.912 122.954C170.246 122.904 170.633 122.855 170.991 122.81H171.09C171.448 122.76 171.835 122.711 172.218 122.665C173.157 122.57 174.141 122.476 175.175 122.402C175.467 122.402 175.752 122.377 176.04 122.352C177.601 122.233 179.215 122.134 180.797 122.089C181.208 122.064 181.619 122.04 182.027 122.015H182.917C183.275 121.99 183.609 121.99 183.975 121.969H184.812C188.925 121.895 192.265 122.064 193.228 122.402C195.798 123.361 195.341 125.717 196.115 128.217C196.881 131.655 196.308 132.808 192.866 132.808ZM163.179 128.048C161.952 131.486 157.171 131.029 156.693 131.029L123.568 131.054C123.111 131.054 118.305 131.536 117.078 128.097C115.805 124.638 113.903 119.083 113.235 116.319C112.514 113.412 110.159 108.413 124.239 108.722C131.499 108.866 136.738 108.866 140.106 108.82C143.495 108.866 148.733 108.866 155.997 108.701C170.06 108.363 167.725 113.363 167.005 116.27C166.33 119.037 164.431 124.61 163.179 128.048ZM107.993 132.446C105.877 133.216 101.021 133.047 98.7152 133.047C97.8714 133.047 97.0311 133.047 96.2155 133.026C94.1975 133.002 92.1759 132.952 90.1333 132.928C89.2227 132.903 88.3332 132.903 87.3945 132.903C83.9562 132.903 83.3796 131.75 84.1495 128.315C84.9195 125.812 84.4343 123.456 87.0113 122.497C87.9465 122.159 91.072 122.015 94.9428 122.04C95.3541 122.04 95.7831 122.04 96.2155 122.064C97.4882 122.089 98.8347 122.113 100.206 122.187C101.021 122.208 101.837 122.258 102.656 122.303C102.973 122.303 103.257 122.331 103.546 122.352C104.006 122.377 104.435 122.426 104.868 122.447C105.304 122.476 105.736 122.521 106.169 122.546C106.601 122.592 107.009 122.641 107.417 122.665C108.042 122.711 108.644 122.785 109.22 122.855C109.603 122.904 109.99 122.954 110.324 122.999C110.637 123.049 110.925 123.098 111.214 123.122C111.358 123.144 111.498 123.172 111.625 123.193C111.815 123.217 111.984 123.267 112.152 123.288C112.226 123.312 112.293 123.312 112.346 123.312C112.465 123.337 112.585 123.361 112.701 123.386C112.894 123.435 113.066 123.456 113.235 123.506C112.272 126.751 111.432 131.293 107.993 132.446ZM85.4222 100.312C85.8547 98.3155 86.2906 98.6038 88.4282 98.5792C91.7189 98.5792 94.8936 98.8956 98.1843 99.4686C102.512 100.165 107.536 100.021 111.815 101.297C106.84 110.216 101.363 108.652 95.0377 108.652C91.5994 108.652 86.2906 108.652 85.4222 104.493C85.1339 103.339 85.1339 101.61 85.4222 100.312ZM104.966 66.8779L140.106 65.6509L175.175 66.804C175.175 66.804 187.842 86.5167 186.882 86.5167C185.968 86.5167 154.309 84.7342 140.081 85.0471C125.874 84.7588 94.1975 86.587 93.308 86.587C92.3447 86.587 104.966 66.8779 104.966 66.8779ZM191.762 98.5088C193.924 98.5088 194.357 98.2205 194.789 100.214C195.078 101.515 195.078 103.245 194.789 104.398C193.924 108.557 188.637 108.557 185.174 108.557C178.853 108.578 173.372 110.142 168.397 101.248C172.679 99.9749 177.724 100.094 182.027 99.3983C185.297 98.7971 188.468 98.5088 191.762 98.5088ZM201.156 99.9995C201.037 97.978 196.35 93.6536 195.004 92.3317C194.114 91.4668 190.992 88.7984 189.959 88.1269C189.333 87.7402 189.213 87.7402 189.045 87.3534C188.95 87.0687 188.83 86.587 188.517 85.6483C188.398 85.3143 188.106 84.7131 187.652 83.9186C184.959 79.0388 177.102 66.899 176.448 66.2275C175.653 65.4575 173.948 63.9176 171.498 63.4887C169.068 63.0809 144.673 61.8047 140.081 61.8047C135.469 61.8047 111.069 63.1266 108.644 63.559C106.193 63.9915 104.481 65.5067 103.718 66.2767C103.064 66.9482 95.2065 79.1126 92.538 83.9889C92.081 84.8081 91.7927 85.4093 91.6732 85.7221C91.3603 86.6819 91.2407 87.1636 91.1423 87.4273C91.0228 87.691 90.397 88.1269 90.1579 88.2464L90.0876 88.3168C89.4126 88.7738 86.6738 90.6231 85.2078 92.1876C82.9718 94.5431 79.1502 98.0764 79.0517 100.094C78.9603 102.116 78.0919 103.533 78.3064 107.569C78.3837 109.517 78.9357 115.43 79.4631 121.055C79.9904 126.965 80.5705 132.569 80.6127 133.002C80.7112 133.866 80.4229 134.826 80.8061 135.572C81.1928 136.342 82.1561 136.56 83.6679 136.535C84.1495 136.535 89.2227 136.609 96.2155 136.704C112.848 136.897 140.13 137.256 140.13 137.256C140.13 137.256 168.277 136.848 184.84 136.609C191.4 136.51 196.16 136.436 196.593 136.436C198.108 136.436 199.068 136.247 199.476 135.477C199.834 134.731 199.546 133.768 199.645 132.903C199.718 132.302 200.703 122.187 201.353 114.734C201.638 111.44 201.856 108.676 201.93 107.453C202.123 103.438 201.255 101.993 201.156 99.9995Z" fill="white"/>
<path d="M201.156 99.9995C201.037 97.978 196.35 93.6536 195.004 92.3317C194.114 91.4668 190.992 88.7984 189.959 88.1269C189.333 87.7402 189.213 87.7402 189.045 87.3534C188.95 87.0687 188.83 86.587 188.517 85.6483C188.398 85.3143 188.106 84.7131 187.652 83.9186C184.959 79.0388 177.102 66.899 176.448 66.2275C175.653 65.4575 173.948 63.9176 171.498 63.4887C169.068 63.0809 144.673 61.8047 140.081 61.8047C135.469 61.8047 111.069 63.1266 108.644 63.559C106.193 63.9915 104.481 65.5067 103.718 66.2767C103.064 66.9482 95.2065 79.1126 92.538 83.9889C92.081 84.8081 91.7927 85.4092 91.6732 85.7221C91.3603 86.6819 91.2407 87.1636 91.1423 87.4273C91.0228 87.691 90.397 88.1269 90.1579 88.2464L90.0876 88.3168C89.4126 88.7738 86.6738 90.6231 85.2078 92.1876C82.9718 94.5431 79.1502 98.0764 79.0517 100.094C78.9603 102.116 78.0919 103.533 78.3064 107.569C78.3837 109.517 78.9357 115.43 79.4631 121.055C79.9904 126.965 80.5705 132.569 80.6127 133.002C80.7112 133.866 80.4229 134.826 80.8061 135.572C81.1928 136.342 82.1561 136.56 83.6679 136.535C84.1495 136.535 89.2227 136.609 96.2155 136.704C112.848 136.897 140.13 137.256 140.13 137.256C140.13 137.256 168.277 136.848 184.84 136.609C191.4 136.51 196.16 136.436 196.593 136.436C198.108 136.436 199.068 136.247 199.476 135.477C199.834 134.731 199.546 133.768 199.645 132.903C199.718 132.302 200.703 122.187 201.353 114.734C201.638 111.44 201.856 108.676 201.93 107.453C202.123 103.438 201.255 101.993 201.156 99.9995M192.866 132.808C190.127 132.808 187.508 132.903 184.84 132.952C183.732 132.977 182.653 132.977 181.546 132.977C179.239 132.977 174.381 133.17 172.289 132.4C168.857 131.247 167.964 126.705 167.026 123.456C167.268 123.386 167.507 123.337 167.771 123.288C168.109 123.242 168.492 123.172 168.878 123.098C169.118 123.073 169.381 123.027 169.648 122.978C169.743 122.978 169.814 122.978 169.912 122.954C170.246 122.904 170.633 122.855 170.991 122.81H171.09C171.448 122.76 171.835 122.711 172.218 122.665C173.157 122.57 174.141 122.476 175.175 122.402C175.467 122.402 175.752 122.377 176.04 122.352C177.601 122.233 179.215 122.134 180.797 122.089C181.208 122.064 181.619 122.04 182.027 122.015H182.917C183.275 121.99 183.609 121.99 183.975 121.969H184.812C188.925 121.895 192.265 122.064 193.228 122.402C195.798 123.361 195.341 125.717 196.115 128.217C196.881 131.655 196.308 132.808 192.866 132.808V132.808ZM163.179 128.048C161.952 131.486 157.171 131.029 156.693 131.029L123.568 131.054C123.111 131.054 118.305 131.536 117.078 128.097C115.805 124.638 113.903 119.083 113.235 116.319C112.514 113.412 110.159 108.413 124.239 108.722C131.499 108.866 136.738 108.866 140.106 108.82C143.495 108.866 148.733 108.866 155.997 108.701C170.06 108.363 167.725 113.363 167.005 116.27C166.33 119.037 164.431 124.61 163.179 128.048V128.048ZM107.993 132.446C105.877 133.216 101.021 133.047 98.7152 133.047C97.8714 133.047 97.0311 133.047 96.2155 133.026C94.1975 133.002 92.1759 132.952 90.1333 132.928C89.2227 132.903 88.3332 132.903 87.3945 132.903C83.9562 132.903 83.3796 131.75 84.1495 128.315C84.9195 125.812 84.4343 123.456 87.0113 122.497C87.9465 122.159 91.072 122.015 94.9428 122.04C95.3541 122.04 95.7831 122.04 96.2155 122.064C97.4882 122.089 98.8347 122.113 100.206 122.187C101.021 122.208 101.837 122.258 102.656 122.303C102.973 122.303 103.257 122.331 103.546 122.352C104.006 122.377 104.435 122.426 104.868 122.447C105.304 122.476 105.736 122.521 106.169 122.546C106.601 122.592 107.009 122.641 107.417 122.665C108.042 122.711 108.644 122.785 109.22 122.855C109.603 122.904 109.99 122.954 110.324 122.999C110.637 123.049 110.925 123.098 111.214 123.122C111.358 123.144 111.498 123.172 111.625 123.193C111.815 123.217 111.984 123.267 112.152 123.288C112.226 123.312 112.293 123.312 112.346 123.312C112.465 123.337 112.585 123.361 112.701 123.386C112.894 123.435 113.066 123.456 113.235 123.506C112.272 126.751 111.432 131.293 107.993 132.446V132.446ZM85.4222 100.312C85.8547 98.3155 86.2906 98.6038 88.4282 98.5792C91.7189 98.5792 94.8936 98.8956 98.1843 99.4686C102.512 100.165 107.536 100.021 111.815 101.297C106.84 110.216 101.363 108.652 95.0377 108.652C91.5994 108.652 86.2906 108.652 85.4222 104.493C85.1339 103.339 85.1339 101.61 85.4222 100.312ZM104.966 66.8779L140.106 65.6509L175.175 66.804C175.175 66.804 187.842 86.5167 186.882 86.5167C185.968 86.5167 154.309 84.7342 140.081 85.0471C125.874 84.7588 94.1975 86.587 93.308 86.587C92.3447 86.587 104.966 66.8779 104.966 66.8779ZM191.762 98.5088C193.924 98.5088 194.357 98.2205 194.789 100.214C195.078 101.515 195.078 103.245 194.789 104.398C193.924 108.557 188.637 108.557 185.174 108.557C178.853 108.578 173.372 110.142 168.397 101.248C172.679 99.9749 177.724 100.094 182.027 99.3983C185.297 98.7971 188.468 98.5088 191.762 98.5088Z" stroke="white"/>
<path d="M96.2561 139.313V145.922C96.2561 146.548 95.7499 147.075 95.1276 147.075L80.678 147.1C80.0311 147.1 79.5283 146.569 79.5283 145.947V137.941C80.7799 139.095 82.6046 139.144 83.6136 139.144C83.6382 139.144 96.2315 139.313 96.2315 139.313H96.2561Z" fill="white" stroke="white"/>
<path d="M201.63 136.62V145.631C201.63 146.281 201.124 146.788 200.477 146.788L186.031 146.809C185.409 146.809 184.878 146.281 184.878 145.656V139.025C191.705 138.926 196.54 138.853 196.631 138.853C197.763 138.853 200.386 138.853 201.63 136.62Z" fill="white"/>
<path d="M201.63 136.62V145.631C201.63 146.281 201.124 146.788 200.477 146.788L186.031 146.809C185.409 146.809 184.878 146.281 184.878 145.656V139.025C191.705 138.926 196.54 138.853 196.631 138.853C197.763 138.853 200.386 138.853 201.63 136.62" stroke="white"/>
<path d="M94.9575 127.775C94.9575 130.19 92.9993 132.152 90.584 132.159C88.1687 132.159 86.2069 130.201 86.2034 127.778C86.2034 125.363 88.1581 123.398 90.584 123.401C92.9922 123.398 94.954 125.36 94.9575 127.775Z" fill="white" stroke="white"/>
<path d="M198.567 87.015C197.136 87.349 195.634 87.5459 194.204 87.7885C193.536 87.8799 192.541 88.2596 191.862 88.1225C191.286 87.9748 191.198 87.5037 190.716 87.3068C190.217 87.1486 189.609 87.3912 189.06 87.5283C188.958 87.2611 188.828 86.783 188.519 85.8267C188.403 85.5068 188.107 84.8986 187.654 84.0935C190.997 84.6982 190.108 80.5496 192.34 79.175C193.859 78.2539 196.067 78.9816 197.698 79.2664C199.319 79.5055 201.376 80.1699 201.52 82.1774C201.66 84.3325 200.862 86.4771 198.567 87.015Z" fill="white"/>
<path d="M198.567 87.015C197.136 87.349 195.634 87.5459 194.204 87.7885C193.536 87.8799 192.541 88.2596 191.862 88.1225C191.286 87.9748 191.198 87.5037 190.716 87.3068C190.217 87.1486 189.609 87.3912 189.06 87.5283C188.958 87.2611 188.828 86.783 188.519 85.8267C188.403 85.5068 188.107 84.8986 187.654 84.0935C190.997 84.6982 190.108 80.5496 192.34 79.175C193.859 78.2539 196.067 78.9816 197.698 79.2664C199.319 79.5055 201.376 80.1699 201.52 82.1774C201.66 84.3325 200.862 86.4771 198.567 87.015" stroke="white"/>
<path d="M102.486 127.581C102.49 129.304 101.094 130.703 99.3677 130.703C97.6485 130.703 96.2458 129.311 96.2493 127.585C96.2458 125.859 97.6415 124.459 99.3677 124.459C101.094 124.459 102.49 125.855 102.486 127.581Z" fill="white" stroke="white"/>
<path d="M193.827 127.514C193.837 129.93 191.879 131.895 189.453 131.895C187.041 131.898 185.076 129.94 185.076 127.518C185.069 125.106 187.034 123.141 189.446 123.137C191.869 123.141 193.83 125.095 193.827 127.514Z" fill="white"/>
<path d="M193.827 127.514C193.837 129.93 191.879 131.895 189.453 131.895C187.041 131.898 185.076 129.94 185.076 127.518C185.069 125.106 187.034 123.141 189.446 123.137C191.869 123.141 193.83 125.095 193.827 127.514" stroke="white"/>
<path d="M183.382 127.577C183.389 129.304 181.99 130.699 180.264 130.703C178.548 130.703 177.145 129.307 177.145 127.584C177.149 125.858 178.537 124.459 180.26 124.459C181.99 124.459 183.386 125.851 183.382 127.577Z" fill="white" stroke="white"/>
<path d="M56.6606 90.8573C56.6606 90.8573 80.9648 86.9689 91.171 69.4712C91.171 69.4712 108.672 92.8015 124.711 92.8015L113.046 149.672L91.171 162.796L62.0081 148.213L56.6606 90.8573Z" fill="#FC5C2E" stroke="white" stroke-miterlimit="10"/>
<path d="M91.4527 75.2871L92.423 117.093L61.7975 117.578L58.5771 90.9039L91.4527 75.2871Z" fill="white" stroke="white" stroke-miterlimit="10"/>
<path d="M89.7063 120.239L90.6766 161.556L113.04 146.972L118.873 118.295L90.6766 117.321L89.7063 120.239Z" fill="white" stroke="white" stroke-miterlimit="10"/>
<defs>
<filter id="filter0_d" x="0" y="0" width="287" height="361" filterUnits="userSpaceOnUse" color-interpolation-filters="sRGB">
<feFlood flood-opacity="0" result="BackgroundImageFix"/>
<feColorMatrix in="SourceAlpha" type="matrix" values="0 0 0 0 0 0 0 0 0 0 0 0 0 0 0 0 0 0 127 0"/>
<feOffset dx="4" dy="4"/>
<feGaussianBlur stdDeviation="2"/>
<feColorMatrix type="matrix" values="0 0 0 0 0 0 0 0 0 0 0 0 0 0 0 0 0 0 0.25 0"/>
<feBlend mode="normal" in2="BackgroundImageFix" result="effect1_dropShadow"/>
<feBlend mode="normal" in="SourceGraphic" in2="effect1_dropShadow" result="shape"/>
</filter>
</defs>
</svg>
