<svg width="287" height="361" viewBox="0 0 287 361" fill="none" xmlns="http://www.w3.org/2000/svg">
<g filter="url(#filter0_d)">
<rect width="279" height="353" rx="8" fill="#121212"/>
<rect width="279" height="353" rx="8" fill="white" fill-opacity="0.08"/>
</g>
<path d="M251.286 319.714H242.714V328.286C242.714 329.229 241.943 330 241 330C240.057 330 239.286 329.229 239.286 328.286V319.714H230.714C229.771 319.714 229 318.943 229 318C229 317.057 229.771 316.286 230.714 316.286H239.286V307.714C239.286 306.771 240.057 306 241 306C241.943 306 242.714 306.771 242.714 307.714V316.286H251.286C252.229 316.286 253 317.057 253 318C253 318.943 252.229 319.714 251.286 319.714Z" fill="#FAFAFA"/>
<path d="M52.808 221.2L47.24 238H43.928L39.776 225.568L35.552 238H32.216L26.648 221.2H29.888L34.064 233.968L38.408 221.2H41.288L45.536 234.04L49.832 221.2H52.808ZM71.0278 221.2V238H67.9078V230.8H59.2198V238H56.0998V221.2H59.2198V228.136H67.9078V221.2H71.0278ZM88.8794 235.384V238H76.2794V221.2H88.5434V223.816H79.3994V228.184H87.5114V230.752H79.3994V235.384H88.8794ZM105.708 235.384V238H93.1076V221.2H105.372V223.816H96.2276V228.184H104.34V230.752H96.2276V235.384H105.708ZM109.936 221.2H113.056V235.36H121.84V238H109.936V221.2ZM143.428 238L139.996 233.08C139.852 233.096 139.636 233.104 139.348 233.104H135.556V238H132.436V221.2H139.348C140.804 221.2 142.068 221.44 143.14 221.92C144.228 222.4 145.06 223.088 145.636 223.984C146.212 224.88 146.5 225.944 146.5 227.176C146.5 228.44 146.188 229.528 145.564 230.44C144.956 231.352 144.076 232.032 142.924 232.48L146.788 238H143.428ZM143.356 227.176C143.356 226.104 143.004 225.28 142.3 224.704C141.596 224.128 140.564 223.84 139.204 223.84H135.556V230.536H139.204C140.564 230.536 141.596 230.248 142.3 229.672C143.004 229.08 143.356 228.248 143.356 227.176ZM163.34 235.384V238H150.74V221.2H163.004V223.816H153.86V228.184H161.972V230.752H153.86V235.384H163.34ZM172.777 238.24C171.481 238.24 170.225 238.056 169.009 237.688C167.809 237.32 166.857 236.832 166.153 236.224L167.233 233.8C167.921 234.344 168.761 234.792 169.753 235.144C170.761 235.48 171.769 235.648 172.777 235.648C174.025 235.648 174.953 235.448 175.561 235.048C176.185 234.648 176.497 234.12 176.497 233.464C176.497 232.984 176.321 232.592 175.969 232.288C175.633 231.968 175.201 231.72 174.673 231.544C174.145 231.368 173.425 231.168 172.513 230.944C171.233 230.64 170.193 230.336 169.393 230.032C168.609 229.728 167.929 229.256 167.353 228.616C166.793 227.96 166.513 227.08 166.513 225.976C166.513 225.048 166.761 224.208 167.257 223.456C167.769 222.688 168.529 222.08 169.537 221.632C170.561 221.184 171.809 220.96 173.281 220.96C174.305 220.96 175.313 221.088 176.305 221.344C177.297 221.6 178.153 221.968 178.872 222.448L177.889 224.872C177.153 224.44 176.385 224.112 175.585 223.888C174.785 223.664 174.009 223.552 173.257 223.552C172.025 223.552 171.105 223.76 170.497 224.176C169.905 224.592 169.609 225.144 169.609 225.832C169.609 226.312 169.777 226.704 170.113 227.008C170.465 227.312 170.905 227.552 171.433 227.728C171.961 227.904 172.681 228.104 173.593 228.328C174.841 228.616 175.865 228.92 176.665 229.24C177.465 229.544 178.145 230.016 178.705 230.656C179.281 231.296 179.569 232.16 179.569 233.248C179.569 234.176 179.313 235.016 178.801 235.768C178.305 236.52 177.545 237.12 176.521 237.568C175.497 238.016 174.249 238.24 172.777 238.24ZM186.586 223.84H181.018V221.2H195.274V223.84H189.706V238H186.586V223.84ZM205.979 238.24C204.267 238.24 202.723 237.872 201.347 237.136C199.971 236.384 198.891 235.352 198.107 234.04C197.323 232.712 196.931 231.232 196.931 229.6C196.931 227.968 197.323 226.496 198.107 225.184C198.891 223.856 199.971 222.824 201.347 222.088C202.723 221.336 204.267 220.96 205.979 220.96C207.691 220.96 209.235 221.336 210.611 222.088C211.987 222.824 213.067 223.848 213.851 225.16C214.635 226.472 215.027 227.952 215.027 229.6C215.027 231.248 214.635 232.728 213.851 234.04C213.067 235.352 211.987 236.384 210.611 237.136C209.235 237.872 207.691 238.24 205.979 238.24ZM205.979 235.504C207.099 235.504 208.107 235.256 209.003 234.76C209.899 234.248 210.603 233.544 211.115 232.648C211.627 231.736 211.883 230.72 211.883 229.6C211.883 228.48 211.627 227.472 211.115 226.576C210.603 225.664 209.899 224.96 209.003 224.464C208.107 223.952 207.099 223.696 205.979 223.696C204.859 223.696 203.851 223.952 202.955 224.464C202.059 224.96 201.355 225.664 200.843 226.576C200.331 227.472 200.075 228.48 200.075 229.6C200.075 230.72 200.331 231.736 200.843 232.648C201.355 233.544 202.059 234.248 202.955 234.76C203.851 235.256 204.859 235.504 205.979 235.504ZM230.076 238L226.644 233.08C226.5 233.096 226.284 233.104 225.996 233.104H222.204V238H219.084V221.2H225.996C227.452 221.2 228.716 221.44 229.788 221.92C230.876 222.4 231.708 223.088 232.284 223.984C232.86 224.88 233.148 225.944 233.148 227.176C233.148 228.44 232.836 229.528 232.212 230.44C231.604 231.352 230.724 232.032 229.572 232.48L233.436 238H230.076ZM230.004 227.176C230.004 226.104 229.652 225.28 228.948 224.704C228.244 224.128 227.212 223.84 225.852 223.84H222.204V230.536H225.852C227.212 230.536 228.244 230.248 228.948 229.672C229.652 229.08 230.004 228.248 230.004 227.176ZM249.989 235.384V238H237.389V221.2H249.653V223.816H240.509V228.184H248.621V230.752H240.509V235.384H249.989Z" fill="white" fill-opacity="0.87"/>
<path d="M138.99 49.6561C101.711 49.6561 71.3811 79.9857 71.3811 117.272C71.3811 154.545 101.711 184.881 138.99 184.881C176.27 184.881 206.606 154.545 206.606 117.272C206.606 79.9857 176.27 49.6561 138.99 49.6561ZM138.99 188C99.9877 188 68.2617 156.274 68.2617 117.272C68.2617 78.2626 99.9877 46.5366 138.99 46.5366C177.993 46.5366 209.725 78.2626 209.725 117.272C209.725 156.274 177.993 188 138.99 188Z" fill="white"/>
<path d="M138.99 56.1619C105.298 56.1619 77.8892 83.5706 77.8892 117.269C77.8892 150.956 105.298 178.371 138.99 178.371C172.683 178.371 200.098 150.956 200.098 117.269C200.098 83.5706 172.683 56.1619 138.99 56.1619ZM138.99 179.754C104.536 179.754 76.4993 151.724 76.4993 117.269C76.4993 82.8084 104.536 54.7783 138.99 54.7783C173.445 54.7783 201.482 82.8084 201.482 117.269C201.482 151.724 173.445 179.754 138.99 179.754Z" fill="white"/>
<path d="M102.621 75.1235L109.629 99.2349L128.076 85.0415L103.938 73.7801L102.621 75.1235Z" fill="white"/>
<path d="M156.695 135.399L154.754 137.141C154.229 137.545 153.607 138.006 152.935 138.435C152.16 138.973 151.359 139.434 150.584 139.799C147.067 141.65 143.045 142.637 138.965 142.637H138.907C134.743 142.624 130.798 141.631 127.153 139.671L124.853 138.3C124.181 137.858 123.662 137.481 123.214 137.103L123.194 137.09L122.983 136.942L121.228 135.335L121.113 135.219C116.251 130.371 113.58 123.959 113.612 117.169C113.625 115.683 113.759 114.293 114.022 112.89C114.169 111.936 114.361 111.077 114.598 110.264C114.758 109.719 114.963 109.143 115.156 108.599L115.271 108.285C115.636 107.273 116.008 106.472 116.424 105.742C120.107 98.4331 127.185 93.3344 135.345 92.1622C136.191 92.0277 137.075 91.9509 137.94 91.938C138.221 91.906 138.516 91.8932 138.817 91.8932C138.817 91.8932 139.08 91.8868 139.093 91.8868C139.503 91.8868 139.861 91.8932 140.252 91.9509C140.912 91.9573 141.732 92.0341 142.814 92.1814C150.943 93.4177 157.989 98.5676 161.684 105.947C162.158 106.907 162.504 107.695 162.754 108.438C163.042 109.06 163.241 109.796 163.42 110.475C163.702 111.398 163.901 112.314 164.01 113.134C164.227 114.395 164.356 115.837 164.362 117.348C164.33 124.215 161.614 130.62 156.695 135.399ZM139.105 86.8778C122.362 86.8009 108.667 100.38 108.603 117.124C108.526 133.887 122.112 147.595 138.875 147.659C155.606 147.723 169.301 134.15 169.384 117.387C169.435 100.637 155.868 86.9418 139.105 86.8778Z" fill="white"/>
<path d="M154.769 132.978L146.641 119.629L161.008 113.87C161.207 115.017 161.284 116.196 161.271 117.349C161.258 123.274 158.952 128.821 154.769 132.978ZM152.829 134.752C152.31 135.13 151.829 135.514 151.24 135.899C151.227 135.899 151.221 135.918 151.208 135.937L142.804 124.311C143.425 123.978 143.989 123.555 144.495 123.075L152.861 134.714C152.848 134.733 152.848 134.733 152.829 134.752ZM138.91 139.575C135.335 139.55 131.928 138.711 128.847 137.109L138.878 125.278L148.94 137.199C145.853 138.787 142.452 139.575 138.91 139.575ZM126.592 135.777L126.528 135.719C125.99 135.393 125.477 135.002 125.055 134.65L124.959 134.573L133.407 123.011C133.901 123.504 134.471 123.92 135.073 124.247L126.592 135.777ZM123.037 132.824C118.918 128.609 116.651 123.075 116.676 117.169C116.683 116.029 116.798 114.889 116.977 113.723L117.125 113.774L131.326 119.61L123.037 132.824ZM117.554 111.122C117.714 110.52 117.925 109.925 118.143 109.335C118.156 109.323 118.169 109.271 118.188 109.252L131.812 113.749C131.492 114.357 131.274 115.017 131.127 115.702L117.528 111.206C117.535 111.187 117.548 111.148 117.554 111.122ZM135.476 95.2499L134.349 110.732V110.745H134.343L119.271 106.895C122.557 100.682 128.565 96.3452 135.476 95.2499ZM133.651 116.599C133.01 116.599 132.485 116.087 132.485 115.446C132.485 114.799 133.01 114.28 133.651 114.28C134.291 114.28 134.817 114.799 134.817 115.446C134.817 116.087 134.291 116.599 133.651 116.599ZM135.668 120.583C136.303 120.583 136.828 121.102 136.828 121.749C136.828 122.39 136.303 122.902 135.668 122.902C135.022 122.902 134.496 122.39 134.496 121.749C134.496 121.102 135.022 120.583 135.668 120.583ZM138.986 114.037C140.767 114.037 142.221 115.491 142.221 117.272C142.221 119.052 140.767 120.5 138.986 120.5C137.206 120.5 135.758 119.052 135.758 117.272C135.758 115.491 137.206 114.037 138.986 114.037ZM138.986 110.341C139.633 110.341 140.146 110.86 140.146 111.507C140.146 112.154 139.633 112.666 138.986 112.666C138.346 112.666 137.821 112.154 137.821 111.507C137.821 110.86 138.346 110.341 138.986 110.341ZM138.006 95.0064C138.09 94.9872 138.173 94.9744 138.25 94.9744C138.468 94.9616 138.679 94.9616 138.91 94.9616H139.223C139.435 94.9616 139.678 94.9616 140.056 95.0064H140.095L140.043 109.335C139.697 109.284 139.339 109.258 138.986 109.258C138.621 109.258 138.282 109.284 137.936 109.335L138.006 95.0064ZM143.489 121.749C143.489 122.39 142.977 122.902 142.324 122.902C141.683 122.902 141.158 122.39 141.158 121.749C141.158 121.102 141.683 120.583 142.324 120.583C142.977 120.583 143.489 121.102 143.489 121.749ZM145.526 115.446C145.526 116.087 145.001 116.599 144.361 116.599C143.72 116.599 143.195 116.087 143.195 115.446C143.195 114.799 143.72 114.28 144.361 114.28C145.001 114.28 145.526 114.799 145.526 115.446ZM158.805 107.036L143.682 110.777L142.65 95.2947C149.562 96.4156 155.538 100.81 158.805 107.036ZM159.894 109.566C160.137 110.142 160.329 110.783 160.47 111.334C160.47 111.353 160.47 111.353 160.483 111.372L146.839 115.741C146.711 115.062 146.494 114.408 146.199 113.8L159.842 109.406C159.862 109.47 159.862 109.502 159.894 109.566ZM162.962 113.262C162.859 112.423 162.648 111.564 162.392 110.745C162.225 110.078 162.046 109.419 161.764 108.791C161.482 107.977 161.124 107.196 160.746 106.421C157.28 99.503 150.599 94.43 142.67 93.2193C141.818 93.104 140.959 93.0144 140.114 92.9887C139.774 92.9503 139.441 92.9375 139.102 92.9375C138.724 92.9503 138.365 92.9375 138.019 92.9887C137.167 93.0016 136.303 93.0784 135.483 93.2001C127.546 94.3467 120.814 99.3557 117.336 106.267C116.894 107.036 116.561 107.811 116.254 108.631C116.036 109.258 115.792 109.925 115.6 110.572C115.363 111.385 115.184 112.224 115.043 113.083C114.793 114.428 114.665 115.773 114.659 117.169C114.627 123.933 117.407 130.057 121.852 134.477L121.935 134.566L123.69 136.174L123.767 136.2C124.28 136.642 124.85 137.039 125.394 137.397L127.642 138.755C130.993 140.549 134.804 141.58 138.897 141.593C142.945 141.599 146.763 140.626 150.125 138.858C150.901 138.493 151.663 138.044 152.367 137.558C152.95 137.18 153.508 136.77 154.046 136.36L155.954 134.65C160.451 130.281 163.276 124.145 163.308 117.361C163.301 115.971 163.193 114.594 162.962 113.262Z" fill="white"/>
<defs>
<filter id="filter0_d" x="0" y="0" width="287" height="361" filterUnits="userSpaceOnUse" color-interpolation-filters="sRGB">
<feFlood flood-opacity="0" result="BackgroundImageFix"/>
<feColorMatrix in="SourceAlpha" type="matrix" values="0 0 0 0 0 0 0 0 0 0 0 0 0 0 0 0 0 0 127 0"/>
<feOffset dx="4" dy="4"/>
<feGaussianBlur stdDeviation="2"/>
<feColorMatrix type="matrix" values="0 0 0 0 0 0 0 0 0 0 0 0 0 0 0 0 0 0 0.25 0"/>
<feBlend mode="normal" in2="BackgroundImageFix" result="effect1_dropShadow"/>
<feBlend mode="normal" in="SourceGraphic" in2="effect1_dropShadow" result="shape"/>
</filter>
</defs>
</svg>
