<svg width="287" height="361" viewBox="0 0 287 361" fill="none" xmlns="http://www.w3.org/2000/svg">
<g filter="url(#filter0_d)">
<rect width="279" height="353" rx="8" fill="#121212"/>
<rect width="279" height="353" rx="8" fill="white" fill-opacity="0.08"/>
</g>
<path d="M251.286 319.714H242.714V328.286C242.714 329.229 241.943 330 241 330C240.057 330 239.286 329.229 239.286 328.286V319.714H230.714C229.771 319.714 229 318.943 229 318C229 317.057 229.771 316.286 230.714 316.286H239.286V307.714C239.286 306.771 240.057 306 241 306C241.943 306 242.714 306.771 242.714 307.714V316.286H251.286C252.229 316.286 253 317.057 253 318C253 318.943 252.229 319.714 251.286 319.714Z" fill="#FAFAFA"/>
<path d="M44.464 237.24C43.168 237.24 41.912 237.056 40.696 236.688C39.496 236.32 38.544 235.832 37.84 235.224L38.92 232.8C39.608 233.344 40.448 233.792 41.44 234.144C42.448 234.48 43.456 234.648 44.464 234.648C45.712 234.648 46.64 234.448 47.248 234.048C47.872 233.648 48.184 233.12 48.184 232.464C48.184 231.984 48.008 231.592 47.656 231.288C47.32 230.968 46.888 230.72 46.36 230.544C45.832 230.368 45.112 230.168 44.2 229.944C42.92 229.64 41.88 229.336 41.08 229.032C40.296 228.728 39.616 228.256 39.04 227.616C38.48 226.96 38.2 226.08 38.2 224.976C38.2 224.048 38.448 223.208 38.944 222.456C39.456 221.688 40.216 221.08 41.224 220.632C42.248 220.184 43.496 219.96 44.968 219.96C45.992 219.96 47 220.088 47.992 220.344C48.984 220.6 49.84 220.968 50.56 221.448L49.576 223.872C48.84 223.44 48.072 223.112 47.272 222.888C46.472 222.664 45.696 222.552 44.944 222.552C43.712 222.552 42.792 222.76 42.184 223.176C41.592 223.592 41.296 224.144 41.296 224.832C41.296 225.312 41.464 225.704 41.8 226.008C42.152 226.312 42.592 226.552 43.12 226.728C43.648 226.904 44.368 227.104 45.28 227.328C46.528 227.616 47.552 227.92 48.352 228.24C49.152 228.544 49.832 229.016 50.392 229.656C50.968 230.296 51.256 231.16 51.256 232.248C51.256 233.176 51 234.016 50.488 234.768C49.992 235.52 49.232 236.12 48.208 236.568C47.184 237.016 45.936 237.24 44.464 237.24ZM58.2734 222.84H52.7054V220.2H66.9614V222.84H61.3934V237H58.2734V222.84ZM82.6529 234.384V237H70.0529V220.2H82.3169V222.816H73.1729V227.184H81.2849V229.752H73.1729V234.384H82.6529ZM97.777 233.112H89.377L87.721 237H84.505L92.065 220.2H95.137L102.721 237H99.457L97.777 233.112ZM96.745 230.664L93.577 223.32L90.433 230.664H96.745ZM121.04 237L121.016 225.864L115.496 235.08H114.104L108.584 226.008V237H105.608V220.2H108.176L114.848 231.336L121.4 220.2H123.968L123.992 237H121.04ZM148.566 228.264C149.494 228.568 150.23 229.08 150.774 229.8C151.318 230.504 151.59 231.384 151.59 232.44C151.59 233.896 151.03 235.024 149.91 235.824C148.79 236.608 147.158 237 145.014 237H136.662V220.2H144.534C146.518 220.2 148.046 220.592 149.118 221.376C150.19 222.144 150.726 223.208 150.726 224.568C150.726 225.4 150.534 226.136 150.15 226.776C149.766 227.416 149.238 227.912 148.566 228.264ZM139.782 222.648V227.28H144.198C145.286 227.28 146.118 227.088 146.694 226.704C147.286 226.304 147.582 225.728 147.582 224.976C147.582 224.208 147.286 223.632 146.694 223.248C146.118 222.848 145.286 222.648 144.198 222.648H139.782ZM144.822 234.552C147.238 234.552 148.446 233.744 148.446 232.128C148.446 230.512 147.238 229.704 144.822 229.704H139.782V234.552H144.822ZM166.662 237L163.23 232.08C163.086 232.096 162.87 232.104 162.582 232.104H158.79V237H155.67V220.2H162.582C164.038 220.2 165.302 220.44 166.374 220.92C167.462 221.4 168.294 222.088 168.87 222.984C169.446 223.88 169.734 224.944 169.734 226.176C169.734 227.44 169.422 228.528 168.798 229.44C168.19 230.352 167.31 231.032 166.158 231.48L170.022 237H166.662ZM166.59 226.176C166.59 225.104 166.238 224.28 165.534 223.704C164.83 223.128 163.798 222.84 162.438 222.84H158.79V229.536H162.438C163.798 229.536 164.83 229.248 165.534 228.672C166.238 228.08 166.59 227.248 166.59 226.176ZM184.871 233.112H176.471L174.815 237H171.599L179.159 220.2H182.231L189.815 237H186.551L184.871 233.112ZM183.839 230.664L180.671 223.32L177.527 230.664H183.839ZM198.485 229.968L195.821 232.704V237H192.701V220.2H195.821V228.816L204.125 220.2H207.629L200.573 227.712L208.061 237H204.413L198.485 229.968ZM223.536 234.384V237H210.936V220.2H223.2V222.816H214.056V227.184H222.168V229.752H214.056V234.384H223.536ZM232.972 237.24C231.676 237.24 230.42 237.056 229.204 236.688C228.004 236.32 227.052 235.832 226.348 235.224L227.428 232.8C228.116 233.344 228.956 233.792 229.948 234.144C230.956 234.48 231.964 234.648 232.972 234.648C234.22 234.648 235.148 234.448 235.756 234.048C236.38 233.648 236.692 233.12 236.692 232.464C236.692 231.984 236.516 231.592 236.164 231.288C235.828 230.968 235.396 230.72 234.868 230.544C234.34 230.368 233.62 230.168 232.708 229.944C231.428 229.64 230.388 229.336 229.588 229.032C228.804 228.728 228.124 228.256 227.548 227.616C226.988 226.96 226.708 226.08 226.708 224.976C226.708 224.048 226.956 223.208 227.452 222.456C227.964 221.688 228.724 221.08 229.732 220.632C230.756 220.184 232.004 219.96 233.476 219.96C234.5 219.96 235.508 220.088 236.5 220.344C237.492 220.6 238.348 220.968 239.068 221.448L238.084 223.872C237.348 223.44 236.58 223.112 235.78 222.888C234.98 222.664 234.204 222.552 233.452 222.552C232.22 222.552 231.3 222.76 230.692 223.176C230.1 223.592 229.804 224.144 229.804 224.832C229.804 225.312 229.972 225.704 230.308 226.008C230.66 226.312 231.1 226.552 231.628 226.728C232.156 226.904 232.876 227.104 233.788 227.328C235.036 227.616 236.06 227.92 236.86 228.24C237.66 228.544 238.34 229.016 238.9 229.656C239.476 230.296 239.764 231.16 239.764 232.248C239.764 233.176 239.508 234.016 238.996 234.768C238.5 235.52 237.74 236.12 236.716 236.568C235.692 237.016 234.444 237.24 232.972 237.24Z" fill="white" fill-opacity="0.87"/>
<path d="M145.729 44.1194C108.449 44.1194 78.1194 74.449 78.1194 111.735C78.1194 149.014 108.449 179.344 145.729 179.344C183.008 179.344 213.344 149.014 213.344 111.735C213.344 74.449 183.008 44.1194 145.729 44.1194ZM145.729 182.47C106.726 182.47 75 150.737 75 111.735C75 72.7324 106.726 41 145.729 41C184.731 41 216.463 72.7324 216.463 111.735C216.463 150.737 184.731 182.47 145.729 182.47Z" fill="white"/>
<path d="M145.729 50.6273C112.036 50.6273 84.6275 78.036 84.6275 111.728C84.6275 145.421 112.036 172.83 145.729 172.83C179.421 172.83 206.836 145.421 206.836 111.728C206.836 78.036 179.421 50.6273 145.729 50.6273ZM145.729 174.22C111.274 174.22 83.2375 146.183 83.2375 111.728C83.2375 77.2674 111.274 49.2373 145.729 49.2373C180.183 49.2373 208.22 77.2674 208.22 111.728C208.22 146.183 180.183 174.22 145.729 174.22Z" fill="white"/>
<path d="M146.218 138.203C131.601 138.203 119.764 126.347 119.764 111.73C119.764 97.1125 131.601 85.2561 146.218 85.2561C160.842 85.2561 172.692 97.1125 172.692 111.73C172.692 126.347 160.842 138.203 146.218 138.203ZM175.1 114.119C176.356 103.813 171.834 94.9987 164.788 89.2403L176.08 77.9539C168.138 70.9144 157.671 66.6548 146.218 66.6548C121.327 66.6548 101.144 86.8318 101.144 111.73C101.144 136.627 121.327 156.804 146.218 156.804C170.322 156.804 189.993 137.896 191.229 114.119H175.1Z" fill="white"/>
<path d="M161.992 110.215C160.089 110.215 158.559 108.691 158.559 106.788C158.559 104.899 160.089 103.361 161.992 103.361C163.875 103.361 165.425 104.899 165.425 106.788C165.425 108.691 163.875 110.215 161.992 110.215ZM155.99 128.772C154.107 128.772 152.576 127.228 152.576 125.338C152.576 123.436 154.107 121.911 155.99 121.911C157.892 121.911 159.423 123.436 159.423 125.338C159.423 127.228 157.892 128.772 155.99 128.772ZM135.781 111.746C135.781 105.975 140.444 101.305 146.215 101.305C151.974 101.305 156.656 105.975 156.656 111.746C156.656 117.504 151.974 122.168 146.215 122.168C140.444 122.168 135.781 117.504 135.781 111.746ZM136.396 128.772C134.493 128.772 132.963 127.228 132.963 125.338C132.963 123.436 134.493 121.911 136.396 121.911C138.279 121.911 139.829 123.436 139.829 125.338C139.829 127.228 138.279 128.772 136.396 128.772ZM130.445 110.215C128.543 110.215 127.012 108.691 127.012 106.788C127.012 104.899 128.543 103.361 130.445 103.361C132.348 103.361 133.872 104.899 133.872 106.788C133.872 108.691 132.348 110.215 130.445 110.215ZM146.17 91.7611C148.054 91.7611 149.597 93.3048 149.597 95.1944C149.597 97.0968 148.054 98.6213 146.17 98.6213C144.262 98.6213 142.737 97.0968 142.737 95.1944C142.737 93.3048 144.262 91.7611 146.17 91.7611ZM146.215 86.8994C132.527 86.8994 121.388 98.0576 121.388 111.746C121.388 125.441 132.527 136.593 146.215 136.593C159.929 136.593 171.068 125.441 171.068 111.746C171.068 98.0576 159.929 86.8994 146.215 86.8994Z" fill="white"/>
<path d="M176.858 112.493C177.388 103.651 173.915 95.307 167.152 89.134L182.866 73.431C192.951 84.0876 198.65 97.848 199.042 112.49L176.858 112.493Z" fill="#FC5C2E"/>
<defs>
<filter id="filter0_d" x="0" y="0" width="287" height="361" filterUnits="userSpaceOnUse" color-interpolation-filters="sRGB">
<feFlood flood-opacity="0" result="BackgroundImageFix"/>
<feColorMatrix in="SourceAlpha" type="matrix" values="0 0 0 0 0 0 0 0 0 0 0 0 0 0 0 0 0 0 127 0"/>
<feOffset dx="4" dy="4"/>
<feGaussianBlur stdDeviation="2"/>
<feColorMatrix type="matrix" values="0 0 0 0 0 0 0 0 0 0 0 0 0 0 0 0 0 0 0.25 0"/>
<feBlend mode="normal" in2="BackgroundImageFix" result="effect1_dropShadow"/>
<feBlend mode="normal" in="SourceGraphic" in2="effect1_dropShadow" result="shape"/>
</filter>
</defs>
</svg>
