<svg width="287" height="361" viewBox="0 0 287 361" fill="none" xmlns="http://www.w3.org/2000/svg">
<g filter="url(#filter0_d)">
<rect width="279" height="353" rx="8" fill="#121212"/>
<rect width="279" height="353" rx="8" fill="white" fill-opacity="0.08"/>
</g>
<path d="M251.286 319.714H242.714V328.286C242.714 329.229 241.943 330 241 330C240.057 330 239.286 329.229 239.286 328.286V319.714H230.714C229.771 319.714 229 318.943 229 318C229 317.057 229.771 316.286 230.714 316.286H239.286V307.714C239.286 306.771 240.057 306 241 306C241.943 306 242.714 306.771 242.714 307.714V316.286H251.286C252.229 316.286 253 317.057 253 318C253 318.943 252.229 319.714 251.286 319.714Z" fill="#FAFAFA"/>
<path d="M29.464 238.24C28.168 238.24 26.912 238.056 25.696 237.688C24.496 237.32 23.544 236.832 22.84 236.224L23.92 233.8C24.608 234.344 25.448 234.792 26.44 235.144C27.448 235.48 28.456 235.648 29.464 235.648C30.712 235.648 31.64 235.448 32.248 235.048C32.872 234.648 33.184 234.12 33.184 233.464C33.184 232.984 33.008 232.592 32.656 232.288C32.32 231.968 31.888 231.72 31.36 231.544C30.832 231.368 30.112 231.168 29.2 230.944C27.92 230.64 26.88 230.336 26.08 230.032C25.296 229.728 24.616 229.256 24.04 228.616C23.48 227.96 23.2 227.08 23.2 225.976C23.2 225.048 23.448 224.208 23.944 223.456C24.456 222.688 25.216 222.08 26.224 221.632C27.248 221.184 28.496 220.96 29.968 220.96C30.992 220.96 32 221.088 32.992 221.344C33.984 221.6 34.84 221.968 35.56 222.448L34.576 224.872C33.84 224.44 33.072 224.112 32.272 223.888C31.472 223.664 30.696 223.552 29.944 223.552C28.712 223.552 27.792 223.76 27.184 224.176C26.592 224.592 26.296 225.144 26.296 225.832C26.296 226.312 26.464 226.704 26.8 227.008C27.152 227.312 27.592 227.552 28.12 227.728C28.648 227.904 29.368 228.104 30.28 228.328C31.528 228.616 32.552 228.92 33.352 229.24C34.152 229.544 34.832 230.016 35.392 230.656C35.968 231.296 36.256 232.16 36.256 233.248C36.256 234.176 36 235.016 35.488 235.768C34.992 236.52 34.232 237.12 33.208 237.568C32.184 238.016 30.936 238.24 29.464 238.24ZM43.2734 223.84H37.7054V221.2H51.9614V223.84H46.3934V238H43.2734V223.84ZM67.6529 235.384V238H55.0529V221.2H67.3169V223.816H58.1729V228.184H66.2849V230.752H58.1729V235.384H67.6529ZM82.777 234.112H74.377L72.721 238H69.505L77.065 221.2H80.137L87.721 238H84.457L82.777 234.112ZM81.745 231.664L78.577 224.32L75.433 231.664H81.745ZM106.04 238L106.016 226.864L100.496 236.08H99.1036L93.5836 227.008V238H90.6076V221.2H93.1756L99.8476 232.336L106.4 221.2H108.968L108.992 238H106.04ZM134.262 235.384V238H121.662V221.2H133.926V223.816H124.782V228.184H132.894V230.752H124.782V235.384H134.262ZM148.887 238L144.327 231.616L139.815 238H136.263L142.503 229.432L136.599 221.2H140.127L144.423 227.176L148.671 221.2H152.055L146.175 229.312L152.487 238H148.887ZM158.375 223.84H152.807V221.2H167.063V223.84H161.495V238H158.375V223.84ZM182.754 235.384V238H170.154V221.2H182.418V223.816H173.274V228.184H181.386V230.752H173.274V235.384H182.754ZM197.975 238L194.543 233.08C194.399 233.096 194.183 233.104 193.895 233.104H190.103V238H186.983V221.2H193.895C195.351 221.2 196.615 221.44 197.687 221.92C198.775 222.4 199.607 223.088 200.183 223.984C200.759 224.88 201.047 225.944 201.047 227.176C201.047 228.44 200.735 229.528 200.111 230.44C199.503 231.352 198.623 232.032 197.471 232.48L201.335 238H197.975ZM197.903 227.176C197.903 226.104 197.551 225.28 196.847 224.704C196.143 224.128 195.111 223.84 193.751 223.84H190.103V230.536H193.751C195.111 230.536 196.143 230.248 196.847 229.672C197.551 229.08 197.903 228.248 197.903 227.176ZM205.287 221.2H208.407V238H205.287V221.2ZM221.549 238.24C219.837 238.24 218.293 237.872 216.917 237.136C215.541 236.384 214.461 235.352 213.677 234.04C212.893 232.712 212.501 231.232 212.501 229.6C212.501 227.968 212.893 226.496 213.677 225.184C214.461 223.856 215.541 222.824 216.917 222.088C218.293 221.336 219.837 220.96 221.549 220.96C223.261 220.96 224.805 221.336 226.181 222.088C227.557 222.824 228.637 223.848 229.421 225.16C230.205 226.472 230.597 227.952 230.597 229.6C230.597 231.248 230.205 232.728 229.421 234.04C228.637 235.352 227.557 236.384 226.181 237.136C224.805 237.872 223.261 238.24 221.549 238.24ZM221.549 235.504C222.669 235.504 223.677 235.256 224.573 234.76C225.469 234.248 226.173 233.544 226.685 232.648C227.197 231.736 227.453 230.72 227.453 229.6C227.453 228.48 227.197 227.472 226.685 226.576C226.173 225.664 225.469 224.96 224.573 224.464C223.677 223.952 222.669 223.696 221.549 223.696C220.429 223.696 219.421 223.952 218.525 224.464C217.629 224.96 216.925 225.664 216.413 226.576C215.901 227.472 215.645 228.48 215.645 229.6C215.645 230.72 215.901 231.736 216.413 232.648C216.925 233.544 217.629 234.248 218.525 234.76C219.421 235.256 220.429 235.504 221.549 235.504ZM245.646 238L242.214 233.08C242.07 233.096 241.854 233.104 241.566 233.104H237.774V238H234.654V221.2H241.566C243.022 221.2 244.286 221.44 245.358 221.92C246.446 222.4 247.278 223.088 247.854 223.984C248.43 224.88 248.718 225.944 248.718 227.176C248.718 228.44 248.406 229.528 247.782 230.44C247.174 231.352 246.294 232.032 245.142 232.48L249.006 238H245.646ZM245.574 227.176C245.574 226.104 245.222 225.28 244.518 224.704C243.814 224.128 242.782 223.84 241.422 223.84H237.774V230.536H241.422C242.782 230.536 243.814 230.248 244.518 229.672C245.222 229.08 245.574 228.248 245.574 227.176Z" fill="white" fill-opacity="0.87"/>
<path d="M138.729 52.1194C101.449 52.1194 71.1194 82.449 71.1194 119.735C71.1194 157.014 101.449 187.344 138.729 187.344C176.008 187.344 206.338 157.014 206.338 119.735C206.338 82.449 176.008 52.1194 138.729 52.1194ZM138.729 190.463C99.726 190.463 68 158.737 68 119.735C68 80.7324 99.726 49 138.729 49C177.731 49 209.457 80.7324 209.457 119.735C209.457 158.737 177.731 190.463 138.729 190.463Z" fill="url(#paint0_linear)"/>
<path d="M138.729 58.6209C105.036 58.6209 77.6275 86.0296 77.6275 119.728C77.6275 153.414 105.036 180.83 138.729 180.83C172.421 180.83 199.83 153.414 199.83 119.728C199.83 86.0296 172.421 58.6209 138.729 58.6209ZM138.729 182.213C104.274 182.213 76.2375 154.183 76.2375 119.728C76.2375 85.2674 104.274 57.2373 138.729 57.2373C173.183 57.2373 201.22 85.2674 201.22 119.728C201.22 154.183 173.183 182.213 138.729 182.213Z" fill="url(#paint1_linear)"/>
<path d="M105.945 80.3936L113.368 104.374L131.565 89.8562L107.243 79.0195L105.945 80.3936Z" fill="#FC5C2E"/>
<path d="M110.997 113.053C110.74 113.508 110.574 113.854 110.51 114.033C110.33 114.578 110.26 114.847 110.202 115.001C109.895 114.924 109.542 114.789 109.267 114.879C108.992 114.988 108.94 115.257 108.614 115.34C108.229 115.417 107.666 115.206 107.288 115.154C106.474 115.02 105.629 114.905 104.822 114.719C103.515 114.418 103.054 113.201 103.131 111.977C103.22 110.837 104.38 110.459 105.302 110.325C106.218 110.158 107.474 109.748 108.338 110.267C109.6 111.049 109.101 113.399 110.997 113.053Z" fill="white"/>
<path d="M167.851 140.723C166.301 140.723 164.815 140.774 163.304 140.806C162.676 140.819 162.061 140.819 161.44 140.819C160.126 140.819 157.379 140.928 156.194 140.492C154.246 139.839 153.74 137.264 153.209 135.425C153.343 135.387 153.478 135.355 153.631 135.329C153.824 135.304 154.041 135.259 154.259 135.22C154.394 135.208 154.541 135.182 154.695 135.15C154.746 135.15 154.784 135.15 154.842 135.137C155.034 135.112 155.252 135.086 155.457 135.054H155.508C155.713 135.028 155.931 135.003 156.149 134.977C156.68 134.919 157.238 134.862 157.827 134.823C157.987 134.823 158.154 134.81 158.314 134.798C159.198 134.727 160.114 134.676 161.01 134.65C161.241 134.631 161.478 134.618 161.709 134.605H162.215C162.42 134.593 162.605 134.593 162.81 134.58H163.291C165.616 134.541 167.512 134.631 168.056 134.823C169.51 135.368 169.254 136.706 169.69 138.122C170.125 140.069 169.799 140.723 167.851 140.723ZM151.031 138.026C150.333 139.973 147.623 139.717 147.354 139.717L128.58 139.73C128.324 139.73 125.595 139.999 124.903 138.052C124.186 136.092 123.103 132.946 122.725 131.384C122.315 129.731 120.983 126.9 128.964 127.073C133.076 127.156 136.049 127.156 137.957 127.13C139.873 127.156 142.845 127.156 146.957 127.06C154.925 126.868 153.606 129.705 153.196 131.352C152.811 132.921 151.735 136.079 151.031 138.026ZM119.753 140.518C118.555 140.953 115.807 140.857 114.494 140.857C114.02 140.857 113.54 140.857 113.079 140.844C111.939 140.832 110.792 140.806 109.639 140.793C109.12 140.774 108.614 140.774 108.083 140.774C106.135 140.774 105.809 140.121 106.244 138.18C106.68 136.758 106.404 135.425 107.865 134.881C108.396 134.689 110.164 134.605 112.361 134.618C112.592 134.618 112.835 134.618 113.079 134.631C113.803 134.65 114.565 134.663 115.34 134.702C115.807 134.714 116.269 134.74 116.73 134.772C116.909 134.772 117.069 134.785 117.236 134.798C117.498 134.81 117.742 134.842 117.985 134.849C118.229 134.862 118.479 134.894 118.722 134.907C118.965 134.932 119.196 134.964 119.427 134.977C119.785 135.003 120.125 135.041 120.451 135.086C120.669 135.112 120.887 135.137 121.079 135.163C121.252 135.195 121.419 135.22 121.579 135.233C121.662 135.246 121.745 135.259 121.816 135.272C121.925 135.284 122.021 135.316 122.11 135.329C122.155 135.342 122.194 135.342 122.219 135.342C122.29 135.355 122.354 135.368 122.424 135.387C122.533 135.413 122.629 135.425 122.725 135.451C122.181 137.289 121.7 139.864 119.753 140.518ZM106.968 122.307C107.211 121.18 107.455 121.34 108.665 121.327C110.536 121.327 112.336 121.506 114.2 121.833C116.647 122.224 119.497 122.147 121.925 122.864C119.1 127.918 116 127.034 112.413 127.034C110.465 127.034 107.455 127.034 106.968 124.677C106.801 124.024 106.801 123.044 106.968 122.307ZM118.043 103.36L137.957 102.668L157.827 103.321C157.827 103.321 165.007 114.486 164.463 114.486C163.944 114.486 146.003 113.48 137.938 113.66C129.887 113.493 111.939 114.531 111.433 114.531C110.888 114.531 118.043 103.36 118.043 103.36ZM167.224 121.282C168.454 121.282 168.697 121.122 168.94 122.256C169.1 122.986 169.1 123.966 168.94 124.626C168.454 126.977 165.449 126.977 163.489 126.977C159.909 126.989 156.802 127.88 153.984 122.839C156.411 122.115 159.268 122.185 161.709 121.788C163.56 121.449 165.36 121.282 167.224 121.282ZM172.547 122.134C172.483 120.988 169.824 118.534 169.062 117.785C168.562 117.292 166.788 115.78 166.205 115.402C165.853 115.184 165.782 115.184 165.686 114.967C165.629 114.806 165.565 114.531 165.385 113.999C165.315 113.807 165.155 113.468 164.899 113.019C163.368 110.252 158.916 103.373 158.544 102.995C158.102 102.559 157.129 101.688 155.739 101.438C154.368 101.208 140.539 100.484 137.938 100.484C135.325 100.484 121.502 101.233 120.125 101.483C118.735 101.727 117.768 102.585 117.332 103.02C116.96 103.398 112.509 110.297 110.997 113.058C110.734 113.519 110.574 113.865 110.504 114.038C110.331 114.582 110.26 114.858 110.209 115.005C110.139 115.159 109.786 115.402 109.652 115.473L109.607 115.511C109.229 115.767 107.673 116.818 106.846 117.702C105.578 119.04 103.407 121.039 103.355 122.185C103.304 123.332 102.811 124.133 102.933 126.419C102.977 127.521 103.285 130.871 103.586 134.061C103.887 137.411 104.214 140.588 104.239 140.832C104.297 141.325 104.13 141.869 104.348 142.292C104.566 142.721 105.117 142.849 105.969 142.836C106.244 142.836 109.12 142.875 113.079 142.933C122.508 143.041 137.964 143.246 137.964 143.246C137.964 143.246 153.92 143.009 163.304 142.875C167.019 142.824 169.722 142.779 169.965 142.779C170.824 142.779 171.362 142.67 171.592 142.234C171.804 141.812 171.637 141.267 171.695 140.774C171.733 140.441 172.29 134.702 172.655 130.48C172.822 128.61 172.944 127.047 172.989 126.355C173.097 124.075 172.604 123.262 172.547 122.134Z" fill="white"/>
<path d="M113.083 144.297V148.044C113.083 148.396 112.801 148.697 112.442 148.697L104.256 148.71C103.891 148.71 103.603 148.409 103.603 148.057V143.521C104.314 144.175 105.345 144.2 105.921 144.2C105.934 144.2 113.07 144.297 113.07 144.297H113.083Z" fill="white"/>
<path d="M172.799 142.858V147.963C172.799 148.335 172.511 148.616 172.14 148.616L163.96 148.636C163.601 148.636 163.307 148.335 163.307 147.982V144.222C167.176 144.165 169.911 144.126 169.968 144.126C170.609 144.126 172.088 144.126 172.799 142.858Z" fill="white"/>
<path d="M112.346 137.755C112.346 139.126 111.238 140.234 109.867 140.24C108.497 140.24 107.388 139.126 107.382 137.755C107.382 136.391 108.49 135.276 109.867 135.276C111.232 135.276 112.346 136.384 112.346 137.755Z" fill="white"/>
<path d="M171.085 114.678C170.278 114.863 169.426 114.979 168.612 115.113C168.234 115.164 167.671 115.382 167.286 115.305C166.96 115.222 166.908 114.953 166.633 114.844C166.351 114.754 166.012 114.889 165.698 114.966C165.64 114.812 165.563 114.543 165.39 114.005C165.326 113.819 165.16 113.48 164.904 113.025C166.793 113.365 166.287 111.014 167.555 110.232C168.414 109.713 169.669 110.123 170.592 110.284C171.508 110.418 172.68 110.796 172.757 111.936C172.84 113.16 172.385 114.37 171.085 114.678Z" fill="white"/>
<path d="M116.613 137.739C116.613 138.713 115.819 139.507 114.845 139.507C113.865 139.507 113.071 138.719 113.071 137.739C113.065 136.766 113.859 135.972 114.845 135.972C115.819 135.972 116.613 136.759 116.613 137.739Z" fill="white"/>
<path d="M168.385 137.685C168.392 139.049 167.283 140.17 165.906 140.17C164.542 140.17 163.421 139.056 163.421 137.685C163.415 136.314 164.536 135.2 165.906 135.2C167.277 135.2 168.385 136.308 168.385 137.685Z" fill="white"/>
<path d="M162.451 137.704C162.451 138.684 161.657 139.472 160.684 139.472C159.71 139.472 158.916 138.684 158.916 137.704C158.916 136.731 159.703 135.936 160.684 135.936C161.657 135.936 162.451 136.724 162.451 137.704Z" fill="white"/>
<defs>
<filter id="filter0_d" x="0" y="0" width="287" height="361" filterUnits="userSpaceOnUse" color-interpolation-filters="sRGB">
<feFlood flood-opacity="0" result="BackgroundImageFix"/>
<feColorMatrix in="SourceAlpha" type="matrix" values="0 0 0 0 0 0 0 0 0 0 0 0 0 0 0 0 0 0 127 0"/>
<feOffset dx="4" dy="4"/>
<feGaussianBlur stdDeviation="2"/>
<feColorMatrix type="matrix" values="0 0 0 0 0 0 0 0 0 0 0 0 0 0 0 0 0 0 0.25 0"/>
<feBlend mode="normal" in2="BackgroundImageFix" result="effect1_dropShadow"/>
<feBlend mode="normal" in="SourceGraphic" in2="effect1_dropShadow" result="shape"/>
</filter>
<linearGradient id="paint0_linear" x1="138.729" y1="49" x2="138.729" y2="190.463" gradientUnits="userSpaceOnUse">
<stop stop-color="white"/>
<stop offset="1" stop-color="white" stop-opacity="0.5"/>
</linearGradient>
<linearGradient id="paint1_linear" x1="138.729" y1="57.2373" x2="138.729" y2="182.213" gradientUnits="userSpaceOnUse">
<stop stop-color="white"/>
<stop offset="1" stop-color="white" stop-opacity="0.5"/>
</linearGradient>
</defs>
</svg>
