<svg width="287" height="361" viewBox="0 0 287 361" fill="none" xmlns="http://www.w3.org/2000/svg">
<g filter="url(#filter0_d)">
<rect width="279" height="353" rx="8" fill="#121212"/>
<rect width="279" height="353" rx="8" fill="white" fill-opacity="0.08"/>
</g>
<path d="M251.286 319.714H242.714V328.286C242.714 329.229 241.943 330 241 330C240.057 330 239.286 329.229 239.286 328.286V319.714H230.714C229.771 319.714 229 318.943 229 318C229 317.057 229.771 316.286 230.714 316.286H239.286V307.714C239.286 306.771 240.057 306 241 306C241.943 306 242.714 306.771 242.714 307.714V316.286H251.286C252.229 316.286 253 317.057 253 318C253 318.943 252.229 319.714 251.286 319.714Z" fill="#FAFAFA"/>
<path d="M58.464 238.24C57.168 238.24 55.912 238.056 54.696 237.688C53.496 237.32 52.544 236.832 51.84 236.224L52.92 233.8C53.608 234.344 54.448 234.792 55.44 235.144C56.448 235.48 57.456 235.648 58.464 235.648C59.712 235.648 60.64 235.448 61.248 235.048C61.872 234.648 62.184 234.12 62.184 233.464C62.184 232.984 62.008 232.592 61.656 232.288C61.32 231.968 60.888 231.72 60.36 231.544C59.832 231.368 59.112 231.168 58.2 230.944C56.92 230.64 55.88 230.336 55.08 230.032C54.296 229.728 53.616 229.256 53.04 228.616C52.48 227.96 52.2 227.08 52.2 225.976C52.2 225.048 52.448 224.208 52.944 223.456C53.456 222.688 54.216 222.08 55.224 221.632C56.248 221.184 57.496 220.96 58.968 220.96C59.992 220.96 61 221.088 61.992 221.344C62.984 221.6 63.84 221.968 64.56 222.448L63.576 224.872C62.84 224.44 62.072 224.112 61.272 223.888C60.472 223.664 59.696 223.552 58.944 223.552C57.712 223.552 56.792 223.76 56.184 224.176C55.592 224.592 55.296 225.144 55.296 225.832C55.296 226.312 55.464 226.704 55.8 227.008C56.152 227.312 56.592 227.552 57.12 227.728C57.648 227.904 58.368 228.104 59.28 228.328C60.528 228.616 61.552 228.92 62.352 229.24C63.152 229.544 63.832 230.016 64.392 230.656C64.968 231.296 65.256 232.16 65.256 233.248C65.256 234.176 65 235.016 64.488 235.768C63.992 236.52 63.232 237.12 62.208 237.568C61.184 238.016 59.936 238.24 58.464 238.24ZM72.2734 223.84H66.7054V221.2H80.9614V223.84H75.3934V238H72.2734V223.84ZM96.6529 235.384V238H84.0529V221.2H96.3169V223.816H87.1729V228.184H95.2849V230.752H87.1729V235.384H96.6529ZM111.777 234.112H103.377L101.721 238H98.505L106.065 221.2H109.137L116.721 238H113.457L111.777 234.112ZM110.745 231.664L107.577 224.32L104.433 231.664H110.745ZM135.04 238L135.016 226.864L129.496 236.08H128.104L122.584 227.008V238H119.608V221.2H122.176L128.848 232.336L135.4 221.2H137.968L137.992 238H135.04ZM166.094 238L166.07 226.864L160.55 236.08H159.158L153.638 227.008V238H150.662V221.2H153.23L159.902 232.336L166.454 221.2H169.022L169.046 238H166.094ZM182.182 238.24C180.47 238.24 178.926 237.872 177.55 237.136C176.174 236.384 175.094 235.352 174.31 234.04C173.526 232.712 173.134 231.232 173.134 229.6C173.134 227.968 173.526 226.496 174.31 225.184C175.094 223.856 176.174 222.824 177.55 222.088C178.926 221.336 180.47 220.96 182.182 220.96C183.894 220.96 185.438 221.336 186.814 222.088C188.19 222.824 189.27 223.848 190.054 225.16C190.838 226.472 191.23 227.952 191.23 229.6C191.23 231.248 190.838 232.728 190.054 234.04C189.27 235.352 188.19 236.384 186.814 237.136C185.438 237.872 183.894 238.24 182.182 238.24ZM182.182 235.504C183.302 235.504 184.31 235.256 185.206 234.76C186.102 234.248 186.806 233.544 187.318 232.648C187.83 231.736 188.086 230.72 188.086 229.6C188.086 228.48 187.83 227.472 187.318 226.576C186.806 225.664 186.102 224.96 185.206 224.464C184.31 223.952 183.302 223.696 182.182 223.696C181.062 223.696 180.054 223.952 179.158 224.464C178.262 224.96 177.558 225.664 177.046 226.576C176.534 227.472 176.278 228.48 176.278 229.6C176.278 230.72 176.534 231.736 177.046 232.648C177.558 233.544 178.262 234.248 179.158 234.76C180.054 235.256 181.062 235.504 182.182 235.504ZM198.461 223.84H192.893V221.2H207.149V223.84H201.581V238H198.461V223.84ZM217.854 238.24C216.142 238.24 214.598 237.872 213.222 237.136C211.846 236.384 210.766 235.352 209.982 234.04C209.198 232.712 208.806 231.232 208.806 229.6C208.806 227.968 209.198 226.496 209.982 225.184C210.766 223.856 211.846 222.824 213.222 222.088C214.598 221.336 216.142 220.96 217.854 220.96C219.566 220.96 221.11 221.336 222.486 222.088C223.862 222.824 224.942 223.848 225.726 225.16C226.51 226.472 226.902 227.952 226.902 229.6C226.902 231.248 226.51 232.728 225.726 234.04C224.942 235.352 223.862 236.384 222.486 237.136C221.11 237.872 219.566 238.24 217.854 238.24ZM217.854 235.504C218.974 235.504 219.982 235.256 220.878 234.76C221.774 234.248 222.478 233.544 222.99 232.648C223.502 231.736 223.758 230.72 223.758 229.6C223.758 228.48 223.502 227.472 222.99 226.576C222.478 225.664 221.774 224.96 220.878 224.464C219.982 223.952 218.974 223.696 217.854 223.696C216.734 223.696 215.726 223.952 214.83 224.464C213.934 224.96 213.23 225.664 212.718 226.576C212.206 227.472 211.95 228.48 211.95 229.6C211.95 230.72 212.206 231.736 212.718 232.648C213.23 233.544 213.934 234.248 214.83 234.76C215.726 235.256 216.734 235.504 217.854 235.504Z" fill="white" fill-opacity="0.87"/>
<path d="M142.569 53.0683C105.901 53.0683 76.0683 82.9007 76.0683 119.575C76.0683 156.244 105.901 186.07 142.569 186.07C179.237 186.07 209.076 156.244 209.076 119.575C209.076 82.9007 179.237 53.0683 142.569 53.0683ZM142.569 189.144C104.206 189.144 73 157.938 73 119.575C73 81.2122 104.206 50 142.569 50C180.932 50 212.144 81.2122 212.144 119.575C212.144 157.938 180.932 189.144 142.569 189.144Z" fill="white"/>
<path d="M142.569 59.4678C109.429 59.4678 82.4695 86.4272 82.4695 119.574C82.4695 152.714 109.429 179.673 142.569 179.673C175.709 179.673 202.675 152.714 202.675 119.574C202.675 86.4272 175.709 59.4678 142.569 59.4678ZM142.569 181.04C108.679 181.04 81.1023 153.463 81.1023 119.574C81.1023 85.6775 108.679 58.1069 142.569 58.1069C176.459 58.1069 204.036 85.6775 204.036 119.574C204.036 153.463 176.459 181.04 142.569 181.04Z" fill="white"/>
<path d="M108.377 76.634L109.706 101.289L130.546 91.8055L109.938 75.6412L108.377 76.634Z" fill="white"/>
<path d="M117.621 121.313C112.309 121.313 107.994 125.635 107.994 130.94C107.994 136.245 112.309 140.573 117.621 140.573C122.932 140.573 127.248 136.245 127.248 130.94C127.248 125.635 122.932 121.313 117.621 121.313ZM117.621 142.715C111.125 142.715 105.839 137.436 105.839 130.94C105.839 124.444 111.125 119.158 117.621 119.158C124.11 119.158 129.396 124.444 129.396 130.94C129.396 137.436 124.11 142.715 117.621 142.715Z" fill="white"/>
<path d="M167.832 121.313C162.527 121.313 158.205 125.635 158.205 130.94C158.205 136.245 162.527 140.573 167.832 140.573C173.136 140.573 177.459 136.245 177.459 130.94C177.459 125.635 173.136 121.313 167.832 121.313ZM167.832 142.715C161.336 142.715 156.05 137.436 156.05 130.94C156.05 124.444 161.336 119.158 167.832 119.158C174.327 119.158 179.607 124.444 179.607 130.94C179.607 137.436 174.327 142.715 167.832 142.715Z" fill="white"/>
<path d="M124.819 111.597L114.782 118.433L119.571 126.542L117.933 135.041L150.808 134.493L147.009 125.383L164.014 109.858L130.804 115.346L124.819 111.597Z" fill="white"/>
<path d="M118.277 133.97L149.943 133.403L146.036 124.765L159.853 111.629L130.342 116.511L127.469 112.851L115.864 119.095L124.168 125.773L118.277 133.97ZM151.656 135.583L117.565 136.112L118.497 127.096L113.684 117.778L125.113 110.243L131.249 114.174L168.145 108.082L147.958 126.006L151.656 135.583Z" fill="white"/>
<defs>
<filter id="filter0_d" x="0" y="0" width="287" height="361" filterUnits="userSpaceOnUse" color-interpolation-filters="sRGB">
<feFlood flood-opacity="0" result="BackgroundImageFix"/>
<feColorMatrix in="SourceAlpha" type="matrix" values="0 0 0 0 0 0 0 0 0 0 0 0 0 0 0 0 0 0 127 0"/>
<feOffset dx="4" dy="4"/>
<feGaussianBlur stdDeviation="2"/>
<feColorMatrix type="matrix" values="0 0 0 0 0 0 0 0 0 0 0 0 0 0 0 0 0 0 0.25 0"/>
<feBlend mode="normal" in2="BackgroundImageFix" result="effect1_dropShadow"/>
<feBlend mode="normal" in="SourceGraphic" in2="effect1_dropShadow" result="shape"/>
</filter>
</defs>
</svg>
