<svg width="287" height="361" viewBox="0 0 287 361" fill="none" xmlns="http://www.w3.org/2000/svg">
<g filter="url(#filter0_d)">
<rect width="279" height="353" rx="8" fill="#121212"/>
<rect width="279" height="353" rx="8" fill="white" fill-opacity="0.08"/>
</g>
<path d="M251.286 319.714H242.714V328.286C242.714 329.229 241.943 330 241 330C240.057 330 239.286 329.229 239.286 328.286V319.714H230.714C229.771 319.714 229 318.943 229 318C229 317.057 229.771 316.286 230.714 316.286H239.286V307.714C239.286 306.771 240.057 306 241 306C241.943 306 242.714 306.771 242.714 307.714V316.286H251.286C252.229 316.286 253 317.057 253 318C253 318.943 252.229 319.714 251.286 319.714Z" fill="#FAFAFA"/>
<path d="M22.464 238.24C21.168 238.24 19.912 238.056 18.696 237.688C17.496 237.32 16.544 236.832 15.84 236.224L16.92 233.8C17.608 234.344 18.448 234.792 19.44 235.144C20.448 235.48 21.456 235.648 22.464 235.648C23.712 235.648 24.64 235.448 25.248 235.048C25.872 234.648 26.184 234.12 26.184 233.464C26.184 232.984 26.008 232.592 25.656 232.288C25.32 231.968 24.888 231.72 24.36 231.544C23.832 231.368 23.112 231.168 22.2 230.944C20.92 230.64 19.88 230.336 19.08 230.032C18.296 229.728 17.616 229.256 17.04 228.616C16.48 227.96 16.2 227.08 16.2 225.976C16.2 225.048 16.448 224.208 16.944 223.456C17.456 222.688 18.216 222.08 19.224 221.632C20.248 221.184 21.496 220.96 22.968 220.96C23.992 220.96 25 221.088 25.992 221.344C26.984 221.6 27.84 221.968 28.56 222.448L27.576 224.872C26.84 224.44 26.072 224.112 25.272 223.888C24.472 223.664 23.696 223.552 22.944 223.552C21.712 223.552 20.792 223.76 20.184 224.176C19.592 224.592 19.296 225.144 19.296 225.832C19.296 226.312 19.464 226.704 19.8 227.008C20.152 227.312 20.592 227.552 21.12 227.728C21.648 227.904 22.368 228.104 23.28 228.328C24.528 228.616 25.552 228.92 26.352 229.24C27.152 229.544 27.832 230.016 28.392 230.656C28.968 231.296 29.256 232.16 29.256 233.248C29.256 234.176 29 235.016 28.488 235.768C27.992 236.52 27.232 237.12 26.208 237.568C25.184 238.016 23.936 238.24 22.464 238.24ZM36.2734 223.84H30.7054V221.2H44.9614V223.84H39.3934V238H36.2734V223.84ZM60.6529 235.384V238H48.0529V221.2H60.3169V223.816H51.1729V228.184H59.2849V230.752H51.1729V235.384H60.6529ZM75.777 234.112H67.377L65.721 238H62.505L70.065 221.2H73.137L80.721 238H77.457L75.777 234.112ZM74.745 231.664L71.577 224.32L68.433 231.664H74.745ZM99.0396 238L99.0156 226.864L93.4956 236.08H92.1036L86.5836 227.008V238H83.6076V221.2H86.1756L92.8476 232.336L99.3996 221.2H101.968L101.992 238H99.0396ZM126.566 229.264C127.494 229.568 128.23 230.08 128.774 230.8C129.318 231.504 129.59 232.384 129.59 233.44C129.59 234.896 129.03 236.024 127.91 236.824C126.79 237.608 125.158 238 123.014 238H114.662V221.2H122.534C124.518 221.2 126.046 221.592 127.118 222.376C128.19 223.144 128.726 224.208 128.726 225.568C128.726 226.4 128.534 227.136 128.15 227.776C127.766 228.416 127.238 228.912 126.566 229.264ZM117.782 223.648V228.28H122.198C123.286 228.28 124.118 228.088 124.694 227.704C125.286 227.304 125.582 226.728 125.582 225.976C125.582 225.208 125.286 224.632 124.694 224.248C124.118 223.848 123.286 223.648 122.198 223.648H117.782ZM122.822 235.552C125.238 235.552 126.446 234.744 126.446 233.128C126.446 231.512 125.238 230.704 122.822 230.704H117.782V235.552H122.822ZM146.27 235.384V238H133.67V221.2H145.934V223.816H136.79V228.184H144.902V230.752H136.79V235.384H146.27ZM150.498 221.2H153.618V235.36H162.402V238H150.498V221.2ZM167.453 223.84H161.885V221.2H176.141V223.84H170.573V238H167.453V223.84ZM185.017 230.968L182.353 233.704V238H179.233V221.2H182.353V229.816L190.657 221.2H194.161L187.105 228.712L194.593 238H190.945L185.017 230.968ZM197.467 221.2H200.587V235.36H209.371V238H197.467V221.2ZM225.184 235.384V238H212.584V221.2H224.848V223.816H215.704V228.184H223.816V230.752H215.704V235.384H225.184ZM242.012 235.384V238H229.412V221.2H241.676V223.816H232.532V228.184H240.644V230.752H232.532V235.384H242.012ZM261.168 221.2V238H258.6L249.336 226.624V238H246.24V221.2H248.808L258.072 232.576V221.2H261.168Z" fill="white" fill-opacity="0.87"/>
<path d="M138.575 51.0683C101.907 51.0683 72.0683 80.9007 72.0683 117.569C72.0683 154.237 101.907 184.076 138.575 184.076C175.244 184.076 205.076 154.237 205.076 117.569C205.076 80.9007 175.244 51.0683 138.575 51.0683ZM138.575 187.144C100.212 187.144 69 155.938 69 117.569C69 79.2059 100.212 48 138.575 48C176.938 48 208.144 79.2059 208.144 117.569C208.144 155.938 176.938 187.144 138.575 187.144Z" fill="white"/>
<path d="M138.578 57.4697C105.437 57.4697 78.4717 84.4291 78.4717 117.569C78.4717 150.709 105.437 177.675 138.578 177.675C171.718 177.675 198.677 150.709 198.677 117.569C198.677 84.4291 171.718 57.4697 138.578 57.4697ZM138.578 179.036C104.688 179.036 77.1108 151.459 77.1108 117.569C77.1108 83.6794 104.688 56.1025 138.578 56.1025C172.467 56.1025 200.044 83.6794 200.044 117.569C200.044 151.459 172.467 179.036 138.578 179.036Z" fill="white"/>
<path d="M110.411 71.4L111.74 96.0555L132.58 86.5719L111.978 70.4006L110.411 71.4Z" fill="white"/>
<path d="M118.707 151.67H108.248L153.693 78.0752H164.152L118.707 151.67Z" fill="white"/>
<path d="M131.983 107.837C130.421 107.837 129.154 109.11 129.154 110.666V114.692C129.154 116.248 130.421 117.521 131.983 117.521H143.645C145.208 117.521 146.474 116.248 146.474 114.692V110.666C146.474 109.11 145.208 107.837 143.645 107.837H131.983ZM143.645 119.096H131.983C129.551 119.096 127.579 117.124 127.579 114.692V110.666C127.579 108.234 129.551 106.262 131.983 106.262H143.645C146.077 106.262 148.049 108.234 148.049 110.666V114.692C148.049 117.124 146.077 119.096 143.645 119.096Z" fill="white"/>
<defs>
<filter id="filter0_d" x="0" y="0" width="287" height="361" filterUnits="userSpaceOnUse" color-interpolation-filters="sRGB">
<feFlood flood-opacity="0" result="BackgroundImageFix"/>
<feColorMatrix in="SourceAlpha" type="matrix" values="0 0 0 0 0 0 0 0 0 0 0 0 0 0 0 0 0 0 127 0"/>
<feOffset dx="4" dy="4"/>
<feGaussianBlur stdDeviation="2"/>
<feColorMatrix type="matrix" values="0 0 0 0 0 0 0 0 0 0 0 0 0 0 0 0 0 0 0.25 0"/>
<feBlend mode="normal" in2="BackgroundImageFix" result="effect1_dropShadow"/>
<feBlend mode="normal" in="SourceGraphic" in2="effect1_dropShadow" result="shape"/>
</filter>
</defs>
</svg>
