<svg width="287" height="361" viewBox="0 0 287 361" fill="none" xmlns="http://www.w3.org/2000/svg">
<g filter="url(#filter0_d)">
<rect width="279" height="353" rx="8" fill="#121212"/>
<rect width="279" height="353" rx="8" fill="white" fill-opacity="0.08"/>
</g>
<path d="M251.286 319.714H242.714V328.286C242.714 329.229 241.943 330 241 330C240.057 330 239.286 329.229 239.286 328.286V319.714H230.714C229.771 319.714 229 318.943 229 318C229 317.057 229.771 316.286 230.714 316.286H239.286V307.714C239.286 306.771 240.057 306 241 306C241.943 306 242.714 306.771 242.714 307.714V316.286H251.286C252.229 316.286 253 317.057 253 318C253 318.943 252.229 319.714 251.286 319.714Z" fill="#FAFAFA"/>
<path d="M91.256 221.2H98.6C100.392 221.2 101.984 221.552 103.376 222.256C104.768 222.944 105.848 223.928 106.616 225.208C107.384 226.472 107.768 227.936 107.768 229.6C107.768 231.264 107.384 232.736 106.616 234.016C105.848 235.28 104.768 236.264 103.376 236.968C101.984 237.656 100.392 238 98.6 238H91.256V221.2ZM98.456 235.36C99.688 235.36 100.768 235.128 101.696 234.664C102.64 234.184 103.36 233.512 103.856 232.648C104.368 231.768 104.624 230.752 104.624 229.6C104.624 228.448 104.368 227.44 103.856 226.576C103.36 225.696 102.64 225.024 101.696 224.56C100.768 224.08 99.688 223.84 98.456 223.84H94.376V235.36H98.456ZM124.434 235.384V238H111.834V221.2H124.098V223.816H114.954V228.184H123.066V230.752H114.954V235.384H124.434ZM133.87 238.24C132.574 238.24 131.318 238.056 130.102 237.688C128.902 237.32 127.95 236.832 127.246 236.224L128.326 233.8C129.014 234.344 129.854 234.792 130.846 235.144C131.854 235.48 132.862 235.648 133.87 235.648C135.118 235.648 136.046 235.448 136.654 235.048C137.278 234.648 137.59 234.12 137.59 233.464C137.59 232.984 137.414 232.592 137.062 232.288C136.726 231.968 136.294 231.72 135.766 231.544C135.238 231.368 134.518 231.168 133.606 230.944C132.326 230.64 131.286 230.336 130.486 230.032C129.702 229.728 129.022 229.256 128.446 228.616C127.886 227.96 127.606 227.08 127.606 225.976C127.606 225.048 127.854 224.208 128.35 223.456C128.862 222.688 129.622 222.08 130.63 221.632C131.654 221.184 132.902 220.96 134.374 220.96C135.398 220.96 136.406 221.088 137.398 221.344C138.39 221.6 139.246 221.968 139.966 222.448L138.982 224.872C138.246 224.44 137.478 224.112 136.678 223.888C135.878 223.664 135.102 223.552 134.35 223.552C133.118 223.552 132.198 223.76 131.59 224.176C130.998 224.592 130.702 225.144 130.702 225.832C130.702 226.312 130.87 226.704 131.206 227.008C131.558 227.312 131.998 227.552 132.526 227.728C133.054 227.904 133.774 228.104 134.686 228.328C135.934 228.616 136.958 228.92 137.758 229.24C138.558 229.544 139.238 230.016 139.798 230.656C140.374 231.296 140.662 232.16 140.662 233.248C140.662 234.176 140.406 235.016 139.894 235.768C139.398 236.52 138.638 237.12 137.614 237.568C136.59 238.016 135.342 238.24 133.87 238.24ZM155.402 234.112H147.002L145.346 238H142.13L149.69 221.2H152.762L160.346 238H157.082L155.402 234.112ZM154.37 231.664L151.202 224.32L148.058 231.664H154.37ZM163.233 221.2H166.353V235.36H175.137V238H163.233V221.2ZM180.187 223.84H174.619V221.2H188.875V223.84H183.307V238H180.187V223.84Z" fill="white" fill-opacity="0.87"/>
<path d="M134.186 60.0585C97.7159 60.0585 68.052 89.7223 68.052 126.192C68.052 162.662 97.7159 192.326 134.186 192.326C170.655 192.326 200.319 162.662 200.319 126.192C200.319 89.7223 170.655 60.0585 134.186 60.0585ZM134.186 195.378C96.0354 195.378 65 164.336 65 126.192C65 88.0418 96.0354 57 134.186 57C172.336 57 203.378 88.0418 203.378 126.192C203.378 164.336 172.336 195.378 134.186 195.378Z" fill="white"/>
<path d="M134.184 66.3239C101.23 66.3239 74.4182 93.1354 74.4182 126.09C74.4182 159.044 101.23 185.855 134.184 185.855C167.144 185.855 193.956 159.044 193.956 126.09C193.956 93.1354 167.144 66.3239 134.184 66.3239ZM134.184 187.214C100.483 187.214 73.0596 159.797 73.0596 126.09C73.0596 92.3885 100.483 64.9653 134.184 64.9653C167.891 64.9653 195.308 92.3885 195.308 126.09C195.308 159.797 167.891 187.214 134.184 187.214Z" fill="white"/>
<path d="M122.448 102.227H128.043L130.838 97.385L128.043 92.543H122.448L119.647 97.385L122.448 102.227ZM129.215 104.262H121.269L117.297 97.385L121.269 90.5083H129.215L133.188 97.385L129.215 104.262Z" fill="white"/>
<path d="M109.738 122.552H115.334L118.128 117.71L115.334 112.868H109.738L106.937 117.71L109.738 122.552ZM116.506 124.586H108.56L104.594 117.71L108.56 110.833H116.506L120.478 117.71L116.506 124.586Z" fill="white"/>
<path d="M130.243 126.946H135.839L138.633 122.104L135.839 117.262H130.243L127.449 122.104L130.243 126.946ZM137.011 128.981H129.065L125.099 122.104L129.065 115.228H137.011L140.983 122.104L137.011 128.981Z" fill="white"/>
<path d="M151.504 156.616H157.099L159.893 151.767L157.099 146.925H151.504L148.709 151.767L151.504 156.616ZM158.271 158.644H150.325L146.359 151.767L150.325 144.891H158.271L162.244 151.767L158.271 158.644Z" fill="white"/>
<path d="M110.082 151.123H115.677L118.472 146.274L115.677 141.432H110.082L107.281 146.274L110.082 151.123ZM116.849 153.151H108.903L104.937 146.274L108.903 139.397H116.849L120.822 146.274L116.849 153.151Z" fill="white"/>
<path d="M136.988 109.917H142.583L145.377 105.075L142.583 100.227H136.988L134.187 105.075L136.988 109.917ZM143.755 111.952H135.809L131.836 105.075L135.809 98.1987H143.755L147.728 105.075L143.755 111.952Z" fill="white"/>
<path d="M153.975 114.868H159.571L162.365 110.026L159.571 105.177H153.975L151.181 110.026L153.975 114.868ZM160.743 116.902H152.804L148.831 110.026L152.804 103.143H160.743L164.716 110.026L160.743 116.902Z" fill="white"/>
<path d="M155.149 134.918H160.745L163.539 130.069L160.745 125.227H155.149L152.348 130.069L155.149 134.918ZM161.916 136.946H153.971L149.998 130.069L153.971 123.192H161.916L165.889 130.069L161.916 136.946Z" fill="white"/>
<path d="M132.252 145.355H137.847L140.642 140.507L137.847 135.665H132.252L129.451 140.507L132.252 145.355ZM139.019 147.383H131.074L127.107 140.507L131.074 133.63H139.019L142.992 140.507L139.019 147.383Z" fill="white"/>
<path d="M101.735 82.0345L170.76 165.49L166.315 169.167L97.2893 85.7115L101.735 82.0345Z" fill="#FC5C2E"/>
<defs>
<filter id="filter0_d" x="0" y="0" width="287" height="361" filterUnits="userSpaceOnUse" color-interpolation-filters="sRGB">
<feFlood flood-opacity="0" result="BackgroundImageFix"/>
<feColorMatrix in="SourceAlpha" type="matrix" values="0 0 0 0 0 0 0 0 0 0 0 0 0 0 0 0 0 0 127 0"/>
<feOffset dx="4" dy="4"/>
<feGaussianBlur stdDeviation="2"/>
<feColorMatrix type="matrix" values="0 0 0 0 0 0 0 0 0 0 0 0 0 0 0 0 0 0 0.25 0"/>
<feBlend mode="normal" in2="BackgroundImageFix" result="effect1_dropShadow"/>
<feBlend mode="normal" in="SourceGraphic" in2="effect1_dropShadow" result="shape"/>
</filter>
</defs>
</svg>
