<svg width="287" height="361" viewBox="0 0 287 361" fill="none" xmlns="http://www.w3.org/2000/svg">
<g filter="url(#filter0_d)">
<rect width="279" height="353" rx="8" fill="#121212"/>
<rect width="279" height="353" rx="8" fill="white" fill-opacity="0.08"/>
</g>
<path d="M251.286 319.714H242.714V328.286C242.714 329.229 241.943 330 241 330C240.057 330 239.286 329.229 239.286 328.286V319.714H230.714C229.771 319.714 229 318.943 229 318C229 317.057 229.771 316.286 230.714 316.286H239.286V307.714C239.286 306.771 240.057 306 241 306C241.943 306 242.714 306.771 242.714 307.714V316.286H251.286C252.229 316.286 253 317.057 253 318C253 318.943 252.229 319.714 251.286 319.714Z" fill="#FAFAFA"/>
<path d="M38.256 221.2H41.376V235.36H50.16V238H38.256V221.2ZM53.3732 221.2H56.4932V238H53.3732V221.2ZM73.2593 229.408H76.2113V236.104C75.3473 236.792 74.3393 237.32 73.1873 237.688C72.0353 238.056 70.8513 238.24 69.6353 238.24C67.9233 238.24 66.3793 237.872 65.0033 237.136C63.6273 236.384 62.5473 235.352 61.7633 234.04C60.9793 232.728 60.5873 231.248 60.5873 229.6C60.5873 227.952 60.9793 226.472 61.7633 225.16C62.5473 223.848 63.6273 222.824 65.0033 222.088C66.3953 221.336 67.9553 220.96 69.6833 220.96C71.0913 220.96 72.3713 221.192 73.5233 221.656C74.6753 222.12 75.6433 222.8 76.4273 223.696L74.4593 225.616C73.1793 224.336 71.6353 223.696 69.8273 223.696C68.6433 223.696 67.5873 223.944 66.6593 224.44C65.7473 224.936 65.0273 225.632 64.4993 226.528C63.9873 227.424 63.7313 228.448 63.7313 229.6C63.7313 230.72 63.9873 231.728 64.4993 232.624C65.0273 233.52 65.7473 234.224 66.6593 234.736C67.5873 235.248 68.6353 235.504 69.8033 235.504C71.1153 235.504 72.2673 235.216 73.2593 234.64V229.408ZM96.0043 221.2V238H92.8843V230.8H84.1963V238H81.0763V221.2H84.1963V228.136H92.8843V221.2H96.0043ZM104.664 223.84H99.096V221.2H113.352V223.84H107.784V238H104.664V223.84ZM134.818 238L131.386 233.08C131.242 233.096 131.026 233.104 130.738 233.104H126.946V238H123.826V221.2H130.738C132.194 221.2 133.458 221.44 134.53 221.92C135.618 222.4 136.45 223.088 137.026 223.984C137.602 224.88 137.89 225.944 137.89 227.176C137.89 228.44 137.578 229.528 136.954 230.44C136.346 231.352 135.466 232.032 134.314 232.48L138.178 238H134.818ZM134.746 227.176C134.746 226.104 134.394 225.28 133.69 224.704C132.986 224.128 131.954 223.84 130.594 223.84H126.946V230.536H130.594C131.954 230.536 132.986 230.248 133.69 229.672C134.394 229.08 134.746 228.248 134.746 227.176ZM154.731 235.384V238H142.131V221.2H154.395V223.816H145.251V228.184H153.363V230.752H145.251V235.384H154.731ZM164.167 238.24C162.871 238.24 161.615 238.056 160.399 237.688C159.199 237.32 158.247 236.832 157.543 236.224L158.623 233.8C159.311 234.344 160.151 234.792 161.143 235.144C162.151 235.48 163.159 235.648 164.167 235.648C165.415 235.648 166.343 235.448 166.951 235.048C167.575 234.648 167.887 234.12 167.887 233.464C167.887 232.984 167.711 232.592 167.359 232.288C167.023 231.968 166.591 231.72 166.063 231.544C165.535 231.368 164.815 231.168 163.903 230.944C162.623 230.64 161.583 230.336 160.783 230.032C159.999 229.728 159.319 229.256 158.743 228.616C158.183 227.96 157.903 227.08 157.903 225.976C157.903 225.048 158.151 224.208 158.647 223.456C159.159 222.688 159.919 222.08 160.927 221.632C161.951 221.184 163.199 220.96 164.671 220.96C165.695 220.96 166.703 221.088 167.695 221.344C168.687 221.6 169.543 221.968 170.263 222.448L169.279 224.872C168.543 224.44 167.775 224.112 166.975 223.888C166.175 223.664 165.399 223.552 164.647 223.552C163.415 223.552 162.495 223.76 161.887 224.176C161.295 224.592 160.999 225.144 160.999 225.832C160.999 226.312 161.167 226.704 161.503 227.008C161.855 227.312 162.295 227.552 162.823 227.728C163.351 227.904 164.071 228.104 164.983 228.328C166.231 228.616 167.255 228.92 168.055 229.24C168.855 229.544 169.535 230.016 170.095 230.656C170.671 231.296 170.959 232.16 170.959 233.248C170.959 234.176 170.703 235.016 170.191 235.768C169.695 236.52 168.935 237.12 167.911 237.568C166.887 238.016 165.639 238.24 164.167 238.24ZM177.977 223.84H172.409V221.2H186.665V223.84H181.097V238H177.977V223.84ZM197.37 238.24C195.658 238.24 194.114 237.872 192.738 237.136C191.362 236.384 190.282 235.352 189.498 234.04C188.714 232.712 188.322 231.232 188.322 229.6C188.322 227.968 188.714 226.496 189.498 225.184C190.282 223.856 191.362 222.824 192.738 222.088C194.114 221.336 195.658 220.96 197.37 220.96C199.082 220.96 200.626 221.336 202.002 222.088C203.378 222.824 204.458 223.848 205.242 225.16C206.026 226.472 206.418 227.952 206.418 229.6C206.418 231.248 206.026 232.728 205.242 234.04C204.458 235.352 203.378 236.384 202.002 237.136C200.626 237.872 199.082 238.24 197.37 238.24ZM197.37 235.504C198.49 235.504 199.498 235.256 200.394 234.76C201.29 234.248 201.994 233.544 202.506 232.648C203.018 231.736 203.274 230.72 203.274 229.6C203.274 228.48 203.018 227.472 202.506 226.576C201.994 225.664 201.29 224.96 200.394 224.464C199.498 223.952 198.49 223.696 197.37 223.696C196.25 223.696 195.242 223.952 194.346 224.464C193.45 224.96 192.746 225.664 192.234 226.576C191.722 227.472 191.466 228.48 191.466 229.6C191.466 230.72 191.722 231.736 192.234 232.648C192.746 233.544 193.45 234.248 194.346 234.76C195.242 235.256 196.25 235.504 197.37 235.504ZM221.467 238L218.035 233.08C217.891 233.096 217.675 233.104 217.387 233.104H213.595V238H210.475V221.2H217.387C218.843 221.2 220.107 221.44 221.179 221.92C222.267 222.4 223.099 223.088 223.675 223.984C224.251 224.88 224.539 225.944 224.539 227.176C224.539 228.44 224.227 229.528 223.603 230.44C222.995 231.352 222.115 232.032 220.963 232.48L224.827 238H221.467ZM221.395 227.176C221.395 226.104 221.043 225.28 220.339 224.704C219.635 224.128 218.603 223.84 217.243 223.84H213.595V230.536H217.243C218.603 230.536 219.635 230.248 220.339 229.672C221.043 229.08 221.395 228.248 221.395 227.176ZM241.379 235.384V238H228.779V221.2H241.043V223.816H231.899V228.184H240.011V230.752H231.899V235.384H241.379Z" fill="white" fill-opacity="0.87"/>
<path d="M131.569 57.0683C94.9007 57.0683 65.0683 86.9007 65.0683 123.575C65.0683 160.237 94.9007 190.076 131.569 190.076C168.237 190.076 198.076 160.237 198.076 123.575C198.076 86.9007 168.237 57.0683 131.569 57.0683ZM131.569 193.144C93.2059 193.144 62 161.938 62 123.575C62 85.2059 93.2059 54 131.569 54C169.932 54 201.144 85.2059 201.144 123.575C201.144 161.938 169.932 193.144 131.569 193.144Z" fill="white"/>
<path d="M131.569 63.4634C98.429 63.4634 71.4696 90.4228 71.4696 123.569C71.4696 156.703 98.429 183.669 131.569 183.669C164.709 183.669 191.675 156.703 191.675 123.569C191.675 90.4228 164.709 63.4634 131.569 63.4634ZM131.569 185.03C97.6793 185.03 70.1024 157.453 70.1024 123.569C70.1024 89.6731 97.6793 62.1025 131.569 62.1025C165.459 62.1025 193.036 89.6731 193.036 123.569C193.036 157.453 165.459 185.03 131.569 185.03Z" fill="white"/>
<path d="M95.7959 82.0621L102.689 105.772L120.835 91.8157L97.0974 80.7389L95.7959 82.0621Z" fill="white"/>
<path d="M168.804 131.041C166.788 132.472 164.337 133.247 161.855 133.247C161.691 133.247 161.521 133.247 161.345 133.24L111.313 131.123C108.295 130.997 105.448 129.75 103.305 127.601L94.3085 118.611L94.7747 112.915L106.645 124.262C107.949 125.566 109.675 126.322 111.509 126.398L161.553 128.515C163.184 128.591 164.76 128.112 166.076 127.186L176.812 120.961L172.944 128.118L168.804 131.041ZM134.285 114.295C123.618 112.424 113.336 111.409 102.669 111.409C95.745 111.491 94.34 110.559 92.9413 117.017C92.0152 121.219 92.0152 126.833 92.9413 130.563C95.745 144.033 112.951 144.033 124.078 144.033C144.561 144.033 162.302 149.092 178.419 120.211C164.564 116.084 148.29 116.55 134.285 114.295Z" fill="white"/>
<defs>
<filter id="filter0_d" x="0" y="0" width="287" height="361" filterUnits="userSpaceOnUse" color-interpolation-filters="sRGB">
<feFlood flood-opacity="0" result="BackgroundImageFix"/>
<feColorMatrix in="SourceAlpha" type="matrix" values="0 0 0 0 0 0 0 0 0 0 0 0 0 0 0 0 0 0 127 0"/>
<feOffset dx="4" dy="4"/>
<feGaussianBlur stdDeviation="2"/>
<feColorMatrix type="matrix" values="0 0 0 0 0 0 0 0 0 0 0 0 0 0 0 0 0 0 0.25 0"/>
<feBlend mode="normal" in2="BackgroundImageFix" result="effect1_dropShadow"/>
<feBlend mode="normal" in="SourceGraphic" in2="effect1_dropShadow" result="shape"/>
</filter>
</defs>
</svg>
