<svg width="287" height="361" viewBox="0 0 287 361" fill="none" xmlns="http://www.w3.org/2000/svg">
<g filter="url(#filter0_d)">
<rect width="279" height="353" rx="8" fill="#121212"/>
<rect width="279" height="353" rx="8" fill="white" fill-opacity="0.08"/>
</g>
<path d="M251.286 319.714H242.714V328.286C242.714 329.229 241.943 330 241 330C240.057 330 239.286 329.229 239.286 328.286V319.714H230.714C229.771 319.714 229 318.943 229 318C229 317.057 229.771 316.286 230.714 316.286H239.286V307.714C239.286 306.771 240.057 306 241 306C241.943 306 242.714 306.771 242.714 307.714V316.286H251.286C252.229 316.286 253 317.057 253 318C253 318.943 252.229 319.714 251.286 319.714Z" fill="#FAFAFA"/>
<path d="M70.464 238.24C69.168 238.24 67.912 238.056 66.696 237.688C65.496 237.32 64.544 236.832 63.84 236.224L64.92 233.8C65.608 234.344 66.448 234.792 67.44 235.144C68.448 235.48 69.456 235.648 70.464 235.648C71.712 235.648 72.64 235.448 73.248 235.048C73.872 234.648 74.184 234.12 74.184 233.464C74.184 232.984 74.008 232.592 73.656 232.288C73.32 231.968 72.888 231.72 72.36 231.544C71.832 231.368 71.112 231.168 70.2 230.944C68.92 230.64 67.88 230.336 67.08 230.032C66.296 229.728 65.616 229.256 65.04 228.616C64.48 227.96 64.2 227.08 64.2 225.976C64.2 225.048 64.448 224.208 64.944 223.456C65.456 222.688 66.216 222.08 67.224 221.632C68.248 221.184 69.496 220.96 70.968 220.96C71.992 220.96 73 221.088 73.992 221.344C74.984 221.6 75.84 221.968 76.56 222.448L75.576 224.872C74.84 224.44 74.072 224.112 73.272 223.888C72.472 223.664 71.696 223.552 70.944 223.552C69.712 223.552 68.792 223.76 68.184 224.176C67.592 224.592 67.296 225.144 67.296 225.832C67.296 226.312 67.464 226.704 67.8 227.008C68.152 227.312 68.592 227.552 69.12 227.728C69.648 227.904 70.368 228.104 71.28 228.328C72.528 228.616 73.552 228.92 74.352 229.24C75.152 229.544 75.832 230.016 76.392 230.656C76.968 231.296 77.256 232.16 77.256 233.248C77.256 234.176 77 235.016 76.488 235.768C75.992 236.52 75.232 237.12 74.208 237.568C73.184 238.016 71.936 238.24 70.464 238.24ZM84.2734 223.84H78.7054V221.2H92.9614V223.84H87.3934V238H84.2734V223.84ZM108.653 235.384V238H96.0529V221.2H108.317V223.816H99.1729V228.184H107.285V230.752H99.1729V235.384H108.653ZM123.777 234.112H115.377L113.721 238H110.505L118.065 221.2H121.137L128.721 238H125.457L123.777 234.112ZM122.745 231.664L119.577 224.32L116.433 231.664H122.745ZM147.04 238L147.016 226.864L141.496 236.08H140.104L134.584 227.008V238H131.608V221.2H134.176L140.848 232.336L147.4 221.2H149.968L149.992 238H147.04ZM178.094 238L178.07 226.864L172.55 236.08H171.158L165.638 227.008V238H162.662V221.2H165.23L171.902 232.336L178.454 221.2H181.022L181.046 238H178.094ZM197.23 234.112H188.83L187.174 238H183.958L191.518 221.2H194.59L202.174 238H198.91L197.23 234.112ZM196.198 231.664L193.03 224.32L189.886 231.664H196.198ZM207.625 223.84H202.057V221.2H216.313V223.84H210.745V238H207.625V223.84Z" fill="white" fill-opacity="0.87"/>
<path d="M139.575 50.0683C102.907 50.0683 73.0683 79.8944 73.0683 116.569C73.0683 153.237 102.907 183.07 139.575 183.07C176.244 183.07 206.076 153.237 206.076 116.569C206.076 79.8944 176.244 50.0683 139.575 50.0683ZM139.575 186.144C101.212 186.144 70 154.932 70 116.569C70 78.2059 101.212 47 139.575 47C177.938 47 209.144 78.2059 209.144 116.569C209.144 154.932 177.938 186.144 139.575 186.144Z" fill="white"/>
<path d="M139.578 56.4609C106.438 56.4609 79.472 83.4204 79.472 116.56C79.472 149.707 106.438 176.666 139.578 176.666C172.718 176.666 199.677 149.707 199.677 116.56C199.677 83.4204 172.718 56.4609 139.578 56.4609ZM139.578 178.027C105.688 178.027 78.1111 150.457 78.1111 116.56C78.1111 82.6706 105.688 55.0938 139.578 55.0938C173.468 55.0938 201.044 82.6706 201.044 116.56C201.044 150.457 173.468 178.027 139.578 178.027Z" fill="white"/>
<path d="M105.385 73.6296L106.715 98.285L127.555 88.8011L106.947 72.6368L105.385 73.6296Z" fill="white"/>
<path d="M123.816 116.695L127.002 120.77L130.198 116.695L127.004 112.61L123.816 116.695Z" fill="white"/>
<path d="M143.436 133.621L140.246 129.541L137.05 133.616L140.245 137.692L143.436 133.621Z" fill="white"/>
<path d="M148.933 103.163L150.772 100.807H147.093L148.933 103.163Z" fill="white"/>
<path d="M127.009 131.2L129.666 127.799L127 124.396L124.343 127.797L127.009 131.2Z" fill="white"/>
<path d="M138.826 127.725L135.688 123.717L132.502 127.804L135.633 131.802L138.826 127.725Z" fill="white"/>
<path d="M156.68 116.695L153.484 112.612L150.297 116.697L153.485 120.771L156.68 116.695Z" fill="white"/>
<path d="M147.991 127.805L144.797 123.729L141.664 127.729L144.853 131.809L147.991 127.805Z" fill="white"/>
<path d="M153.614 100.811L150.348 104.984L153.481 108.995L159.884 100.813L153.614 100.811Z" fill="white"/>
<path d="M152.067 122.587L148.879 118.505L146.212 121.907L149.409 125.981L152.067 122.587Z" fill="white"/>
<path d="M134.218 133.62L131.088 129.614L128.425 133.022L131.556 137.028L134.218 133.62Z" fill="white"/>
<path d="M143.376 121.906L140.245 117.9L137.109 121.91L140.24 125.916L143.376 121.906Z" fill="white"/>
<path d="M128.423 110.791L131.618 114.875L134.75 110.872L131.56 106.784L128.423 110.791Z" fill="white"/>
<path d="M147.458 116.69L144.326 112.677L141.666 116.078L144.799 120.083L147.458 116.69Z" fill="white"/>
<path d="M138.83 116.083L136.169 112.678L133.037 116.692L135.691 120.088L138.83 116.083Z" fill="white"/>
<path d="M128.422 122.586L131.082 125.984L134.276 121.908L131.616 118.501L128.422 122.586Z" fill="white"/>
<path d="M132.979 104.974L136.17 109.053L138.83 105.653L135.639 101.574L132.979 104.974Z" fill="white"/>
<path d="M152.072 110.797L148.937 106.786L145.751 110.875L148.882 114.881L152.072 110.797Z" fill="white"/>
<path d="M137.58 110.878L140.241 114.276L142.898 110.884L140.238 107.477L137.58 110.878Z" fill="white"/>
<path d="M141.668 105.657L144.326 109.058L147.514 104.983L144.853 101.577L141.668 105.657Z" fill="white"/>
<path d="M162.17 123.724L158.976 127.8L167.709 138.971H164.873L157.559 129.621L154.9 133.024L159.55 138.971H156.714L153.482 134.838L150.351 138.839L150.452 138.971H150.244L149.582 139.822H168.893C170.651 139.822 172.283 139.299 173.681 138.442L162.17 123.724Z" fill="white"/>
<path d="M156.143 127.797L153.486 124.397L150.82 127.799L153.477 131.2L156.143 127.797Z" fill="white"/>
<path d="M160.753 121.909L158.096 118.508L154.902 122.587L157.565 125.984L160.753 121.909Z" fill="white"/>
<path d="M175.25 103.372C174.227 102.398 172.973 101.677 171.591 101.253L159.513 116.697L162.177 120.088L175.25 103.372Z" fill="white"/>
<path d="M149.402 129.612L146.267 133.615L148.93 137.02L152.065 133.017L149.402 129.612Z" fill="white"/>
<path d="M147.52 138.837L144.863 135.437L141.431 139.814L146.749 139.816L147.52 138.837Z" fill="white"/>
<path d="M121.506 127.8L118.318 123.724L106.341 139.034C107.469 139.532 108.71 139.815 110.027 139.815H112.112L121.506 127.8Z" fill="white"/>
<path d="M163.59 121.903L175.447 137.068C177.098 135.405 178.112 133.118 178.112 130.591V110.021C178.112 108.225 177.577 106.562 176.695 105.15L163.59 121.903Z" fill="white"/>
<path d="M104.415 137.861L116.896 121.902L102.991 104.129C101.649 105.723 100.805 107.771 100.805 110.02V130.591C100.805 133.558 102.235 136.173 104.415 137.861Z" fill="white"/>
<path d="M154.904 110.793L158.092 114.876L169.08 100.826C169.017 100.826 168.96 100.807 168.897 100.807H162.716L154.904 110.793Z" fill="white"/>
<path d="M130.139 138.838L127.005 134.834L123.104 139.817L129.369 139.817L130.139 138.838Z" fill="white"/>
<path d="M127.009 108.987L130.147 104.979L126.875 100.808L120.61 100.808L127.009 108.987Z" fill="white"/>
<path d="M122.4 114.883L125.591 110.796L117.782 100.814L111.39 100.811L122.4 114.883Z" fill="white"/>
<path d="M139.254 138.966H138.397L135.631 135.431L132.973 138.833L133.08 138.966H132.872L132.21 139.816H138.593L139.254 138.966Z" fill="white"/>
<path d="M118.323 120.093L120.979 116.7L108.662 100.943C107.168 101.166 105.801 101.736 104.631 102.588L118.323 120.093Z" fill="white"/>
<path d="M131.561 103.163L133.4 100.807H129.721L131.561 103.163Z" fill="white"/>
<path d="M142.617 100.807H137.866L140.241 103.838L142.617 100.807Z" fill="white"/>
<path d="M125.588 122.587L122.401 118.505L119.733 121.907L122.93 125.981L125.588 122.587Z" fill="white"/>
<path d="M120.264 139.82L125.582 133.022L122.926 129.616L114.945 139.82L120.264 139.82Z" fill="white"/>
<defs>
<filter id="filter0_d" x="0" y="0" width="287" height="361" filterUnits="userSpaceOnUse" color-interpolation-filters="sRGB">
<feFlood flood-opacity="0" result="BackgroundImageFix"/>
<feColorMatrix in="SourceAlpha" type="matrix" values="0 0 0 0 0 0 0 0 0 0 0 0 0 0 0 0 0 0 127 0"/>
<feOffset dx="4" dy="4"/>
<feGaussianBlur stdDeviation="2"/>
<feColorMatrix type="matrix" values="0 0 0 0 0 0 0 0 0 0 0 0 0 0 0 0 0 0 0.25 0"/>
<feBlend mode="normal" in2="BackgroundImageFix" result="effect1_dropShadow"/>
<feBlend mode="normal" in="SourceGraphic" in2="effect1_dropShadow" result="shape"/>
</filter>
</defs>
</svg>
