<svg width="208" height="208" viewBox="0 0 208 208" fill="none" xmlns="http://www.w3.org/2000/svg">
<g filter="url(#filter0_d)">
<rect width="200" height="200" rx="8" fill="#121212"/>
<rect width="200" height="200" rx="8" fill="white" fill-opacity="0.08"/>
</g>
<path d="M70.8541 142.401V143.818H64.0291V134.718H70.6721V136.135H65.7191V138.501H70.1131V139.892H65.7191V142.401H70.8541ZM81.6812 134.718L77.7162 143.818H76.0522L72.0742 134.718H73.9072L76.9362 141.738L79.9912 134.718H81.6812ZM93.8786 143.818L92.0196 141.153C91.9416 141.162 91.8246 141.166 91.6686 141.166H89.6146V143.818H87.9246V134.718H91.6686C92.4573 134.718 93.142 134.848 93.7226 135.108C94.312 135.368 94.7626 135.741 95.0746 136.226C95.3866 136.711 95.5426 137.288 95.5426 137.955C95.5426 138.64 95.3736 139.229 95.0356 139.723C94.7063 140.217 94.2296 140.585 93.6056 140.828L95.6986 143.818H93.8786ZM93.8396 137.955C93.8396 137.374 93.649 136.928 93.2676 136.616C92.8863 136.304 92.3273 136.148 91.5906 136.148H89.6146V139.775H91.5906C92.3273 139.775 92.8863 139.619 93.2676 139.307C93.649 138.986 93.8396 138.536 93.8396 137.955ZM105.008 142.401V143.818H98.1834V134.718H104.826V136.135H99.8734V138.501H104.267V139.892H99.8734V142.401H105.008ZM109.488 136.148H106.472V134.718H114.194V136.148H111.178V143.818H109.488V136.148ZM122.167 143.818L120.308 141.153C120.23 141.162 120.113 141.166 119.957 141.166H117.903V143.818H116.213V134.718H119.957C120.745 134.718 121.43 134.848 122.011 135.108C122.6 135.368 123.051 135.741 123.363 136.226C123.675 136.711 123.831 137.288 123.831 137.955C123.831 138.64 123.662 139.229 123.324 139.723C122.994 140.217 122.518 140.585 121.894 140.828L123.987 143.818H122.167ZM122.128 137.955C122.128 137.374 121.937 136.928 121.556 136.616C121.174 136.304 120.615 136.148 119.879 136.148H117.903V139.775H119.879C120.615 139.775 121.174 139.619 121.556 139.307C121.937 138.986 122.128 138.536 122.128 137.955ZM130.723 143.948C129.795 143.948 128.959 143.749 128.214 143.35C127.468 142.943 126.883 142.384 126.459 141.673C126.034 140.954 125.822 140.152 125.822 139.268C125.822 138.384 126.034 137.587 126.459 136.876C126.883 136.157 127.468 135.598 128.214 135.199C128.959 134.792 129.795 134.588 130.723 134.588C131.65 134.588 132.486 134.792 133.232 135.199C133.977 135.598 134.562 136.152 134.987 136.863C135.411 137.574 135.624 138.375 135.624 139.268C135.624 140.161 135.411 140.962 134.987 141.673C134.562 142.384 133.977 142.943 133.232 143.35C132.486 143.749 131.65 143.948 130.723 143.948ZM130.723 142.466C131.329 142.466 131.875 142.332 132.361 142.063C132.846 141.786 133.227 141.404 133.505 140.919C133.782 140.425 133.921 139.875 133.921 139.268C133.921 138.661 133.782 138.115 133.505 137.63C133.227 137.136 132.846 136.755 132.361 136.486C131.875 136.209 131.329 136.07 130.723 136.07C130.116 136.07 129.57 136.209 129.085 136.486C128.599 136.755 128.218 137.136 127.941 137.63C127.663 138.115 127.525 138.661 127.525 139.268C127.525 139.875 127.663 140.425 127.941 140.919C128.218 141.404 128.599 141.786 129.085 142.063C129.57 142.332 130.116 142.466 130.723 142.466ZM73.705 150.135V152.904H78.099V154.334H73.705V157.818H72.015V148.718H78.658V150.135H73.705ZM81.0423 148.718H82.7323V157.818H81.0423V148.718ZM87.7897 150.148H84.7737V148.718H92.4957V150.148H89.4797V157.818H87.7897V150.148ZM96.4869 150.148H93.4709V148.718H101.193V150.148H98.1769V157.818H96.4869V150.148ZM103.211 148.718H104.901V157.818H103.211V148.718ZM116.199 148.718V157.818H114.808L109.79 151.656V157.818H108.113V148.718H109.504L114.522 154.88V148.718H116.199ZM125.601 153.164H127.2V156.791C126.732 157.164 126.186 157.45 125.562 157.649C124.938 157.848 124.297 157.948 123.638 157.948C122.711 157.948 121.874 157.749 121.129 157.35C120.384 156.943 119.799 156.384 119.374 155.673C118.949 154.962 118.737 154.161 118.737 153.268C118.737 152.375 118.949 151.574 119.374 150.863C119.799 150.152 120.384 149.598 121.129 149.199C121.883 148.792 122.728 148.588 123.664 148.588C124.427 148.588 125.12 148.714 125.744 148.965C126.368 149.216 126.892 149.585 127.317 150.07L126.251 151.11C125.558 150.417 124.721 150.07 123.742 150.07C123.101 150.07 122.529 150.204 122.026 150.473C121.532 150.742 121.142 151.119 120.856 151.604C120.579 152.089 120.44 152.644 120.44 153.268C120.44 153.875 120.579 154.421 120.856 154.906C121.142 155.391 121.532 155.773 122.026 156.05C122.529 156.327 123.096 156.466 123.729 156.466C124.44 156.466 125.064 156.31 125.601 155.998V153.164Z" fill="white" fill-opacity="0.87"/>
<path d="M137.473 71.7767C137.457 71.6675 137.427 71.5766 137.38 71.4523C137.365 71.4204 137.35 71.3901 137.333 71.3431C137.303 71.2674 137.271 71.1734 137.226 71.0809C137.21 71.0339 137.18 70.9869 137.165 70.9733C137.133 70.943 137.103 70.896 137.088 70.8657C137.071 70.849 137.057 70.8187 137.041 70.7868L136.947 70.6641C136.856 70.5716 136.794 70.4943 136.762 70.4003L136.731 70.3093C136.701 70.2154 136.684 70.1229 136.684 69.985C136.684 69.9076 136.684 69.8152 136.671 69.7076C136.671 69.6606 136.654 69.6288 136.654 69.5984V69.5514C136.622 69.4287 136.609 69.3044 136.56 69.1649C136.56 69.1346 136.56 69.1043 136.546 69.0891L136.33 68.1311C136.284 68.022 136.252 67.9159 136.222 67.7916L136.161 67.5597C136.145 67.4975 136.114 67.4354 136.099 67.3899C135.975 66.9261 135.852 66.5244 135.758 66.247C135.728 66.1545 135.696 66.0772 135.681 66.0302C135.666 65.9999 135.651 65.9847 135.651 65.9847L135.634 65.9059C135.543 65.6907 135.232 65.6437 133.672 65.4436C132.329 65.2738 130.477 65.0419 129.287 64.5947C129.04 64.5022 128.701 64.3613 128.267 64.1779C125.225 62.8788 118.12 59.8366 107.757 59.5122C107.541 59.497 107.309 59.497 107.077 59.497C106.783 59.4819 106.476 59.4819 106.18 59.4819C100.035 59.45 99.6787 59.5592 98.3205 59.976C96.4364 60.5475 91.6631 62.9728 88.5117 64.578C87.293 65.1798 86.3501 65.6755 86.0273 65.7998C85.4846 66.0302 84.0946 66.2318 82.3499 66.4152L82.3029 66.8018C84.1416 66.6017 85.5786 66.4152 86.1804 66.1545C86.5047 66.015 87.4173 65.5527 88.6815 64.9191C91.6328 63.42 96.5743 60.9173 98.4433 60.3459C99.756 59.9305 100.097 59.8366 106.18 59.8684C106.476 59.8684 106.768 59.8684 107.077 59.8835C107.278 59.8684 107.509 59.8836 107.726 59.8987C118.028 60.2231 125.102 63.235 128.114 64.5326C128.544 64.7175 128.901 64.857 129.148 64.9646C130.383 65.4284 132.252 65.6603 133.627 65.8301C134.323 65.9226 135.096 66.015 135.294 66.0923C135.294 66.109 135.31 66.1378 135.31 66.1545C135.341 66.2151 135.356 66.2773 135.388 66.3713C135.481 66.6335 135.619 67.0488 135.728 67.4975C135.758 67.5445 135.775 67.6066 135.79 67.6688L135.852 67.884C135.881 68.022 135.913 68.1463 135.958 68.2539L136.161 69.0573C136.161 69.0891 136.161 69.1194 136.177 69.1967L136.19 69.274C136.237 69.3817 136.252 69.4893 136.268 69.5984C136.268 69.6454 136.268 69.6757 136.284 69.7379C136.299 69.8455 136.299 69.9228 136.299 69.985C136.299 70.1699 136.314 70.3093 136.375 70.4791C136.392 70.4943 136.392 70.5094 136.392 70.5246C136.454 70.6959 136.56 70.8035 136.654 70.9248L136.671 70.943C136.684 70.9733 136.716 71.0036 136.716 71.0036L136.762 71.0658C136.778 71.0961 136.793 71.1431 136.839 71.1901L136.871 71.2507C136.916 71.328 136.947 71.4053 136.995 71.5144L137.009 71.5766C137.057 71.6675 137.071 71.76 137.103 71.854C137.365 72.8408 137.271 75.6208 137.025 76.2392C137.009 76.2711 136.995 76.3014 136.995 76.3014C136.824 76.3484 136.639 76.4712 136.392 76.6576C136.314 76.7182 136.237 76.7789 136.114 76.8577C136.099 76.888 136.067 76.9032 136.02 76.9198C135.989 76.9502 135.975 76.9653 135.943 76.982L135.79 77.0881C135.728 77.1351 135.666 77.1654 135.604 77.2124C135.543 77.2442 135.481 77.2897 135.434 77.3215C135.31 77.3822 135.202 77.4595 135.064 77.5216L134.771 77.6914C134.476 77.846 133.998 77.9839 133.442 78.1234C133.38 78.1234 133.318 78.1401 133.257 78.1552C133.209 78.1704 133.148 78.1855 133.056 78.2022H133.01C132.962 78.2174 132.931 78.2174 132.916 78.2325C132.267 78.3705 131.603 78.4645 131.171 78.5266C131.249 78.1552 131.279 77.7535 131.279 77.3352C131.279 73.6608 128.297 70.6641 124.621 70.6641C120.961 70.6641 117.982 73.6608 117.982 77.3352C117.982 77.7535 118.013 78.1552 118.09 78.5705H86.0879C86.1637 78.1082 86.2107 77.7217 86.2107 77.3352C86.2107 74.4945 84.4205 72.0541 81.9012 71.0961L81.8557 71.4977C84.1719 72.4103 85.8257 74.6946 85.8257 77.3352C85.8257 77.7535 85.7772 78.2022 85.6544 78.7267L85.6089 78.9571H118.567L118.522 78.7267C118.414 78.2613 118.367 77.799 118.367 77.3352C118.367 73.8761 121.179 71.0491 124.621 71.0491C128.084 71.0491 130.892 73.8761 130.892 77.3352C130.892 77.8308 130.847 78.2795 130.724 78.6948L130.707 78.9419H130.955C131.373 78.8949 132.191 78.7888 133.024 78.6024C133.04 78.5872 133.055 78.5872 133.072 78.5872C133.102 78.5872 133.148 78.5705 133.148 78.5705C133.209 78.5569 133.272 78.5402 133.348 78.5266C133.397 78.5266 133.442 78.5099 133.519 78.4948C134.106 78.3553 134.63 78.2022 134.94 78.0309L135.249 77.8611C135.388 77.799 135.511 77.7217 135.651 77.6459C135.696 77.5989 135.758 77.5686 135.82 77.5368C135.881 77.4898 135.943 77.4443 136.037 77.3822L136.237 77.2442C136.284 77.2124 136.345 77.1821 136.362 77.1502C136.454 77.0881 136.546 77.0259 136.622 76.9653C136.824 76.8259 137.009 76.6879 137.071 76.6879L137.18 76.6727L137.242 76.6106C137.288 76.5636 137.333 76.4711 137.38 76.4105C137.658 75.6996 137.751 72.8408 137.473 71.7767ZM78.1344 71.2204L78.0253 70.849C75.0907 71.5447 72.9124 74.1853 72.9124 77.3352C72.9124 77.7535 72.9443 78.1552 73.0201 78.5705H70.0869C69.2517 78.5705 69.2517 78.5706 68.3574 78.5099L67.46 78.4645C67.0599 78.4478 66.7355 78.3553 66.5172 78.2174C66.4414 78.1401 66.3944 78.0931 66.3656 78.0461L66.3338 77.9991C66.3186 77.9551 66.3035 77.9233 66.2868 77.893C66.2565 77.7369 66.2716 77.5838 66.3035 77.4292C66.3186 77.3973 66.3338 77.367 66.3338 77.3352C66.3489 77.3048 66.3489 77.2897 66.3489 77.2745C66.3489 77.2594 66.3656 77.2442 66.3656 77.2442L66.3808 77.1821C66.4262 77.1032 66.4566 77.0578 66.4566 77.0578L66.5036 77.0259V76.9653C66.5172 76.935 66.549 76.888 66.5657 76.8258C66.5793 76.8107 66.5793 76.7971 66.596 76.7652C66.6112 76.7349 66.6278 76.6879 66.6278 76.6879C66.6733 76.5955 66.7036 76.5166 66.7355 76.3923C66.7506 76.3014 66.7658 76.2089 66.7658 76.1468C66.7658 75.6374 66.7658 75.1888 66.7961 74.7568L66.781 73.9852C66.8128 73.8761 66.8128 73.7518 66.8128 73.6608V73.4895C66.8279 73.4456 66.8279 73.3834 66.8279 73.3213C66.8279 73.2425 66.8279 73.15 66.8431 73.0272C66.8431 72.9499 66.8431 72.8726 66.8583 72.7635C66.8583 72.7347 66.8582 72.6877 66.8734 72.6558V72.533C66.8901 72.3936 66.9037 72.2693 66.9204 72.1465C67.075 70.9869 67.3691 70.5868 67.9557 69.7849C68.08 69.6136 68.2179 69.4287 68.3574 69.227C68.9895 68.3312 73.0989 67.7598 76.9915 67.3444L76.8808 66.973C72.7275 67.405 68.7742 67.9765 68.0482 68.9951C67.8936 69.2119 67.7708 69.3983 67.6465 69.5514C67.0447 70.3867 66.7036 70.849 66.549 72.0844C66.5339 72.2238 66.5035 72.3481 66.4884 72.5027V72.6104C66.4717 72.6725 66.4717 72.718 66.4717 72.7347C66.4566 72.8256 66.4566 72.9347 66.4566 72.9969C66.4414 73.1197 66.4414 73.2273 66.4414 73.3213C66.4414 73.3668 66.4414 73.4137 66.4262 73.4592V73.6608C66.4262 73.7366 66.4262 73.8306 66.4111 73.9549V74.7568C66.3808 75.1736 66.3808 75.6374 66.3808 76.1468C66.3808 76.1937 66.3808 76.2544 66.3656 76.3317C66.3489 76.3923 66.3186 76.4408 66.2716 76.5333C66.2716 76.5636 66.2565 76.5788 66.2413 76.6106C66.2246 76.6409 66.2095 76.6728 66.1792 76.7485L66.1473 76.8107C66.1337 76.8258 66.117 76.8577 66.117 76.8728C66.1019 76.9032 66.0715 76.9501 66.0412 77.0123C66.0245 77.0259 66.0245 77.0578 65.9942 77.1351L65.9321 77.3049C65.9002 77.5065 65.8548 77.7369 65.9169 77.9839C65.9321 78.0612 65.9791 78.1234 65.9942 78.1855L66.0245 78.2325C66.0852 78.3235 66.1625 78.4175 66.2868 78.5099C66.5657 78.7267 66.9522 78.8343 67.4464 78.851L68.3271 78.8949C69.2517 78.9571 69.2517 78.9571 70.0869 78.9571H73.499L73.4536 78.7267C73.3459 78.2613 73.2989 77.799 73.2989 77.3352C73.2989 74.3702 75.3544 71.8691 78.1344 71.2204ZM108.422 65.9529C108.422 64.4083 108.313 62.7106 108.051 60.64H108.56C108.715 60.6566 108.837 60.6566 108.946 60.6566C110.289 60.6566 113.254 60.9659 115.31 61.551C117.224 62.0921 120.993 64.3173 121.519 64.9509C120.623 65.0889 115.079 65.5527 108.422 65.9529ZM115.417 61.1811C113.332 60.5793 110.321 60.2701 108.946 60.2701C108.837 60.2701 108.715 60.2701 108.56 60.2549H107.619L107.649 60.4702C107.926 62.7106 108.051 64.5174 108.035 66.1545V66.3713L108.236 66.3546C114.676 65.9681 121.379 65.4436 121.751 65.289C121.873 65.242 121.951 65.1495 121.951 65.0116C121.935 64.2688 117.164 61.6752 115.417 61.1811ZM108.422 65.9529C108.422 64.4083 108.313 62.7106 108.051 60.64H108.56C108.715 60.6566 108.837 60.6566 108.946 60.6566C110.289 60.6566 113.254 60.9659 115.31 61.551C117.224 62.0921 120.993 64.3173 121.519 64.9509C120.623 65.0889 115.079 65.5527 108.422 65.9529ZM115.417 61.1811C113.332 60.5793 110.321 60.2701 108.946 60.2701C108.837 60.2701 108.715 60.2701 108.56 60.2549H107.619L107.649 60.4702C107.926 62.7106 108.051 64.5174 108.035 66.1545V66.3713L108.236 66.3546C114.676 65.9681 121.379 65.4436 121.751 65.289C121.873 65.242 121.951 65.1495 121.951 65.0116C121.935 64.2688 117.164 61.6752 115.417 61.1811ZM108.422 65.9529C108.422 64.4083 108.313 62.7106 108.051 60.64H108.56C108.715 60.6566 108.837 60.6566 108.946 60.6566C110.289 60.6566 113.254 60.9659 115.31 61.551C117.224 62.0921 120.993 64.3173 121.519 64.9509C120.623 65.0889 115.079 65.5527 108.422 65.9529ZM115.417 61.1811C113.332 60.5793 110.321 60.2701 108.946 60.2701C108.837 60.2701 108.715 60.2701 108.56 60.2549H107.619L107.649 60.4702C107.926 62.7106 108.051 64.5174 108.035 66.1545V66.3713L108.236 66.3546C114.676 65.9681 121.379 65.4436 121.751 65.289C121.873 65.242 121.951 65.1495 121.951 65.0116C121.935 64.2688 117.164 61.6752 115.417 61.1811ZM108.422 65.9529C108.422 64.4083 108.313 62.7106 108.051 60.64H108.56C108.715 60.6566 108.837 60.6566 108.946 60.6566C110.289 60.6566 113.254 60.9659 115.31 61.551C117.224 62.0921 120.993 64.3173 121.519 64.9509C120.623 65.0889 115.079 65.5527 108.422 65.9529ZM115.417 61.1811C113.332 60.5793 110.321 60.2701 108.946 60.2701C108.837 60.2701 108.715 60.2701 108.56 60.2549H107.619L107.649 60.4702C107.926 62.7106 108.051 64.5174 108.035 66.1545V66.3713L108.236 66.3546C114.676 65.9681 121.379 65.4436 121.751 65.289C121.873 65.242 121.951 65.1495 121.951 65.0116C121.935 64.2688 117.164 61.6752 115.417 61.1811ZM108.422 65.9529C108.422 64.4083 108.313 62.7106 108.051 60.64H108.56C108.715 60.6566 108.837 60.6566 108.946 60.6566C110.289 60.6566 113.254 60.9659 115.31 61.551C117.224 62.0921 120.993 64.3173 121.519 64.9509C120.623 65.0889 115.079 65.5527 108.422 65.9529ZM115.417 61.1811C113.332 60.5793 110.321 60.2701 108.946 60.2701C108.837 60.2701 108.715 60.2701 108.56 60.2549H107.619L107.649 60.4702C107.926 62.7106 108.051 64.5174 108.035 66.1545V66.3713L108.236 66.3546C114.676 65.9681 121.379 65.4436 121.751 65.289C121.873 65.242 121.951 65.1495 121.951 65.0116C121.935 64.2688 117.164 61.6752 115.417 61.1811Z" fill="white"/>
<path d="M106.514 60.6243C106.684 60.6394 106.839 60.6394 106.992 60.6394V60.6243H106.514ZM98.8384 66.4768C100.181 66.4314 101.649 66.3692 103.224 66.2767C101.788 66.3389 100.306 66.4162 98.8384 66.4768Z" fill="white"/>
<path d="M105.542 66.1442C105.249 66.1594 104.925 66.1761 104.617 66.1912C104.136 66.2216 103.659 66.2534 103.194 66.2685C101.619 66.361 100.151 66.4216 98.8083 66.4686C98.4991 66.4838 98.205 66.4838 97.8973 66.5005C97.5108 66.5156 97.1394 66.5308 96.7862 66.5459C96.3057 66.5626 95.8434 66.5778 95.3796 66.5914C94.9324 66.5914 94.4837 66.6081 94.0669 66.6081C93.4954 66.6232 92.9406 66.6232 92.4298 66.6232H92.3206C92.307 66.6081 92.2903 66.5914 92.2751 66.5778H92.3691C92.5374 66.5778 92.8466 66.5005 92.9088 65.929C92.9406 65.6668 93.0164 65.018 93.0164 64.492C93.0164 64.0903 92.6617 63.8902 92.2751 63.8599L93.4332 63.3021C93.65 63.1945 93.8652 63.0868 94.082 62.9929C94.4064 62.8549 94.7156 62.7155 95.0249 62.5775C95.2719 62.4532 95.519 62.3456 95.7661 62.2531C97.0333 61.6968 98.1444 61.2497 98.8553 61.0011C98.9326 60.9707 99.0084 60.9389 99.0857 60.9238C99.21 60.8768 99.3192 60.8465 99.4101 60.8161C99.4723 60.801 99.5177 60.7858 99.5496 60.7858C99.6572 60.7707 99.7967 60.754 99.9513 60.7237C100.307 60.6918 100.755 60.6615 101.232 60.6464C102.005 60.6161 102.963 60.5994 104.106 60.5994C104.925 60.5994 105.76 60.616 106.484 60.616H106.962V60.6297C107.226 62.6548 107.335 64.4299 107.335 66.0366C106.716 66.0669 106.13 66.1139 105.542 66.1442ZM91.9508 66.0366C91.7204 65.929 91.5339 65.8669 91.3945 65.9593C91.2717 66.0366 91.255 66.1442 91.2717 66.2064C91.2717 66.361 91.4112 66.4838 91.6112 66.6081C91.302 66.6081 91.0095 66.6081 90.7457 66.5914C89.7422 66.5778 89.0177 66.5156 88.5826 66.4383C88.6145 66.3928 88.6615 66.361 88.6933 66.3307C89.3254 65.8047 89.9726 65.2484 90.8079 64.7709C91.0246 64.6466 91.2095 64.5526 91.3793 64.4617C91.6264 64.3525 91.8432 64.2752 92.1827 64.2464C92.1827 64.2464 92.6299 64.2464 92.6299 64.492C92.6299 65.0013 92.5541 65.6349 92.5222 65.882C92.4919 66.1912 92.3995 66.1912 92.3691 66.1912C92.2449 66.1912 92.0736 66.1139 91.9508 66.0366ZM107.69 64.6148C107.69 64.2752 107.658 63.9357 107.644 63.5658C107.582 62.5927 107.473 61.5422 107.335 60.4144L107.303 60.2432H107.133C106.253 60.2295 105.187 60.2144 104.106 60.2144C101.758 60.2144 100.245 60.275 99.4874 60.3993C99.2252 60.4463 98.4233 60.7388 97.341 61.1724C97.0015 61.3103 96.6149 61.4649 96.2133 61.6347C93.0937 62.9625 88.8161 65.0013 87.8581 66.1291C87.7641 66.2534 87.7641 66.361 87.7808 66.4216C87.7959 66.5156 87.8581 66.5778 87.9354 66.6232C87.9975 66.6687 88.0597 66.7006 88.09 66.7006C88.1203 66.7157 88.1658 66.7309 88.2128 66.746C88.6311 66.8703 89.433 66.9476 90.7305 66.978C91.1641 66.9946 91.6264 67.0098 92.1357 67.0098H92.4298C96.5998 67.0098 102.948 66.6839 107.533 66.4065L107.72 66.3928V66.2064C107.72 65.6971 107.72 65.1711 107.69 64.6148Z" fill="white"/>
<path d="M66.904 71.9569L67.048 71.9614C67.3602 71.972 67.6755 71.9811 67.9878 71.9811C68.6047 71.9811 69.0883 71.9402 69.5112 71.8523C70.5389 71.6082 70.8906 70.8079 71.1604 69.8362C70.404 69.7877 69.6537 69.7802 69.0731 69.7802C68.7214 69.7802 68.3713 69.7832 68.0211 69.7862H67.9256L67.8892 69.8378C67.3526 70.576 67.0646 70.9701 66.904 71.9569ZM67.9878 72.3677C67.671 72.3677 67.3526 72.3586 67.0358 72.348L66.4598 72.3313L66.4901 72.1176C66.6584 70.8761 67.0025 70.3986 67.577 69.6104L67.7286 69.4012L68.0181 69.3997C68.3698 69.3982 68.7199 69.3951 69.0731 69.3951C69.7204 69.3951 70.5753 69.4027 71.4211 69.4664L71.653 69.4846L71.5939 69.7074C71.2938 70.8579 70.9133 71.9159 69.5945 72.2297C69.1413 72.3237 68.632 72.3677 67.9878 72.3677Z" fill="white"/>
<path d="M78.7839 76.173L76.4677 75.4167C76.9906 74.5511 77.841 73.9493 78.7839 73.7492V76.173ZM78.9385 73.3309C77.7182 73.5022 76.6208 74.2889 76.0038 75.4318L75.8947 75.6334L77.9032 76.2807L78.6277 76.5278L79.1689 76.6975V73.3006L78.9385 73.3309ZM80.4043 76.173V73.7492C81.3623 73.9645 82.1959 74.5663 82.7068 75.4167L80.4043 76.173ZM83.1706 75.4318C82.5825 74.3207 81.485 73.531 80.2512 73.3309L80.0177 73.2839V76.6975L83.2783 75.6334L83.1706 75.4318ZM79.5857 76.7293C79.2613 76.7293 79.0143 76.9916 79.0143 77.316C79.0143 77.61 79.2765 77.8723 79.5857 77.8723C79.895 77.8723 80.1572 77.61 80.1572 77.316C80.1572 76.9916 79.9101 76.7293 79.5857 76.7293ZM76.8375 79.6943C76.2494 79.0303 75.925 78.1966 75.925 77.316C75.925 77.1917 75.9417 77.0689 75.9569 76.9613L77.5318 77.4691L78.2897 77.7176L76.8375 79.6943ZM75.6492 76.452L75.6006 76.6672C75.5703 76.8673 75.5385 77.084 75.5385 77.316C75.5385 78.3831 75.9569 79.3851 76.7299 80.143L76.883 80.2961L78.1199 78.5832L78.5656 77.9799L78.89 77.5009L75.6492 76.452ZM82.3521 79.6943L80.9302 77.7631L80.8999 77.7176L83.2161 76.9764C83.2313 77.084 83.2313 77.1917 83.2313 77.316C83.2313 78.2118 82.9372 79.0303 82.3521 79.6943ZM83.5708 76.6823L83.5253 76.4671L80.2966 77.5009L82.3036 80.2961L82.4749 80.143C83.2161 79.3699 83.6163 78.3664 83.6163 77.316C83.6163 77.1007 83.6026 76.8824 83.5708 76.6823ZM78.1502 80.6674L79.5857 78.6741L81.0242 80.6523C80.0799 81.0676 79.0309 81.054 78.1502 80.6674ZM80.374 79.0758L79.5857 78.0117L77.5621 80.8069L77.7637 80.9145C78.3352 81.2086 78.9385 81.348 79.5857 81.348C80.2042 81.348 80.8226 81.1919 81.4093 80.9145L81.6093 80.8069L80.374 79.0758ZM82.3521 79.6943L80.9302 77.7631L80.8999 77.7176L83.2161 76.9764C83.2313 77.084 83.2313 77.1917 83.2313 77.316C83.2313 78.2118 82.9372 79.0303 82.3521 79.6943ZM83.5708 76.6823L83.5253 76.4671L80.2966 77.5009L82.3036 80.2961L82.4749 80.143C83.2161 79.3699 83.6163 78.3664 83.6163 77.316C83.6163 77.1007 83.6026 76.8824 83.5708 76.6823ZM80.4043 76.173V73.7492C81.3623 73.9645 82.1959 74.5663 82.7068 75.4167L80.4043 76.173ZM83.1706 75.4318C82.5825 74.3207 81.485 73.531 80.2512 73.3309L80.0177 73.2839V76.6975L83.2783 75.6334L83.1706 75.4318ZM78.1502 80.6674L79.5857 78.6741L81.0242 80.6523C80.0799 81.0676 79.0309 81.054 78.1502 80.6674ZM80.374 79.0758L79.5857 78.0117L77.5621 80.8069L77.7637 80.9145C78.3352 81.2086 78.9385 81.348 79.5857 81.348C80.2042 81.348 80.8226 81.1919 81.4093 80.9145L81.6093 80.8069L80.374 79.0758ZM79.5857 76.7293C79.2613 76.7293 79.0143 76.9916 79.0143 77.316C79.0143 77.61 79.2765 77.8723 79.5857 77.8723C79.895 77.8723 80.1572 77.61 80.1572 77.316C80.1572 76.9916 79.9101 76.7293 79.5857 76.7293ZM78.7839 76.173L76.4677 75.4167C76.9906 74.5511 77.841 73.9493 78.7839 73.7492V76.173ZM78.9385 73.3309C77.7182 73.5022 76.6208 74.2889 76.0038 75.4318L75.8947 75.6334L77.9032 76.2807L78.6277 76.5278L79.1689 76.6975V73.3006L78.9385 73.3309ZM76.8375 79.6943C76.2494 79.0303 75.925 78.1966 75.925 77.316C75.925 77.1917 75.9417 77.0689 75.9569 76.9613L77.5318 77.4691L78.2897 77.7176L76.8375 79.6943ZM75.6492 76.452L75.6006 76.6672C75.5703 76.8673 75.5385 77.084 75.5385 77.316C75.5385 78.3831 75.9569 79.3851 76.7299 80.143L76.883 80.2961L78.1199 78.5832L78.5656 77.9799L78.89 77.5009L75.6492 76.452ZM76.8375 79.6943C76.2494 79.0303 75.925 78.1966 75.925 77.316C75.925 77.1917 75.9417 77.0689 75.9569 76.9613L77.5318 77.4691L78.2897 77.7176L76.8375 79.6943ZM75.6492 76.452L75.6006 76.6672C75.5703 76.8673 75.5385 77.084 75.5385 77.316C75.5385 78.3831 75.9569 79.3851 76.7299 80.143L76.883 80.2961L78.1199 78.5832L78.5656 77.9799L78.89 77.5009L75.6492 76.452ZM78.7839 76.173L76.4677 75.4167C76.9906 74.5511 77.841 73.9493 78.7839 73.7492V76.173ZM78.9385 73.3309C77.7182 73.5022 76.6208 74.2889 76.0038 75.4318L75.8947 75.6334L77.9032 76.2807L78.6277 76.5278L79.1689 76.6975V73.3006L78.9385 73.3309ZM79.5857 76.7293C79.2613 76.7293 79.0143 76.9916 79.0143 77.316C79.0143 77.61 79.2765 77.8723 79.5857 77.8723C79.895 77.8723 80.1572 77.61 80.1572 77.316C80.1572 76.9916 79.9101 76.7293 79.5857 76.7293ZM78.1502 80.6674L79.5857 78.6741L81.0242 80.6523C80.0799 81.0676 79.0309 81.054 78.1502 80.6674ZM80.374 79.0758L79.5857 78.0117L77.5621 80.8069L77.7637 80.9145C78.3352 81.2086 78.9385 81.348 79.5857 81.348C80.2042 81.348 80.8226 81.1919 81.4093 80.9145L81.6093 80.8069L80.374 79.0758ZM80.4043 76.173V73.7492C81.3623 73.9645 82.1959 74.5663 82.7068 75.4167L80.4043 76.173ZM83.1706 75.4318C82.5825 74.3207 81.485 73.531 80.2512 73.3309L80.0177 73.2839V76.6975L83.2783 75.6334L83.1706 75.4318ZM82.3521 79.6943L80.9302 77.7631L80.8999 77.7176L83.2161 76.9764C83.2313 77.084 83.2313 77.1917 83.2313 77.316C83.2313 78.2118 82.9372 79.0303 82.3521 79.6943ZM83.5708 76.6823L83.5253 76.4671L80.2966 77.5009L82.3036 80.2961L82.4749 80.143C83.2161 79.3699 83.6163 78.3664 83.6163 77.316C83.6163 77.1007 83.6026 76.8824 83.5708 76.6823ZM82.3521 79.6943L80.9302 77.7631L80.8999 77.7176L83.2161 76.9764C83.2313 77.084 83.2313 77.1917 83.2313 77.316C83.2313 78.2118 82.9372 79.0303 82.3521 79.6943ZM83.5708 76.6823L83.5253 76.4671L80.2966 77.5009L82.3036 80.2961L82.4749 80.143C83.2161 79.3699 83.6163 78.3664 83.6163 77.316C83.6163 77.1007 83.6026 76.8824 83.5708 76.6823ZM80.4043 76.173V73.7492C81.3623 73.9645 82.1959 74.5663 82.7068 75.4167L80.4043 76.173ZM83.1706 75.4318C82.5825 74.3207 81.485 73.531 80.2512 73.3309L80.0177 73.2839V76.6975L83.2783 75.6334L83.1706 75.4318ZM78.1502 80.6674L79.5857 78.6741L81.0242 80.6523C80.0799 81.0676 79.0309 81.054 78.1502 80.6674ZM80.374 79.0758L79.5857 78.0117L77.5621 80.8069L77.7637 80.9145C78.3352 81.2086 78.9385 81.348 79.5857 81.348C80.2042 81.348 80.8226 81.1919 81.4093 80.9145L81.6093 80.8069L80.374 79.0758ZM79.5857 76.7293C79.2613 76.7293 79.0143 76.9916 79.0143 77.316C79.0143 77.61 79.2765 77.8723 79.5857 77.8723C79.895 77.8723 80.1572 77.61 80.1572 77.316C80.1572 76.9916 79.9101 76.7293 79.5857 76.7293ZM78.7839 76.173L76.4677 75.4167C76.9906 74.5511 77.841 73.9493 78.7839 73.7492V76.173ZM78.9385 73.3309C77.7182 73.5022 76.6208 74.2889 76.0038 75.4318L75.8947 75.6334L77.9032 76.2807L78.6277 76.5278L79.1689 76.6975V73.3006L78.9385 73.3309ZM76.8375 79.6943C76.2494 79.0303 75.925 78.1966 75.925 77.316C75.925 77.1917 75.9417 77.0689 75.9569 76.9613L77.5318 77.4691L78.2897 77.7176L76.8375 79.6943ZM75.6492 76.452L75.6006 76.6672C75.5703 76.8673 75.5385 77.084 75.5385 77.316C75.5385 78.3831 75.9569 79.3851 76.7299 80.143L76.883 80.2961L78.1199 78.5832L78.5656 77.9799L78.89 77.5009L75.6492 76.452ZM76.8375 79.6943C76.2494 79.0303 75.925 78.1966 75.925 77.316C75.925 77.1917 75.9417 77.0689 75.9569 76.9613L77.5318 77.4691L78.2897 77.7176L76.8375 79.6943ZM75.6492 76.452L75.6006 76.6672C75.5703 76.8673 75.5385 77.084 75.5385 77.316C75.5385 78.3831 75.9569 79.3851 76.7299 80.143L76.883 80.2961L78.1199 78.5832L78.5656 77.9799L78.89 77.5009L75.6492 76.452ZM78.7839 76.173L76.4677 75.4167C76.9906 74.5511 77.841 73.9493 78.7839 73.7492V76.173ZM78.9385 73.3309C77.7182 73.5022 76.6208 74.2889 76.0038 75.4318L75.8947 75.6334L77.9032 76.2807L78.6277 76.5278L79.1689 76.6975V73.3006L78.9385 73.3309ZM79.5857 76.7293C79.2613 76.7293 79.0143 76.9916 79.0143 77.316C79.0143 77.61 79.2765 77.8723 79.5857 77.8723C79.895 77.8723 80.1572 77.61 80.1572 77.316C80.1572 76.9916 79.9101 76.7293 79.5857 76.7293ZM78.1502 80.6674L79.5857 78.6741L81.0242 80.6523C80.0799 81.0676 79.0309 81.054 78.1502 80.6674ZM80.374 79.0758L79.5857 78.0117L77.5621 80.8069L77.7637 80.9145C78.3352 81.2086 78.9385 81.348 79.5857 81.348C80.2042 81.348 80.8226 81.1919 81.4093 80.9145L81.6093 80.8069L80.374 79.0758ZM80.4043 76.173V73.7492C81.3623 73.9645 82.1959 74.5663 82.7068 75.4167L80.4043 76.173ZM83.1706 75.4318C82.5825 74.3207 81.485 73.531 80.2512 73.3309L80.0177 73.2839V76.6975L83.2783 75.6334L83.1706 75.4318ZM82.3521 79.6943L80.9302 77.7631L80.8999 77.7176L83.2161 76.9764C83.2313 77.084 83.2313 77.1917 83.2313 77.316C83.2313 78.2118 82.9372 79.0303 82.3521 79.6943ZM83.5708 76.6823L83.5253 76.4671L80.2966 77.5009L82.3036 80.2961L82.4749 80.143C83.2161 79.3699 83.6163 78.3664 83.6163 77.316C83.6163 77.1007 83.6026 76.8824 83.5708 76.6823ZM82.3521 79.6943L80.9302 77.7631L80.8999 77.7176L83.2161 76.9764C83.2313 77.084 83.2313 77.1917 83.2313 77.316C83.2313 78.2118 82.9372 79.0303 82.3521 79.6943ZM83.5708 76.6823L83.5253 76.4671L80.2966 77.5009L82.3036 80.2961L82.4749 80.143C83.2161 79.3699 83.6163 78.3664 83.6163 77.316C83.6163 77.1007 83.6026 76.8824 83.5708 76.6823ZM80.4043 76.173V73.7492C81.3623 73.9645 82.1959 74.5663 82.7068 75.4167L80.4043 76.173ZM83.1706 75.4318C82.5825 74.3207 81.485 73.531 80.2512 73.3309L80.0177 73.2839V76.6975L83.2783 75.6334L83.1706 75.4318ZM78.1502 80.6674L79.5857 78.6741L81.0242 80.6523C80.0799 81.0676 79.0309 81.054 78.1502 80.6674ZM80.374 79.0758L79.5857 78.0117L77.5621 80.8069L77.7637 80.9145C78.3352 81.2086 78.9385 81.348 79.5857 81.348C80.2042 81.348 80.8226 81.1919 81.4093 80.9145L81.6093 80.8069L80.374 79.0758ZM79.5857 76.7293C79.2613 76.7293 79.0143 76.9916 79.0143 77.316C79.0143 77.61 79.2765 77.8723 79.5857 77.8723C79.895 77.8723 80.1572 77.61 80.1572 77.316C80.1572 76.9916 79.9101 76.7293 79.5857 76.7293ZM78.7839 76.173L76.4677 75.4167C76.9906 74.5511 77.841 73.9493 78.7839 73.7492V76.173ZM78.9385 73.3309C77.7182 73.5022 76.6208 74.2889 76.0038 75.4318L75.8947 75.6334L77.9032 76.2807L78.6277 76.5278L79.1689 76.6975V73.3006L78.9385 73.3309ZM76.8375 79.6943C76.2494 79.0303 75.925 78.1966 75.925 77.316C75.925 77.1917 75.9417 77.0689 75.9569 76.9613L77.5318 77.4691L78.2897 77.7176L76.8375 79.6943ZM75.6492 76.452L75.6006 76.6672C75.5703 76.8673 75.5385 77.084 75.5385 77.316C75.5385 78.3831 75.9569 79.3851 76.7299 80.143L76.883 80.2961L78.1199 78.5832L78.5656 77.9799L78.89 77.5009L75.6492 76.452ZM76.8375 79.6943C76.2494 79.0303 75.925 78.1966 75.925 77.316C75.925 77.1917 75.9417 77.0689 75.9569 76.9613L77.5318 77.4691L78.2897 77.7176L76.8375 79.6943ZM75.6492 76.452L75.6006 76.6672C75.5703 76.8673 75.5385 77.084 75.5385 77.316C75.5385 78.3831 75.9569 79.3851 76.7299 80.143L76.883 80.2961L78.1199 78.5832L78.5656 77.9799L78.89 77.5009L75.6492 76.452ZM78.7839 76.173L76.4677 75.4167C76.9906 74.5511 77.841 73.9493 78.7839 73.7492V76.173ZM78.9385 73.3309C77.7182 73.5022 76.6208 74.2889 76.0038 75.4318L75.8947 75.6334L77.9032 76.2807L78.6277 76.5278L79.1689 76.6975V73.3006L78.9385 73.3309ZM79.5857 76.7293C79.2613 76.7293 79.0143 76.9916 79.0143 77.316C79.0143 77.61 79.2765 77.8723 79.5857 77.8723C79.895 77.8723 80.1572 77.61 80.1572 77.316C80.1572 76.9916 79.9101 76.7293 79.5857 76.7293ZM78.1502 80.6674L79.5857 78.6741L81.0242 80.6523C80.0799 81.0676 79.0309 81.054 78.1502 80.6674ZM80.374 79.0758L79.5857 78.0117L77.5621 80.8069L77.7637 80.9145C78.3352 81.2086 78.9385 81.348 79.5857 81.348C80.2042 81.348 80.8226 81.1919 81.4093 80.9145L81.6093 80.8069L80.374 79.0758ZM80.4043 76.173V73.7492C81.3623 73.9645 82.1959 74.5663 82.7068 75.4167L80.4043 76.173ZM83.1706 75.4318C82.5825 74.3207 81.485 73.531 80.2512 73.3309L80.0177 73.2839V76.6975L83.2783 75.6334L83.1706 75.4318ZM82.3521 79.6943L80.9302 77.7631L80.8999 77.7176L83.2161 76.9764C83.2313 77.084 83.2313 77.1917 83.2313 77.316C83.2313 78.2118 82.9372 79.0303 82.3521 79.6943ZM83.5708 76.6823L83.5253 76.4671L80.2966 77.5009L82.3036 80.2961L82.4749 80.143C83.2161 79.3699 83.6163 78.3664 83.6163 77.316C83.6163 77.1007 83.6026 76.8824 83.5708 76.6823ZM82.3521 79.6943L80.9302 77.7631L80.8999 77.7176L83.2161 76.9764C83.2313 77.084 83.2313 77.1917 83.2313 77.316C83.2313 78.2118 82.9372 79.0303 82.3521 79.6943ZM83.5708 76.6823L83.5253 76.4671L80.2966 77.5009L82.3036 80.2961L82.4749 80.143C83.2161 79.3699 83.6163 78.3664 83.6163 77.316C83.6163 77.1007 83.6026 76.8824 83.5708 76.6823ZM80.4043 76.173V73.7492C81.3623 73.9645 82.1959 74.5663 82.7068 75.4167L80.4043 76.173ZM83.1706 75.4318C82.5825 74.3207 81.485 73.531 80.2512 73.3309L80.0177 73.2839V76.6975L83.2783 75.6334L83.1706 75.4318ZM78.1502 80.6674L79.5857 78.6741L81.0242 80.6523C80.0799 81.0676 79.0309 81.054 78.1502 80.6674ZM80.374 79.0758L79.5857 78.0117L77.5621 80.8069L77.7637 80.9145C78.3352 81.2086 78.9385 81.348 79.5857 81.348C80.2042 81.348 80.8226 81.1919 81.4093 80.9145L81.6093 80.8069L80.374 79.0758ZM79.5857 76.7293C79.2613 76.7293 79.0143 76.9916 79.0143 77.316C79.0143 77.61 79.2765 77.8723 79.5857 77.8723C79.895 77.8723 80.1572 77.61 80.1572 77.316C80.1572 76.9916 79.9101 76.7293 79.5857 76.7293ZM78.7839 76.173L76.4677 75.4167C76.9906 74.5511 77.841 73.9493 78.7839 73.7492V76.173ZM78.9385 73.3309C77.7182 73.5022 76.6208 74.2889 76.0038 75.4318L75.8947 75.6334L77.9032 76.2807L78.6277 76.5278L79.1689 76.6975V73.3006L78.9385 73.3309ZM76.8375 79.6943C76.2494 79.0303 75.925 78.1966 75.925 77.316C75.925 77.1917 75.9417 77.0689 75.9569 76.9613L77.5318 77.4691L78.2897 77.7176L76.8375 79.6943ZM75.6492 76.452L75.6006 76.6672C75.5703 76.8673 75.5385 77.084 75.5385 77.316C75.5385 78.3831 75.9569 79.3851 76.7299 80.143L76.883 80.2961L78.1199 78.5832L78.5656 77.9799L78.89 77.5009L75.6492 76.452ZM76.8375 79.6943C76.2494 79.0303 75.925 78.1966 75.925 77.316C75.925 77.1917 75.9417 77.0689 75.9569 76.9613L77.5318 77.4691L78.2897 77.7176L76.8375 79.6943ZM75.6492 76.452L75.6006 76.6672C75.5703 76.8673 75.5385 77.084 75.5385 77.316C75.5385 78.3831 75.9569 79.3851 76.7299 80.143L76.883 80.2961L78.1199 78.5832L78.5656 77.9799L78.89 77.5009L75.6492 76.452ZM78.7839 76.173L76.4677 75.4167C76.9906 74.5511 77.841 73.9493 78.7839 73.7492V76.173ZM78.9385 73.3309C77.7182 73.5022 76.6208 74.2889 76.0038 75.4318L75.8947 75.6334L77.9032 76.2807L78.6277 76.5278L79.1689 76.6975V73.3006L78.9385 73.3309ZM79.5857 76.7293C79.2613 76.7293 79.0143 76.9916 79.0143 77.316C79.0143 77.61 79.2765 77.8723 79.5857 77.8723C79.895 77.8723 80.1572 77.61 80.1572 77.316C80.1572 76.9916 79.9101 76.7293 79.5857 76.7293ZM78.1502 80.6674L79.5857 78.6741L81.0242 80.6523C80.0799 81.0676 79.0309 81.054 78.1502 80.6674ZM80.374 79.0758L79.5857 78.0117L77.5621 80.8069L77.7637 80.9145C78.3352 81.2086 78.9385 81.348 79.5857 81.348C80.2042 81.348 80.8226 81.1919 81.4093 80.9145L81.6093 80.8069L80.374 79.0758ZM80.4043 76.173V73.7492C81.3623 73.9645 82.1959 74.5663 82.7068 75.4167L80.4043 76.173ZM83.1706 75.4318C82.5825 74.3207 81.485 73.531 80.2512 73.3309L80.0177 73.2839V76.6975L83.2783 75.6334L83.1706 75.4318ZM82.3521 79.6943L80.9302 77.7631L80.8999 77.7176L83.2161 76.9764C83.2313 77.084 83.2313 77.1917 83.2313 77.316C83.2313 78.2118 82.9372 79.0303 82.3521 79.6943ZM83.5708 76.6823L83.5253 76.4671L80.2966 77.5009L82.3036 80.2961L82.4749 80.143C83.2161 79.3699 83.6163 78.3664 83.6163 77.316C83.6163 77.1007 83.6026 76.8824 83.5708 76.6823ZM82.3521 79.6943L80.9302 77.7631L80.8999 77.7176L83.2161 76.9764C83.2313 77.084 83.2313 77.1917 83.2313 77.316C83.2313 78.2118 82.9372 79.0303 82.3521 79.6943ZM83.5708 76.6823L83.5253 76.4671L80.2966 77.5009L82.3036 80.2961L82.4749 80.143C83.2161 79.3699 83.6163 78.3664 83.6163 77.316C83.6163 77.1007 83.6026 76.8824 83.5708 76.6823ZM80.4043 76.173V73.7492C81.3623 73.9645 82.1959 74.5663 82.7068 75.4167L80.4043 76.173ZM83.1706 75.4318C82.5825 74.3207 81.485 73.531 80.2512 73.3309L80.0177 73.2839V76.6975L83.2783 75.6334L83.1706 75.4318ZM78.1502 80.6674L79.5857 78.6741L81.0242 80.6523C80.0799 81.0676 79.0309 81.054 78.1502 80.6674ZM80.374 79.0758L79.5857 78.0117L77.5621 80.8069L77.7637 80.9145C78.3352 81.2086 78.9385 81.348 79.5857 81.348C80.2042 81.348 80.8226 81.1919 81.4093 80.9145L81.6093 80.8069L80.374 79.0758ZM79.5857 76.7293C79.2613 76.7293 79.0143 76.9916 79.0143 77.316C79.0143 77.61 79.2765 77.8723 79.5857 77.8723C79.895 77.8723 80.1572 77.61 80.1572 77.316C80.1572 76.9916 79.9101 76.7293 79.5857 76.7293ZM78.7839 76.173L76.4677 75.4167C76.9906 74.5511 77.841 73.9493 78.7839 73.7492V76.173ZM78.9385 73.3309C77.7182 73.5022 76.6208 74.2889 76.0038 75.4318L75.8947 75.6334L77.9032 76.2807L78.6277 76.5278L79.1689 76.6975V73.3006L78.9385 73.3309ZM76.8375 79.6943C76.2494 79.0303 75.925 78.1966 75.925 77.316C75.925 77.1917 75.9417 77.0689 75.9569 76.9613L77.5318 77.4691L78.2897 77.7176L76.8375 79.6943ZM75.6492 76.452L75.6006 76.6672C75.5703 76.8673 75.5385 77.084 75.5385 77.316C75.5385 78.3831 75.9569 79.3851 76.7299 80.143L76.883 80.2961L78.1199 78.5832L78.5656 77.9799L78.89 77.5009L75.6492 76.452ZM76.8375 79.6943C76.2494 79.0303 75.925 78.1966 75.925 77.316C75.925 77.1917 75.9417 77.0689 75.9569 76.9613L77.5318 77.4691L78.2897 77.7176L76.8375 79.6943ZM75.6492 76.452L75.6006 76.6672C75.5703 76.8673 75.5385 77.084 75.5385 77.316C75.5385 78.3831 75.9569 79.3851 76.7299 80.143L76.883 80.2961L78.1199 78.5832L78.5656 77.9799L78.89 77.5009L75.6492 76.452ZM78.7839 76.173L76.4677 75.4167C76.9906 74.5511 77.841 73.9493 78.7839 73.7492V76.173ZM78.9385 73.3309C77.7182 73.5022 76.6208 74.2889 76.0038 75.4318L75.8947 75.6334L77.9032 76.2807L78.6277 76.5278L79.1689 76.6975V73.3006L78.9385 73.3309ZM79.5857 76.7293C79.2613 76.7293 79.0143 76.9916 79.0143 77.316C79.0143 77.61 79.2765 77.8723 79.5857 77.8723C79.895 77.8723 80.1572 77.61 80.1572 77.316C80.1572 76.9916 79.9101 76.7293 79.5857 76.7293ZM78.1502 80.6674L79.5857 78.6741L81.0242 80.6523C80.0799 81.0676 79.0309 81.054 78.1502 80.6674ZM80.374 79.0758L79.5857 78.0117L77.5621 80.8069L77.7637 80.9145C78.3352 81.2086 78.9385 81.348 79.5857 81.348C80.2042 81.348 80.8226 81.1919 81.4093 80.9145L81.6093 80.8069L80.374 79.0758ZM80.4043 76.173V73.7492C81.3623 73.9645 82.1959 74.5663 82.7068 75.4167L80.4043 76.173ZM83.1706 75.4318C82.5825 74.3207 81.485 73.531 80.2512 73.3309L80.0177 73.2839V76.6975L83.2783 75.6334L83.1706 75.4318ZM82.3521 79.6943L80.9302 77.7631L80.8999 77.7176L83.2161 76.9764C83.2313 77.084 83.2313 77.1917 83.2313 77.316C83.2313 78.2118 82.9372 79.0303 82.3521 79.6943ZM83.5708 76.6823L83.5253 76.4671L80.2966 77.5009L82.3036 80.2961L82.4749 80.143C83.2161 79.3699 83.6163 78.3664 83.6163 77.316C83.6163 77.1007 83.6026 76.8824 83.5708 76.6823ZM82.3521 79.6943L80.9302 77.7631L80.8999 77.7176L83.2161 76.9764C83.2313 77.084 83.2313 77.1917 83.2313 77.316C83.2313 78.2118 82.9372 79.0303 82.3521 79.6943ZM83.5708 76.6823L83.5253 76.4671L80.2966 77.5009L82.3036 80.2961L82.4749 80.143C83.2161 79.3699 83.6163 78.3664 83.6163 77.316C83.6163 77.1007 83.6026 76.8824 83.5708 76.6823ZM80.4043 76.173V73.7492C81.3623 73.9645 82.1959 74.5663 82.7068 75.4167L80.4043 76.173ZM83.1706 75.4318C82.5825 74.3207 81.485 73.531 80.2512 73.3309L80.0177 73.2839V76.6975L83.2783 75.6334L83.1706 75.4318ZM78.1502 80.6674L79.5857 78.6741L81.0242 80.6523C80.0799 81.0676 79.0309 81.054 78.1502 80.6674ZM80.374 79.0758L79.5857 78.0117L77.5621 80.8069L77.7637 80.9145C78.3352 81.2086 78.9385 81.348 79.5857 81.348C80.2042 81.348 80.8226 81.1919 81.4093 80.9145L81.6093 80.8069L80.374 79.0758ZM79.5857 76.7293C79.2613 76.7293 79.0143 76.9916 79.0143 77.316C79.0143 77.61 79.2765 77.8723 79.5857 77.8723C79.895 77.8723 80.1572 77.61 80.1572 77.316C80.1572 76.9916 79.9101 76.7293 79.5857 76.7293ZM78.7839 76.173L76.4677 75.4167C76.9906 74.5511 77.841 73.9493 78.7839 73.7492V76.173ZM78.9385 73.3309C77.7182 73.5022 76.6208 74.2889 76.0038 75.4318L75.8947 75.6334L77.9032 76.2807L78.6277 76.5278L79.1689 76.6975V73.3006L78.9385 73.3309ZM76.8375 79.6943C76.2494 79.0303 75.925 78.1966 75.925 77.316C75.925 77.1917 75.9417 77.0689 75.9569 76.9613L77.5318 77.4691L78.2897 77.7176L76.8375 79.6943ZM75.6492 76.452L75.6006 76.6672C75.5703 76.8673 75.5385 77.084 75.5385 77.316C75.5385 78.3831 75.9569 79.3851 76.7299 80.143L76.883 80.2961L78.1199 78.5832L78.5656 77.9799L78.89 77.5009L75.6492 76.452ZM76.8375 79.6943C76.2494 79.0303 75.925 78.1966 75.925 77.316C75.925 77.1917 75.9417 77.0689 75.9569 76.9613L77.5318 77.4691L78.2897 77.7176L76.8375 79.6943ZM75.6492 76.452L75.6006 76.6672C75.5703 76.8673 75.5385 77.084 75.5385 77.316C75.5385 78.3831 75.9569 79.3851 76.7299 80.143L76.883 80.2961L78.1199 78.5832L78.5656 77.9799L78.89 77.5009L75.6492 76.452ZM78.7839 76.173L76.4677 75.4167C76.9906 74.5511 77.841 73.9493 78.7839 73.7492V76.173ZM78.9385 73.3309C77.7182 73.5022 76.6208 74.2889 76.0038 75.4318L75.8947 75.6334L77.9032 76.2807L78.6277 76.5278L79.1689 76.6975V73.3006L78.9385 73.3309ZM79.5857 76.7293C79.2613 76.7293 79.0143 76.9916 79.0143 77.316C79.0143 77.61 79.2765 77.8723 79.5857 77.8723C79.895 77.8723 80.1572 77.61 80.1572 77.316C80.1572 76.9916 79.9101 76.7293 79.5857 76.7293ZM78.1502 80.6674L79.5857 78.6741L81.0242 80.6523C80.0799 81.0676 79.0309 81.054 78.1502 80.6674ZM80.374 79.0758L79.5857 78.0117L77.5621 80.8069L77.7637 80.9145C78.3352 81.2086 78.9385 81.348 79.5857 81.348C80.2042 81.348 80.8226 81.1919 81.4093 80.9145L81.6093 80.8069L80.374 79.0758ZM80.4043 76.173V73.7492C81.3623 73.9645 82.1959 74.5663 82.7068 75.4167L80.4043 76.173ZM83.1706 75.4318C82.5825 74.3207 81.485 73.531 80.2512 73.3309L80.0177 73.2839V76.6975L83.2783 75.6334L83.1706 75.4318ZM82.3521 79.6943L80.9302 77.7631L80.8999 77.7176L83.2161 76.9764C83.2313 77.084 83.2313 77.1917 83.2313 77.316C83.2313 78.2118 82.9372 79.0303 82.3521 79.6943ZM83.5708 76.6823L83.5253 76.4671L80.2966 77.5009L82.3036 80.2961L82.4749 80.143C83.2161 79.3699 83.6163 78.3664 83.6163 77.316C83.6163 77.1007 83.6026 76.8824 83.5708 76.6823ZM76.8375 79.6943C76.2494 79.0303 75.925 78.1966 75.925 77.316C75.925 77.1917 75.9417 77.0689 75.9569 76.9613L77.5318 77.4691L78.2897 77.7176L76.8375 79.6943ZM75.6492 76.452L75.6006 76.6672C75.5703 76.8673 75.5385 77.084 75.5385 77.316C75.5385 78.3831 75.9569 79.3851 76.7299 80.143L76.883 80.2961L78.1199 78.5832L78.5656 77.9799L78.89 77.5009L75.6492 76.452ZM78.7839 76.173L76.4677 75.4167C76.9906 74.5511 77.841 73.9493 78.7839 73.7492V76.173ZM78.9385 73.3309C77.7182 73.5022 76.6208 74.2889 76.0038 75.4318L75.8947 75.6334L77.9032 76.2807L78.6277 76.5278L79.1689 76.6975V73.3006L78.9385 73.3309ZM79.5857 76.7293C79.2613 76.7293 79.0143 76.9916 79.0143 77.316C79.0143 77.61 79.2765 77.8723 79.5857 77.8723C79.895 77.8723 80.1572 77.61 80.1572 77.316C80.1572 76.9916 79.9101 76.7293 79.5857 76.7293ZM78.1502 80.6674L79.5857 78.6741L81.0242 80.6523C80.0799 81.0676 79.0309 81.054 78.1502 80.6674ZM80.374 79.0758L79.5857 78.0117L77.5621 80.8069L77.7637 80.9145C78.3352 81.2086 78.9385 81.348 79.5857 81.348C80.2042 81.348 80.8226 81.1919 81.4093 80.9145L81.6093 80.8069L80.374 79.0758ZM80.4043 76.173V73.7492C81.3623 73.9645 82.1959 74.5663 82.7068 75.4167L80.4043 76.173ZM83.1706 75.4318C82.5825 74.3207 81.485 73.531 80.2512 73.3309L80.0177 73.2839V76.6975L83.2783 75.6334L83.1706 75.4318ZM82.3521 79.6943L80.9302 77.7631L80.8999 77.7176L83.2161 76.9764C83.2313 77.084 83.2313 77.1917 83.2313 77.316C83.2313 78.2118 82.9372 79.0303 82.3521 79.6943ZM83.5708 76.6823L83.5253 76.4671L80.2966 77.5009L82.3036 80.2961L82.4749 80.143C83.2161 79.3699 83.6163 78.3664 83.6163 77.316C83.6163 77.1007 83.6026 76.8824 83.5708 76.6823ZM76.8375 79.6943C76.2494 79.0303 75.925 78.1966 75.925 77.316C75.925 77.1917 75.9417 77.0689 75.9569 76.9613L77.5318 77.4691L78.2897 77.7176L76.8375 79.6943ZM75.6492 76.452L75.6006 76.6672C75.5703 76.8673 75.5385 77.084 75.5385 77.316C75.5385 78.3831 75.9569 79.3851 76.7299 80.143L76.883 80.2961L78.1199 78.5832L78.5656 77.9799L78.89 77.5009L75.6492 76.452ZM78.7839 76.173L76.4677 75.4167C76.9906 74.5511 77.841 73.9493 78.7839 73.7492V76.173ZM78.9385 73.3309C77.7182 73.5022 76.6208 74.2889 76.0038 75.4318L75.8947 75.6334L77.9032 76.2807L78.6277 76.5278L79.1689 76.6975V73.3006L78.9385 73.3309ZM79.5857 76.7293C79.2613 76.7293 79.0143 76.9916 79.0143 77.316C79.0143 77.61 79.2765 77.8723 79.5857 77.8723C79.895 77.8723 80.1572 77.61 80.1572 77.316C80.1572 76.9916 79.9101 76.7293 79.5857 76.7293ZM78.1502 80.6674L79.5857 78.6741L81.0242 80.6523C80.0799 81.0676 79.0309 81.054 78.1502 80.6674ZM80.374 79.0758L79.5857 78.0117L77.5621 80.8069L77.7637 80.9145C78.3352 81.2086 78.9385 81.348 79.5857 81.348C80.2042 81.348 80.8226 81.1919 81.4093 80.9145L81.6093 80.8069L80.374 79.0758ZM80.4043 76.173V73.7492C81.3623 73.9645 82.1959 74.5663 82.7068 75.4167L80.4043 76.173ZM83.1706 75.4318C82.5825 74.3207 81.485 73.531 80.2512 73.3309L80.0177 73.2839V76.6975L83.2783 75.6334L83.1706 75.4318ZM82.3521 79.6943L80.9302 77.7631L80.8999 77.7176L83.2161 76.9764C83.2313 77.084 83.2313 77.1917 83.2313 77.316C83.2313 78.2118 82.9372 79.0303 82.3521 79.6943ZM83.5708 76.6823L83.5253 76.4671L80.2966 77.5009L82.3036 80.2961L82.4749 80.143C83.2161 79.3699 83.6163 78.3664 83.6163 77.316C83.6163 77.1007 83.6026 76.8824 83.5708 76.6823ZM76.8375 79.6943C76.2494 79.0303 75.925 78.1966 75.925 77.316C75.925 77.1917 75.9417 77.0689 75.9569 76.9613L77.5318 77.4691L78.2897 77.7176L76.8375 79.6943ZM78.89 77.5009L75.6492 76.452L75.6006 76.6672C75.5703 76.8673 75.5385 77.084 75.5385 77.316C75.5385 78.3831 75.9569 79.3851 76.7299 80.143L76.883 80.2961L78.1199 78.5832L78.5656 77.9799L78.89 77.5009ZM78.7839 73.7492V76.173L76.4677 75.4167C76.9906 74.5511 77.841 73.9493 78.7839 73.7492ZM76.0038 75.4318L75.8947 75.6334L77.9032 76.2807L78.6277 76.5278L79.1689 76.6975V73.3006L78.9385 73.3309C77.7182 73.5022 76.6208 74.2889 76.0038 75.4318ZM79.5857 77.8723C79.895 77.8723 80.1572 77.61 80.1572 77.316C80.1572 76.9916 79.9101 76.7293 79.5857 76.7293C79.2613 76.7293 79.0143 76.9916 79.0143 77.316C79.0143 77.61 79.2765 77.8723 79.5857 77.8723ZM79.5857 78.6741L81.0242 80.6523C80.0799 81.0676 79.0309 81.054 78.1502 80.6674L79.5857 78.6741ZM79.5857 81.348C80.2042 81.348 80.8226 81.1919 81.4093 80.9145L81.6093 80.8069L80.374 79.0758L79.5857 78.0117L77.5621 80.8069L77.7637 80.9145C78.3352 81.2086 78.9385 81.348 79.5857 81.348ZM80.4043 76.173V73.7492C81.3623 73.9645 82.1959 74.5663 82.7068 75.4167L80.4043 76.173ZM83.1706 75.4318C82.5825 74.3207 81.485 73.531 80.2512 73.3309L80.0177 73.2839V76.6975L83.2783 75.6334L83.1706 75.4318ZM80.8999 77.7176L83.2161 76.9764C83.2313 77.084 83.2313 77.1917 83.2313 77.316C83.2313 78.2118 82.9372 79.0303 82.3521 79.6943L80.9302 77.7631L80.8999 77.7176ZM82.4749 80.143C83.2161 79.3699 83.6163 78.3664 83.6163 77.316C83.6163 77.1007 83.6026 76.8824 83.5708 76.6823L83.5253 76.4671L80.2966 77.5009L82.3036 80.2961L82.4749 80.143ZM81.7943 72.3426L81.7488 72.7594C83.448 73.5628 84.6364 75.2923 84.6364 77.316C84.6364 80.0808 82.3657 82.3515 79.5857 82.3515C76.8057 82.3515 74.5517 80.0808 74.5517 77.316C74.5517 74.8907 76.2494 72.8686 78.505 72.3896L78.3973 72.0182C75.9735 72.5593 74.1652 74.7209 74.1652 77.316C74.1652 80.2961 76.5905 82.7365 79.5857 82.7365C82.5825 82.7365 85.0229 80.2961 85.0229 77.316C85.0229 75.0923 83.6951 73.193 81.7943 72.3426ZM82.3521 79.6943L80.9302 77.7631L80.8999 77.7176L83.2161 76.9764C83.2313 77.084 83.2313 77.1917 83.2313 77.316C83.2313 78.2118 82.9372 79.0303 82.3521 79.6943ZM83.5708 76.6823L83.5253 76.4671L80.2966 77.5009L82.3036 80.2961L82.4749 80.143C83.2161 79.3699 83.6163 78.3664 83.6163 77.316C83.6163 77.1007 83.6026 76.8824 83.5708 76.6823ZM80.4043 76.173V73.7492C81.3623 73.9645 82.1959 74.5663 82.7068 75.4167L80.4043 76.173ZM83.1706 75.4318C82.5825 74.3207 81.485 73.531 80.2512 73.3309L80.0177 73.2839V76.6975L83.2783 75.6334L83.1706 75.4318ZM78.1502 80.6674L79.5857 78.6741L81.0242 80.6523C80.0799 81.0676 79.0309 81.054 78.1502 80.6674ZM80.374 79.0758L79.5857 78.0117L77.5621 80.8069L77.7637 80.9145C78.3352 81.2086 78.9385 81.348 79.5857 81.348C80.2042 81.348 80.8226 81.1919 81.4093 80.9145L81.6093 80.8069L80.374 79.0758ZM79.5857 76.7293C79.2613 76.7293 79.0143 76.9916 79.0143 77.316C79.0143 77.61 79.2765 77.8723 79.5857 77.8723C79.895 77.8723 80.1572 77.61 80.1572 77.316C80.1572 76.9916 79.9101 76.7293 79.5857 76.7293ZM78.7839 76.173L76.4677 75.4167C76.9906 74.5511 77.841 73.9493 78.7839 73.7492V76.173ZM78.9385 73.3309C77.7182 73.5022 76.6208 74.2889 76.0038 75.4318L75.8947 75.6334L77.9032 76.2807L78.6277 76.5278L79.1689 76.6975V73.3006L78.9385 73.3309ZM76.8375 79.6943C76.2494 79.0303 75.925 78.1966 75.925 77.316C75.925 77.1917 75.9417 77.0689 75.9569 76.9613L77.5318 77.4691L78.2897 77.7176L76.8375 79.6943ZM75.6492 76.452L75.6006 76.6672C75.5703 76.8673 75.5385 77.084 75.5385 77.316C75.5385 78.3831 75.9569 79.3851 76.7299 80.143L76.883 80.2961L78.1199 78.5832L78.5656 77.9799L78.89 77.5009L75.6492 76.452ZM82.3521 79.6943L80.9302 77.7631L80.8999 77.7176L83.2161 76.9764C83.2313 77.084 83.2313 77.1917 83.2313 77.316C83.2313 78.2118 82.9372 79.0303 82.3521 79.6943ZM83.5708 76.6823L83.5253 76.4671L80.2966 77.5009L82.3036 80.2961L82.4749 80.143C83.2161 79.3699 83.6163 78.3664 83.6163 77.316C83.6163 77.1007 83.6026 76.8824 83.5708 76.6823ZM80.4043 76.173V73.7492C81.3623 73.9645 82.1959 74.5663 82.7068 75.4167L80.4043 76.173ZM83.1706 75.4318C82.5825 74.3207 81.485 73.531 80.2512 73.3309L80.0177 73.2839V76.6975L83.2783 75.6334L83.1706 75.4318ZM78.1502 80.6674L79.5857 78.6741L81.0242 80.6523C80.0799 81.0676 79.0309 81.054 78.1502 80.6674ZM80.374 79.0758L79.5857 78.0117L77.5621 80.8069L77.7637 80.9145C78.3352 81.2086 78.9385 81.348 79.5857 81.348C80.2042 81.348 80.8226 81.1919 81.4093 80.9145L81.6093 80.8069L80.374 79.0758ZM79.5857 76.7293C79.2613 76.7293 79.0143 76.9916 79.0143 77.316C79.0143 77.61 79.2765 77.8723 79.5857 77.8723C79.895 77.8723 80.1572 77.61 80.1572 77.316C80.1572 76.9916 79.9101 76.7293 79.5857 76.7293ZM78.7839 76.173L76.4677 75.4167C76.9906 74.5511 77.841 73.9493 78.7839 73.7492V76.173ZM78.9385 73.3309C77.7182 73.5022 76.6208 74.2889 76.0038 75.4318L75.8947 75.6334L77.9032 76.2807L78.6277 76.5278L79.1689 76.6975V73.3006L78.9385 73.3309ZM76.8375 79.6943C76.2494 79.0303 75.925 78.1966 75.925 77.316C75.925 77.1917 75.9417 77.0689 75.9569 76.9613L77.5318 77.4691L78.2897 77.7176L76.8375 79.6943ZM75.6492 76.452L75.6006 76.6672C75.5703 76.8673 75.5385 77.084 75.5385 77.316C75.5385 78.3831 75.9569 79.3851 76.7299 80.143L76.883 80.2961L78.1199 78.5832L78.5656 77.9799L78.89 77.5009L75.6492 76.452ZM82.3521 79.6943L80.9302 77.7631L80.8999 77.7176L83.2161 76.9764C83.2313 77.084 83.2313 77.1917 83.2313 77.316C83.2313 78.2118 82.9372 79.0303 82.3521 79.6943ZM83.5708 76.6823L83.5253 76.4671L80.2966 77.5009L82.3036 80.2961L82.4749 80.143C83.2161 79.3699 83.6163 78.3664 83.6163 77.316C83.6163 77.1007 83.6026 76.8824 83.5708 76.6823ZM80.4043 76.173V73.7492C81.3623 73.9645 82.1959 74.5663 82.7068 75.4167L80.4043 76.173ZM83.1706 75.4318C82.5825 74.3207 81.485 73.531 80.2512 73.3309L80.0177 73.2839V76.6975L83.2783 75.6334L83.1706 75.4318ZM78.1502 80.6674L79.5857 78.6741L81.0242 80.6523C80.0799 81.0676 79.0309 81.054 78.1502 80.6674ZM80.374 79.0758L79.5857 78.0117L77.5621 80.8069L77.7637 80.9145C78.3352 81.2086 78.9385 81.348 79.5857 81.348C80.2042 81.348 80.8226 81.1919 81.4093 80.9145L81.6093 80.8069L80.374 79.0758ZM79.5857 76.7293C79.2613 76.7293 79.0143 76.9916 79.0143 77.316C79.0143 77.61 79.2765 77.8723 79.5857 77.8723C79.895 77.8723 80.1572 77.61 80.1572 77.316C80.1572 76.9916 79.9101 76.7293 79.5857 76.7293ZM78.7839 76.173L76.4677 75.4167C76.9906 74.5511 77.841 73.9493 78.7839 73.7492V76.173ZM78.9385 73.3309C77.7182 73.5022 76.6208 74.2889 76.0038 75.4318L75.8947 75.6334L77.9032 76.2807L78.6277 76.5278L79.1689 76.6975V73.3006L78.9385 73.3309ZM76.8375 79.6943C76.2494 79.0303 75.925 78.1966 75.925 77.316C75.925 77.1917 75.9417 77.0689 75.9569 76.9613L77.5318 77.4691L78.2897 77.7176L76.8375 79.6943ZM75.6492 76.452L75.6006 76.6672C75.5703 76.8673 75.5385 77.084 75.5385 77.316C75.5385 78.3831 75.9569 79.3851 76.7299 80.143L76.883 80.2961L78.1199 78.5832L78.5656 77.9799L78.89 77.5009L75.6492 76.452Z" fill="white"/>
<path d="M75.9633 76.954C75.9512 77.0677 75.9451 77.1859 75.9451 77.3102C75.9451 78.197 76.265 79.0368 76.8501 79.6992L78.2976 77.7135L77.5473 77.477L75.9633 76.954ZM76.894 80.2994L76.7349 80.1403C75.977 79.3809 75.5586 78.3759 75.5586 77.3102C75.5586 77.0798 75.5783 76.8615 75.6147 76.663L75.6541 76.4447L78.904 77.4997L78.5856 77.9772L78.1264 78.582L76.894 80.2994Z" fill="white"/>
<path d="M76.4534 75.4518L78.7696 76.2158V73.7845C77.8313 73.9876 76.99 74.5939 76.4534 75.4518ZM79.1561 76.7312L78.6134 76.5705L77.8873 76.3219L75.8865 75.6732L75.9971 75.47C76.6156 74.3286 77.7145 73.5389 78.9363 73.3615L79.1561 73.3297V76.7312Z" fill="white"/>
<path d="M78.1064 80.6517C78.9917 81.0413 80.033 81.0549 80.9819 80.6487L79.5464 78.6599L78.1064 80.6517ZM79.5434 81.3384C78.9022 81.3384 78.2898 81.1898 77.7244 80.8973L77.5259 80.7942L79.5419 78.0021L80.3301 79.0722L81.564 80.7972L81.3609 80.8973C80.7879 81.1868 80.1588 81.3384 79.5434 81.3384Z" fill="white"/>
<path d="M80.3701 73.7905V76.2143L82.6727 75.4549C82.1603 74.6121 81.3236 74.0073 80.3701 73.7905ZM79.9851 76.7388V73.3297L80.2095 73.3661C81.4479 73.5662 82.5393 74.3544 83.1274 75.4761L83.235 75.6792L79.9851 76.7388Z" fill="white"/>
<path d="M80.9208 77.6952L80.9527 77.7438L82.3654 79.6794C82.949 79.0079 83.2567 78.1879 83.2567 77.2905C83.2567 77.1753 83.2491 77.0632 83.237 76.9525L80.9208 77.6952ZM82.326 80.2827L80.313 77.4815L83.5462 76.4447L83.5871 76.6615C83.6235 76.8707 83.6417 77.0753 83.6417 77.2905C83.6417 78.3516 83.2309 79.3551 82.4852 80.1175L82.326 80.2827Z" fill="white"/>
<path d="M75.9633 76.954C75.9512 77.0677 75.9451 77.1859 75.9451 77.3102C75.9451 78.197 76.265 79.0368 76.8501 79.6992L78.2976 77.7135L77.5473 77.477L75.9633 76.954ZM76.894 80.2994L76.7349 80.1403C75.977 79.3809 75.5586 78.3759 75.5586 77.3102C75.5586 77.0798 75.5783 76.8615 75.6147 76.663L75.6541 76.4447L78.904 77.4997L78.5856 77.9772L78.1264 78.582L76.894 80.2994Z" fill="white"/>
<path d="M76.4534 75.4518L78.7696 76.2158V73.7845C77.8313 73.9876 76.99 74.5939 76.4534 75.4518ZM79.1561 76.7312L78.6134 76.5705L77.8873 76.3219L75.8865 75.6732L75.9971 75.47C76.6156 74.3286 77.7145 73.5389 78.9363 73.3615L79.1561 73.3297V76.7312Z" fill="white"/>
<path d="M78.1064 80.6517C78.9917 81.0413 80.033 81.0549 80.9819 80.6487L79.5464 78.6599L78.1064 80.6517ZM79.5434 81.3384C78.9022 81.3384 78.2898 81.1898 77.7244 80.8973L77.5259 80.7942L79.5419 78.0021L80.3301 79.0722L81.564 80.7972L81.3609 80.8973C80.7879 81.1868 80.1588 81.3384 79.5434 81.3384Z" fill="white"/>
<path d="M80.3701 73.7905V76.2143L82.6727 75.4549C82.1603 74.6121 81.3236 74.0073 80.3701 73.7905ZM79.9851 76.7388V73.3297L80.2095 73.3661C81.4479 73.5662 82.5393 74.3544 83.1274 75.4761L83.235 75.6792L79.9851 76.7388Z" fill="white"/>
<path d="M80.9208 77.6952L80.9527 77.7438L82.3654 79.6794C82.949 79.0079 83.2567 78.1879 83.2567 77.2905C83.2567 77.1753 83.2491 77.0632 83.237 76.9525L80.9208 77.6952ZM82.326 80.2827L80.313 77.4815L83.5462 76.4447L83.5871 76.6615C83.6235 76.8707 83.6417 77.0753 83.6417 77.2905C83.6417 78.3516 83.2309 79.3551 82.4852 80.1175L82.326 80.2827Z" fill="white"/>
<path d="M121.467 75.3967L123.783 76.1607V73.7293C122.842 73.9324 122 74.5387 121.467 75.3967ZM124.168 76.6761L123.625 76.5154L122.899 76.2668L120.898 75.618L121.009 75.4149C121.627 74.2735 122.726 73.4868 123.948 73.3064L124.168 73.2746V76.6761ZM125.412 73.7323V76.1546L127.712 75.3967C127.2 74.5539 126.363 73.9491 125.412 73.7323ZM125.026 76.6806V73.2715L125.249 73.3079C126.489 73.5065 127.579 74.2962 128.168 75.4179L128.274 75.6195L125.026 76.6806ZM124.588 77.8523C124.276 77.8523 124.01 77.5961 124.01 77.2915C124.01 76.9731 124.269 76.7139 124.588 76.7139C124.908 76.7139 125.165 76.9731 125.165 77.2915C125.165 77.5961 124.902 77.8523 124.588 77.8523ZM120.953 76.9352C120.941 77.0489 120.935 77.1672 120.935 77.2915C120.935 78.1782 121.255 79.018 121.84 79.6804L123.287 77.6962L122.537 77.4582L120.953 76.9352ZM121.884 80.2807L121.724 80.1215C120.967 79.3621 120.55 78.3586 120.55 77.2915C120.55 77.0626 120.568 76.8443 120.604 76.6442L120.644 76.4259L123.895 77.4809L123.578 77.9584L123.116 78.5632L121.884 80.2807ZM125.907 77.6962L125.937 77.7432L127.351 79.6789C127.935 79.0074 128.242 78.1873 128.242 77.2915C128.242 77.1747 128.235 77.0641 128.223 76.9519L125.907 77.6962ZM127.31 80.2822L125.297 77.4809L128.532 76.4456L128.571 76.6624C128.609 76.8701 128.627 77.0762 128.627 77.2915C128.627 78.3525 128.217 79.3545 127.471 80.1185L127.31 80.2822ZM123.149 80.6445C124.033 81.034 125.077 81.0477 126.026 80.6414L124.591 78.6512L123.149 80.6445ZM124.588 81.3311C123.947 81.3311 123.333 81.1826 122.767 80.89L122.57 80.7869L124.586 77.9948L125.373 79.065L126.608 80.79L126.405 80.89C125.831 81.178 125.202 81.3311 124.588 81.3311ZM124.588 72.2393C121.812 72.2393 119.554 74.5054 119.554 77.2915C119.554 80.0684 121.812 82.3255 124.588 82.3255C127.372 82.3255 129.64 80.0684 129.64 77.2915C129.64 74.5054 127.372 72.2393 124.588 72.2393ZM124.588 82.712C121.599 82.712 119.167 80.2807 119.167 77.2915C119.167 74.2932 121.599 71.8542 124.588 71.8542C127.586 71.8542 130.025 74.2932 130.025 77.2915C130.025 80.2807 127.586 82.712 124.588 82.712Z" fill="white"/>
<path d="M120.966 76.954C120.953 77.0677 120.947 77.1859 120.947 77.3102C120.947 78.197 121.267 79.0368 121.852 79.6992L123.3 77.7135L122.55 77.477L120.966 76.954ZM121.896 80.2994L121.737 80.1403C120.979 79.3809 120.561 78.3759 120.561 77.3102C120.561 77.0798 120.581 76.8615 120.617 76.663L120.656 76.4447L123.906 77.4997L123.589 77.9772L123.129 78.582L121.896 80.2994Z" fill="white"/>
<path d="M121.457 75.4518L123.773 76.2158V73.7845C122.832 73.9876 121.991 74.5939 121.457 75.4518ZM124.158 76.7312L123.616 76.5705L122.89 76.3219L120.889 75.6732L120.999 75.47C121.618 74.3286 122.717 73.5419 123.939 73.3615L124.158 73.3297V76.7312Z" fill="white"/>
<path d="M123.109 80.6517C123.992 81.0413 125.035 81.0549 125.984 80.6487L124.549 78.6599L123.109 80.6517ZM124.546 81.3384C123.903 81.3384 123.292 81.1898 122.727 80.8973L122.528 80.7942L124.544 78.0021L125.332 79.0722L126.566 80.7972L126.363 80.8973C125.79 81.1868 125.161 81.3384 124.546 81.3384Z" fill="white"/>
<path d="M125.374 73.7905V76.2143L127.675 75.4549C127.164 74.6121 126.326 74.0073 125.374 73.7905ZM124.987 76.7388V73.3297L125.212 73.3661C126.45 73.5662 127.541 74.3544 128.129 75.4761L128.237 75.6792L124.987 76.7388Z" fill="white"/>
<path d="M125.923 77.6952L125.955 77.7438L127.367 79.6794C127.951 79.0079 128.259 78.1879 128.259 77.2905C128.259 77.1753 128.251 77.0632 128.239 76.9525L125.923 77.6952ZM127.328 80.2827L125.315 77.4815L128.548 76.4447L128.589 76.6615C128.626 76.8707 128.644 77.0753 128.644 77.2905C128.644 78.3516 128.233 79.3551 127.487 80.1175L127.328 80.2827Z" fill="white"/>
<path d="M120.966 76.954C120.953 77.0677 120.947 77.1859 120.947 77.3102C120.947 78.197 121.267 79.0368 121.852 79.6992L123.3 77.7135L122.55 77.477L120.966 76.954ZM121.896 80.2994L121.737 80.1403C120.979 79.3809 120.561 78.3759 120.561 77.3102C120.561 77.0798 120.581 76.8615 120.617 76.663L120.656 76.4447L123.906 77.4997L123.589 77.9772L123.129 78.582L121.896 80.2994Z" fill="white"/>
<path d="M121.457 75.4518L123.773 76.2158V73.7845C122.832 73.9876 121.991 74.5939 121.457 75.4518ZM124.158 76.7312L123.616 76.5705L122.89 76.3219L120.889 75.6732L120.999 75.47C121.618 74.3286 122.717 73.5419 123.939 73.3615L124.158 73.3297V76.7312Z" fill="white"/>
<path d="M123.109 80.6517C123.992 81.0413 125.035 81.0549 125.984 80.6487L124.549 78.6599L123.109 80.6517ZM124.546 81.3384C123.903 81.3384 123.292 81.1898 122.727 80.8973L122.528 80.7942L124.544 78.0021L125.332 79.0722L126.566 80.7972L126.363 80.8973C125.79 81.1868 125.161 81.3384 124.546 81.3384Z" fill="white"/>
<path d="M125.374 73.7905V76.2143L127.675 75.4549C127.164 74.6121 126.326 74.0073 125.374 73.7905ZM124.987 76.7388V73.3297L125.212 73.3661C126.45 73.5662 127.541 74.3544 128.129 75.4761L128.237 75.6792L124.987 76.7388Z" fill="white"/>
<path d="M125.923 77.6952L125.955 77.7438L127.367 79.6794C127.951 79.0079 128.259 78.1879 128.259 77.2905C128.259 77.1753 128.251 77.0632 128.239 76.9525L125.923 77.6952ZM127.328 80.2827L125.315 77.4815L128.548 76.4447L128.589 76.6615C128.626 76.8707 128.644 77.0753 128.644 77.2905C128.644 78.3516 128.233 79.3551 127.487 80.1175L127.328 80.2827Z" fill="white"/>
<path d="M105.17 45.4596C105.17 45.4596 97.523 56.9298 104.693 57.4073C111.861 57.8847 104.214 49.2825 105.17 45.4596Z" fill="white"/>
<path d="M112.411 47.0171C112.411 47.0171 100.553 54.0475 106.808 57.5808C113.064 61.1142 109.895 50.0487 112.411 47.0171Z" fill="white"/>
<path d="M138.165 101.818H59.8351C53.8506 101.818 49 96.9659 49 90.9815V43.8366C49 37.8521 53.8506 33 59.8351 33H138.165C144.149 33 149 37.8521 149 43.8366V90.9815C149 96.9659 144.149 101.818 138.165 101.818V101.818Z" stroke="white" stroke-width="0.00112867" stroke-miterlimit="10"/>
<defs>
<filter id="filter0_d" x="0" y="0" width="208" height="208" filterUnits="userSpaceOnUse" color-interpolation-filters="sRGB">
<feFlood flood-opacity="0" result="BackgroundImageFix"/>
<feColorMatrix in="SourceAlpha" type="matrix" values="0 0 0 0 0 0 0 0 0 0 0 0 0 0 0 0 0 0 127 0"/>
<feOffset dx="4" dy="4"/>
<feGaussianBlur stdDeviation="2"/>
<feColorMatrix type="matrix" values="0 0 0 0 0 0 0 0 0 0 0 0 0 0 0 0 0 0 0.25 0"/>
<feBlend mode="normal" in2="BackgroundImageFix" result="effect1_dropShadow"/>
<feBlend mode="normal" in="SourceGraphic" in2="effect1_dropShadow" result="shape"/>
</filter>
</defs>
</svg>
