<svg width="208" height="208" viewBox="0 0 208 208" fill="none" xmlns="http://www.w3.org/2000/svg">
<g filter="url(#filter0_d)">
<rect width="200" height="200" rx="8" fill="#121212"/>
<rect width="200" height="200" rx="8" fill="white" fill-opacity="0.08"/>
</g>
<path d="M69.2482 156.583V158H62.4232V148.9H69.0662V150.317H64.1132V152.683H68.5072V154.074H64.1132V156.583H69.2482ZM76.0561 158.13C75.1374 158.13 74.3054 157.931 73.5601 157.532C72.8234 157.125 72.2427 156.566 71.8181 155.855C71.4021 155.144 71.1941 154.343 71.1941 153.45C71.1941 152.557 71.4064 151.756 71.8311 151.045C72.2557 150.334 72.8364 149.78 73.5731 149.381C74.3184 148.974 75.1504 148.77 76.0691 148.77C76.8144 148.77 77.4947 148.9 78.1101 149.16C78.7254 149.42 79.2454 149.797 79.6701 150.291L78.5781 151.318C77.9194 150.607 77.1091 150.252 76.1471 150.252C75.5231 150.252 74.9641 150.391 74.4701 150.668C73.9761 150.937 73.5904 151.314 73.3131 151.799C73.0357 152.284 72.8971 152.835 72.8971 153.45C72.8971 154.065 73.0357 154.616 73.3131 155.101C73.5904 155.586 73.9761 155.968 74.4701 156.245C74.9641 156.514 75.5231 156.648 76.1471 156.648C77.1091 156.648 77.9194 156.288 78.5781 155.569L79.6701 156.609C79.2454 157.103 78.7211 157.48 78.0971 157.74C77.4817 158 76.8014 158.13 76.0561 158.13ZM86.1 158.13C85.1726 158.13 84.3363 157.931 83.591 157.532C82.8456 157.125 82.2606 156.566 81.836 155.855C81.4113 155.136 81.199 154.334 81.199 153.45C81.199 152.566 81.4113 151.769 81.836 151.058C82.2606 150.339 82.8456 149.78 83.591 149.381C84.3363 148.974 85.1726 148.77 86.1 148.77C87.0273 148.77 87.8636 148.974 88.609 149.381C89.3543 149.78 89.9393 150.334 90.364 151.045C90.7886 151.756 91.001 152.557 91.001 153.45C91.001 154.343 90.7886 155.144 90.364 155.855C89.9393 156.566 89.3543 157.125 88.609 157.532C87.8636 157.931 87.0273 158.13 86.1 158.13ZM86.1 156.648C86.7066 156.648 87.2526 156.514 87.738 156.245C88.2233 155.968 88.6046 155.586 88.882 155.101C89.1593 154.607 89.298 154.057 89.298 153.45C89.298 152.843 89.1593 152.297 88.882 151.812C88.6046 151.318 88.2233 150.937 87.738 150.668C87.2526 150.391 86.7066 150.252 86.1 150.252C85.4933 150.252 84.9473 150.391 84.462 150.668C83.9766 150.937 83.5953 151.318 83.318 151.812C83.0406 152.297 82.902 152.843 82.902 153.45C82.902 154.057 83.0406 154.607 83.318 155.101C83.5953 155.586 83.9766 155.968 84.462 156.245C84.9473 156.514 85.4933 156.648 86.1 156.648ZM101.628 148.9V158H100.237L95.2193 151.838V158H93.5423V148.9H94.9333L99.9513 155.062V148.9H101.628ZM109.068 158.13C108.14 158.13 107.304 157.931 106.559 157.532C105.813 157.125 105.228 156.566 104.804 155.855C104.379 155.136 104.167 154.334 104.167 153.45C104.167 152.566 104.379 151.769 104.804 151.058C105.228 150.339 105.813 149.78 106.559 149.381C107.304 148.974 108.14 148.77 109.068 148.77C109.995 148.77 110.831 148.974 111.577 149.381C112.322 149.78 112.907 150.334 113.332 151.045C113.756 151.756 113.969 152.557 113.969 153.45C113.969 154.343 113.756 155.144 113.332 155.855C112.907 156.566 112.322 157.125 111.577 157.532C110.831 157.931 109.995 158.13 109.068 158.13ZM109.068 156.648C109.674 156.648 110.22 156.514 110.706 156.245C111.191 155.968 111.572 155.586 111.85 155.101C112.127 154.607 112.266 154.057 112.266 153.45C112.266 152.843 112.127 152.297 111.85 151.812C111.572 151.318 111.191 150.937 110.706 150.668C110.22 150.391 109.674 150.252 109.068 150.252C108.461 150.252 107.915 150.391 107.43 150.668C106.944 150.937 106.563 151.318 106.286 151.812C106.008 152.297 105.87 152.843 105.87 153.45C105.87 154.057 106.008 154.607 106.286 155.101C106.563 155.586 106.944 155.968 107.43 156.245C107.915 156.514 108.461 156.648 109.068 156.648ZM124.869 158L124.856 151.968L121.866 156.96H121.112L118.122 152.046V158H116.51V148.9H117.901L121.515 154.932L125.064 148.9H126.455L126.468 158H124.869ZM133.602 154.789V158H131.912V154.815L128.337 148.9H130.144L132.809 153.333L135.5 148.9H137.164L133.602 154.789ZM70.1032 164.33H67.0872V162.9H74.8092V164.33H71.7932V172H70.1032V164.33ZM80.5754 172.13C79.3188 172.13 78.3394 171.779 77.6374 171.077C76.9354 170.366 76.5844 169.352 76.5844 168.035V162.9H78.2744V167.97C78.2744 169.755 79.0458 170.648 80.5884 170.648C82.1224 170.648 82.8894 169.755 82.8894 167.97V162.9H84.5534V168.035C84.5534 169.352 84.2024 170.366 83.5004 171.077C82.8071 171.779 81.8321 172.13 80.5754 172.13ZM95.7562 162.9V172H94.3652L89.3472 165.838V172H87.6702V162.9H89.0612L94.0792 169.062V162.9H95.7562ZM105.77 170.583V172H98.9447V162.9H105.588V164.317H100.635V166.683H105.029V168.074H100.635V170.583H105.77ZM116.659 172.13C115.403 172.13 114.423 171.779 113.721 171.077C113.019 170.366 112.668 169.352 112.668 168.035V162.9H114.358V167.97C114.358 169.755 115.13 170.648 116.672 170.648C118.206 170.648 118.973 169.755 118.973 167.97V162.9H120.637V168.035C120.637 169.352 120.286 170.366 119.584 171.077C118.891 171.779 117.916 172.13 116.659 172.13ZM127.498 162.9C128.287 162.9 128.972 163.03 129.552 163.29C130.142 163.55 130.592 163.923 130.904 164.408C131.216 164.893 131.372 165.47 131.372 166.137C131.372 166.796 131.216 167.372 130.904 167.866C130.592 168.351 130.142 168.724 129.552 168.984C128.972 169.244 128.287 169.374 127.498 169.374H125.444V172H123.754V162.9H127.498ZM127.42 167.944C128.157 167.944 128.716 167.788 129.097 167.476C129.479 167.164 129.669 166.718 129.669 166.137C129.669 165.556 129.479 165.11 129.097 164.798C128.716 164.486 128.157 164.33 127.42 164.33H125.444V167.944H127.42Z" fill="white" fill-opacity="0.87"/>
<path d="M125.631 93.505C125.323 94.1148 124.799 94.5229 124.061 94.7293C123.475 94.8971 122.514 94.9818 121.177 94.9818H119.372C118 94.9818 117.001 94.8648 116.376 94.6307C115.686 94.3782 115.215 93.9131 114.962 93.2309C114.729 92.5964 114.612 91.594 114.612 90.2219C114.612 88.7651 114.709 87.721 114.907 87.085C115.141 86.3382 115.596 85.8207 116.279 85.5312C116.922 85.251 117.963 85.1124 119.4 85.1124H121.193C122.731 85.1124 123.841 85.271 124.516 85.5867C125.195 85.9055 125.634 86.4752 125.84 87.296C126.008 87.912 126.091 89.0223 126.091 90.6269C126.091 91.9327 125.937 92.8937 125.631 93.505ZM112.273 94.5044C111.705 94.8309 110.719 94.9957 109.32 94.9957H106.421C104.603 94.9957 103.397 94.6446 102.81 93.9454C102.287 93.3295 102.027 92.0929 102.027 90.2342C102.027 88.8344 102.119 87.8227 102.307 87.1974C102.53 86.4413 102.964 85.9055 103.608 85.5867C104.252 85.271 105.251 85.1124 106.605 85.1124H109.306C110.678 85.1124 111.659 85.2802 112.247 85.6159C113.049 86.0625 113.45 86.9172 113.45 88.1784H111.742C111.751 87.2067 110.92 86.7216 109.25 86.7216H106.617C105.302 86.7216 104.467 86.9603 104.112 87.4361C103.842 87.7996 103.707 88.6665 103.707 90.0402C103.707 91.0473 103.737 91.7141 103.804 92.0405C103.898 92.5456 104.135 92.8998 104.518 93.1046C104.9 93.311 105.544 93.4126 106.449 93.4126H109.264C110.057 93.4126 110.616 93.3479 110.944 93.217C111.496 93.003 111.765 92.5595 111.756 91.8865H113.465C113.465 93.1847 113.068 94.0563 112.273 94.5044ZM96.7569 85.1432C98.0859 85.1863 99.1084 85.3834 99.7875 85.7561C100.507 86.1472 100.912 86.7586 101.006 87.5901C101.024 87.758 101.041 88.2939 101.061 89.1994V90.6269H90.842C90.8312 91.9327 91.0653 92.7612 91.5411 93.1046C91.9138 93.3756 92.7777 93.5112 94.1313 93.5112H96.1887C97.4221 93.5112 98.2183 93.4557 98.5833 93.3433C99.1792 93.1662 99.4749 92.7458 99.4656 92.0836H101.061C101.061 93.3341 100.654 94.1502 99.8429 94.5321C99.2362 94.8309 98.0273 94.9818 96.2164 94.9818H94.0466C92.6745 94.9818 91.6767 94.8648 91.0515 94.6307C90.3708 94.3782 89.8996 93.9131 89.6378 93.2309C89.4037 92.6057 89.2867 91.6078 89.2867 90.2342C89.2867 89.4457 89.319 88.7867 89.3775 88.2369L66.4896 98.8101L127.512 98.5267L135.657 68.8353L96.7569 85.1432Z" fill="white"/>
<path d="M123.085 86.8572C122.74 86.7741 122.077 86.731 121.097 86.731H119.473C118.119 86.731 117.266 86.8711 116.912 87.1514C116.482 87.4963 116.267 88.3232 116.267 89.6291V90.5669C116.267 91.8374 116.488 92.6381 116.926 92.9754C117.272 93.2264 118.107 93.3527 119.433 93.3527H121.127C122.088 93.3527 122.734 93.3157 123.07 93.2402C123.566 93.1386 123.909 92.8922 124.1 92.5057C124.291 92.1192 124.388 91.4678 124.388 90.5531V89.6152C124.388 88.682 124.294 88.0168 124.106 87.621C123.92 87.2237 123.58 86.9696 123.085 86.8572Z" fill="white"/>
<path d="M90.8517 89.1568H99.4876C99.4707 88.2421 99.4507 87.7432 99.4322 87.6585C99.349 87.1735 99.0133 86.8608 98.4251 86.7207C98.0416 86.6283 97.2948 86.5806 96.1845 86.5806H94.1826C93.796 86.5806 93.4603 86.5944 93.1523 86.616L91.1951 87.4368C90.978 87.8341 90.8578 88.3946 90.8517 89.1568Z" fill="white"/>
<defs>
<filter id="filter0_d" x="0" y="0" width="208" height="208" filterUnits="userSpaceOnUse" color-interpolation-filters="sRGB">
<feFlood flood-opacity="0" result="BackgroundImageFix"/>
<feColorMatrix in="SourceAlpha" type="matrix" values="0 0 0 0 0 0 0 0 0 0 0 0 0 0 0 0 0 0 127 0"/>
<feOffset dx="4" dy="4"/>
<feGaussianBlur stdDeviation="2"/>
<feColorMatrix type="matrix" values="0 0 0 0 0 0 0 0 0 0 0 0 0 0 0 0 0 0 0.25 0"/>
<feBlend mode="normal" in2="BackgroundImageFix" result="effect1_dropShadow"/>
<feBlend mode="normal" in="SourceGraphic" in2="effect1_dropShadow" result="shape"/>
</filter>
</defs>
</svg>
