<svg width="208" height="208" viewBox="0 0 208 208" fill="none" xmlns="http://www.w3.org/2000/svg">
<g filter="url(#filter0_d)">
<rect width="200" height="200" rx="8" fill="#121212"/>
<rect width="200" height="200" rx="8" fill="white" fill-opacity="0.08"/>
</g>
<path d="M51.2533 134.718H52.9433V142.388H57.7013V143.818H51.2533V134.718ZM63.5715 143.948C62.3149 143.948 61.3355 143.597 60.6335 142.895C59.9315 142.184 59.5805 141.17 59.5805 139.853V134.718H61.2705V139.788C61.2705 141.573 62.0419 142.466 63.5845 142.466C65.1185 142.466 65.8855 141.573 65.8855 139.788V134.718H67.5495V139.853C67.5495 141.17 67.1985 142.184 66.4965 142.895C65.8032 143.597 64.8282 143.948 63.5715 143.948ZM77.1143 139.086C77.617 139.251 78.0157 139.528 78.3103 139.918C78.605 140.299 78.7523 140.776 78.7523 141.348C78.7523 142.137 78.449 142.748 77.8423 143.181C77.2357 143.606 76.3517 143.818 75.1903 143.818H70.6663V134.718H74.9303C76.005 134.718 76.8327 134.93 77.4133 135.355C77.994 135.771 78.2843 136.347 78.2843 137.084C78.2843 137.535 78.1803 137.933 77.9723 138.28C77.7643 138.627 77.4783 138.895 77.1143 139.086ZM72.3563 136.044V138.553H74.7483C75.3377 138.553 75.7883 138.449 76.1003 138.241C76.421 138.024 76.5813 137.712 76.5813 137.305C76.5813 136.889 76.421 136.577 76.1003 136.369C75.7883 136.152 75.3377 136.044 74.7483 136.044H72.3563ZM75.0863 142.492C76.395 142.492 77.0493 142.054 77.0493 141.179C77.0493 140.304 76.395 139.866 75.0863 139.866H72.3563V142.492H75.0863ZM87.26 143.818L85.401 141.153C85.323 141.162 85.206 141.166 85.05 141.166H82.996V143.818H81.306V134.718H85.05C85.8387 134.718 86.5233 134.848 87.104 135.108C87.6933 135.368 88.144 135.741 88.456 136.226C88.768 136.711 88.924 137.288 88.924 137.955C88.924 138.64 88.755 139.229 88.417 139.723C88.0877 140.217 87.611 140.585 86.987 140.828L89.08 143.818H87.26ZM87.221 137.955C87.221 137.374 87.0303 136.928 86.649 136.616C86.2677 136.304 85.7087 136.148 84.972 136.148H82.996V139.775H84.972C85.7087 139.775 86.2677 139.619 86.649 139.307C87.0303 138.986 87.221 138.536 87.221 137.955ZM91.5648 134.718H93.2548V143.818H91.5648V134.718ZM100.678 143.948C99.7595 143.948 98.9275 143.749 98.1821 143.35C97.4455 142.943 96.8648 142.384 96.4401 141.673C96.0241 140.962 95.8161 140.161 95.8161 139.268C95.8161 138.375 96.0285 137.574 96.4531 136.863C96.8778 136.152 97.4585 135.598 98.1951 135.199C98.9405 134.792 99.7725 134.588 100.691 134.588C101.436 134.588 102.117 134.718 102.732 134.978C103.347 135.238 103.867 135.615 104.292 136.109L103.2 137.136C102.541 136.425 101.731 136.07 100.769 136.07C100.145 136.07 99.5861 136.209 99.0921 136.486C98.5981 136.755 98.2125 137.132 97.9351 137.617C97.6578 138.102 97.5191 138.653 97.5191 139.268C97.5191 139.883 97.6578 140.434 97.9351 140.919C98.2125 141.404 98.5981 141.786 99.0921 142.063C99.5861 142.332 100.145 142.466 100.769 142.466C101.731 142.466 102.541 142.106 103.2 141.387L104.292 142.427C103.867 142.921 103.343 143.298 102.719 143.558C102.104 143.818 101.423 143.948 100.678 143.948ZM112.373 141.712H107.823L106.926 143.818H105.184L109.279 134.718H110.943L115.051 143.818H113.283L112.373 141.712ZM111.814 140.386L110.098 136.408L108.395 140.386H111.814ZM118.347 136.148H115.331V134.718H123.053V136.148H120.037V143.818H118.347V136.148ZM125.072 134.718H126.762V143.818H125.072V134.718ZM134.224 143.948C133.297 143.948 132.46 143.749 131.715 143.35C130.97 142.943 130.385 142.384 129.96 141.673C129.535 140.954 129.323 140.152 129.323 139.268C129.323 138.384 129.535 137.587 129.96 136.876C130.385 136.157 130.97 135.598 131.715 135.199C132.46 134.792 133.297 134.588 134.224 134.588C135.151 134.588 135.988 134.792 136.733 135.199C137.478 135.598 138.063 136.152 138.488 136.863C138.913 137.574 139.125 138.375 139.125 139.268C139.125 140.161 138.913 140.962 138.488 141.673C138.063 142.384 137.478 142.943 136.733 143.35C135.988 143.749 135.151 143.948 134.224 143.948ZM134.224 142.466C134.831 142.466 135.377 142.332 135.862 142.063C136.347 141.786 136.729 141.404 137.006 140.919C137.283 140.425 137.422 139.875 137.422 139.268C137.422 138.661 137.283 138.115 137.006 137.63C136.729 137.136 136.347 136.755 135.862 136.486C135.377 136.209 134.831 136.07 134.224 136.07C133.617 136.07 133.071 136.209 132.586 136.486C132.101 136.755 131.719 137.136 131.442 137.63C131.165 138.115 131.026 138.661 131.026 139.268C131.026 139.875 131.165 140.425 131.442 140.919C131.719 141.404 132.101 141.786 132.586 142.063C133.071 142.332 133.617 142.466 134.224 142.466ZM149.752 134.718V143.818H148.361L143.343 137.656V143.818H141.666V134.718H143.057L148.075 140.88V134.718H149.752ZM56.4516 157.818L56.4386 151.786L53.4486 156.778H52.6946L49.7046 151.864V157.818H48.0926V148.718H49.4836L53.0976 154.75L56.6466 148.718H58.0376L58.0506 157.818H56.4516ZM67.1606 155.712H62.6106L61.7136 157.818H59.9716L64.0666 148.718H65.7306L69.8386 157.818H68.0706L67.1606 155.712ZM66.6016 154.386L64.8856 150.408L63.1826 154.386H66.6016ZM79.8319 148.718V157.818H78.4409L73.4229 151.656V157.818H71.7459V148.718H73.1369L78.1549 154.88V148.718H79.8319ZM88.9223 155.712H84.3723L83.4753 157.818H81.7333L85.8283 148.718H87.4923L91.6003 157.818H89.8323L88.9223 155.712ZM88.3633 154.386L86.6473 150.408L84.9443 154.386H88.3633ZM99.5947 153.164H101.194V156.791C100.726 157.164 100.18 157.45 99.5557 157.649C98.9317 157.848 98.2904 157.948 97.6317 157.948C96.7044 157.948 95.868 157.749 95.1227 157.35C94.3774 156.943 93.7924 156.384 93.3677 155.673C92.943 154.962 92.7307 154.161 92.7307 153.268C92.7307 152.375 92.943 151.574 93.3677 150.863C93.7924 150.152 94.3774 149.598 95.1227 149.199C95.8767 148.792 96.7217 148.588 97.6577 148.588C98.4204 148.588 99.1137 148.714 99.7377 148.965C100.362 149.216 100.886 149.585 101.311 150.07L100.245 151.11C99.5514 150.417 98.715 150.07 97.7357 150.07C97.0944 150.07 96.5224 150.204 96.0197 150.473C95.5257 150.742 95.1357 151.119 94.8497 151.604C94.5724 152.089 94.4337 152.644 94.4337 153.268C94.4337 153.875 94.5724 154.421 94.8497 154.906C95.1357 155.391 95.5257 155.773 96.0197 156.05C96.5224 156.327 97.09 156.466 97.7227 156.466C98.4334 156.466 99.0574 156.31 99.5947 155.998V153.164ZM110.998 156.401V157.818H104.173V148.718H110.816V150.135H105.863V152.501H110.257V153.892H105.863V156.401H110.998ZM121.991 157.818L121.978 151.786L118.988 156.778H118.234L115.244 151.864V157.818H113.632V148.718H115.023L118.637 154.75L122.186 148.718H123.577L123.59 157.818H121.991ZM133.623 156.401V157.818H126.798V148.718H133.441V150.135H128.488V152.501H132.882V153.892H128.488V156.401H133.623ZM144.343 148.718V157.818H142.952L137.934 151.656V157.818H136.257V148.718H137.648L142.666 154.88V148.718H144.343ZM149.377 150.148H146.361V148.718H154.083V150.148H151.067V157.818H149.377V150.148Z" fill="white" fill-opacity="0.87"/>
<path d="M104.574 64.8377L103.651 53.4781L112.469 64.5299L112.958 65.1454L104.574 64.8377ZM112.178 86.0409H89.3464V69.3685H112.178V86.0409ZM117.26 65.1454L117.159 65.0181L117.134 64.9953L103.462 48.4259L103.083 47.9666C102.814 47.7301 102.458 47.5968 102.073 47.5968H97.3362V46.4432H89.9694V47.5968H86.0237C85.1536 47.5968 84.4442 48.2986 84.4442 49.1747V89.5622C84.4442 90.4398 85.1536 91.1416 86.0237 91.1416H116.022C116.89 91.1416 117.601 90.4398 117.601 89.5622V66.1095C117.601 65.7381 117.474 65.4061 117.26 65.1454Z" fill="white"/>
<path d="M103.513 48.3765L103.134 47.9187C103.291 48.0445 103.419 48.2037 103.513 48.3765Z" fill="white"/>
<path d="M97.9814 42.2627H89.3624V45.6506H97.9814V42.2627Z" fill="white"/>
<path d="M100.245 82.3739C99.9753 82.7362 99.4478 82.4118 99.1325 82.239C98.7535 82.0344 98.0183 81.4341 98.0805 80.9127C98.1927 80.179 98.9263 80.6762 99.3447 81.0218C99.898 81.5281 100.363 82.2223 100.245 82.3739ZM104.295 77.5901L104.232 77.4945L101.027 71.7723L97.6318 77.8022C97.315 78.3555 97.1498 78.9952 97.1498 79.6743C97.1498 81.8131 98.8869 83.5351 101.027 83.5351C103.166 83.5351 104.894 81.8131 104.894 79.6743C104.894 78.9073 104.674 78.1888 104.295 77.5901Z" fill="white"/>
<path d="M140.165 101.818H61.8351C55.8506 101.818 51 96.9675 51 90.9831V43.8366C51 37.8522 55.8506 33 61.8351 33H140.165C146.149 33 151 37.8522 151 43.8366V90.9831C151 96.9675 146.149 101.818 140.165 101.818Z" stroke="white" stroke-width="0.00112867" stroke-miterlimit="10"/>
<defs>
<filter id="filter0_d" x="0" y="0" width="208" height="208" filterUnits="userSpaceOnUse" color-interpolation-filters="sRGB">
<feFlood flood-opacity="0" result="BackgroundImageFix"/>
<feColorMatrix in="SourceAlpha" type="matrix" values="0 0 0 0 0 0 0 0 0 0 0 0 0 0 0 0 0 0 127 0"/>
<feOffset dx="4" dy="4"/>
<feGaussianBlur stdDeviation="2"/>
<feColorMatrix type="matrix" values="0 0 0 0 0 0 0 0 0 0 0 0 0 0 0 0 0 0 0.25 0"/>
<feBlend mode="normal" in2="BackgroundImageFix" result="effect1_dropShadow"/>
<feBlend mode="normal" in="SourceGraphic" in2="effect1_dropShadow" result="shape"/>
</filter>
</defs>
</svg>
