<svg width="208" height="208" viewBox="0 0 208 208" fill="none" xmlns="http://www.w3.org/2000/svg">
<g filter="url(#filter0_d)">
<rect width="200" height="200" rx="8" fill="#121212"/>
<rect width="200" height="200" rx="8" fill="white" fill-opacity="0.08"/>
</g>
<path d="M43.2336 152.12C42.3776 152.12 41.6056 151.936 40.9176 151.568C40.2296 151.192 39.6896 150.676 39.2976 150.02C38.9056 149.356 38.7096 148.616 38.7096 147.8C38.7096 146.984 38.9056 146.248 39.2976 145.592C39.6896 144.928 40.2296 144.412 40.9176 144.044C41.6056 143.668 42.3776 143.48 43.2336 143.48C44.0896 143.48 44.8616 143.668 45.5496 144.044C46.2376 144.412 46.7776 144.924 47.1696 145.58C47.5616 146.236 47.7576 146.976 47.7576 147.8C47.7576 148.624 47.5616 149.364 47.1696 150.02C46.7776 150.676 46.2376 151.192 45.5496 151.568C44.8616 151.936 44.0896 152.12 43.2336 152.12ZM43.2336 150.752C43.7936 150.752 44.2976 150.628 44.7456 150.38C45.1936 150.124 45.5456 149.772 45.8016 149.324C46.0576 148.868 46.1856 148.36 46.1856 147.8C46.1856 147.24 46.0576 146.736 45.8016 146.288C45.5456 145.832 45.1936 145.48 44.7456 145.232C44.2976 144.976 43.7936 144.848 43.2336 144.848C42.6736 144.848 42.1696 144.976 41.7216 145.232C41.2736 145.48 40.9216 145.832 40.6656 146.288C40.4096 146.736 40.2816 147.24 40.2816 147.8C40.2816 148.36 40.4096 148.868 40.6656 149.324C40.9216 149.772 41.2736 150.124 41.7216 150.38C42.1696 150.628 42.6736 150.752 43.2336 150.752ZM56.1132 147.632C56.5772 147.784 56.9452 148.04 57.2172 148.4C57.4892 148.752 57.6252 149.192 57.6252 149.72C57.6252 150.448 57.3452 151.012 56.7852 151.412C56.2252 151.804 55.4092 152 54.3372 152H50.1612V143.6H54.0972C55.0892 143.6 55.8532 143.796 56.3892 144.188C56.9252 144.572 57.1932 145.104 57.1932 145.784C57.1932 146.2 57.0972 146.568 56.9052 146.888C56.7132 147.208 56.4492 147.456 56.1132 147.632ZM51.7212 144.824V147.14H53.9292C54.4732 147.14 54.8892 147.044 55.1772 146.852C55.4732 146.652 55.6212 146.364 55.6212 145.988C55.6212 145.604 55.4732 145.316 55.1772 145.124C54.8892 144.924 54.4732 144.824 53.9292 144.824H51.7212ZM54.2412 150.776C55.4492 150.776 56.0532 150.372 56.0532 149.564C56.0532 148.756 55.4492 148.352 54.2412 148.352H51.7212V150.776H54.2412ZM60.0401 143.6H63.7121C64.6081 143.6 65.4041 143.776 66.1001 144.128C66.7961 144.472 67.3361 144.964 67.7201 145.604C68.1041 146.236 68.2961 146.968 68.2961 147.8C68.2961 148.632 68.1041 149.368 67.7201 150.008C67.3361 150.64 66.7961 151.132 66.1001 151.484C65.4041 151.828 64.6081 152 63.7121 152H60.0401V143.6ZM63.6401 150.68C64.2561 150.68 64.7961 150.564 65.2601 150.332C65.7321 150.092 66.0921 149.756 66.3401 149.324C66.5961 148.884 66.7241 148.376 66.7241 147.8C66.7241 147.224 66.5961 146.72 66.3401 146.288C66.0921 145.848 65.7321 145.512 65.2601 145.28C64.7961 145.04 64.2561 144.92 63.6401 144.92H61.6001V150.68H63.6401ZM76.071 150.68V152H69.879V150.956L73.215 147.788C73.591 147.428 73.843 147.116 73.971 146.852C74.107 146.58 74.175 146.312 74.175 146.048C74.175 145.656 74.043 145.356 73.779 145.148C73.515 144.94 73.127 144.836 72.615 144.836C71.759 144.836 71.103 145.128 70.647 145.712L69.555 144.872C69.883 144.432 70.323 144.092 70.875 143.852C71.435 143.604 72.059 143.48 72.747 143.48C73.659 143.48 74.387 143.696 74.931 144.128C75.475 144.56 75.747 145.148 75.747 145.892C75.747 146.348 75.651 146.776 75.459 147.176C75.267 147.576 74.899 148.032 74.355 148.544L72.111 150.68H76.071ZM88.1238 147.704H89.5998V151.052C89.1678 151.396 88.6638 151.66 88.0878 151.844C87.5118 152.028 86.9198 152.12 86.3118 152.12C85.4558 152.12 84.6838 151.936 83.9958 151.568C83.3078 151.192 82.7678 150.676 82.3758 150.02C81.9838 149.364 81.7878 148.624 81.7878 147.8C81.7878 146.976 81.9838 146.236 82.3758 145.58C82.7678 144.924 83.3078 144.412 83.9958 144.044C84.6918 143.668 85.4718 143.48 86.3358 143.48C87.0398 143.48 87.6798 143.596 88.2558 143.828C88.8318 144.06 89.3158 144.4 89.7078 144.848L88.7238 145.808C88.0838 145.168 87.3118 144.848 86.4078 144.848C85.8158 144.848 85.2878 144.972 84.8238 145.22C84.3678 145.468 84.0078 145.816 83.7438 146.264C83.4878 146.712 83.3598 147.224 83.3598 147.8C83.3598 148.36 83.4878 148.864 83.7438 149.312C84.0078 149.76 84.3678 150.112 84.8238 150.368C85.2878 150.624 85.8118 150.752 86.3958 150.752C87.0518 150.752 87.6278 150.608 88.1238 150.32V147.704ZM95.8633 143.6C96.5913 143.6 97.2233 143.72 97.7593 143.96C98.3033 144.2 98.7193 144.544 99.0073 144.992C99.2953 145.44 99.4393 145.972 99.4393 146.588C99.4393 147.196 99.2953 147.728 99.0073 148.184C98.7193 148.632 98.3033 148.976 97.7593 149.216C97.2233 149.456 96.5913 149.576 95.8633 149.576H93.9673V152H92.4073V143.6H95.8633ZM95.7913 148.256C96.4713 148.256 96.9873 148.112 97.3393 147.824C97.6913 147.536 97.8673 147.124 97.8673 146.588C97.8673 146.052 97.6913 145.64 97.3393 145.352C96.9873 145.064 96.4713 144.92 95.7913 144.92H93.9673V148.256H95.7913ZM104.468 152.12C103.82 152.12 103.192 152.028 102.584 151.844C101.984 151.66 101.508 151.416 101.156 151.112L101.696 149.9C102.04 150.172 102.46 150.396 102.956 150.572C103.46 150.74 103.964 150.824 104.468 150.824C105.092 150.824 105.556 150.724 105.86 150.524C106.172 150.324 106.328 150.06 106.328 149.732C106.328 149.492 106.24 149.296 106.064 149.144C105.896 148.984 105.68 148.86 105.416 148.772C105.152 148.684 104.792 148.584 104.336 148.472C103.696 148.32 103.176 148.168 102.776 148.016C102.384 147.864 102.044 147.628 101.756 147.308C101.476 146.98 101.336 146.54 101.336 145.988C101.336 145.524 101.46 145.104 101.708 144.728C101.964 144.344 102.344 144.04 102.848 143.816C103.36 143.592 103.984 143.48 104.72 143.48C105.232 143.48 105.736 143.544 106.232 143.672C106.728 143.8 107.156 143.984 107.516 144.224L107.024 145.436C106.656 145.22 106.272 145.056 105.872 144.944C105.472 144.832 105.084 144.776 104.708 144.776C104.092 144.776 103.632 144.88 103.328 145.088C103.032 145.296 102.884 145.572 102.884 145.916C102.884 146.156 102.968 146.352 103.136 146.504C103.312 146.656 103.532 146.776 103.796 146.864C104.06 146.952 104.42 147.052 104.876 147.164C105.5 147.308 106.012 147.46 106.412 147.62C106.812 147.772 107.152 148.008 107.432 148.328C107.72 148.648 107.864 149.08 107.864 149.624C107.864 150.088 107.736 150.508 107.48 150.884C107.232 151.26 106.852 151.56 106.34 151.784C105.828 152.008 105.204 152.12 104.468 152.12ZM115.572 154.328C115.1 153.6 114.736 152.756 114.48 151.796C114.232 150.836 114.108 149.808 114.108 148.712C114.108 147.616 114.232 146.588 114.48 145.628C114.736 144.66 115.1 143.816 115.572 143.096H117C116.512 143.96 116.152 144.852 115.92 145.772C115.696 146.684 115.584 147.664 115.584 148.712C115.584 149.76 115.696 150.744 115.92 151.664C116.152 152.576 116.512 153.464 117 154.328H115.572ZM123.204 143.6H124.764V152H123.204V143.6ZM131.674 152.12C130.826 152.12 130.058 151.936 129.37 151.568C128.69 151.192 128.154 150.676 127.762 150.02C127.378 149.364 127.186 148.624 127.186 147.8C127.186 146.976 127.382 146.236 127.774 145.58C128.166 144.924 128.702 144.412 129.382 144.044C130.07 143.668 130.838 143.48 131.686 143.48C132.374 143.48 133.002 143.6 133.57 143.84C134.138 144.08 134.618 144.428 135.01 144.884L134.002 145.832C133.394 145.176 132.646 144.848 131.758 144.848C131.182 144.848 130.666 144.976 130.21 145.232C129.754 145.48 129.398 145.828 129.142 146.276C128.886 146.724 128.758 147.232 128.758 147.8C128.758 148.368 128.886 148.876 129.142 149.324C129.398 149.772 129.754 150.124 130.21 150.38C130.666 150.628 131.182 150.752 131.758 150.752C132.646 150.752 133.394 150.42 134.002 149.756L135.01 150.716C134.618 151.172 134.134 151.52 133.558 151.76C132.99 152 132.362 152.12 131.674 152.12ZM140.967 152.12C140.119 152.12 139.351 151.936 138.663 151.568C137.983 151.192 137.447 150.676 137.055 150.02C136.671 149.364 136.479 148.624 136.479 147.8C136.479 146.976 136.675 146.236 137.067 145.58C137.459 144.924 137.995 144.412 138.675 144.044C139.363 143.668 140.131 143.48 140.979 143.48C141.667 143.48 142.295 143.6 142.863 143.84C143.431 144.08 143.911 144.428 144.303 144.884L143.295 145.832C142.687 145.176 141.939 144.848 141.051 144.848C140.475 144.848 139.959 144.976 139.503 145.232C139.047 145.48 138.691 145.828 138.435 146.276C138.179 146.724 138.051 147.232 138.051 147.8C138.051 148.368 138.179 148.876 138.435 149.324C138.691 149.772 139.047 150.124 139.503 150.38C139.959 150.628 140.475 150.752 141.051 150.752C141.939 150.752 142.687 150.42 143.295 149.756L144.303 150.716C143.911 151.172 143.427 151.52 142.851 151.76C142.283 152 141.655 152.12 140.967 152.12ZM150.101 152.12C148.941 152.12 148.037 151.796 147.389 151.148C146.741 150.492 146.417 149.556 146.417 148.34V143.6H147.977V148.28C147.977 149.928 148.689 150.752 150.113 150.752C151.529 150.752 152.237 149.928 152.237 148.28V143.6H153.773V148.34C153.773 149.556 153.449 150.492 152.801 151.148C152.161 151.796 151.261 152.12 150.101 152.12ZM159.91 154.328C160.398 153.464 160.758 152.572 160.99 151.652C161.222 150.732 161.338 149.752 161.338 148.712C161.338 147.672 161.222 146.692 160.99 145.772C160.758 144.852 160.398 143.96 159.91 143.096H161.338C161.81 143.808 162.17 144.648 162.418 145.616C162.674 146.576 162.802 147.608 162.802 148.712C162.802 149.816 162.674 150.848 162.418 151.808C162.17 152.76 161.81 153.6 161.338 154.328H159.91ZM28.5108 159.6H30.0708V168H28.5108V159.6ZM40.5568 159.6V168H39.2728L34.6408 162.312V168H33.0928V159.6H34.3768L39.0088 165.288V159.6H40.5568ZM45.2617 160.92H42.4777V159.6H49.6057V160.92H46.8217V168H45.2617V160.92ZM57.8264 166.692V168H51.5264V159.6H57.6584V160.908H53.0864V163.092H57.1424V164.376H53.0864V166.692H57.8264ZM67.7795 159.6V168H66.4955L61.8635 162.312V168H60.3155V159.6H61.5995L66.2315 165.288V159.6H67.7795ZM73.3843 168.12C72.7363 168.12 72.1083 168.028 71.5003 167.844C70.9003 167.66 70.4243 167.416 70.0723 167.112L70.6123 165.9C70.9563 166.172 71.3763 166.396 71.8723 166.572C72.3763 166.74 72.8803 166.824 73.3843 166.824C74.0083 166.824 74.4723 166.724 74.7763 166.524C75.0883 166.324 75.2443 166.06 75.2443 165.732C75.2443 165.492 75.1563 165.296 74.9803 165.144C74.8123 164.984 74.5963 164.86 74.3323 164.772C74.0683 164.684 73.7083 164.584 73.2523 164.472C72.6123 164.32 72.0923 164.168 71.6923 164.016C71.3003 163.864 70.9603 163.628 70.6723 163.308C70.3923 162.98 70.2523 162.54 70.2523 161.988C70.2523 161.524 70.3763 161.104 70.6243 160.728C70.8803 160.344 71.2603 160.04 71.7643 159.816C72.2763 159.592 72.9003 159.48 73.6363 159.48C74.1483 159.48 74.6523 159.544 75.1483 159.672C75.6443 159.8 76.0723 159.984 76.4323 160.224L75.9403 161.436C75.5723 161.22 75.1883 161.056 74.7883 160.944C74.3883 160.832 74.0003 160.776 73.6243 160.776C73.0083 160.776 72.5483 160.88 72.2443 161.088C71.9483 161.296 71.8003 161.572 71.8003 161.916C71.8003 162.156 71.8843 162.352 72.0523 162.504C72.2283 162.656 72.4483 162.776 72.7123 162.864C72.9763 162.952 73.3363 163.052 73.7923 163.164C74.4163 163.308 74.9283 163.46 75.3283 163.62C75.7283 163.772 76.0683 164.008 76.3483 164.328C76.6363 164.648 76.7803 165.08 76.7803 165.624C76.7803 166.088 76.6523 166.508 76.3963 166.884C76.1483 167.26 75.7683 167.56 75.2563 167.784C74.7443 168.008 74.1203 168.12 73.3843 168.12ZM79.0772 159.6H80.6372V168H79.0772V159.6ZM91.2807 159.6L87.6207 168H86.0847L82.4127 159.6H84.1047L86.9007 166.08L89.7207 159.6H91.2807ZM99.2171 166.692V168H92.9171V159.6H99.0491V160.908H94.4771V163.092H98.5331V164.376H94.4771V166.692H99.2171ZM109.661 168.12C108.813 168.12 108.045 167.936 107.357 167.568C106.677 167.192 106.141 166.676 105.749 166.02C105.365 165.364 105.173 164.624 105.173 163.8C105.173 162.976 105.369 162.236 105.761 161.58C106.153 160.924 106.689 160.412 107.369 160.044C108.057 159.668 108.825 159.48 109.673 159.48C110.361 159.48 110.989 159.6 111.557 159.84C112.125 160.08 112.605 160.428 112.997 160.884L111.989 161.832C111.381 161.176 110.633 160.848 109.745 160.848C109.169 160.848 108.653 160.976 108.197 161.232C107.741 161.48 107.385 161.828 107.129 162.276C106.873 162.724 106.745 163.232 106.745 163.8C106.745 164.368 106.873 164.876 107.129 165.324C107.385 165.772 107.741 166.124 108.197 166.38C108.653 166.628 109.169 166.752 109.745 166.752C110.633 166.752 111.381 166.42 111.989 165.756L112.997 166.716C112.605 167.172 112.121 167.52 111.545 167.76C110.977 168 110.349 168.12 109.661 168.12ZM120.514 166.056H116.314L115.486 168H113.877L117.658 159.6H119.194L122.986 168H121.354L120.514 166.056ZM119.997 164.832L118.414 161.16L116.842 164.832H119.997ZM130.3 168L128.584 165.54C128.512 165.548 128.404 165.552 128.26 165.552H126.364V168H124.804V159.6H128.26C128.988 159.6 129.62 159.72 130.156 159.96C130.7 160.2 131.116 160.544 131.404 160.992C131.692 161.44 131.836 161.972 131.836 162.588C131.836 163.22 131.68 163.764 131.368 164.22C131.064 164.676 130.624 165.016 130.048 165.24L131.98 168H130.3ZM130.264 162.588C130.264 162.052 130.088 161.64 129.736 161.352C129.384 161.064 128.868 160.92 128.188 160.92H126.364V164.268H128.188C128.868 164.268 129.384 164.124 129.736 163.836C130.088 163.54 130.264 163.124 130.264 162.588ZM142.286 168.12C141.438 168.12 140.67 167.936 139.982 167.568C139.302 167.192 138.766 166.676 138.374 166.02C137.99 165.364 137.798 164.624 137.798 163.8C137.798 162.976 137.994 162.236 138.386 161.58C138.778 160.924 139.314 160.412 139.994 160.044C140.682 159.668 141.45 159.48 142.298 159.48C142.986 159.48 143.614 159.6 144.182 159.84C144.75 160.08 145.23 160.428 145.622 160.884L144.614 161.832C144.006 161.176 143.258 160.848 142.37 160.848C141.794 160.848 141.278 160.976 140.822 161.232C140.366 161.48 140.01 161.828 139.754 162.276C139.498 162.724 139.37 163.232 139.37 163.8C139.37 164.368 139.498 164.876 139.754 165.324C140.01 165.772 140.366 166.124 140.822 166.38C141.278 166.628 141.794 166.752 142.37 166.752C143.258 166.752 144.006 166.42 144.614 165.756L145.622 166.716C145.23 167.172 144.746 167.52 144.17 167.76C143.602 168 142.974 168.12 142.286 168.12ZM153.139 166.056H148.939L148.111 168H146.502L150.283 159.6H151.819L155.611 168H153.979L153.139 166.056ZM152.622 164.832L151.039 161.16L149.467 164.832H152.622ZM162.925 168L161.209 165.54C161.137 165.548 161.029 165.552 160.885 165.552H158.989V168H157.429V159.6H160.885C161.613 159.6 162.245 159.72 162.781 159.96C163.325 160.2 163.741 160.544 164.029 160.992C164.317 161.44 164.461 161.972 164.461 162.588C164.461 163.22 164.305 163.764 163.993 164.22C163.689 164.676 163.249 165.016 162.673 165.24L164.605 168H162.925ZM162.889 162.588C162.889 162.052 162.713 161.64 162.361 161.352C162.009 161.064 161.493 160.92 160.813 160.92H158.989V164.268H160.813C161.493 164.268 162.009 164.124 162.361 163.836C162.713 163.54 162.889 163.124 162.889 162.588ZM173.256 166.692V168H166.956V159.6H173.088V160.908H168.516V163.092H172.572V164.376H168.516V166.692H173.256ZM89.4978 184.12C88.3378 184.12 87.4338 183.796 86.7858 183.148C86.1378 182.492 85.8138 181.556 85.8138 180.34V175.6H87.3738V180.28C87.3738 181.928 88.0858 182.752 89.5098 182.752C90.9258 182.752 91.6338 181.928 91.6338 180.28V175.6H93.1698V180.34C93.1698 181.556 92.8458 182.492 92.1978 183.148C91.5578 183.796 90.6578 184.12 89.4978 184.12ZM103.569 175.6V184H102.285L97.6526 178.312V184H96.1046V175.6H97.3886L102.021 181.288V175.6H103.569ZM106.569 175.6H108.129V184H106.569V175.6ZM112.855 176.92H110.071V175.6H117.199V176.92H114.415V184H112.855V176.92Z" fill="white" fill-opacity="0.87"/>
<path d="M72.9151 59.0011H92.5365C93.7325 59.0011 94.8225 59.5805 95.5287 60.5903C96.2381 61.5984 96.4371 62.8631 96.0785 64.0582L85.6674 98.8141L116.079 98.2247L106.167 64.0235C105.821 62.8316 106.028 61.5752 106.736 60.5754C107.444 59.5755 108.532 59.0011 109.72 59.0011H126.923L122.925 55.3064L76.495 55.0001L72.9151 59.0011V59.0011ZM84.492 99.7377L84.669 99.1418L95.2617 63.7884C95.535 62.8697 95.3818 61.898 94.8383 61.1233C94.2949 60.3453 93.456 59.9016 92.5365 59.9016H70.9324L76.1237 54.0996L123.252 54.4075L129.193 59.9016H109.72C108.807 59.9016 107.97 60.3436 107.426 61.1117C106.883 61.8798 106.722 62.8465 106.987 63.7619L117.232 99.1037L84.492 99.7377V99.7377Z" fill="white"/>
<path d="M99.2504 79.8937L99.2583 79.8854L100.966 79.8887V79.8937H99.2504V79.8937ZM102.972 79.8937H101.615V79.8904L102.972 79.8937ZM105.126 80.8025L101.731 75.6328L101.615 75.8166V75.6394L97.5916 80.7926H100.966L99.4968 91.0276L103.222 90.9117L101.615 80.7926L105.126 80.8025V80.8025Z" fill="white"/>
<defs>
<filter id="filter0_d" x="0" y="0" width="208" height="208" filterUnits="userSpaceOnUse" color-interpolation-filters="sRGB">
<feFlood flood-opacity="0" result="BackgroundImageFix"/>
<feColorMatrix in="SourceAlpha" type="matrix" values="0 0 0 0 0 0 0 0 0 0 0 0 0 0 0 0 0 0 127 0"/>
<feOffset dx="4" dy="4"/>
<feGaussianBlur stdDeviation="2"/>
<feColorMatrix type="matrix" values="0 0 0 0 0 0 0 0 0 0 0 0 0 0 0 0 0 0 0.25 0"/>
<feBlend mode="normal" in2="BackgroundImageFix" result="effect1_dropShadow"/>
<feBlend mode="normal" in="SourceGraphic" in2="effect1_dropShadow" result="shape"/>
</filter>
</defs>
</svg>
