<svg width="208" height="208" viewBox="0 0 208 208" fill="none" xmlns="http://www.w3.org/2000/svg">
<g filter="url(#filter0_d)">
<rect width="200" height="200" rx="8" fill="#121212"/>
<rect width="200" height="200" rx="8" fill="white" fill-opacity="0.08"/>
</g>
<path d="M42.222 140.279H46.2C47.1707 140.279 48.033 140.47 48.787 140.851C49.541 141.224 50.126 141.757 50.542 142.45C50.958 143.135 51.166 143.928 51.166 144.829C51.166 145.73 50.958 146.528 50.542 147.221C50.126 147.906 49.541 148.439 48.787 148.82C48.033 149.193 47.1707 149.379 46.2 149.379H42.222V140.279ZM46.122 147.949C46.7893 147.949 47.3743 147.823 47.877 147.572C48.3883 147.312 48.7783 146.948 49.047 146.48C49.3243 146.003 49.463 145.453 49.463 144.829C49.463 144.205 49.3243 143.659 49.047 143.191C48.7783 142.714 48.3883 142.35 47.877 142.099C47.3743 141.839 46.7893 141.709 46.122 141.709H43.912V147.949H46.122ZM56.5332 149.509C55.8312 149.509 55.1509 149.409 54.4922 149.21C53.8422 149.011 53.3266 148.746 52.9452 148.417L53.5302 147.104C53.9029 147.399 54.3579 147.641 54.8952 147.832C55.4412 148.014 55.9872 148.105 56.5332 148.105C57.2092 148.105 57.7119 147.997 58.0412 147.78C58.3792 147.563 58.5482 147.277 58.5482 146.922C58.5482 146.662 58.4529 146.45 58.2622 146.285C58.0802 146.112 57.8462 145.977 57.5602 145.882C57.2742 145.787 56.8842 145.678 56.3902 145.557C55.6969 145.392 55.1336 145.228 54.7002 145.063C54.2756 144.898 53.9072 144.643 53.5952 144.296C53.2919 143.941 53.1402 143.464 53.1402 142.866C53.1402 142.363 53.2746 141.908 53.5432 141.501C53.8206 141.085 54.2322 140.756 54.7782 140.513C55.3329 140.27 56.0089 140.149 56.8062 140.149C57.3609 140.149 57.9069 140.218 58.4442 140.357C58.9816 140.496 59.4452 140.695 59.8352 140.955L59.3022 142.268C58.9036 142.034 58.4876 141.856 58.0542 141.735C57.6209 141.614 57.2006 141.553 56.7932 141.553C56.1259 141.553 55.6276 141.666 55.2982 141.891C54.9776 142.116 54.8172 142.415 54.8172 142.788C54.8172 143.048 54.9082 143.26 55.0902 143.425C55.2809 143.59 55.5192 143.72 55.8052 143.815C56.0912 143.91 56.4812 144.019 56.9752 144.14C57.6512 144.296 58.2059 144.461 58.6392 144.634C59.0726 144.799 59.4409 145.054 59.7442 145.401C60.0562 145.748 60.2122 146.216 60.2122 146.805C60.2122 147.308 60.0736 147.763 59.7962 148.17C59.5276 148.577 59.1159 148.902 58.5612 149.145C58.0066 149.388 57.3306 149.509 56.5332 149.509ZM68.852 144.725H70.451V148.352C69.983 148.725 69.437 149.011 68.813 149.21C68.189 149.409 67.5477 149.509 66.889 149.509C65.9617 149.509 65.1253 149.31 64.38 148.911C63.6347 148.504 63.0497 147.945 62.625 147.234C62.2003 146.523 61.988 145.722 61.988 144.829C61.988 143.936 62.2003 143.135 62.625 142.424C63.0497 141.713 63.6347 141.159 64.38 140.76C65.134 140.353 65.979 140.149 66.915 140.149C67.6777 140.149 68.371 140.275 68.995 140.526C69.619 140.777 70.1433 141.146 70.568 141.631L69.502 142.671C68.8087 141.978 67.9723 141.631 66.993 141.631C66.3517 141.631 65.7797 141.765 65.277 142.034C64.783 142.303 64.393 142.68 64.107 143.165C63.8297 143.65 63.691 144.205 63.691 144.829C63.691 145.436 63.8297 145.982 64.107 146.467C64.393 146.952 64.783 147.334 65.277 147.611C65.7797 147.888 66.3473 148.027 66.98 148.027C67.6907 148.027 68.3147 147.871 68.852 147.559V144.725ZM83.7268 149.379L81.8678 146.714C81.7898 146.723 81.6728 146.727 81.5168 146.727H79.4628V149.379H77.7728V140.279H81.5168C82.3054 140.279 82.9901 140.409 83.5708 140.669C84.1601 140.929 84.6108 141.302 84.9228 141.787C85.2348 142.272 85.3908 142.849 85.3908 143.516C85.3908 144.201 85.2218 144.79 84.8838 145.284C84.5544 145.778 84.0778 146.146 83.4538 146.389L85.5468 149.379H83.7268ZM83.6878 143.516C83.6878 142.935 83.4971 142.489 83.1158 142.177C82.7344 141.865 82.1754 141.709 81.4388 141.709H79.4628V145.336H81.4388C82.1754 145.336 82.7344 145.18 83.1158 144.868C83.4971 144.547 83.6878 144.097 83.6878 143.516ZM94.8566 147.962V149.379H88.0316V140.279H94.6746V141.696H89.7216V144.062H94.1156V145.453H89.7216V147.962H94.8566ZM105.85 149.379L105.837 143.347L102.847 148.339H102.093L99.1026 143.425V149.379H97.4906V140.279H98.8816L102.496 146.311L106.045 140.279H107.436L107.449 149.379H105.85ZM116.559 147.273H112.009L111.112 149.379H109.37L113.465 140.279H115.129L119.237 149.379H117.469L116.559 147.273ZM116 145.947L114.284 141.969L112.581 145.947H116ZM124.888 140.279C125.677 140.279 126.361 140.409 126.942 140.669C127.531 140.929 127.982 141.302 128.294 141.787C128.606 142.272 128.762 142.849 128.762 143.516C128.762 144.175 128.606 144.751 128.294 145.245C127.982 145.73 127.531 146.103 126.942 146.363C126.361 146.623 125.677 146.753 124.888 146.753H122.834V149.379H121.144V140.279H124.888ZM124.81 145.323C125.547 145.323 126.106 145.167 126.487 144.855C126.868 144.543 127.059 144.097 127.059 143.516C127.059 142.935 126.868 142.489 126.487 142.177C126.106 141.865 125.547 141.709 124.81 141.709H122.834V145.323H124.81ZM134.147 149.509C133.445 149.509 132.765 149.409 132.106 149.21C131.456 149.011 130.941 148.746 130.559 148.417L131.144 147.104C131.517 147.399 131.972 147.641 132.509 147.832C133.055 148.014 133.601 148.105 134.147 148.105C134.823 148.105 135.326 147.997 135.655 147.78C135.993 147.563 136.162 147.277 136.162 146.922C136.162 146.662 136.067 146.45 135.876 146.285C135.694 146.112 135.46 145.977 135.174 145.882C134.888 145.787 134.498 145.678 134.004 145.557C133.311 145.392 132.748 145.228 132.314 145.063C131.89 144.898 131.521 144.643 131.209 144.296C130.906 143.941 130.754 143.464 130.754 142.866C130.754 142.363 130.889 141.908 131.157 141.501C131.435 141.085 131.846 140.756 132.392 140.513C132.947 140.27 133.623 140.149 134.42 140.149C134.975 140.149 135.521 140.218 136.058 140.357C136.596 140.496 137.059 140.695 137.449 140.955L136.916 142.268C136.518 142.034 136.102 141.856 135.668 141.735C135.235 141.614 134.815 141.553 134.407 141.553C133.74 141.553 133.242 141.666 132.912 141.891C132.592 142.116 132.431 142.415 132.431 142.788C132.431 143.048 132.522 143.26 132.704 143.425C132.895 143.59 133.133 143.72 133.419 143.815C133.705 143.91 134.095 144.019 134.589 144.14C135.265 144.296 135.82 144.461 136.253 144.634C136.687 144.799 137.055 145.054 137.358 145.401C137.67 145.748 137.826 146.216 137.826 146.805C137.826 147.308 137.688 147.763 137.41 148.17C137.142 148.577 136.73 148.902 136.175 149.145C135.621 149.388 134.945 149.509 134.147 149.509Z" fill="white" fill-opacity="0.87"/>
<path d="M77.6254 84.0852C77.3088 83.8398 77.1198 83.4618 77.1115 83.0606L76.9938 76.7555C76.9838 76.2316 77.2806 75.7524 77.7547 75.5269L77.8725 75.4722C78.7561 75.0527 79.7741 75.696 79.7741 76.6725V83.034C79.7741 84.1415 78.4992 84.7649 77.6254 84.0852ZM89.0072 75.1987L84.917 63.2018C84.7446 62.6912 84.2771 62.3364 83.7382 62.3033L81.0358 62.1457C80.2715 62.0993 79.6266 62.7062 79.6266 63.4721V74.2769L80.2151 71.334L75.7288 74.6317C75.4021 74.8721 75.2032 75.2501 75.1883 75.6563L74.9346 82.7423C74.923 83.0722 75.0341 83.3922 75.2446 83.6442L79.3165 88.5036C79.5171 88.744 79.6266 89.0457 79.6266 89.3591V98.6982C79.6266 99.4343 80.2218 100.03 80.9579 100.03H83.5658C84.0416 100.03 84.4826 99.7759 84.7181 99.363L90.8707 88.666C91.0215 88.4024 91.0779 88.0924 91.0315 87.7923L89.0619 75.4192C89.0519 75.3446 89.032 75.2716 89.0072 75.1987Z" fill="white"/>
<path d="M103.24 81.8273C103.24 82.9613 103.096 83.6991 102.809 84.0406C102.479 84.4269 101.758 84.6226 100.652 84.6226H95.7002V77.8549H100.526C101.609 77.8549 102.329 78.0456 102.693 78.4236C103.058 78.8032 103.24 79.5294 103.24 80.6104V81.8273ZM103.615 77.0127C102.987 76.5982 101.995 76.3909 100.641 76.3909H94.0389V86.1014H100.873C102.47 86.1014 103.549 85.7931 104.111 85.1747C104.628 84.6027 104.885 83.5068 104.885 81.882C104.885 80.4147 104.83 79.4067 104.721 78.853C104.554 77.9942 104.184 77.3807 103.615 77.0127Z" fill="white"/>
<path d="M96.4004 83.9767H100.678C101.93 83.9767 102.251 83.713 102.321 83.6318C102.364 83.582 102.589 83.2438 102.589 81.8561V80.6392C102.589 79.424 102.339 79.0343 102.233 78.9233C102.127 78.8138 101.754 78.5602 100.552 78.5602H96.4004V83.9767ZM100.678 85.3262H95.0508V77.2106H100.552C101.835 77.2106 102.704 77.4643 103.205 77.9849C103.699 78.4972 103.941 79.3659 103.941 80.6392V81.8561C103.941 83.1858 103.753 84.0264 103.352 84.5039C102.878 85.0576 102.006 85.3262 100.678 85.3262ZM94.7408 85.4572H100.898C102.269 85.4572 103.216 85.2118 103.637 84.7493C103.909 84.4475 104.236 83.7097 104.236 81.9125C104.236 80.1568 104.153 79.3676 104.083 79.0128C103.951 78.3363 103.685 77.8771 103.273 77.6085L103.268 77.6052C102.913 77.3731 102.173 77.0962 100.663 77.0962H94.7408V85.4572ZM100.898 86.8067H93.3912V75.7433H100.663C102.165 75.7433 103.259 75.9854 104.007 76.4778C104.733 76.9487 105.206 77.7146 105.408 78.7541C105.529 79.3609 105.587 80.3955 105.587 81.9125C105.587 83.7263 105.277 84.9499 104.639 85.6561C103.932 86.4304 102.712 86.8067 100.898 86.8067Z" fill="white"/>
<path d="M115.832 80.8458C115.187 80.5043 114.237 80.3335 112.982 80.3335C112.697 80.3335 112.271 80.3501 111.704 80.3832C111.135 80.4147 110.709 80.4313 110.424 80.4313C108.589 80.4313 107.67 79.992 107.67 79.1166C107.67 78.2777 108.174 77.8565 109.179 77.8565H113.536C114.755 77.8565 115.363 78.2826 115.363 79.1299H117.107C117.107 77.3045 115.967 76.3909 113.689 76.3909H109.068C108.027 76.3909 107.251 76.5766 106.745 76.9447C106.155 77.3791 105.858 78.0937 105.858 79.0884C105.858 80.1876 106.288 80.9519 107.145 81.3846C107.763 81.6897 108.685 81.8422 109.913 81.8422C110.225 81.8422 110.691 81.8306 111.308 81.8074C111.928 81.7842 112.394 81.7726 112.705 81.7726C113.481 81.7726 114.067 81.8422 114.464 81.9815C115.118 82.2003 115.446 82.6215 115.446 83.2382C115.446 83.782 115.255 84.1617 114.879 84.3739C114.592 84.5314 114.158 84.6093 113.578 84.6093H109.386C108.188 84.6093 107.587 84.1849 107.587 83.336H105.915C105.906 85.1713 106.966 86.0882 109.096 86.0882H113.951C115.04 86.0882 115.827 85.8959 116.316 85.5079C116.87 85.0652 117.147 84.3092 117.147 83.2382C117.147 82.1058 116.708 81.3067 115.832 80.8458Z" fill="white"/>
<path d="M113.009 79.6859C113.649 79.6859 114.216 79.7273 114.712 79.8136V79.1587C114.712 78.9515 114.712 78.5602 113.563 78.5602H109.206C108.372 78.5602 108.372 78.8719 108.372 79.1454C108.372 79.7373 109.964 79.7854 110.451 79.7854C110.727 79.7854 111.141 79.7688 111.691 79.7356C112.277 79.7041 112.716 79.6859 113.009 79.6859ZM106.681 84.0397C106.754 84.3746 106.892 84.6415 107.096 84.8471C107.489 85.2433 108.17 85.4423 109.123 85.4423H113.978C115.133 85.4423 115.672 85.2068 115.922 85.0079C116.304 84.7011 116.498 84.1176 116.498 83.2671C116.498 82.385 116.196 81.8147 115.544 81.4715H115.541C114.999 81.183 114.148 81.0371 113.009 81.0371C112.731 81.0371 112.318 81.0537 111.769 81.0852C111.182 81.1184 110.746 81.1349 110.451 81.1349C107.616 81.1349 107.023 80.054 107.023 79.1454C107.023 77.9335 107.838 77.2106 109.206 77.2106H113.563C115.145 77.2106 115.738 77.8804 115.951 78.4823H116.385C116.199 77.7461 115.584 77.0962 113.716 77.0962H109.095C108.215 77.0962 107.55 77.2404 107.17 77.519C106.761 77.8191 106.562 78.3413 106.562 79.1173C106.562 80.2198 107.084 80.6127 107.477 80.8117C107.993 81.0653 108.825 81.1946 109.939 81.1946C110.247 81.1946 110.703 81.183 111.312 81.1615C111.938 81.1366 112.416 81.125 112.733 81.125C113.591 81.125 114.238 81.2062 114.712 81.372C115.636 81.6821 116.148 82.3552 116.148 83.2671C116.148 84.2684 115.651 84.7576 115.234 84.9913C114.84 85.2069 114.309 85.313 113.605 85.313H109.413C107.848 85.313 107.261 84.6415 107.051 84.0397H106.681ZM113.978 86.7935H109.123C107.797 86.7935 106.794 86.4602 106.137 85.8004C105.554 85.2134 105.26 84.3928 105.267 83.3599L105.27 82.6884H108.291V83.3649C108.291 83.587 108.291 83.9617 109.413 83.9617H113.605C114.213 83.9617 114.475 83.8656 114.578 83.8109C114.646 83.7727 114.797 83.6865 114.797 83.2671C114.797 83.0432 114.757 82.8111 114.276 82.6487C114.044 82.5674 113.596 82.4762 112.733 82.4762C112.424 82.4762 111.968 82.4878 111.363 82.511C110.731 82.5343 110.257 82.5475 109.939 82.5475C108.598 82.5475 107.593 82.3751 106.875 82.0203C106.112 81.6356 105.211 80.8216 105.211 79.1173C105.211 77.9003 105.6 76.9951 106.371 76.4297C107.004 75.9688 107.893 75.7433 109.095 75.7433H113.716C117.277 75.7433 117.809 77.8837 117.809 79.1587V79.8351H114.835C115.357 79.9313 115.801 80.0788 116.176 80.2778C116.939 80.6823 117.849 81.5246 117.849 83.2671C117.849 84.547 117.484 85.4871 116.766 86.064C116.148 86.5548 115.236 86.7935 113.978 86.7935Z" fill="white"/>
<path d="M123.359 80.9418V82.3809H127.454C127.454 83.3492 127.296 83.9709 126.985 84.2477C126.698 84.4881 126.061 84.6075 125.073 84.6075H122.196C121.303 84.6075 120.669 84.5064 120.295 84.3025C119.922 84.1002 119.683 83.7504 119.583 83.253C119.519 82.9297 119.486 82.2848 119.486 81.3165C119.486 79.9405 119.62 79.0501 119.885 78.6456C120.247 78.1018 121.072 77.815 122.362 77.7884C123.027 77.7785 123.446 77.7752 123.621 77.7752L125.255 77.7884C125.834 77.7884 126.318 77.8846 126.708 78.0786C127.223 78.3472 127.48 78.7484 127.48 79.2822H129.168C129.18 78.1101 128.745 77.3043 127.868 76.8617C127.25 76.5483 126.293 76.3908 124.992 76.3908H122.307C120.971 76.3908 119.986 76.5566 119.355 76.8898C118.721 77.2214 118.3 77.7752 118.088 78.5494C117.922 79.1679 117.839 80.1676 117.839 81.5503C117.839 83.3392 118.101 84.5395 118.627 85.148C119.199 85.8195 120.369 86.1577 122.142 86.1577H125.116C126.739 86.1577 127.832 85.8526 128.394 85.2442C128.919 84.6722 129.183 83.5614 129.183 81.9101V80.9418H123.359Z" fill="white"/>
<path d="M122.336 76.9312C120.816 76.9312 120.062 77.1617 119.695 77.3523C119.233 77.5944 118.929 78.0005 118.77 78.5924C118.621 79.1429 118.543 80.0945 118.543 81.4159C118.543 83.427 118.883 84.2427 119.168 84.5709C119.47 84.9274 120.232 85.3469 122.169 85.3469H125.143C126.912 85.3469 127.632 84.9705 127.927 84.6505C128.154 84.4035 128.535 83.7006 128.535 81.7757V81.4839H124.064V81.5701H128.157V82.2449C128.157 83.4452 127.935 84.1996 127.459 84.6207C127.017 84.9887 126.295 85.1479 125.103 85.1479H122.225C121.206 85.1479 120.479 85.0219 120.002 84.7633C119.621 84.5577 119.125 84.1283 118.947 83.2529C118.874 82.8749 118.84 82.2001 118.84 81.1805C118.84 79.6353 119 78.6687 119.352 78.1398C119.848 77.3888 120.837 77.0108 122.378 76.9793C123.051 76.9677 123.475 76.966 123.651 76.966L125.287 76.9793C125.967 76.9793 126.559 77.1003 127.038 77.3407C127.552 77.606 127.905 77.9972 128.073 78.4731H128.459C128.308 77.7767 127.909 77.4899 127.594 77.3291C127.234 77.1484 126.499 76.9312 125.019 76.9312H122.336ZM125.143 86.6998H122.169C120.171 86.6998 118.855 86.2902 118.143 85.4496C117.503 84.7135 117.192 83.3905 117.192 81.4159C117.192 79.9536 117.283 78.9141 117.465 78.2377C117.727 77.2777 118.266 76.5764 119.068 76.1553C119.805 75.7706 120.874 75.5816 122.336 75.5816H125.019C126.441 75.5816 127.482 75.759 128.202 76.1254C128.971 76.5117 129.888 77.3539 129.872 79.1545L129.865 79.8226H126.834V79.1478C126.834 78.9439 126.784 78.7301 126.425 78.546C126.143 78.4035 125.757 78.3305 125.281 78.3305L123.644 78.3156C123.475 78.3156 123.061 78.3189 122.401 78.3305C121.03 78.357 120.607 78.6886 120.478 78.8842C120.411 78.9854 120.189 79.4546 120.189 81.1805C120.189 82.3825 120.242 82.8301 120.272 82.986C120.352 83.3772 120.522 83.5099 120.643 83.5745C120.799 83.6591 121.207 83.7984 122.225 83.7984H125.103C126.315 83.7984 126.567 83.6044 126.577 83.5978C126.577 83.5978 126.708 83.4684 126.773 82.9213H122.713V80.1326H129.886V81.7757C129.886 83.6177 129.57 84.8578 128.92 85.5657C128.217 86.3284 126.982 86.6998 125.143 86.6998Z" fill="white"/>
<defs>
<filter id="filter0_d" x="0" y="0" width="208" height="208" filterUnits="userSpaceOnUse" color-interpolation-filters="sRGB">
<feFlood flood-opacity="0" result="BackgroundImageFix"/>
<feColorMatrix in="SourceAlpha" type="matrix" values="0 0 0 0 0 0 0 0 0 0 0 0 0 0 0 0 0 0 127 0"/>
<feOffset dx="4" dy="4"/>
<feGaussianBlur stdDeviation="2"/>
<feColorMatrix type="matrix" values="0 0 0 0 0 0 0 0 0 0 0 0 0 0 0 0 0 0 0.25 0"/>
<feBlend mode="normal" in2="BackgroundImageFix" result="effect1_dropShadow"/>
<feBlend mode="normal" in="SourceGraphic" in2="effect1_dropShadow" result="shape"/>
</filter>
</defs>
</svg>
