<svg width="208" height="208" viewBox="0 0 208 208" fill="none" xmlns="http://www.w3.org/2000/svg">
<g filter="url(#filter0_d)">
<rect width="200" height="200" rx="8" fill="#121212"/>
<rect width="200" height="200" rx="8" fill="white" fill-opacity="0.08"/>
</g>
<path d="M50.521 169.9L47.505 179H45.711L43.462 172.266L41.174 179H39.367L36.351 169.9H38.106L40.368 176.816L42.721 169.9H44.281L46.582 176.855L48.909 169.9H50.521ZM60.7338 169.9V179H59.0438V175.1H54.3378V179H52.6478V169.9H54.3378V173.657H59.0438V169.9H60.7338ZM70.7472 177.583V179H63.9222V169.9H70.5652V171.317H65.6122V173.683H70.0062V175.074H65.6122V177.583H70.7472ZM80.2062 177.583V179H73.3812V169.9H80.0242V171.317H75.0712V173.683H79.4652V175.074H75.0712V177.583H80.2062ZM82.8402 169.9H84.5302V177.57H89.2882V179H82.8402V169.9ZM101.669 179L99.8102 176.335C99.7322 176.344 99.6152 176.348 99.4592 176.348H97.4052V179H95.7152V169.9H99.4592C100.248 169.9 100.932 170.03 101.513 170.29C102.102 170.55 102.553 170.923 102.865 171.408C103.177 171.893 103.333 172.47 103.333 173.137C103.333 173.822 103.164 174.411 102.826 174.905C102.497 175.399 102.02 175.767 101.396 176.01L103.489 179H101.669ZM101.63 173.137C101.63 172.556 101.439 172.11 101.058 171.798C100.677 171.486 100.118 171.33 99.3812 171.33H97.4052V174.957H99.3812C100.118 174.957 100.677 174.801 101.058 174.489C101.439 174.168 101.63 173.718 101.63 173.137ZM112.799 177.583V179H105.974V169.9H112.617V171.317H107.664V173.683H112.058V175.074H107.664V177.583H112.799ZM118.254 179.13C117.552 179.13 116.872 179.03 116.213 178.831C115.563 178.632 115.047 178.367 114.666 178.038L115.251 176.725C115.624 177.02 116.079 177.262 116.616 177.453C117.162 177.635 117.708 177.726 118.254 177.726C118.93 177.726 119.433 177.618 119.762 177.401C120.1 177.184 120.269 176.898 120.269 176.543C120.269 176.283 120.174 176.071 119.983 175.906C119.801 175.733 119.567 175.598 119.281 175.503C118.995 175.408 118.605 175.299 118.111 175.178C117.418 175.013 116.854 174.849 116.421 174.684C115.996 174.519 115.628 174.264 115.316 173.917C115.013 173.562 114.861 173.085 114.861 172.487C114.861 171.984 114.995 171.529 115.264 171.122C115.541 170.706 115.953 170.377 116.499 170.134C117.054 169.891 117.73 169.77 118.527 169.77C119.082 169.77 119.628 169.839 120.165 169.978C120.702 170.117 121.166 170.316 121.556 170.576L121.023 171.889C120.624 171.655 120.208 171.477 119.775 171.356C119.342 171.235 118.921 171.174 118.514 171.174C117.847 171.174 117.348 171.287 117.019 171.512C116.698 171.737 116.538 172.036 116.538 172.409C116.538 172.669 116.629 172.881 116.811 173.046C117.002 173.211 117.24 173.341 117.526 173.436C117.812 173.531 118.202 173.64 118.696 173.761C119.372 173.917 119.927 174.082 120.36 174.255C120.793 174.42 121.162 174.675 121.465 175.022C121.777 175.369 121.933 175.837 121.933 176.426C121.933 176.929 121.794 177.384 121.517 177.791C121.248 178.198 120.837 178.523 120.282 178.766C119.727 179.009 119.051 179.13 118.254 179.13ZM126.078 171.33H123.062V169.9H130.784V171.33H127.768V179H126.078V171.33ZM136.926 179.13C135.999 179.13 135.162 178.931 134.417 178.532C133.672 178.125 133.087 177.566 132.662 176.855C132.237 176.136 132.025 175.334 132.025 174.45C132.025 173.566 132.237 172.769 132.662 172.058C133.087 171.339 133.672 170.78 134.417 170.381C135.162 169.974 135.999 169.77 136.926 169.77C137.853 169.77 138.69 169.974 139.435 170.381C140.18 170.78 140.765 171.334 141.19 172.045C141.615 172.756 141.827 173.557 141.827 174.45C141.827 175.343 141.615 176.144 141.19 176.855C140.765 177.566 140.18 178.125 139.435 178.532C138.69 178.931 137.853 179.13 136.926 179.13ZM136.926 177.648C137.533 177.648 138.079 177.514 138.564 177.245C139.049 176.968 139.431 176.586 139.708 176.101C139.985 175.607 140.124 175.057 140.124 174.45C140.124 173.843 139.985 173.297 139.708 172.812C139.431 172.318 139.049 171.937 138.564 171.668C138.079 171.391 137.533 171.252 136.926 171.252C136.319 171.252 135.773 171.391 135.288 171.668C134.803 171.937 134.421 172.318 134.144 172.812C133.867 173.297 133.728 173.843 133.728 174.45C133.728 175.057 133.867 175.607 134.144 176.101C134.421 176.586 134.803 176.968 135.288 177.245C135.773 177.514 136.319 177.648 136.926 177.648ZM150.322 179L148.463 176.335C148.385 176.344 148.268 176.348 148.112 176.348H146.058V179H144.368V169.9H148.112C148.901 169.9 149.586 170.03 150.166 170.29C150.756 170.55 151.206 170.923 151.518 171.408C151.83 171.893 151.986 172.47 151.986 173.137C151.986 173.822 151.817 174.411 151.479 174.905C151.15 175.399 150.673 175.767 150.049 176.01L152.142 179H150.322ZM150.283 173.137C150.283 172.556 150.093 172.11 149.711 171.798C149.33 171.486 148.771 171.33 148.034 171.33H146.058V174.957H148.034C148.771 174.957 149.33 174.801 149.711 174.489C150.093 174.168 150.283 173.718 150.283 173.137ZM161.452 177.583V179H154.627V169.9H161.27V171.317H156.317V173.683H160.711V175.074H156.317V177.583H161.452Z" fill="white" fill-opacity="0.87"/>
<path d="M99.4977 39.2051C73.145 39.2051 51.7051 60.645 51.7051 87.0023C51.7051 113.35 73.145 134.795 99.4977 134.795C125.85 134.795 147.295 113.35 147.295 87.0023C147.295 60.645 125.85 39.2051 99.4977 39.2051ZM99.4977 137C71.927 137 49.5 114.573 49.5 87.0023C49.5 59.427 71.927 37 99.4977 37C127.068 37 149.5 59.427 149.5 87.0023C149.5 114.573 127.068 137 99.4977 137Z" fill="white" fill-opacity="0.87"/>
<path d="M99.4978 43.8042C75.6808 43.8042 56.3056 63.1793 56.3056 87.0009C56.3056 110.813 75.6808 130.193 99.4978 130.193C123.315 130.193 142.695 110.813 142.695 87.0009C142.695 63.1793 123.315 43.8042 99.4978 43.8042ZM99.4978 131.171C75.1419 131.171 55.3231 111.357 55.3231 87.0009C55.3231 62.6405 75.1419 42.8262 99.4978 42.8262C123.854 42.8262 143.673 62.6405 143.673 87.0009C143.673 111.357 123.854 131.171 99.4978 131.171Z" fill="white" fill-opacity="0.87"/>
<path d="M73.7884 57.2079L78.7423 74.2522L91.7828 64.2189L74.7195 56.2583L73.7884 57.2079Z" fill="white" fill-opacity="0.87"/>
<path d="M112.013 99.8164L110.641 101.048C110.27 101.333 109.83 101.659 109.355 101.963C108.807 102.343 108.241 102.669 107.693 102.927C105.207 104.236 102.364 104.933 99.4796 104.933H99.4388C96.4957 104.924 93.7064 104.222 91.13 102.837L89.5045 101.868C89.029 101.555 88.6623 101.288 88.3453 101.021L88.3317 101.012L88.1823 100.908L86.9417 99.7711L86.8602 99.6896C83.4234 96.2619 81.5353 91.7294 81.5579 86.9298C81.567 85.8793 81.6621 84.8967 81.8477 83.9051C81.9518 83.2304 82.0877 82.6237 82.2552 82.0486C82.3684 81.6638 82.5133 81.2562 82.6492 80.8714L82.7307 80.6495C82.9887 79.9341 83.2514 79.3681 83.5457 78.8519C86.1493 73.6855 91.1527 70.0812 96.9213 69.2526C97.519 69.1575 98.1438 69.1032 98.7551 69.0941C98.9543 69.0715 99.1626 69.0624 99.3754 69.0624C99.3754 69.0624 99.5611 69.0579 99.5701 69.0579C99.8599 69.0579 100.113 69.0624 100.39 69.1032C100.856 69.1077 101.436 69.1621 102.201 69.2662C107.947 70.1401 112.928 73.7806 115.54 78.9968C115.875 79.676 116.12 80.2329 116.296 80.7582C116.5 81.1974 116.641 81.7181 116.767 82.1981C116.967 82.8501 117.107 83.4976 117.184 84.0772C117.338 84.9692 117.428 85.988 117.433 87.0566C117.41 91.9105 115.49 96.4385 112.013 99.8164ZM99.5792 65.517C87.7431 65.4627 78.0623 75.062 78.017 86.8981C77.9627 98.7478 87.5665 108.438 99.4162 108.483C111.243 108.528 120.924 98.9334 120.983 87.0837C121.019 75.2431 111.429 65.5623 99.5792 65.517Z" fill="white" fill-opacity="0.87"/>
<path d="M110.652 98.1051L104.906 88.6689L115.062 84.5982C115.203 85.4087 115.257 86.2419 115.248 87.0569C115.239 91.2453 113.609 95.1665 110.652 98.1051ZM109.28 99.3594C108.913 99.6265 108.574 99.8982 108.157 100.17C108.148 100.17 108.144 100.183 108.135 100.197L102.194 91.9788C102.633 91.7433 103.032 91.4445 103.389 91.1049L109.303 99.3322C109.294 99.3458 109.294 99.3458 109.28 99.3594ZM99.4409 102.769C96.9142 102.751 94.5054 102.158 92.3274 101.026L99.4182 92.6625L106.532 101.089C104.349 102.212 101.945 102.769 99.4409 102.769ZM90.7336 100.084L90.6883 100.043C90.308 99.8122 89.9457 99.536 89.6469 99.2869L89.579 99.2326L95.5513 91.0596C95.9 91.4083 96.303 91.7026 96.7286 91.9335L90.7336 100.084ZM88.2206 97.9965C85.3091 95.0171 83.7062 91.1049 83.7243 86.9301C83.7288 86.1241 83.8103 85.3182 83.9371 84.4941L84.0413 84.5303L94.0797 88.6553L88.2206 97.9965ZM84.3446 82.6557C84.4578 82.2301 84.6073 81.809 84.7612 81.3924C84.7703 81.3834 84.7793 81.3472 84.7929 81.3336L94.4239 84.5122C94.1975 84.9424 94.0435 85.4087 93.9394 85.8932L84.3265 82.7146C84.331 82.701 84.3401 82.6738 84.3446 82.6557ZM97.0139 71.4354L96.2169 82.3795V82.3886H96.2124L85.5581 79.6673C87.881 75.2752 92.1282 72.2097 97.0139 71.4354ZM95.7234 86.5271C95.2706 86.5271 94.8993 86.1649 94.8993 85.7121C94.8993 85.2548 95.2706 84.888 95.7234 84.888C96.1762 84.888 96.5475 85.2548 96.5475 85.7121C96.5475 86.1649 96.1762 86.5271 95.7234 86.5271ZM97.1497 89.3435C97.598 89.3435 97.9693 89.7103 97.9693 90.1676C97.9693 90.6204 97.598 90.9827 97.1497 90.9827C96.6924 90.9827 96.3211 90.6204 96.3211 90.1676C96.3211 89.7103 96.6924 89.3435 97.1497 89.3435ZM99.4952 84.716C100.754 84.716 101.782 85.7438 101.782 87.0026C101.782 88.2613 100.754 89.2847 99.4952 89.2847C98.2364 89.2847 97.2131 88.2613 97.2131 87.0026C97.2131 85.7438 98.2364 84.716 99.4952 84.716ZM99.4952 82.1033C99.9525 82.1033 100.315 82.4701 100.315 82.9274C100.315 83.3847 99.9525 83.747 99.4952 83.747C99.0424 83.747 98.6711 83.3847 98.6711 82.9274C98.6711 82.4701 99.0424 82.1033 99.4952 82.1033ZM98.8024 71.2634C98.8613 71.2498 98.9201 71.2407 98.9745 71.2407C99.1284 71.2317 99.2778 71.2317 99.4409 71.2317H99.6627C99.8121 71.2317 99.9842 71.2317 100.251 71.2634H100.279L100.242 81.3924C99.9978 81.3562 99.7442 81.3381 99.4952 81.3381C99.2371 81.3381 98.9971 81.3562 98.7526 81.3924L98.8024 71.2634ZM102.678 90.1676C102.678 90.6204 102.316 90.9827 101.854 90.9827C101.401 90.9827 101.03 90.6204 101.03 90.1676C101.03 89.7103 101.401 89.3435 101.854 89.3435C102.316 89.3435 102.678 89.7103 102.678 90.1676ZM104.118 85.7121C104.118 86.1649 103.747 86.5271 103.294 86.5271C102.841 86.5271 102.47 86.1649 102.47 85.7121C102.47 85.2548 102.841 84.888 103.294 84.888C103.747 84.888 104.118 85.2548 104.118 85.7121ZM113.505 79.7669L102.814 82.4112L102.085 71.4671C106.971 72.2595 111.195 75.3657 113.505 79.7669ZM114.274 81.5554C114.447 81.963 114.582 82.4157 114.682 82.8052C114.682 82.8187 114.682 82.8187 114.691 82.8323L105.046 85.9204C104.956 85.4404 104.802 84.9786 104.594 84.5484L114.238 81.4422C114.252 81.4875 114.252 81.5102 114.274 81.5554ZM116.443 84.1681C116.371 83.5749 116.221 82.9682 116.04 82.3886C115.923 81.9177 115.796 81.4513 115.597 81.0076C115.397 80.4325 115.144 79.8801 114.877 79.3322C112.427 74.442 107.704 70.8559 102.099 70.0001C101.497 69.9186 100.89 69.8552 100.292 69.8371C100.052 69.8099 99.8167 69.8008 99.5767 69.8008C99.3095 69.8099 99.056 69.8008 98.8115 69.8371C98.2092 69.8461 97.598 69.9005 97.0184 69.9865C91.4082 70.797 86.6494 74.3379 84.1907 79.2235C83.8782 79.7669 83.6428 80.3148 83.4255 80.8944C83.2715 81.3381 83.0994 81.809 82.9636 82.2663C82.7961 82.8414 82.6693 83.4345 82.5697 84.0413C82.3931 84.9922 82.3025 85.943 82.298 86.9301C82.2753 91.7117 84.2405 96.0404 87.3829 99.1647L87.4418 99.2281L88.6824 100.365L88.7367 100.383C89.099 100.695 89.502 100.976 89.8869 101.229L91.4762 102.189C93.8443 103.457 96.5384 104.186 99.4318 104.195C102.293 104.2 104.992 103.512 107.369 102.262C107.917 102.004 108.456 101.687 108.954 101.343C109.366 101.075 109.76 100.786 110.14 100.496L111.49 99.2869C114.668 96.1989 116.665 91.8611 116.688 87.066C116.683 86.0834 116.606 85.1099 116.443 84.1681Z" fill="white" fill-opacity="0.87"/>
<defs>
<filter id="filter0_d" x="0" y="0" width="208" height="208" filterUnits="userSpaceOnUse" color-interpolation-filters="sRGB">
<feFlood flood-opacity="0" result="BackgroundImageFix"/>
<feColorMatrix in="SourceAlpha" type="matrix" values="0 0 0 0 0 0 0 0 0 0 0 0 0 0 0 0 0 0 127 0"/>
<feOffset dx="4" dy="4"/>
<feGaussianBlur stdDeviation="2"/>
<feColorMatrix type="matrix" values="0 0 0 0 0 0 0 0 0 0 0 0 0 0 0 0 0 0 0.25 0"/>
<feBlend mode="normal" in2="BackgroundImageFix" result="effect1_dropShadow"/>
<feBlend mode="normal" in="SourceGraphic" in2="effect1_dropShadow" result="shape"/>
</filter>
</defs>
</svg>
