<svg width="208" height="208" viewBox="0 0 208 208" fill="none" xmlns="http://www.w3.org/2000/svg">
<g filter="url(#filter0_d)">
<rect width="200" height="200" rx="8" fill="#121212"/>
<rect width="200" height="200" rx="8" fill="white" fill-opacity="0.08"/>
</g>
<path d="M63.9705 148.073C63.3225 148.073 62.6945 147.981 62.0865 147.797C61.4865 147.613 61.0105 147.369 60.6585 147.065L61.1985 145.853C61.5425 146.125 61.9625 146.349 62.4585 146.525C62.9625 146.693 63.4665 146.777 63.9705 146.777C64.5945 146.777 65.0585 146.677 65.3625 146.477C65.6745 146.277 65.8305 146.013 65.8305 145.685C65.8305 145.445 65.7425 145.249 65.5665 145.097C65.3985 144.937 65.1825 144.813 64.9185 144.725C64.6545 144.637 64.2945 144.537 63.8385 144.425C63.1985 144.273 62.6785 144.121 62.2785 143.969C61.8865 143.817 61.5465 143.581 61.2585 143.261C60.9785 142.933 60.8385 142.493 60.8385 141.941C60.8385 141.477 60.9625 141.057 61.2105 140.681C61.4665 140.297 61.8465 139.993 62.3505 139.769C62.8625 139.545 63.4865 139.433 64.2225 139.433C64.7345 139.433 65.2385 139.497 65.7345 139.625C66.2305 139.753 66.6585 139.937 67.0185 140.177L66.5265 141.389C66.1585 141.173 65.7745 141.009 65.3745 140.897C64.9745 140.785 64.5865 140.729 64.2105 140.729C63.5945 140.729 63.1345 140.833 62.8305 141.041C62.5345 141.249 62.3865 141.525 62.3865 141.869C62.3865 142.109 62.4705 142.305 62.6385 142.457C62.8145 142.609 63.0345 142.729 63.2985 142.817C63.5625 142.905 63.9225 143.005 64.3785 143.117C65.0025 143.261 65.5145 143.413 65.9145 143.573C66.3145 143.725 66.6545 143.961 66.9345 144.281C67.2225 144.601 67.3665 145.033 67.3665 145.577C67.3665 146.041 67.2385 146.461 66.9825 146.837C66.7345 147.213 66.3545 147.513 65.8425 147.737C65.3305 147.961 64.7065 148.073 63.9705 148.073ZM77.3793 147.953L77.3673 142.385L74.6073 146.993H73.9113L71.1513 142.457V147.953H69.6633V139.553H70.9473L74.2833 145.121L77.5593 139.553H78.8433L78.8553 147.953H77.3793ZM87.3223 146.009H83.1223L82.2943 147.953H80.6863L84.4663 139.553H86.0023L89.7943 147.953H88.1623L87.3223 146.009ZM86.8063 144.785L85.2223 141.113L83.6503 144.785H86.8063ZM97.1086 147.953L95.3926 145.493C95.3206 145.501 95.2126 145.505 95.0686 145.505H93.1726V147.953H91.6126V139.553H95.0686C95.7966 139.553 96.4286 139.673 96.9646 139.913C97.5086 140.153 97.9246 140.497 98.2126 140.945C98.5006 141.393 98.6446 141.925 98.6446 142.541C98.6446 143.173 98.4886 143.717 98.1766 144.173C97.8726 144.629 97.4326 144.969 96.8566 145.193L98.7886 147.953H97.1086ZM97.0726 142.541C97.0726 142.005 96.8966 141.593 96.5446 141.305C96.1926 141.017 95.6766 140.873 94.9966 140.873H93.1726V144.221H94.9966C95.6766 144.221 96.1926 144.077 96.5446 143.789C96.8966 143.493 97.0726 143.077 97.0726 142.541ZM102.727 140.873H99.9427V139.553H107.071V140.873H104.287V147.953H102.727V140.873ZM115.95 144.437L114.618 145.805V147.953H113.058V139.553H114.618V143.861L118.77 139.553H120.522L116.994 143.309L120.738 147.953H118.914L115.95 144.437ZM128.85 146.645V147.953H122.55V139.553H128.682V140.861H124.11V143.045H128.166V144.329H124.11V146.645H128.85ZM134.869 144.989V147.953H133.309V145.013L130.009 139.553H131.677L134.137 143.645L136.621 139.553H138.157L134.869 144.989ZM82.5513 164.073C81.7033 164.073 80.9353 163.889 80.2473 163.521C79.5673 163.145 79.0313 162.629 78.6393 161.973C78.2553 161.317 78.0633 160.577 78.0633 159.753C78.0633 158.929 78.2593 158.189 78.6513 157.533C79.0433 156.877 79.5793 156.365 80.2593 155.997C80.9473 155.621 81.7153 155.433 82.5633 155.433C83.2513 155.433 83.8793 155.553 84.4473 155.793C85.0153 156.033 85.4953 156.381 85.8873 156.837L84.8793 157.785C84.2713 157.129 83.5233 156.801 82.6353 156.801C82.0593 156.801 81.5433 156.929 81.0873 157.185C80.6313 157.433 80.2753 157.781 80.0193 158.229C79.7633 158.677 79.6353 159.185 79.6353 159.753C79.6353 160.321 79.7633 160.829 80.0193 161.277C80.2753 161.725 80.6313 162.077 81.0873 162.333C81.5433 162.581 82.0593 162.705 82.6353 162.705C83.5233 162.705 84.2713 162.373 84.8793 161.709L85.8873 162.669C85.4953 163.125 85.0113 163.473 84.4353 163.713C83.8673 163.953 83.2393 164.073 82.5513 164.073ZM95.5961 155.553V163.953H94.0361V160.353H89.6921V163.953H88.1321V155.553H89.6921V159.021H94.0361V155.553H95.5961ZM104.045 162.009H99.8449L99.0169 163.953H97.4089L101.189 155.553H102.725L106.517 163.953H104.885L104.045 162.009ZM103.529 160.785L101.945 157.113L100.373 160.785H103.529ZM108.335 155.553H109.895V163.953H108.335V155.553ZM120.381 155.553V163.953H119.097L114.465 158.265V163.953H112.917V155.553H114.201L118.833 161.241V155.553H120.381ZM69.0503 182.281C68.5783 181.553 68.2143 180.709 67.9583 179.749C67.7103 178.789 67.5863 177.761 67.5863 176.665C67.5863 175.569 67.7103 174.541 67.9583 173.581C68.2143 172.613 68.5783 171.769 69.0503 171.049H70.4783C69.9903 171.913 69.6303 172.805 69.3983 173.725C69.1743 174.637 69.0623 175.617 69.0623 176.665C69.0623 177.713 69.1743 178.697 69.3983 179.617C69.6303 180.529 69.9903 181.417 70.4783 182.281H69.0503ZM74.1765 172.861V175.417H78.2325V176.737H74.1765V179.953H72.6165V171.553H78.7485V172.861H74.1765ZM81.0071 171.553H82.5671V179.953H81.0071V171.553ZM93.0531 171.553V179.953H91.7691L87.1371 174.265V179.953H85.5891V171.553H86.8731L91.5051 177.241V171.553H93.0531ZM98.658 180.073C98.01 180.073 97.382 179.981 96.774 179.797C96.174 179.613 95.698 179.369 95.346 179.065L95.886 177.853C96.23 178.125 96.65 178.349 97.146 178.525C97.65 178.693 98.154 178.777 98.658 178.777C99.282 178.777 99.746 178.677 100.05 178.477C100.362 178.277 100.518 178.013 100.518 177.685C100.518 177.445 100.43 177.249 100.254 177.097C100.086 176.937 99.87 176.813 99.606 176.725C99.342 176.637 98.982 176.537 98.526 176.425C97.886 176.273 97.366 176.121 96.966 175.969C96.574 175.817 96.234 175.581 95.946 175.261C95.666 174.933 95.526 174.493 95.526 173.941C95.526 173.477 95.65 173.057 95.898 172.681C96.154 172.297 96.534 171.993 97.038 171.769C97.55 171.545 98.174 171.433 98.91 171.433C99.422 171.433 99.926 171.497 100.422 171.625C100.918 171.753 101.346 171.937 101.706 172.177L101.214 173.389C100.846 173.173 100.462 173.009 100.062 172.897C99.662 172.785 99.274 172.729 98.898 172.729C98.282 172.729 97.822 172.833 97.518 173.041C97.222 173.249 97.074 173.525 97.074 173.869C97.074 174.109 97.158 174.305 97.326 174.457C97.502 174.609 97.722 174.729 97.986 174.817C98.25 174.905 98.61 175.005 99.066 175.117C99.69 175.261 100.202 175.413 100.602 175.573C101.002 175.725 101.342 175.961 101.622 176.281C101.91 176.601 102.054 177.033 102.054 177.577C102.054 178.041 101.926 178.461 101.67 178.837C101.422 179.213 101.042 179.513 100.53 179.737C100.018 179.961 99.394 180.073 98.658 180.073ZM116.133 179.953L116.121 174.385L113.361 178.993H112.665L109.905 174.457V179.953H108.417V171.553H109.701L113.037 177.121L116.313 171.553H117.597L117.609 179.953H116.133ZM126.928 178.645V179.953H120.628V171.553H126.76V172.861H122.188V175.045H126.244V176.329H122.188V178.645H126.928ZM128.553 182.281C129.041 181.417 129.401 180.525 129.633 179.605C129.865 178.685 129.981 177.705 129.981 176.665C129.981 175.625 129.865 174.645 129.633 173.725C129.401 172.805 129.041 171.913 128.553 171.049H129.981C130.453 171.761 130.813 172.601 131.061 173.569C131.317 174.529 131.445 175.561 131.445 176.665C131.445 177.769 131.317 178.801 131.061 179.761C130.813 180.713 130.453 181.553 129.981 182.281H128.553Z" fill="white" fill-opacity="0.87"/>
<path d="M92.8129 33.4474C88.1287 33.4474 84.0669 36.9667 83.1806 41.8153L76.6275 77.7107C76.0746 80.7383 76.8329 83.8356 78.7066 86.2127C80.5818 88.5882 83.3434 89.9505 86.285 89.9505L113.72 90.4554C116.629 90.4554 119.37 89.1162 121.24 86.7855C123.112 84.4514 123.901 81.3906 123.402 78.3877L117.444 42.4924C116.622 37.5444 112.548 33.9539 107.756 33.9539L92.8129 33.4474V33.4474ZM113.714 92.1108H113.701L86.2708 91.6059C82.871 91.6059 79.6655 90.025 77.4901 87.2672C75.3147 84.511 74.4331 80.9138 75.0745 77.4011L81.6293 41.5041C82.6561 35.8775 87.3719 31.792 92.8397 31.792L107.783 32.2985C113.317 32.2985 118.047 36.4651 118.999 42.2077L124.958 78.1046C125.537 81.5892 124.623 85.1433 122.449 87.8499C120.275 90.5581 117.092 92.1108 113.714 92.1108" fill="white"/>
<path d="M94.4843 39.0118C91.0007 39.0118 87.969 41.874 87.3039 45.8138L82.2864 75.5412C81.844 78.1716 82.4981 80.8169 84.0827 82.795C85.4887 84.5531 87.4098 85.5198 89.4952 85.5198L110.499 85.9386C112.558 85.937 114.463 84.9851 115.866 83.2602C117.445 81.3201 118.122 78.7079 117.722 76.099L113.159 46.3717C112.545 42.3507 109.504 39.4306 105.93 39.4306L94.4843 39.0118V39.0118ZM110.491 87.594H110.475L89.4794 87.1752C86.9722 87.1752 84.5598 85.9668 82.8709 83.8594C80.9862 81.5038 80.2073 78.3669 80.7319 75.2548L85.7494 45.5274C86.5472 40.7914 90.2329 37.3564 94.5127 37.3564L105.959 37.7753C110.283 37.7753 113.979 41.2797 114.722 46.1101L119.281 75.8375C119.755 78.9248 118.948 82.022 117.068 84.3362C115.36 86.4352 113.024 87.594 110.491 87.594" fill="white"/>
<defs>
<filter id="filter0_d" x="0" y="0" width="208" height="208" filterUnits="userSpaceOnUse" color-interpolation-filters="sRGB">
<feFlood flood-opacity="0" result="BackgroundImageFix"/>
<feColorMatrix in="SourceAlpha" type="matrix" values="0 0 0 0 0 0 0 0 0 0 0 0 0 0 0 0 0 0 127 0"/>
<feOffset dx="4" dy="4"/>
<feGaussianBlur stdDeviation="2"/>
<feColorMatrix type="matrix" values="0 0 0 0 0 0 0 0 0 0 0 0 0 0 0 0 0 0 0.25 0"/>
<feBlend mode="normal" in2="BackgroundImageFix" result="effect1_dropShadow"/>
<feBlend mode="normal" in="SourceGraphic" in2="effect1_dropShadow" result="shape"/>
</filter>
</defs>
</svg>
