<svg width="208" height="209" viewBox="0 0 208 209" fill="none" xmlns="http://www.w3.org/2000/svg">
<g filter="url(#filter0_d)">
<rect y="0.308594" width="200" height="200" rx="8" fill="#121212"/>
<rect y="0.308594" width="200" height="200" rx="8" fill="white" fill-opacity="0.08"/>
</g>
<path d="M42.222 167.9H43.912V175.57H48.67V177H42.222V167.9ZM50.7542 167.9H52.4442V177H50.7542V167.9ZM61.8696 172.346H63.4686V175.973C63.0006 176.346 62.4546 176.632 61.8306 176.831C61.2066 177.03 60.5653 177.13 59.9066 177.13C58.9793 177.13 58.1429 176.931 57.3976 176.532C56.6523 176.125 56.0673 175.566 55.6426 174.855C55.2179 174.144 55.0056 173.343 55.0056 172.45C55.0056 171.557 55.2179 170.756 55.6426 170.045C56.0673 169.334 56.6523 168.78 57.3976 168.381C58.1516 167.974 58.9966 167.77 59.9326 167.77C60.6953 167.77 61.3886 167.896 62.0126 168.147C62.6366 168.398 63.1609 168.767 63.5856 169.252L62.5196 170.292C61.8263 169.599 60.9899 169.252 60.0106 169.252C59.3693 169.252 58.7973 169.386 58.2946 169.655C57.8006 169.924 57.4106 170.301 57.1246 170.786C56.8473 171.271 56.7086 171.826 56.7086 172.45C56.7086 173.057 56.8473 173.603 57.1246 174.088C57.4106 174.573 57.8006 174.955 58.2946 175.232C58.7973 175.509 59.3649 175.648 59.9976 175.648C60.7083 175.648 61.3323 175.492 61.8696 175.18V172.346ZM74.5336 167.9V177H72.8436V173.1H68.1376V177H66.4476V167.9H68.1376V171.657H72.8436V167.9H74.5336ZM79.568 169.33H76.552V167.9H84.274V169.33H81.258V177H79.568V169.33ZM96.5891 177L94.7301 174.335C94.6521 174.344 94.5351 174.348 94.3791 174.348H92.3251V177H90.6351V167.9H94.3791C95.1678 167.9 95.8524 168.03 96.4331 168.29C97.0224 168.55 97.4731 168.923 97.7851 169.408C98.0971 169.893 98.2531 170.47 98.2531 171.137C98.2531 171.822 98.0841 172.411 97.7461 172.905C97.4168 173.399 96.9401 173.767 96.3161 174.01L98.4091 177H96.5891ZM96.5501 171.137C96.5501 170.556 96.3594 170.11 95.9781 169.798C95.5968 169.486 95.0378 169.33 94.3011 169.33H92.3251V172.957H94.3011C95.0378 172.957 95.5968 172.801 95.9781 172.489C96.3594 172.168 96.5501 171.718 96.5501 171.137ZM107.719 175.583V177H100.894V167.9H107.537V169.317H102.584V171.683H106.978V173.074H102.584V175.583H107.719ZM113.174 177.13C112.472 177.13 111.792 177.03 111.133 176.831C110.483 176.632 109.967 176.367 109.586 176.038L110.171 174.725C110.544 175.02 110.999 175.262 111.536 175.453C112.082 175.635 112.628 175.726 113.174 175.726C113.85 175.726 114.353 175.618 114.682 175.401C115.02 175.184 115.189 174.898 115.189 174.543C115.189 174.283 115.094 174.071 114.903 173.906C114.721 173.733 114.487 173.598 114.201 173.503C113.915 173.408 113.525 173.299 113.031 173.178C112.338 173.013 111.774 172.849 111.341 172.684C110.916 172.519 110.548 172.264 110.236 171.917C109.933 171.562 109.781 171.085 109.781 170.487C109.781 169.984 109.915 169.529 110.184 169.122C110.461 168.706 110.873 168.377 111.419 168.134C111.974 167.891 112.65 167.77 113.447 167.77C114.002 167.77 114.548 167.839 115.085 167.978C115.622 168.117 116.086 168.316 116.476 168.576L115.943 169.889C115.544 169.655 115.128 169.477 114.695 169.356C114.262 169.235 113.841 169.174 113.434 169.174C112.767 169.174 112.268 169.287 111.939 169.512C111.618 169.737 111.458 170.036 111.458 170.409C111.458 170.669 111.549 170.881 111.731 171.046C111.922 171.211 112.16 171.341 112.446 171.436C112.732 171.531 113.122 171.64 113.616 171.761C114.292 171.917 114.847 172.082 115.28 172.255C115.713 172.42 116.082 172.675 116.385 173.022C116.697 173.369 116.853 173.837 116.853 174.426C116.853 174.929 116.714 175.384 116.437 175.791C116.168 176.198 115.757 176.523 115.202 176.766C114.647 177.009 113.971 177.13 113.174 177.13ZM120.998 169.33H117.982V167.9H125.704V169.33H122.688V177H120.998V169.33ZM131.846 177.13C130.919 177.13 130.082 176.931 129.337 176.532C128.592 176.125 128.007 175.566 127.582 174.855C127.157 174.136 126.945 173.334 126.945 172.45C126.945 171.566 127.157 170.769 127.582 170.058C128.007 169.339 128.592 168.78 129.337 168.381C130.082 167.974 130.919 167.77 131.846 167.77C132.773 167.77 133.61 167.974 134.355 168.381C135.1 168.78 135.685 169.334 136.11 170.045C136.535 170.756 136.747 171.557 136.747 172.45C136.747 173.343 136.535 174.144 136.11 174.855C135.685 175.566 135.1 176.125 134.355 176.532C133.61 176.931 132.773 177.13 131.846 177.13ZM131.846 175.648C132.453 175.648 132.999 175.514 133.484 175.245C133.969 174.968 134.351 174.586 134.628 174.101C134.905 173.607 135.044 173.057 135.044 172.45C135.044 171.843 134.905 171.297 134.628 170.812C134.351 170.318 133.969 169.937 133.484 169.668C132.999 169.391 132.453 169.252 131.846 169.252C131.239 169.252 130.693 169.391 130.208 169.668C129.723 169.937 129.341 170.318 129.064 170.812C128.787 171.297 128.648 171.843 128.648 172.45C128.648 173.057 128.787 173.607 129.064 174.101C129.341 174.586 129.723 174.968 130.208 175.245C130.693 175.514 131.239 175.648 131.846 175.648ZM145.242 177L143.383 174.335C143.305 174.344 143.188 174.348 143.032 174.348H140.978V177H139.288V167.9H143.032C143.821 167.9 144.506 168.03 145.086 168.29C145.676 168.55 146.126 168.923 146.438 169.408C146.75 169.893 146.906 170.47 146.906 171.137C146.906 171.822 146.737 172.411 146.399 172.905C146.07 173.399 145.593 173.767 144.969 174.01L147.062 177H145.242ZM145.203 171.137C145.203 170.556 145.013 170.11 144.631 169.798C144.25 169.486 143.691 169.33 142.954 169.33H140.978V172.957H142.954C143.691 172.957 144.25 172.801 144.631 172.489C145.013 172.168 145.203 171.718 145.203 171.137ZM156.372 175.583V177H149.547V167.9H156.19V169.317H151.237V171.683H155.631V173.074H151.237V175.583H156.372Z" fill="white" fill-opacity="0.87"/>
<path d="M97.9977 29.2051C71.645 29.2051 50.2051 50.645 50.2051 77.0023C50.2051 103.35 71.645 124.795 97.9977 124.795C124.35 124.795 145.795 103.35 145.795 77.0023C145.795 50.645 124.35 29.2051 97.9977 29.2051ZM97.9977 127C70.427 127 48 104.573 48 77.0023C48 49.427 70.427 27 97.9977 27C125.568 27 148 49.427 148 77.0023C148 104.573 125.568 127 97.9977 127Z" fill="white" fill-opacity="0.87"/>
<path d="M97.9979 33.801C74.1808 33.801 54.8057 53.1761 54.8057 76.9977C54.8057 100.81 74.1808 120.19 97.9979 120.19C121.815 120.19 141.195 100.81 141.195 76.9977C141.195 53.1761 121.815 33.801 97.9979 33.801ZM97.9979 121.168C73.642 121.168 53.8231 101.349 53.8231 76.9977C53.8231 52.6373 73.642 32.8229 97.9979 32.8229C122.354 32.8229 142.173 52.6373 142.173 76.9977C142.173 101.349 122.354 121.168 97.9979 121.168Z" fill="white" fill-opacity="0.87"/>
<path d="M72.2886 47.1678L77.2425 64.2074L90.2835 54.1775L73.224 46.2168L72.2886 47.1678Z" fill="white" fill-opacity="0.87"/>
<path d="M124.758 82.3678C123.309 83.3956 121.548 83.9526 119.764 83.9526C119.646 83.9526 119.524 83.9526 119.397 83.948L83.4406 82.4266C81.2718 82.3361 79.2251 81.4395 77.6856 79.8955L71.2197 73.4341L71.5548 69.3408L80.0854 77.4957C81.0227 78.433 82.2634 78.9763 83.581 79.0307L119.547 80.5521C120.719 80.6064 121.851 80.2623 122.798 79.5967L130.513 75.123L127.733 80.2668L124.758 82.3678ZM99.9496 70.3325C92.2837 68.9877 84.8941 68.2587 77.2283 68.2587C72.2521 68.3175 71.2423 67.6474 70.2371 72.2885C69.5715 75.3087 69.5715 79.3431 70.2371 82.0237C72.2521 91.7044 84.6179 91.7044 92.6143 91.7044C107.335 91.7044 120.085 95.3404 131.668 74.5842C121.711 71.6184 110.015 71.9535 99.9496 70.3325Z" fill="white" fill-opacity="0.87"/>
<defs>
<filter id="filter0_d" x="0" y="0.308594" width="208" height="208" filterUnits="userSpaceOnUse" color-interpolation-filters="sRGB">
<feFlood flood-opacity="0" result="BackgroundImageFix"/>
<feColorMatrix in="SourceAlpha" type="matrix" values="0 0 0 0 0 0 0 0 0 0 0 0 0 0 0 0 0 0 127 0"/>
<feOffset dx="4" dy="4"/>
<feGaussianBlur stdDeviation="2"/>
<feColorMatrix type="matrix" values="0 0 0 0 0 0 0 0 0 0 0 0 0 0 0 0 0 0 0.25 0"/>
<feBlend mode="normal" in2="BackgroundImageFix" result="effect1_dropShadow"/>
<feBlend mode="normal" in="SourceGraphic" in2="effect1_dropShadow" result="shape"/>
</filter>
</defs>
</svg>
