<svg width="208" height="208" viewBox="0 0 208 208" fill="none" xmlns="http://www.w3.org/2000/svg">
<g filter="url(#filter0_d)">
<rect width="200" height="200" rx="8" fill="#121212"/>
<rect width="200" height="200" rx="8" fill="white" fill-opacity="0.08"/>
</g>
<path d="M63.124 151.894H58.574L57.677 154H55.935L60.03 144.9H61.694L65.802 154H64.034L63.124 151.894ZM62.565 150.568L60.849 146.59L59.146 150.568H62.565ZM67.7093 144.9H71.6873C72.658 144.9 73.5203 145.091 74.2743 145.472C75.0283 145.845 75.6133 146.378 76.0293 147.071C76.4453 147.756 76.6533 148.549 76.6533 149.45C76.6533 150.351 76.4453 151.149 76.0293 151.842C75.6133 152.527 75.0283 153.06 74.2743 153.441C73.5203 153.814 72.658 154 71.6873 154H67.7093V144.9ZM71.6093 152.57C72.2766 152.57 72.8616 152.444 73.3643 152.193C73.8756 151.933 74.2656 151.569 74.5343 151.101C74.8116 150.624 74.9503 150.074 74.9503 149.45C74.9503 148.826 74.8116 148.28 74.5343 147.812C74.2656 147.335 73.8756 146.971 73.3643 146.72C72.8616 146.46 72.2766 146.33 71.6093 146.33H69.3993V152.57H71.6093ZM85.6475 149.268C86.1502 149.433 86.5489 149.71 86.8435 150.1C87.1382 150.481 87.2855 150.958 87.2855 151.53C87.2855 152.319 86.9822 152.93 86.3755 153.363C85.7689 153.788 84.8849 154 83.7235 154H79.1995V144.9H83.4635C84.5382 144.9 85.3659 145.112 85.9465 145.537C86.5272 145.953 86.8175 146.529 86.8175 147.266C86.8175 147.717 86.7135 148.115 86.5055 148.462C86.2975 148.809 86.0115 149.077 85.6475 149.268ZM80.8895 146.226V148.735H83.2815C83.8709 148.735 84.3215 148.631 84.6335 148.423C84.9542 148.206 85.1145 147.894 85.1145 147.487C85.1145 147.071 84.9542 146.759 84.6335 146.551C84.3215 146.334 83.8709 146.226 83.2815 146.226H80.8895ZM83.6195 152.674C84.9282 152.674 85.5825 152.236 85.5825 151.361C85.5825 150.486 84.9282 150.048 83.6195 150.048H80.8895V152.674H83.6195ZM89.8392 144.9H91.5292V152.57H96.2872V154H89.8392V144.9ZM102.157 154.13C100.901 154.13 99.9215 153.779 99.2195 153.077C98.5175 152.366 98.1665 151.352 98.1665 150.035V144.9H99.8565V149.97C99.8565 151.755 100.628 152.648 102.17 152.648C103.704 152.648 104.471 151.755 104.471 149.97V144.9H106.135V150.035C106.135 151.352 105.784 152.366 105.082 153.077C104.389 153.779 103.414 154.13 102.157 154.13ZM116.077 152.583V154H109.252V144.9H115.895V146.317H110.942V148.683H115.336V150.074H110.942V152.583H116.077ZM127.305 154.13C126.378 154.13 125.541 153.931 124.796 153.532C124.051 153.125 123.466 152.566 123.041 151.855C122.616 151.136 122.404 150.334 122.404 149.45C122.404 148.566 122.616 147.769 123.041 147.058C123.466 146.339 124.051 145.78 124.796 145.381C125.541 144.974 126.378 144.77 127.305 144.77C128.232 144.77 129.069 144.974 129.814 145.381C130.559 145.78 131.144 146.334 131.569 147.045C131.994 147.756 132.206 148.557 132.206 149.45C132.206 150.343 131.994 151.144 131.569 151.855C131.144 152.566 130.559 153.125 129.814 153.532C129.069 153.931 128.232 154.13 127.305 154.13ZM127.305 152.648C127.912 152.648 128.458 152.514 128.943 152.245C129.428 151.968 129.81 151.586 130.087 151.101C130.364 150.607 130.503 150.057 130.503 149.45C130.503 148.843 130.364 148.297 130.087 147.812C129.81 147.318 129.428 146.937 128.943 146.668C128.458 146.391 127.912 146.252 127.305 146.252C126.698 146.252 126.152 146.391 125.667 146.668C125.182 146.937 124.8 147.318 124.523 147.812C124.246 148.297 124.107 148.843 124.107 149.45C124.107 150.057 124.246 150.607 124.523 151.101C124.8 151.586 125.182 151.968 125.667 152.245C126.152 152.514 126.698 152.648 127.305 152.648ZM136.437 146.317V149.086H140.831V150.516H136.437V154H134.747V144.9H141.39V146.317H136.437ZM145.465 146.317V149.086H149.859V150.516H145.465V154H143.775V144.9H150.418V146.317H145.465Z" fill="white" fill-opacity="0.87"/>
<path d="M83.8251 67.976C82.3904 64.1514 81.6551 62.313 81.399 61.4503H81.3801C81.0674 62.4245 80.2409 64.7045 79.0812 67.976H83.8251ZM78.734 68.8952L77.0967 73.3436H76.0863L80.8097 60.4777H81.9866L86.9127 73.3436H85.8285L84.155 68.8952H78.734Z" fill="white"/>
<path d="M88.4157 68.8895C88.4157 71.4083 89.7199 72.7691 91.3007 72.7691C93.7283 72.7691 94.3899 71.0941 94.3899 68.5957C94.3899 66.2246 93.8195 64.8638 91.4657 64.8638C89.6461 64.8638 88.4157 66.3157 88.4157 68.8895ZM95.2714 59.8639V70.7641C95.2714 71.6472 95.2714 72.4926 95.2902 73.4118H94.4072C94.371 73.1902 94.3522 72.3276 94.3522 71.8687C93.8933 72.9875 92.8641 73.6333 91.2645 73.6333C88.8746 73.6333 87.4415 71.6833 87.4415 68.9257C87.4415 66.0957 89.0034 64.0012 91.5034 64.0012C93.3418 64.0012 94.0772 64.7916 94.3522 65.3792V59.8639H95.2714Z" fill="white"/>
<path d="M99.0036 72.4259H102.625C104.316 72.4259 105.732 71.5806 105.732 69.6871C105.732 68.0514 104.684 66.9295 102.093 66.9295H99.0036V72.4259ZM102.182 66.0103C104.407 66.0103 105.254 65.1837 105.254 63.6941C105.254 62.4261 104.371 61.3953 102.57 61.3953H99.0036V66.0103H102.182ZM98.0294 60.4777H102.514C104.978 60.4777 106.302 61.7834 106.302 63.6391C106.302 65.1649 105.382 66.1579 104.316 66.4518C105.235 66.7079 106.761 67.6098 106.761 69.6321C106.761 72.2044 104.832 73.3451 102.588 73.3451H98.0294V60.4777Z" fill="white"/>
<path d="M109.383 59.8639H108.464V73.4118H109.383V59.8639Z" fill="white"/>
<path d="M118.58 70.6688C118.58 71.5691 118.599 73.0022 118.599 73.3526H117.714C117.679 73.1137 117.659 72.5072 117.659 71.753C117.274 72.8387 116.336 73.5741 114.7 73.5741C113.377 73.5741 111.686 73.0587 111.686 70.2445V64.1604H112.588V70.0245C112.588 71.3664 113.009 72.6722 114.829 72.6722C116.887 72.6722 117.659 71.5141 117.659 68.8853V64.1604H118.58V70.6688Z" fill="white"/>
<path d="M126.892 68.1238C126.872 66.3042 125.879 64.8712 124.078 64.8712C122.186 64.8712 121.322 66.1926 121.119 68.1238H126.892ZM121.064 68.933C121.083 71.3026 122.277 72.7749 124.043 72.7749C125.77 72.7749 126.358 71.8007 126.689 71.0449H127.628C127.241 72.2595 126.267 73.6391 124.006 73.6391C121.212 73.6391 120.126 71.2303 120.126 68.8953C120.126 66.2665 121.432 64.007 124.116 64.007C126.947 64.007 127.848 66.4519 127.848 68.1788C127.848 68.4349 127.848 68.6926 127.829 68.933H121.064Z" fill="white"/>
<path d="M126.075 81.7217C124.312 80.2384 121.741 80.1033 119.831 81.3886L118.773 82.102C117.298 83.095 115.365 82.9411 114.064 81.7327C112.271 80.0671 109.523 79.8833 107.527 81.2975L106.423 82.0815C105.06 83.0479 103.194 83.0008 101.882 81.9684L100.854 81.1608C99.0737 79.7623 96.6193 79.6727 94.7447 80.9345L93.3792 81.8553C91.9902 82.7918 90.1801 82.7132 88.8759 81.662L87.0626 80.1991C85.2901 78.7692 82.8247 78.6576 80.9297 79.921L75.4725 83.5507L76.2441 84.7119L81.7028 81.0806C83.0887 80.1598 84.8894 80.24 86.1873 81.2865L88.0022 82.7478C89.7825 84.1855 92.2589 84.2924 94.1586 83.0118L95.5241 82.0926C96.8958 81.1686 98.6903 81.2346 99.9897 82.2575L101.019 83.0652C102.813 84.4794 105.368 84.5407 107.229 83.2208L108.335 82.4367C109.798 81.4043 111.808 81.5379 113.115 82.7541C114.894 84.4087 117.538 84.6145 119.553 83.26L120.61 82.5451C122.012 81.6023 123.888 81.7045 125.176 82.7902L128.044 85.2022L128.943 84.1337L126.075 81.7217Z" fill="white"/>
<defs>
<filter id="filter0_d" x="0" y="0" width="208" height="208" filterUnits="userSpaceOnUse" color-interpolation-filters="sRGB">
<feFlood flood-opacity="0" result="BackgroundImageFix"/>
<feColorMatrix in="SourceAlpha" type="matrix" values="0 0 0 0 0 0 0 0 0 0 0 0 0 0 0 0 0 0 127 0"/>
<feOffset dx="4" dy="4"/>
<feGaussianBlur stdDeviation="2"/>
<feColorMatrix type="matrix" values="0 0 0 0 0 0 0 0 0 0 0 0 0 0 0 0 0 0 0.25 0"/>
<feBlend mode="normal" in2="BackgroundImageFix" result="effect1_dropShadow"/>
<feBlend mode="normal" in="SourceGraphic" in2="effect1_dropShadow" result="shape"/>
</filter>
</defs>
</svg>
