<svg width="208" height="209" viewBox="0 0 208 209" fill="none" xmlns="http://www.w3.org/2000/svg">
<g filter="url(#filter0_d)">
<rect y="0.308594" width="200" height="200" rx="8" fill="#121212"/>
<rect y="0.308594" width="200" height="200" rx="8" fill="white" fill-opacity="0.08"/>
</g>
<path d="M33.043 177.13C32.341 177.13 31.6607 177.03 31.002 176.831C30.352 176.632 29.8363 176.367 29.455 176.038L30.04 174.725C30.4127 175.02 30.8677 175.262 31.405 175.453C31.951 175.635 32.497 175.726 33.043 175.726C33.719 175.726 34.2217 175.618 34.551 175.401C34.889 175.184 35.058 174.898 35.058 174.543C35.058 174.283 34.9627 174.071 34.772 173.906C34.59 173.733 34.356 173.598 34.07 173.503C33.784 173.408 33.394 173.299 32.9 173.178C32.2067 173.013 31.6433 172.849 31.21 172.684C30.7853 172.519 30.417 172.264 30.105 171.917C29.8017 171.562 29.65 171.085 29.65 170.487C29.65 169.984 29.7843 169.529 30.053 169.122C30.3303 168.706 30.742 168.377 31.288 168.134C31.8427 167.891 32.5187 167.77 33.316 167.77C33.8707 167.77 34.4167 167.839 34.954 167.978C35.4913 168.117 35.955 168.316 36.345 168.576L35.812 169.889C35.4133 169.655 34.9973 169.477 34.564 169.356C34.1307 169.235 33.7103 169.174 33.303 169.174C32.6357 169.174 32.1373 169.287 31.808 169.512C31.4873 169.737 31.327 170.036 31.327 170.409C31.327 170.669 31.418 170.881 31.6 171.046C31.7907 171.211 32.029 171.341 32.315 171.436C32.601 171.531 32.991 171.64 33.485 171.761C34.161 171.917 34.7157 172.082 35.149 172.255C35.5823 172.42 35.9507 172.675 36.254 173.022C36.566 173.369 36.722 173.837 36.722 174.426C36.722 174.929 36.5833 175.384 36.306 175.791C36.0373 176.198 35.6257 176.523 35.071 176.766C34.5163 177.009 33.8403 177.13 33.043 177.13ZM40.8668 169.33H37.8508V167.9H45.5728V169.33H42.5568V177H40.8668V169.33ZM54.4161 175.583V177H47.5911V167.9H54.2341V169.317H49.2811V171.683H53.6751V173.074H49.2811V175.583H54.4161ZM62.9521 174.894H58.4021L57.5051 177H55.7631L59.8581 167.9H61.5221L65.6301 177H63.8621L62.9521 174.894ZM62.3931 173.568L60.6771 169.59L58.9741 173.568H62.3931ZM75.8964 177L75.8834 170.968L72.8934 175.96H72.1394L69.1494 171.046V177H67.5374V167.9H68.9284L72.5424 173.932L76.0914 167.9H77.4824L77.4954 177H75.8964ZM91.8712 175.583V177H85.0462V167.9H91.6892V169.317H86.7362V171.683H91.1302V173.074H86.7362V175.583H91.8712ZM102.591 167.9V177H101.2L96.1822 170.838V177H94.5052V167.9H95.8962L100.914 174.062V167.9H102.591ZM111.994 172.346H113.593V175.973C113.125 176.346 112.579 176.632 111.955 176.831C111.331 177.03 110.689 177.13 110.031 177.13C109.103 177.13 108.267 176.931 107.522 176.532C106.776 176.125 106.191 175.566 105.767 174.855C105.342 174.144 105.13 173.343 105.13 172.45C105.13 171.557 105.342 170.756 105.767 170.045C106.191 169.334 106.776 168.78 107.522 168.381C108.276 167.974 109.121 167.77 110.057 167.77C110.819 167.77 111.513 167.896 112.137 168.147C112.761 168.398 113.285 168.767 113.71 169.252L112.644 170.292C111.95 169.599 111.114 169.252 110.135 169.252C109.493 169.252 108.921 169.386 108.419 169.655C107.925 169.924 107.535 170.301 107.249 170.786C106.971 171.271 106.833 171.826 106.833 172.45C106.833 173.057 106.971 173.603 107.249 174.088C107.535 174.573 107.925 174.955 108.419 175.232C108.921 175.509 109.489 175.648 110.122 175.648C110.832 175.648 111.456 175.492 111.994 175.18V172.346ZM116.572 167.9H118.262V177H116.572V167.9ZM129.559 167.9V177H128.168L123.15 170.838V177H121.473V167.9H122.864L127.882 174.062V167.9H129.559ZM139.572 175.583V177H132.747V167.9H139.39V169.317H134.437V171.683H138.831V173.074H134.437V175.583H139.572ZM148.654 172.268C149.157 172.433 149.556 172.71 149.85 173.1C150.145 173.481 150.292 173.958 150.292 174.53C150.292 175.319 149.989 175.93 149.382 176.363C148.776 176.788 147.892 177 146.73 177H142.206V167.9H146.47C147.545 167.9 148.373 168.112 148.953 168.537C149.534 168.953 149.824 169.529 149.824 170.266C149.824 170.717 149.72 171.115 149.512 171.462C149.304 171.809 149.018 172.077 148.654 172.268ZM143.896 169.226V171.735H146.288C146.878 171.735 147.328 171.631 147.64 171.423C147.961 171.206 148.121 170.894 148.121 170.487C148.121 170.071 147.961 169.759 147.64 169.551C147.328 169.334 146.878 169.226 146.288 169.226H143.896ZM146.626 175.674C147.935 175.674 148.589 175.236 148.589 174.361C148.589 173.486 147.935 173.048 146.626 173.048H143.896V175.674H146.626ZM158.748 174.894H154.198L153.301 177H151.559L155.654 167.9H157.318L161.426 177H159.658L158.748 174.894ZM158.189 173.568L156.473 169.59L154.77 173.568H158.189ZM166.713 173.789V177H165.023V173.815L161.448 167.9H163.255L165.92 172.333L168.611 167.9H170.275L166.713 173.789Z" fill="white" fill-opacity="0.87"/>
<path d="M99.5 29.3907C73.1485 29.3907 51.705 50.8296 51.705 77.1811C51.705 103.533 73.1485 124.972 99.5 124.972C125.852 124.972 147.29 103.533 147.29 77.1811C147.29 50.8296 125.852 29.3907 99.5 29.3907ZM99.5 127.181C71.9305 127.181 49.5 104.751 49.5 77.1811C49.5 49.6116 71.9305 27.1812 99.5 27.1812C127.069 27.1812 149.495 49.6116 149.495 77.1811C149.495 104.751 127.069 127.181 99.5 127.181Z" fill="white" fill-opacity="0.87"/>
<path d="M99.4949 33.9865C75.6789 33.9865 56.3001 53.3607 56.3001 77.1767C56.3001 100.993 75.6789 120.367 99.4949 120.367C123.311 120.367 142.685 100.993 142.685 77.1767C142.685 53.3607 123.311 33.9865 99.4949 33.9865ZM99.4949 121.35C75.1401 121.35 55.3221 101.532 55.3221 77.1767C55.3221 52.8219 75.1401 33.004 99.4949 33.004C123.85 33.004 143.668 52.8219 143.668 77.1767C143.668 101.532 123.85 121.35 99.4949 121.35Z" fill="white" fill-opacity="0.87"/>
<path d="M79.2647 44.0175L80.2202 61.736L95.1971 54.9249L80.3916 43.3038L79.2647 44.0175Z" fill="white" fill-opacity="0.87"/>
<path d="M90.6042 76.7611C90.6042 76.9603 90.4457 77.1188 90.251 77.1188C90.0563 77.1188 89.8933 76.9603 89.8933 76.7611C89.8933 76.5619 90.0563 76.3989 90.251 76.3989C90.4457 76.3989 90.6042 76.5619 90.6042 76.7611Z" fill="white" fill-opacity="0.87"/>
<path d="M102.54 80.3444C101.97 80.3444 101.503 80.8108 101.503 81.3813C101.503 81.9563 101.97 82.4181 102.54 82.4181C103.11 82.4181 103.577 81.9563 103.577 81.3813C103.577 80.8108 103.11 80.3444 102.54 80.3444ZM99.7464 86.6652C97.8583 85.6645 96.5679 83.6678 96.5679 81.3813C96.5679 79.4706 97.4644 77.7636 98.8725 76.6724L94.1772 75.6401C94.2859 76.0023 94.3402 76.3781 94.3402 76.772C94.3402 79.0269 92.511 80.8651 90.2517 80.8651C90.0253 80.8651 89.8034 80.8425 89.5906 80.8108L90.9218 85.2389C91.5059 84.7862 92.2394 84.5145 93.0362 84.5145C94.947 84.5145 96.5 86.072 96.5 87.9828V87.9918L99.7464 86.6652ZM93.0362 87.8062C92.9321 87.8062 92.8597 87.8831 92.8597 87.9828C92.8597 88.0778 92.9412 88.1639 93.0362 88.1639C93.1313 88.1639 93.2083 88.0778 93.2083 87.9828C93.2083 87.8831 93.1313 87.8062 93.0362 87.8062ZM102.54 80.3444C101.97 80.3444 101.503 80.8108 101.503 81.3813C101.503 81.9563 101.97 82.4181 102.54 82.4181C103.11 82.4181 103.577 81.9563 103.577 81.3813C103.577 80.8108 103.11 80.3444 102.54 80.3444ZM102.54 80.3444C101.97 80.3444 101.503 80.8108 101.503 81.3813C101.503 81.9563 101.97 82.4181 102.54 82.4181C103.11 82.4181 103.577 81.9563 103.577 81.3813C103.577 80.8108 103.11 80.3444 102.54 80.3444ZM99.7464 86.6652C97.8583 85.6645 96.5679 83.6678 96.5679 81.3813C96.5679 79.4706 97.4644 77.7636 98.8725 76.6724L94.1772 75.6401C94.2859 76.0023 94.3402 76.3781 94.3402 76.772C94.3402 79.0269 92.511 80.8651 90.2517 80.8651C90.0253 80.8651 89.8034 80.8425 89.5906 80.8108L90.9218 85.2389C91.5059 84.7862 92.2394 84.5145 93.0362 84.5145C94.947 84.5145 96.5 86.072 96.5 87.9828V87.9918L99.7464 86.6652ZM102.54 80.3444C101.97 80.3444 101.503 80.8108 101.503 81.3813C101.503 81.9563 101.97 82.4181 102.54 82.4181C103.11 82.4181 103.577 81.9563 103.577 81.3813C103.577 80.8108 103.11 80.3444 102.54 80.3444ZM102.54 80.3444C101.97 80.3444 101.503 80.8108 101.503 81.3813C101.503 81.9563 101.97 82.4181 102.54 82.4181C103.11 82.4181 103.577 81.9563 103.577 81.3813C103.577 80.8108 103.11 80.3444 102.54 80.3444ZM99.7464 86.6652C97.8583 85.6645 96.5679 83.6678 96.5679 81.3813C96.5679 79.4706 97.4644 77.7636 98.8725 76.6724L94.1772 75.6401C94.2859 76.0023 94.3402 76.3781 94.3402 76.772C94.3402 79.0269 92.511 80.8651 90.2517 80.8651C90.0253 80.8651 89.8034 80.8425 89.5906 80.8108L90.9218 85.2389C91.5059 84.7862 92.2394 84.5145 93.0362 84.5145C94.947 84.5145 96.5 86.072 96.5 87.9828V87.9918L99.7464 86.6652ZM93.0362 87.8062C92.9321 87.8062 92.8597 87.8831 92.8597 87.9828C92.8597 88.0778 92.9412 88.1639 93.0362 88.1639C93.1313 88.1639 93.2083 88.0778 93.2083 87.9828C93.2083 87.8831 93.1313 87.8062 93.0362 87.8062ZM99.7464 86.6652C97.8583 85.6645 96.5679 83.6678 96.5679 81.3813C96.5679 79.4706 97.4644 77.7636 98.8725 76.6724L94.1772 75.6401C94.2859 76.0023 94.3402 76.3781 94.3402 76.772C94.3402 79.0269 92.511 80.8651 90.2517 80.8651C90.0253 80.8651 89.8034 80.8425 89.5906 80.8108L90.9218 85.2389C91.5059 84.7862 92.2394 84.5145 93.0362 84.5145C94.947 84.5145 96.5 86.072 96.5 87.9828V87.9918L99.7464 86.6652ZM102.54 80.3444C101.97 80.3444 101.503 80.8108 101.503 81.3813C101.503 81.9563 101.97 82.4181 102.54 82.4181C103.11 82.4181 103.577 81.9563 103.577 81.3813C103.577 80.8108 103.11 80.3444 102.54 80.3444ZM102.54 80.3444C101.97 80.3444 101.503 80.8108 101.503 81.3813C101.503 81.9563 101.97 82.4181 102.54 82.4181C103.11 82.4181 103.577 81.9563 103.577 81.3813C103.577 80.8108 103.11 80.3444 102.54 80.3444ZM99.7464 86.6652C97.8583 85.6645 96.5679 83.6678 96.5679 81.3813C96.5679 79.4706 97.4644 77.7636 98.8725 76.6724L94.1772 75.6401C94.2859 76.0023 94.3402 76.3781 94.3402 76.772C94.3402 79.0269 92.511 80.8651 90.2517 80.8651C90.0253 80.8651 89.8034 80.8425 89.5906 80.8108L90.9218 85.2389C91.5059 84.7862 92.2394 84.5145 93.0362 84.5145C94.947 84.5145 96.5 86.072 96.5 87.9828V87.9918L99.7464 86.6652ZM93.0362 87.8062C92.9321 87.8062 92.8597 87.8831 92.8597 87.9828C92.8597 88.0778 92.9412 88.1639 93.0362 88.1639C93.1313 88.1639 93.2083 88.0778 93.2083 87.9828C93.2083 87.8831 93.1313 87.8062 93.0362 87.8062ZM93.0362 87.8062C92.9321 87.8062 92.8597 87.8831 92.8597 87.9828C92.8597 88.0778 92.9412 88.1639 93.0362 88.1639C93.1313 88.1639 93.2083 88.0778 93.2083 87.9828C93.2083 87.8831 93.1313 87.8062 93.0362 87.8062ZM99.7464 86.6652C97.8583 85.6645 96.5679 83.6678 96.5679 81.3813C96.5679 79.4706 97.4644 77.7636 98.8725 76.6724L94.1772 75.6401C94.2859 76.0023 94.3402 76.3781 94.3402 76.772C94.3402 79.0269 92.511 80.8651 90.2517 80.8651C90.0253 80.8651 89.8034 80.8425 89.5906 80.8108L90.9218 85.2389C91.5059 84.7862 92.2394 84.5145 93.0362 84.5145C94.947 84.5145 96.5 86.072 96.5 87.9828V87.9918L99.7464 86.6652ZM102.54 80.3444C101.97 80.3444 101.503 80.8108 101.503 81.3813C101.503 81.9563 101.97 82.4181 102.54 82.4181C103.11 82.4181 103.577 81.9563 103.577 81.3813C103.577 80.8108 103.11 80.3444 102.54 80.3444ZM92.8597 87.9828C92.8597 88.0778 92.9412 88.1639 93.0362 88.1639C93.1313 88.1639 93.2083 88.0778 93.2083 87.9828C93.2083 87.8831 93.1313 87.8062 93.0362 87.8062C92.9321 87.8062 92.8597 87.8831 92.8597 87.9828ZM90.2517 80.8651C90.0253 80.8651 89.8034 80.8425 89.5906 80.8108L90.9218 85.2389C91.5059 84.7862 92.2394 84.5145 93.0362 84.5145C94.947 84.5145 96.5 86.072 96.5 87.9828V87.9918L99.7464 86.6652C97.8583 85.6645 96.5679 83.6678 96.5679 81.3813C96.5679 79.4706 97.4644 77.7636 98.8725 76.6724L94.1772 75.6401C94.2859 76.0023 94.3402 76.3781 94.3402 76.772C94.3402 79.0269 92.511 80.8651 90.2517 80.8651ZM103.577 81.3813C103.577 80.8108 103.11 80.3444 102.54 80.3444C101.97 80.3444 101.503 80.8108 101.503 81.3813C101.503 81.9563 101.97 82.4181 102.54 82.4181C103.11 82.4181 103.577 81.9563 103.577 81.3813ZM101.933 69.8536L101.367 69.4688L101.417 69.3963H93.48L93.5343 69.4688L92.8189 69.9623L88.341 73.0593L88.3862 73.1272C88.9477 72.8419 89.577 72.6789 90.2517 72.6789C90.881 72.6789 91.4787 72.8193 92.0039 73.0729L102.73 75.4137C105.94 75.5133 108.512 78.1485 108.512 81.3813C108.512 83.9078 106.946 86.072 104.722 86.9504L104.596 87.0002L102.056 87.9511L95.0737 90.7854C94.5032 91.2065 93.7924 91.451 93.0362 91.451C91.1255 91.451 89.568 89.8935 89.568 87.9828C89.568 87.942 89.568 87.9103 89.577 87.8696L86.9736 79.217C86.4574 78.5379 86.1541 77.6912 86.1541 76.772C86.1541 75.631 86.6204 74.6032 87.3765 73.8652L87.3177 73.7747L82.6722 76.9939L90.6501 97.3869H104.251L112.229 76.9984V76.9939L101.933 69.8536ZM102.54 80.3444C101.97 80.3444 101.503 80.8108 101.503 81.3813C101.503 81.9563 101.97 82.4181 102.54 82.4181C103.11 82.4181 103.577 81.9563 103.577 81.3813C103.577 80.8108 103.11 80.3444 102.54 80.3444ZM99.7464 86.6652C97.8583 85.6645 96.5679 83.6678 96.5679 81.3813C96.5679 79.4706 97.4644 77.7636 98.8725 76.6724L94.1772 75.6401C94.2859 76.0023 94.3402 76.3781 94.3402 76.772C94.3402 79.0269 92.511 80.8651 90.2517 80.8651C90.0253 80.8651 89.8034 80.8425 89.5906 80.8108L90.9218 85.2389C91.5059 84.7862 92.2394 84.5145 93.0362 84.5145C94.947 84.5145 96.5 86.072 96.5 87.9828V87.9918L99.7464 86.6652ZM93.0362 87.8062C92.9321 87.8062 92.8597 87.8831 92.8597 87.9828C92.8597 88.0778 92.9412 88.1639 93.0362 88.1639C93.1313 88.1639 93.2083 88.0778 93.2083 87.9828C93.2083 87.8831 93.1313 87.8062 93.0362 87.8062ZM93.0362 87.8062C92.9321 87.8062 92.8597 87.8831 92.8597 87.9828C92.8597 88.0778 92.9412 88.1639 93.0362 88.1639C93.1313 88.1639 93.2083 88.0778 93.2083 87.9828C93.2083 87.8831 93.1313 87.8062 93.0362 87.8062ZM99.7464 86.6652C97.8583 85.6645 96.5679 83.6678 96.5679 81.3813C96.5679 79.4706 97.4644 77.7636 98.8725 76.6724L94.1772 75.6401C94.2859 76.0023 94.3402 76.3781 94.3402 76.772C94.3402 79.0269 92.511 80.8651 90.2517 80.8651C90.0253 80.8651 89.8034 80.8425 89.5906 80.8108L90.9218 85.2389C91.5059 84.7862 92.2394 84.5145 93.0362 84.5145C94.947 84.5145 96.5 86.072 96.5 87.9828V87.9918L99.7464 86.6652ZM102.54 80.3444C101.97 80.3444 101.503 80.8108 101.503 81.3813C101.503 81.9563 101.97 82.4181 102.54 82.4181C103.11 82.4181 103.577 81.9563 103.577 81.3813C103.577 80.8108 103.11 80.3444 102.54 80.3444ZM102.54 80.3444C101.97 80.3444 101.503 80.8108 101.503 81.3813C101.503 81.9563 101.97 82.4181 102.54 82.4181C103.11 82.4181 103.577 81.9563 103.577 81.3813C103.577 80.8108 103.11 80.3444 102.54 80.3444ZM99.7464 86.6652C97.8583 85.6645 96.5679 83.6678 96.5679 81.3813C96.5679 79.4706 97.4644 77.7636 98.8725 76.6724L94.1772 75.6401C94.2859 76.0023 94.3402 76.3781 94.3402 76.772C94.3402 79.0269 92.511 80.8651 90.2517 80.8651C90.0253 80.8651 89.8034 80.8425 89.5906 80.8108L90.9218 85.2389C91.5059 84.7862 92.2394 84.5145 93.0362 84.5145C94.947 84.5145 96.5 86.072 96.5 87.9828V87.9918L99.7464 86.6652ZM93.0362 87.8062C92.9321 87.8062 92.8597 87.8831 92.8597 87.9828C92.8597 88.0778 92.9412 88.1639 93.0362 88.1639C93.1313 88.1639 93.2083 88.0778 93.2083 87.9828C93.2083 87.8831 93.1313 87.8062 93.0362 87.8062ZM93.0362 87.8062C92.9321 87.8062 92.8597 87.8831 92.8597 87.9828C92.8597 88.0778 92.9412 88.1639 93.0362 88.1639C93.1313 88.1639 93.2083 88.0778 93.2083 87.9828C93.2083 87.8831 93.1313 87.8062 93.0362 87.8062ZM99.7464 86.6652C97.8583 85.6645 96.5679 83.6678 96.5679 81.3813C96.5679 79.4706 97.4644 77.7636 98.8725 76.6724L94.1772 75.6401C94.2859 76.0023 94.3402 76.3781 94.3402 76.772C94.3402 79.0269 92.511 80.8651 90.2517 80.8651C90.0253 80.8651 89.8034 80.8425 89.5906 80.8108L90.9218 85.2389C91.5059 84.7862 92.2394 84.5145 93.0362 84.5145C94.947 84.5145 96.5 86.072 96.5 87.9828V87.9918L99.7464 86.6652ZM102.54 80.3444C101.97 80.3444 101.503 80.8108 101.503 81.3813C101.503 81.9563 101.97 82.4181 102.54 82.4181C103.11 82.4181 103.577 81.9563 103.577 81.3813C103.577 80.8108 103.11 80.3444 102.54 80.3444ZM102.54 80.3444C101.97 80.3444 101.503 80.8108 101.503 81.3813C101.503 81.9563 101.97 82.4181 102.54 82.4181C103.11 82.4181 103.577 81.9563 103.577 81.3813C103.577 80.8108 103.11 80.3444 102.54 80.3444ZM93.0362 87.8062C92.9321 87.8062 92.8597 87.8831 92.8597 87.9828C92.8597 88.0778 92.9412 88.1639 93.0362 88.1639C93.1313 88.1639 93.2083 88.0778 93.2083 87.9828C93.2083 87.8831 93.1313 87.8062 93.0362 87.8062ZM99.7464 86.6652C97.8583 85.6645 96.5679 83.6678 96.5679 81.3813C96.5679 79.4706 97.4644 77.7636 98.8725 76.6724L94.1772 75.6401C94.2859 76.0023 94.3402 76.3781 94.3402 76.772C94.3402 79.0269 92.511 80.8651 90.2517 80.8651C90.0253 80.8651 89.8034 80.8425 89.5906 80.8108L90.9218 85.2389C91.5059 84.7862 92.2394 84.5145 93.0362 84.5145C94.947 84.5145 96.5 86.072 96.5 87.9828V87.9918L99.7464 86.6652ZM102.54 80.3444C101.97 80.3444 101.503 80.8108 101.503 81.3813C101.503 81.9563 101.97 82.4181 102.54 82.4181C103.11 82.4181 103.577 81.9563 103.577 81.3813C103.577 80.8108 103.11 80.3444 102.54 80.3444ZM102.54 80.3444C101.97 80.3444 101.503 80.8108 101.503 81.3813C101.503 81.9563 101.97 82.4181 102.54 82.4181C103.11 82.4181 103.577 81.9563 103.577 81.3813C103.577 80.8108 103.11 80.3444 102.54 80.3444Z" fill="white" fill-opacity="0.87"/>
<path d="M101.796 87.3043L96.0815 89.627C96.2264 89.3599 96.3305 89.0746 96.403 88.7667V88.7577L100.632 87.0371C101.003 87.1684 101.393 87.2544 101.796 87.3043Z" fill="white" fill-opacity="0.87"/>
<path d="M100.75 75.6849C100.374 75.7981 100.016 75.9566 99.6768 76.1513H99.6722L93.8722 74.879C93.7183 74.5802 93.5281 74.304 93.3062 74.0595L100.75 75.6849Z" fill="white" fill-opacity="0.87"/>
<path d="M90.377 85.7546C90.1848 85.9845 90.0192 86.2424 89.9012 86.5193L87.9824 80.1505C88.2396 80.3261 88.5206 80.4768 88.8166 80.5818L90.377 85.7546Z" fill="white" fill-opacity="0.87"/>
<path d="M102.542 83.0962C101.596 83.0962 100.821 82.3264 100.821 81.3756C100.821 80.4248 101.596 79.6551 102.542 79.6551C103.488 79.6551 104.262 80.4248 104.262 81.3756C104.262 82.3264 103.488 83.0962 102.542 83.0962ZM102.542 76.0827C99.6169 76.0827 97.2534 78.4552 97.2534 81.3756C97.2534 84.296 99.6169 86.6731 102.542 86.6731C105.467 86.6731 107.83 84.296 107.83 81.3756C107.83 78.4552 105.467 76.0827 102.542 76.0827Z" fill="white" fill-opacity="0.87"/>
<path d="M90.2558 77.7948C89.6808 77.7948 89.2189 77.3284 89.2189 76.7579C89.2189 76.1874 89.6808 75.7165 90.2558 75.7165C90.8263 75.7165 91.2926 76.1874 91.2926 76.7579C91.2926 77.3284 90.8263 77.7948 90.2558 77.7948ZM90.2558 73.344C88.3677 73.344 86.8419 74.8744 86.8419 76.7579C86.8419 78.6415 88.3677 80.1628 90.2558 80.1628C92.1393 80.1628 93.6606 78.6415 93.6606 76.7579C93.6606 74.8744 92.1393 73.344 90.2558 73.344Z" fill="white" fill-opacity="0.87"/>
<path d="M93.043 88.8316C92.5676 88.8316 92.1827 88.4422 92.1827 87.9713C92.1827 87.4959 92.5676 87.1111 93.043 87.1111C93.5139 87.1111 93.8942 87.4959 93.8942 87.9713C93.8942 88.4422 93.5139 88.8316 93.043 88.8316ZM93.043 85.1868C91.5036 85.1868 90.2584 86.4364 90.2584 87.9713C90.2584 89.5063 91.5036 90.7559 93.043 90.7559C94.5779 90.7559 95.8231 89.5063 95.8231 87.9713C95.8231 86.4364 94.5779 85.1868 93.043 85.1868Z" fill="white" fill-opacity="0.87"/>
<path d="M105.89 66.4119H105.365V62.3777H105.89V66.4119ZM104.93 66.4119H104.405V62.3777H104.93V66.4119ZM103.97 66.4119H103.445V62.3777H103.97V66.4119ZM103.01 66.4119H102.485V62.3777H103.01V66.4119ZM102.046 66.4119H101.521V62.3777H102.046V66.4119ZM101.09 66.4119H100.556V62.3777H101.09V66.4119ZM100.131 66.4119H99.6054V62.3777H100.131V66.4119ZM99.1662 66.4119H98.6409V62.3777H99.1662V66.4119ZM98.2017 66.4119H97.6765V62.3777H98.2017V66.4119ZM97.2464 66.4119H96.7121V62.3777H97.2464V66.4119ZM96.282 66.4119H95.7567V62.3777H96.282V66.4119ZM95.3221 66.4119H94.7969V62.3777H95.3221V66.4119ZM94.3577 66.4119H93.8325V62.3777H94.3577V66.4119ZM93.4023 66.4119H92.8771V62.3777H93.4023V66.4119ZM92.4425 66.4119H91.9172V62.3777H92.4425V66.4119ZM91.478 66.4119H90.9528V62.3777H91.478V66.4119ZM90.5227 66.4119H89.9884V62.3777H90.5227V66.4119ZM89.5628 66.4119H89.0376V62.3777H89.5628V66.4119ZM88.6301 66.815H106.266V61.9203H88.6301V66.815Z" fill="white" fill-opacity="0.87"/>
<path d="M92.9257 67.3483H101.99V68.6569H92.9257V67.3483Z" fill="white" fill-opacity="0.87"/>
<path d="M92.5857 69.2769L92.4363 69.3765L78.3097 79.1836L77.8026 79.5322L76.0639 77.0057C75.2037 75.7561 75.5161 74.0536 76.7612 73.2024L87.0754 66.0939C87.3471 65.9037 87.6505 65.7724 87.9493 65.6954V67.4793H91.3496L92.5857 69.2769Z" fill="white" fill-opacity="0.87"/>
<path d="M84.9953 84.7885H82.0251C81.2192 84.7885 80.9203 83.8965 80.9203 83.8965L78.6384 79.7853L82.093 77.3901L84.9953 84.7885Z" fill="white" fill-opacity="0.87"/>
<path d="M118.845 77.0258L117.102 79.5523L102.473 69.401L102.323 69.2969L103.56 67.4994H106.96V65.72C107.259 65.7969 107.562 65.9237 107.834 66.1139L118.148 73.2225C119.393 74.0782 119.705 75.7761 118.845 77.0258Z" fill="white" fill-opacity="0.87"/>
<path d="M116.259 79.7853L113.986 83.8874C113.986 83.8874 113.682 84.7839 112.876 84.7839H109.911L112.804 77.3901L116.259 79.7853Z" fill="white" fill-opacity="0.87"/>
<path d="M75.9743 53.4024C71.6594 53.4024 68.1458 56.9114 68.1458 61.2309V94.1794C68.1458 98.4943 71.6594 102.003 75.9743 102.003H120.482C124.797 102.003 128.311 98.4943 128.311 94.1794V61.2309C128.311 56.9114 124.797 53.4024 120.482 53.4024H75.9743ZM120.482 104.267H75.9743C70.4097 104.267 65.882 99.7394 65.882 94.1794V61.2309C65.882 55.6663 70.4097 51.1385 75.9743 51.1385H120.482C126.047 51.1385 130.575 55.6663 130.575 61.2309V94.1794C130.575 99.7394 126.047 104.267 120.482 104.267Z" fill="white" fill-opacity="0.87"/>
<defs>
<filter id="filter0_d" x="0" y="0.308594" width="208" height="208" filterUnits="userSpaceOnUse" color-interpolation-filters="sRGB">
<feFlood flood-opacity="0" result="BackgroundImageFix"/>
<feColorMatrix in="SourceAlpha" type="matrix" values="0 0 0 0 0 0 0 0 0 0 0 0 0 0 0 0 0 0 127 0"/>
<feOffset dx="4" dy="4"/>
<feGaussianBlur stdDeviation="2"/>
<feColorMatrix type="matrix" values="0 0 0 0 0 0 0 0 0 0 0 0 0 0 0 0 0 0 0.25 0"/>
<feBlend mode="normal" in2="BackgroundImageFix" result="effect1_dropShadow"/>
<feBlend mode="normal" in="SourceGraphic" in2="effect1_dropShadow" result="shape"/>
</filter>
</defs>
</svg>
