<svg width="200" height="200" viewBox="0 0 200 200" fill="none" xmlns="http://www.w3.org/2000/svg">
<rect width="200" height="200" rx="8" fill="#121212"/>
<rect width="200" height="200" rx="8" fill="white" fill-opacity="0.08"/>
<path d="M79.5691 137L77.7101 134.335C77.6321 134.344 77.5151 134.348 77.3591 134.348H75.3051V137H73.6151V127.9H77.3591C78.1477 127.9 78.8324 128.03 79.4131 128.29C80.0024 128.55 80.4531 128.923 80.7651 129.408C81.0771 129.893 81.2331 130.47 81.2331 131.137C81.2331 131.822 81.0641 132.411 80.7261 132.905C80.3967 133.399 79.9201 133.767 79.2961 134.01L81.3891 137H79.5691ZM79.5301 131.137C79.5301 130.556 79.3394 130.11 78.9581 129.798C78.5767 129.486 78.0177 129.33 77.2811 129.33H75.3051V132.957H77.2811C78.0177 132.957 78.5767 132.801 78.9581 132.489C79.3394 132.168 79.5301 131.718 79.5301 131.137ZM90.6989 135.583V137H83.8739V127.9H90.5169V129.317H85.5639V131.683H89.9579V133.074H85.5639V135.583H90.6989ZM97.0768 127.9C97.8655 127.9 98.5502 128.03 99.1308 128.29C99.7202 128.55 100.171 128.923 100.483 129.408C100.795 129.893 100.951 130.47 100.951 131.137C100.951 131.796 100.795 132.372 100.483 132.866C100.171 133.351 99.7202 133.724 99.1308 133.984C98.5502 134.244 97.8655 134.374 97.0768 134.374H95.0228V137H93.3328V127.9H97.0768ZM96.9988 132.944C97.7355 132.944 98.2945 132.788 98.6758 132.476C99.0572 132.164 99.2478 131.718 99.2478 131.137C99.2478 130.556 99.0572 130.11 98.6758 129.798C98.2945 129.486 97.7355 129.33 96.9988 129.33H95.0228V132.944H96.9988ZM108.833 134.894H104.283L103.386 137H101.644L105.739 127.9H107.403L111.511 137H109.743L108.833 134.894ZM108.274 133.568L106.558 129.59L104.855 133.568H108.274ZM113.419 127.9H115.109V137H113.419V127.9ZM124.274 137L122.415 134.335C122.337 134.344 122.22 134.348 122.064 134.348H120.01V137H118.32V127.9H122.064C122.853 127.9 123.537 128.03 124.118 128.29C124.707 128.55 125.158 128.923 125.47 129.408C125.782 129.893 125.938 130.47 125.938 131.137C125.938 131.822 125.769 132.411 125.431 132.905C125.102 133.399 124.625 133.767 124.001 134.01L126.094 137H124.274ZM124.235 131.137C124.235 130.556 124.044 130.11 123.663 129.798C123.282 129.486 122.723 129.33 121.986 129.33H120.01V132.957H121.986C122.723 132.957 123.282 132.801 123.663 132.489C124.044 132.168 124.235 131.718 124.235 131.137ZM68.7961 151L66.9371 148.335C66.8591 148.344 66.7421 148.348 66.5861 148.348H64.5321V151H62.8421V141.9H66.5861C67.3748 141.9 68.0595 142.03 68.6401 142.29C69.2295 142.55 69.6801 142.923 69.9921 143.408C70.3041 143.893 70.4601 144.47 70.4601 145.137C70.4601 145.822 70.2911 146.411 69.9531 146.905C69.6238 147.399 69.1471 147.767 68.5231 148.01L70.6161 151H68.7961ZM68.7571 145.137C68.7571 144.556 68.5665 144.11 68.1851 143.798C67.8038 143.486 67.2448 143.33 66.5081 143.33H64.5321V146.957H66.5081C67.2448 146.957 67.8038 146.801 68.1851 146.489C68.5665 146.168 68.7571 145.718 68.7571 145.137ZM79.9259 149.583V151H73.1009V141.9H79.7439V143.317H74.7909V145.683H79.1849V147.074H74.7909V149.583H79.9259ZM84.2499 143.317V146.086H88.6439V147.516H84.2499V151H82.5599V141.9H89.2029V143.317H84.2499ZM93.2772 143.317V146.086H97.6712V147.516H93.2772V151H91.5872V141.9H98.2302V143.317H93.2772ZM107.44 149.583V151H100.615V141.9H107.258V143.317H102.305V145.683H106.699V147.074H102.305V149.583H107.44ZM116.028 151L114.169 148.335C114.091 148.344 113.974 148.348 113.818 148.348H111.764V151H110.074V141.9H113.818C114.606 141.9 115.291 142.03 115.872 142.29C116.461 142.55 116.912 142.923 117.224 143.408C117.536 143.893 117.692 144.47 117.692 145.137C117.692 145.822 117.523 146.411 117.185 146.905C116.855 147.399 116.379 147.767 115.755 148.01L117.848 151H116.028ZM115.989 145.137C115.989 144.556 115.798 144.11 115.417 143.798C115.035 143.486 114.476 143.33 113.74 143.33H111.764V146.957H113.74C114.476 146.957 115.035 146.801 115.417 146.489C115.798 146.168 115.989 145.718 115.989 145.137ZM126.234 148.894H121.684L120.787 151H119.045L123.14 141.9H124.804L128.912 151H127.144L126.234 148.894ZM125.675 147.568L123.959 143.59L122.256 147.568H125.675ZM130.82 141.9H132.51V149.57H137.268V151H130.82V141.9Z" fill="white" fill-opacity="0.87"/>
<path d="M108.993 72.6724C109.217 72.6724 109.443 72.7585 109.611 72.9307L112.294 75.6126L113.049 74.8571L109.568 71.3765C110.332 69.8404 110.246 67.9474 109.196 66.446C108.164 64.9821 106.478 64.2613 104.817 64.4071L107.036 67.5696C107.342 68.0071 107.233 68.6043 106.8 68.9099L104.4 70.596C103.964 70.9001 103.367 70.7974 103.061 70.3585L100.839 67.1918C100.139 68.7113 100.242 70.5432 101.268 72.0071C102.486 73.7418 104.632 74.4321 106.568 73.8793L110.297 77.6085L111.057 76.8529L108.375 74.171C108.032 73.8279 108.032 73.2738 108.375 72.9307C108.543 72.7585 108.769 72.6724 108.993 72.6724V72.6724ZM124.165 82.6988C122.975 80.9696 120.869 80.2529 118.95 80.7585L115.371 77.1793L114.615 77.9349L117.018 80.3376C117.361 80.6821 117.361 81.2349 117.018 81.5779C116.847 81.7501 116.624 81.8363 116.396 81.8363C116.174 81.8363 115.95 81.7501 115.779 81.5779L113.375 79.171L112.619 79.9307L115.89 83.2001C115.089 84.7376 115.139 86.6515 116.186 88.1793C117.199 89.6557 118.882 90.389 120.546 90.2654L118.357 87.0765C118.057 86.6376 118.168 86.046 118.607 85.7418L121.024 84.0807C121.461 83.7807 122.057 83.8918 122.362 84.3251L124.546 87.514C125.264 86.0085 125.178 84.1696 124.165 82.6988" fill="white"/>
<path d="M111.767 81.7507C111.606 81.9132 111.34 81.9132 111.177 81.7507L108.471 79.0437C108.309 78.8812 108.309 78.6173 108.471 78.4535L108.616 78.309C108.78 78.1465 109.044 78.1465 109.206 78.309L111.912 81.016C112.076 81.1785 112.076 81.4423 111.912 81.6062L111.767 81.7507Z" fill="white"/>
<path d="M110.552 82.3495L104.637 88.8009L103.908 89.5939C103.68 89.8217 103.422 89.9925 103.14 90.105C102.925 90.1953 102.707 90.2467 102.483 90.2648C102.411 90.2731 102.337 90.2773 102.259 90.2773C101.664 90.28 101.066 90.0536 100.612 89.5981C99.6983 88.6842 99.6983 87.2078 100.612 86.2981L101.401 85.5731L107.852 79.655L110.552 82.3495V82.3495Z" fill="white"/>
<path d="M122.681 68.5701L121.556 70.3382L120.561 70.7632L111.629 79.6993L110.522 78.5909L119.459 69.6562L119.882 68.6645L121.652 67.5396L121.745 67.634L120.442 68.7243C120.214 68.9521 120.317 69.4409 120.545 69.6729C120.781 69.9048 121.282 70.0423 121.514 69.8104L122.584 68.4715L122.681 68.5701V68.5701Z" fill="white"/>
<path d="M91.3732 79.8318C90.6316 81.3151 88.4316 82.3971 85.8316 82.3971C83.1468 82.3971 80.8816 81.2415 80.2246 79.679L81.426 79.2721V77.1221C82.7316 78.2846 84.3232 78.9179 85.9496 78.9179C87.4968 78.9179 88.9718 78.3679 90.2371 77.3207V79.3721L91.3732 79.8318Z" fill="white"/>
<path d="M93.7189 69.7384C93.5619 70.7565 93.0967 71.4481 92.73 71.5829L92.4869 71.6759L92.423 71.9231C91.9842 73.6634 91.0883 75.2204 89.9022 76.3037C88.7467 77.3676 87.3828 77.9301 85.9467 77.9301C84.4161 77.9301 82.9717 77.2967 81.7744 76.0954C80.6925 75.0176 79.9008 73.5801 79.4814 71.9329L79.4119 71.6717L79.155 71.587C79.1494 71.587 79.1342 71.5773 79.1008 71.5579C78.7494 71.3495 78.3244 70.6967 78.18 69.7342C78.0967 69.1745 78.1217 68.6315 78.2439 68.2065L78.8828 68.0829L78.9328 68.0579C78.9661 68.0481 79.0508 68.0231 79.2147 67.994L79.5661 68.5273L79.6244 68.6454L79.6744 68.6842L79.8119 68.9023C80.1786 69.4509 80.5536 69.9009 81.5619 69.9009H81.9133L82.1314 69.7829C82.2939 69.7134 83.5453 69.5106 85.9467 69.5106C88.3244 69.5106 89.6064 69.7176 89.7994 69.7926L89.9911 69.9009H90.3425C91.3314 69.9009 91.7078 69.4704 92.0633 68.9523L92.2508 68.6606L92.2661 68.6398L92.3258 68.5467L92.6911 67.994C92.8439 68.0231 92.9244 68.0481 92.9578 68.0579L93.0119 68.0773L93.6647 68.2606C93.773 68.6801 93.7994 69.2037 93.7189 69.7384V69.7384ZM94.0494 67.8551L93.1661 67.6065L93.1203 67.5926C93.0369 67.5634 92.8494 67.5092 92.4592 67.4495L91.905 68.2842L91.8855 68.3231L91.8605 68.3495L91.7772 68.4829C91.7314 68.5523 91.6925 68.6162 91.6536 68.6745C91.3314 69.1454 91.08 69.4079 90.3425 69.4079H90.1203L90.0105 69.3467C89.7939 69.2342 88.3744 69.0162 85.9467 69.0162C83.605 69.0162 82.1453 69.2148 81.8925 69.3467L81.7842 69.4079H81.5619C80.805 69.4079 80.5578 69.1342 80.2328 68.6398C80.198 68.5856 80.1633 68.5315 80.123 68.4717L80.0439 68.3495L80.0203 68.3301L79.9953 68.2801L79.4467 67.4495C79.0508 67.5092 78.8633 67.5634 78.7786 67.5884L78.7342 67.6065L77.88 67.7745C77.6522 68.294 77.573 69.0204 77.6911 69.8079C77.8439 70.8356 78.3036 71.6606 78.8328 71.9731C78.8869 72.0079 78.9425 72.037 79.0008 72.0565C79.4467 73.8065 80.3022 75.3301 81.423 76.4481C82.6647 77.6884 84.2369 78.4245 85.9467 78.4245C87.5494 78.4245 89.0328 77.7773 90.2342 76.669C91.48 75.5329 92.4286 73.9204 92.9036 72.0467C93.5022 71.8245 94.0369 70.9342 94.2092 69.8079C94.3175 69.0606 94.248 68.3634 94.0494 67.8551" fill="white"/>
<path d="M74.7314 90.011H78.9981V86.3735H92.7467V90.011H96.9189V93.8374H74.7314V90.011V90.011Z" fill="white"/>
<path d="M76.8949 89.0036C76.3116 89.0036 75.8366 88.5286 75.8366 87.9411C75.8366 87.3564 76.3116 86.8828 76.8949 86.8828C77.4838 86.8828 77.9588 87.3564 77.9588 87.9411C77.9588 88.5286 77.4838 89.0036 76.8949 89.0036ZM75.2686 80.4314V89.5189H78.5227V79.4231L75.2686 80.4314V80.4314Z" fill="white"/>
<path d="M94.8895 89.0036C94.3006 89.0036 93.8312 88.5286 93.8312 87.9411C93.8312 87.3564 94.3006 86.8828 94.8895 86.8828C95.4728 86.8828 95.9478 87.3564 95.9478 87.9411C95.9478 88.5286 95.4728 89.0036 94.8895 89.0036ZM93.2617 79.4231V89.5189H96.5159V80.4314L93.2617 79.4231V79.4231Z" fill="white"/>
<path d="M93.5366 64.2683V67.2947C93.5366 67.1558 93.1019 67.0322 92.3408 66.9294C92.3047 66.9239 92.2658 66.9183 92.2311 66.9142L91.4991 68.0211C91.4936 68.0267 91.4936 68.0308 91.4894 68.035C91.0241 68.7433 90.9741 68.9114 90.3574 68.9114H90.2588C89.8422 68.6892 88.0727 68.5211 85.9616 68.5211C83.8561 68.5211 82.1019 68.6836 81.6755 68.9114H81.5769C80.9533 68.9114 80.9033 68.7433 80.4449 68.035C80.4394 68.0308 80.4394 68.0267 80.4338 68.0211L79.6977 66.9142C79.663 66.9183 79.6227 66.9239 79.5894 66.9294C78.8324 67.0322 78.3936 67.1558 78.3936 67.2947V64.2683C78.3936 60.9517 81.7797 58.7017 85.9616 58.7017C90.1449 58.7017 93.5366 60.9517 93.5366 64.2683" fill="white"/>
</svg>
