<svg width="208" height="209" viewBox="0 0 208 209" fill="none" xmlns="http://www.w3.org/2000/svg">
<g filter="url(#filter0_d)">
<rect y="0.308594" width="200" height="200" rx="8" fill="#121212"/>
<rect y="0.308594" width="200" height="200" rx="8" fill="white" fill-opacity="0.08"/>
</g>
<path d="M46.543 177.13C45.841 177.13 45.1607 177.03 44.502 176.831C43.852 176.632 43.3363 176.367 42.955 176.038L43.54 174.725C43.9127 175.02 44.3677 175.262 44.905 175.453C45.451 175.635 45.997 175.726 46.543 175.726C47.219 175.726 47.7217 175.618 48.051 175.401C48.389 175.184 48.558 174.898 48.558 174.543C48.558 174.283 48.4627 174.071 48.272 173.906C48.09 173.733 47.856 173.598 47.57 173.503C47.284 173.408 46.894 173.299 46.4 173.178C45.7067 173.013 45.1433 172.849 44.71 172.684C44.2853 172.519 43.917 172.264 43.605 171.917C43.3017 171.562 43.15 171.085 43.15 170.487C43.15 169.984 43.2843 169.529 43.553 169.122C43.8303 168.706 44.242 168.377 44.788 168.134C45.3427 167.891 46.0187 167.77 46.816 167.77C47.3707 167.77 47.9167 167.839 48.454 167.978C48.9913 168.117 49.455 168.316 49.845 168.576L49.312 169.889C48.9133 169.655 48.4973 169.477 48.064 169.356C47.6307 169.235 47.2103 169.174 46.803 169.174C46.1357 169.174 45.6373 169.287 45.308 169.512C44.9873 169.737 44.827 170.036 44.827 170.409C44.827 170.669 44.918 170.881 45.1 171.046C45.2907 171.211 45.529 171.341 45.815 171.436C46.101 171.531 46.491 171.64 46.985 171.761C47.661 171.917 48.2157 172.082 48.649 172.255C49.0823 172.42 49.4507 172.675 49.754 173.022C50.066 173.369 50.222 173.837 50.222 174.426C50.222 174.929 50.0833 175.384 49.806 175.791C49.5373 176.198 49.1257 176.523 48.571 176.766C48.0163 177.009 47.3403 177.13 46.543 177.13ZM54.3668 169.33H51.3508V167.9H59.0728V169.33H56.0568V177H54.3668V169.33ZM67.9161 175.583V177H61.0911V167.9H67.7341V169.317H62.7811V171.683H67.1751V173.074H62.7811V175.583H67.9161ZM76.4521 174.894H71.9021L71.0051 177H69.2631L73.3581 167.9H75.0221L79.1301 177H77.3621L76.4521 174.894ZM75.8931 173.568L74.1771 169.59L72.4741 173.568H75.8931ZM89.3964 177L89.3834 170.968L86.3934 175.96H85.6394L82.6494 171.046V177H81.0374V167.9H82.4284L86.0424 173.932L89.5914 167.9H90.9824L90.9954 177H89.3964ZM104.994 172.268C105.497 172.433 105.896 172.71 106.19 173.1C106.485 173.481 106.632 173.958 106.632 174.53C106.632 175.319 106.329 175.93 105.722 176.363C105.116 176.788 104.232 177 103.07 177H98.5462V167.9H102.81C103.885 167.9 104.713 168.112 105.293 168.537C105.874 168.953 106.164 169.529 106.164 170.266C106.164 170.717 106.06 171.115 105.852 171.462C105.644 171.809 105.358 172.077 104.994 172.268ZM100.236 169.226V171.735H102.628C103.218 171.735 103.668 171.631 103.98 171.423C104.301 171.206 104.461 170.894 104.461 170.487C104.461 170.071 104.301 169.759 103.98 169.551C103.668 169.334 103.218 169.226 102.628 169.226H100.236ZM102.966 175.674C104.275 175.674 104.929 175.236 104.929 174.361C104.929 173.486 104.275 173.048 102.966 173.048H100.236V175.674H102.966ZM115.14 177L113.281 174.335C113.203 174.344 113.086 174.348 112.93 174.348H110.876V177H109.186V167.9H112.93C113.719 167.9 114.403 168.03 114.984 168.29C115.573 168.55 116.024 168.923 116.336 169.408C116.648 169.893 116.804 170.47 116.804 171.137C116.804 171.822 116.635 172.411 116.297 172.905C115.968 173.399 115.491 173.767 114.867 174.01L116.96 177H115.14ZM115.101 171.137C115.101 170.556 114.91 170.11 114.529 169.798C114.148 169.486 113.589 169.33 112.852 169.33H110.876V172.957H112.852C113.589 172.957 114.148 172.801 114.529 172.489C114.91 172.168 115.101 171.718 115.101 171.137ZM125.347 174.894H120.797L119.9 177H118.158L122.253 167.9H123.917L128.025 177H126.257L125.347 174.894ZM124.788 173.568L123.072 169.59L121.369 173.568H124.788ZM133.065 173.191L131.622 174.673V177H129.932V167.9H131.622V172.567L136.12 167.9H138.018L134.196 171.969L138.252 177H136.276L133.065 173.191ZM146.978 175.583V177H140.153V167.9H146.796V169.317H141.843V171.683H146.237V173.074H141.843V175.583H146.978ZM152.433 177.13C151.731 177.13 151.05 177.03 150.392 176.831C149.742 176.632 149.226 176.367 148.845 176.038L149.43 174.725C149.802 175.02 150.257 175.262 150.795 175.453C151.341 175.635 151.887 175.726 152.433 175.726C153.109 175.726 153.611 175.618 153.941 175.401C154.279 175.184 154.448 174.898 154.448 174.543C154.448 174.283 154.352 174.071 154.162 173.906C153.98 173.733 153.746 173.598 153.46 173.503C153.174 173.408 152.784 173.299 152.29 173.178C151.596 173.013 151.033 172.849 150.6 172.684C150.175 172.519 149.807 172.264 149.495 171.917C149.191 171.562 149.04 171.085 149.04 170.487C149.04 169.984 149.174 169.529 149.443 169.122C149.72 168.706 150.132 168.377 150.678 168.134C151.232 167.891 151.908 167.77 152.706 167.77C153.26 167.77 153.806 167.839 154.344 167.978C154.881 168.117 155.345 168.316 155.735 168.576L155.202 169.889C154.803 169.655 154.387 169.477 153.954 169.356C153.52 169.235 153.1 169.174 152.693 169.174C152.025 169.174 151.527 169.287 151.198 169.512C150.877 169.737 150.717 170.036 150.717 170.409C150.717 170.669 150.808 170.881 150.99 171.046C151.18 171.211 151.419 171.341 151.705 171.436C151.991 171.531 152.381 171.64 152.875 171.761C153.551 171.917 154.105 172.082 154.539 172.255C154.972 172.42 155.34 172.675 155.644 173.022C155.956 173.369 156.112 173.837 156.112 174.426C156.112 174.929 155.973 175.384 155.696 175.791C155.427 176.198 155.015 176.523 154.461 176.766C153.906 177.009 153.23 177.13 152.433 177.13Z" fill="white" fill-opacity="0.87"/>
<path d="M99.4977 25.746C73.145 25.746 51.7051 47.185 51.7051 73.541C51.7051 99.8926 73.145 121.331 99.4977 121.331C125.85 121.331 147.295 99.8926 147.295 73.541C147.295 47.185 125.85 25.746 99.4977 25.746ZM99.4977 123.541C71.927 123.541 49.5 101.111 49.5 73.541C49.5 45.9715 71.927 23.541 99.4977 23.541C127.068 23.541 149.5 45.9715 149.5 73.541C149.5 101.111 127.068 123.541 99.4977 123.541Z" fill="white" fill-opacity="0.87"/>
<path d="M99.4528 30.3495C75.6358 30.3495 56.2606 49.7237 56.2606 73.5397C56.2606 97.3557 75.6358 116.73 99.4528 116.73C123.27 116.73 142.65 97.3557 142.65 73.5397C142.65 49.7237 123.27 30.3495 99.4528 30.3495ZM99.4528 117.713C75.0969 117.713 55.2781 97.8945 55.2781 73.5397C55.2781 49.1804 75.0969 29.367 99.4528 29.367C123.809 29.367 143.628 49.1804 143.628 73.5397C143.628 97.8945 123.809 117.713 99.4528 117.713Z" fill="white" fill-opacity="0.87"/>
<path d="M99.7567 92.2439C89.4239 92.2439 81.0562 83.863 81.0562 73.5306C81.0562 63.1983 89.4239 54.8174 99.7567 54.8174C110.094 54.8174 118.471 63.1983 118.471 73.5306C118.471 83.863 110.094 92.2439 99.7567 92.2439ZM120.173 75.2195C121.061 67.9343 117.864 61.7041 112.883 57.6337L120.866 49.6558C115.251 44.6798 107.853 41.6688 99.7567 41.6688C82.1611 41.6688 67.8935 55.9313 67.8935 73.5306C67.8935 91.13 82.1611 105.392 99.7567 105.392C116.795 105.392 130.701 92.0265 131.575 75.2195H120.173Z" fill="white" fill-opacity="0.87"/>
<path d="M110.945 72.474C109.6 72.474 108.518 71.3964 108.518 70.0516C108.518 68.7159 109.6 67.6293 110.945 67.6293C112.276 67.6293 113.372 68.7159 113.372 70.0516C113.372 71.3964 112.276 72.474 110.945 72.474ZM106.702 85.5909C105.371 85.5909 104.289 84.4997 104.289 83.164C104.289 81.8193 105.371 80.7416 106.702 80.7416C108.047 80.7416 109.129 81.8193 109.129 83.164C109.129 84.4997 108.047 85.5909 106.702 85.5909ZM92.4166 73.5561C92.4166 69.4766 95.713 66.1759 99.7927 66.1759C103.863 66.1759 107.173 69.4766 107.173 73.5561C107.173 77.6265 103.863 80.9228 99.7927 80.9228C95.713 80.9228 92.4166 77.6265 92.4166 73.5561ZM92.8513 85.5909C91.5065 85.5909 90.4243 84.4997 90.4243 83.164C90.4243 81.8193 91.5065 80.7416 92.8513 80.7416C94.1825 80.7416 95.2783 81.8193 95.2783 83.164C95.2783 84.4997 94.1825 85.5909 92.8513 85.5909ZM88.6448 72.474C87.3 72.474 86.2178 71.3964 86.2178 70.0516C86.2178 68.7159 87.3 67.6293 88.6448 67.6293C89.9896 67.6293 91.0673 68.7159 91.0673 70.0516C91.0673 71.3964 89.9896 72.474 88.6448 72.474ZM99.761 59.4295C101.092 59.4295 102.183 60.5207 102.183 61.8564C102.183 63.2011 101.092 64.2787 99.761 64.2787C98.4116 64.2787 97.334 63.2011 97.334 61.8564C97.334 60.5207 98.4116 59.4295 99.761 59.4295ZM99.7927 55.9929C90.1164 55.9929 82.2423 63.8803 82.2423 73.5561C82.2423 83.2364 90.1164 91.1193 99.7927 91.1193C109.487 91.1193 117.361 83.2364 117.361 73.5561C117.361 63.8803 109.487 55.9929 99.7927 55.9929Z" fill="white" fill-opacity="0.87"/>
<path d="M121.472 74.0648C121.847 67.8144 119.391 61.9166 114.611 57.5532L125.719 46.4533C132.848 53.9861 136.876 63.7128 137.153 74.0626L121.472 74.0648Z" fill="white" fill-opacity="0.87"/>
<defs>
<filter id="filter0_d" x="0" y="0.308594" width="208" height="208" filterUnits="userSpaceOnUse" color-interpolation-filters="sRGB">
<feFlood flood-opacity="0" result="BackgroundImageFix"/>
<feColorMatrix in="SourceAlpha" type="matrix" values="0 0 0 0 0 0 0 0 0 0 0 0 0 0 0 0 0 0 127 0"/>
<feOffset dx="4" dy="4"/>
<feGaussianBlur stdDeviation="2"/>
<feColorMatrix type="matrix" values="0 0 0 0 0 0 0 0 0 0 0 0 0 0 0 0 0 0 0.25 0"/>
<feBlend mode="normal" in2="BackgroundImageFix" result="effect1_dropShadow"/>
<feBlend mode="normal" in="SourceGraphic" in2="effect1_dropShadow" result="shape"/>
</filter>
</defs>
</svg>
