<svg width="208" height="208" viewBox="0 0 208 208" fill="none" xmlns="http://www.w3.org/2000/svg">
<g filter="url(#filter0_d)">
<rect width="200" height="200" rx="8" fill="#121212"/>
<rect width="200" height="200" rx="8" fill="white" fill-opacity="0.08"/>
</g>
<path d="M56.047 157.583V159H49.222V149.9H55.865V151.317H50.912V153.683H55.306V155.074H50.912V157.583H56.047ZM64.3124 159L61.8424 155.542L59.3984 159H57.4744L60.8544 154.359L57.6564 149.9H59.5674L61.8944 153.137L64.1954 149.9H66.0284L62.8434 154.294L66.2624 159H64.3124ZM76.1244 149.9V159H74.4344V155.1H69.7284V159H68.0384V149.9H69.7284V153.657H74.4344V149.9H76.1244ZM85.2148 156.894H80.6648L79.7678 159H78.0258L82.1208 149.9H83.7848L87.8928 159H86.1248L85.2148 156.894ZM84.6558 155.568L82.9398 151.59L81.2368 155.568H84.6558ZM93.5227 159.13C92.266 159.13 91.2867 158.779 90.5847 158.077C89.8827 157.366 89.5317 156.352 89.5317 155.035V149.9H91.2217V154.97C91.2217 156.755 91.993 157.648 93.5357 157.648C95.0697 157.648 95.8367 156.755 95.8367 154.97V149.9H97.5007V155.035C97.5007 156.352 97.1497 157.366 96.4477 158.077C95.7544 158.779 94.7794 159.13 93.5227 159.13ZM103.439 159.13C102.737 159.13 102.056 159.03 101.398 158.831C100.748 158.632 100.232 158.367 99.8505 158.038L100.436 156.725C100.808 157.02 101.263 157.262 101.801 157.453C102.347 157.635 102.893 157.726 103.439 157.726C104.115 157.726 104.617 157.618 104.947 157.401C105.285 157.184 105.454 156.898 105.454 156.543C105.454 156.283 105.358 156.071 105.168 155.906C104.986 155.733 104.752 155.598 104.466 155.503C104.18 155.408 103.79 155.299 103.296 155.178C102.602 155.013 102.039 154.849 101.606 154.684C101.181 154.519 100.813 154.264 100.501 153.917C100.197 153.562 100.046 153.085 100.046 152.487C100.046 151.984 100.18 151.529 100.449 151.122C100.726 150.706 101.138 150.377 101.684 150.134C102.238 149.891 102.914 149.77 103.712 149.77C104.266 149.77 104.812 149.839 105.35 149.978C105.887 150.117 106.351 150.316 106.741 150.576L106.208 151.889C105.809 151.655 105.393 151.477 104.96 151.356C104.526 151.235 104.106 151.174 103.699 151.174C103.031 151.174 102.533 151.287 102.204 151.512C101.883 151.737 101.723 152.036 101.723 152.409C101.723 152.669 101.814 152.881 101.996 153.046C102.186 153.211 102.425 153.341 102.711 153.436C102.997 153.531 103.387 153.64 103.881 153.761C104.557 153.917 105.111 154.082 105.545 154.255C105.978 154.42 106.346 154.675 106.65 155.022C106.962 155.369 107.118 155.837 107.118 156.426C107.118 156.929 106.979 157.384 106.702 157.791C106.433 158.198 106.021 158.523 105.467 158.766C104.912 159.009 104.236 159.13 103.439 159.13ZM111.262 151.33H108.246V149.9H115.968V151.33H112.952V159H111.262V151.33ZM126.073 149.9C126.862 149.9 127.547 150.03 128.127 150.29C128.717 150.55 129.167 150.923 129.479 151.408C129.791 151.893 129.947 152.47 129.947 153.137C129.947 153.796 129.791 154.372 129.479 154.866C129.167 155.351 128.717 155.724 128.127 155.984C127.547 156.244 126.862 156.374 126.073 156.374H124.019V159H122.329V149.9H126.073ZM125.995 154.944C126.732 154.944 127.291 154.788 127.672 154.476C128.054 154.164 128.244 153.718 128.244 153.137C128.244 152.556 128.054 152.11 127.672 151.798C127.291 151.486 126.732 151.33 125.995 151.33H124.019V154.944H125.995ZM136.763 159.13C135.836 159.13 134.999 158.931 134.254 158.532C133.509 158.125 132.924 157.566 132.499 156.855C132.074 156.136 131.862 155.334 131.862 154.45C131.862 153.566 132.074 152.769 132.499 152.058C132.924 151.339 133.509 150.78 134.254 150.381C134.999 149.974 135.836 149.77 136.763 149.77C137.69 149.77 138.527 149.974 139.272 150.381C140.017 150.78 140.602 151.334 141.027 152.045C141.452 152.756 141.664 153.557 141.664 154.45C141.664 155.343 141.452 156.144 141.027 156.855C140.602 157.566 140.017 158.125 139.272 158.532C138.527 158.931 137.69 159.13 136.763 159.13ZM136.763 157.648C137.37 157.648 137.916 157.514 138.401 157.245C138.886 156.968 139.268 156.586 139.545 156.101C139.822 155.607 139.961 155.057 139.961 154.45C139.961 153.843 139.822 153.297 139.545 152.812C139.268 152.318 138.886 151.937 138.401 151.668C137.916 151.391 137.37 151.252 136.763 151.252C136.156 151.252 135.61 151.391 135.125 151.668C134.64 151.937 134.258 152.318 133.981 152.812C133.704 153.297 133.565 153.843 133.565 154.45C133.565 155.057 133.704 155.607 133.981 156.101C134.258 156.586 134.64 156.968 135.125 157.245C135.61 157.514 136.156 157.648 136.763 157.648ZM147.949 149.9C148.738 149.9 149.423 150.03 150.003 150.29C150.593 150.55 151.043 150.923 151.355 151.408C151.667 151.893 151.823 152.47 151.823 153.137C151.823 153.796 151.667 154.372 151.355 154.866C151.043 155.351 150.593 155.724 150.003 155.984C149.423 156.244 148.738 156.374 147.949 156.374H145.895V159H144.205V149.9H147.949ZM147.871 154.944C148.608 154.944 149.167 154.788 149.548 154.476C149.93 154.164 150.12 153.718 150.12 153.137C150.12 152.556 149.93 152.11 149.548 151.798C149.167 151.486 148.608 151.33 147.871 151.33H145.895V154.944H147.871ZM157.209 159.13C156.507 159.13 155.827 159.03 155.168 158.831C154.518 158.632 154.002 158.367 153.621 158.038L154.206 156.725C154.579 157.02 155.034 157.262 155.571 157.453C156.117 157.635 156.663 157.726 157.209 157.726C157.885 157.726 158.388 157.618 158.717 157.401C159.055 157.184 159.224 156.898 159.224 156.543C159.224 156.283 159.129 156.071 158.938 155.906C158.756 155.733 158.522 155.598 158.236 155.503C157.95 155.408 157.56 155.299 157.066 155.178C156.373 155.013 155.809 154.849 155.376 154.684C154.951 154.519 154.583 154.264 154.271 153.917C153.968 153.562 153.816 153.085 153.816 152.487C153.816 151.984 153.95 151.529 154.219 151.122C154.496 150.706 154.908 150.377 155.454 150.134C156.009 149.891 156.685 149.77 157.482 149.77C158.037 149.77 158.583 149.839 159.12 149.978C159.657 150.117 160.121 150.316 160.511 150.576L159.978 151.889C159.579 151.655 159.163 151.477 158.73 151.356C158.297 151.235 157.876 151.174 157.469 151.174C156.802 151.174 156.303 151.287 155.974 151.512C155.653 151.737 155.493 152.036 155.493 152.409C155.493 152.669 155.584 152.881 155.766 153.046C155.957 153.211 156.195 153.341 156.481 153.436C156.767 153.531 157.157 153.64 157.651 153.761C158.327 153.917 158.882 154.082 159.315 154.255C159.748 154.42 160.117 154.675 160.42 155.022C160.732 155.369 160.888 155.837 160.888 156.426C160.888 156.929 160.749 157.384 160.472 157.791C160.203 158.198 159.792 158.523 159.237 158.766C158.682 159.009 158.006 159.13 157.209 159.13Z" fill="white" fill-opacity="0.87"/>
<path d="M99.7404 69.425C95.7857 69.425 92.5669 73.7765 92.5669 79.1249C92.5669 84.4718 95.7857 88.8249 99.7404 88.8249C103.695 88.8249 106.914 84.4718 106.914 79.1249C106.914 73.7765 103.695 69.425 99.7404 69.425V69.425ZM99.7404 89.6343C95.3388 89.6343 91.7576 84.9203 91.7576 79.1249C91.7576 73.3296 95.3388 68.614 99.7404 68.614C104.142 68.614 107.723 73.3296 107.723 79.1249C107.723 84.9203 104.142 89.6343 99.7404 89.6343" fill="white"/>
<path d="M104.224 93.3489L96.3149 89.888L84.5509 100.783L92.854 84.5724L76.7368 76.3974L93.5946 76.7864L97.5165 61.4302L99.4821 73.4521L100.27 78.2692L108.799 76.1677L102.37 84.6958L104.224 93.3489V93.3489Z" fill="white"/>
<path d="M79.1015 76.9935L93.5796 84.3372L86.4218 98.3138L96.203 89.2528L103.475 92.4325L101.789 84.57L107.451 77.0575L99.8296 78.9341L97.3983 64.07L94.0093 77.3372L79.1015 76.9935V76.9935ZM82.6749 103.256L92.1233 84.8106L74.3687 75.8028L93.1765 76.2372L97.6296 58.7935L100.706 77.606L110.142 75.281L102.95 84.8263L104.973 94.2685L96.4186 90.5263L82.6749 103.256V103.256Z" fill="white"/>
<path d="M92.2564 74.9443C90.2704 74.9443 88.6579 77.1771 88.6579 79.9224C88.6579 82.6662 90.2704 84.899 92.2564 84.899C94.2407 84.899 95.8548 82.6662 95.8548 79.9224C95.8548 77.1771 94.2407 74.9443 92.2564 74.9443V74.9443ZM92.2564 85.9802C89.6767 85.9802 87.5767 83.2615 87.5767 79.9224C87.5767 76.5818 89.6767 73.863 92.2564 73.863C94.836 73.863 96.9345 76.5818 96.9345 79.9224C96.9345 83.2615 94.836 85.9802 92.2564 85.9802Z" fill="white"/>
<path d="M114.561 74.6138L114.576 74.5927L114.562 74.5734H114.569L114.576 74.5837C114.578 74.5859 114.579 74.5875 114.579 74.5887C114.58 74.5872 114.581 74.5857 114.583 74.5841L114.591 74.5734H114.596L114.582 74.5924L114.598 74.6138H114.591L114.581 74.5994C114.58 74.5985 114.58 74.5976 114.579 74.5967C114.578 74.5981 114.577 74.5991 114.577 74.5997L114.567 74.6138H114.561ZM114.602 74.6138V74.5734H114.608V74.59H114.629V74.5734H114.634V74.6138H114.629V74.5947H114.608V74.6138H114.602ZM114.639 74.6138L114.654 74.5734H114.66L114.676 74.6138H114.67L114.666 74.6015H114.649L114.644 74.6138H114.639ZM114.65 74.5972H114.664L114.66 74.586C114.658 74.5826 114.658 74.5798 114.657 74.5776C114.656 74.5802 114.656 74.5828 114.655 74.5853L114.65 74.5972ZM114.707 74.5734H114.713V74.5967C114.713 74.6008 114.712 74.604 114.711 74.6064C114.71 74.6088 114.709 74.6107 114.706 74.6122C114.704 74.6137 114.701 74.6145 114.697 74.6145C114.693 74.6145 114.69 74.6138 114.687 74.6125C114.685 74.6112 114.683 74.6093 114.682 74.6069C114.681 74.6044 114.681 74.601 114.681 74.5967V74.5734H114.686V74.5967C114.686 74.6002 114.686 74.6028 114.687 74.6045C114.688 74.6061 114.689 74.6074 114.69 74.6083C114.692 74.6092 114.694 74.6096 114.696 74.6096C114.7 74.6096 114.703 74.6087 114.705 74.607C114.706 74.6052 114.707 74.6018 114.707 74.5967V74.5734ZM114.72 74.6008L114.725 74.6004C114.725 74.6024 114.725 74.604 114.726 74.6053C114.727 74.6066 114.729 74.6077 114.73 74.6085C114.732 74.6093 114.734 74.6097 114.737 74.6097C114.739 74.6097 114.74 74.6094 114.742 74.6088C114.744 74.6081 114.745 74.6073 114.745 74.6063C114.746 74.6052 114.747 74.6041 114.747 74.6028C114.747 74.6015 114.746 74.6004 114.746 74.5995C114.745 74.5985 114.744 74.5977 114.742 74.5971C114.741 74.5967 114.738 74.596 114.735 74.5951C114.731 74.5942 114.728 74.5934 114.727 74.5926C114.725 74.5916 114.724 74.5904 114.723 74.5889C114.722 74.5874 114.721 74.5857 114.721 74.5838C114.721 74.5818 114.722 74.5799 114.723 74.5781C114.724 74.5763 114.726 74.575 114.728 74.5741C114.73 74.5732 114.733 74.5727 114.735 74.5727C114.738 74.5727 114.741 74.5732 114.743 74.5742C114.746 74.5751 114.747 74.5765 114.749 74.5784C114.75 74.5803 114.75 74.5824 114.751 74.5848L114.745 74.5851C114.745 74.5826 114.744 74.5807 114.743 74.5794C114.741 74.5781 114.739 74.5774 114.736 74.5774C114.732 74.5774 114.73 74.578 114.729 74.5792C114.727 74.5804 114.726 74.5818 114.726 74.5835C114.726 74.5849 114.727 74.5861 114.728 74.587C114.729 74.588 114.732 74.5889 114.736 74.5899C114.74 74.5909 114.743 74.5918 114.745 74.5925C114.747 74.5936 114.749 74.595 114.75 74.5966C114.751 74.5983 114.752 74.6002 114.752 74.6024C114.752 74.6045 114.751 74.6065 114.75 74.6085C114.749 74.6103 114.747 74.6118 114.745 74.6129C114.742 74.6139 114.74 74.6145 114.737 74.6145C114.733 74.6145 114.73 74.6139 114.728 74.6129C114.725 74.6118 114.723 74.6102 114.722 74.6081C114.72 74.6059 114.72 74.6035 114.72 74.6008ZM114.769 74.6138V74.5781H114.756V74.5734H114.788V74.5781H114.775V74.6138H114.769Z" fill="white"/>
<path d="M116.864 81.3568C116.864 81.3501 116.866 81.3448 116.869 81.3411C116.873 81.3373 116.878 81.3354 116.883 81.3354C116.887 81.3354 116.89 81.3363 116.893 81.338C116.896 81.3398 116.899 81.3423 116.9 81.3455C116.902 81.3487 116.903 81.3523 116.903 81.3563C116.903 81.3604 116.902 81.3641 116.9 81.3673C116.899 81.3706 116.896 81.373 116.893 81.3747C116.89 81.3763 116.887 81.3772 116.883 81.3772C116.88 81.3772 116.876 81.3762 116.873 81.3744C116.87 81.3726 116.868 81.3701 116.866 81.3669C116.865 81.3637 116.864 81.3603 116.864 81.3568ZM116.87 81.3569C116.87 81.3617 116.871 81.3656 116.873 81.3684C116.876 81.3712 116.879 81.3726 116.883 81.3726C116.887 81.3726 116.891 81.3712 116.893 81.3683C116.896 81.3655 116.897 81.3615 116.897 81.3563C116.897 81.353 116.897 81.3501 116.895 81.3477C116.894 81.3452 116.893 81.3433 116.891 81.342C116.888 81.3406 116.886 81.34 116.883 81.34C116.88 81.34 116.876 81.3413 116.874 81.3439C116.871 81.3465 116.87 81.3508 116.87 81.3569ZM116.91 81.3765V81.3361H116.925C116.928 81.3361 116.93 81.3362 116.931 81.3365C116.933 81.3368 116.935 81.3374 116.936 81.3384C116.937 81.3393 116.938 81.3406 116.939 81.3422C116.94 81.3439 116.94 81.3458 116.94 81.3478C116.94 81.3512 116.939 81.3541 116.937 81.3565C116.935 81.3589 116.931 81.36 116.925 81.36H116.915V81.3765H116.91ZM116.915 81.3553H116.925C116.929 81.3553 116.931 81.3546 116.933 81.3534C116.934 81.3521 116.935 81.3503 116.935 81.3479C116.935 81.3462 116.934 81.3448 116.934 81.3436C116.933 81.3424 116.932 81.3416 116.93 81.3412C116.929 81.341 116.928 81.3408 116.925 81.3408H116.915V81.3553ZM116.945 81.3635L116.95 81.363C116.951 81.3651 116.951 81.3667 116.952 81.368C116.953 81.3693 116.954 81.3704 116.956 81.3712C116.958 81.372 116.96 81.3724 116.962 81.3724C116.964 81.3724 116.966 81.3721 116.968 81.3715C116.969 81.3708 116.97 81.37 116.971 81.369C116.972 81.3679 116.972 81.3667 116.972 81.3655C116.972 81.3642 116.972 81.3631 116.971 81.3622C116.971 81.3612 116.969 81.3604 116.968 81.3598C116.967 81.3594 116.964 81.3587 116.96 81.3578C116.957 81.3569 116.954 81.3561 116.953 81.3553C116.951 81.3543 116.949 81.353 116.948 81.3516C116.947 81.3501 116.947 81.3484 116.947 81.3465C116.947 81.3445 116.948 81.3426 116.949 81.3408C116.95 81.339 116.952 81.3377 116.954 81.3368C116.956 81.3358 116.958 81.3354 116.961 81.3354C116.964 81.3354 116.967 81.3359 116.969 81.3368C116.971 81.3378 116.973 81.3392 116.974 81.3411C116.976 81.343 116.976 81.3451 116.976 81.3475L116.971 81.3478C116.971 81.3453 116.97 81.3434 116.968 81.3421C116.967 81.3408 116.964 81.3401 116.961 81.3401C116.958 81.3401 116.956 81.3407 116.954 81.3419C116.953 81.3431 116.952 81.3445 116.952 81.3462C116.952 81.3476 116.953 81.3488 116.954 81.3497C116.955 81.3507 116.957 81.3516 116.962 81.3526C116.966 81.3536 116.969 81.3545 116.971 81.3552C116.973 81.3563 116.975 81.3577 116.976 81.3593C116.977 81.361 116.978 81.3629 116.978 81.3651C116.978 81.3672 116.977 81.3692 116.976 81.3711C116.974 81.373 116.973 81.3745 116.97 81.3756C116.968 81.3766 116.966 81.3772 116.963 81.3772C116.959 81.3772 116.956 81.3766 116.953 81.3756C116.951 81.3745 116.949 81.3729 116.948 81.3708C116.946 81.3686 116.945 81.3662 116.945 81.3635Z" fill="white"/>
<defs>
<filter id="filter0_d" x="0" y="0" width="208" height="208" filterUnits="userSpaceOnUse" color-interpolation-filters="sRGB">
<feFlood flood-opacity="0" result="BackgroundImageFix"/>
<feColorMatrix in="SourceAlpha" type="matrix" values="0 0 0 0 0 0 0 0 0 0 0 0 0 0 0 0 0 0 127 0"/>
<feOffset dx="4" dy="4"/>
<feGaussianBlur stdDeviation="2"/>
<feColorMatrix type="matrix" values="0 0 0 0 0 0 0 0 0 0 0 0 0 0 0 0 0 0 0.25 0"/>
<feBlend mode="normal" in2="BackgroundImageFix" result="effect1_dropShadow"/>
<feBlend mode="normal" in="SourceGraphic" in2="effect1_dropShadow" result="shape"/>
</filter>
</defs>
</svg>
