<svg width="208" height="208" viewBox="0 0 208 208" fill="none" xmlns="http://www.w3.org/2000/svg">
<g filter="url(#filter0_d)">
<rect width="200" height="200" rx="8" fill="#121212"/>
<rect width="200" height="200" rx="8" fill="white" fill-opacity="0.08"/>
</g>
<path d="M54.3025 143.817L52.4435 141.152C52.3655 141.161 52.2485 141.165 52.0925 141.165H50.0385V143.817H48.3485V134.717H52.0925C52.8811 134.717 53.5658 134.847 54.1465 135.107C54.7358 135.367 55.1865 135.74 55.4985 136.225C55.8105 136.71 55.9665 137.287 55.9665 137.954C55.9665 138.639 55.7975 139.228 55.4595 139.722C55.1301 140.216 54.6535 140.584 54.0295 140.827L56.1225 143.817H54.3025ZM54.2635 137.954C54.2635 137.373 54.0728 136.927 53.6915 136.615C53.3101 136.303 52.7511 136.147 52.0145 136.147H50.0385V139.774H52.0145C52.7511 139.774 53.3101 139.618 53.6915 139.306C54.0728 138.985 54.2635 138.535 54.2635 137.954ZM65.4323 142.4V143.817H58.6073V134.717H65.2503V136.134H60.2973V138.5H64.6913V139.891H60.2973V142.4H65.4323ZM69.7562 136.134V138.903H74.1502V140.333H69.7562V143.817H68.0662V134.717H74.7092V136.134H69.7562ZM83.0476 143.817L81.1886 141.152C81.1106 141.161 80.9936 141.165 80.8376 141.165H78.7836V143.817H77.0936V134.717H80.8376C81.6262 134.717 82.3109 134.847 82.8916 135.107C83.4809 135.367 83.9316 135.74 84.2436 136.225C84.5556 136.71 84.7116 137.287 84.7116 137.954C84.7116 138.639 84.5426 139.228 84.2046 139.722C83.8752 140.216 83.3986 140.584 82.7746 140.827L84.8676 143.817H83.0476ZM83.0086 137.954C83.0086 137.373 82.8179 136.927 82.4366 136.615C82.0552 136.303 81.4962 136.147 80.7596 136.147H78.7836V139.774H80.7596C81.4962 139.774 82.0552 139.618 82.4366 139.306C82.8179 138.985 83.0086 138.535 83.0086 137.954ZM87.3524 134.717H89.0424V143.817H87.3524V134.717ZM98.4677 139.163H100.067V142.79C99.5987 143.163 99.0527 143.449 98.4287 143.648C97.8047 143.847 97.1634 143.947 96.5047 143.947C95.5774 143.947 94.7411 143.748 93.9957 143.349C93.2504 142.942 92.6654 142.383 92.2407 141.672C91.8161 140.961 91.6037 140.16 91.6037 139.267C91.6037 138.374 91.8161 137.573 92.2407 136.862C92.6654 136.151 93.2504 135.597 93.9957 135.198C94.7497 134.791 95.5947 134.587 96.5307 134.587C97.2934 134.587 97.9867 134.713 98.6107 134.964C99.2347 135.215 99.7591 135.584 100.184 136.069L99.1177 137.109C98.4244 136.416 97.5881 136.069 96.6087 136.069C95.9674 136.069 95.3954 136.203 94.8927 136.472C94.3987 136.741 94.0087 137.118 93.7227 137.603C93.4454 138.088 93.3067 138.643 93.3067 139.267C93.3067 139.874 93.4454 140.42 93.7227 140.905C94.0087 141.39 94.3987 141.772 94.8927 142.049C95.3954 142.326 95.9631 142.465 96.5957 142.465C97.3064 142.465 97.9304 142.309 98.4677 141.997V139.163ZM109.871 142.4V143.817H103.046V134.717H109.689V136.134H104.736V138.5H109.13V139.891H104.736V142.4H109.871ZM118.459 143.817L116.6 141.152C116.522 141.161 116.405 141.165 116.249 141.165H114.195V143.817H112.505V134.717H116.249C117.037 134.717 117.722 134.847 118.303 135.107C118.892 135.367 119.343 135.74 119.655 136.225C119.967 136.71 120.123 137.287 120.123 137.954C120.123 138.639 119.954 139.228 119.616 139.722C119.286 140.216 118.81 140.584 118.186 140.827L120.279 143.817H118.459ZM118.42 137.954C118.42 137.373 118.229 136.927 117.848 136.615C117.466 136.303 116.907 136.147 116.171 136.147H114.195V139.774H116.171C116.907 139.774 117.466 139.618 117.848 139.306C118.229 138.985 118.42 138.535 118.42 137.954ZM128.666 141.711H124.116L123.219 143.817H121.477L125.572 134.717H127.236L131.344 143.817H129.576L128.666 141.711ZM128.107 140.385L126.391 136.407L124.688 140.385H128.107ZM141.337 134.717V143.817H139.946L134.928 137.655V143.817H133.251V134.717H134.642L139.66 140.879V134.717H141.337ZM146.371 136.147H143.355V134.717H151.077V136.147H148.061V143.817H146.371V136.147ZM79.6557 157.947C78.737 157.947 77.905 157.748 77.1597 157.349C76.423 156.942 75.8423 156.383 75.4177 155.672C75.0017 154.961 74.7937 154.16 74.7937 153.267C74.7937 152.374 75.006 151.573 75.4307 150.862C75.8553 150.151 76.436 149.597 77.1727 149.198C77.918 148.791 78.75 148.587 79.6687 148.587C80.414 148.587 81.0943 148.717 81.7097 148.977C82.325 149.237 82.845 149.614 83.2697 150.108L82.1777 151.135C81.519 150.424 80.7087 150.069 79.7467 150.069C79.1227 150.069 78.5637 150.208 78.0697 150.485C77.5757 150.754 77.19 151.131 76.9127 151.616C76.6353 152.101 76.4967 152.652 76.4967 153.267C76.4967 153.882 76.6353 154.433 76.9127 154.918C77.19 155.403 77.5757 155.785 78.0697 156.062C78.5637 156.331 79.1227 156.465 79.7467 156.465C80.7087 156.465 81.519 156.105 82.1777 155.386L83.2697 156.426C82.845 156.92 82.3207 157.297 81.6967 157.557C81.0813 157.817 80.401 157.947 79.6557 157.947ZM93.725 148.717V157.817H92.035V153.917H87.329V157.817H85.639V148.717H87.329V152.474H92.035V148.717H93.725ZM103.738 156.4V157.817H96.9134V148.717H103.556V150.134H98.6034V152.5H102.997V153.891H98.6034V156.4H103.738ZM110.546 157.947C109.628 157.947 108.796 157.748 108.05 157.349C107.314 156.942 106.733 156.383 106.308 155.672C105.892 154.961 105.684 154.16 105.684 153.267C105.684 152.374 105.897 151.573 106.321 150.862C106.746 150.151 107.327 149.597 108.063 149.198C108.809 148.791 109.641 148.587 110.559 148.587C111.305 148.587 111.985 148.717 112.6 148.977C113.216 149.237 113.736 149.614 114.16 150.108L113.068 151.135C112.41 150.424 111.599 150.069 110.637 150.069C110.013 150.069 109.454 150.208 108.96 150.485C108.466 150.754 108.081 151.131 107.803 151.616C107.526 152.101 107.387 152.652 107.387 153.267C107.387 153.882 107.526 154.433 107.803 154.918C108.081 155.403 108.466 155.785 108.96 156.062C109.454 156.331 110.013 156.465 110.637 156.465C111.599 156.465 112.41 156.105 113.068 155.386L114.16 156.426C113.736 156.92 113.211 157.297 112.587 157.557C111.972 157.817 111.292 157.947 110.546 157.947ZM119.663 154.008L118.22 155.49V157.817H116.53V148.717H118.22V153.384L122.718 148.717H124.616L120.794 152.786L124.85 157.817H122.874L119.663 154.008Z" fill="white" fill-opacity="0.87"/>
<path d="M138.164 101.817H59.8364C53.8521 101.817 49 96.965 49 90.9807V43.8364C49 37.8521 53.8521 33 59.8364 33H138.164C144.148 33 149 37.8521 149 43.8364V90.9807C149 96.965 144.148 101.817 138.164 101.817Z" stroke="white" stroke-width="0.00112867" stroke-miterlimit="10"/>
<path d="M99.9472 78.5535C93.6157 78.5535 88.4847 73.4225 88.4847 67.0926C88.4847 60.7626 93.6157 55.6301 99.9472 55.6301C106.277 55.6301 111.41 60.7626 111.41 67.0926C111.41 73.4225 106.277 78.5535 99.9472 78.5535ZM119.402 46.2792H80.1903C75.7763 46.2792 72.1975 49.858 72.1975 54.2735V81.4198C72.1975 85.8338 75.7763 89.4126 80.1903 89.4126H119.402C123.816 89.4126 127.394 85.8338 127.394 81.4198V54.2735C127.394 49.858 123.816 46.2792 119.402 46.2792Z" fill="white"/>
<path d="M99.3295 65.8468L99.6311 57.0991C99.6311 57.0991 107.474 58.0056 99.3295 65.8468Z" fill="white"/>
<path d="M99.8213 67.3031L108.358 65.3781C108.358 65.3781 109.469 73.1935 99.8213 67.3031Z" fill="white"/>
<path d="M99.6674 68.2471L100.099 76.9887C100.099 76.9887 92.2081 76.7431 99.6674 68.2471Z" fill="white"/>
<path d="M99.3018 67.1087L90.5587 67.5407C90.5587 67.5407 90.8058 59.651 99.3018 67.1087Z" fill="white"/>
<defs>
<filter id="filter0_d" x="0" y="0" width="208" height="208" filterUnits="userSpaceOnUse" color-interpolation-filters="sRGB">
<feFlood flood-opacity="0" result="BackgroundImageFix"/>
<feColorMatrix in="SourceAlpha" type="matrix" values="0 0 0 0 0 0 0 0 0 0 0 0 0 0 0 0 0 0 127 0"/>
<feOffset dx="4" dy="4"/>
<feGaussianBlur stdDeviation="2"/>
<feColorMatrix type="matrix" values="0 0 0 0 0 0 0 0 0 0 0 0 0 0 0 0 0 0 0.25 0"/>
<feBlend mode="normal" in2="BackgroundImageFix" result="effect1_dropShadow"/>
<feBlend mode="normal" in="SourceGraphic" in2="effect1_dropShadow" result="shape"/>
</filter>
</defs>
</svg>
