<svg width="208" height="208" viewBox="0 0 208 208" fill="none" xmlns="http://www.w3.org/2000/svg">
<g filter="url(#filter0_d)">
<rect width="200" height="200" rx="8" fill="#121212"/>
<rect width="200" height="200" rx="8" fill="white" fill-opacity="0.08"/>
</g>
<path d="M99.5 28.2051C73.1461 28.2051 51.7052 49.645 51.7052 76.0023C51.7052 102.35 73.1461 123.795 99.5 123.795C125.854 123.795 147.295 102.35 147.295 76.0023C147.295 49.645 125.854 28.2051 99.5 28.2051ZM99.5 126C71.928 126 49.5 103.573 49.5 76.0023C49.5 48.427 71.928 26 99.5 26C127.072 26 149.5 48.427 149.5 76.0023C149.5 103.573 127.072 126 99.5 126Z" fill="white" fill-opacity="0.87"/>
<path d="M99.5 32.8077C75.6818 32.8077 56.3058 52.1829 56.3058 76.0044C56.3058 99.817 75.6818 119.197 99.5 119.197C123.318 119.197 142.694 99.817 142.694 76.0044C142.694 52.1829 123.318 32.8077 99.5 32.8077ZM99.5 120.175C75.143 120.175 55.3232 100.356 55.3232 76.0044C55.3232 51.644 75.143 31.8297 99.5 31.8297C123.857 31.8297 143.677 51.644 143.677 76.0044C143.677 100.356 123.857 120.175 99.5 120.175Z" fill="white" fill-opacity="0.87"/>
<path d="M76.3245 48.1871L81.5764 65.1373L94.4346 54.8774L77.2431 47.2199L76.3245 48.1871Z" fill="white" fill-opacity="0.87"/>
<path d="M71.0948 66.9346H128.997V68.0666H71.0948V66.9346Z" fill="white" fill-opacity="0.87"/>
<path d="M71.0948 69.9189H128.997V71.0509H71.0948V69.9189Z" fill="white" fill-opacity="0.87"/>
<path d="M71.0948 73.1945H128.997V74.3265H71.0948V73.1945Z" fill="white" fill-opacity="0.87"/>
<path d="M71.0948 76.1868H128.997V77.3188H71.0948V76.1868Z" fill="white" fill-opacity="0.87"/>
<path d="M71.0948 78.7827H128.997V79.9147H71.0948V78.7827Z" fill="white" fill-opacity="0.87"/>
<path d="M71.0948 81.7683H128.997V82.9003H71.0948V81.7683Z" fill="white" fill-opacity="0.87"/>
<path d="M71.0948 85.044H128.997V86.1759H71.0948V85.044Z" fill="white" fill-opacity="0.87"/>
<path d="M71.0948 88.0363H128.997V89.1683H71.0948V88.0363Z" fill="white" fill-opacity="0.87"/>
<path d="M71.0948 90.2453H128.997V91.3773H71.0948V90.2453Z" fill="white" fill-opacity="0.87"/>
<path d="M71.0948 93.5194H128.997V94.6514H71.0948V93.5194Z" fill="white" fill-opacity="0.87"/>
<path d="M71.0948 96.5118H128.997V97.6438H71.0948V96.5118Z" fill="white" fill-opacity="0.87"/>
<path d="M34.043 179.13C33.341 179.13 32.6607 179.03 32.002 178.831C31.352 178.632 30.8363 178.367 30.455 178.038L31.04 176.725C31.4127 177.02 31.8677 177.262 32.405 177.453C32.951 177.635 33.497 177.726 34.043 177.726C34.719 177.726 35.2217 177.618 35.551 177.401C35.889 177.184 36.058 176.898 36.058 176.543C36.058 176.283 35.9627 176.071 35.772 175.906C35.59 175.733 35.356 175.598 35.07 175.503C34.784 175.408 34.394 175.299 33.9 175.178C33.2067 175.013 32.6433 174.849 32.21 174.684C31.7853 174.519 31.417 174.264 31.105 173.917C30.8017 173.562 30.65 173.085 30.65 172.487C30.65 171.984 30.7843 171.529 31.053 171.122C31.3303 170.706 31.742 170.377 32.288 170.134C32.8427 169.891 33.5187 169.77 34.316 169.77C34.8707 169.77 35.4167 169.839 35.954 169.978C36.4913 170.117 36.955 170.316 37.345 170.576L36.812 171.889C36.4133 171.655 35.9973 171.477 35.564 171.356C35.1307 171.235 34.7103 171.174 34.303 171.174C33.6357 171.174 33.1373 171.287 32.808 171.512C32.4873 171.737 32.327 172.036 32.327 172.409C32.327 172.669 32.418 172.881 32.6 173.046C32.7907 173.211 33.029 173.341 33.315 173.436C33.601 173.531 33.991 173.64 34.485 173.761C35.161 173.917 35.7157 174.082 36.149 174.255C36.5823 174.42 36.9507 174.675 37.254 175.022C37.566 175.369 37.722 175.837 37.722 176.426C37.722 176.929 37.5833 177.384 37.306 177.791C37.0373 178.198 36.6257 178.523 36.071 178.766C35.5163 179.009 34.8403 179.13 34.043 179.13ZM41.8668 171.33H38.8508V169.9H46.5728V171.33H43.5568V179H41.8668V171.33ZM55.4161 177.583V179H48.5911V169.9H55.2341V171.317H50.2811V173.683H54.6751V175.074H50.2811V177.583H55.4161ZM63.9521 176.894H59.4021L58.5051 179H56.7631L60.8581 169.9H62.5221L66.6301 179H64.8621L63.9521 176.894ZM63.3931 175.568L61.6771 171.59L59.9741 175.568H63.3931ZM76.8964 179L76.8834 172.968L73.8934 177.96H73.1394L70.1494 173.046V179H68.5374V169.9H69.9284L73.5424 175.932L77.0914 169.9H78.4824L78.4954 179H76.8964ZM92.0002 179L90.1412 176.335C90.0632 176.344 89.9462 176.348 89.7902 176.348H87.7362V179H86.0462V169.9H89.7902C90.5789 169.9 91.2636 170.03 91.8442 170.29C92.4336 170.55 92.8842 170.923 93.1962 171.408C93.5082 171.893 93.6642 172.47 93.6642 173.137C93.6642 173.822 93.4952 174.411 93.1572 174.905C92.8279 175.399 92.3512 175.767 91.7272 176.01L93.8202 179H92.0002ZM91.9612 173.137C91.9612 172.556 91.7706 172.11 91.3892 171.798C91.0079 171.486 90.4489 171.33 89.7122 171.33H87.7362V174.957H89.7122C90.4489 174.957 91.0079 174.801 91.3892 174.489C91.7706 174.168 91.9612 173.718 91.9612 173.137ZM102.207 176.894H97.657L96.76 179H95.018L99.113 169.9H100.777L104.885 179H103.117L102.207 176.894ZM101.648 175.568L99.932 171.59L98.229 175.568H101.648ZM106.792 169.9H110.77C111.741 169.9 112.603 170.091 113.357 170.472C114.111 170.845 114.696 171.378 115.112 172.071C115.528 172.756 115.736 173.549 115.736 174.45C115.736 175.351 115.528 176.149 115.112 176.842C114.696 177.527 114.111 178.06 113.357 178.441C112.603 178.814 111.741 179 110.77 179H106.792V169.9ZM110.692 177.57C111.36 177.57 111.945 177.444 112.447 177.193C112.959 176.933 113.349 176.569 113.617 176.101C113.895 175.624 114.033 175.074 114.033 174.45C114.033 173.826 113.895 173.28 113.617 172.812C113.349 172.335 112.959 171.971 112.447 171.72C111.945 171.46 111.36 171.33 110.692 171.33H108.482V177.57H110.692ZM118.283 169.9H119.973V179H118.283V169.9ZM129.086 176.894H124.536L123.639 179H121.897L125.992 169.9H127.656L131.764 179H129.996L129.086 176.894ZM128.527 175.568L126.811 171.59L125.108 175.568H128.527ZM135.06 171.33H132.044V169.9H139.766V171.33H136.75V179H135.06V171.33ZM145.909 179.13C144.981 179.13 144.145 178.931 143.4 178.532C142.654 178.125 142.069 177.566 141.645 176.855C141.22 176.136 141.008 175.334 141.008 174.45C141.008 173.566 141.22 172.769 141.645 172.058C142.069 171.339 142.654 170.78 143.4 170.381C144.145 169.974 144.981 169.77 145.909 169.77C146.836 169.77 147.672 169.974 148.418 170.381C149.163 170.78 149.748 171.334 150.173 172.045C150.597 172.756 150.81 173.557 150.81 174.45C150.81 175.343 150.597 176.144 150.173 176.855C149.748 177.566 149.163 178.125 148.418 178.532C147.672 178.931 146.836 179.13 145.909 179.13ZM145.909 177.648C146.515 177.648 147.061 177.514 147.547 177.245C148.032 176.968 148.413 176.586 148.691 176.101C148.968 175.607 149.107 175.057 149.107 174.45C149.107 173.843 148.968 173.297 148.691 172.812C148.413 172.318 148.032 171.937 147.547 171.668C147.061 171.391 146.515 171.252 145.909 171.252C145.302 171.252 144.756 171.391 144.271 171.668C143.785 171.937 143.404 172.318 143.127 172.812C142.849 173.297 142.711 173.843 142.711 174.45C142.711 175.057 142.849 175.607 143.127 176.101C143.404 176.586 143.785 176.968 144.271 177.245C144.756 177.514 145.302 177.648 145.909 177.648ZM159.305 179L157.446 176.335C157.368 176.344 157.251 176.348 157.095 176.348H155.041V179H153.351V169.9H157.095C157.884 169.9 158.568 170.03 159.149 170.29C159.738 170.55 160.189 170.923 160.501 171.408C160.813 171.893 160.969 172.47 160.969 173.137C160.969 173.822 160.8 174.411 160.462 174.905C160.133 175.399 159.656 175.767 159.032 176.01L161.125 179H159.305ZM159.266 173.137C159.266 172.556 159.075 172.11 158.694 171.798C158.313 171.486 157.754 171.33 157.017 171.33H155.041V174.957H157.017C157.754 174.957 158.313 174.801 158.694 174.489C159.075 174.168 159.266 173.718 159.266 173.137Z" fill="white" fill-opacity="0.87"/>
<defs>
<filter id="filter0_d" x="0" y="0" width="208" height="208" filterUnits="userSpaceOnUse" color-interpolation-filters="sRGB">
<feFlood flood-opacity="0" result="BackgroundImageFix"/>
<feColorMatrix in="SourceAlpha" type="matrix" values="0 0 0 0 0 0 0 0 0 0 0 0 0 0 0 0 0 0 127 0"/>
<feOffset dx="4" dy="4"/>
<feGaussianBlur stdDeviation="2"/>
<feColorMatrix type="matrix" values="0 0 0 0 0 0 0 0 0 0 0 0 0 0 0 0 0 0 0.25 0"/>
<feBlend mode="normal" in2="BackgroundImageFix" result="effect1_dropShadow"/>
<feBlend mode="normal" in="SourceGraphic" in2="effect1_dropShadow" result="shape"/>
</filter>
</defs>
</svg>
