<svg width="208" height="208" viewBox="0 0 208 208" fill="none" xmlns="http://www.w3.org/2000/svg">
<g filter="url(#filter0_d)">
<rect width="200" height="200" rx="8" fill="#121212"/>
<rect width="200" height="200" rx="8" fill="white" fill-opacity="0.08"/>
</g>
<path d="M48.7132 143.276H50.4032V152.376H48.7132V143.276ZM61.7006 143.276V152.376H60.3096L55.2916 146.214V152.376H53.6146V143.276H55.0056L60.0236 149.438V143.276H61.7006ZM66.735 144.706H63.719V143.276H71.441V144.706H68.425V152.376H66.735V144.706ZM78.9043 150.27H74.3543L73.4573 152.376H71.7153L75.8103 143.276H77.4743L81.5823 152.376H79.8143L78.9043 150.27ZM78.3453 148.944L76.6293 144.966L74.9263 148.944H78.3453ZM86.6226 148.567L85.1796 150.049V152.376H83.4896V143.276H85.1796V147.943L89.6776 143.276H91.5756L87.7536 147.345L91.8096 152.376H89.8336L86.6226 148.567ZM100.535 150.959V152.376H93.7103V143.276H100.353V144.693H95.4003V147.059H99.7943V148.45H95.4003V150.959H100.535ZM109.202 144.693V147.462H113.596V148.892H109.202V152.376H107.512V143.276H114.155V144.693H109.202ZM116.539 143.276H118.229V150.946H122.987V152.376H116.539V143.276ZM131.037 150.27H126.487L125.59 152.376H123.848L127.943 143.276H129.607L133.715 152.376H131.947L131.037 150.27ZM130.478 148.944L128.762 144.966L127.059 148.944H130.478ZM139.366 143.276C140.155 143.276 140.84 143.406 141.42 143.666C142.01 143.926 142.46 144.299 142.772 144.784C143.084 145.27 143.24 145.846 143.24 146.513C143.24 147.172 143.084 147.748 142.772 148.242C142.46 148.728 142.01 149.1 141.42 149.36C140.84 149.62 140.155 149.75 139.366 149.75H137.312V152.376H135.622V143.276H139.366ZM139.288 148.32C140.025 148.32 140.584 148.164 140.965 147.852C141.347 147.54 141.537 147.094 141.537 146.513C141.537 145.933 141.347 145.486 140.965 145.174C140.584 144.862 140.025 144.706 139.288 144.706H137.312V148.32H139.288ZM148.626 152.506C147.924 152.506 147.244 152.407 146.585 152.207C145.935 152.008 145.419 151.744 145.038 151.414L145.623 150.101C145.996 150.396 146.451 150.639 146.988 150.829C147.534 151.011 148.08 151.102 148.626 151.102C149.302 151.102 149.805 150.994 150.134 150.777C150.472 150.561 150.641 150.275 150.641 149.919C150.641 149.659 150.546 149.447 150.355 149.282C150.173 149.109 149.939 148.975 149.653 148.879C149.367 148.784 148.977 148.676 148.483 148.554C147.79 148.39 147.226 148.225 146.793 148.06C146.368 147.896 146 147.64 145.688 147.293C145.385 146.938 145.233 146.461 145.233 145.863C145.233 145.361 145.367 144.906 145.636 144.498C145.913 144.082 146.325 143.753 146.871 143.51C147.426 143.268 148.102 143.146 148.899 143.146C149.454 143.146 150 143.216 150.537 143.354C151.074 143.493 151.538 143.692 151.928 143.952L151.395 145.265C150.996 145.031 150.58 144.854 150.147 144.732C149.714 144.611 149.293 144.55 148.886 144.55C148.219 144.55 147.72 144.663 147.391 144.888C147.07 145.114 146.91 145.413 146.91 145.785C146.91 146.045 147.001 146.258 147.183 146.422C147.374 146.587 147.612 146.717 147.898 146.812C148.184 146.908 148.574 147.016 149.068 147.137C149.744 147.293 150.299 147.458 150.732 147.631C151.165 147.796 151.534 148.052 151.837 148.398C152.149 148.745 152.305 149.213 152.305 149.802C152.305 150.305 152.166 150.76 151.889 151.167C151.62 151.575 151.209 151.9 150.654 152.142C150.099 152.385 149.423 152.506 148.626 152.506ZM91.474 166.506C90.5466 166.506 89.7103 166.307 88.965 165.908C88.2196 165.501 87.6346 164.942 87.21 164.231C86.7853 163.512 86.573 162.71 86.573 161.826C86.573 160.942 86.7853 160.145 87.21 159.434C87.6346 158.715 88.2196 158.156 88.965 157.757C89.7103 157.35 90.5466 157.146 91.474 157.146C92.4013 157.146 93.2376 157.35 93.983 157.757C94.7283 158.156 95.3133 158.711 95.738 159.421C96.1626 160.132 96.375 160.934 96.375 161.826C96.375 162.719 96.1626 163.521 95.738 164.231C95.3133 164.942 94.7283 165.501 93.983 165.908C93.2376 166.307 92.4013 166.506 91.474 166.506ZM91.474 165.024C92.0806 165.024 92.6266 164.89 93.112 164.621C93.5973 164.344 93.9786 163.963 94.256 163.477C94.5333 162.983 94.672 162.433 94.672 161.826C94.672 161.22 94.5333 160.674 94.256 160.188C93.9786 159.694 93.5973 159.313 93.112 159.044C92.6266 158.767 92.0806 158.628 91.474 158.628C90.8673 158.628 90.3213 158.767 89.836 159.044C89.3506 159.313 88.9693 159.694 88.692 160.188C88.4146 160.674 88.276 161.22 88.276 161.826C88.276 162.433 88.4146 162.983 88.692 163.477C88.9693 163.963 89.3506 164.344 89.836 164.621C90.3213 164.89 90.8673 165.024 91.474 165.024ZM100.606 158.693V161.462H105V162.892H100.606V166.376H98.9163V157.276H105.559V158.693H100.606ZM109.634 158.693V161.462H114.028V162.892H109.634V166.376H107.944V157.276H114.587V158.693H109.634Z" fill="white" fill-opacity="0.87"/>
<path d="M106.322 64.3346L104.935 66.1746L107.675 69.0784L109.207 67.064L106.322 64.3346Z" fill="white"/>
<path d="M100.482 72.1604L99.1573 73.9156L100.944 76.9466L97.8311 78.0638L97.1822 76.5365L95.0342 79.3869L95.0986 79.566L94.7906 79.709L91.4312 84.1652L95.2809 82.5028C95.3123 82.6222 95.3123 82.7448 95.3657 82.8642L96.0712 84.3994L102.479 75.9818L100.482 72.1604Z" fill="white"/>
<path d="M103.816 67.7106L102.173 69.8916L104.519 73.2746L106.288 70.9506L103.816 67.7106Z" fill="white"/>
<path d="M89.0013 85.1799L89.2763 85.062L92.5556 80.7095L91.3614 81.2626L88.2141 62.9976L89.0422 62.6205L94.5512 78.0634L96.6426 75.2869L90.8335 61.585L91.6631 61.2079L98.5062 72.8168L99.8717 71.0051L94.2605 60.2761L95.0886 59.8975L101.393 68.9875L103 66.8537L96.9805 58.9657L97.8101 58.5885L104.16 65.3153L105.508 63.5287L97.6608 56.1012C97.4455 55.8969 97.1297 55.8388 96.8563 55.9519L86.5281 60.1944C86.2248 60.3186 86.0362 60.6234 86.0629 60.9502L87.9517 84.5482C87.991 85.062 88.5268 85.3842 89.0013 85.1799Z" fill="white"/>
<path d="M110.129 67.8639L108.557 69.9302L111.467 73.0115L108.722 74.2969L106.975 72.0075L105.171 74.3786L105.622 75.0291L104.312 75.5083L96.6484 85.5742L99.6732 92.1643C99.9545 92.7802 100.674 93.0631 101.303 92.8038L112.963 87.972C113.666 87.6813 113.953 86.8391 113.575 86.1792L108.253 76.9052L115.052 73.97C115.548 73.7548 115.664 73.1027 115.27 72.7303L110.129 67.8639Z" fill="white"/>
<path d="M73.8909 97.4795H73.4777V99.9056H73.8909V97.4795Z" fill="white"/>
<path d="M75.9696 97.4795C76.3043 97.4795 76.5651 97.5675 76.7521 97.7403C76.9391 97.9147 77.0318 98.1677 77.0318 98.5008V99.9056H76.6201V98.449C76.6201 98.2573 76.5604 98.108 76.4426 98.0012C76.3231 97.8943 76.166 97.8393 75.9696 97.8393H75.4605C75.2657 97.8393 75.107 97.8943 74.9891 98.0012C74.8697 98.108 74.81 98.2573 74.81 98.449V99.9056H74.3983V98.5008C74.3983 98.1677 74.4926 97.9147 74.678 97.7403C74.865 97.5675 75.1258 97.4795 75.4605 97.4795H75.9696Z" fill="white"/>
<path d="M78.6657 97.8503V99.0398C78.6657 99.2252 78.7129 99.3572 78.8087 99.4342C78.8841 99.497 79.0004 99.5316 79.156 99.541V99.9056H79.1308C78.8087 99.9056 78.5809 99.8364 78.4489 99.6966C78.3169 99.5567 78.2509 99.3242 78.2509 99.0005V97.8503H77.1604V97.4795H79.9039V97.8456L78.6657 97.8503Z" fill="white"/>
<path d="M81.9536 98.7978H81.1177C80.9386 98.7978 80.805 98.8167 80.7155 98.8497C80.5709 98.9078 80.497 99.0193 80.497 99.1828C80.5002 99.3367 80.5693 99.4389 80.706 99.4861C80.783 99.5175 80.9181 99.5316 81.1098 99.5316H81.806C82.0464 99.5316 82.2176 99.4986 82.3213 99.4311C82.4156 99.3682 82.4628 99.2692 82.4628 99.1309C82.4518 98.9062 82.2821 98.7962 81.9536 98.7978ZM82.8996 99.9197H82.469V99.7092C82.2931 99.8522 82.0731 99.9229 81.8122 99.9229H81.1004C80.7516 99.9229 80.5065 99.882 80.365 99.8019C80.1718 99.6903 80.0759 99.4766 80.0759 99.1561H80.0822C80.0869 98.8544 80.1875 98.6501 80.387 98.5433C80.53 98.4647 80.7689 98.4254 81.1036 98.4254H81.9615C82.0306 98.4254 82.1092 98.4364 82.1925 98.4553C82.3355 98.4883 82.4313 98.5385 82.4769 98.6077C82.4738 98.3248 82.4313 98.1331 82.3465 98.0342C82.2538 97.9289 82.0715 97.8786 81.7981 97.8786H81.113C80.6997 97.8786 80.4955 97.998 80.5002 98.2384H80.0791C80.0775 97.9399 80.2048 97.7278 80.4625 97.6036C80.6306 97.5219 80.8443 97.4795 81.1004 97.4795H81.8374C82.2569 97.4795 82.5555 97.5895 82.733 97.8095C82.8493 97.9524 82.909 98.1269 82.909 98.3343C82.909 98.383 82.9059 98.427 82.8996 98.4631V99.9197Z" fill="white"/>
<path d="M83.7101 99.9056H83.2984V97.4795H83.7101V98.4804H84.1956C84.535 98.4804 84.7754 98.4694 84.9121 98.4458C85.085 98.416 85.2029 98.3563 85.2673 98.2667C85.3317 98.1772 85.3647 98.0342 85.3647 97.833V97.4795H85.7764V97.8645C85.7764 98.251 85.657 98.5181 85.4197 98.6643C85.657 98.8072 85.7764 99.0743 85.7764 99.4672V99.9024H85.3647V99.4939C85.3647 99.288 85.3333 99.1419 85.272 99.0555C85.2107 98.9659 85.096 98.9094 84.9247 98.8827C84.7912 98.8607 84.5445 98.8497 84.1893 98.8497H83.7101V99.9056Z" fill="white"/>
<path d="M88.7327 98.4867C88.728 98.2589 88.7233 98.1363 88.7186 98.1159C88.6997 97.9964 88.6164 97.9195 88.4703 97.8833C88.3744 97.8613 88.1906 97.8503 87.9156 97.8503H87.4206C87.0907 97.8503 86.8785 97.8802 86.7827 97.943C86.6617 98.0216 86.6004 98.2023 86.5989 98.4867H88.7327ZM89.1239 99.1985C89.1239 99.508 89.025 99.7092 88.8238 99.805C88.673 99.8789 88.3744 99.915 87.9266 99.915H87.3908C87.053 99.915 86.8031 99.8867 86.6507 99.8286C86.481 99.7657 86.3647 99.651 86.3003 99.4829C86.2422 99.3289 86.2139 99.0822 86.2139 98.7428C86.2139 98.3783 86.239 98.1174 86.2893 97.9603C86.3459 97.7765 86.4606 97.6492 86.6256 97.58C86.7858 97.5125 87.042 97.4795 87.3971 97.4795H87.9329C88.3289 97.4795 88.6211 97.5313 88.8097 97.635C88.9872 97.7325 89.0878 97.8833 89.1098 98.0876C89.1145 98.13 89.1192 98.262 89.1239 98.4867V98.8402H86.5989C86.5973 99.1623 86.6539 99.3682 86.7717 99.4515C86.8644 99.519 87.0765 99.552 87.4112 99.552H87.9188C88.2252 99.552 88.4231 99.5379 88.5111 99.5096C88.6588 99.4672 88.7311 99.3635 88.7296 99.1985H89.1239Z" fill="white"/>
<path fill-rule="evenodd" clip-rule="evenodd" d="M89.2828 100.264L90.0748 97.326L90.3796 97.4093L89.5893 100.346L89.2828 100.264Z" fill="white"/>
<path d="M93.4876 99.1938C93.4876 99.4609 93.42 99.6495 93.2802 99.761C93.1576 99.8584 92.9612 99.9056 92.6894 99.9056H91.4747C90.9421 99.9056 90.6765 99.6762 90.6781 99.2189H91.0976C91.0976 99.4295 91.2469 99.5363 91.5486 99.5363H92.5967C92.7396 99.5363 92.8496 99.5159 92.9219 99.4782C93.0146 99.4232 93.0618 99.3289 93.0618 99.1938C93.0618 99.0382 92.9816 98.9329 92.8166 98.8779C92.7192 98.8434 92.5715 98.8277 92.3767 98.8277C92.2997 98.8277 92.1818 98.8292 92.0278 98.834C91.8738 98.8402 91.756 98.8434 91.679 98.8434C91.371 98.8434 91.1416 98.8056 90.9861 98.7287C90.7708 98.6218 90.6639 98.4301 90.6639 98.1551C90.6639 97.9069 90.7378 97.7262 90.8855 97.6177C91.0128 97.525 91.2061 97.4795 91.4685 97.4795H92.6234C93.1938 97.4795 93.4782 97.7089 93.4782 98.1661H93.0429C93.0429 97.954 92.8889 97.8472 92.5857 97.8472H91.4936C91.2438 97.8472 91.1165 97.9524 91.1165 98.1614C91.1165 98.3798 91.3475 98.4914 91.8063 98.4914C91.8786 98.4914 91.9838 98.4867 92.1268 98.4788C92.2683 98.471 92.3751 98.4663 92.4474 98.4663C92.7601 98.4663 92.9973 98.5087 93.1592 98.5935C93.3792 98.7098 93.4876 98.9094 93.4876 99.1938Z" fill="white"/>
<path d="M94.2603 98.7287C94.2603 99.2739 94.5322 99.5473 95.0774 99.5473C95.4262 99.5473 95.6682 99.464 95.7971 99.299C95.9102 99.1561 95.9668 98.9031 95.9668 98.5401V97.4795H96.3502V98.5653C96.3502 98.8984 96.3957 99.1372 96.4884 99.2802C96.6047 99.4578 96.8184 99.5473 97.1327 99.5473C97.4532 99.5473 97.6811 99.4892 97.8146 99.3808C97.9639 99.2582 98.0378 99.0398 98.0378 98.7287L98.0425 97.4795H98.4133V98.7224C98.4133 99.5112 98.0346 99.9056 97.2788 99.9056C96.9803 99.9056 96.7666 99.8851 96.6377 99.8474C96.4256 99.7846 96.2637 99.651 96.1569 99.4452C95.9888 99.7516 95.6918 99.9056 95.2675 99.9056C94.9706 99.9056 94.7741 99.8977 94.683 99.8804C94.1519 99.794 93.8864 99.409 93.8864 98.7224V97.4795H94.2556L94.2603 98.7287Z" fill="white"/>
<path d="M99.3619 97.4795H98.9502V99.9056H99.3619V97.4795Z" fill="white"/>
<path d="M101.444 97.8393H100.938C100.751 97.8393 100.595 97.8943 100.471 98.0059C100.347 98.119 100.284 98.2651 100.284 98.4489V99.904H99.8708V97.4795H100.284V97.7985C100.43 97.5848 100.649 97.4795 100.938 97.4795H101.444C101.717 97.4795 101.936 97.5376 102.101 97.6523C102.286 97.7843 102.383 97.9728 102.393 98.2195H101.981C101.95 97.965 101.771 97.8393 101.444 97.8393Z" fill="white"/>
<path d="M103.967 99.9056C103.476 99.9056 103.154 99.8317 103.006 99.6825C102.854 99.5348 102.783 99.2173 102.786 98.7287L102.794 97.4795H103.206L103.203 98.8198C103.203 99.1372 103.258 99.3415 103.368 99.4279C103.459 99.5002 103.665 99.5363 103.985 99.5363H105.022V99.9056H103.967Z" fill="white"/>
<path d="M107.011 98.4946H108.72V98.8449H107.011V99.9197H106.623L106.627 98.6596C106.627 98.3264 106.652 98.0845 106.706 97.9352C106.767 97.7623 106.88 97.6445 107.048 97.5769C107.207 97.5125 107.46 97.4795 107.807 97.4795H108.257C108.692 97.4795 108.992 97.5345 109.156 97.6397C109.313 97.7419 109.407 97.9352 109.44 98.218H109.049C109.011 98.0562 108.929 97.9525 108.8 97.9069C108.706 97.8739 108.521 97.8582 108.238 97.8582H107.829C107.501 97.8582 107.294 97.888 107.201 97.9509C107.085 98.0279 107.02 98.2086 107.011 98.4946Z" fill="white"/>
<path d="M110.718 99.9056C110.228 99.9056 109.906 99.8317 109.757 99.6825C109.606 99.5348 109.534 99.2173 109.538 98.7287L109.545 97.4795H109.958L109.953 98.8198C109.953 99.1372 110.008 99.3415 110.118 99.4279C110.209 99.5002 110.415 99.5363 110.736 99.5363H111.774V99.9056H110.718Z" fill="white"/>
<path d="M113.718 98.7978H112.88C112.702 98.7978 112.567 98.8167 112.479 98.8497C112.333 98.9078 112.261 99.0193 112.261 99.1828C112.262 99.3367 112.333 99.4389 112.468 99.4861C112.547 99.5175 112.682 99.5316 112.874 99.5316H113.568C113.809 99.5316 113.982 99.4986 114.084 99.4311C114.179 99.3682 114.227 99.2692 114.227 99.1309C114.214 98.9062 114.046 98.7962 113.718 98.7978ZM114.663 99.9197H114.233V99.7092C114.055 99.8522 113.837 99.9229 113.576 99.9229H112.863C112.515 99.9229 112.27 99.882 112.129 99.8019C111.936 99.6903 111.84 99.4766 111.84 99.1561H111.846C111.851 98.8544 111.951 98.6501 112.151 98.5433C112.294 98.4647 112.533 98.4254 112.866 98.4254H113.724C113.795 98.4254 113.873 98.4364 113.956 98.4553C114.099 98.4883 114.194 98.5385 114.239 98.6077C114.238 98.3248 114.194 98.1331 114.109 98.0342C114.016 97.9289 113.834 97.8786 113.562 97.8786H112.877C112.464 97.8786 112.259 97.998 112.264 98.2384H111.843C111.84 97.9399 111.969 97.7278 112.226 97.6036C112.394 97.5219 112.608 97.4795 112.863 97.4795H113.601C114.019 97.4795 114.319 97.5895 114.497 97.8095C114.613 97.9524 114.673 98.1269 114.673 98.3343C114.673 98.383 114.67 98.427 114.663 98.4631V99.9197Z" fill="white"/>
<path d="M116.853 97.8817H115.626V98.6155H116.861C117.004 98.6155 117.106 98.5935 117.169 98.5527C117.247 98.5008 117.287 98.405 117.287 98.2683C117.287 98.1111 117.254 98.009 117.191 97.9587C117.128 97.9084 117.016 97.8817 116.853 97.8817ZM116.82 99.0209H115.626V99.9056H115.216V97.4795H116.853C117.174 97.4795 117.395 97.5392 117.515 97.6571C117.634 97.7781 117.694 97.9949 117.694 98.3139C117.694 98.5983 117.612 98.7931 117.452 98.8984C117.328 98.9785 117.117 99.0209 116.82 99.0209Z" fill="white"/>
<path d="M120.801 99.1938C120.801 99.4609 120.732 99.6495 120.594 99.761C120.471 99.8584 120.275 99.9056 120.002 99.9056H118.789C118.256 99.9056 117.989 99.6762 117.992 99.2189H118.411C118.411 99.4295 118.559 99.5363 118.861 99.5363H119.909C120.053 99.5363 120.162 99.5159 120.234 99.4782C120.328 99.4232 120.376 99.3289 120.376 99.1938C120.376 99.0382 120.294 98.9329 120.131 98.8779C120.032 98.8434 119.884 98.8277 119.691 98.8277C119.612 98.8277 119.496 98.8292 119.342 98.834C119.188 98.8402 119.07 98.8434 118.991 98.8434C118.685 98.8434 118.454 98.8056 118.3 98.7287C118.085 98.6218 117.978 98.4301 117.978 98.1551C117.978 97.9069 118.052 97.7262 118.199 97.6177C118.327 97.525 118.52 97.4795 118.781 97.4795H119.937C120.508 97.4795 120.79 97.7089 120.79 98.1661H120.357C120.357 97.954 120.203 97.8472 119.9 97.8472H118.807C118.556 97.8472 118.43 97.9524 118.43 98.1614C118.43 98.3798 118.661 98.4914 119.12 98.4914C119.192 98.4914 119.298 98.4867 119.439 98.4788C119.582 98.471 119.689 98.4663 119.76 98.4663C120.072 98.4663 120.311 98.5087 120.473 98.5935C120.693 98.7098 120.801 98.9094 120.801 99.1938Z" fill="white"/>
<path d="M125.158 98.8292V98.5982C125.158 98.3657 125.134 98.2023 125.089 98.1033C125.043 98.0059 124.958 97.9446 124.836 97.9147C124.749 97.8943 124.587 97.8833 124.344 97.8833H123.943C123.608 97.8833 123.396 97.9195 123.31 97.9886C123.203 98.0734 123.151 98.2761 123.151 98.5998V98.8323C123.151 99.1466 123.205 99.3446 123.313 99.4278C123.398 99.4907 123.605 99.5205 123.934 99.5205H124.352C124.589 99.5205 124.749 99.5127 124.832 99.4938C124.955 99.4671 125.04 99.4074 125.087 99.3116C125.133 99.2157 125.158 99.0554 125.158 98.8292ZM125.574 98.8433C125.574 99.1654 125.535 99.4027 125.458 99.5535C125.384 99.7059 125.254 99.805 125.07 99.8552C124.927 99.8992 124.688 99.9181 124.358 99.9181H123.912C123.572 99.9181 123.326 99.8898 123.172 99.8332C123 99.7704 122.886 99.6541 122.823 99.486C122.765 99.3288 122.735 99.0806 122.735 98.7412C122.735 98.3829 122.76 98.1237 122.809 97.9666C122.865 97.7827 122.978 97.6539 123.148 97.5832C123.307 97.514 123.563 97.4795 123.92 97.4795H124.361C124.741 97.4795 125.016 97.5187 125.184 97.5973C125.351 97.6759 125.459 97.8157 125.511 98.0184C125.552 98.1708 125.574 98.4458 125.574 98.8433Z" fill="white"/>
<path d="M126.344 98.4946H128.053V98.8449H126.344V99.9197H125.957L125.96 98.6596C125.96 98.3264 125.985 98.0845 126.039 97.9352C126.1 97.7623 126.213 97.6445 126.381 97.5769C126.542 97.5125 126.795 97.4795 127.14 97.4795H127.59C128.025 97.4795 128.325 97.5345 128.49 97.6397C128.647 97.7419 128.74 97.9352 128.773 98.218H128.383C128.346 98.0562 128.262 97.9525 128.133 97.9069C128.041 97.8739 127.854 97.8582 127.572 97.8582H127.162C126.836 97.8582 126.627 97.888 126.534 97.9509C126.418 98.0279 126.353 98.2086 126.344 98.4946Z" fill="white"/>
<path d="M129.259 98.4946H130.969V98.8449H129.259V99.9197H128.873L128.876 98.6596C128.876 98.3264 128.901 98.0845 128.954 97.9352C129.016 97.7623 129.129 97.6445 129.297 97.5769C129.457 97.5125 129.71 97.4795 130.056 97.4795H130.505C130.941 97.4795 131.241 97.5345 131.406 97.6397C131.563 97.7419 131.655 97.9352 131.688 98.218H131.299C131.261 98.0562 131.178 97.9525 131.049 97.9069C130.956 97.8739 130.769 97.8582 130.488 97.8582H130.078C129.751 97.8582 129.542 97.888 129.449 97.9509C129.333 98.0279 129.269 98.2086 129.259 98.4946Z" fill="white"/>
<defs>
<filter id="filter0_d" x="0" y="0" width="208" height="208" filterUnits="userSpaceOnUse" color-interpolation-filters="sRGB">
<feFlood flood-opacity="0" result="BackgroundImageFix"/>
<feColorMatrix in="SourceAlpha" type="matrix" values="0 0 0 0 0 0 0 0 0 0 0 0 0 0 0 0 0 0 127 0"/>
<feOffset dx="4" dy="4"/>
<feGaussianBlur stdDeviation="2"/>
<feColorMatrix type="matrix" values="0 0 0 0 0 0 0 0 0 0 0 0 0 0 0 0 0 0 0.25 0"/>
<feBlend mode="normal" in2="BackgroundImageFix" result="effect1_dropShadow"/>
<feBlend mode="normal" in="SourceGraphic" in2="effect1_dropShadow" result="shape"/>
</filter>
</defs>
</svg>
