<svg width="208" height="208" viewBox="0 0 208 208" fill="none" xmlns="http://www.w3.org/2000/svg">
<g filter="url(#filter0_d)">
<rect width="200" height="200" rx="8" fill="#121212"/>
<rect width="200" height="200" rx="8" fill="white" fill-opacity="0.08"/>
</g>
<path d="M60.6411 160.507C59.9391 160.507 59.2588 160.408 58.6001 160.208C57.9501 160.009 57.4345 159.745 57.0531 159.415L57.6381 158.102C58.0108 158.397 58.4658 158.64 59.0031 158.83C59.5491 159.012 60.0951 159.103 60.6411 159.103C61.3171 159.103 61.8198 158.995 62.1491 158.778C62.4871 158.562 62.6561 158.276 62.6561 157.92C62.6561 157.66 62.5608 157.448 62.3701 157.283C62.1881 157.11 61.9541 156.976 61.6681 156.88C61.3821 156.785 60.9921 156.677 60.4981 156.555C59.8048 156.391 59.2415 156.226 58.8081 156.061C58.3835 155.897 58.0151 155.641 57.7031 155.294C57.3998 154.939 57.2481 154.462 57.2481 153.864C57.2481 153.362 57.3825 152.907 57.6511 152.499C57.9285 152.083 58.3401 151.754 58.8861 151.511C59.4408 151.269 60.1168 151.147 60.9141 151.147C61.4688 151.147 62.0148 151.217 62.5521 151.355C63.0895 151.494 63.5531 151.693 63.9431 151.953L63.4101 153.266C63.0115 153.032 62.5955 152.855 62.1621 152.733C61.7288 152.612 61.3085 152.551 60.9011 152.551C60.2338 152.551 59.7355 152.664 59.4061 152.889C59.0855 153.115 58.9251 153.414 58.9251 153.786C58.9251 154.046 59.0161 154.259 59.1981 154.423C59.3888 154.588 59.6271 154.718 59.9131 154.813C60.1991 154.909 60.5891 155.017 61.0831 155.138C61.7591 155.294 62.3138 155.459 62.7471 155.632C63.1805 155.797 63.5488 156.053 63.8521 156.399C64.1641 156.746 64.3201 157.214 64.3201 157.803C64.3201 158.306 64.1815 158.761 63.9041 159.168C63.6355 159.576 63.2238 159.901 62.6691 160.143C62.1145 160.386 61.4385 160.507 60.6411 160.507ZM70.4899 151.277C71.2786 151.277 71.9633 151.407 72.5439 151.667C73.1333 151.927 73.5839 152.3 73.8959 152.785C74.2079 153.271 74.3639 153.847 74.3639 154.514C74.3639 155.173 74.2079 155.749 73.8959 156.243C73.5839 156.729 73.1333 157.101 72.5439 157.361C71.9633 157.621 71.2786 157.751 70.4899 157.751H68.4359V160.377H66.7459V151.277H70.4899ZM70.4119 156.321C71.1486 156.321 71.7076 156.165 72.0889 155.853C72.4703 155.541 72.6609 155.095 72.6609 154.514C72.6609 153.934 72.4703 153.487 72.0889 153.175C71.7076 152.863 71.1486 152.707 70.4119 152.707H68.4359V156.321H70.4119ZM83.6266 158.96V160.377H76.8016V151.277H83.4446V152.694H78.4916V155.06H82.8856V156.451H78.4916V158.96H83.6266ZM93.0856 158.96V160.377H86.2606V151.277H92.9036V152.694H87.9506V155.06H92.3446V156.451H87.9506V158.96H93.0856ZM95.7196 151.277H99.6976C100.668 151.277 101.531 151.468 102.285 151.849C103.039 152.222 103.624 152.755 104.04 153.448C104.456 154.133 104.664 154.926 104.664 155.827C104.664 156.729 104.456 157.526 104.04 158.219C103.624 158.904 103.039 159.437 102.285 159.818C101.531 160.191 100.668 160.377 99.6976 160.377H95.7196V151.277ZM99.6196 158.947C100.287 158.947 100.872 158.822 101.375 158.57C101.886 158.31 102.276 157.946 102.545 157.478C102.822 157.002 102.961 156.451 102.961 155.827C102.961 155.203 102.822 154.657 102.545 154.189C102.276 153.713 101.886 153.349 101.375 153.097C100.872 152.837 100.287 152.707 99.6196 152.707H97.4096V158.947H99.6196ZM111.553 151.277H113.243V158.947H118.001V160.377H111.553V151.277ZM120.085 151.277H121.775V160.377H120.085V151.277ZM133.345 160.377L133.332 154.345L130.342 159.337H129.588L126.598 154.423V160.377H124.986V151.277H126.377L129.991 157.309L133.54 151.277H134.931L134.944 160.377H133.345ZM138.152 151.277H139.842V160.377H138.152V151.277ZM144.9 152.707H141.884V151.277H149.606V152.707H146.59V160.377H144.9V152.707ZM74.0344 174.377L72.1754 171.712C72.0974 171.721 71.9804 171.725 71.8244 171.725H69.7704V174.377H68.0804V165.277H71.8244C72.6131 165.277 73.2977 165.407 73.8784 165.667C74.4677 165.927 74.9184 166.3 75.2304 166.785C75.5424 167.271 75.6984 167.847 75.6984 168.514C75.6984 169.199 75.5294 169.788 75.1914 170.282C74.8621 170.776 74.3854 171.145 73.7614 171.387L75.8544 174.377H74.0344ZM73.9954 168.514C73.9954 167.934 73.8047 167.487 73.4234 167.175C73.0421 166.863 72.4831 166.707 71.7464 166.707H69.7704V170.334H71.7464C72.4831 170.334 73.0421 170.178 73.4234 169.866C73.8047 169.546 73.9954 169.095 73.9954 168.514ZM85.1642 172.96V174.377H78.3392V165.277H84.9822V166.694H80.0292V169.06H84.4232V170.451H80.0292V172.96H85.1642ZM96.1572 174.377L96.1442 168.345L93.1542 173.337H92.4002L89.4102 168.423V174.377H87.7982V165.277H89.1892L92.8032 171.309L96.3522 165.277H97.7432L97.7562 174.377H96.1572ZM105.215 174.507C104.288 174.507 103.452 174.308 102.706 173.909C101.961 173.502 101.376 172.943 100.951 172.232C100.527 171.513 100.314 170.711 100.314 169.827C100.314 168.943 100.527 168.146 100.951 167.435C101.376 166.716 101.961 166.157 102.706 165.758C103.452 165.351 104.288 165.147 105.215 165.147C106.143 165.147 106.979 165.351 107.724 165.758C108.47 166.157 109.055 166.712 109.479 167.422C109.904 168.133 110.116 168.935 110.116 169.827C110.116 170.72 109.904 171.522 109.479 172.232C109.055 172.943 108.47 173.502 107.724 173.909C106.979 174.308 106.143 174.507 105.215 174.507ZM105.215 173.025C105.822 173.025 106.368 172.891 106.853 172.622C107.339 172.345 107.72 171.964 107.997 171.478C108.275 170.984 108.413 170.434 108.413 169.827C108.413 169.221 108.275 168.675 107.997 168.189C107.72 167.695 107.339 167.314 106.853 167.045C106.368 166.768 105.822 166.629 105.215 166.629C104.609 166.629 104.063 166.768 103.577 167.045C103.092 167.314 102.711 167.695 102.433 168.189C102.156 168.675 102.017 169.221 102.017 169.827C102.017 170.434 102.156 170.984 102.433 171.478C102.711 171.964 103.092 172.345 103.577 172.622C104.063 172.891 104.609 173.025 105.215 173.025ZM120.686 165.277L116.721 174.377H115.057L111.079 165.277H112.912L115.941 172.297L118.996 165.277H120.686ZM129.221 172.96V174.377H122.396V165.277H129.039V166.694H124.086V169.06H128.48V170.451H124.086V172.96H129.221ZM137.809 174.377L135.95 171.712C135.872 171.721 135.755 171.725 135.599 171.725H133.545V174.377H131.855V165.277H135.599C136.387 165.277 137.072 165.407 137.653 165.667C138.242 165.927 138.693 166.3 139.005 166.785C139.317 167.271 139.473 167.847 139.473 168.514C139.473 169.199 139.304 169.788 138.966 170.282C138.636 170.776 138.16 171.145 137.536 171.387L139.629 174.377H137.809ZM137.77 168.514C137.77 167.934 137.579 167.487 137.198 167.175C136.816 166.863 136.257 166.707 135.521 166.707H133.545V170.334H135.521C136.257 170.334 136.816 170.178 137.198 169.866C137.579 169.546 137.77 169.095 137.77 168.514Z" fill="white" fill-opacity="0.87"/>
<path d="M86.2677 69.7258C77.8234 69.7258 70.9535 76.5957 70.9535 85.0401C70.9535 93.4845 77.8234 100.356 86.2677 100.356C94.7137 100.356 101.584 93.4845 101.584 85.0401C101.584 76.5957 94.7137 69.7258 86.2677 69.7258ZM86.2677 102.042C76.8931 102.042 69.2659 94.4163 69.2659 85.0401C69.2659 75.6639 76.8931 68.0382 86.2677 68.0382C95.6439 68.0382 103.271 75.6639 103.271 85.0401C103.271 94.4163 95.6439 102.042 86.2677 102.042Z" fill="white"/>
<path d="M68.8052 85.0288H67.1176C67.1176 74.4757 75.7033 65.8899 86.2549 65.8899V67.5791C76.6336 67.5791 68.8052 75.4059 68.8052 85.0288Z" fill="white"/>
<path fill-rule="evenodd" clip-rule="evenodd" d="M73.8493 87.8334L74.4103 89.4267L70.7475 90.7168L70.1865 89.125L73.8493 87.8334Z" fill="white"/>
<path fill-rule="evenodd" clip-rule="evenodd" d="M73.7483 83.5367L74.0264 85.2024L70.1578 85.8482L69.8796 84.1826L73.7483 83.5367Z" fill="white"/>
<path fill-rule="evenodd" clip-rule="evenodd" d="M85.386 68.8054L87.0752 68.8086L87.0658 73.5493L85.3782 73.5462L85.386 68.8054Z" fill="white"/>
<path fill-rule="evenodd" clip-rule="evenodd" d="M72.4366 76.7849L75.6672 78.7208L74.7999 80.1696L71.5676 78.2321L72.4366 76.7849Z" fill="white"/>
<path fill-rule="evenodd" clip-rule="evenodd" d="M76.022 71.7211L79.0374 74.9564L77.8054 76.1051L74.79 72.8697L76.022 71.7211Z" fill="white"/>
<path fill-rule="evenodd" clip-rule="evenodd" d="M81.936 69.4194L83.0139 73.0822L81.3923 73.5599L80.3143 69.8971L81.936 69.4194Z" fill="white"/>
<path d="M114.122 78.9597C114.122 79.3714 114.016 79.6621 113.803 79.8333C113.616 79.981 113.309 80.0565 112.893 80.0565H111.023C110.204 80.0565 109.796 79.7045 109.799 78.9958H110.443C110.443 79.3227 110.674 79.4876 111.136 79.4876H112.748C112.973 79.4876 113.14 79.4562 113.248 79.3949C113.394 79.3148 113.466 79.1702 113.466 78.9597C113.466 78.7224 113.341 78.5606 113.089 78.4741C112.937 78.4223 112.712 78.3956 112.414 78.3956C112.293 78.3956 112.113 78.4003 111.875 78.4082C111.637 78.4176 111.46 78.4223 111.339 78.4223C110.866 78.4223 110.511 78.3626 110.273 78.2463C109.943 78.0782 109.777 77.7859 109.777 77.3616C109.777 76.9782 109.892 76.7032 110.119 76.5367C110.313 76.3953 110.613 76.3246 111.012 76.3246H112.791C113.667 76.3246 114.106 76.6765 114.106 77.3789H113.435C113.435 77.0521 113.201 76.8902 112.733 76.8902H111.056C110.669 76.8902 110.476 77.0505 110.476 77.3727C110.476 77.7105 110.828 77.8802 111.535 77.8802C111.645 77.8802 111.809 77.8739 112.027 77.8613C112.245 77.8488 112.41 77.8425 112.519 77.8425C113.001 77.8425 113.369 77.9069 113.617 78.0389C113.953 78.2164 114.122 78.5244 114.122 78.9597Z" fill="white"/>
<path d="M117.206 76.9421H115.316V78.0719H117.219C117.437 78.0719 117.594 78.0389 117.692 77.9745C117.813 77.8928 117.872 77.7482 117.872 77.5392C117.872 77.2988 117.824 77.1369 117.725 77.0584C117.629 76.9814 117.454 76.9421 117.206 76.9421ZM117.154 78.6942H115.316V80.0565H114.687V76.3246H117.206C117.7 76.3246 118.037 76.4157 118.223 76.598C118.408 76.7818 118.499 77.1181 118.499 77.6083C118.499 78.0436 118.375 78.3453 118.127 78.5071C117.937 78.6313 117.612 78.6942 117.154 78.6942Z" fill="white"/>
<path d="M122.705 77.8739C122.699 77.5251 122.691 77.3365 122.685 77.3051C122.654 77.1197 122.526 77.0003 122.302 76.9468C122.155 76.9123 121.873 76.895 121.448 76.895H120.688C120.18 76.895 119.853 76.9421 119.703 77.038C119.519 77.159 119.424 77.4371 119.421 77.8739H122.705ZM123.307 78.9707C123.307 79.4452 123.153 79.7564 122.844 79.9025C122.613 80.0157 122.154 80.0722 121.466 80.0722H120.641C120.119 80.0722 119.739 80.0282 119.501 79.9386C119.242 79.8428 119.063 79.6668 118.962 79.4076C118.874 79.1687 118.83 78.79 118.83 78.2683C118.83 77.7074 118.87 77.3067 118.947 77.0631C119.036 76.7818 119.208 76.5854 119.464 76.4786C119.709 76.3764 120.105 76.3246 120.65 76.3246H121.477C122.083 76.3246 122.533 76.4047 122.823 76.5634C123.097 76.7143 123.251 76.9453 123.287 77.2611C123.293 77.3255 123.299 77.5282 123.307 77.8739V78.4176H119.421C119.418 78.9126 119.506 79.2268 119.687 79.3588C119.83 79.4625 120.158 79.5144 120.672 79.5144H121.455C121.923 79.5144 122.226 79.4924 122.364 79.45C122.594 79.3824 122.704 79.2221 122.701 78.9707H123.307Z" fill="white"/>
<path d="M127.616 77.8739C127.61 77.5251 127.602 77.3365 127.595 77.3051C127.564 77.1197 127.437 77.0003 127.212 76.9468C127.066 76.9123 126.783 76.895 126.36 76.895H125.6C125.092 76.895 124.764 76.9421 124.615 77.038C124.429 77.159 124.335 77.4371 124.332 77.8739H127.616ZM128.219 78.9707C128.219 79.4452 128.064 79.7564 127.756 79.9025C127.523 80.0157 127.064 80.0722 126.378 80.0722H125.553C125.029 80.0722 124.649 80.0282 124.412 79.9386C124.153 79.8428 123.974 79.6668 123.875 79.4076C123.785 79.1687 123.741 78.79 123.741 78.2683C123.741 77.7074 123.78 77.3067 123.857 77.0631C123.947 76.7818 124.12 76.5854 124.374 76.4786C124.619 76.3764 125.017 76.3246 125.561 76.3246H126.387C126.994 76.3246 127.443 76.4047 127.734 76.5634C128.007 76.7143 128.161 76.9453 128.197 77.2611C128.204 77.3255 128.211 77.5282 128.219 77.8739V78.4176H124.332C124.329 78.9126 124.417 79.2268 124.597 79.3588C124.74 79.4625 125.069 79.5144 125.583 79.5144H126.365C126.833 79.5144 127.137 79.4924 127.276 79.45C127.504 79.3824 127.616 79.2221 127.611 78.9707H128.219Z" fill="white"/>
<path d="M132.345 78.416V77.9478C132.345 77.533 132.274 77.2533 132.134 77.1071C131.993 76.961 131.718 76.8887 131.302 76.8887H129.443V79.4924H131.349C131.776 79.4924 132.051 79.417 132.18 79.2677C132.29 79.1373 132.345 78.8528 132.345 78.416ZM132.977 78.438C132.977 79.0618 132.879 79.4845 132.68 79.7045C132.463 79.9434 132.048 80.0612 131.435 80.0612H128.805V76.3246H131.343C131.866 76.3246 132.248 76.4047 132.488 76.5634C132.708 76.7049 132.849 76.9421 132.914 77.2706C132.956 77.4843 132.977 77.8723 132.977 78.438Z" fill="white"/>
<path d="M113.093 86.8083H109.93V83.0764H110.564V86.2395H113.093V86.8083Z" fill="white"/>
<path d="M114.093 83.0764H113.46V86.8083H114.093V83.0764Z" fill="white"/>
<path d="M121.075 84.8866C121.075 84.0491 120.655 83.6295 119.818 83.6295C119.279 83.6295 118.91 83.7552 118.712 84.0066C118.537 84.2282 118.451 84.6179 118.451 85.1804V86.8083H117.86V85.1364C117.86 84.6226 117.789 84.2565 117.646 84.0397C117.469 83.7662 117.139 83.6295 116.655 83.6295C116.163 83.6295 115.812 83.7159 115.608 83.8856C115.377 84.0726 115.261 84.4074 115.261 84.8866L115.258 86.8083H114.687V84.8976C114.687 83.6829 115.27 83.0764 116.433 83.0764C116.89 83.0764 117.219 83.1063 117.417 83.166C117.744 83.2634 117.992 83.4692 118.158 83.7851C118.418 83.3121 118.873 83.0764 119.527 83.0764C119.984 83.0764 120.283 83.0858 120.426 83.1078C121.241 83.2461 121.65 83.8432 121.65 84.8976V86.8083H121.081L121.075 84.8866Z" fill="white"/>
<path d="M123.145 83.0764H122.513V86.8083H123.145V83.0764Z" fill="white"/>
<path d="M125.904 83.6452V85.4774C125.904 85.7618 125.976 85.9645 126.122 86.0855C126.238 86.1798 126.418 86.2348 126.659 86.2489V86.8083H126.617C126.124 86.8083 125.775 86.6999 125.571 86.4862C125.366 86.2709 125.266 85.9158 125.266 85.4193V83.6452H123.588V83.0764H127.81V83.6405L125.904 83.6452Z" fill="white"/>
<path d="M112.873 90.4678H110.695V91.4939H112.873C113.281 91.4939 113.486 91.3179 113.486 90.9628C113.486 90.6312 113.281 90.4678 112.873 90.4678ZM114.22 93.5602H113.593V92.8782C113.593 92.6127 113.539 92.421 113.429 92.3047C113.321 92.1869 113.134 92.1287 112.868 92.1287L110.695 92.135V93.5602H110.084V89.8282H112.815C113.266 89.8282 113.589 89.9147 113.789 90.0891C114 90.2777 114.103 90.5935 114.103 91.0366C114.103 91.442 113.99 91.6982 113.762 91.8097C114.067 91.8899 114.22 92.1633 114.22 92.6284V93.5602Z" fill="white"/>
<path d="M118.716 91.3776C118.709 91.0287 118.702 90.8386 118.695 90.8072C118.664 90.6233 118.537 90.5039 118.312 90.4505C118.166 90.4159 117.883 90.3971 117.459 90.3971H116.698C116.191 90.3971 115.864 90.4457 115.713 90.5416C115.529 90.661 115.435 90.9407 115.432 91.3776H118.716ZM119.319 92.4728C119.319 92.9489 119.164 93.26 118.854 93.4046C118.623 93.5177 118.164 93.5743 117.476 93.5743H116.653C116.129 93.5743 115.749 93.5319 115.512 93.4423C115.253 93.3464 115.073 93.1704 114.973 92.9112C114.885 92.6723 114.841 92.2921 114.841 91.7704C114.841 91.211 114.88 90.8103 114.957 90.5668C115.047 90.2839 115.218 90.0891 115.474 89.9822C115.719 89.8801 116.115 89.8282 116.66 89.8282H117.487C118.093 89.8282 118.543 89.9068 118.834 90.0671C119.107 90.2163 119.261 90.4489 119.297 90.7647C119.303 90.8276 119.31 91.0319 119.319 91.3776V91.9213H115.432C115.429 92.4162 115.516 92.7305 115.697 92.8625C115.84 92.9662 116.169 93.0165 116.682 93.0165H117.465C117.933 93.0165 118.236 92.9944 118.375 92.952C118.604 92.886 118.714 92.7258 118.711 92.4728H119.319Z" fill="white"/>
<path d="M126.292 91.6384C126.292 90.8009 125.873 90.3814 125.035 90.3814C124.496 90.3814 124.127 90.5087 123.929 90.7601C123.754 90.9801 123.668 91.3713 123.668 91.9323V93.5602H123.077V91.8883C123.077 91.3745 123.005 91.0099 122.863 90.7915C122.686 90.5181 122.356 90.3814 121.872 90.3814C121.38 90.3814 121.03 90.4678 120.825 90.6375C120.594 90.8245 120.478 91.1592 120.478 91.6384L120.473 93.5602H119.905V91.6494C119.905 90.4348 120.486 89.8282 121.65 89.8282C122.108 89.8282 122.436 89.8581 122.634 89.9194C122.961 90.0153 123.208 90.2211 123.376 90.537C123.635 90.064 124.091 89.8282 124.743 89.8282C125.202 89.8282 125.5 89.8377 125.643 89.8597C126.457 89.9996 126.867 90.5951 126.867 91.6494V93.5602H126.298L126.292 91.6384Z" fill="white"/>
<path d="M131.304 91.904V91.5457C131.304 91.1922 131.268 90.9392 131.198 90.7884C131.127 90.6359 130.996 90.5416 130.809 90.4976C130.677 90.4662 130.424 90.4505 130.054 90.4505H129.436C128.919 90.4505 128.594 90.5024 128.46 90.6108C128.298 90.7412 128.215 91.0555 128.215 91.552V91.9087C128.215 92.3927 128.3 92.6975 128.465 92.8248C128.597 92.9191 128.914 92.9678 129.42 92.9678H130.063C130.429 92.9678 130.676 92.9536 130.803 92.9254C130.992 92.8861 131.122 92.7934 131.194 92.6472C131.267 92.4995 131.304 92.2513 131.304 91.904ZM131.942 91.926C131.942 92.421 131.883 92.7871 131.766 93.0181C131.65 93.2506 131.452 93.4062 131.171 93.4847C130.946 93.5492 130.582 93.579 130.074 93.579H129.386C128.866 93.579 128.485 93.5366 128.248 93.447C127.986 93.3512 127.805 93.1752 127.711 92.9159C127.621 92.6739 127.577 92.2921 127.577 91.7705C127.577 91.2173 127.613 90.8198 127.689 90.5778C127.778 90.295 127.951 90.097 128.21 89.987C128.456 89.8801 128.85 89.8282 129.398 89.8282H130.079C130.665 89.8282 131.086 89.888 131.342 90.009C131.6 90.1284 131.769 90.3452 131.846 90.6579C131.911 90.8921 131.942 91.3148 131.942 91.926Z" fill="white"/>
<path d="M136.76 89.8282L134.882 93.5602H133.907L132.027 89.8282H132.756L134.37 93.0275L134.436 92.9914L136.031 89.8282H136.76Z" fill="white"/>
<path d="M140.813 91.3776C140.806 91.0287 140.799 90.8386 140.792 90.8072C140.759 90.6233 140.634 90.5039 140.409 90.4505C140.263 90.4159 139.98 90.3971 139.556 90.3971H138.795C138.288 90.3971 137.961 90.4457 137.81 90.5416C137.626 90.661 137.532 90.9407 137.529 91.3776H140.813ZM141.414 92.4728C141.414 92.9489 141.26 93.26 140.951 93.4046C140.72 93.5177 140.26 93.5743 139.573 93.5743H138.748C138.226 93.5743 137.846 93.5319 137.609 93.4423C137.348 93.3464 137.17 93.1704 137.07 92.9112C136.982 92.6723 136.938 92.2921 136.938 91.7704C136.938 91.211 136.977 90.8103 137.054 90.5668C137.144 90.2839 137.315 90.0891 137.571 89.9822C137.816 89.8801 138.212 89.8282 138.757 89.8282H139.584C140.19 89.8282 140.64 89.9068 140.931 90.0671C141.202 90.2163 141.358 90.4489 141.392 90.7647C141.4 90.8276 141.407 91.0319 141.414 91.3776V91.9213H137.529C137.525 92.4162 137.613 92.7305 137.794 92.8625C137.936 92.9662 138.266 93.0165 138.779 93.0165H139.562C140.03 93.0165 140.333 92.9944 140.472 92.952C140.701 92.886 140.811 92.7258 140.808 92.4728H141.414Z" fill="white"/>
<path d="M144.418 90.383H143.642C143.353 90.383 143.114 90.471 142.922 90.6407C142.732 90.8135 142.635 91.0398 142.635 91.321V93.5602H142.002V89.8282H142.635V90.3201C142.863 89.9933 143.197 89.8282 143.642 89.8282H144.418C144.838 89.8282 145.174 89.9178 145.43 90.0954C145.715 90.2981 145.864 90.5888 145.878 90.9691H145.243C145.198 90.5778 144.923 90.383 144.418 90.383Z" fill="white"/>
<defs>
<filter id="filter0_d" x="0" y="0" width="208" height="208" filterUnits="userSpaceOnUse" color-interpolation-filters="sRGB">
<feFlood flood-opacity="0" result="BackgroundImageFix"/>
<feColorMatrix in="SourceAlpha" type="matrix" values="0 0 0 0 0 0 0 0 0 0 0 0 0 0 0 0 0 0 127 0"/>
<feOffset dx="4" dy="4"/>
<feGaussianBlur stdDeviation="2"/>
<feColorMatrix type="matrix" values="0 0 0 0 0 0 0 0 0 0 0 0 0 0 0 0 0 0 0.25 0"/>
<feBlend mode="normal" in2="BackgroundImageFix" result="effect1_dropShadow"/>
<feBlend mode="normal" in="SourceGraphic" in2="effect1_dropShadow" result="shape"/>
</filter>
</defs>
</svg>
