<svg width="208" height="208" viewBox="0 0 208 208" fill="none" xmlns="http://www.w3.org/2000/svg">
<g filter="url(#filter0_d)">
<rect width="200" height="200" rx="8" fill="#121212"/>
<rect width="200" height="200" rx="8" fill="white" fill-opacity="0.08"/>
</g>
<path d="M73.222 169.9H77.2C78.1707 169.9 79.033 170.091 79.787 170.472C80.541 170.845 81.126 171.378 81.542 172.071C81.958 172.756 82.166 173.549 82.166 174.45C82.166 175.351 81.958 176.149 81.542 176.842C81.126 177.527 80.541 178.06 79.787 178.441C79.033 178.814 78.1707 179 77.2 179H73.222V169.9ZM77.122 177.57C77.7893 177.57 78.3743 177.444 78.877 177.193C79.3883 176.933 79.7783 176.569 80.047 176.101C80.3243 175.624 80.463 175.074 80.463 174.45C80.463 173.826 80.3243 173.28 80.047 172.812C79.7783 172.335 79.3883 171.971 78.877 171.72C78.3743 171.46 77.7893 171.33 77.122 171.33H74.912V177.57H77.122ZM91.5372 177.583V179H84.7122V169.9H91.3552V171.317H86.4022V173.683H90.7962V175.074H86.4022V177.583H91.5372ZM96.9922 179.13C96.2902 179.13 95.6099 179.03 94.9512 178.831C94.3012 178.632 93.7856 178.367 93.4042 178.038L93.9892 176.725C94.3619 177.02 94.8169 177.262 95.3542 177.453C95.9002 177.635 96.4462 177.726 96.9922 177.726C97.6682 177.726 98.1709 177.618 98.5002 177.401C98.8382 177.184 99.0072 176.898 99.0072 176.543C99.0072 176.283 98.9119 176.071 98.7212 175.906C98.5392 175.733 98.3052 175.598 98.0192 175.503C97.7332 175.408 97.3432 175.299 96.8492 175.178C96.1559 175.013 95.5926 174.849 95.1592 174.684C94.7346 174.519 94.3662 174.264 94.0542 173.917C93.7509 173.562 93.5992 173.085 93.5992 172.487C93.5992 171.984 93.7336 171.529 94.0022 171.122C94.2796 170.706 94.6912 170.377 95.2372 170.134C95.7919 169.891 96.4679 169.77 97.2652 169.77C97.8199 169.77 98.3659 169.839 98.9032 169.978C99.4406 170.117 99.9042 170.316 100.294 170.576L99.7612 171.889C99.3626 171.655 98.9466 171.477 98.5132 171.356C98.0799 171.235 97.6596 171.174 97.2522 171.174C96.5849 171.174 96.0866 171.287 95.7572 171.512C95.4366 171.737 95.2762 172.036 95.2762 172.409C95.2762 172.669 95.3672 172.881 95.5492 173.046C95.7399 173.211 95.9782 173.341 96.2642 173.436C96.5502 173.531 96.9402 173.64 97.4342 173.761C98.1102 173.917 98.6649 174.082 99.0982 174.255C99.5316 174.42 99.8999 174.675 100.203 175.022C100.515 175.369 100.671 175.837 100.671 176.426C100.671 176.929 100.533 177.384 100.255 177.791C99.9866 178.198 99.5749 178.523 99.0202 178.766C98.4656 179.009 97.7896 179.13 96.9922 179.13ZM108.999 176.894H104.449L103.552 179H101.81L105.905 169.9H107.569L111.677 179H109.909L108.999 176.894ZM108.44 175.568L106.724 171.59L105.021 175.568H108.44ZM113.584 169.9H115.274V177.57H120.032V179H113.584V169.9ZM123.112 171.33H120.096V169.9H127.818V171.33H124.802V179H123.112V171.33Z" fill="white" fill-opacity="0.87"/>
<path d="M99.4977 26.2102C73.1425 26.2102 51.7056 47.6471 51.7056 74.0023C51.7056 100.358 73.1425 121.794 99.4977 121.794C125.853 121.794 147.29 100.358 147.29 74.0023C147.29 47.6471 125.853 26.2102 99.4977 26.2102ZM99.4977 124C71.928 124 49.5 101.567 49.5 74.0023C49.5 46.4326 71.928 24 99.4977 24C127.067 24 149.5 46.4326 149.5 74.0023C149.5 101.567 127.067 124 99.4977 124Z" fill="url(#paint0_linear)"/>
<path d="M99.4977 26.2102C73.1425 26.2102 51.7056 47.6471 51.7056 74.0023C51.7056 100.358 73.1425 121.794 99.4977 121.794C125.853 121.794 147.29 100.358 147.29 74.0023C147.29 47.6471 125.853 26.2102 99.4977 26.2102ZM99.4977 124C71.928 124 49.5 101.567 49.5 74.0023C49.5 46.4326 71.928 24 99.4977 24C127.067 24 149.5 46.4326 149.5 74.0023C149.5 101.567 127.067 124 99.4977 124Z" fill="white" fill-opacity="0.87"/>
<path d="M99.4962 30.7381C75.6816 30.7381 56.306 50.1136 56.306 73.9283C56.306 97.7429 75.6816 117.118 99.4962 117.118C123.315 117.118 142.691 97.7429 142.691 73.9283C142.691 50.1136 123.315 30.7381 99.4962 30.7381ZM99.4962 118.1C75.1418 118.1 55.3242 98.2873 55.3242 73.9283C55.3242 49.5739 75.1418 29.7563 99.4962 29.7563C123.855 29.7563 143.668 49.5739 143.668 73.9283C143.668 98.2873 123.855 118.1 99.4962 118.1Z" fill="url(#paint1_linear)"/>
<path d="M99.4962 30.7381C75.6816 30.7381 56.306 50.1136 56.306 73.9283C56.306 97.7429 75.6816 117.118 99.4962 117.118C123.315 117.118 142.691 97.7429 142.691 73.9283C142.691 50.1136 123.315 30.7381 99.4962 30.7381ZM99.4962 118.1C75.1418 118.1 55.3242 98.2873 55.3242 73.9283C55.3242 49.5739 75.1418 29.7563 99.4962 29.7563C123.855 29.7563 143.668 49.5739 143.668 73.9283C143.668 98.2873 123.855 118.1 99.4962 118.1Z" fill="white" fill-opacity="0.87"/>
<path d="M91.0158 56.6837H95.0593L97.0788 53.1846L95.0593 49.6854H91.0158L88.9917 53.1846L91.0158 56.6837ZM95.9062 58.1541H90.1643L87.2933 53.1846L90.1643 48.2151H95.9062L98.7772 53.1846L95.9062 58.1541Z" fill="url(#paint2_linear)"/>
<path d="M91.0158 56.6837H95.0593L97.0788 53.1846L95.0593 49.6854H91.0158L88.9917 53.1846L91.0158 56.6837ZM95.9062 58.1541H90.1643L87.2933 53.1846L90.1643 48.2151H95.9062L98.7772 53.1846L95.9062 58.1541Z" fill="white" fill-opacity="0.87"/>
<path d="M81.8308 71.3715H85.8744L87.8938 67.8723L85.8744 64.3732H81.8308L79.8067 67.8723L81.8308 71.3715ZM86.7212 72.8418H80.9793L78.113 67.8723L80.9793 62.9028H86.7212L89.5922 67.8723L86.7212 72.8418Z" fill="url(#paint3_linear)"/>
<path d="M81.8308 71.3715H85.8744L87.8938 67.8723L85.8744 64.3732H81.8308L79.8067 67.8723L81.8308 71.3715ZM86.7212 72.8418H80.9793L78.113 67.8723L80.9793 62.9028H86.7212L89.5922 67.8723L86.7212 72.8418Z" fill="white" fill-opacity="0.87"/>
<path d="M96.6493 74.5474H100.693L102.712 71.0483L100.693 67.5491H96.6493L94.6298 71.0483L96.6493 74.5474ZM101.54 76.0178H95.7977L92.9314 71.0483L95.7977 66.0787H101.54L104.411 71.0483L101.54 76.0178Z" fill="url(#paint4_linear)"/>
<path d="M96.6493 74.5474H100.693L102.712 71.0483L100.693 67.5491H96.6493L94.6298 71.0483L96.6493 74.5474ZM101.54 76.0178H95.7977L92.9314 71.0483L95.7977 66.0787H101.54L104.411 71.0483L101.54 76.0178Z" fill="white" fill-opacity="0.87"/>
<path d="M112.013 95.9887H116.057L118.076 92.4849L116.057 88.9857H112.013L109.994 92.4849L112.013 95.9887ZM116.904 97.4544H111.162L108.295 92.4849L111.162 87.5154H116.904L119.774 92.4849L116.904 97.4544Z" fill="url(#paint5_linear)"/>
<path d="M112.013 95.9887H116.057L118.076 92.4849L116.057 88.9857H112.013L109.994 92.4849L112.013 95.9887ZM116.904 97.4544H111.162L108.295 92.4849L111.162 87.5154H116.904L119.774 92.4849L116.904 97.4544Z" fill="white" fill-opacity="0.87"/>
<path d="M82.0789 92.0185H86.1225L88.1419 88.5147L86.1225 85.0156H82.0789L80.0548 88.5147L82.0789 92.0185ZM86.9693 93.4842H81.2274L78.3611 88.5147L81.2274 83.5452H86.9693L89.8403 88.5147L86.9693 93.4842Z" fill="url(#paint6_linear)"/>
<path d="M82.0789 92.0185H86.1225L88.1419 88.5147L86.1225 85.0156H82.0789L80.0548 88.5147L82.0789 92.0185ZM86.9693 93.4842H81.2274L78.3611 88.5147L81.2274 83.5452H86.9693L89.8403 88.5147L86.9693 93.4842Z" fill="white" fill-opacity="0.87"/>
<path d="M101.522 62.2414H105.566L107.585 58.7422L105.566 55.2384H101.522L99.4981 58.7422L101.522 62.2414ZM106.413 63.7118H100.671L97.7997 58.7422L100.671 53.7727H106.413L109.284 58.7422L106.413 63.7118Z" fill="url(#paint7_linear)"/>
<path d="M101.522 62.2414H105.566L107.585 58.7422L105.566 55.2384H101.522L99.4981 58.7422L101.522 62.2414ZM106.413 63.7118H100.671L97.7997 58.7422L100.671 53.7727H106.413L109.284 58.7422L106.413 63.7118Z" fill="white" fill-opacity="0.87"/>
<path d="M113.799 65.819H117.842L119.862 62.3198L117.842 58.816H113.799L111.779 62.3198L113.799 65.819ZM118.689 67.2893H112.952L110.081 62.3198L112.952 57.3456H118.689L121.56 62.3198L118.689 67.2893Z" fill="url(#paint8_linear)"/>
<path d="M113.799 65.819H117.842L119.862 62.3198L117.842 58.816H113.799L111.779 62.3198L113.799 65.819ZM118.689 67.2893H112.952L110.081 62.3198L112.952 57.3456H118.689L121.56 62.3198L118.689 67.2893Z" fill="white" fill-opacity="0.87"/>
<path d="M114.647 80.3081H118.691L120.71 76.8043L118.691 73.3051H114.647L112.623 76.8043L114.647 80.3081ZM119.538 81.7738H113.796L110.925 76.8043L113.796 71.8348H119.538L122.409 76.8043L119.538 81.7738Z" fill="url(#paint9_linear)"/>
<path d="M114.647 80.3081H118.691L120.71 76.8043L118.691 73.3051H114.647L112.623 76.8043L114.647 80.3081ZM119.538 81.7738H113.796L110.925 76.8043L113.796 71.8348H119.538L122.409 76.8043L119.538 81.7738Z" fill="white" fill-opacity="0.87"/>
<path d="M98.1004 87.8504H102.144L104.163 84.3466L102.144 80.8475H98.1004L96.0763 84.3466L98.1004 87.8504ZM102.991 89.3162H97.2489L94.3825 84.3466L97.2489 79.3771H102.991L105.862 84.3466L102.991 89.3162Z" fill="url(#paint10_linear)"/>
<path d="M98.1004 87.8504H102.144L104.163 84.3466L102.144 80.8475H98.1004L96.0763 84.3466L98.1004 87.8504ZM102.991 89.3162H97.2489L94.3825 84.3466L97.2489 79.3771H102.991L105.862 84.3466L102.991 89.3162Z" fill="white" fill-opacity="0.87"/>
<path d="M76.0474 42.0918L125.929 102.401L122.717 105.059L72.8347 44.749L76.0474 42.0918Z" fill="url(#paint11_linear)"/>
<path d="M76.0474 42.0918L125.929 102.401L122.717 105.059L72.8347 44.749L76.0474 42.0918Z" fill="white" fill-opacity="0.87"/>
<defs>
<filter id="filter0_d" x="0" y="0" width="208" height="208" filterUnits="userSpaceOnUse" color-interpolation-filters="sRGB">
<feFlood flood-opacity="0" result="BackgroundImageFix"/>
<feColorMatrix in="SourceAlpha" type="matrix" values="0 0 0 0 0 0 0 0 0 0 0 0 0 0 0 0 0 0 127 0"/>
<feOffset dx="4" dy="4"/>
<feGaussianBlur stdDeviation="2"/>
<feColorMatrix type="matrix" values="0 0 0 0 0 0 0 0 0 0 0 0 0 0 0 0 0 0 0.25 0"/>
<feBlend mode="normal" in2="BackgroundImageFix" result="effect1_dropShadow"/>
<feBlend mode="normal" in="SourceGraphic" in2="effect1_dropShadow" result="shape"/>
</filter>
<linearGradient id="paint0_linear" x1="63" y1="24" x2="149.5" y2="124" gradientUnits="userSpaceOnUse">
<stop stop-color="#FC5C2E"/>
<stop offset="1" stop-color="#FCAA2E"/>
</linearGradient>
<linearGradient id="paint1_linear" x1="63" y1="24" x2="149.5" y2="124" gradientUnits="userSpaceOnUse">
<stop stop-color="#FC5C2E"/>
<stop offset="1" stop-color="#FCAA2E"/>
</linearGradient>
<linearGradient id="paint2_linear" x1="63" y1="24" x2="149.5" y2="124" gradientUnits="userSpaceOnUse">
<stop stop-color="#FC5C2E"/>
<stop offset="1" stop-color="#FCAA2E"/>
</linearGradient>
<linearGradient id="paint3_linear" x1="63" y1="24" x2="149.5" y2="124" gradientUnits="userSpaceOnUse">
<stop stop-color="#FC5C2E"/>
<stop offset="1" stop-color="#FCAA2E"/>
</linearGradient>
<linearGradient id="paint4_linear" x1="63" y1="24" x2="149.5" y2="124" gradientUnits="userSpaceOnUse">
<stop stop-color="#FC5C2E"/>
<stop offset="1" stop-color="#FCAA2E"/>
</linearGradient>
<linearGradient id="paint5_linear" x1="63" y1="24" x2="149.5" y2="124" gradientUnits="userSpaceOnUse">
<stop stop-color="#FC5C2E"/>
<stop offset="1" stop-color="#FCAA2E"/>
</linearGradient>
<linearGradient id="paint6_linear" x1="63" y1="24" x2="149.5" y2="124" gradientUnits="userSpaceOnUse">
<stop stop-color="#FC5C2E"/>
<stop offset="1" stop-color="#FCAA2E"/>
</linearGradient>
<linearGradient id="paint7_linear" x1="63" y1="24" x2="149.5" y2="124" gradientUnits="userSpaceOnUse">
<stop stop-color="#FC5C2E"/>
<stop offset="1" stop-color="#FCAA2E"/>
</linearGradient>
<linearGradient id="paint8_linear" x1="63" y1="24" x2="149.5" y2="124" gradientUnits="userSpaceOnUse">
<stop stop-color="#FC5C2E"/>
<stop offset="1" stop-color="#FCAA2E"/>
</linearGradient>
<linearGradient id="paint9_linear" x1="63" y1="24" x2="149.5" y2="124" gradientUnits="userSpaceOnUse">
<stop stop-color="#FC5C2E"/>
<stop offset="1" stop-color="#FCAA2E"/>
</linearGradient>
<linearGradient id="paint10_linear" x1="63" y1="24" x2="149.5" y2="124" gradientUnits="userSpaceOnUse">
<stop stop-color="#FC5C2E"/>
<stop offset="1" stop-color="#FCAA2E"/>
</linearGradient>
<linearGradient id="paint11_linear" x1="63" y1="24" x2="149.5" y2="124" gradientUnits="userSpaceOnUse">
<stop stop-color="#FC5C2E"/>
<stop offset="1" stop-color="#FCAA2E"/>
</linearGradient>
</defs>
</svg>
