<svg width="208" height="208" viewBox="0 0 208 208" fill="none" xmlns="http://www.w3.org/2000/svg">
<g filter="url(#filter0_d)">
<rect width="200" height="200" rx="8" fill="#121212"/>
<rect width="200" height="200" rx="8" fill="white" fill-opacity="0.08"/>
</g>
<path d="M139.165 101.818H60.8351C54.8506 101.818 50 96.966 50 90.9815V43.8366C50 37.8521 54.8506 33 60.8351 33H139.165C145.149 33 150 37.8521 150 43.8366V90.9815C150 96.966 145.149 101.818 139.165 101.818Z" stroke="white" stroke-width="0.00112867" stroke-miterlimit="10"/>
<path d="M83.0062 57.0275C82.8273 57.3473 82.7076 57.5914 82.6621 57.7202C82.5378 58.1007 82.4878 58.2917 82.4484 58.3978C82.2271 58.3432 81.983 58.2477 81.786 58.3114C81.592 58.3872 81.5586 58.5782 81.3297 58.6373C81.0584 58.6919 80.6582 58.5433 80.3915 58.5054C79.8185 58.4099 79.2243 58.3326 78.6528 58.1992C77.7327 57.9901 77.4129 57.1321 77.4659 56.2696C77.5265 55.4662 78.3451 55.2009 78.9939 55.1039C79.6411 54.9887 80.5233 54.6992 81.1342 55.066C82.0225 55.6117 81.6708 57.2731 83.0062 57.0275Z" fill="white"/>
<path d="M123.054 76.518C121.96 76.518 120.914 76.5559 119.848 76.5756C119.407 76.5847 118.975 76.5847 118.534 76.5847C117.612 76.5847 115.674 76.662 114.838 76.3543C113.467 75.8935 113.11 74.0806 112.736 72.7846C112.833 72.7558 112.928 72.7361 113.035 72.7164C113.17 72.6982 113.323 72.6694 113.476 72.6406C113.571 72.6315 113.676 72.6118 113.783 72.5921C113.821 72.5921 113.85 72.5921 113.888 72.583C114.023 72.5633 114.176 72.5436 114.318 72.5254H114.359C114.502 72.5057 114.657 72.486 114.81 72.4678C115.184 72.4299 115.577 72.3905 115.99 72.3617C116.106 72.3617 116.219 72.3526 116.335 72.3435C116.959 72.295 117.602 72.2556 118.235 72.2374C118.399 72.2268 118.563 72.2177 118.727 72.2086H119.081C119.225 72.198 119.359 72.198 119.503 72.1904H119.839C121.481 72.1601 122.815 72.2268 123.198 72.3617C124.224 72.7452 124.042 73.6865 124.35 74.6854C124.658 76.0572 124.427 76.518 123.054 76.518ZM111.2 74.6172C110.711 75.9905 108.801 75.8071 108.61 75.8071L95.3829 75.8177C95.201 75.8177 93.2804 76.0102 92.7908 74.6369C92.283 73.2545 91.5236 71.0368 91.2553 69.9333C90.9688 68.7722 90.0275 66.7759 95.6527 66.9002C98.5509 66.9578 100.643 66.9578 101.987 66.9396C103.339 66.9578 105.431 66.9578 108.331 66.8911C113.946 66.7577 113.015 68.7525 112.728 69.9151C112.459 71.0187 111.701 73.2439 111.2 74.6172ZM89.165 76.374C88.3192 76.6802 86.3804 76.6135 85.4588 76.6135C85.1238 76.6135 84.7873 76.6135 84.4614 76.6044C83.655 76.5953 82.8501 76.5756 82.0331 76.565C81.6678 76.5559 81.3131 76.5559 80.9386 76.5559C79.5668 76.5559 79.3349 76.0951 79.6427 74.7233C79.9488 73.7244 79.7578 72.7846 80.784 72.3996C81.16 72.2662 82.4075 72.2086 83.9521 72.2177C84.1173 72.2177 84.2886 72.2177 84.4614 72.2268C84.9692 72.2374 85.5058 72.2465 86.0545 72.2753C86.3804 72.2859 86.7064 72.3041 87.0323 72.3238C87.1581 72.3238 87.2733 72.3329 87.3885 72.3435C87.5719 72.3526 87.7431 72.3723 87.916 72.3814C88.0903 72.3905 88.2616 72.4102 88.4344 72.4193C88.6072 72.439 88.7709 72.4572 88.9331 72.4678C89.1832 72.486 89.4227 72.5148 89.6531 72.5436C89.8062 72.5633 89.9608 72.583 90.0957 72.6027C90.22 72.6209 90.3352 72.6406 90.4504 72.6497C90.5065 72.6603 90.5641 72.6694 90.6141 72.6785C90.6899 72.6876 90.7566 72.7073 90.8233 72.7164C90.8536 72.727 90.8809 72.727 90.9006 72.727C90.9491 72.7361 90.9977 72.7452 91.0446 72.7558C91.1219 72.774 91.1901 72.7846 91.2553 72.8028C90.8733 74.0988 90.5368 75.9132 89.165 76.374ZM80.1504 63.5411C80.3248 62.7453 80.4975 62.8605 81.351 62.8499C82.6652 62.8499 83.9324 62.9742 85.2481 63.2046C86.9747 63.4835 88.9801 63.4259 90.6899 63.9352C88.7027 67.4959 86.5169 66.8714 83.99 66.8714C82.6182 66.8714 80.4976 66.8714 80.1504 65.2116C80.0368 64.7507 80.0368 64.0595 80.1504 63.5411ZM87.9554 50.1898L101.987 49.7017L115.99 50.1625C115.99 50.1625 121.049 58.0326 120.665 58.0326C120.3 58.0326 107.659 57.3217 101.978 57.446C96.306 57.3308 83.655 58.0614 83.2988 58.0614C82.9168 58.0614 87.9554 50.1898 87.9554 50.1898ZM122.613 62.8211C123.477 62.8211 123.65 62.7059 123.823 63.5032C123.936 64.0216 123.936 64.7129 123.823 65.1737C123.477 66.8335 121.366 66.8335 119.983 66.8335C117.459 66.8426 115.269 67.4671 113.285 63.9155C114.993 63.4077 117.008 63.4547 118.727 63.1773C120.032 62.9378 121.297 62.8211 122.613 62.8211ZM126.366 63.4168C126.316 62.6104 124.446 60.8824 123.908 60.3549C123.553 60.0093 122.305 58.9437 121.892 58.6754C121.643 58.5207 121.594 58.5207 121.528 58.3676C121.49 58.254 121.443 58.0614 121.317 57.687C121.269 57.5521 121.155 57.3126 120.971 56.9958C119.897 55.0465 116.759 50.2004 116.5 49.9306C116.181 49.6244 115.501 49.0105 114.522 48.8377C113.551 48.674 103.811 48.1647 101.978 48.1647C100.135 48.1647 90.3913 48.6937 89.4227 48.8665C88.445 49.0393 87.7629 49.6441 87.4567 49.9503C87.196 50.2186 84.0567 55.0753 82.9926 57.0246C82.8107 57.3505 82.6955 57.59 82.647 57.7158C82.5227 58.0993 82.4742 58.2918 82.4363 58.3964C82.3878 58.5025 82.1392 58.6754 82.0422 58.7239C82.024 58.742 82.0134 58.7527 82.0134 58.7527C81.7451 58.9346 80.6507 59.6743 80.0656 60.2973C79.1727 61.2371 77.6463 62.6483 77.6084 63.4547C77.569 64.2611 77.2249 64.8281 77.3098 66.4409C77.3401 67.217 77.5599 69.5786 77.7721 71.8236C77.9828 74.1852 78.2132 76.4225 78.2329 76.5953C78.2693 76.9394 78.1556 77.3245 78.3072 77.6216C78.4618 77.9293 78.8468 78.0157 79.4501 78.0051C79.6426 78.0051 81.6678 78.0339 84.4614 78.0733C91.1022 78.1491 101.995 78.2931 101.995 78.2931C101.995 78.2931 113.235 78.1294 119.848 78.0339C122.468 77.996 124.368 77.9672 124.541 77.9672C125.148 77.9672 125.531 77.8899 125.693 77.5837C125.837 77.285 125.724 76.9015 125.761 76.5559C125.79 76.3164 126.183 72.2753 126.442 69.2997C126.557 67.9855 126.644 66.882 126.674 66.3924C126.75 64.7886 126.404 64.2126 126.366 63.4168Z" fill="white"/>
<path d="M84.4684 79.0412V81.6802C84.4684 81.9303 84.2668 82.141 84.0166 82.141L78.2475 82.1501C77.9898 82.1501 77.7882 81.9409 77.7882 81.6908V78.494C78.2869 78.9548 79.016 78.9745 79.4192 78.9745C79.4298 78.9745 84.4578 79.0412 84.4578 79.0412H84.4684Z" fill="white"/>
<path d="M126.53 78.0021V81.6022C126.53 81.8599 126.327 82.0615 126.068 82.0615L120.3 82.0721C120.052 82.0721 119.839 81.8599 119.839 81.6098V78.9616C122.566 78.9222 124.496 78.8934 124.534 78.8934C124.984 78.8934 126.031 78.8934 126.53 78.0021Z" fill="white"/>
<path d="M83.9083 74.4202C83.9083 75.3858 83.1261 76.168 82.162 76.171C81.198 76.171 80.4128 75.3888 80.4113 74.4218C80.4113 73.4577 81.1934 72.674 82.162 72.674C83.1216 72.674 83.9068 73.4562 83.9083 74.4202Z" fill="white"/>
<path d="M125.345 58.1974C124.773 58.3308 124.175 58.4096 123.603 58.5051C123.335 58.543 122.938 58.6946 122.666 58.64C122.438 58.5809 122.403 58.3929 122.209 58.3156C122.01 58.2505 121.768 58.3475 121.548 58.4036C121.508 58.2959 121.457 58.1034 121.331 57.723C121.286 57.5956 121.167 57.3531 120.987 57.0302C122.321 57.2728 121.966 55.6144 122.856 55.0672C123.465 54.6989 124.346 54.9884 124.998 55.1021C125.644 55.1976 126.465 55.4629 126.523 56.2662C126.579 57.1257 126.26 57.9822 125.345 58.1974Z" fill="white"/>
<path d="M86.9198 74.4118C86.9198 75.1 86.3635 75.6578 85.6738 75.6578C84.9887 75.6578 84.4264 75.1015 84.4279 74.4134C84.4248 73.7237 84.9842 73.1658 85.6738 73.1658C86.362 73.1643 86.9198 73.7221 86.9198 74.4118Z" fill="white"/>
<path d="M123.417 74.4218C123.42 75.3858 122.638 76.171 121.671 76.171C120.708 76.1725 119.921 75.3904 119.921 74.4233C119.918 73.4607 120.704 72.677 121.668 72.674C122.635 72.6755 123.418 73.4562 123.417 74.4218Z" fill="white"/>
<path d="M119.216 74.4118C119.219 75.1015 118.66 75.6594 117.972 75.6609C117.287 75.6594 116.724 75.103 116.724 74.4149C116.726 73.7252 117.282 73.1658 117.97 73.1658C118.66 73.1658 119.218 73.7221 119.216 74.4118Z" fill="white"/>
<path d="M68.6895 59.7377C68.6895 59.7377 78.3937 58.1855 82.4713 51.1976C82.4713 51.1976 89.4576 60.5138 95.8635 60.5138L91.2054 83.2238L82.4713 88.4639L70.8252 82.6417L68.6895 59.7377Z" fill="white" stroke="black" stroke-width="0.00451467" stroke-miterlimit="10"/>
<path d="M82.5526 53.4928L82.9407 70.185L70.7126 70.379L69.4271 59.7274L82.5526 53.4928Z" fill="#221F1F" stroke="black" stroke-width="0.00225734" stroke-miterlimit="10"/>
<path d="M81.8867 71.3805L82.2748 87.8787L91.2029 82.0549L93.5328 70.6044L82.2748 70.2148L81.8867 71.3805Z" fill="#221F1F" stroke="black" stroke-width="0.00225734" stroke-miterlimit="10"/>
<path d="M64.5512 141.712H60.0012L59.1042 143.818H57.3622L61.4572 134.718H63.1212L67.2292 143.818H65.4612L64.5512 141.712ZM63.9922 140.386L62.2762 136.408L60.5732 140.386H63.9922ZM72.8591 143.948C71.6025 143.948 70.6231 143.597 69.9211 142.895C69.2191 142.184 68.8681 141.17 68.8681 139.853V134.718H70.5581V139.788C70.5581 141.573 71.3295 142.466 72.8721 142.466C74.4061 142.466 75.1731 141.573 75.1731 139.788V134.718H76.8371V139.853C76.8371 141.17 76.4861 142.184 75.7841 142.895C75.0908 143.597 74.1158 143.948 72.8591 143.948ZM81.6349 136.148H78.6189V134.718H86.3409V136.148H83.3249V143.818H81.6349V136.148ZM92.4833 143.948C91.5559 143.948 90.7196 143.749 89.9743 143.35C89.2289 142.943 88.6439 142.384 88.2193 141.673C87.7946 140.954 87.5823 140.152 87.5823 139.268C87.5823 138.384 87.7946 137.587 88.2193 136.876C88.6439 136.157 89.2289 135.598 89.9743 135.199C90.7196 134.792 91.5559 134.588 92.4833 134.588C93.4106 134.588 94.2469 134.792 94.9923 135.199C95.7376 135.598 96.3226 136.152 96.7473 136.863C97.1719 137.574 97.3843 138.375 97.3843 139.268C97.3843 140.161 97.1719 140.962 96.7473 141.673C96.3226 142.384 95.7376 142.943 94.9923 143.35C94.2469 143.749 93.4106 143.948 92.4833 143.948ZM92.4833 142.466C93.0899 142.466 93.6359 142.332 94.1213 142.063C94.6066 141.786 94.9879 141.404 95.2653 140.919C95.5426 140.425 95.6813 139.875 95.6813 139.268C95.6813 138.661 95.5426 138.115 95.2653 137.63C94.9879 137.136 94.6066 136.755 94.1213 136.486C93.6359 136.209 93.0899 136.07 92.4833 136.07C91.8766 136.07 91.3306 136.209 90.8453 136.486C90.3599 136.755 89.9786 137.136 89.7013 137.63C89.4239 138.115 89.2853 138.661 89.2853 139.268C89.2853 139.875 89.4239 140.425 89.7013 140.919C89.9786 141.404 90.3599 141.786 90.8453 142.063C91.3306 142.332 91.8766 142.466 92.4833 142.466ZM108.285 143.818L108.272 137.786L105.282 142.778H104.528L101.538 137.864V143.818H99.9256V134.718H101.317L104.931 140.75L108.48 134.718H109.871L109.884 143.818H108.285ZM117.343 143.948C116.415 143.948 115.579 143.749 114.834 143.35C114.088 142.943 113.503 142.384 113.079 141.673C112.654 140.954 112.442 140.152 112.442 139.268C112.442 138.384 112.654 137.587 113.079 136.876C113.503 136.157 114.088 135.598 114.834 135.199C115.579 134.792 116.415 134.588 117.343 134.588C118.27 134.588 119.106 134.792 119.852 135.199C120.597 135.598 121.182 136.152 121.607 136.863C122.031 137.574 122.244 138.375 122.244 139.268C122.244 140.161 122.031 140.962 121.607 141.673C121.182 142.384 120.597 142.943 119.852 143.35C119.106 143.749 118.27 143.948 117.343 143.948ZM117.343 142.466C117.949 142.466 118.495 142.332 118.981 142.063C119.466 141.786 119.847 141.404 120.125 140.919C120.402 140.425 120.541 139.875 120.541 139.268C120.541 138.661 120.402 138.115 120.125 137.63C119.847 137.136 119.466 136.755 118.981 136.486C118.495 136.209 117.949 136.07 117.343 136.07C116.736 136.07 116.19 136.209 115.705 136.486C115.219 136.755 114.838 137.136 114.561 137.63C114.283 138.115 114.145 138.661 114.145 139.268C114.145 139.875 114.283 140.425 114.561 140.919C114.838 141.404 115.219 141.786 115.705 142.063C116.19 142.332 116.736 142.466 117.343 142.466ZM126.504 136.148H123.488V134.718H131.21V136.148H128.194V143.818H126.504V136.148ZM137.352 143.948C136.425 143.948 135.589 143.749 134.843 143.35C134.098 142.943 133.513 142.384 133.088 141.673C132.664 140.954 132.451 140.152 132.451 139.268C132.451 138.384 132.664 137.587 133.088 136.876C133.513 136.157 134.098 135.598 134.843 135.199C135.589 134.792 136.425 134.588 137.352 134.588C138.28 134.588 139.116 134.792 139.861 135.199C140.607 135.598 141.192 136.152 141.616 136.863C142.041 137.574 142.253 138.375 142.253 139.268C142.253 140.161 142.041 140.962 141.616 141.673C141.192 142.384 140.607 142.943 139.861 143.35C139.116 143.749 138.28 143.948 137.352 143.948ZM137.352 142.466C137.959 142.466 138.505 142.332 138.99 142.063C139.476 141.786 139.857 141.404 140.134 140.919C140.412 140.425 140.55 139.875 140.55 139.268C140.55 138.661 140.412 138.115 140.134 137.63C139.857 137.136 139.476 136.755 138.99 136.486C138.505 136.209 137.959 136.07 137.352 136.07C136.746 136.07 136.2 136.209 135.714 136.486C135.229 136.755 134.848 137.136 134.57 137.63C134.293 138.115 134.154 138.661 134.154 139.268C134.154 139.875 134.293 140.425 134.57 140.919C134.848 141.404 135.229 141.786 135.714 142.063C136.2 142.332 136.746 142.466 137.352 142.466ZM62.4883 155.712H57.9383L57.0413 157.818H55.2993L59.3943 148.718H61.0583L65.1663 157.818H63.3983L62.4883 155.712ZM61.9293 154.386L60.2133 150.408L58.5103 154.386H61.9293ZM69.8946 157.948C69.1926 157.948 68.5122 157.848 67.8536 157.649C67.2036 157.45 66.6879 157.185 66.3066 156.856L66.8916 155.543C67.2642 155.838 67.7192 156.08 68.2566 156.271C68.8026 156.453 69.3486 156.544 69.8946 156.544C70.5706 156.544 71.0732 156.436 71.4026 156.219C71.7406 156.002 71.9096 155.716 71.9096 155.361C71.9096 155.101 71.8142 154.889 71.6236 154.724C71.4416 154.551 71.2076 154.416 70.9216 154.321C70.6356 154.226 70.2456 154.117 69.7516 153.996C69.0582 153.831 68.4949 153.667 68.0616 153.502C67.6369 153.337 67.2686 153.082 66.9566 152.735C66.6532 152.38 66.5016 151.903 66.5016 151.305C66.5016 150.802 66.6359 150.347 66.9046 149.94C67.1819 149.524 67.5936 149.195 68.1396 148.952C68.6942 148.709 69.3702 148.588 70.1676 148.588C70.7222 148.588 71.2682 148.657 71.8056 148.796C72.3429 148.935 72.8066 149.134 73.1966 149.394L72.6636 150.707C72.2649 150.473 71.8489 150.295 71.4156 150.174C70.9822 150.053 70.5619 149.992 70.1546 149.992C69.4872 149.992 68.9889 150.105 68.6596 150.33C68.3389 150.555 68.1786 150.854 68.1786 151.227C68.1786 151.487 68.2696 151.699 68.4516 151.864C68.6422 152.029 68.8806 152.159 69.1666 152.254C69.4526 152.349 69.8426 152.458 70.3366 152.579C71.0126 152.735 71.5672 152.9 72.0006 153.073C72.4339 153.238 72.8022 153.493 73.1056 153.84C73.4176 154.187 73.5736 154.655 73.5736 155.244C73.5736 155.747 73.4349 156.202 73.1576 156.609C72.8889 157.016 72.4772 157.341 71.9226 157.584C71.3679 157.827 70.6919 157.948 69.8946 157.948ZM78.8203 157.948C78.1183 157.948 77.438 157.848 76.7793 157.649C76.1293 157.45 75.6137 157.185 75.2323 156.856L75.8173 155.543C76.19 155.838 76.645 156.08 77.1823 156.271C77.7283 156.453 78.2743 156.544 78.8203 156.544C79.4963 156.544 79.999 156.436 80.3283 156.219C80.6663 156.002 80.8353 155.716 80.8353 155.361C80.8353 155.101 80.74 154.889 80.5493 154.724C80.3673 154.551 80.1333 154.416 79.8473 154.321C79.5613 154.226 79.1713 154.117 78.6773 153.996C77.984 153.831 77.4207 153.667 76.9873 153.502C76.5627 153.337 76.1943 153.082 75.8823 152.735C75.579 152.38 75.4273 151.903 75.4273 151.305C75.4273 150.802 75.5617 150.347 75.8303 149.94C76.1077 149.524 76.5193 149.195 77.0653 148.952C77.62 148.709 78.296 148.588 79.0933 148.588C79.648 148.588 80.194 148.657 80.7313 148.796C81.2687 148.935 81.7323 149.134 82.1223 149.394L81.5893 150.707C81.1907 150.473 80.7747 150.295 80.3413 150.174C79.908 150.053 79.4877 149.992 79.0803 149.992C78.413 149.992 77.9147 150.105 77.5853 150.33C77.2647 150.555 77.1043 150.854 77.1043 151.227C77.1043 151.487 77.1953 151.699 77.3773 151.864C77.568 152.029 77.8063 152.159 78.0923 152.254C78.3783 152.349 78.7683 152.458 79.2623 152.579C79.9383 152.735 80.493 152.9 80.9263 153.073C81.3597 153.238 81.728 153.493 82.0313 153.84C82.3433 154.187 82.4993 154.655 82.4993 155.244C82.4993 155.747 82.3607 156.202 82.0833 156.609C81.8147 157.016 81.403 157.341 80.8483 157.584C80.2937 157.827 79.6177 157.948 78.8203 157.948ZM88.8381 157.948C87.5815 157.948 86.6021 157.597 85.9001 156.895C85.1981 156.184 84.8471 155.17 84.8471 153.853V148.718H86.5371V153.788C86.5371 155.573 87.3085 156.466 88.8511 156.466C90.3851 156.466 91.1521 155.573 91.1521 153.788V148.718H92.8161V153.853C92.8161 155.17 92.4651 156.184 91.7631 156.895C91.0698 157.597 90.0948 157.948 88.8381 157.948ZM101.887 157.818L100.028 155.153C99.9499 155.162 99.8329 155.166 99.6769 155.166H97.6229V157.818H95.9329V148.718H99.6769C100.466 148.718 101.15 148.848 101.731 149.108C102.32 149.368 102.771 149.741 103.083 150.226C103.395 150.711 103.551 151.288 103.551 151.955C103.551 152.64 103.382 153.229 103.044 153.723C102.715 154.217 102.238 154.585 101.614 154.828L103.707 157.818H101.887ZM101.848 151.955C101.848 151.374 101.657 150.928 101.276 150.616C100.895 150.304 100.336 150.148 99.5989 150.148H97.6229V153.775H99.5989C100.336 153.775 100.895 153.619 101.276 153.307C101.657 152.986 101.848 152.536 101.848 151.955ZM112.094 155.712H107.544L106.647 157.818H104.905L109 148.718H110.664L114.772 157.818H113.004L112.094 155.712ZM111.535 154.386L109.819 150.408L108.116 154.386H111.535ZM124.765 148.718V157.818H123.374L118.356 151.656V157.818H116.679V148.718H118.07L123.088 154.88V148.718H124.765ZM132.165 157.948C131.247 157.948 130.415 157.749 129.669 157.35C128.933 156.943 128.352 156.384 127.927 155.673C127.511 154.962 127.303 154.161 127.303 153.268C127.303 152.375 127.516 151.574 127.94 150.863C128.365 150.152 128.946 149.598 129.682 149.199C130.428 148.792 131.26 148.588 132.178 148.588C132.924 148.588 133.604 148.718 134.219 148.978C134.835 149.238 135.355 149.615 135.779 150.109L134.687 151.136C134.029 150.425 133.218 150.07 132.256 150.07C131.632 150.07 131.073 150.209 130.579 150.486C130.085 150.755 129.7 151.132 129.422 151.617C129.145 152.102 129.006 152.653 129.006 153.268C129.006 153.883 129.145 154.434 129.422 154.919C129.7 155.404 130.085 155.786 130.579 156.063C131.073 156.332 131.632 156.466 132.256 156.466C133.218 156.466 134.029 156.106 134.687 155.387L135.779 156.427C135.355 156.921 134.83 157.298 134.206 157.558C133.591 157.818 132.911 157.948 132.165 157.948ZM144.974 156.401V157.818H138.149V148.718H144.792V150.135H139.839V152.501H144.233V153.892H139.839V156.401H144.974Z" fill="white" fill-opacity="0.87"/>
<defs>
<filter id="filter0_d" x="0" y="0" width="208" height="208" filterUnits="userSpaceOnUse" color-interpolation-filters="sRGB">
<feFlood flood-opacity="0" result="BackgroundImageFix"/>
<feColorMatrix in="SourceAlpha" type="matrix" values="0 0 0 0 0 0 0 0 0 0 0 0 0 0 0 0 0 0 127 0"/>
<feOffset dx="4" dy="4"/>
<feGaussianBlur stdDeviation="2"/>
<feColorMatrix type="matrix" values="0 0 0 0 0 0 0 0 0 0 0 0 0 0 0 0 0 0 0.25 0"/>
<feBlend mode="normal" in2="BackgroundImageFix" result="effect1_dropShadow"/>
<feBlend mode="normal" in="SourceGraphic" in2="effect1_dropShadow" result="shape"/>
</filter>
</defs>
</svg>
