<svg width="208" height="208" viewBox="0 0 208 208" fill="none" xmlns="http://www.w3.org/2000/svg">
<g filter="url(#filter0_d)">
<rect width="200" height="200" rx="8" fill="#121212"/>
<rect width="200" height="200" rx="8" fill="white" fill-opacity="0.08"/>
</g>
<path d="M56.1402 145.675H53.3562V144.355H60.4842V145.675H57.7002V152.755H56.1402V145.675ZM65.861 144.355C66.589 144.355 67.221 144.475 67.757 144.715C68.301 144.955 68.717 145.299 69.005 145.747C69.293 146.195 69.437 146.727 69.437 147.343C69.437 147.951 69.293 148.483 69.005 148.939C68.717 149.387 68.301 149.731 67.757 149.971C67.221 150.211 66.589 150.331 65.861 150.331H63.965V152.755H62.405V144.355H65.861ZM65.789 149.011C66.469 149.011 66.985 148.867 67.337 148.579C67.689 148.291 67.865 147.879 67.865 147.343C67.865 146.807 67.689 146.395 67.337 146.107C66.985 145.819 66.469 145.675 65.789 145.675H63.965V149.011H65.789ZM79.4608 152.755L79.4488 147.187L76.6888 151.795H75.9928L73.2328 147.259V152.755H71.7448V144.355H73.0288L76.3648 149.923L79.6408 144.355H80.9248L80.9368 152.755H79.4608ZM86.5597 152.875C85.9117 152.875 85.2837 152.783 84.6757 152.599C84.0757 152.415 83.5997 152.171 83.2477 151.867L83.7877 150.655C84.1317 150.927 84.5517 151.151 85.0477 151.327C85.5517 151.495 86.0557 151.579 86.5597 151.579C87.1837 151.579 87.6477 151.479 87.9517 151.279C88.2637 151.079 88.4197 150.815 88.4197 150.487C88.4197 150.247 88.3317 150.051 88.1557 149.899C87.9877 149.739 87.7717 149.615 87.5077 149.527C87.2437 149.439 86.8837 149.339 86.4277 149.227C85.7877 149.075 85.2677 148.923 84.8677 148.771C84.4757 148.619 84.1357 148.383 83.8477 148.063C83.5677 147.735 83.4277 147.295 83.4277 146.743C83.4277 146.279 83.5517 145.859 83.7997 145.483C84.0557 145.099 84.4357 144.795 84.9397 144.571C85.4517 144.347 86.0757 144.235 86.8117 144.235C87.3237 144.235 87.8277 144.299 88.3237 144.427C88.8197 144.555 89.2477 144.739 89.6077 144.979L89.1157 146.191C88.7477 145.975 88.3637 145.811 87.9637 145.699C87.5637 145.587 87.1757 145.531 86.7997 145.531C86.1837 145.531 85.7237 145.635 85.4197 145.843C85.1237 146.051 84.9757 146.327 84.9757 146.671C84.9757 146.911 85.0597 147.107 85.2277 147.259C85.4037 147.411 85.6237 147.531 85.8877 147.619C86.1517 147.707 86.5117 147.807 86.9677 147.919C87.5917 148.063 88.1037 148.215 88.5037 148.375C88.9037 148.527 89.2437 148.763 89.5237 149.083C89.8117 149.403 89.9557 149.835 89.9557 150.379C89.9557 150.843 89.8277 151.263 89.5717 151.639C89.3237 152.015 88.9437 152.315 88.4317 152.539C87.9197 152.763 87.2957 152.875 86.5597 152.875ZM98.923 152.875C98.275 152.875 97.647 152.783 97.039 152.599C96.439 152.415 95.963 152.171 95.611 151.867L96.151 150.655C96.495 150.927 96.915 151.151 97.411 151.327C97.915 151.495 98.419 151.579 98.923 151.579C99.547 151.579 100.011 151.479 100.315 151.279C100.627 151.079 100.783 150.815 100.783 150.487C100.783 150.247 100.695 150.051 100.519 149.899C100.351 149.739 100.135 149.615 99.871 149.527C99.607 149.439 99.247 149.339 98.791 149.227C98.151 149.075 97.631 148.923 97.231 148.771C96.839 148.619 96.499 148.383 96.211 148.063C95.931 147.735 95.791 147.295 95.791 146.743C95.791 146.279 95.915 145.859 96.163 145.483C96.419 145.099 96.799 144.795 97.303 144.571C97.815 144.347 98.439 144.235 99.175 144.235C99.687 144.235 100.191 144.299 100.687 144.427C101.183 144.555 101.611 144.739 101.971 144.979L101.479 146.191C101.111 145.975 100.727 145.811 100.327 145.699C99.927 145.587 99.539 145.531 99.163 145.531C98.547 145.531 98.087 145.635 97.783 145.843C97.487 146.051 97.339 146.327 97.339 146.671C97.339 146.911 97.423 147.107 97.591 147.259C97.767 147.411 97.987 147.531 98.251 147.619C98.515 147.707 98.875 147.807 99.331 147.919C99.955 148.063 100.467 148.215 100.867 148.375C101.267 148.527 101.607 148.763 101.887 149.083C102.175 149.403 102.319 149.835 102.319 150.379C102.319 150.843 102.191 151.263 101.935 151.639C101.687 152.015 101.307 152.315 100.795 152.539C100.283 152.763 99.659 152.875 98.923 152.875ZM108.064 149.791V152.755H106.504V149.815L103.204 144.355H104.872L107.332 148.447L109.816 144.355H111.352L108.064 149.791ZM115.552 152.875C114.904 152.875 114.276 152.783 113.668 152.599C113.068 152.415 112.592 152.171 112.24 151.867L112.78 150.655C113.124 150.927 113.544 151.151 114.04 151.327C114.544 151.495 115.048 151.579 115.552 151.579C116.176 151.579 116.64 151.479 116.944 151.279C117.256 151.079 117.412 150.815 117.412 150.487C117.412 150.247 117.324 150.051 117.148 149.899C116.98 149.739 116.764 149.615 116.5 149.527C116.236 149.439 115.876 149.339 115.42 149.227C114.78 149.075 114.26 148.923 113.86 148.771C113.468 148.619 113.128 148.383 112.84 148.063C112.56 147.735 112.42 147.295 112.42 146.743C112.42 146.279 112.544 145.859 112.792 145.483C113.048 145.099 113.428 144.795 113.932 144.571C114.444 144.347 115.068 144.235 115.804 144.235C116.316 144.235 116.82 144.299 117.316 144.427C117.812 144.555 118.24 144.739 118.6 144.979L118.108 146.191C117.74 145.975 117.356 145.811 116.956 145.699C116.556 145.587 116.168 145.531 115.792 145.531C115.176 145.531 114.716 145.635 114.412 145.843C114.116 146.051 113.968 146.327 113.968 146.671C113.968 146.911 114.052 147.107 114.22 147.259C114.396 147.411 114.616 147.531 114.88 147.619C115.144 147.707 115.504 147.807 115.96 147.919C116.584 148.063 117.096 148.215 117.496 148.375C117.896 148.527 118.236 148.763 118.516 149.083C118.804 149.403 118.948 149.835 118.948 150.379C118.948 150.843 118.82 151.263 118.564 151.639C118.316 152.015 117.936 152.315 117.424 152.539C116.912 152.763 116.288 152.875 115.552 152.875ZM122.832 145.675H120.048V144.355H127.176V145.675H124.392V152.755H122.832V145.675ZM135.396 151.447V152.755H129.096V144.355H135.228V145.663H130.656V147.847H134.712V149.131H130.656V151.447H135.396ZM145.601 152.755L145.589 147.187L142.829 151.795H142.133L139.373 147.259V152.755H137.885V144.355H139.169L142.505 149.923L145.781 144.355H147.065L147.077 152.755H145.601ZM60.441 161.675H57.657V160.355H64.785V161.675H62.001V168.755H60.441V161.675ZM66.7057 160.355H68.2657V168.755H66.7057V160.355ZM76.7838 168.755L75.0678 166.295C74.9958 166.303 74.8878 166.307 74.7438 166.307H72.8478V168.755H71.2878V160.355H74.7438C75.4718 160.355 76.1038 160.475 76.6398 160.715C77.1838 160.955 77.5998 161.299 77.8878 161.747C78.1758 162.195 78.3198 162.727 78.3198 163.343C78.3198 163.975 78.1638 164.519 77.8518 164.975C77.5478 165.431 77.1078 165.771 76.5318 165.995L78.4638 168.755H76.7838ZM76.7478 163.343C76.7478 162.807 76.5718 162.395 76.2198 162.107C75.8678 161.819 75.3518 161.675 74.6718 161.675H72.8478V165.023H74.6718C75.3518 165.023 75.8678 164.879 76.2198 164.591C76.5718 164.295 76.7478 163.879 76.7478 163.343ZM87.1151 167.447V168.755H80.8151V160.355H86.9471V161.663H82.3751V163.847H86.4311V165.131H82.3751V167.447H87.1151ZM99.1186 166.811H94.9186L94.0906 168.755H92.4826L96.2626 160.355H97.7986L101.591 168.755H99.9586L99.1186 166.811ZM98.6026 165.587L97.0186 161.915L95.4466 165.587H98.6026ZM115.24 160.355L112.456 168.755H110.8L108.724 162.539L106.612 168.755H104.944L102.16 160.355H103.78L105.868 166.739L108.04 160.355H109.48L111.604 166.775L113.752 160.355H115.24ZM122.439 166.811H118.239L117.411 168.755H115.803L119.583 160.355H121.119L124.911 168.755H123.279L122.439 166.811ZM121.923 165.587L120.339 161.915L118.767 165.587H121.923ZM132.225 168.755L130.509 166.295C130.437 166.303 130.329 166.307 130.185 166.307H128.289V168.755H126.729V160.355H130.185C130.913 160.355 131.545 160.475 132.081 160.715C132.625 160.955 133.041 161.299 133.329 161.747C133.617 162.195 133.761 162.727 133.761 163.343C133.761 163.975 133.605 164.519 133.293 164.975C132.989 165.431 132.549 165.771 131.973 165.995L133.905 168.755H132.225ZM132.189 163.343C132.189 162.807 132.013 162.395 131.661 162.107C131.309 161.819 130.793 161.675 130.113 161.675H128.289V165.023H130.113C130.793 165.023 131.309 164.879 131.661 164.591C132.013 164.295 132.189 163.879 132.189 163.343ZM142.557 167.447V168.755H136.257V160.355H142.389V161.663H137.817V163.847H141.873V165.131H137.817V167.447H142.557ZM77.9816 184.875C77.3336 184.875 76.7056 184.783 76.0976 184.599C75.4976 184.415 75.0216 184.171 74.6696 183.867L75.2096 182.655C75.5536 182.927 75.9736 183.151 76.4696 183.327C76.9736 183.495 77.4776 183.579 77.9816 183.579C78.6056 183.579 79.0696 183.479 79.3736 183.279C79.6856 183.079 79.8416 182.815 79.8416 182.487C79.8416 182.247 79.7536 182.051 79.5776 181.899C79.4096 181.739 79.1936 181.615 78.9296 181.527C78.6656 181.439 78.3056 181.339 77.8496 181.227C77.2096 181.075 76.6896 180.923 76.2896 180.771C75.8976 180.619 75.5576 180.383 75.2696 180.063C74.9896 179.735 74.8496 179.295 74.8496 178.743C74.8496 178.279 74.9736 177.859 75.2216 177.483C75.4776 177.099 75.8576 176.795 76.3616 176.571C76.8736 176.347 77.4976 176.235 78.2336 176.235C78.7456 176.235 79.2496 176.299 79.7456 176.427C80.2416 176.555 80.6696 176.739 81.0296 176.979L80.5376 178.191C80.1696 177.975 79.7856 177.811 79.3856 177.699C78.9856 177.587 78.5976 177.531 78.2216 177.531C77.6056 177.531 77.1456 177.635 76.8416 177.843C76.5456 178.051 76.3976 178.327 76.3976 178.671C76.3976 178.911 76.4816 179.107 76.6496 179.259C76.8256 179.411 77.0456 179.531 77.3096 179.619C77.5736 179.707 77.9336 179.807 78.3896 179.919C79.0136 180.063 79.5256 180.215 79.9256 180.375C80.3256 180.527 80.6656 180.763 80.9456 181.083C81.2336 181.403 81.3776 181.835 81.3776 182.379C81.3776 182.843 81.2496 183.263 80.9936 183.639C80.7456 184.015 80.3656 184.315 79.8536 184.539C79.3416 184.763 78.7176 184.875 77.9816 184.875ZM87.1227 181.791V184.755H85.5627V181.815L82.2627 176.355H83.9307L86.3907 180.447L88.8747 176.355H90.4107L87.1227 181.791ZM94.6105 184.875C93.9625 184.875 93.3345 184.783 92.7265 184.599C92.1265 184.415 91.6505 184.171 91.2985 183.867L91.8385 182.655C92.1825 182.927 92.6025 183.151 93.0985 183.327C93.6025 183.495 94.1065 183.579 94.6105 183.579C95.2345 183.579 95.6985 183.479 96.0025 183.279C96.3145 183.079 96.4705 182.815 96.4705 182.487C96.4705 182.247 96.3825 182.051 96.2065 181.899C96.0385 181.739 95.8225 181.615 95.5585 181.527C95.2945 181.439 94.9345 181.339 94.4785 181.227C93.8385 181.075 93.3185 180.923 92.9185 180.771C92.5265 180.619 92.1865 180.383 91.8985 180.063C91.6185 179.735 91.4785 179.295 91.4785 178.743C91.4785 178.279 91.6025 177.859 91.8505 177.483C92.1065 177.099 92.4865 176.795 92.9905 176.571C93.5025 176.347 94.1265 176.235 94.8625 176.235C95.3745 176.235 95.8785 176.299 96.3745 176.427C96.8705 176.555 97.2985 176.739 97.6585 176.979L97.1665 178.191C96.7985 177.975 96.4145 177.811 96.0145 177.699C95.6145 177.587 95.2265 177.531 94.8505 177.531C94.2345 177.531 93.7745 177.635 93.4705 177.843C93.1745 178.051 93.0265 178.327 93.0265 178.671C93.0265 178.911 93.1105 179.107 93.2785 179.259C93.4545 179.411 93.6745 179.531 93.9385 179.619C94.2025 179.707 94.5625 179.807 95.0185 179.919C95.6425 180.063 96.1545 180.215 96.5545 180.375C96.9545 180.527 97.2945 180.763 97.5745 181.083C97.8625 181.403 98.0065 181.835 98.0065 182.379C98.0065 182.843 97.8785 183.263 97.6225 183.639C97.3745 184.015 96.9945 184.315 96.4825 184.539C95.9705 184.763 95.3465 184.875 94.6105 184.875ZM101.89 177.675H99.1062V176.355H106.234V177.675H103.45V184.755H101.89V177.675ZM114.455 183.447V184.755H108.155V176.355H114.287V177.663H109.715V179.847H113.771V181.131H109.715V183.447H114.455ZM124.66 184.755L124.648 179.187L121.888 183.795H121.192L118.432 179.259V184.755H116.944V176.355H118.228L121.564 181.923L124.84 176.355H126.124L126.136 184.755H124.66Z" fill="white" fill-opacity="0.87"/>
<path d="M106.73 61.0811C103.403 61.0811 100.697 63.9168 100.697 67.4013C100.697 70.8892 103.403 73.7249 106.73 73.7249C110.056 73.7249 112.762 70.8892 112.762 67.4013C112.762 63.9168 110.056 61.0811 106.73 61.0811ZM106.73 75.0492C102.705 75.0492 99.4313 71.6193 99.4313 67.4013C99.4313 63.1851 102.705 59.7551 106.73 59.7551C110.754 59.7551 114.027 63.1851 114.027 67.4013C114.027 71.6193 110.754 75.0492 106.73 75.0492Z" fill="white"/>
<path d="M100.736 53.2187C103.202 58.1302 105.891 62.1793 106.728 62.2008C107.564 62.1793 110.253 58.1302 112.72 53.2187C112.531 53.1475 112.295 53.0664 112.02 52.9836C110.905 55.2432 108.436 59.2211 106.728 59.2211C105.019 59.2211 102.549 55.2432 101.434 52.9836C101.159 53.0664 100.925 53.1475 100.736 53.2187V53.2187ZM106.728 63.5267C104.595 63.5267 100.816 56.2911 99.2917 53.1822L98.9994 52.588L99.5697 52.2883C99.5981 52.2718 100.301 51.9043 101.619 51.56L102.12 51.4292L102.342 51.9192C103.845 55.2167 106.071 57.8951 106.728 57.8951C107.384 57.8951 109.61 55.2167 111.112 51.9192L111.335 51.4292L111.836 51.56C113.153 51.9043 113.858 52.2718 113.886 52.2883L114.456 52.588L114.164 53.1822C112.638 56.2911 108.859 63.5267 106.728 63.5267" fill="white"/>
<path d="M92.0076 65.7482C97.3063 65.9634 101.991 65.5496 102.427 64.8014C102.828 64.0316 100.825 59.5654 97.9999 54.8724C97.845 55.0098 97.6618 55.1803 97.4548 55.3905C98.7629 57.5309 100.818 61.7621 99.962 63.3099C99.1073 64.8626 94.589 65.1093 92.1624 64.995C92.0945 65.288 92.0423 65.5413 92.0076 65.7482V65.7482ZM95.0282 67.1421C93.5732 67.1421 92.224 67.0908 91.254 67.0394L90.6189 67.008L90.6552 66.3425C90.6568 66.3078 90.7026 65.4867 91.077 64.1177L91.2208 63.5962L91.7343 63.6409C95.2162 63.9257 98.5402 63.2453 98.8688 62.6494C99.1974 62.0518 98.0962 58.693 96.1214 55.6802L95.8276 55.2333L96.1862 54.8459C97.1294 53.8212 97.7834 53.3676 97.8119 53.3494L98.3458 52.9819L98.6887 53.5448C100.498 56.4831 104.589 63.53 103.521 65.4635C102.766 66.8375 98.5844 67.1421 95.0282 67.1421" fill="white"/>
<path d="M97.4548 79.416C97.6618 79.6246 97.845 79.7951 97.9983 79.9325C100.825 75.2411 102.826 70.7716 102.425 70.0035C101.991 69.2553 97.2921 68.8381 92.0076 69.0583C92.0423 69.2652 92.0929 69.5185 92.1608 69.8098C94.5874 69.6956 99.1089 69.9439 99.9636 71.495C100.818 73.0444 98.7629 77.2723 97.4548 79.416ZM98.3443 81.8229L97.8119 81.4554C97.7834 81.4389 97.1294 80.9837 96.1862 79.9606L95.8276 79.5716L96.1199 79.1247C98.0962 76.1119 99.1974 72.7547 98.8688 72.1572C98.5402 71.5612 95.2051 70.8842 91.7343 71.1656L91.2208 71.207L91.077 70.6888C90.7026 69.3198 90.6552 68.4988 90.6537 68.464L90.6189 67.7969L91.254 67.7654C94.5858 67.5916 102.455 67.4079 103.521 69.3413C104.588 71.2765 100.498 78.3218 98.6887 81.2601L98.3443 81.8229V81.8229Z" fill="white"/>
<path d="M106.729 75.5859C108.437 75.5859 110.907 79.5638 112.022 81.8234C112.297 81.7406 112.532 81.6579 112.722 81.5883C110.254 76.6768 107.565 72.6278 106.729 72.6062C105.892 72.6278 103.203 76.6768 100.736 81.5883C100.925 81.6579 101.161 81.7406 101.435 81.8234C102.551 79.5638 105.02 75.5859 106.729 75.5859ZM111.336 83.3762L111.114 82.8878C109.611 79.5903 107.385 76.9119 106.729 76.9119C106.072 76.9119 103.846 79.5903 102.344 82.8878L102.121 83.3762L101.62 83.247C100.303 82.9027 99.5981 82.5336 99.5713 82.5187L98.9994 82.219L99.2917 81.6231C100.818 78.5143 104.597 71.2803 106.729 71.2803C108.861 71.2803 112.64 78.5143 114.166 81.6231L114.458 82.219L113.886 82.5187C113.859 82.5336 113.155 82.9027 111.837 83.247L111.336 83.3762V83.3762Z" fill="white"/>
<path d="M118.687 68.9987C114.615 68.9987 111.39 69.3894 111.032 70.0035C110.63 70.7716 112.634 75.2412 115.46 79.9325C115.613 79.7951 115.796 79.6246 116.003 79.4161C114.695 77.2723 112.641 73.0445 113.496 71.495C114.348 69.944 118.869 69.6956 121.296 69.8099C121.364 69.5169 121.416 69.2652 121.452 69.0583C120.503 69.0186 119.575 68.9987 118.687 68.9987V68.9987ZM115.112 81.823L114.769 81.2602C112.961 78.3218 108.87 71.2765 109.937 69.3414C111.002 67.4062 118.868 67.59 122.206 67.7655L122.842 67.7969L122.804 68.4657C122.803 68.4988 122.754 69.3215 122.381 70.6889L122.237 71.207L121.724 71.1656C118.239 70.8859 114.918 71.5613 114.591 72.1572C114.262 72.7531 115.364 76.1119 117.338 79.1247L117.631 79.5717L117.272 79.9607C116.329 80.9837 115.675 81.4389 115.646 81.4555L115.112 81.823V81.823Z" fill="white"/>
<path d="M115.46 54.8724C112.634 59.5654 110.631 64.0316 111.032 64.8014C111.468 65.5496 116.165 65.9668 121.453 65.7482C121.416 65.5413 121.364 65.288 121.296 64.995C118.876 65.1093 114.351 64.8643 113.497 63.3115C112.642 61.7621 114.696 57.5309 116.004 55.3905C115.797 55.1819 115.614 55.0098 115.46 54.8724V54.8724ZM118.432 67.1421C114.876 67.1421 110.692 66.8391 109.937 65.4635C108.869 63.53 112.961 56.4847 114.77 53.5448L115.113 52.9819L115.647 53.3494C115.675 53.3676 116.329 53.8212 117.272 54.8459L117.631 55.2349L117.337 55.6802C115.362 58.6947 114.263 62.0534 114.59 62.6494C114.918 63.247 118.241 63.9273 121.724 63.6409L122.238 63.5979L122.382 64.1177C122.754 65.485 122.803 66.3061 122.805 66.3425L122.843 67.008L122.206 67.0411C121.236 67.0908 119.887 67.1421 118.432 67.1421" fill="white"/>
<path d="M106.735 52.2766C98.7753 52.2766 92.2996 59.0637 92.2996 67.4018C92.2996 75.7433 98.7753 82.527 106.735 82.527C114.694 82.527 121.169 75.7433 121.169 67.4018C121.169 59.0637 114.694 52.2766 106.735 52.2766ZM106.735 83.853C98.077 83.853 91.0342 76.4733 91.0342 67.4018C91.0342 58.3303 98.077 50.9523 106.735 50.9523C115.39 50.9523 122.435 58.3303 122.435 67.4018C122.435 76.4733 115.39 83.853 106.735 83.853ZM106.735 50.5633C97.8732 50.5633 90.6629 58.1168 90.6629 67.4018C90.6629 76.6869 97.8732 84.242 106.735 84.242C115.594 84.242 122.805 76.6869 122.805 67.4018C122.805 58.1168 115.594 50.5633 106.735 50.5633V50.5633ZM106.735 85.5647C97.175 85.5647 89.3975 77.4185 89.3975 67.4018C89.3975 57.3868 97.175 49.2373 106.735 49.2373C116.292 49.2373 124.07 57.3868 124.07 67.4018C124.07 77.4185 116.292 85.5647 106.735 85.5647Z" fill="white"/>
<path d="M106.734 50.8977C98.0477 50.8977 90.9812 58.3023 90.9812 67.4019C90.9812 76.5032 98.0477 83.9077 106.734 83.9077C115.418 83.9077 122.485 76.5032 122.485 67.4019C122.485 58.3023 115.418 50.8977 106.734 50.8977V50.8977ZM106.734 85.2337C97.351 85.2337 89.7173 77.2332 89.7173 67.4019C89.7173 57.5689 97.351 49.5718 106.734 49.5718C116.116 49.5718 123.75 57.5689 123.75 67.4019C123.75 77.2332 116.116 85.2337 106.734 85.2337ZM106.734 44.5113C94.6858 44.5113 84.8862 54.7796 84.8862 67.4019C84.8862 80.0258 94.6858 90.2942 106.734 90.2942C118.78 90.2942 128.579 80.0258 128.579 67.4019C128.579 54.7796 118.78 44.5113 106.734 44.5113V44.5113ZM106.734 91.6201C93.9907 91.6201 83.6207 80.7559 83.6207 67.4019C83.6207 54.0496 93.9907 43.1853 106.734 43.1853C119.477 43.1853 129.845 54.0496 129.845 67.4019C129.845 80.7559 119.477 91.6201 106.734 91.6201Z" fill="white"/>
<path d="M106.73 46.0356C95.485 46.0356 86.3362 55.6203 86.3362 67.4016C86.3362 79.1846 95.485 88.7709 106.73 88.7709C117.974 88.7709 127.123 79.1846 127.123 67.4016C127.123 55.6203 117.974 46.0356 106.73 46.0356ZM106.73 91.1895C94.2101 91.1895 84.0281 80.5205 84.0281 67.4016C84.0281 54.2844 94.2101 43.6138 106.73 43.6138C119.249 43.6138 129.431 54.2844 129.431 67.4016C129.431 80.5205 119.249 91.1895 106.73 91.1895Z" fill="white"/>
<path d="M106.725 48.8679C96.97 48.8679 89.0361 57.1812 89.0361 67.4015C89.0361 77.6235 96.97 85.9402 106.725 85.9402C116.479 85.9402 124.413 77.6235 124.413 67.4015C124.413 57.1812 116.479 48.8679 106.725 48.8679V48.8679ZM106.725 87.2645C96.2733 87.2645 87.7706 78.3535 87.7706 67.4015C87.7706 56.4512 96.2733 47.5419 106.725 47.5419C117.176 47.5419 125.679 56.4512 125.679 67.4015C125.679 78.3535 117.176 87.2645 106.725 87.2645ZM106.725 46.0454C95.4865 46.0454 86.3425 55.6268 86.3425 67.4015C86.3425 79.1796 95.4865 88.7609 106.725 88.7609C117.963 88.7609 127.107 79.1796 127.107 67.4015C127.107 55.6268 117.963 46.0454 106.725 46.0454V46.0454ZM106.725 90.0852C94.7867 90.0852 85.077 79.9096 85.077 67.4015C85.077 54.8951 94.7867 44.7195 106.725 44.7195C118.663 44.7195 128.372 54.8951 128.372 67.4015C128.372 79.9096 118.663 90.0852 106.725 90.0852Z" fill="white"/>
<path d="M106.73 65.2972C105.621 65.2972 104.721 66.2391 104.721 67.4011C104.721 68.5632 105.621 69.5068 106.73 69.5068C107.838 69.5068 108.738 68.5632 108.738 67.4011C108.738 66.2391 107.838 65.2972 106.73 65.2972ZM106.73 70.8328C104.923 70.8328 103.455 69.2932 103.455 67.4011C103.455 65.5107 104.923 63.9712 106.73 63.9712C108.536 63.9712 110.003 65.5107 110.003 67.4011C110.003 69.2932 108.536 70.8328 106.73 70.8328Z" fill="white"/>
<path d="M108.135 44.9786H104.319L104.869 42.8792H107.585L108.135 44.9786Z" fill="white"/>
<path d="M102.097 45.3642L102.437 43.2167L105.138 42.9187L105.895 44.9469L102.097 45.3642Z" fill="white"/>
<path d="M99.9253 45.9949L100.045 43.821L102.703 43.2283L103.658 45.1605L99.9253 45.9949V45.9949Z" fill="white"/>
<path d="M97.8232 46.8577L97.7284 44.6821L100.311 43.803L101.455 45.6209L97.8232 46.8577Z" fill="white"/>
<path d="M95.8209 47.9436L95.5065 45.7928L97.9884 44.6355L99.306 46.3193L95.8209 47.9436Z" fill="white"/>
<path d="M93.9469 49.2443L93.4208 47.1399L95.7731 45.7144L97.2503 47.2459L93.9469 49.2443Z" fill="white"/>
<path d="M92.1928 50.7438L91.4581 48.709L93.6573 47.0334L95.2797 48.3944L92.1928 50.7438Z" fill="white"/>
<path d="M90.6148 52.4278L89.6812 50.484L91.7018 48.5767L93.4522 49.7505L90.6148 52.4278Z" fill="white"/>
<path d="M89.2087 54.2738L88.0886 52.4442L89.9054 50.325L91.7633 51.3035L89.2087 54.2738V54.2738Z" fill="white"/>
<path d="M87.9911 56.2666L86.6941 54.5629L88.2897 52.2632L90.2361 53.0281L87.9911 56.2666Z" fill="white"/>
<path d="M86.9953 58.3776L85.5339 56.8295L86.8957 54.3625L88.9021 54.9139L86.9953 58.3776V58.3776Z" fill="white"/>
<path d="M86.2024 60.5906L84.5957 59.2097L85.7016 56.6086L87.7554 56.9348L86.2024 60.5906Z" fill="white"/>
<path d="M85.627 62.8762L83.8923 61.6792L84.7328 58.9705L86.8055 59.0715L85.627 62.8762V62.8762Z" fill="white"/>
<path d="M85.2914 65.2108L83.4478 64.2124L84.0118 61.4275L86.0876 61.3L85.2914 65.2108V65.2108Z" fill="white"/>
<path d="M85.1871 67.5692L83.2502 66.7795L83.5362 63.9466L85.5852 63.5923L85.1871 67.5692V67.5692Z" fill="white"/>
<path d="M85.3279 69.9284L83.3247 69.3505V66.5061L85.3279 65.9282V69.9284Z" fill="white"/>
<path d="M85.6953 72.259L83.6479 71.9063L83.3619 69.0718L85.2972 68.2837L85.6953 72.259Z" fill="white"/>
<path d="M86.2947 74.5352L84.222 74.4094L83.658 71.6228L85.5016 70.6228L86.2947 74.5352Z" fill="white"/>
<path d="M85.0416 76.8361L84.2012 74.1258L85.9358 72.9287L87.1144 76.7335L85.0416 76.8361V76.8361Z" fill="white"/>
<path d="M86.1074 79.1573L85.0031 76.5562L86.6097 75.177L88.1627 78.8311L86.1074 79.1573V79.1573Z" fill="white"/>
<path d="M87.3861 81.3523L86.0275 78.8886L87.4872 77.3389L89.3941 80.8042L87.3861 81.3523Z" fill="white"/>
<path d="M88.884 83.3929L87.2867 81.0898L88.5854 79.3894L90.8271 82.6279L88.884 83.3929V83.3929Z" fill="white"/>
<path d="M90.5736 85.2603L88.7552 83.146L89.8769 81.3115L92.4299 84.2835L90.5736 85.2603V85.2603Z" fill="white"/>
<path d="M92.4512 86.9322L90.4337 85.0265L91.3658 83.0811L94.2016 85.7583L92.4512 86.9322V86.9322Z" fill="white"/>
<path d="M94.4719 88.3895L92.2728 86.7156L93.0074 84.6775L96.0944 87.0302L94.4719 88.3895V88.3895Z" fill="white"/>
<path d="M96.6384 89.6147L94.2844 88.1925L94.8105 86.0864L98.1171 88.0865L96.6384 89.6147Z" fill="white"/>
<path d="M98.9127 90.5988L96.4324 89.4415L96.7436 87.2891L100.232 88.915L98.9127 90.5988V90.5988Z" fill="white"/>
<path d="M101.263 91.3291L98.6783 90.4483L98.7763 88.2727L102.407 89.5095L101.263 91.3291V91.3291Z" fill="white"/>
<path d="M103.682 91.7941L101.023 91.2047L100.9 89.0308L104.635 89.8619L103.682 91.7941V91.7941Z" fill="white"/>
<path d="M106.137 91.9943L103.432 91.6963L103.097 89.5488L106.892 89.9677L106.137 91.9943V91.9943Z" fill="white"/>
<path d="M108.587 91.9249H105.872L105.319 89.8254H109.139L108.587 91.9249Z" fill="white"/>
<path d="M108.322 91.8853L107.565 89.8588L111.363 89.4382L111.023 91.5873L108.322 91.8853V91.8853Z" fill="white"/>
<path d="M110.753 91.5775L109.799 89.6437L113.53 88.8125L113.41 90.9864L110.753 91.5775Z" fill="white"/>
<path d="M113.14 91.0032L111.996 89.1853L115.628 87.9485L115.723 90.1257L113.14 91.0032V91.0032Z" fill="white"/>
<path d="M115.463 90.1703L114.144 88.4881L117.632 86.8606L117.943 89.0146L115.463 90.1703V90.1703Z" fill="white"/>
<path d="M117.682 89.0909L116.205 87.5577L119.508 85.5576L120.034 87.6653L117.682 89.0909Z" fill="white"/>
<path d="M119.789 87.7721L118.167 86.4128L121.254 84.0601L121.989 86.0982L119.789 87.7721V87.7721Z" fill="white"/>
<path d="M121.753 86.2291L120.006 85.0535L122.84 82.3779L123.774 84.3234L121.753 86.2291Z" fill="white"/>
<path d="M123.542 84.4812L121.684 83.5044L124.237 80.5308L125.361 82.3636L123.542 84.4812V84.4812Z" fill="white"/>
<path d="M125.16 82.5428L123.215 81.7778L125.457 78.5393L126.757 80.2397L125.16 82.5428V82.5428Z" fill="white"/>
<path d="M126.572 80.4438L124.561 79.8941L126.471 76.4287L127.929 77.9768L126.572 80.4438Z" fill="white"/>
<path d="M127.764 78.1968L125.708 77.8706L127.264 74.2148L128.868 75.5973L127.764 78.1968Z" fill="white"/>
<path d="M128.836 76.0073L126.437 75.8898L127.743 71.676L129.753 73.0569L128.836 76.0073Z" fill="white"/>
<path d="M127.177 73.6842L128.054 69.3496L130.19 70.5053L129.577 73.5368L127.177 73.6842Z" fill="white"/>
<path d="M127.683 71.4132L128.124 67.0042L130.362 67.9197L130.056 71.001L127.683 71.4132Z" fill="white"/>
<path d="M127.967 69.0923V64.6567L130.285 65.3289V68.4284L127.967 69.0923Z" fill="white"/>
<path d="M128.025 66.7549L127.584 62.3474L129.955 62.758L130.265 65.8409L128.025 66.7549V66.7549Z" fill="white"/>
<path d="M127.847 64.4293L126.967 60.093L129.368 60.2404L129.983 63.2736L127.847 64.4293V64.4293Z" fill="white"/>
<path d="M127.515 61.8746L126.338 58.0715L128.411 57.9705L129.253 60.6792L127.515 61.8746Z" fill="white"/>
<path d="M126.854 59.6306L125.301 55.9765L127.355 55.6487L128.461 58.2498L126.854 59.6306Z" fill="white"/>
<path d="M125.963 57.4681L124.054 54.0044L126.062 53.4514L127.421 55.9184L125.963 57.4681Z" fill="white"/>
<path d="M124.866 55.4156L122.623 52.1787L124.567 51.4138L126.163 53.7169L124.866 55.4156V55.4156Z" fill="white"/>
<path d="M123.571 53.4954L121.018 50.5234L122.875 49.5449L124.693 51.6625L123.571 53.4954Z" fill="white"/>
<path d="M122.092 51.7264L119.253 49.0491L121.005 47.8752L123.024 49.7793L122.092 51.7264V51.7264Z" fill="white"/>
<path d="M120.44 50.1264L117.353 47.7753L118.975 46.416L121.174 48.0899L120.44 50.1264Z" fill="white"/>
<path d="M118.646 48.7201L115.341 46.7217L116.818 45.1902L119.172 46.6157L118.646 48.7201V48.7201Z" fill="white"/>
<path d="M116.717 47.5179L113.23 45.892L114.546 44.2048L117.028 45.3638L116.717 47.5179V47.5179Z" fill="white"/>
<path d="M114.678 46.5309L111.046 45.2974L112.19 43.4778L114.773 44.357L114.678 46.5309V46.5309Z" fill="white"/>
<path d="M112.557 45.7748L108.824 44.9436L109.778 43.0098L112.435 43.6008L112.557 45.7748Z" fill="white"/>
<path d="M110.365 45.2583L106.566 44.8378L107.324 42.8096L110.026 43.1076L110.365 45.2583Z" fill="white"/>
<path d="M73.3718 45.9566C72.2944 45.9566 71.4207 46.8753 71.4207 48.001V88.6108C71.4207 89.7365 72.2944 90.6552 73.3718 90.6552C74.4477 90.6552 75.3213 89.7365 75.3213 88.6108V48.001C75.3213 46.8753 74.4477 45.9566 73.3718 45.9566V45.9566ZM73.3718 91.9812C71.5977 91.9812 70.1553 90.4698 70.1553 88.6108V48.001C70.1553 46.142 71.5977 44.6306 73.3718 44.6306C75.1444 44.6306 76.5868 46.142 76.5868 48.001V88.6108C76.5868 90.4698 75.1444 91.9812 73.3718 91.9812" fill="white"/>
<path d="M74.0128 56.1204H72.7473V88.1586H74.0128V56.1204Z" fill="white"/>
<path d="M89.3347 99.0976C79.3754 99.0976 73.0008 91.8718 72.9076 91.7592L73.846 90.872C74.3958 91.5142 87.5368 106.34 105.956 90.7478L106.752 91.7775C100.267 97.2684 94.3459 99.0976 89.3347 99.0976" fill="white"/>
<defs>
<filter id="filter0_d" x="0" y="0" width="208" height="208" filterUnits="userSpaceOnUse" color-interpolation-filters="sRGB">
<feFlood flood-opacity="0" result="BackgroundImageFix"/>
<feColorMatrix in="SourceAlpha" type="matrix" values="0 0 0 0 0 0 0 0 0 0 0 0 0 0 0 0 0 0 127 0"/>
<feOffset dx="4" dy="4"/>
<feGaussianBlur stdDeviation="2"/>
<feColorMatrix type="matrix" values="0 0 0 0 0 0 0 0 0 0 0 0 0 0 0 0 0 0 0.25 0"/>
<feBlend mode="normal" in2="BackgroundImageFix" result="effect1_dropShadow"/>
<feBlend mode="normal" in="SourceGraphic" in2="effect1_dropShadow" result="shape"/>
</filter>
</defs>
</svg>
