<svg width="208" height="208" viewBox="0 0 208 208" fill="none" xmlns="http://www.w3.org/2000/svg">
<g filter="url(#filter0_d)">
<rect width="200" height="200" rx="8" fill="#121212"/>
<rect width="200" height="200" rx="8" fill="white" fill-opacity="0.08"/>
</g>
<path d="M91.3981 134.718C92.1868 134.718 92.8715 134.848 93.4521 135.108C94.0415 135.368 94.4921 135.741 94.8041 136.226C95.1161 136.711 95.2721 137.288 95.2721 137.955C95.2721 138.614 95.1161 139.19 94.8041 139.684C94.4921 140.169 94.0415 140.542 93.4521 140.802C92.8715 141.062 92.1868 141.192 91.3981 141.192H89.3441V143.818H87.6541V134.718H91.3981ZM91.3201 139.762C92.0568 139.762 92.6158 139.606 92.9971 139.294C93.3785 138.982 93.5691 138.536 93.5691 137.955C93.5691 137.374 93.3785 136.928 92.9971 136.616C92.6158 136.304 92.0568 136.148 91.3201 136.148H89.3441V139.762H91.3201ZM100.658 143.948C99.9557 143.948 99.2754 143.848 98.6167 143.649C97.9667 143.45 97.4511 143.185 97.0697 142.856L97.6547 141.543C98.0274 141.838 98.4824 142.08 99.0197 142.271C99.5657 142.453 100.112 142.544 100.658 142.544C101.334 142.544 101.836 142.436 102.166 142.219C102.504 142.002 102.673 141.716 102.673 141.361C102.673 141.101 102.577 140.889 102.387 140.724C102.205 140.551 101.971 140.416 101.685 140.321C101.399 140.226 101.009 140.117 100.515 139.996C99.8214 139.831 99.2581 139.667 98.8247 139.502C98.4001 139.337 98.0317 139.082 97.7197 138.735C97.4164 138.38 97.2647 137.903 97.2647 137.305C97.2647 136.802 97.3991 136.347 97.6677 135.94C97.9451 135.524 98.3567 135.195 98.9027 134.952C99.4574 134.709 100.133 134.588 100.931 134.588C101.485 134.588 102.031 134.657 102.569 134.796C103.106 134.935 103.57 135.134 103.96 135.394L103.427 136.707C103.028 136.473 102.612 136.295 102.179 136.174C101.745 136.053 101.325 135.992 100.918 135.992C100.25 135.992 99.7521 136.105 99.4227 136.33C99.1021 136.555 98.9417 136.854 98.9417 137.227C98.9417 137.487 99.0327 137.699 99.2147 137.864C99.4054 138.029 99.6437 138.159 99.9297 138.254C100.216 138.349 100.606 138.458 101.1 138.579C101.776 138.735 102.33 138.9 102.764 139.073C103.197 139.238 103.565 139.493 103.869 139.84C104.181 140.187 104.337 140.655 104.337 141.244C104.337 141.747 104.198 142.202 103.921 142.609C103.652 143.016 103.24 143.341 102.686 143.584C102.131 143.827 101.455 143.948 100.658 143.948ZM108.453 136.135V138.904H112.847V140.334H108.453V143.818H106.763V134.718H113.406V136.135H108.453ZM55.1816 157.818L55.1686 151.786L52.1786 156.778H51.4246L48.4346 151.864V157.818H46.8226V148.718H48.2136L51.8276 154.75L55.3766 148.718H56.7676L56.7806 157.818H55.1816ZM65.8906 155.712H61.3406L60.4436 157.818H58.7016L62.7966 148.718H64.4606L68.5686 157.818H66.8006L65.8906 155.712ZM65.3316 154.386L63.6156 150.408L61.9126 154.386H65.3316ZM70.4759 148.718H72.1659V157.818H70.4759V148.718ZM83.4633 148.718V157.818H82.0723L77.0543 151.656V157.818H75.3773V148.718H76.7683L81.7863 154.88V148.718H83.4633ZM88.4977 150.148H85.4817V148.718H93.2037V150.148H90.1877V157.818H88.4977V150.148ZM102.047 156.401V157.818H95.222V148.718H101.865V150.135H96.912V152.501H101.306V153.892H96.912V156.401H102.047ZM112.767 148.718V157.818H111.376L106.358 151.656V157.818H104.681V148.718H106.072L111.09 154.88V148.718H112.767ZM121.857 155.712H117.307L116.41 157.818H114.668L118.763 148.718H120.427L124.535 157.818H122.767L121.857 155.712ZM121.298 154.386L119.582 150.408L117.879 154.386H121.298ZM134.529 148.718V157.818H133.138L128.12 151.656V157.818H126.443V148.718H127.834L132.852 154.88V148.718H134.529ZM141.929 157.948C141.01 157.948 140.178 157.749 139.433 157.35C138.696 156.943 138.116 156.384 137.691 155.673C137.275 154.962 137.067 154.161 137.067 153.268C137.067 152.375 137.279 151.574 137.704 150.863C138.129 150.152 138.709 149.598 139.446 149.199C140.191 148.792 141.023 148.588 141.942 148.588C142.687 148.588 143.368 148.718 143.983 148.978C144.598 149.238 145.118 149.615 145.543 150.109L144.451 151.136C143.792 150.425 142.982 150.07 142.02 150.07C141.396 150.07 140.837 150.209 140.343 150.486C139.849 150.755 139.463 151.132 139.186 151.617C138.909 152.102 138.77 152.653 138.77 153.268C138.77 153.883 138.909 154.434 139.186 154.919C139.463 155.404 139.849 155.786 140.343 156.063C140.837 156.332 141.396 156.466 142.02 156.466C142.982 156.466 143.792 156.106 144.451 155.387L145.543 156.427C145.118 156.921 144.594 157.298 143.97 157.558C143.355 157.818 142.674 157.948 141.929 157.948ZM154.737 156.401V157.818H147.912V148.718H154.555V150.135H149.602V152.501H153.996V153.892H149.602V156.401H154.737Z" fill="white" fill-opacity="0.87"/>
<path d="M139.165 101.818H60.8351C54.8506 101.818 50 96.966 50 90.9815V43.8366C50 37.8521 54.8506 33 60.8351 33H139.165C145.149 33 150 37.8521 150 43.8366V90.9815C150 96.966 145.149 101.818 139.165 101.818Z" stroke="white" stroke-width="0.00112867" stroke-miterlimit="10"/>
<path d="M100.258 46.4136C89.1002 46.4136 80.0538 55.46 80.0538 66.6195C80.0538 77.7774 89.1002 86.8238 100.258 86.8238C111.416 86.8238 120.462 77.7774 120.462 66.6195C120.462 55.46 111.416 46.4136 100.258 46.4136ZM124.205 66.6195C124.205 79.8435 113.484 90.5648 100.258 90.5648C87.0326 90.5648 76.3127 79.8435 76.3127 66.6195C76.3127 53.394 87.0326 42.6726 100.258 42.6726C113.484 42.6726 124.205 53.394 124.205 66.6195Z" fill="white"/>
<path d="M102.314 84.7835C102.417 83.968 102.581 82.9327 102.837 81.7943C101.984 81.9565 101.114 82.0368 100.23 82.0368C99.3462 82.0368 98.4776 81.9565 97.6242 81.7943C97.8804 82.9327 98.044 83.968 98.1471 84.7835C98.8414 84.8638 99.5387 84.9032 100.23 84.9032C100.921 84.9032 101.618 84.8638 102.314 84.7835ZM100.23 80.139C102.191 80.139 104.048 79.6661 105.705 78.8218C104.429 82.105 104.118 85.5369 104.056 86.4357C102.817 86.6737 101.538 86.8025 100.23 86.8025C98.9217 86.8025 97.6439 86.6737 96.4039 86.4357C96.3433 85.5369 96.031 82.105 94.7562 78.8218C96.413 79.6661 98.2699 80.139 100.23 80.139Z" fill="white"/>
<path d="M111.697 60.6742C108.473 60.0118 104.546 59.4767 100.26 59.4767C95.9767 59.4767 92.0493 60.0118 88.8251 60.6742C88.0035 62.4659 87.5427 64.4774 87.5427 66.6041C87.5427 68.6519 87.9702 70.5922 88.7357 72.3308C88.9843 72.4202 89.2359 72.5127 89.4951 72.6158C92.1235 73.6708 93.7636 76.2007 94.7868 78.8291C96.4436 79.6719 98.3005 80.1449 100.26 80.1449C102.22 80.1449 104.079 79.6719 105.736 78.8291C106.757 76.2007 108.399 73.6708 111.029 72.6158C111.286 72.5127 111.54 72.4202 111.788 72.3308C112.551 70.5922 112.98 68.6519 112.98 66.6041C112.98 64.4774 112.517 62.4659 111.697 60.6742Z" fill="white"/>
<path d="M100.213 79.9283C98.4151 79.9283 96.687 79.5039 95.0712 78.6656C93.8464 75.4385 92.1001 73.3345 89.8855 72.4129C89.6582 72.3204 89.4384 72.234 89.2186 72.1552C88.4879 70.3999 88.1166 68.5248 88.1166 66.5785C88.1166 64.5594 88.5137 62.6222 89.2989 60.8154C92.9869 60.0362 96.6582 59.6406 100.213 59.6406C103.767 59.6406 107.439 60.0362 111.128 60.8154C111.913 62.6222 112.311 64.5594 112.311 66.5785C112.311 68.5248 111.939 70.3999 111.207 72.1552C110.989 72.234 110.769 72.3204 110.542 72.4129C108.325 73.3345 106.579 75.4385 105.356 78.6656C103.74 79.5039 102.011 79.9283 100.213 79.9283Z" fill="white"/>
<path d="M104.785 66.4999C104.785 69.0207 102.741 71.064 100.22 71.064C97.7012 71.064 95.6578 69.0207 95.6578 66.4999C95.6578 63.9791 97.7012 61.9358 100.22 61.9358C102.741 61.9358 104.785 63.9791 104.785 66.4999Z" fill="white"/>
<path d="M104.426 66.4428C104.426 68.7514 102.555 70.6219 100.247 70.6219C97.9398 70.6219 96.0677 68.7514 96.0677 66.4428C96.0677 64.1357 97.9398 62.2637 100.247 62.2637C102.555 62.2637 104.426 64.1357 104.426 66.4428Z" fill="white"/>
<path d="M80.2853 66.6191C80.2853 71.5501 82.0846 76.0672 85.0556 79.5551L82.0679 82.5443C78.3345 78.2864 76.0668 72.7127 76.0668 66.6191C76.0668 61.6078 77.5993 56.9482 80.2186 53.0829L83.5686 55.6628C81.4949 58.8112 80.2853 62.5765 80.2853 66.6191Z" fill="white"/>
<path d="M120.183 66.6191C120.183 71.5501 118.385 76.0672 115.413 79.5551L118.402 82.5443C122.136 78.2864 124.402 72.7127 124.402 66.6191C124.402 61.6078 122.869 56.9482 120.251 53.0829L116.9 55.6628C118.974 58.8112 120.183 62.5765 120.183 66.6191Z" fill="white"/>
<path d="M116.59 69.4827C117.117 69.4827 117.595 69.5145 118.021 69.563C118.189 68.5702 118.272 67.5637 118.272 66.5541C118.272 65.819 118.228 65.0838 118.137 64.3517C117.264 64.0485 116.023 63.6498 114.487 63.2421C114.712 64.3213 114.824 65.4264 114.824 66.5541C114.824 67.5985 114.727 68.6278 114.534 69.6328C115.232 69.5327 115.918 69.4827 116.59 69.4827ZM111.733 72.2809C112.497 70.5422 112.925 68.6005 112.925 66.5541C112.925 64.4274 112.462 62.4144 111.642 60.6243C115.786 61.4762 118.762 62.5372 119.844 62.9526C120.06 64.1212 120.172 65.3233 120.172 66.5541C120.172 68.3761 119.925 70.139 119.465 71.817C118.7 71.5397 115.961 70.7893 111.733 72.2809Z" fill="white"/>
<path d="M85.5966 66.5541C85.5966 65.4264 85.7088 64.3213 85.9316 63.2421C84.3946 63.6514 83.1562 64.0485 82.28 64.3517C82.1921 65.0823 82.1467 65.8205 82.1467 66.5541C82.1467 67.5652 82.23 68.5717 82.3983 69.563C82.8257 69.5145 83.3032 69.4827 83.8307 69.4827C84.5007 69.4827 85.1874 69.5327 85.8847 69.6328C85.6921 68.6278 85.5966 67.5985 85.5966 66.5541ZM80.9537 71.817C80.4944 70.139 80.2473 68.3761 80.2473 66.5541C80.2473 65.3233 80.361 64.1212 80.5747 62.9526C81.6585 62.5372 84.6326 61.4762 88.7783 60.6243C87.9568 62.416 87.4959 64.4274 87.4959 66.5541C87.4959 68.602 87.9219 70.5422 88.6874 72.2809C84.4598 70.7893 81.7207 71.5397 80.9537 71.817Z" fill="white"/>
<defs>
<filter id="filter0_d" x="0" y="0" width="208" height="208" filterUnits="userSpaceOnUse" color-interpolation-filters="sRGB">
<feFlood flood-opacity="0" result="BackgroundImageFix"/>
<feColorMatrix in="SourceAlpha" type="matrix" values="0 0 0 0 0 0 0 0 0 0 0 0 0 0 0 0 0 0 127 0"/>
<feOffset dx="4" dy="4"/>
<feGaussianBlur stdDeviation="2"/>
<feColorMatrix type="matrix" values="0 0 0 0 0 0 0 0 0 0 0 0 0 0 0 0 0 0 0.25 0"/>
<feBlend mode="normal" in2="BackgroundImageFix" result="effect1_dropShadow"/>
<feBlend mode="normal" in="SourceGraphic" in2="effect1_dropShadow" result="shape"/>
</filter>
</defs>
</svg>
