<svg width="208" height="208" viewBox="0 0 208 208" fill="none" xmlns="http://www.w3.org/2000/svg">
<g filter="url(#filter0_d)">
<rect width="200" height="200" rx="8" fill="#121212"/>
<rect width="200" height="200" rx="8" fill="white" fill-opacity="0.08"/>
</g>
<path d="M59.222 142.278H63.2C64.1707 142.278 65.033 142.468 65.787 142.85C66.541 143.222 67.126 143.755 67.542 144.449C67.958 145.133 68.166 145.926 68.166 146.828C68.166 147.729 67.958 148.526 67.542 149.22C67.126 149.904 66.541 150.437 65.787 150.819C65.033 151.191 64.1707 151.378 63.2 151.378H59.222V142.278ZM63.122 149.948C63.7893 149.948 64.3743 149.822 64.877 149.571C65.3883 149.311 65.7783 148.947 66.047 148.479C66.3243 148.002 66.463 147.452 66.463 146.828C66.463 146.204 66.3243 145.658 66.047 145.19C65.7783 144.713 65.3883 144.349 64.877 144.098C64.3743 143.838 63.7893 143.708 63.122 143.708H60.912V149.948H63.122ZM74.4562 142.278C75.2449 142.278 75.9296 142.408 76.5102 142.668C77.0996 142.928 77.5502 143.3 77.8622 143.786C78.1742 144.271 78.3302 144.847 78.3302 145.515C78.3302 146.173 78.1742 146.75 77.8622 147.244C77.5502 147.729 77.0996 148.102 76.5102 148.362C75.9296 148.622 75.2449 148.752 74.4562 148.752H72.4022V151.378H70.7122V142.278H74.4562ZM74.3782 147.322C75.1149 147.322 75.6739 147.166 76.0552 146.854C76.4366 146.542 76.6272 146.095 76.6272 145.515C76.6272 144.934 76.4366 144.488 76.0552 144.176C75.6739 143.864 75.1149 143.708 74.3782 143.708H72.4022V147.322H74.3782ZM82.4579 143.695V146.464H86.8519V147.894H82.4579V151.378H80.7679V142.278H87.4109V143.695H82.4579ZM94.138 142.278H98.116C99.0867 142.278 99.949 142.468 100.703 142.85C101.457 143.222 102.042 143.755 102.458 144.449C102.874 145.133 103.082 145.926 103.082 146.828C103.082 147.729 102.874 148.526 102.458 149.22C102.042 149.904 101.457 150.437 100.703 150.819C99.949 151.191 99.0867 151.378 98.116 151.378H94.138V142.278ZM98.038 149.948C98.7053 149.948 99.2903 149.822 99.793 149.571C100.304 149.311 100.694 148.947 100.963 148.479C101.24 148.002 101.379 147.452 101.379 146.828C101.379 146.204 101.24 145.658 100.963 145.19C100.694 144.713 100.304 144.349 99.793 144.098C99.2903 143.838 98.7053 143.708 98.038 143.708H95.828V149.948H98.038ZM112.453 149.961V151.378H105.628V142.278H112.271V143.695H107.318V146.061H111.712V147.452H107.318V149.961H112.453ZM115.087 142.278H116.777V149.948H121.535V151.378H115.087V142.278ZM130.444 149.961V151.378H123.619V142.278H130.262V143.695H125.309V146.061H129.703V147.452H125.309V149.961H130.444ZM134.924 143.708H131.908V142.278H139.63V143.708H136.614V151.378H134.924V143.708ZM148.474 149.961V151.378H141.649V142.278H148.292V143.695H143.339V146.061H147.733V147.452H143.339V149.961H148.474Z" fill="white" fill-opacity="0.87"/>
<path d="M80.7123 69.7357V65.6126C80.7123 64.7044 79.9754 63.969 79.0688 63.969H75.1845C74.2763 63.969 73.5424 64.7044 73.5424 65.6126V69.7357C73.5424 70.6439 72.8055 71.3793 71.8989 71.3793C70.9906 71.3793 70.2552 72.1147 70.2552 73.0213V99.8531C70.2552 100.761 70.9906 101.495 71.8989 101.495H82.3559C83.2626 101.495 83.9995 100.761 83.9995 99.8531V73.0213C83.9995 72.1147 83.2626 71.3793 82.3559 71.3793C81.4477 71.3793 80.7123 70.6439 80.7123 69.7357Z" fill="white"/>
<path d="M104.521 82.8371V81.4292C104.521 80.1831 104.309 79.3393 103.889 78.9041C103.467 78.4657 102.634 78.2473 101.386 78.2473H95.8049V86.0661H101.531C102.808 86.0661 103.639 85.843 104.024 85.3952C104.356 85.0008 104.521 84.1476 104.521 82.8371ZM106.422 82.9015C106.422 84.7777 106.125 86.0457 105.527 86.7057C104.878 87.4206 103.63 87.7773 101.787 87.7773H93.8864V76.5518H101.513C103.08 76.5518 104.227 76.7922 104.952 77.2715C105.612 77.6989 106.039 78.4075 106.231 79.399C106.359 80.0386 106.422 81.2061 106.422 82.9015Z" fill="white"/>
<path d="M115.106 78.4075H109.43V81.7969H115.139C115.799 81.7969 116.273 81.701 116.563 81.5093C116.924 81.2642 117.105 80.8274 117.105 80.1988C117.105 79.4729 116.96 78.9936 116.665 78.7595C116.372 78.5254 115.852 78.4075 115.106 78.4075ZM114.946 83.6683H109.43V87.7616H107.543V76.5518H115.106C116.586 76.5518 117.606 76.8268 118.159 77.3768C118.714 77.9251 118.992 78.9339 118.992 80.4063C118.992 81.7167 118.618 82.6187 117.873 83.1089C117.298 83.4813 116.321 83.6683 114.946 83.6683Z" fill="white"/>
<path d="M121.61 81.2359H129.508V82.8512H121.61V87.8229H119.819L119.835 82.0043C119.835 80.4581 119.957 79.3378 120.203 78.6464C120.479 77.8576 121.009 77.3076 121.786 76.9981C122.522 76.7011 123.688 76.5518 125.287 76.5518H127.366C129.381 76.5518 130.767 76.7969 131.525 77.2872C132.25 77.7554 132.687 78.6464 132.836 79.9569H131.027C130.858 79.2105 130.474 78.7312 129.877 78.5175C129.45 78.3683 128.586 78.2928 127.286 78.2928H125.401C123.886 78.2928 122.915 78.4374 122.49 78.725C121.947 79.0769 121.651 79.9144 121.61 81.2359Z" fill="white"/>
<path d="M95.7683 92.8626V92.5656C95.7683 92.2686 95.7385 92.058 95.6772 91.9323C95.619 91.8066 95.5122 91.7249 95.3535 91.6904C95.2466 91.6636 95.0345 91.6511 94.7234 91.6511H94.2096C93.779 91.6511 93.5103 91.6935 93.3956 91.7831C93.2589 91.8931 93.1914 92.1539 93.1914 92.5687V92.8657C93.1914 93.2695 93.2605 93.5241 93.4004 93.6309C93.5103 93.7111 93.7743 93.7503 94.1954 93.7503H94.7328C95.0392 93.7503 95.2435 93.7393 95.3488 93.7142C95.5075 93.6828 95.6143 93.6058 95.6756 93.4816C95.7353 93.3591 95.7683 93.1532 95.7683 92.8626ZM96.3026 92.8798C96.3026 93.2947 96.2523 93.5995 96.1533 93.7928C96.0574 93.986 95.8893 94.1165 95.6568 94.1809C95.4713 94.2359 95.1649 94.261 94.7423 94.261H94.1687C93.7335 94.261 93.4176 94.2249 93.2181 94.151C92.9997 94.0709 92.8504 93.9216 92.7703 93.7063C92.6964 93.5052 92.6587 93.1878 92.6587 92.751C92.6587 92.289 92.6901 91.9575 92.753 91.7564C92.8268 91.5207 92.9714 91.3557 93.1866 91.263C93.3909 91.175 93.7209 91.1294 94.1781 91.1294H94.747C95.2341 91.1294 95.586 91.1812 95.8013 91.2818C96.015 91.3824 96.1549 91.5615 96.2209 91.8223C96.2743 92.0188 96.3026 92.3707 96.3026 92.8798Z" fill="white"/>
<path d="M97.2984 92.4304H99.492V92.8798H97.2984V94.261H96.8019L96.8066 92.6441C96.8066 92.2136 96.8396 91.9041 96.9072 91.7108C96.9858 91.4924 97.1319 91.3399 97.3472 91.2535C97.5514 91.1702 97.8751 91.1294 98.3198 91.1294H98.898C99.4574 91.1294 99.8424 91.197 100.053 91.3337C100.254 91.4641 100.375 91.7108 100.416 92.0753H99.9147C99.8676 91.8679 99.7591 91.7343 99.5941 91.6762C99.4763 91.6338 99.2359 91.6134 98.876 91.6134H98.3512C97.9301 91.6134 97.6598 91.6526 97.542 91.7328C97.3927 91.8318 97.311 92.0643 97.2984 92.4304Z" fill="white"/>
<path d="M100.828 92.4304H103.021V92.8798H100.828V94.261H100.331L100.334 92.6441C100.334 92.2136 100.369 91.9041 100.436 91.7108C100.515 91.4924 100.661 91.3399 100.876 91.2535C101.081 91.1702 101.404 91.1294 101.849 91.1294H102.427C102.987 91.1294 103.372 91.197 103.581 91.3337C103.782 91.4641 103.904 91.7108 103.945 92.0753H103.444C103.397 91.8679 103.288 91.7343 103.123 91.6762C103.006 91.6338 102.765 91.6134 102.404 91.6134H101.88C101.459 91.6134 101.189 91.6526 101.071 91.7328C100.92 91.8318 100.84 92.0643 100.828 92.4304Z" fill="white"/>
<path d="M106.956 90.976L105.971 94.6403H105.548L106.538 90.976H106.956Z" fill="white"/>
<path d="M112.185 92.8751V92.4839C112.185 92.1382 112.127 91.9041 112.011 91.7831C111.891 91.6621 111.66 91.6008 111.315 91.6008H109.765V93.7723H111.356C111.711 93.7723 111.942 93.7095 112.049 93.5854C112.14 93.4769 112.185 93.2397 112.185 92.8751ZM112.713 92.8924C112.713 93.4141 112.632 93.7661 112.467 93.9499C112.284 94.1495 111.939 94.2485 111.426 94.2485H109.231V91.1294H111.351C111.786 91.1294 112.104 91.197 112.305 91.3305C112.489 91.4484 112.608 91.6448 112.661 91.9198C112.696 92.0973 112.713 92.4226 112.713 92.8924Z" fill="white"/>
<path d="M115.668 92.8751H113.55L113.553 92.421H115.668V92.8751ZM116.801 93.3371C116.801 93.7331 116.674 93.9923 116.416 94.1149C116.223 94.2092 115.839 94.2563 115.264 94.2563H114.577C114.141 94.2563 113.823 94.2186 113.625 94.1463C113.41 94.0646 113.261 93.9169 113.177 93.7016C113.102 93.5021 113.067 93.1862 113.067 92.751C113.067 92.2827 113.097 91.9481 113.163 91.7469C113.237 91.5097 113.382 91.3478 113.595 91.2582C113.8 91.1734 114.13 91.1294 114.585 91.1294H115.273C115.822 91.1294 116.216 91.208 116.455 91.3651C116.68 91.5097 116.791 91.7359 116.791 92.0455H116.29C116.29 91.8459 116.196 91.7171 116.006 91.6589C115.885 91.6228 115.633 91.6055 115.25 91.6055H114.615C114.192 91.6055 113.919 91.6448 113.795 91.7249C113.641 91.8255 113.562 92.0596 113.558 92.4257V92.8751C113.556 93.29 113.63 93.5524 113.782 93.6608C113.9 93.7472 114.174 93.7912 114.603 93.7912H115.255C115.646 93.7912 115.899 93.7723 116.015 93.7362C116.204 93.6812 116.296 93.5476 116.295 93.3371H116.801Z" fill="white"/>
<path d="M119.543 94.2422H116.904V91.1294H117.433V93.7676H119.543V94.2422Z" fill="white"/>
<path d="M122.113 92.8751H119.995L119.999 92.421H122.113V92.8751ZM123.247 93.3371C123.247 93.7331 123.118 93.9923 122.861 94.1149C122.667 94.2092 122.284 94.2563 121.709 94.2563H121.022C120.585 94.2563 120.27 94.2186 120.072 94.1463C119.855 94.0646 119.705 93.9169 119.622 93.7016C119.547 93.5021 119.512 93.1862 119.512 92.751C119.512 92.2827 119.544 91.9481 119.608 91.7469C119.683 91.5097 119.826 91.3478 120.04 91.2582C120.244 91.1734 120.574 91.1294 121.032 91.1294H121.718C122.267 91.1294 122.661 91.208 122.9 91.3651C123.125 91.5097 123.238 91.7359 123.238 92.0455H122.735C122.735 91.8459 122.641 91.7171 122.452 91.6589C122.33 91.6228 122.08 91.6055 121.695 91.6055H121.062C120.639 91.6055 120.364 91.6448 120.241 91.7249C120.086 91.8255 120.007 92.0596 120.004 92.4257V92.8751C120.001 93.29 120.076 93.5524 120.227 93.6608C120.345 93.7472 120.618 93.7912 121.047 93.7912H121.699C122.092 93.7912 122.344 93.7723 122.46 93.7362C122.65 93.6812 122.743 93.5476 122.74 93.3371H123.247Z" fill="white"/>
<path d="M126.526 91.6055H125.122V94.2437H124.595V91.6055H123.195V91.1294H126.526V91.6055Z" fill="white"/>
<path d="M129.173 92.8751H127.055L127.058 92.421H129.173V92.8751ZM130.306 93.3371C130.306 93.7331 130.177 93.9923 129.919 94.1149C129.728 94.2092 129.343 94.2563 128.769 94.2563H128.081C127.644 94.2563 127.328 94.2186 127.13 94.1463C126.915 94.0646 126.766 93.9169 126.681 93.7016C126.607 93.5021 126.571 93.1862 126.571 92.751C126.571 92.2827 126.602 91.9481 126.668 91.7469C126.742 91.5097 126.887 91.3478 127.1 91.2582C127.303 91.1734 127.635 91.1294 128.09 91.1294H128.777C129.327 91.1294 129.72 91.208 129.96 91.3651C130.185 91.5097 130.296 91.7359 130.296 92.0455H129.795C129.795 91.8459 129.699 91.7171 129.511 91.6589C129.39 91.6228 129.138 91.6055 128.755 91.6055H128.12C127.698 91.6055 127.424 91.6448 127.3 91.7249C127.146 91.8255 127.066 92.0596 127.063 92.4257V92.8751C127.061 93.29 127.135 93.5524 127.286 93.6608C127.404 93.7472 127.679 93.7912 128.108 93.7912H128.76C129.151 93.7912 129.402 93.7723 129.52 93.7362C129.709 93.6812 129.802 93.5476 129.8 93.3371H130.306Z" fill="white"/>
<defs>
<filter id="filter0_d" x="0" y="0" width="208" height="208" filterUnits="userSpaceOnUse" color-interpolation-filters="sRGB">
<feFlood flood-opacity="0" result="BackgroundImageFix"/>
<feColorMatrix in="SourceAlpha" type="matrix" values="0 0 0 0 0 0 0 0 0 0 0 0 0 0 0 0 0 0 127 0"/>
<feOffset dx="4" dy="4"/>
<feGaussianBlur stdDeviation="2"/>
<feColorMatrix type="matrix" values="0 0 0 0 0 0 0 0 0 0 0 0 0 0 0 0 0 0 0.25 0"/>
<feBlend mode="normal" in2="BackgroundImageFix" result="effect1_dropShadow"/>
<feBlend mode="normal" in="SourceGraphic" in2="effect1_dropShadow" result="shape"/>
</filter>
</defs>
</svg>
