<svg width="208" height="208" viewBox="0 0 208 208" fill="none" xmlns="http://www.w3.org/2000/svg">
<g filter="url(#filter0_d)">
<rect width="200" height="200" rx="8" fill="#121212"/>
<rect width="200" height="200" rx="8" fill="white" fill-opacity="0.08"/>
</g>
<path d="M34.043 179.13C33.341 179.13 32.6607 179.03 32.002 178.831C31.352 178.632 30.8363 178.367 30.455 178.038L31.04 176.725C31.4127 177.02 31.8677 177.262 32.405 177.453C32.951 177.635 33.497 177.726 34.043 177.726C34.719 177.726 35.2217 177.618 35.551 177.401C35.889 177.184 36.058 176.898 36.058 176.543C36.058 176.283 35.9627 176.071 35.772 175.906C35.59 175.733 35.356 175.598 35.07 175.503C34.784 175.408 34.394 175.299 33.9 175.178C33.2067 175.013 32.6433 174.849 32.21 174.684C31.7853 174.519 31.417 174.264 31.105 173.917C30.8017 173.562 30.65 173.085 30.65 172.487C30.65 171.984 30.7843 171.529 31.053 171.122C31.3303 170.706 31.742 170.377 32.288 170.134C32.8427 169.891 33.5187 169.77 34.316 169.77C34.8707 169.77 35.4167 169.839 35.954 169.978C36.4913 170.117 36.955 170.316 37.345 170.576L36.812 171.889C36.4133 171.655 35.9973 171.477 35.564 171.356C35.1307 171.235 34.7103 171.174 34.303 171.174C33.6357 171.174 33.1373 171.287 32.808 171.512C32.4873 171.737 32.327 172.036 32.327 172.409C32.327 172.669 32.418 172.881 32.6 173.046C32.7907 173.211 33.029 173.341 33.315 173.436C33.601 173.531 33.991 173.64 34.485 173.761C35.161 173.917 35.7157 174.082 36.149 174.255C36.5823 174.42 36.9507 174.675 37.254 175.022C37.566 175.369 37.722 175.837 37.722 176.426C37.722 176.929 37.5833 177.384 37.306 177.791C37.0373 178.198 36.6257 178.523 36.071 178.766C35.5163 179.009 34.8403 179.13 34.043 179.13ZM41.8668 171.33H38.8508V169.9H46.5728V171.33H43.5568V179H41.8668V171.33ZM55.4161 177.583V179H48.5911V169.9H55.2341V171.317H50.2811V173.683H54.6751V175.074H50.2811V177.583H55.4161ZM63.9521 176.894H59.4021L58.5051 179H56.7631L60.8581 169.9H62.5221L66.6301 179H64.8621L63.9521 176.894ZM63.3931 175.568L61.6771 171.59L59.9741 175.568H63.3931ZM76.8964 179L76.8834 172.968L73.8934 177.96H73.1394L70.1494 173.046V179H68.5374V169.9H69.9284L73.5424 175.932L77.0914 169.9H78.4824L78.4954 179H76.8964ZM92.4942 174.268C92.9969 174.433 93.3956 174.71 93.6902 175.1C93.9849 175.481 94.1322 175.958 94.1322 176.53C94.1322 177.319 93.8289 177.93 93.2222 178.363C92.6156 178.788 91.7316 179 90.5702 179H86.0462V169.9H90.3102C91.3849 169.9 92.2126 170.112 92.7932 170.537C93.3739 170.953 93.6642 171.529 93.6642 172.266C93.6642 172.717 93.5602 173.115 93.3522 173.462C93.1442 173.809 92.8582 174.077 92.4942 174.268ZM87.7362 171.226V173.735H90.1282C90.7176 173.735 91.1682 173.631 91.4802 173.423C91.8009 173.206 91.9612 172.894 91.9612 172.487C91.9612 172.071 91.8009 171.759 91.4802 171.551C91.1682 171.334 90.7176 171.226 90.1282 171.226H87.7362ZM90.4662 177.674C91.7749 177.674 92.4292 177.236 92.4292 176.361C92.4292 175.486 91.7749 175.048 90.4662 175.048H87.7362V177.674H90.4662ZM103.511 177.583V179H96.6859V169.9H103.329V171.317H98.3759V173.683H102.77V175.074H98.3759V177.583H103.511ZM106.145 169.9H107.835V177.57H112.593V179H106.145V169.9ZM115.672 171.33H112.656V169.9H120.378V171.33H117.362V179H115.672V171.33ZM125.53 175.191L124.087 176.673V179H122.397V169.9H124.087V174.567L128.585 169.9H130.483L126.661 173.969L130.717 179H128.741L125.53 175.191ZM132.618 169.9H134.308V177.57H139.066V179H132.618V169.9ZM147.975 177.583V179H141.15V169.9H147.793V171.317H142.84V173.683H147.234V175.074H142.84V177.583H147.975ZM157.434 177.583V179H150.609V169.9H157.252V171.317H152.299V173.683H156.693V175.074H152.299V177.583H157.434ZM168.154 169.9V179H166.763L161.745 172.838V179H160.068V169.9H161.459L166.477 176.062V169.9H168.154Z" fill="white" fill-opacity="0.87"/>
<path d="M99.5023 39.2051C73.1495 39.2051 51.7051 60.645 51.7051 86.9977C51.7051 113.35 73.1495 134.795 99.5023 134.795C125.855 134.795 147.295 113.35 147.295 86.9977C147.295 60.645 125.855 39.2051 99.5023 39.2051ZM99.5023 137C71.9315 137 49.5 114.573 49.5 86.9977C49.5 59.427 71.9315 37 99.5023 37C127.073 37 149.5 59.427 149.5 86.9977C149.5 114.573 127.073 137 99.5023 137Z" fill="white" fill-opacity="0.87"/>
<path d="M99.5041 43.8055C75.687 43.8055 56.3074 63.1807 56.3074 86.9977C56.3074 110.815 75.687 130.194 99.5041 130.194C123.321 130.194 142.696 110.815 142.696 86.9977C142.696 63.1807 123.321 43.8055 99.5041 43.8055ZM99.5041 131.173C75.1482 131.173 55.3293 111.354 55.3293 86.9977C55.3293 62.6418 75.1482 42.823 99.5041 42.823C123.86 42.823 143.679 62.6418 143.679 86.9977C143.679 111.354 123.86 131.173 99.5041 131.173Z" fill="white" fill-opacity="0.87"/>
<path d="M79.2615 53.8169L80.2168 71.5363L95.1942 64.7206L80.3882 53.0987L79.2615 53.8169Z" fill="white" fill-opacity="0.87"/>
<path d="M85.2241 111.505H77.7077L110.368 58.6142H117.884L85.2241 111.505Z" fill="white" fill-opacity="0.87"/>
<path d="M94.7646 80.0034C93.6416 80.0034 92.7315 80.918 92.7315 82.0364V84.9298C92.7315 86.0482 93.6416 86.9629 94.7646 86.9629H103.146C104.269 86.9629 105.179 86.0482 105.179 84.9298V82.0364C105.179 80.918 104.269 80.0034 103.146 80.0034H94.7646ZM103.146 88.0949H94.7646C93.0168 88.0949 91.5995 86.6776 91.5995 84.9298V82.0364C91.5995 80.2887 93.0168 78.8714 94.7646 78.8714H103.146C104.894 78.8714 106.311 80.2887 106.311 82.0364V84.9298C106.311 86.6776 104.894 88.0949 103.146 88.0949Z" fill="white" fill-opacity="0.87"/>
<defs>
<filter id="filter0_d" x="0" y="0" width="208" height="208" filterUnits="userSpaceOnUse" color-interpolation-filters="sRGB">
<feFlood flood-opacity="0" result="BackgroundImageFix"/>
<feColorMatrix in="SourceAlpha" type="matrix" values="0 0 0 0 0 0 0 0 0 0 0 0 0 0 0 0 0 0 127 0"/>
<feOffset dx="4" dy="4"/>
<feGaussianBlur stdDeviation="2"/>
<feColorMatrix type="matrix" values="0 0 0 0 0 0 0 0 0 0 0 0 0 0 0 0 0 0 0.25 0"/>
<feBlend mode="normal" in2="BackgroundImageFix" result="effect1_dropShadow"/>
<feBlend mode="normal" in="SourceGraphic" in2="effect1_dropShadow" result="shape"/>
</filter>
</defs>
</svg>
