<svg width="208" height="208" viewBox="0 0 208 208" fill="none" xmlns="http://www.w3.org/2000/svg">
<g filter="url(#filter0_d)">
<rect width="200" height="200" rx="8" fill="#121212"/>
<rect width="200" height="200" rx="8" fill="white" fill-opacity="0.08"/>
</g>
<path d="M65.5341 136.135V138.904H69.9281V140.334H65.5341V143.818H63.8441V134.718H70.4871V136.135H65.5341ZM72.8714 134.718H74.5614V142.388H79.3194V143.818H72.8714V134.718ZM87.3691 141.712H82.8191L81.9221 143.818H80.1801L84.2751 134.718H85.9391L90.0471 143.818H88.2791L87.3691 141.712ZM86.8101 140.386L85.0941 136.408L83.3911 140.386H86.8101ZM93.3434 136.148H90.3274V134.718H98.0494V136.148H95.0334V143.818H93.3434V136.148ZM106.256 136.148H103.24V134.718H110.962V136.148H107.946V143.818H106.256V136.148ZM112.981 134.718H114.671V143.818H112.981V134.718ZM123.836 143.818L121.977 141.153C121.899 141.162 121.782 141.166 121.626 141.166H119.572V143.818H117.882V134.718H121.626C122.415 134.718 123.099 134.848 123.68 135.108C124.269 135.368 124.72 135.741 125.032 136.226C125.344 136.711 125.5 137.288 125.5 137.955C125.5 138.64 125.331 139.229 124.993 139.723C124.664 140.217 124.187 140.585 123.563 140.828L125.656 143.818H123.836ZM123.797 137.955C123.797 137.374 123.606 136.928 123.225 136.616C122.844 136.304 122.285 136.148 121.548 136.148H119.572V139.775H121.548C122.285 139.775 122.844 139.619 123.225 139.307C123.606 138.986 123.797 138.536 123.797 137.955ZM134.966 142.401V143.818H128.141V134.718H134.784V136.135H129.831V138.501H134.225V139.892H129.831V142.401H134.966ZM79.5691 157.818L77.7101 155.153C77.6321 155.162 77.5151 155.166 77.3591 155.166H75.3051V157.818H73.6151V148.718H77.3591C78.1477 148.718 78.8324 148.848 79.4131 149.108C80.0024 149.368 80.4531 149.741 80.7651 150.226C81.0771 150.711 81.2331 151.288 81.2331 151.955C81.2331 152.64 81.0641 153.229 80.7261 153.723C80.3967 154.217 79.9201 154.585 79.2961 154.828L81.3891 157.818H79.5691ZM79.5301 151.955C79.5301 151.374 79.3394 150.928 78.9581 150.616C78.5767 150.304 78.0177 150.148 77.2811 150.148H75.3051V153.775H77.2811C78.0177 153.775 78.5767 153.619 78.9581 153.307C79.3394 152.986 79.5301 152.536 79.5301 151.955ZM90.6989 156.401V157.818H83.8739V148.718H90.5169V150.135H85.5639V152.501H89.9579V153.892H85.5639V156.401H90.6989ZM97.0768 148.718C97.8655 148.718 98.5502 148.848 99.1308 149.108C99.7202 149.368 100.171 149.741 100.483 150.226C100.795 150.711 100.951 151.288 100.951 151.955C100.951 152.614 100.795 153.19 100.483 153.684C100.171 154.169 99.7202 154.542 99.1308 154.802C98.5502 155.062 97.8655 155.192 97.0768 155.192H95.0228V157.818H93.3328V148.718H97.0768ZM96.9988 153.762C97.7355 153.762 98.2945 153.606 98.6758 153.294C99.0572 152.982 99.2478 152.536 99.2478 151.955C99.2478 151.374 99.0572 150.928 98.6758 150.616C98.2945 150.304 97.7355 150.148 96.9988 150.148H95.0228V153.762H96.9988ZM108.833 155.712H104.283L103.386 157.818H101.644L105.739 148.718H107.403L111.511 157.818H109.743L108.833 155.712ZM108.274 154.386L106.558 150.408L104.855 154.386H108.274ZM113.419 148.718H115.109V157.818H113.419V148.718ZM124.274 157.818L122.415 155.153C122.337 155.162 122.22 155.166 122.064 155.166H120.01V157.818H118.32V148.718H122.064C122.853 148.718 123.537 148.848 124.118 149.108C124.707 149.368 125.158 149.741 125.47 150.226C125.782 150.711 125.938 151.288 125.938 151.955C125.938 152.64 125.769 153.229 125.431 153.723C125.102 154.217 124.625 154.585 124.001 154.828L126.094 157.818H124.274ZM124.235 151.955C124.235 151.374 124.044 150.928 123.663 150.616C123.282 150.304 122.723 150.148 121.986 150.148H120.01V153.775H121.986C122.723 153.775 123.282 153.619 123.663 153.307C124.044 152.986 124.235 152.536 124.235 151.955Z" fill="white" fill-opacity="0.87"/>
<path d="M105.601 66.2181C105.601 70.3047 102.288 73.6152 98.2025 73.6152C94.1174 73.6152 90.8053 70.3047 90.8053 66.2181C90.8053 62.1329 94.1174 58.8209 98.2025 58.8209C102.288 58.8209 105.601 62.1329 105.601 66.2181Z" fill="white"/>
<path d="M103.688 50.05C102.208 53.1514 99.5087 56.7802 98.1869 56.7802C96.8651 56.7802 94.167 53.1514 92.686 50.05C91.2839 50.3986 90.5593 50.7655 90.5593 50.7655C90.5593 50.7655 95.995 61.3398 98.1869 61.3398C100.38 61.3398 105.816 50.7655 105.816 50.7655C105.816 50.7655 105.091 50.3986 103.688 50.05Z" fill="white"/>
<path d="M86.9957 53.3373C88.942 56.1704 90.7352 60.3207 90.0743 61.4666C89.4134 62.6111 84.9221 63.134 81.4948 62.8642C81.0961 64.2542 81.0507 65.0652 81.0507 65.0652C81.0507 65.0652 92.9271 65.6458 94.023 63.7464C95.119 61.8471 88.6798 51.8533 88.6798 51.8533C88.6798 51.8533 87.9992 52.2975 86.9957 53.3373Z" fill="white"/>
<path d="M81.4948 69.4661C84.9221 69.1963 89.4134 69.7192 90.0743 70.8652C90.7352 72.0096 88.942 76.1614 86.9957 78.993C87.9992 80.0344 88.6798 80.4785 88.6798 80.4785C88.6798 80.4785 95.119 70.4832 94.023 68.5839C92.9271 66.6861 81.0507 67.2651 81.0507 67.2651C81.0507 67.2651 81.0961 68.0761 81.4948 69.4661Z" fill="white"/>
<path d="M92.686 82.3244C94.167 79.2231 96.8651 75.5957 98.1869 75.5957C99.5087 75.5957 102.207 79.2231 103.688 82.3244C105.091 81.9758 105.816 81.609 105.816 81.609C105.816 81.609 100.38 71.0346 98.1869 71.0346C95.995 71.0346 90.5593 81.609 90.5593 81.609C90.5593 81.609 91.2839 81.9758 92.686 82.3244Z" fill="white"/>
<path d="M109.434 78.9934C107.489 76.1618 105.695 72.01 106.357 70.8656C107.018 69.7196 111.509 69.1982 114.935 69.4665C115.334 68.0765 115.379 67.2655 115.379 67.2655C115.379 67.2655 103.504 66.685 102.407 68.5843C101.311 70.4836 107.752 80.4789 107.752 80.4789C107.752 80.4789 108.431 80.0348 109.434 78.9934Z" fill="white"/>
<path d="M114.935 62.8657C111.509 63.1356 107.018 62.6126 106.357 61.4682C105.695 60.3222 107.489 56.1704 109.434 53.3388C108.431 52.299 107.752 51.8533 107.752 51.8533C107.752 51.8533 101.311 61.8486 102.407 63.748C103.504 65.6458 115.379 65.0667 115.379 65.0667C115.379 65.0667 115.334 64.2557 114.935 62.8657Z" fill="white"/>
<path d="M98.1942 47.6729C87.9563 47.6729 79.6572 55.972 79.6572 66.2098C79.6572 76.4461 87.9563 84.7467 98.1942 84.7467C108.432 84.7467 116.731 76.4461 116.731 66.2098C116.731 55.972 108.432 47.6729 98.1942 47.6729ZM114.917 66.2098C114.917 75.4441 107.43 82.9308 98.1942 82.9308C88.9583 82.9308 81.4732 75.4441 81.4732 66.2098C81.4732 56.9739 88.9583 49.4873 98.1942 49.4873C107.43 49.4873 114.917 56.9739 114.917 66.2098Z" fill="white"/>
<path d="M116.394 66.2264C116.394 76.2687 108.253 84.4101 98.2107 84.4101C88.1684 84.4101 80.0285 76.2687 80.0285 66.2264C80.0285 56.1841 88.1684 48.0426 98.2107 48.0426C108.253 48.0426 116.394 56.1841 116.394 66.2264ZM98.2107 41.2791C84.432 41.2791 73.2634 52.4491 73.2634 66.2264C73.2634 80.0052 84.432 91.1737 98.2107 91.1737C111.99 91.1737 123.158 80.0052 123.158 66.2264C123.158 52.4491 111.99 41.2791 98.2107 41.2791Z" fill="white"/>
<path d="M121.584 66.1815C121.584 79.069 111.135 89.516 98.2478 89.516C85.3619 89.516 74.9148 79.069 74.9148 66.1815C74.9148 53.2956 85.3619 42.847 98.2478 42.847C111.135 42.847 121.584 53.2956 121.584 66.1815ZM98.2478 41.689C84.7222 41.689 73.7552 52.6544 73.7552 66.1815C73.7552 79.7087 84.7222 90.6756 98.2478 90.6756C111.775 90.6756 122.742 79.7087 122.742 66.1815C122.742 52.6544 111.775 41.689 98.2478 41.689Z" fill="white"/>
<path d="M118.56 66.1589C118.56 77.3896 109.456 86.4936 98.2252 86.4936C86.996 86.4936 77.892 77.3896 77.892 66.1589C77.892 54.9297 86.996 45.8242 98.2252 45.8242C109.456 45.8242 118.56 54.9297 118.56 66.1589ZM98.2252 42.8365C85.3453 42.8365 74.9028 53.2775 74.9028 66.1589C74.9028 79.0403 85.3453 89.4813 98.2252 89.4813C111.107 89.4813 121.549 79.0403 121.549 66.1589C121.549 53.2775 111.107 42.8365 98.2252 42.8365Z" fill="white"/>
<path d="M101.178 66.1789C101.178 67.7978 99.8657 69.112 98.2453 69.112C96.6264 69.112 95.3137 67.7978 95.3137 66.1789C95.3137 64.56 96.6264 63.2473 98.2453 63.2473C99.8657 63.2473 101.178 64.56 101.178 66.1789Z" fill="white"/>
<path d="M98.8563 41.7712H96.4613L96.6856 40.9512H98.6319L98.8563 41.7712Z" fill="white"/>
<path d="M96.3015 41.8244L93.9202 42.0745L94.0581 41.2363L95.9923 41.0331L96.3015 41.8244Z" fill="white"/>
<path d="M93.721 42.1159L91.379 42.6146L91.4275 41.7657L93.3314 41.361L93.721 42.1159Z" fill="white"/>
<path d="M91.2361 42.7262L88.9593 43.466L88.9199 42.6171L90.7692 42.0168L91.2361 42.7262Z" fill="white"/>
<path d="M88.8574 43.5764L86.6701 44.5511L86.5427 43.7098L88.3193 42.9185L88.8574 43.5764Z" fill="white"/>
<path d="M86.5379 44.6633L84.4643 45.8608L84.2476 45.0393L85.9331 44.0661L86.5379 44.6633Z" fill="white"/>
<path d="M84.3537 45.9901L82.4165 47.3983L82.1163 46.6025L83.6913 45.4596L84.3537 45.9901Z" fill="white"/>
<path d="M82.3106 47.5568L80.5295 49.159L80.149 48.3996L81.5936 47.099L82.3106 47.5568Z" fill="white"/>
<path d="M80.4876 49.3648L78.8839 51.1444L78.4276 50.4305L79.7282 48.9844L80.4876 49.3648Z" fill="white"/>
<path d="M78.8088 51.3338L77.4006 53.271L76.8701 52.607L78.0145 51.0336L78.8088 51.3338Z" fill="white"/>
<path d="M77.3533 53.3801L76.1558 55.4553L75.5586 54.8504L76.5317 53.1649L77.3533 53.3801Z" fill="white"/>
<path d="M76.1241 55.6694L75.1479 57.8582L74.493 57.3186L75.2828 55.5421L76.1241 55.6694Z" fill="white"/>
<path d="M75.124 58.0406L74.3842 60.3188L73.6733 59.852L74.2736 58.0012L75.124 58.0406Z" fill="white"/>
<path d="M74.4336 60.4603L73.9364 62.8038L73.1815 62.4127L73.5847 60.5103L74.4336 60.4603Z" fill="white"/>
<path d="M73.9769 63.0014L73.7268 65.3828L72.9355 65.0735L73.1387 63.1393L73.9769 63.0014Z" fill="white"/>
<path d="M73.7541 65.5425V67.9375L72.9355 67.7132V65.7669L73.7541 65.5425Z" fill="white"/>
<path d="M73.8088 68.0836L74.0589 70.4665L73.2192 70.327L73.0176 68.3928L73.8088 68.0836Z" fill="white"/>
<path d="M74.1823 70.6248L74.681 72.9682L73.8336 72.9182L73.4274 71.0143L74.1823 70.6248Z" fill="white"/>
<path d="M74.7925 73.1658L75.5322 75.4441L74.6849 75.4835L74.0831 73.6327L74.7925 73.1658Z" fill="white"/>
<path d="M75.6427 75.543L76.6174 77.7303L75.7777 77.8591L74.9849 76.0811L75.6427 75.543Z" fill="white"/>
<path d="M76.7297 77.8382L77.9272 79.9134L77.1056 80.1271L76.1324 78.443L76.7297 77.8382Z" fill="white"/>
<path d="M78.0579 80.0514L79.4661 81.9886L78.6703 82.2887L77.5259 80.7138L78.0579 80.0514Z" fill="white"/>
<path d="M79.6232 82.1006L81.2269 83.8802L80.4675 84.2622L79.1654 82.8161L79.6232 82.1006Z" fill="white"/>
<path d="M81.3492 83.9041L83.1303 85.5063L82.4133 85.9641L80.9688 84.6635L81.3492 83.9041Z" fill="white"/>
<path d="M83.3165 85.6254L85.2538 87.0336L84.5914 87.5642L83.0179 86.4212L83.3165 85.6254Z" fill="white"/>
<path d="M85.4465 87.0189L87.5201 88.2164L86.9168 88.8136L85.2312 87.8405L85.4465 87.0189Z" fill="white"/>
<path d="M87.6552 88.2485L89.8425 89.2232L89.3044 89.8795L87.5264 89.0883L87.6552 88.2485Z" fill="white"/>
<path d="M90.025 89.2322L92.3033 89.9719L91.8349 90.6813L89.9856 90.081L90.025 89.2322Z" fill="white"/>
<path d="M92.5266 89.9699L94.8701 90.4686L94.479 91.2235L92.5766 90.8188L92.5266 89.9699Z" fill="white"/>
<path d="M94.9857 90.4617L97.3671 90.7118L97.0578 91.5031L95.1237 91.3L94.9857 90.4617Z" fill="white"/>
<path d="M97.6089 90.6257H100.004L99.7795 91.4457H97.8332L97.6089 90.6257Z" fill="white"/>
<path d="M100.15 90.5494L102.531 90.2978L102.393 91.1376L100.459 91.3407L100.15 90.5494Z" fill="white"/>
<path d="M102.691 90.2227L105.034 89.724L104.984 90.5729L103.082 90.9776L102.691 90.2227Z" fill="white"/>
<path d="M105.15 89.644L107.428 88.9043L107.466 89.7532L105.619 90.3534L105.15 89.644Z" fill="white"/>
<path d="M107.609 88.8133L109.798 87.8386L109.926 88.6799L108.147 89.4712L107.609 88.8133Z" fill="white"/>
<path d="M109.905 87.7246L111.978 86.5271L112.193 87.3487L110.508 88.3218L109.905 87.7246Z" fill="white"/>
<path d="M112.036 86.3779L113.973 84.9697L114.275 85.7655L112.7 86.9084L112.036 86.3779Z" fill="white"/>
<path d="M114.085 84.7701L115.865 83.1663L116.247 83.9257L114.801 85.2278L114.085 84.7701Z" fill="white"/>
<path d="M115.97 83.0605L117.574 81.2809L118.032 81.9949L116.73 83.441L115.97 83.0605Z" fill="white"/>
<path d="M117.61 81.0869L119.018 79.1497L119.547 79.8136L118.404 81.3871L117.61 81.0869Z" fill="white"/>
<path d="M119.085 79.0102L120.283 76.9365L120.882 77.5413L119.908 79.2254L119.085 79.0102Z" fill="white"/>
<path d="M120.315 76.7482L121.289 74.5593L121.946 75.099L121.155 76.8755L120.315 76.7482Z" fill="white"/>
<path d="M121.298 74.3785L122.038 72.1002L122.748 72.5671L122.147 74.4164L121.298 74.3785Z" fill="white"/>
<path d="M122.036 71.9025L122.535 69.5591L123.288 69.9502L122.885 71.8525L122.036 71.9025Z" fill="white"/>
<path d="M122.446 69.3994L122.696 67.018L123.487 67.3272L123.286 69.2614L122.446 69.3994Z" fill="white"/>
<path d="M122.692 66.7914V64.3949L123.512 64.6208V66.5671L122.692 66.7914Z" fill="white"/>
<path d="M122.614 64.2367L122.364 61.8538L123.202 61.9933L123.404 63.9259L122.614 64.2367Z" fill="white"/>
<path d="M122.287 61.7382L121.79 59.3947L122.638 59.4447L123.042 61.3471L122.287 61.7382Z" fill="white"/>
<path d="M121.628 59.2532L120.889 56.975L121.738 56.9355L122.339 58.7864L121.628 59.2532Z" fill="white"/>
<path d="M120.798 56.7926L119.823 54.6053L120.663 54.4764L121.456 56.2545L120.798 56.7926Z" fill="white"/>
<path d="M119.709 54.5521L118.511 52.4769L119.333 52.2632L120.306 53.9473L119.709 54.5521Z" fill="white"/>
<path d="M118.362 52.3693L116.954 50.4321L117.75 50.132L118.893 51.7069L118.362 52.3693Z" fill="white"/>
<path d="M116.836 50.3262L115.233 48.5467L115.992 48.1647L117.296 49.6108L116.836 50.3262Z" fill="white"/>
<path d="M115.045 48.4213L113.265 46.819L113.981 46.3613L115.427 47.6618L115.045 48.4213Z" fill="white"/>
<path d="M113.071 46.7426L111.134 45.3344L111.796 44.8038L113.371 45.9483L113.071 46.7426Z" fill="white"/>
<path d="M110.996 45.369L108.921 44.1715L109.526 43.5743L111.211 44.5474L110.996 45.369Z" fill="white"/>
<path d="M108.733 44.1397L106.544 43.165L107.082 42.5087L108.86 43.2999L108.733 44.1397Z" fill="white"/>
<path d="M106.363 43.1396L104.085 42.3999L104.551 41.689L106.401 42.2907L106.363 43.1396Z" fill="white"/>
<path d="M103.885 42.3687L101.543 41.87L101.933 41.1151L103.837 41.5198L103.885 42.3687Z" fill="white"/>
<path d="M101.385 41.9106L99.0023 41.6605L99.3115 40.8692L101.246 41.0723L101.385 41.9106Z" fill="white"/>
<defs>
<filter id="filter0_d" x="0" y="0" width="208" height="208" filterUnits="userSpaceOnUse" color-interpolation-filters="sRGB">
<feFlood flood-opacity="0" result="BackgroundImageFix"/>
<feColorMatrix in="SourceAlpha" type="matrix" values="0 0 0 0 0 0 0 0 0 0 0 0 0 0 0 0 0 0 127 0"/>
<feOffset dx="4" dy="4"/>
<feGaussianBlur stdDeviation="2"/>
<feColorMatrix type="matrix" values="0 0 0 0 0 0 0 0 0 0 0 0 0 0 0 0 0 0 0.25 0"/>
<feBlend mode="normal" in2="BackgroundImageFix" result="effect1_dropShadow"/>
<feBlend mode="normal" in="SourceGraphic" in2="effect1_dropShadow" result="shape"/>
</filter>
</defs>
</svg>
