<svg width="200" height="200" viewBox="0 0 200 200" fill="none" xmlns="http://www.w3.org/2000/svg">
<rect width="200" height="200" rx="8" fill="#121212"/>
<rect width="200" height="200" rx="8" fill="white" fill-opacity="0.08"/>
<path d="M77.0759 125.9C77.8645 125.9 78.5492 126.03 79.1299 126.29C79.7192 126.55 80.1699 126.923 80.4819 127.408C80.7939 127.893 80.9499 128.47 80.9499 129.137C80.9499 129.796 80.7939 130.372 80.4819 130.866C80.1699 131.351 79.7192 131.724 79.1299 131.984C78.5492 132.244 77.8645 132.374 77.0759 132.374H75.0219V135H73.3319V125.9H77.0759ZM76.9979 130.944C77.7345 130.944 78.2935 130.788 78.6749 130.476C79.0562 130.164 79.2469 129.718 79.2469 129.137C79.2469 128.556 79.0562 128.11 78.6749 127.798C78.2935 127.486 77.7345 127.33 76.9979 127.33H75.0219V130.944H76.9979ZM87.3005 135.13C86.0439 135.13 85.0645 134.779 84.3625 134.077C83.6605 133.366 83.3095 132.352 83.3095 131.035V125.9H84.9995V130.97C84.9995 132.755 85.7709 133.648 87.3135 133.648C88.8475 133.648 89.6145 132.755 89.6145 130.97V125.9H91.2785V131.035C91.2785 132.352 90.9275 133.366 90.2255 134.077C89.5322 134.779 88.5572 135.13 87.3005 135.13ZM98.6073 135.13C97.6887 135.13 96.8567 134.931 96.1113 134.532C95.3747 134.125 94.794 133.566 94.3693 132.855C93.9533 132.144 93.7453 131.343 93.7453 130.45C93.7453 129.557 93.9577 128.756 94.3823 128.045C94.807 127.334 95.3877 126.78 96.1243 126.381C96.8697 125.974 97.7017 125.77 98.6203 125.77C99.3657 125.77 100.046 125.9 100.661 126.16C101.277 126.42 101.797 126.797 102.221 127.291L101.129 128.318C100.471 127.607 99.6603 127.252 98.6983 127.252C98.0743 127.252 97.5153 127.391 97.0213 127.668C96.5273 127.937 96.1417 128.314 95.8643 128.799C95.587 129.284 95.4483 129.835 95.4483 130.45C95.4483 131.065 95.587 131.616 95.8643 132.101C96.1417 132.586 96.5273 132.968 97.0213 133.245C97.5153 133.514 98.0743 133.648 98.6983 133.648C99.6603 133.648 100.471 133.288 101.129 132.569L102.221 133.609C101.797 134.103 101.272 134.48 100.648 134.74C100.033 135 99.3527 135.13 98.6073 135.13ZM115.758 135.143L114.614 134.038C113.765 134.766 112.747 135.13 111.559 135.13C110.927 135.13 110.359 135.026 109.856 134.818C109.354 134.61 108.959 134.324 108.673 133.96C108.387 133.587 108.244 133.167 108.244 132.699C108.244 132.136 108.409 131.642 108.738 131.217C109.068 130.784 109.605 130.359 110.35 129.943C109.986 129.579 109.726 129.241 109.57 128.929C109.414 128.608 109.336 128.279 109.336 127.941C109.336 127.3 109.575 126.784 110.051 126.394C110.537 125.995 111.178 125.796 111.975 125.796C112.712 125.796 113.301 125.978 113.743 126.342C114.185 126.697 114.406 127.183 114.406 127.798C114.406 128.266 114.259 128.682 113.964 129.046C113.678 129.41 113.206 129.778 112.547 130.151L114.51 132.023C114.727 131.598 114.896 131.087 115.017 130.489L116.33 130.918C116.157 131.724 115.884 132.417 115.511 132.998L116.655 134.09L115.758 135.143ZM111.975 126.953C111.62 126.953 111.338 127.044 111.13 127.226C110.922 127.399 110.818 127.629 110.818 127.915C110.818 128.123 110.875 128.322 110.987 128.513C111.1 128.695 111.317 128.946 111.637 129.267C112.157 128.981 112.517 128.734 112.716 128.526C112.924 128.309 113.028 128.075 113.028 127.824C113.028 127.555 112.933 127.343 112.742 127.187C112.56 127.031 112.305 126.953 111.975 126.953ZM111.676 133.804C112.43 133.804 113.089 133.574 113.652 133.115L111.247 130.814C110.727 131.1 110.359 131.377 110.142 131.646C109.934 131.906 109.83 132.201 109.83 132.53C109.83 132.911 109.999 133.219 110.337 133.453C110.675 133.687 111.122 133.804 111.676 133.804ZM72.1162 139.9L68.1512 149H66.4872L62.5092 139.9H64.3422L67.3712 146.92L70.4262 139.9H72.1162ZM80.6515 147.583V149H73.8265V139.9H80.4695V141.317H75.5165V143.683H79.9105V145.074H75.5165V147.583H80.6515ZM91.3715 139.9V149H89.6815V145.1H84.9755V149H83.2855V139.9H84.9755V143.657H89.6815V139.9H91.3715ZM94.5599 139.9H96.2499V149H94.5599V139.9ZM103.673 149.13C102.755 149.13 101.923 148.931 101.177 148.532C100.441 148.125 99.8599 147.566 99.4353 146.855C99.0193 146.144 98.8113 145.343 98.8113 144.45C98.8113 143.557 99.0236 142.756 99.4483 142.045C99.8729 141.334 100.454 140.78 101.19 140.381C101.936 139.974 102.768 139.77 103.686 139.77C104.432 139.77 105.112 139.9 105.727 140.16C106.343 140.42 106.863 140.797 107.287 141.291L106.195 142.318C105.537 141.607 104.726 141.252 103.764 141.252C103.14 141.252 102.581 141.391 102.087 141.668C101.593 141.937 101.208 142.314 100.93 142.799C100.653 143.284 100.514 143.835 100.514 144.45C100.514 145.065 100.653 145.616 100.93 146.101C101.208 146.586 101.593 146.968 102.087 147.245C102.581 147.514 103.14 147.648 103.764 147.648C104.726 147.648 105.537 147.288 106.195 146.569L107.287 147.609C106.863 148.103 106.338 148.48 105.714 148.74C105.099 149 104.419 149.13 103.673 149.13ZM109.657 139.9H111.347V147.57H116.105V149H109.657V139.9ZM125.014 147.583V149H118.189V139.9H124.832V141.317H119.879V143.683H124.273V145.074H119.879V147.583H125.014ZM62.8964 154.317V157.086H67.2904V158.516H62.8964V162H61.2064V152.9H67.8494V154.317H62.8964ZM70.2337 152.9H71.9237V162H70.2337V152.9ZM76.9811 154.33H73.9651V152.9H81.6871V154.33H78.6711V162H76.9811V154.33ZM85.6784 154.33H82.6624V152.9H90.3844V154.33H87.3684V162H85.6784V154.33ZM100.489 152.9V162H99.0977L94.0797 155.838V162H92.4027V152.9H93.7937L98.8117 159.062V152.9H100.489ZM110.502 160.583V162H103.677V152.9H110.32V154.317H105.367V156.683H109.761V158.074H105.367V160.583H110.502ZM115.957 162.13C115.255 162.13 114.575 162.03 113.916 161.831C113.266 161.632 112.75 161.367 112.369 161.038L112.954 159.725C113.327 160.02 113.782 160.262 114.319 160.453C114.865 160.635 115.411 160.726 115.957 160.726C116.633 160.726 117.136 160.618 117.465 160.401C117.803 160.184 117.972 159.898 117.972 159.543C117.972 159.283 117.877 159.071 117.686 158.906C117.504 158.733 117.27 158.598 116.984 158.503C116.698 158.408 116.308 158.299 115.814 158.178C115.121 158.013 114.557 157.849 114.124 157.684C113.699 157.519 113.331 157.264 113.019 156.917C112.716 156.562 112.564 156.085 112.564 155.487C112.564 154.984 112.698 154.529 112.967 154.122C113.244 153.706 113.656 153.377 114.202 153.134C114.757 152.891 115.433 152.77 116.23 152.77C116.785 152.77 117.331 152.839 117.868 152.978C118.405 153.117 118.869 153.316 119.259 153.576L118.726 154.889C118.327 154.655 117.911 154.477 117.478 154.356C117.045 154.235 116.624 154.174 116.217 154.174C115.55 154.174 115.051 154.287 114.722 154.512C114.401 154.737 114.241 155.036 114.241 155.409C114.241 155.669 114.332 155.881 114.514 156.046C114.705 156.211 114.943 156.341 115.229 156.436C115.515 156.531 115.905 156.64 116.399 156.761C117.075 156.917 117.63 157.082 118.063 157.255C118.496 157.42 118.865 157.675 119.168 158.022C119.48 158.369 119.636 158.837 119.636 159.426C119.636 159.929 119.497 160.384 119.22 160.791C118.951 161.198 118.54 161.523 117.985 161.766C117.43 162.009 116.754 162.13 115.957 162.13ZM124.883 162.13C124.181 162.13 123.501 162.03 122.842 161.831C122.192 161.632 121.676 161.367 121.295 161.038L121.88 159.725C122.253 160.02 122.708 160.262 123.245 160.453C123.791 160.635 124.337 160.726 124.883 160.726C125.559 160.726 126.062 160.618 126.391 160.401C126.729 160.184 126.898 159.898 126.898 159.543C126.898 159.283 126.803 159.071 126.612 158.906C126.43 158.733 126.196 158.598 125.91 158.503C125.624 158.408 125.234 158.299 124.74 158.178C124.047 158.013 123.483 157.849 123.05 157.684C122.625 157.519 122.257 157.264 121.945 156.917C121.642 156.562 121.49 156.085 121.49 155.487C121.49 154.984 121.624 154.529 121.893 154.122C122.17 153.706 122.582 153.377 123.128 153.134C123.683 152.891 124.359 152.77 125.156 152.77C125.711 152.77 126.257 152.839 126.794 152.978C127.331 153.117 127.795 153.316 128.185 153.576L127.652 154.889C127.253 154.655 126.837 154.477 126.404 154.356C125.971 154.235 125.55 154.174 125.143 154.174C124.476 154.174 123.977 154.287 123.648 154.512C123.327 154.737 123.167 155.036 123.167 155.409C123.167 155.669 123.258 155.881 123.44 156.046C123.631 156.211 123.869 156.341 124.155 156.436C124.441 156.531 124.831 156.64 125.325 156.761C126.001 156.917 126.556 157.082 126.989 157.255C127.422 157.42 127.791 157.675 128.094 158.022C128.406 158.369 128.562 158.837 128.562 159.426C128.562 159.929 128.423 160.384 128.146 160.791C127.877 161.198 127.466 161.523 126.911 161.766C126.356 162.009 125.68 162.13 124.883 162.13Z" fill="white" fill-opacity="0.87"/>
<path d="M72.1127 94.3054H61.9558C61.2585 94.3054 60.603 93.9721 60.1919 93.4082L56.9669 88.9707C56.0238 87.6735 56.7558 85.8374 58.3321 85.5457L61.0224 85.0471C62.4266 84.7874 63.2058 83.2679 62.5974 81.9762L59.8919 76.2249C59.2419 74.8443 60.1752 73.2415 61.696 73.1249L65.5988 72.8235C66.4946 72.7554 67.2571 72.1429 67.5169 71.2832L69.7752 63.8304C70.1099 62.729 71.2405 62.0776 72.3613 62.3401L75.0321 62.9693C75.6183 63.1068 76.2377 62.9957 76.7391 62.661L85.5308 56.7999C86.2877 56.2943 87.2794 56.3137 88.0155 56.8457L91.196 59.1429C92.0641 59.7693 93.2585 59.6735 94.0141 58.9179L97.796 55.1346C98.621 54.311 99.9474 54.2804 100.807 55.0665L106.109 59.9054C106.564 60.3207 107.174 60.5249 107.788 60.4651L113.19 59.9415C114.872 59.779 116.092 61.511 115.372 63.0401C114.835 64.1846 115.378 65.5443 116.559 66.0012L121.899 68.0679C123.238 68.586 123.718 70.236 122.865 71.3929L121.242 73.5971C120.532 74.561 120.732 75.9151 121.689 76.6332L127.742 81.1721C129.014 82.1276 128.868 84.0818 127.465 84.836L125.389 85.954C123.882 86.7651 123.856 88.9165 125.34 89.7651L126.484 90.4193C128.181 91.3887 127.843 93.9276 125.954 94.4207L123.859 94.9679C123.668 95.0165 123.472 95.0401 123.277 95.0373L72.1127 94.3054V94.3054Z" stroke="white" stroke-miterlimit="10"/>
<path d="M76.888 71.7155C76.7241 72.0086 76.6144 72.2322 76.5727 72.3502C76.4589 72.6989 76.413 72.8739 76.3769 72.9711C76.1741 72.9211 75.9505 72.835 75.77 72.8933C75.5922 72.9627 75.5616 73.1364 75.3519 73.1905C75.1033 73.2419 74.7366 73.1044 74.4922 73.0697C73.9672 72.9836 73.4227 72.9114 72.8991 72.7891C72.0561 72.5975 71.763 71.8114 71.8116 71.0211C71.8672 70.2864 72.6172 70.0419 73.213 69.953C73.8047 69.8475 74.613 69.5822 75.1727 69.9183C75.9866 70.4183 75.6644 71.9405 76.888 71.7155" fill="white"/>
<path d="M113.586 89.5729C112.584 89.5729 111.627 89.6077 110.65 89.6257C110.245 89.634 109.849 89.634 109.445 89.634C108.6 89.634 106.824 89.7049 106.059 89.4243C104.802 89.0021 104.475 87.3396 104.132 86.1521C104.221 86.1257 104.309 86.1077 104.406 86.091C104.529 86.0729 104.67 86.0465 104.811 86.0202C104.897 86.0118 104.993 85.9938 105.092 85.9771C105.127 85.9771 105.153 85.9771 105.188 85.9674C105.311 85.9507 105.453 85.9313 105.582 85.9146H105.62C105.75 85.8979 105.892 85.8799 106.034 85.8618C106.375 85.8271 106.735 85.791 107.114 85.7646C107.22 85.7646 107.325 85.7563 107.429 85.7479C108.002 85.7035 108.59 85.6688 109.171 85.6507C109.321 85.6424 109.471 85.634 109.621 85.6243H109.946C110.078 85.616 110.2 85.616 110.332 85.6077H110.64C112.145 85.5799 113.367 85.6424 113.718 85.7646C114.659 86.1174 114.492 86.9785 114.774 87.8938C115.056 89.1507 114.845 89.5729 113.586 89.5729ZM102.725 87.8327C102.277 89.0896 100.527 88.9215 100.352 88.9215L88.2321 88.9313C88.0655 88.9313 86.3057 89.1077 85.8571 87.8493C85.3919 86.5827 84.696 84.5521 84.4502 83.541C84.1877 82.4771 83.3252 80.6465 88.4794 80.7618C91.1349 80.8146 93.0516 80.8146 94.2835 80.7965C95.5224 80.8146 97.4405 80.8146 100.096 80.7521C105.24 80.6299 104.388 82.459 104.125 83.5229C103.878 84.534 103.184 86.5743 102.725 87.8327V87.8327ZM82.5349 89.441C81.7599 89.7229 79.9835 89.6604 79.1391 89.6604C78.8321 89.6604 78.5238 89.6604 78.2252 89.6521C77.4863 89.6438 76.7488 89.6257 76.0002 89.6174C75.6655 89.6077 75.3405 89.6077 74.9974 89.6077C73.7405 89.6077 73.528 89.1868 73.8099 87.9285C74.0905 87.0132 73.9155 86.1521 74.8557 85.8007C75.2002 85.6771 76.3432 85.6243 77.7585 85.634C77.9099 85.634 78.0669 85.634 78.2252 85.6424C78.6919 85.6507 79.1821 85.659 79.6849 85.6868C79.9835 85.6951 80.2821 85.7118 80.5807 85.7299C80.696 85.7299 80.8016 85.7396 80.9071 85.7479C81.0752 85.7563 81.2321 85.7743 81.3905 85.7827C81.5502 85.791 81.7071 85.809 81.8655 85.8174C82.0238 85.8354 82.1738 85.8535 82.3224 85.8618C82.5516 85.8799 82.771 85.9063 82.9835 85.9313C83.1224 85.9507 83.2641 85.9674 83.3877 85.9854C83.5016 86.0021 83.6071 86.0202 83.7127 86.0299C83.7641 86.0382 83.8169 86.0465 83.8627 86.0549C83.9321 86.0646 83.9932 86.0813 84.0544 86.091C84.0821 86.0993 84.1071 86.0993 84.1252 86.0993C84.1696 86.1076 84.2155 86.1174 84.2571 86.1257C84.328 86.1438 84.3905 86.1521 84.4502 86.1702C84.1002 87.3563 83.7919 89.0188 82.5349 89.441V89.441ZM74.2752 77.6827C74.4349 76.9535 74.5932 77.059 75.3752 77.0493C76.5794 77.0493 77.7405 77.1646 78.9474 77.3757C80.5294 77.6299 82.3669 77.5771 83.9321 78.0438C82.1127 81.3063 80.1085 80.7354 77.7932 80.7354C76.5363 80.7354 74.5932 80.7354 74.2752 79.2146C74.171 78.791 74.171 78.1577 74.2752 77.6827ZM81.4266 65.4507L94.2835 65.0021L107.114 65.4243C107.114 65.4243 111.749 72.6354 111.397 72.6354C111.063 72.6354 99.4807 71.984 94.2752 72.0993C89.078 71.9938 77.4863 72.6618 77.1599 72.6618C76.8099 72.6618 81.4266 65.4507 81.4266 65.4507V65.4507ZM113.182 77.0243C113.974 77.0243 114.132 76.9188 114.29 77.6479C114.396 78.1229 114.396 78.7563 114.29 79.1785C113.974 80.6993 112.039 80.6993 110.772 80.6993C108.46 80.709 106.453 81.2799 104.635 78.0271C106.2 77.5604 108.046 77.6035 109.621 77.3493C110.817 77.1299 111.977 77.0243 113.182 77.0243V77.0243ZM116.621 77.5688C116.575 76.8299 114.861 75.2479 114.368 74.7632C114.045 74.4465 112.9 73.4702 112.522 73.2243C112.293 73.084 112.249 73.084 112.188 72.9424C112.153 72.8382 112.11 72.6618 111.995 72.3188C111.95 72.1965 111.846 71.9757 111.678 71.6854C110.693 69.9007 107.818 65.459 107.581 65.2132C107.29 64.9313 106.665 64.3688 105.768 64.2104C104.879 64.0604 95.9544 63.5952 94.2752 63.5952C92.5863 63.5952 83.6585 64.0785 82.771 64.2368C81.8752 64.3952 81.2502 64.9493 80.9696 65.2313C80.7307 65.4771 77.8544 69.9271 76.8794 71.7118C76.7127 72.0104 76.6071 72.2313 76.5627 72.3452C76.4488 72.6965 76.4044 72.8729 76.3696 72.9702C76.3252 73.066 76.0974 73.2243 76.0085 73.2688C75.9919 73.2854 75.9821 73.2952 75.9821 73.2952C75.7363 73.4618 74.7335 74.1396 74.1974 74.7104C73.3794 75.5729 71.9807 76.866 71.946 77.6035C71.9113 78.3438 71.5946 78.8618 71.6724 80.3396C71.7002 81.0521 71.9016 83.2146 72.096 85.2729C72.2891 87.4354 72.5002 89.4854 72.5182 89.6438C72.5516 89.9604 72.4474 90.3118 72.5863 90.584C72.728 90.866 73.0807 90.9452 73.6335 90.9354C73.8099 90.9354 75.6655 90.9618 78.2252 90.9979C84.3099 91.0688 94.2905 91.1993 94.2905 91.1993C94.2905 91.1993 104.589 91.0507 110.65 90.9618C113.049 90.9271 114.79 90.9007 114.949 90.9007C115.504 90.9007 115.856 90.8313 116.004 90.5493C116.136 90.2757 116.032 89.9243 116.067 89.6077C116.093 89.3882 116.453 85.6868 116.69 82.9604C116.796 81.7549 116.875 80.7438 116.903 80.2952C116.972 78.8271 116.656 78.2993 116.621 77.5688" fill="white"/>
<path d="M78.2206 91.8782V94.2963C78.2206 94.5254 78.0358 94.7185 77.8067 94.7185L72.5206 94.7268C72.2845 94.7268 72.0997 94.5338 72.0997 94.306V91.3768C72.5567 91.7991 73.2247 91.8171 73.5942 91.8171C73.6039 91.8171 78.2108 91.8782 78.2108 91.8782H78.2206V91.8782Z" fill="white"/>
<path d="M116.779 90.9633V94.2619C116.779 94.498 116.592 94.6828 116.355 94.6828L111.07 94.6925C110.842 94.6925 110.649 94.498 110.649 94.2703V91.8425C113.147 91.8078 114.915 91.7814 114.949 91.7814C115.362 91.7814 116.322 91.7814 116.779 90.9633" fill="white"/>
<path d="M77.7453 87.6515C77.7453 88.5362 77.0286 89.2529 76.1453 89.2557C75.262 89.2543 74.5425 88.539 74.5411 87.6529C74.5411 86.7696 75.2578 86.0501 76.1453 86.0515C77.0245 86.0501 77.7439 86.7668 77.7453 87.6515" fill="white"/>
<path d="M115.668 72.7513C115.144 72.8735 114.596 72.9458 114.072 73.0347C113.826 73.068 113.462 73.2069 113.214 73.1569C113.004 73.1027 112.972 72.9305 112.794 72.8597C112.612 72.7999 112.391 72.8888 112.189 72.9402C112.153 72.8416 112.105 72.6652 111.991 72.3166C111.948 72.1999 111.84 71.9777 111.675 71.6833C112.897 71.9041 112.572 70.3847 113.387 69.8833C113.946 69.5472 114.753 69.8124 115.35 69.9166C115.941 70.0041 116.694 70.2472 116.747 70.9819C116.798 71.7694 116.507 72.5555 115.668 72.7513" fill="white"/>
<path d="M80.5109 87.6479C80.5109 88.2784 80.0012 88.791 79.3692 88.791C78.7414 88.791 78.2262 88.2812 78.2275 87.6493C78.2262 87.0173 78.7373 86.5062 79.3692 86.5062C79.9998 86.5048 80.5109 87.0159 80.5109 87.6479Z" fill="white"/>
<path d="M113.925 87.6193C113.93 88.5027 113.212 89.2221 112.325 89.2221C111.443 89.2235 110.723 88.5068 110.723 87.6207C110.72 86.7388 111.441 86.0193 112.323 86.0179C113.209 86.0193 113.927 86.7346 113.925 87.6193" fill="white"/>
<path d="M110.101 87.6221C110.103 88.2554 109.591 88.7651 108.962 88.7665C108.333 88.7665 107.817 88.2554 107.817 87.6249C107.819 86.9929 108.33 86.4804 108.959 86.4818C109.591 86.4804 110.102 86.9915 110.101 87.6221" fill="white"/>
</svg>
