<svg width="208" height="208" viewBox="0 0 208 208" fill="none" xmlns="http://www.w3.org/2000/svg">
<g filter="url(#filter0_d)">
<rect width="200" height="200" rx="8" fill="#121212"/>
<rect width="200" height="200" rx="8" fill="white" fill-opacity="0.08"/>
</g>
<path d="M76.678 143.818L74.819 141.153C74.741 141.162 74.624 141.166 74.468 141.166H72.414V143.818H70.724V134.718H74.468C75.2566 134.718 75.9413 134.848 76.522 135.108C77.1113 135.368 77.562 135.741 77.874 136.226C78.186 136.711 78.342 137.288 78.342 137.955C78.342 138.64 78.173 139.229 77.835 139.723C77.5056 140.217 77.029 140.585 76.405 140.828L78.498 143.818H76.678ZM76.639 137.955C76.639 137.374 76.4483 136.928 76.067 136.616C75.6856 136.304 75.1266 136.148 74.39 136.148H72.414V139.775H74.39C75.1266 139.775 75.6856 139.619 76.067 139.307C76.4483 138.986 76.639 138.536 76.639 137.955ZM85.2337 143.948C84.3064 143.948 83.4701 143.749 82.7247 143.35C81.9794 142.943 81.3944 142.384 80.9697 141.673C80.5451 140.954 80.3327 140.152 80.3327 139.268C80.3327 138.384 80.5451 137.587 80.9697 136.876C81.3944 136.157 81.9794 135.598 82.7247 135.199C83.4701 134.792 84.3064 134.588 85.2337 134.588C86.1611 134.588 86.9974 134.792 87.7427 135.199C88.4881 135.598 89.0731 136.152 89.4977 136.863C89.9224 137.574 90.1347 138.375 90.1347 139.268C90.1347 140.161 89.9224 140.962 89.4977 141.673C89.0731 142.384 88.4881 142.943 87.7427 143.35C86.9974 143.749 86.1611 143.948 85.2337 143.948ZM85.2337 142.466C85.8404 142.466 86.3864 142.332 86.8717 142.063C87.3571 141.786 87.7384 141.404 88.0157 140.919C88.2931 140.425 88.4317 139.875 88.4317 139.268C88.4317 138.661 88.2931 138.115 88.0157 137.63C87.7384 137.136 87.3571 136.755 86.8717 136.486C86.3864 136.209 85.8404 136.07 85.2337 136.07C84.6271 136.07 84.0811 136.209 83.5957 136.486C83.1104 136.755 82.7291 137.136 82.4517 137.63C82.1744 138.115 82.0357 138.661 82.0357 139.268C82.0357 139.875 82.1744 140.425 82.4517 140.919C82.7291 141.404 83.1104 141.786 83.5957 142.063C84.0811 142.332 84.6271 142.466 85.2337 142.466ZM92.6761 134.718H96.6541C97.6248 134.718 98.4871 134.909 99.2411 135.29C99.9951 135.663 100.58 136.196 100.996 136.889C101.412 137.574 101.62 138.367 101.62 139.268C101.62 140.169 101.412 140.967 100.996 141.66C100.58 142.345 99.9951 142.878 99.2411 143.259C98.4871 143.632 97.6248 143.818 96.6541 143.818H92.6761V134.718ZM96.5761 142.388C97.2434 142.388 97.8284 142.262 98.3311 142.011C98.8424 141.751 99.2324 141.387 99.5011 140.919C99.7784 140.442 99.9171 139.892 99.9171 139.268C99.9171 138.644 99.7784 138.098 99.5011 137.63C99.2324 137.153 98.8424 136.789 98.3311 136.538C97.8284 136.278 97.2434 136.148 96.5761 136.148H94.3661V142.388H96.5761ZM110.991 142.401V143.818H104.166V134.718H110.809V136.135H105.856V138.501H110.25V139.892H105.856V142.401H110.991ZM121.711 134.718V143.818H120.32L115.302 137.656V143.818H113.625V134.718H115.016L120.034 140.88V134.718H121.711ZM126.746 136.148H123.73V134.718H131.452V136.148H128.436V143.818H126.746V136.148ZM60.2864 157.818L58.4274 155.153C58.3494 155.162 58.2324 155.166 58.0764 155.166H56.0224V157.818H54.3324V148.718H58.0764C58.865 148.718 59.5497 148.848 60.1304 149.108C60.7197 149.368 61.1704 149.741 61.4824 150.226C61.7944 150.711 61.9504 151.288 61.9504 151.955C61.9504 152.64 61.7814 153.229 61.4434 153.723C61.114 154.217 60.6374 154.585 60.0134 154.828L62.1064 157.818H60.2864ZM60.2474 151.955C60.2474 151.374 60.0567 150.928 59.6754 150.616C59.294 150.304 58.735 150.148 57.9984 150.148H56.0224V153.775H57.9984C58.735 153.775 59.294 153.619 59.6754 153.307C60.0567 152.986 60.2474 152.536 60.2474 151.955ZM71.4161 156.401V157.818H64.5911V148.718H71.2341V150.135H66.2811V152.501H70.6751V153.892H66.2811V156.401H71.4161ZM77.7941 148.718C78.5828 148.718 79.2675 148.848 79.8481 149.108C80.4375 149.368 80.8881 149.741 81.2001 150.226C81.5121 150.711 81.6681 151.288 81.6681 151.955C81.6681 152.614 81.5121 153.19 81.2001 153.684C80.8881 154.169 80.4375 154.542 79.8481 154.802C79.2675 155.062 78.5828 155.192 77.7941 155.192H75.7401V157.818H74.0501V148.718H77.7941ZM77.7161 153.762C78.4528 153.762 79.0118 153.606 79.3931 153.294C79.7745 152.982 79.9651 152.536 79.9651 151.955C79.9651 151.374 79.7745 150.928 79.3931 150.616C79.0118 150.304 78.4528 150.148 77.7161 150.148H75.7401V153.762H77.7161ZM90.9308 156.401V157.818H84.1058V148.718H90.7488V150.135H85.7958V152.501H90.1898V153.892H85.7958V156.401H90.9308ZM93.5648 148.718H95.2548V156.388H100.013V157.818H93.5648V148.718ZM102.097 148.718H103.787V156.388H108.545V157.818H102.097V148.718ZM116.595 155.712H112.045L111.148 157.818H109.406L113.501 148.718H115.165L119.273 157.818H117.505L116.595 155.712ZM116.036 154.386L114.32 150.408L112.617 154.386H116.036ZM129.266 148.718V157.818H127.875L122.857 151.656V157.818H121.18V148.718H122.571L127.589 154.88V148.718H129.266ZM134.3 150.148H131.284V148.718H139.006V150.148H135.99V157.818H134.3V150.148ZM143.757 157.948C143.055 157.948 142.375 157.848 141.716 157.649C141.066 157.45 140.55 157.185 140.169 156.856L140.754 155.543C141.127 155.838 141.582 156.08 142.119 156.271C142.665 156.453 143.211 156.544 143.757 156.544C144.433 156.544 144.936 156.436 145.265 156.219C145.603 156.002 145.772 155.716 145.772 155.361C145.772 155.101 145.677 154.889 145.486 154.724C145.304 154.551 145.07 154.416 144.784 154.321C144.498 154.226 144.108 154.117 143.614 153.996C142.921 153.831 142.357 153.667 141.924 153.502C141.499 153.337 141.131 153.082 140.819 152.735C140.516 152.38 140.364 151.903 140.364 151.305C140.364 150.802 140.498 150.347 140.767 149.94C141.044 149.524 141.456 149.195 142.002 148.952C142.557 148.709 143.233 148.588 144.03 148.588C144.585 148.588 145.131 148.657 145.668 148.796C146.205 148.935 146.669 149.134 147.059 149.394L146.526 150.707C146.127 150.473 145.711 150.295 145.278 150.174C144.845 150.053 144.424 149.992 144.017 149.992C143.35 149.992 142.851 150.105 142.522 150.33C142.201 150.555 142.041 150.854 142.041 151.227C142.041 151.487 142.132 151.699 142.314 151.864C142.505 152.029 142.743 152.159 143.029 152.254C143.315 152.349 143.705 152.458 144.199 152.579C144.875 152.735 145.43 152.9 145.863 153.073C146.296 153.238 146.665 153.493 146.968 153.84C147.28 154.187 147.436 154.655 147.436 155.244C147.436 155.747 147.297 156.202 147.02 156.609C146.751 157.016 146.34 157.341 145.785 157.584C145.23 157.827 144.554 157.948 143.757 157.948Z" fill="white" fill-opacity="0.87"/>
<path d="M140.165 101.818H61.8366C55.8521 101.818 51 96.966 51 90.9815V43.8366C51 37.8506 55.8521 33 61.8366 33H140.165C146.149 33 151 37.8506 151 43.8366V90.9815C151 96.966 146.149 101.818 140.165 101.818Z" stroke="white" stroke-width="0.00112867" stroke-miterlimit="10"/>
<path d="M106.183 55.6417C104.206 51.8006 98.6841 51.9401 96.8333 55.8433C91.9175 66.2145 86.3166 82.89 101.134 82.89C115.576 82.89 112.235 68.5549 107.398 58.1261C107 57.2682 106.592 56.436 106.183 55.6417Z" fill="white"/>
<path d="M105.568 58.2867L96.537 57.9835L92.0199 55.725L89.5264 50.4878L90.7936 49.886L93.081 54.6866L97.0266 56.6587L105.473 56.8937L110.86 55.9827L116.199 50.8744L117.169 51.8884L111.518 57.2954L105.568 58.2867Z" fill="white"/>
<path d="M94.5855 63.5514L85.8376 60.1499L86.3455 58.8417L94.8022 62.1295L108.745 61.1837L119.136 58.575L119.477 59.9362L108.961 62.5661L94.5855 63.5514Z" fill="white"/>
<path d="M92.4662 70.2768L84.6901 67.3619L85.1842 66.0461L92.7012 68.8656L110.4 68.3941L119.634 65.7885L120.015 67.1406L110.524 69.7948L92.4662 70.2768Z" fill="white"/>
<path d="M119.107 75.5309L91.628 74.8139L84.7401 75.0534L84.6901 73.6497L91.6204 73.4117L119.142 74.1272L119.107 75.5309Z" fill="white"/>
<path d="M126.768 95.7888H121.511L74.1978 45.1317H79.4546L126.768 95.7888Z" fill="#221F1F"/>
<defs>
<filter id="filter0_d" x="0" y="0" width="208" height="208" filterUnits="userSpaceOnUse" color-interpolation-filters="sRGB">
<feFlood flood-opacity="0" result="BackgroundImageFix"/>
<feColorMatrix in="SourceAlpha" type="matrix" values="0 0 0 0 0 0 0 0 0 0 0 0 0 0 0 0 0 0 127 0"/>
<feOffset dx="4" dy="4"/>
<feGaussianBlur stdDeviation="2"/>
<feColorMatrix type="matrix" values="0 0 0 0 0 0 0 0 0 0 0 0 0 0 0 0 0 0 0.25 0"/>
<feBlend mode="normal" in2="BackgroundImageFix" result="effect1_dropShadow"/>
<feBlend mode="normal" in="SourceGraphic" in2="effect1_dropShadow" result="shape"/>
</filter>
</defs>
</svg>
