<svg width="208" height="208" viewBox="0 0 208 208" fill="none" xmlns="http://www.w3.org/2000/svg">
<g filter="url(#filter0_d)">
<rect width="200" height="200" rx="8" fill="#121212"/>
<rect width="200" height="200" rx="8" fill="white" fill-opacity="0.08"/>
</g>
<path d="M25.124 175.894H20.574L19.677 178H17.935L22.03 168.9H23.694L27.802 178H26.034L25.124 175.894ZM24.565 174.568L22.849 170.59L21.146 174.568H24.565ZM33.4319 178.13C32.1752 178.13 31.1959 177.779 30.4939 177.077C29.7919 176.366 29.4409 175.352 29.4409 174.035V168.9H31.1309V173.97C31.1309 175.755 31.9022 176.648 33.4449 176.648C34.9789 176.648 35.7459 175.755 35.7459 173.97V168.9H37.4099V174.035C37.4099 175.352 37.0589 176.366 36.3569 177.077C35.6635 177.779 34.6885 178.13 33.4319 178.13ZM42.2076 170.33H39.1916V168.9H46.9136V170.33H43.8976V178H42.2076V170.33ZM53.056 178.13C52.1287 178.13 51.2923 177.931 50.547 177.532C49.8017 177.125 49.2167 176.566 48.792 175.855C48.3673 175.136 48.155 174.334 48.155 173.45C48.155 172.566 48.3673 171.769 48.792 171.058C49.2167 170.339 49.8017 169.78 50.547 169.381C51.2923 168.974 52.1287 168.77 53.056 168.77C53.9833 168.77 54.8197 168.974 55.565 169.381C56.3103 169.78 56.8953 170.334 57.32 171.045C57.7447 171.756 57.957 172.557 57.957 173.45C57.957 174.343 57.7447 175.144 57.32 175.855C56.8953 176.566 56.3103 177.125 55.565 177.532C54.8197 177.931 53.9833 178.13 53.056 178.13ZM53.056 176.648C53.6627 176.648 54.2087 176.514 54.694 176.245C55.1793 175.968 55.5607 175.586 55.838 175.101C56.1153 174.607 56.254 174.057 56.254 173.45C56.254 172.843 56.1153 172.297 55.838 171.812C55.5607 171.318 55.1793 170.937 54.694 170.668C54.2087 170.391 53.6627 170.252 53.056 170.252C52.4493 170.252 51.9033 170.391 51.418 170.668C50.9327 170.937 50.5513 171.318 50.274 171.812C49.9967 172.297 49.858 172.843 49.858 173.45C49.858 174.057 49.9967 174.607 50.274 175.101C50.5513 175.586 50.9327 175.968 51.418 176.245C51.9033 176.514 52.4493 176.648 53.056 176.648ZM68.8574 178L68.8444 171.968L65.8544 176.96H65.1004L62.1104 172.046V178H60.4984V168.9H61.8894L65.5034 174.932L69.0524 168.9H70.4434L70.4564 178H68.8574ZM77.9154 178.13C76.988 178.13 76.1517 177.931 75.4064 177.532C74.661 177.125 74.076 176.566 73.6514 175.855C73.2267 175.136 73.0144 174.334 73.0144 173.45C73.0144 172.566 73.2267 171.769 73.6514 171.058C74.076 170.339 74.661 169.78 75.4064 169.381C76.1517 168.974 76.988 168.77 77.9154 168.77C78.8427 168.77 79.679 168.974 80.4244 169.381C81.1697 169.78 81.7547 170.334 82.1794 171.045C82.604 171.756 82.8164 172.557 82.8164 173.45C82.8164 174.343 82.604 175.144 82.1794 175.855C81.7547 176.566 81.1697 177.125 80.4244 177.532C79.679 177.931 78.8427 178.13 77.9154 178.13ZM77.9154 176.648C78.522 176.648 79.068 176.514 79.5534 176.245C80.0387 175.968 80.4201 175.586 80.6974 175.101C80.9747 174.607 81.1134 174.057 81.1134 173.45C81.1134 172.843 80.9747 172.297 80.6974 171.812C80.4201 171.318 80.0387 170.937 79.5534 170.668C79.068 170.391 78.522 170.252 77.9154 170.252C77.3087 170.252 76.7627 170.391 76.2774 170.668C75.792 170.937 75.4107 171.318 75.1334 171.812C74.856 172.297 74.7174 172.843 74.7174 173.45C74.7174 174.057 74.856 174.607 75.1334 175.101C75.4107 175.586 75.792 175.968 76.2774 176.245C76.7627 176.514 77.3087 176.648 77.9154 176.648ZM87.0768 170.33H84.0608V168.9H91.7828V170.33H88.7668V178H87.0768V170.33ZM97.9251 178.13C96.9978 178.13 96.1615 177.931 95.4161 177.532C94.6708 177.125 94.0858 176.566 93.6611 175.855C93.2365 175.136 93.0241 174.334 93.0241 173.45C93.0241 172.566 93.2365 171.769 93.6611 171.058C94.0858 170.339 94.6708 169.78 95.4161 169.381C96.1615 168.974 96.9978 168.77 97.9251 168.77C98.8525 168.77 99.6888 168.974 100.434 169.381C101.179 169.78 101.764 170.334 102.189 171.045C102.614 171.756 102.826 172.557 102.826 173.45C102.826 174.343 102.614 175.144 102.189 175.855C101.764 176.566 101.179 177.125 100.434 177.532C99.6888 177.931 98.8525 178.13 97.9251 178.13ZM97.9251 176.648C98.5318 176.648 99.0778 176.514 99.5631 176.245C100.048 175.968 100.43 175.586 100.707 175.101C100.984 174.607 101.123 174.057 101.123 173.45C101.123 172.843 100.984 172.297 100.707 171.812C100.43 171.318 100.048 170.937 99.5631 170.668C99.0778 170.391 98.5318 170.252 97.9251 170.252C97.3185 170.252 96.7725 170.391 96.2871 170.668C95.8018 170.937 95.4205 171.318 95.1431 171.812C94.8658 172.297 94.7271 172.843 94.7271 173.45C94.7271 174.057 94.8658 174.607 95.1431 175.101C95.4205 175.586 95.8018 175.968 96.2871 176.245C96.7725 176.514 97.3185 176.648 97.9251 176.648ZM113.454 168.9C114.243 168.9 114.928 169.03 115.508 169.29C116.098 169.55 116.548 169.923 116.86 170.408C117.172 170.893 117.328 171.47 117.328 172.137C117.328 172.796 117.172 173.372 116.86 173.866C116.548 174.351 116.098 174.724 115.508 174.984C114.928 175.244 114.243 175.374 113.454 175.374H111.4V178H109.71V168.9H113.454ZM113.376 173.944C114.113 173.944 114.672 173.788 115.053 173.476C115.435 173.164 115.625 172.718 115.625 172.137C115.625 171.556 115.435 171.11 115.053 170.798C114.672 170.486 114.113 170.33 113.376 170.33H111.4V173.944H113.376ZM125.72 178L123.861 175.335C123.783 175.344 123.666 175.348 123.51 175.348H121.456V178H119.766V168.9H123.51C124.299 168.9 124.983 169.03 125.564 169.29C126.153 169.55 126.604 169.923 126.916 170.408C127.228 170.893 127.384 171.47 127.384 172.137C127.384 172.822 127.215 173.411 126.877 173.905C126.548 174.399 126.071 174.767 125.447 175.01L127.54 178H125.72ZM125.681 172.137C125.681 171.556 125.49 171.11 125.109 170.798C124.728 170.486 124.169 170.33 123.432 170.33H121.456V173.957H123.432C124.169 173.957 124.728 173.801 125.109 173.489C125.49 173.168 125.681 172.718 125.681 172.137ZM136.85 176.583V178H130.025V168.9H136.668V170.317H131.715V172.683H136.109V174.074H131.715V176.583H136.85ZM138.723 173.71H142.298V175.062H138.723V173.71ZM147.612 178.13C146.91 178.13 146.23 178.03 145.571 177.831C144.921 177.632 144.406 177.367 144.024 177.038L144.609 175.725C144.982 176.02 145.437 176.262 145.974 176.453C146.52 176.635 147.066 176.726 147.612 176.726C148.288 176.726 148.791 176.618 149.12 176.401C149.458 176.184 149.627 175.898 149.627 175.543C149.627 175.283 149.532 175.071 149.341 174.906C149.159 174.733 148.925 174.598 148.639 174.503C148.353 174.408 147.963 174.299 147.469 174.178C146.776 174.013 146.213 173.849 145.779 173.684C145.355 173.519 144.986 173.264 144.674 172.917C144.371 172.562 144.219 172.085 144.219 171.487C144.219 170.984 144.354 170.529 144.622 170.122C144.9 169.706 145.311 169.377 145.857 169.134C146.412 168.891 147.088 168.77 147.885 168.77C148.44 168.77 148.986 168.839 149.523 168.978C150.061 169.117 150.524 169.316 150.914 169.576L150.381 170.889C149.983 170.655 149.567 170.477 149.133 170.356C148.7 170.235 148.28 170.174 147.872 170.174C147.205 170.174 146.707 170.287 146.377 170.512C146.057 170.737 145.896 171.036 145.896 171.409C145.896 171.669 145.987 171.881 146.169 172.046C146.36 172.211 146.598 172.341 146.884 172.436C147.17 172.531 147.56 172.64 148.054 172.761C148.73 172.917 149.285 173.082 149.718 173.255C150.152 173.42 150.52 173.675 150.823 174.022C151.135 174.369 151.291 174.837 151.291 175.426C151.291 175.929 151.153 176.384 150.875 176.791C150.607 177.198 150.195 177.523 149.64 177.766C149.086 178.009 148.41 178.13 147.612 178.13ZM159.619 175.894H155.069L154.172 178H152.43L156.525 168.9H158.189L162.297 178H160.529L159.619 175.894ZM159.06 174.568L157.344 170.59L155.641 174.568H159.06ZM164.204 168.9H165.894V176.57H170.652V178H164.204V168.9ZM179.562 176.583V178H172.737V168.9H179.38V170.317H174.427V172.683H178.821V174.074H174.427V176.583H179.562Z" fill="white" fill-opacity="0.87"/>
<path d="M95.5023 39.205C69.1495 39.205 47.7051 60.6439 47.7051 87C47.7051 113.352 69.1495 134.79 95.5023 134.79C121.855 134.79 143.295 113.352 143.295 87C143.295 60.6439 121.855 39.205 95.5023 39.205ZM95.5023 137C67.9315 137 45.5 114.57 45.5 87C45.5 59.4305 67.9315 37 95.5023 37C123.073 37 145.5 59.4305 145.5 87C145.5 114.57 123.073 137 95.5023 137Z" fill="white" fill-opacity="0.87"/>
<path d="M95.5042 43.8052C71.6871 43.8052 52.3075 63.1795 52.3075 86.9955C52.3075 110.811 71.6871 130.186 95.5042 130.186C119.321 130.186 138.696 110.811 138.696 86.9955C138.696 63.1795 119.321 43.8052 95.5042 43.8052ZM95.5042 131.168C71.1483 131.168 51.3294 111.35 51.3294 86.9955C51.3294 62.6361 71.1483 42.8227 95.5042 42.8227C119.86 42.8227 139.679 62.6361 139.679 86.9955C139.679 111.35 119.86 131.168 95.5042 131.168Z" fill="white" fill-opacity="0.87"/>
<path d="M73.481 77.0817C73.2773 77.4529 73.1369 77.7382 73.0871 77.8876C72.9377 78.3268 72.8833 78.5487 72.8335 78.6754C72.58 78.6075 72.2992 78.4989 72.0683 78.5713C71.8464 78.6618 71.8012 78.8792 71.5385 78.9516C71.2216 79.015 70.7597 78.843 70.4518 78.7977C69.7862 78.6845 69.098 78.5985 68.4324 78.4445C67.3638 78.2 66.9925 77.2039 67.0604 76.2078C67.1283 75.2751 68.0792 74.9627 68.8308 74.854C69.5825 74.7227 70.6058 74.3831 71.3121 74.8087C72.34 75.4426 71.9325 77.3669 73.481 77.0817Z" fill="white" fill-opacity="0.87"/>
<path d="M119.95 99.6852C118.682 99.6852 117.469 99.7305 116.232 99.7577C115.721 99.7667 115.218 99.7667 114.706 99.7667C113.638 99.7667 111.387 99.8527 110.423 99.4996C108.829 98.9653 108.417 96.8599 107.982 95.3567C108.096 95.325 108.204 95.3024 108.327 95.2797C108.485 95.2571 108.662 95.2254 108.838 95.1892C108.951 95.1801 109.074 95.1575 109.196 95.1348C109.241 95.1348 109.277 95.1348 109.318 95.1212C109.477 95.0986 109.653 95.076 109.821 95.0579H109.862C110.034 95.0352 110.21 95.0126 110.387 94.9899C110.821 94.9447 111.279 94.8994 111.754 94.8677C111.89 94.8677 112.026 94.8586 112.157 94.845C112.877 94.7907 113.629 94.7454 114.362 94.7228C114.553 94.7092 114.743 94.7002 114.928 94.6866H115.34C115.508 94.682 115.662 94.682 115.829 94.6685H116.219C118.125 94.6368 119.669 94.7092 120.117 94.8677C121.308 95.3114 121.095 96.4026 121.453 97.5617C121.806 99.1555 121.544 99.6852 119.95 99.6852ZM106.203 97.4847C105.632 99.074 103.418 98.8612 103.196 98.8612L87.8602 98.8747C87.6474 98.8747 85.4196 99.0966 84.8536 97.5074C84.265 95.9045 83.3821 93.3328 83.0696 92.0514C82.7391 90.7067 81.6478 88.3885 88.1681 88.5334C91.5324 88.6013 93.9548 88.6013 95.517 88.5786C97.0882 88.6013 99.5106 88.6013 102.875 88.5243C109.386 88.3658 108.304 90.684 107.969 92.0333C107.661 93.3101 106.783 95.891 106.203 97.4847ZM80.6472 99.5222C79.6646 99.8754 77.4142 99.7984 76.3501 99.7984C75.9607 99.7984 75.5713 99.7984 75.191 99.7848C74.2582 99.7803 73.3209 99.7577 72.3746 99.7441C71.949 99.7305 71.5414 99.7305 71.1068 99.7305C69.5129 99.7305 69.2458 99.2007 69.6035 97.607C69.9567 96.4479 69.7348 95.3567 70.9256 94.9084C71.3649 94.7545 72.8093 94.6866 74.6023 94.7002C74.788 94.7002 74.9917 94.7002 75.191 94.7092C75.7796 94.7228 76.4045 94.7319 77.0384 94.7681C77.4142 94.7771 77.7946 94.7998 78.1749 94.8224C78.3198 94.8224 78.4511 94.836 78.5869 94.845C78.7998 94.8586 78.999 94.8767 79.1982 94.8858C79.3975 94.8994 79.5967 94.922 79.8004 94.9356C79.9997 94.9582 80.1898 94.9809 80.38 94.9899C80.6653 95.0126 80.946 95.0488 81.2132 95.076C81.3898 95.0986 81.5663 95.1212 81.7248 95.1439C81.8697 95.1665 82.0056 95.1892 82.1369 95.2027C82.2048 95.2118 82.2682 95.2254 82.327 95.2344C82.4131 95.248 82.4946 95.2661 82.5715 95.2797C82.6032 95.2888 82.6349 95.2888 82.6621 95.2888C82.7164 95.3023 82.7708 95.3114 82.8251 95.325C82.9157 95.3476 82.9926 95.3567 83.0696 95.3793C82.6259 96.8825 82.2365 98.9879 80.6472 99.5222ZM70.1921 84.6395C70.3913 83.7158 70.5951 83.8471 71.5822 83.8381C73.1081 83.8381 74.5797 83.9784 76.1011 84.2501C78.107 84.5716 80.4344 84.5037 82.4131 85.0923C80.1129 89.2216 77.5727 88.5017 74.6476 88.5017C73.0538 88.5017 70.5951 88.5017 70.1921 86.5728C70.0608 86.0386 70.0608 85.2417 70.1921 84.6395ZM79.2435 69.1546L95.517 68.5886L111.754 69.1229C111.754 69.1229 117.622 78.2508 117.179 78.2508C116.753 78.2508 102.096 77.4268 95.5079 77.5671C88.9243 77.4358 74.2582 78.2825 73.8416 78.2825C73.3979 78.2825 79.2435 69.1546 79.2435 69.1546ZM119.438 83.8019C120.439 83.8019 120.638 83.6706 120.837 84.5942C120.973 85.1964 120.973 85.9978 120.837 86.5321C120.439 88.4564 117.989 88.4564 116.386 88.4564C113.457 88.4654 110.921 89.1944 108.621 85.0696C110.6 84.4855 112.936 84.5354 114.928 84.2139C116.445 83.9332 117.912 83.8019 119.438 83.8019ZM123.79 84.4946C123.731 83.5574 121.562 81.5561 120.941 80.9403C120.529 80.5419 119.08 79.3058 118.601 78.9979C118.315 78.8168 118.256 78.8168 118.179 78.6402C118.134 78.5044 118.08 78.2825 117.935 77.8479C117.876 77.6939 117.745 77.4132 117.532 77.0464C116.287 74.7871 112.646 69.1682 112.347 68.8512C111.981 68.498 111.188 67.7872 110.052 67.5834C108.929 67.3978 97.6315 66.8047 95.5079 66.8047C93.3662 66.8047 82.0689 67.4204 80.946 67.6197C79.8095 67.8189 79.0171 68.5207 78.6639 68.8738C78.3605 69.1908 74.7246 74.8233 73.4885 77.0827C73.2756 77.4585 73.1443 77.7347 73.0855 77.8841C72.9451 78.3278 72.8862 78.5497 72.841 78.6719C72.7866 78.7942 72.4968 78.9979 72.3882 79.0477C72.3655 79.0704 72.3519 79.0839 72.3519 79.0839C72.0395 79.2967 70.7717 80.157 70.0925 80.8769C69.0556 81.9681 67.2897 83.6026 67.2399 84.5354C67.1991 85.4726 66.7961 86.1291 66.8958 87.9991C66.932 88.9001 67.1901 91.6394 67.4301 94.2429C67.6791 96.9821 67.9462 99.5766 67.9689 99.7803C68.0096 100.174 67.8783 100.622 68.0549 100.967C68.236 101.32 68.6798 101.424 69.3816 101.415C69.6035 101.415 71.949 101.447 75.191 101.487C82.893 101.578 95.526 101.745 95.526 101.745C95.526 101.745 108.562 101.555 116.232 101.447C119.271 101.401 121.471 101.365 121.675 101.365C122.377 101.365 122.821 101.279 123.011 100.921C123.174 100.577 123.042 100.133 123.088 99.7305C123.124 99.4543 123.577 94.7681 123.88 91.3134C124.011 89.7875 124.111 88.5107 124.147 87.9447C124.233 86.0838 123.835 85.4183 123.79 84.4946Z" fill="white" fill-opacity="0.87"/>
<path d="M75.1888 102.577V105.638C75.1888 105.928 74.9579 106.172 74.6681 106.172L67.9757 106.181C67.6769 106.181 67.4414 105.937 67.4414 105.651V101.939C68.021 102.477 68.8677 102.496 69.3341 102.496C69.3432 102.496 75.1797 102.577 75.1797 102.577H75.1888Z" fill="white" fill-opacity="0.87"/>
<path d="M123.99 101.445V105.62C123.99 105.919 123.755 106.154 123.456 106.154L116.768 106.163C116.478 106.163 116.234 105.919 116.234 105.633V102.559C119.394 102.514 121.631 102.482 121.676 102.482C122.197 102.482 123.415 102.482 123.99 101.445Z" fill="white" fill-opacity="0.87"/>
<path d="M74.5881 97.2455C74.5848 98.3638 73.6802 99.2704 72.5618 99.2762C71.4434 99.2729 70.5323 98.3683 70.5265 97.25C70.5298 96.1271 71.4389 95.2205 72.5618 95.2238C73.6757 95.2226 74.5868 96.1271 74.5881 97.2455Z" fill="white" fill-opacity="0.87"/>
<path d="M122.589 78.3414C121.928 78.4953 121.23 78.5904 120.569 78.6991C120.257 78.7444 119.795 78.9209 119.483 78.853C119.215 78.7896 119.175 78.5678 118.953 78.4772C118.722 78.4048 118.441 78.5134 118.188 78.5814C118.138 78.4546 118.079 78.2372 117.934 77.7935C117.88 77.6441 117.744 77.3634 117.536 76.9876C119.084 77.2728 118.672 75.3485 119.704 74.7101C120.411 74.2845 121.43 74.6241 122.186 74.7554C122.937 74.8641 123.888 75.172 123.956 76.1047C124.02 77.1008 123.653 78.0924 122.589 78.3414Z" fill="white" fill-opacity="0.87"/>
<path d="M78.0733 97.2374C78.0746 98.0388 77.4281 98.6828 76.6312 98.684C75.8343 98.6807 75.1812 98.0433 75.1845 97.2419C75.1833 96.4405 75.8297 95.7966 76.6312 95.7998C77.4281 95.7941 78.0766 96.4405 78.0733 97.2374Z" fill="white" fill-opacity="0.87"/>
<path d="M120.385 97.147C120.39 98.2654 119.484 99.1755 118.356 99.1755C117.243 99.1755 116.332 98.2699 116.328 97.147C116.328 96.0332 117.238 95.1231 118.356 95.1231C119.479 95.1231 120.385 96.0287 120.385 97.147Z" fill="white" fill-opacity="0.87"/>
<path d="M115.53 97.2374C115.53 98.0388 114.883 98.6817 114.086 98.6817C113.289 98.6817 112.642 98.0388 112.642 97.2374C112.642 96.4405 113.285 95.793 114.086 95.793C114.883 95.793 115.53 96.436 115.53 97.2374Z" fill="white" fill-opacity="0.87"/>
<path d="M76.2315 115.242V110.821H77.7726C78.3108 110.821 78.6961 110.912 78.9285 111.096C79.1547 111.273 79.2709 111.573 79.2709 111.995C79.2709 112.472 79.118 112.845 78.8061 113.114C78.5004 113.377 78.0723 113.511 77.5158 113.511H77.1366V115.242H76.2315ZM77.1366 112.906H77.314C77.632 112.906 77.8766 112.833 78.0601 112.686C78.2435 112.539 78.3353 112.337 78.3353 112.087C78.3353 111.646 78.0539 111.426 77.4913 111.426H77.1366V112.906Z" fill="white" fill-opacity="0.87"/>
<path d="M80.5492 115.258V111.98H81.436V112.597C81.6622 112.133 82.0108 111.906 82.4817 111.906C82.5367 111.906 82.5918 111.913 82.6468 111.925V112.708C82.5184 112.665 82.4022 112.64 82.2921 112.64C81.9435 112.64 81.6561 112.818 81.436 113.178V115.258H80.5492Z" fill="white" fill-opacity="0.87"/>
<path d="M86.5689 115.148C86.1469 115.27 85.7494 115.331 85.3764 115.331C84.826 115.331 84.3918 115.178 84.0799 114.866C83.7619 114.554 83.6029 114.132 83.6029 113.594C83.6029 113.087 83.7497 112.677 84.0371 112.371C84.3245 112.059 84.7098 111.906 85.1868 111.906C85.6638 111.906 86.0185 112.053 86.2387 112.359C86.4588 112.659 86.5689 113.142 86.5689 113.796H84.5325C84.5936 114.42 84.9361 114.732 85.566 114.732C85.8595 114.732 86.1959 114.664 86.5689 114.524V115.148ZM84.5202 113.295H85.7005C85.7005 112.738 85.517 112.457 85.1562 112.457C84.7893 112.457 84.5814 112.738 84.5202 113.295Z" fill="white" fill-opacity="0.87"/>
<path d="M90.8151 113.091H88.0876V113.641H90.8151V113.091Z" fill="white" fill-opacity="0.87"/>
<path d="M92.2758 115.217V114.459C92.7528 114.654 93.1564 114.752 93.4989 114.752C93.7312 114.752 93.9208 114.703 94.0554 114.599C94.1899 114.489 94.2633 114.348 94.2633 114.165C94.2633 114.024 94.2205 113.902 94.1349 113.804C94.0492 113.706 93.8841 113.59 93.6456 113.456L93.3521 113.291C92.9546 113.064 92.6733 112.85 92.5082 112.648C92.3491 112.447 92.2635 112.208 92.2635 111.933C92.2635 111.566 92.3981 111.279 92.6672 111.052C92.9362 110.832 93.2909 110.722 93.7312 110.722C94.0798 110.722 94.4773 110.777 94.9176 110.875V111.584C94.4712 111.413 94.1104 111.328 93.8474 111.328C93.6456 111.328 93.4805 111.376 93.3582 111.468C93.2359 111.554 93.1747 111.676 93.1747 111.823C93.1747 111.945 93.2175 112.049 93.3032 112.141C93.3888 112.233 93.5539 112.349 93.7863 112.477L94.1043 112.655C94.5324 112.893 94.8259 113.113 94.9849 113.315C95.15 113.517 95.2295 113.761 95.2295 114.049C95.2295 114.459 95.0766 114.783 94.7709 115.015C94.4651 115.247 94.0492 115.364 93.5111 115.364C93.1564 115.364 92.7467 115.315 92.2758 115.217Z" fill="white" fill-opacity="0.87"/>
<path d="M99.1003 114.903C98.8068 115.19 98.4888 115.331 98.1524 115.331C97.865 115.331 97.6326 115.245 97.4553 115.068C97.2779 114.897 97.1862 114.664 97.1862 114.389C97.1862 114.028 97.333 113.747 97.6204 113.551C97.9078 113.356 98.3237 113.258 98.8618 113.258H99.1003V112.958C99.1003 112.616 98.9046 112.451 98.5194 112.451C98.1708 112.451 97.8283 112.542 97.4736 112.738V112.133C97.8711 111.98 98.2686 111.906 98.66 111.906C99.5223 111.906 99.9504 112.243 99.9504 112.928V114.377C99.9504 114.634 100.03 114.762 100.195 114.762C100.226 114.762 100.262 114.762 100.311 114.75L100.336 115.251C100.146 115.306 99.981 115.331 99.8403 115.331C99.4734 115.331 99.241 115.19 99.137 114.903H99.1003ZM99.1003 114.432V113.765H98.8924C98.3176 113.765 98.0362 113.943 98.0362 114.304C98.0362 114.426 98.0729 114.524 98.1586 114.609C98.2381 114.689 98.342 114.732 98.4643 114.732C98.6723 114.732 98.8863 114.634 99.1003 114.432Z" fill="white" fill-opacity="0.87"/>
<path d="M103.657 110.549H102.77V115.264H103.657V110.549Z" fill="white" fill-opacity="0.87"/>
<path d="M109.105 114.913C108.683 115.035 108.285 115.096 107.912 115.096C107.362 115.096 106.928 114.943 106.616 114.631C106.298 114.32 106.139 113.898 106.139 113.359C106.139 112.852 106.286 112.442 106.573 112.136C106.86 111.825 107.246 111.672 107.723 111.672C108.2 111.672 108.554 111.818 108.775 112.124C108.995 112.424 109.105 112.907 109.105 113.561H107.068C107.129 114.185 107.472 114.497 108.102 114.497C108.395 114.497 108.732 114.43 109.105 114.289V114.913ZM107.056 113.06H108.236C108.236 112.503 108.053 112.222 107.692 112.222C107.325 112.222 107.117 112.503 107.056 113.06Z" fill="white" fill-opacity="0.87"/>
<defs>
<filter id="filter0_d" x="0" y="0" width="208" height="208" filterUnits="userSpaceOnUse" color-interpolation-filters="sRGB">
<feFlood flood-opacity="0" result="BackgroundImageFix"/>
<feColorMatrix in="SourceAlpha" type="matrix" values="0 0 0 0 0 0 0 0 0 0 0 0 0 0 0 0 0 0 127 0"/>
<feOffset dx="4" dy="4"/>
<feGaussianBlur stdDeviation="2"/>
<feColorMatrix type="matrix" values="0 0 0 0 0 0 0 0 0 0 0 0 0 0 0 0 0 0 0.25 0"/>
<feBlend mode="normal" in2="BackgroundImageFix" result="effect1_dropShadow"/>
<feBlend mode="normal" in="SourceGraphic" in2="effect1_dropShadow" result="shape"/>
</filter>
</defs>
</svg>
