<svg width="208" height="208" viewBox="0 0 208 208" fill="none" xmlns="http://www.w3.org/2000/svg">
<g filter="url(#filter0_d)">
<rect width="200" height="200" rx="8" fill="#121212"/>
<rect width="200" height="200" rx="8" fill="white" fill-opacity="0.08"/>
</g>
<path d="M25.043 179.13C24.341 179.13 23.6607 179.03 23.002 178.831C22.352 178.632 21.8363 178.367 21.455 178.038L22.04 176.725C22.4127 177.02 22.8677 177.262 23.405 177.453C23.951 177.635 24.497 177.726 25.043 177.726C25.719 177.726 26.2217 177.618 26.551 177.401C26.889 177.184 27.058 176.898 27.058 176.543C27.058 176.283 26.9627 176.071 26.772 175.906C26.59 175.733 26.356 175.598 26.07 175.503C25.784 175.408 25.394 175.299 24.9 175.178C24.2067 175.013 23.6433 174.849 23.21 174.684C22.7853 174.519 22.417 174.264 22.105 173.917C21.8017 173.562 21.65 173.085 21.65 172.487C21.65 171.984 21.7843 171.529 22.053 171.122C22.3303 170.706 22.742 170.377 23.288 170.134C23.8427 169.891 24.5187 169.77 25.316 169.77C25.8707 169.77 26.4167 169.839 26.954 169.978C27.4913 170.117 27.955 170.316 28.345 170.576L27.812 171.889C27.4133 171.655 26.9973 171.477 26.564 171.356C26.1307 171.235 25.7103 171.174 25.303 171.174C24.6357 171.174 24.1373 171.287 23.808 171.512C23.4873 171.737 23.327 172.036 23.327 172.409C23.327 172.669 23.418 172.881 23.6 173.046C23.7907 173.211 24.029 173.341 24.315 173.436C24.601 173.531 24.991 173.64 25.485 173.761C26.161 173.917 26.7157 174.082 27.149 174.255C27.5823 174.42 27.9507 174.675 28.254 175.022C28.566 175.369 28.722 175.837 28.722 176.426C28.722 176.929 28.5833 177.384 28.306 177.791C28.0373 178.198 27.6257 178.523 27.071 178.766C26.5163 179.009 25.8403 179.13 25.043 179.13ZM32.8668 171.33H29.8508V169.9H37.5728V171.33H34.5568V179H32.8668V171.33ZM46.4161 177.583V179H39.5911V169.9H46.2341V171.317H41.2811V173.683H45.6751V175.074H41.2811V177.583H46.4161ZM54.9521 176.894H50.4021L49.5051 179H47.7631L51.8581 169.9H53.5221L57.6301 179H55.8621L54.9521 176.894ZM54.3931 175.568L52.6771 171.59L50.9741 175.568H54.3931ZM67.8964 179L67.8834 172.968L64.8934 177.96H64.1394L61.1494 173.046V179H59.5374V169.9H60.9284L64.5424 175.932L68.0914 169.9H69.4824L69.4954 179H67.8964ZM83.0002 179L81.1412 176.335C81.0632 176.344 80.9462 176.348 80.7902 176.348H78.7362V179H77.0462V169.9H80.7902C81.5789 169.9 82.2636 170.03 82.8442 170.29C83.4336 170.55 83.8842 170.923 84.1962 171.408C84.5082 171.893 84.6642 172.47 84.6642 173.137C84.6642 173.822 84.4952 174.411 84.1572 174.905C83.8279 175.399 83.3512 175.767 82.7272 176.01L84.8202 179H83.0002ZM82.9612 173.137C82.9612 172.556 82.7706 172.11 82.3892 171.798C82.0079 171.486 81.4489 171.33 80.7122 171.33H78.7362V174.957H80.7122C81.4489 174.957 82.0079 174.801 82.3892 174.489C82.7706 174.168 82.9612 173.718 82.9612 173.137ZM91.556 179.13C90.6287 179.13 89.7923 178.931 89.047 178.532C88.3017 178.125 87.7167 177.566 87.292 176.855C86.8673 176.136 86.655 175.334 86.655 174.45C86.655 173.566 86.8673 172.769 87.292 172.058C87.7167 171.339 88.3017 170.78 89.047 170.381C89.7923 169.974 90.6287 169.77 91.556 169.77C92.4833 169.77 93.3197 169.974 94.065 170.381C94.8103 170.78 95.3953 171.334 95.82 172.045C96.2447 172.756 96.457 173.557 96.457 174.45C96.457 175.343 96.2447 176.144 95.82 176.855C95.3953 177.566 94.8103 178.125 94.065 178.532C93.3197 178.931 92.4833 179.13 91.556 179.13ZM91.556 177.648C92.1627 177.648 92.7087 177.514 93.194 177.245C93.6793 176.968 94.0607 176.586 94.338 176.101C94.6153 175.607 94.754 175.057 94.754 174.45C94.754 173.843 94.6153 173.297 94.338 172.812C94.0607 172.318 93.6793 171.937 93.194 171.668C92.7087 171.391 92.1627 171.252 91.556 171.252C90.9493 171.252 90.4033 171.391 89.918 171.668C89.4327 171.937 89.0513 172.318 88.774 172.812C88.4967 173.297 88.358 173.843 88.358 174.45C88.358 175.057 88.4967 175.607 88.774 176.101C89.0513 176.586 89.4327 176.968 89.918 177.245C90.4033 177.514 90.9493 177.648 91.556 177.648ZM103.249 179.13C102.322 179.13 101.486 178.931 100.74 178.532C99.995 178.125 99.41 177.566 98.9854 176.855C98.5607 176.136 98.3484 175.334 98.3484 174.45C98.3484 173.566 98.5607 172.769 98.9854 172.058C99.41 171.339 99.995 170.78 100.74 170.381C101.486 169.974 102.322 169.77 103.249 169.77C104.177 169.77 105.013 169.974 105.758 170.381C106.504 170.78 107.089 171.334 107.513 172.045C107.938 172.756 108.15 173.557 108.15 174.45C108.15 175.343 107.938 176.144 107.513 176.855C107.089 177.566 106.504 178.125 105.758 178.532C105.013 178.931 104.177 179.13 103.249 179.13ZM103.249 177.648C103.856 177.648 104.402 177.514 104.887 177.245C105.373 176.968 105.754 176.586 106.031 176.101C106.309 175.607 106.447 175.057 106.447 174.45C106.447 173.843 106.309 173.297 106.031 172.812C105.754 172.318 105.373 171.937 104.887 171.668C104.402 171.391 103.856 171.252 103.249 171.252C102.643 171.252 102.097 171.391 101.611 171.668C101.126 171.937 100.745 172.318 100.467 172.812C100.19 173.297 100.051 173.843 100.051 174.45C100.051 175.057 100.19 175.607 100.467 176.101C100.745 176.586 101.126 176.968 101.611 177.245C102.097 177.514 102.643 177.648 103.249 177.648ZM112.382 171.317V174.086H116.776V175.516H112.382V179H110.692V169.9H117.335V171.317H112.382ZM122.852 175.191L121.409 176.673V179H119.719V169.9H121.409V174.567L125.907 169.9H127.805L123.983 173.969L128.039 179H126.063L122.852 175.191ZM129.94 169.9H131.63V177.57H136.388V179H129.94V169.9ZM145.297 177.583V179H138.472V169.9H145.115V171.317H140.162V173.683H144.556V175.074H140.162V177.583H145.297ZM154.756 177.583V179H147.931V169.9H154.574V171.317H149.621V173.683H154.015V175.074H149.621V177.583H154.756ZM165.476 169.9V179H164.085L159.067 172.838V179H157.39V169.9H158.781L163.799 176.062V169.9H165.476Z" fill="white" fill-opacity="0.87"/>
<path d="M99.5023 39.2051C73.1495 39.2051 51.7051 60.645 51.7051 87.0023C51.7051 113.35 73.1495 134.795 99.5023 134.795C125.855 134.795 147.295 113.35 147.295 87.0023C147.295 60.645 125.855 39.2051 99.5023 39.2051ZM99.5023 137C71.9315 137 49.5 114.573 49.5 87.0023C49.5 59.427 71.9315 37 99.5023 37C127.073 37 149.5 59.427 149.5 87.0023C149.5 114.573 127.073 137 99.5023 137Z" fill="white"/>
<path d="M99.4972 43.801C75.6802 43.801 56.3005 63.1761 56.3005 86.9977C56.3005 110.81 75.6802 130.19 99.4972 130.19C123.314 130.19 142.689 110.81 142.689 86.9977C142.689 63.1761 123.314 43.801 99.4972 43.801ZM99.4972 131.168C75.1413 131.168 55.3225 111.354 55.3225 86.9977C55.3225 62.6373 75.1413 42.823 99.4972 42.823C123.853 42.823 143.672 62.6373 143.672 86.9977C143.672 111.354 123.853 131.168 99.4972 131.168Z" fill="white"/>
<path d="M79.2547 53.8416L80.2099 71.561L95.1873 64.7453L80.3813 53.1234L79.2547 53.8416Z" fill="white"/>
<path d="M82.5476 77.1196H114.837V96.3046H82.5476V77.1196Z" fill="white"/>
<path d="M73.9071 99.276L73.6309 98.4021L81.5005 95.9298V77.3879L74.301 74.4673L74.6451 73.6161L78.5392 75.2008C80.8847 76.1517 82.4196 78.4293 82.4196 80.9559V92.0766C82.4196 94.7707 80.6718 97.1524 78.1 97.9584L73.9071 99.276Z" fill="white"/>
<path d="M122.103 99.2225L114.613 96.1797V77.0807L122.813 74.5043L123.085 75.3782L117.398 77.1667C116.284 77.5154 115.528 78.5478 115.528 79.7069V91.7694C115.528 94.0606 116.918 96.1253 119.046 96.9902L122.447 98.3712L122.103 99.2225Z" fill="white"/>
<defs>
<filter id="filter0_d" x="0" y="0" width="208" height="208" filterUnits="userSpaceOnUse" color-interpolation-filters="sRGB">
<feFlood flood-opacity="0" result="BackgroundImageFix"/>
<feColorMatrix in="SourceAlpha" type="matrix" values="0 0 0 0 0 0 0 0 0 0 0 0 0 0 0 0 0 0 127 0"/>
<feOffset dx="4" dy="4"/>
<feGaussianBlur stdDeviation="2"/>
<feColorMatrix type="matrix" values="0 0 0 0 0 0 0 0 0 0 0 0 0 0 0 0 0 0 0.25 0"/>
<feBlend mode="normal" in2="BackgroundImageFix" result="effect1_dropShadow"/>
<feBlend mode="normal" in="SourceGraphic" in2="effect1_dropShadow" result="shape"/>
</filter>
</defs>
</svg>
