<svg width="208" height="208" viewBox="0 0 208 208" fill="none" xmlns="http://www.w3.org/2000/svg">
<g filter="url(#filter0_d)">
<rect width="200" height="200" rx="8" fill="#121212"/>
<rect width="200" height="200" rx="8" fill="white" fill-opacity="0.08"/>
</g>
<path d="M50.542 141.718L46.577 150.818H44.913L40.935 141.718H42.768L45.797 148.738L48.852 141.718H50.542ZM56.4017 150.948C55.4744 150.948 54.638 150.749 53.8927 150.35C53.1474 149.943 52.5624 149.384 52.1377 148.673C51.713 147.954 51.5007 147.152 51.5007 146.268C51.5007 145.384 51.713 144.587 52.1377 143.876C52.5624 143.157 53.1474 142.598 53.8927 142.199C54.638 141.792 55.4744 141.588 56.4017 141.588C57.329 141.588 58.1654 141.792 58.9107 142.199C59.656 142.598 60.241 143.152 60.6657 143.863C61.0904 144.574 61.3027 145.375 61.3027 146.268C61.3027 147.161 61.0904 147.962 60.6657 148.673C60.241 149.384 59.656 149.943 58.9107 150.35C58.1654 150.749 57.329 150.948 56.4017 150.948ZM56.4017 149.466C57.0084 149.466 57.5544 149.332 58.0397 149.063C58.525 148.786 58.9064 148.404 59.1837 147.919C59.461 147.425 59.5997 146.875 59.5997 146.268C59.5997 145.661 59.461 145.115 59.1837 144.63C58.9064 144.136 58.525 143.755 58.0397 143.486C57.5544 143.209 57.0084 143.07 56.4017 143.07C55.795 143.07 55.249 143.209 54.7637 143.486C54.2784 143.755 53.897 144.136 53.6197 144.63C53.3424 145.115 53.2037 145.661 53.2037 146.268C53.2037 146.875 53.3424 147.425 53.6197 147.919C53.897 148.404 54.2784 148.786 54.7637 149.063C55.249 149.332 55.795 149.466 56.4017 149.466ZM63.8441 141.718H65.5341V149.388H70.2921V150.818H63.8441V141.718ZM73.3717 143.148H70.3557V141.718H78.0777V143.148H75.0617V150.818H73.3717V143.148ZM91.2638 149.401V150.818H84.4388V141.718H91.0818V143.135H86.1288V145.501H90.5228V146.892H86.1288V149.401H91.2638ZM99.5292 150.818L97.0592 147.36L94.6152 150.818H92.6912L96.0712 146.177L92.8732 141.718H94.7842L97.1112 144.955L99.4122 141.718H101.245L98.0602 146.112L101.479 150.818H99.5292ZM106.999 141.718C107.788 141.718 108.473 141.848 109.053 142.108C109.643 142.368 110.093 142.741 110.405 143.226C110.717 143.711 110.873 144.288 110.873 144.955C110.873 145.614 110.717 146.19 110.405 146.684C110.093 147.169 109.643 147.542 109.053 147.802C108.473 148.062 107.788 148.192 106.999 148.192H104.945V150.818H103.255V141.718H106.999ZM106.921 146.762C107.658 146.762 108.217 146.606 108.598 146.294C108.98 145.982 109.17 145.536 109.17 144.955C109.17 144.374 108.98 143.928 108.598 143.616C108.217 143.304 107.658 143.148 106.921 143.148H104.945V146.762H106.921ZM119.265 150.818L117.406 148.153C117.328 148.162 117.211 148.166 117.055 148.166H115.001V150.818H113.311V141.718H117.055C117.844 141.718 118.528 141.848 119.109 142.108C119.698 142.368 120.149 142.741 120.461 143.226C120.773 143.711 120.929 144.288 120.929 144.955C120.929 145.64 120.76 146.229 120.422 146.723C120.093 147.217 119.616 147.585 118.992 147.828L121.085 150.818H119.265ZM119.226 144.955C119.226 144.374 119.035 143.928 118.654 143.616C118.273 143.304 117.714 143.148 116.977 143.148H115.001V146.775H116.977C117.714 146.775 118.273 146.619 118.654 146.307C119.035 145.986 119.226 145.536 119.226 144.955ZM130.395 149.401V150.818H123.57V141.718H130.213V143.135H125.26V145.501H129.654V146.892H125.26V149.401H130.395ZM135.85 150.948C135.148 150.948 134.467 150.848 133.809 150.649C133.159 150.45 132.643 150.185 132.262 149.856L132.847 148.543C133.219 148.838 133.674 149.08 134.212 149.271C134.758 149.453 135.304 149.544 135.85 149.544C136.526 149.544 137.028 149.436 137.358 149.219C137.696 149.002 137.865 148.716 137.865 148.361C137.865 148.101 137.769 147.889 137.579 147.724C137.397 147.551 137.163 147.416 136.877 147.321C136.591 147.226 136.201 147.117 135.707 146.996C135.013 146.831 134.45 146.667 134.017 146.502C133.592 146.337 133.224 146.082 132.912 145.735C132.608 145.38 132.457 144.903 132.457 144.305C132.457 143.802 132.591 143.347 132.86 142.94C133.137 142.524 133.549 142.195 134.095 141.952C134.649 141.709 135.325 141.588 136.123 141.588C136.677 141.588 137.223 141.657 137.761 141.796C138.298 141.935 138.762 142.134 139.152 142.394L138.619 143.707C138.22 143.473 137.804 143.295 137.371 143.174C136.937 143.053 136.517 142.992 136.11 142.992C135.442 142.992 134.944 143.105 134.615 143.33C134.294 143.555 134.134 143.854 134.134 144.227C134.134 144.487 134.225 144.699 134.407 144.864C134.597 145.029 134.836 145.159 135.122 145.254C135.408 145.349 135.798 145.458 136.292 145.579C136.968 145.735 137.522 145.9 137.956 146.073C138.389 146.238 138.757 146.493 139.061 146.84C139.373 147.187 139.529 147.655 139.529 148.244C139.529 148.747 139.39 149.202 139.113 149.609C138.844 150.016 138.432 150.341 137.878 150.584C137.323 150.827 136.647 150.948 135.85 150.948ZM144.775 150.948C144.073 150.948 143.393 150.848 142.734 150.649C142.084 150.45 141.569 150.185 141.187 149.856L141.772 148.543C142.145 148.838 142.6 149.08 143.137 149.271C143.683 149.453 144.229 149.544 144.775 149.544C145.451 149.544 145.954 149.436 146.283 149.219C146.621 149.002 146.79 148.716 146.79 148.361C146.79 148.101 146.695 147.889 146.504 147.724C146.322 147.551 146.088 147.416 145.802 147.321C145.516 147.226 145.126 147.117 144.632 146.996C143.939 146.831 143.376 146.667 142.942 146.502C142.518 146.337 142.149 146.082 141.837 145.735C141.534 145.38 141.382 144.903 141.382 144.305C141.382 143.802 141.517 143.347 141.785 142.94C142.063 142.524 142.474 142.195 143.02 141.952C143.575 141.709 144.251 141.588 145.048 141.588C145.603 141.588 146.149 141.657 146.686 141.796C147.224 141.935 147.687 142.134 148.077 142.394L147.544 143.707C147.146 143.473 146.73 143.295 146.296 143.174C145.863 143.053 145.443 142.992 145.035 142.992C144.368 142.992 143.87 143.105 143.54 143.33C143.22 143.555 143.059 143.854 143.059 144.227C143.059 144.487 143.15 144.699 143.332 144.864C143.523 145.029 143.761 145.159 144.047 145.254C144.333 145.349 144.723 145.458 145.217 145.579C145.893 145.735 146.448 145.9 146.881 146.073C147.315 146.238 147.683 146.493 147.986 146.84C148.298 147.187 148.454 147.655 148.454 148.244C148.454 148.747 148.316 149.202 148.038 149.609C147.77 150.016 147.358 150.341 146.803 150.584C146.249 150.827 145.573 150.948 144.775 150.948Z" fill="white" fill-opacity="0.87"/>
<path d="M138.165 101.818H59.8366C53.8521 101.818 49 96.9659 49 90.9815V43.835C49 37.8506 53.8521 33 59.8366 33H138.165C144.149 33 149 37.8506 149 43.835V90.9815C149 96.9659 144.149 101.818 138.165 101.818Z" stroke="white" stroke-width="0.00112867" stroke-miterlimit="10"/>
<path d="M119.623 69.1755H110.027V66.6213H119.623V69.1755ZM97.0209 75.6435L100.287 69.1921H97.0209L103.815 61.3584L101.3 67.2716L104.382 67.1973L97.0209 75.6435ZM90.8575 69.1755H87.3393V72.6922H84.7867V69.1755H81.2594V66.6213H84.7867V63.1046H87.3393V66.6213H90.8575V69.1755ZM76.4603 87.3956H124.34V56.6897H76.4603V87.3956Z" fill="white"/>
<path d="M126.205 51.1156H74.0831V54.7823H126.205V51.1156Z" fill="white"/>
<path d="M86.128 46.6867V49.8623H80.5588V46.6867C80.5588 45.1451 81.8018 43.9021 83.3434 43.9021C84.115 43.9021 84.8017 44.2083 85.3125 44.7191C85.8127 45.2209 86.128 45.9166 86.128 46.6867Z" fill="white"/>
<path d="M119.654 46.6867V49.8623H114.085V46.6867C114.085 45.1451 115.328 43.9021 116.87 43.9021C117.641 43.9021 118.337 44.2083 118.839 44.7191C119.348 45.2209 119.654 45.9166 119.654 46.6867Z" fill="white"/>
<defs>
<filter id="filter0_d" x="0" y="0" width="208" height="208" filterUnits="userSpaceOnUse" color-interpolation-filters="sRGB">
<feFlood flood-opacity="0" result="BackgroundImageFix"/>
<feColorMatrix in="SourceAlpha" type="matrix" values="0 0 0 0 0 0 0 0 0 0 0 0 0 0 0 0 0 0 127 0"/>
<feOffset dx="4" dy="4"/>
<feGaussianBlur stdDeviation="2"/>
<feColorMatrix type="matrix" values="0 0 0 0 0 0 0 0 0 0 0 0 0 0 0 0 0 0 0.25 0"/>
<feBlend mode="normal" in2="BackgroundImageFix" result="effect1_dropShadow"/>
<feBlend mode="normal" in="SourceGraphic" in2="effect1_dropShadow" result="shape"/>
</filter>
</defs>
</svg>
