<svg width="208" height="208" viewBox="0 0 208 208" fill="none" xmlns="http://www.w3.org/2000/svg">
<g filter="url(#filter0_d)">
<rect width="200" height="200" rx="8" fill="#121212"/>
<rect width="200" height="200" rx="8" fill="white" fill-opacity="0.08"/>
</g>
<path d="M180.132 181.141H173.988V185.998C173.988 186.532 173.435 186.969 172.759 186.969C172.083 186.969 171.53 186.532 171.53 185.998V181.141H165.385C164.71 181.141 164.157 180.704 164.157 180.17C164.157 179.636 164.71 179.199 165.385 179.199H171.53V174.342C171.53 173.808 172.083 173.371 172.759 173.371C173.435 173.371 173.988 173.808 173.988 174.342V179.199H180.132C180.808 179.199 181.361 179.636 181.361 180.17C181.361 180.704 180.808 181.141 180.132 181.141Z" fill="#121212"/>
<path d="M180.132 181.141H173.988V185.998C173.988 186.532 173.435 186.969 172.759 186.969C172.083 186.969 171.53 186.532 171.53 185.998V181.141H165.385C164.71 181.141 164.157 180.704 164.157 180.17C164.157 179.636 164.71 179.199 165.385 179.199H171.53V174.342C171.53 173.808 172.083 173.371 172.759 173.371C173.435 173.371 173.988 173.808 173.988 174.342V179.199H180.132C180.808 179.199 181.361 179.636 181.361 180.17C181.361 180.704 180.808 181.141 180.132 181.141Z" fill="white" fill-opacity="0.08"/>
<path d="M56.2329 179.13C55.5309 179.13 54.8506 179.03 54.1919 178.831C53.5419 178.632 53.0263 178.367 52.6449 178.038L53.2299 176.725C53.6026 177.02 54.0576 177.262 54.5949 177.453C55.1409 177.635 55.6869 177.726 56.2329 177.726C56.9089 177.726 57.4116 177.618 57.7409 177.401C58.0789 177.184 58.2479 176.898 58.2479 176.543C58.2479 176.283 58.1526 176.071 57.9619 175.906C57.7799 175.733 57.5459 175.598 57.2599 175.503C56.9739 175.408 56.5839 175.299 56.0899 175.178C55.3966 175.013 54.8333 174.849 54.3999 174.684C53.9753 174.519 53.6069 174.264 53.2949 173.917C52.9916 173.562 52.8399 173.085 52.8399 172.487C52.8399 171.984 52.9743 171.529 53.2429 171.122C53.5203 170.706 53.9319 170.377 54.4779 170.134C55.0326 169.891 55.7086 169.77 56.5059 169.77C57.0606 169.77 57.6066 169.839 58.1439 169.978C58.6813 170.117 59.1449 170.316 59.5349 170.576L59.0019 171.889C58.6033 171.655 58.1873 171.477 57.7539 171.356C57.3206 171.235 56.9003 171.174 56.4929 171.174C55.8256 171.174 55.3273 171.287 54.9979 171.512C54.6773 171.737 54.5169 172.036 54.5169 172.409C54.5169 172.669 54.6079 172.881 54.7899 173.046C54.9806 173.211 55.2189 173.341 55.5049 173.436C55.7909 173.531 56.1809 173.64 56.6749 173.761C57.3509 173.917 57.9056 174.082 58.3389 174.255C58.7723 174.42 59.1406 174.675 59.4439 175.022C59.7559 175.369 59.9119 175.837 59.9119 176.426C59.9119 176.929 59.7733 177.384 59.4959 177.791C59.2273 178.198 58.8156 178.523 58.2609 178.766C57.7063 179.009 57.0303 179.13 56.2329 179.13ZM64.0568 171.33H61.0408V169.9H68.7628V171.33H65.7468V179H64.0568V171.33ZM77.6061 177.583V179H70.7811V169.9H77.4241V171.317H72.4711V173.683H76.8651V175.074H72.4711V177.583H77.6061ZM86.1421 176.894H81.5921L80.6951 179H78.9531L83.0481 169.9H84.7121L88.8201 179H87.0521L86.1421 176.894ZM85.5831 175.568L83.8671 171.59L82.1641 175.568H85.5831ZM99.0864 179L99.0734 172.968L96.0834 177.96H95.3294L92.3394 173.046V179H90.7274V169.9H92.1184L95.7324 175.932L99.2814 169.9H100.672L100.685 179H99.0864ZM108.236 169.9H109.926V177.57H114.684V179H108.236V169.9ZM120.854 179.13C119.927 179.13 119.091 178.931 118.345 178.532C117.6 178.125 117.015 177.566 116.59 176.855C116.166 176.136 115.953 175.334 115.953 174.45C115.953 173.566 116.166 172.769 116.59 172.058C117.015 171.339 117.6 170.78 118.345 170.381C119.091 169.974 119.927 169.77 120.854 169.77C121.782 169.77 122.618 169.974 123.363 170.381C124.109 170.78 124.694 171.334 125.118 172.045C125.543 172.756 125.755 173.557 125.755 174.45C125.755 175.343 125.543 176.144 125.118 176.855C124.694 177.566 124.109 178.125 123.363 178.532C122.618 178.931 121.782 179.13 120.854 179.13ZM120.854 177.648C121.461 177.648 122.007 177.514 122.492 177.245C122.978 176.968 123.359 176.586 123.636 176.101C123.914 175.607 124.052 175.057 124.052 174.45C124.052 173.843 123.914 173.297 123.636 172.812C123.359 172.318 122.978 171.937 122.492 171.668C122.007 171.391 121.461 171.252 120.854 171.252C120.248 171.252 119.702 171.391 119.216 171.668C118.731 171.937 118.35 172.318 118.072 172.812C117.795 173.297 117.656 173.843 117.656 174.45C117.656 175.057 117.795 175.607 118.072 176.101C118.35 176.586 118.731 176.968 119.216 177.245C119.702 177.514 120.248 177.648 120.854 177.648ZM134.511 174.346H136.11V177.973C135.642 178.346 135.096 178.632 134.472 178.831C133.848 179.03 133.206 179.13 132.548 179.13C131.62 179.13 130.784 178.931 130.039 178.532C129.293 178.125 128.708 177.566 128.284 176.855C127.859 176.144 127.647 175.343 127.647 174.45C127.647 173.557 127.859 172.756 128.284 172.045C128.708 171.334 129.293 170.78 130.039 170.381C130.793 169.974 131.638 169.77 132.574 169.77C133.336 169.77 134.03 169.896 134.654 170.147C135.278 170.398 135.802 170.767 136.227 171.252L135.161 172.292C134.467 171.599 133.631 171.252 132.652 171.252C132.01 171.252 131.438 171.386 130.936 171.655C130.442 171.924 130.052 172.301 129.766 172.786C129.488 173.271 129.35 173.826 129.35 174.45C129.35 175.057 129.488 175.603 129.766 176.088C130.052 176.573 130.442 176.955 130.936 177.232C131.438 177.509 132.006 177.648 132.639 177.648C133.349 177.648 133.973 177.492 134.511 177.18V174.346ZM143.34 179.13C142.412 179.13 141.576 178.931 140.831 178.532C140.085 178.125 139.5 177.566 139.076 176.855C138.651 176.136 138.439 175.334 138.439 174.45C138.439 173.566 138.651 172.769 139.076 172.058C139.5 171.339 140.085 170.78 140.831 170.381C141.576 169.974 142.412 169.77 143.34 169.77C144.267 169.77 145.103 169.974 145.849 170.381C146.594 170.78 147.179 171.334 147.604 172.045C148.028 172.756 148.241 173.557 148.241 174.45C148.241 175.343 148.028 176.144 147.604 176.855C147.179 177.566 146.594 178.125 145.849 178.532C145.103 178.931 144.267 179.13 143.34 179.13ZM143.34 177.648C143.946 177.648 144.492 177.514 144.978 177.245C145.463 176.968 145.844 176.586 146.122 176.101C146.399 175.607 146.538 175.057 146.538 174.45C146.538 173.843 146.399 173.297 146.122 172.812C145.844 172.318 145.463 171.937 144.978 171.668C144.492 171.391 143.946 171.252 143.34 171.252C142.733 171.252 142.187 171.391 141.702 171.668C141.216 171.937 140.835 172.318 140.558 172.812C140.28 173.297 140.142 173.843 140.142 174.45C140.142 175.057 140.28 175.607 140.558 176.101C140.835 176.586 141.216 176.968 141.702 177.245C142.187 177.514 142.733 177.648 143.34 177.648Z" fill="white" fill-opacity="0.87"/>
<path d="M98.5 23.2051C72.1461 23.2051 50.7052 44.645 50.7052 71.0022C50.7052 97.3504 72.1461 118.795 98.5 118.795C124.854 118.795 146.295 97.3504 146.295 71.0022C146.295 44.645 124.854 23.2051 98.5 23.2051ZM98.5 121C70.928 121 48.5 98.573 48.5 71.0022C48.5 43.427 70.928 21 98.5 21C126.072 21 148.5 43.427 148.5 71.0022C148.5 98.573 126.072 121 98.5 121Z" fill="white" fill-opacity="0.87"/>
<path d="M98.4995 27.8055C74.6814 27.8055 55.3053 47.1807 55.3053 70.9977C55.3053 94.8148 74.6814 114.194 98.4995 114.194C122.318 114.194 141.694 94.8148 141.694 70.9977C141.694 47.1807 122.318 27.8055 98.4995 27.8055ZM98.4995 115.172C74.1425 115.172 54.3227 95.3536 54.3227 70.9977C54.3227 46.6418 74.1425 26.8229 98.4995 26.8229C122.857 26.8229 142.676 46.6418 142.676 70.9977C142.676 95.3536 122.857 115.172 98.4995 115.172Z" fill="white" fill-opacity="0.87"/>
<path d="M75.3166 43.1817L80.5643 60.1332L93.4294 49.8751L76.2311 42.2161L75.3166 43.1817Z" fill="white" fill-opacity="0.87"/>
<path d="M100.378 79.6283C100.812 79.6283 101.243 79.7596 101.614 80.0268L112.25 87.7515L108.189 75.2634C107.913 74.403 108.207 73.4567 108.931 72.9088L119.586 65.1705H106.45C105.531 65.1705 104.716 64.5774 104.435 63.6989L100.898 52.8228C100.695 52.1889 100.061 52.1843 99.8524 52.8183L96.3159 63.6989C96.0306 64.5774 95.2201 65.1705 94.2963 65.1705H81.1646L91.7877 72.8862C92.5394 73.4476 92.8428 74.3985 92.5575 75.2634L88.5003 87.7515L99.1279 80.0313C99.5037 79.7596 99.9429 79.6283 100.378 79.6283ZM86.0822 93.2077C85.6475 93.2077 85.2128 93.0718 84.837 92.8001C84.0898 92.2613 83.7774 91.3104 84.0581 90.432L89.0482 75.0913L76.0025 65.6143C75.2554 65.0709 74.9429 64.1155 75.2282 63.2416C75.5135 62.3632 76.324 61.7746 77.2478 61.7746H93.3726L96.6238 51.7723C97.1581 50.1151 98.6298 49.0419 100.373 49.0419H100.378C102.116 49.0419 103.588 50.1105 104.131 51.7723L107.378 61.7746H123.503C124.427 61.7746 125.237 62.3632 125.523 63.2416C125.808 64.12 125.491 65.0754 124.744 65.6143L111.703 75.0913L116.688 90.423C116.978 91.2968 116.665 92.2522 115.918 92.7956C115.176 93.3435 114.161 93.339 113.419 92.8001L100.378 83.3231L87.332 92.8001C86.9607 93.0718 86.5215 93.2077 86.0822 93.2077Z" fill="white" fill-opacity="0.87"/>
<defs>
<filter id="filter0_d" x="0" y="0" width="208" height="208" filterUnits="userSpaceOnUse" color-interpolation-filters="sRGB">
<feFlood flood-opacity="0" result="BackgroundImageFix"/>
<feColorMatrix in="SourceAlpha" type="matrix" values="0 0 0 0 0 0 0 0 0 0 0 0 0 0 0 0 0 0 127 0"/>
<feOffset dx="4" dy="4"/>
<feGaussianBlur stdDeviation="2"/>
<feColorMatrix type="matrix" values="0 0 0 0 0 0 0 0 0 0 0 0 0 0 0 0 0 0 0.25 0"/>
<feBlend mode="normal" in2="BackgroundImageFix" result="effect1_dropShadow"/>
<feBlend mode="normal" in="SourceGraphic" in2="effect1_dropShadow" result="shape"/>
</filter>
</defs>
</svg>
