<svg width="208" height="208" viewBox="0 0 208 208" fill="none" xmlns="http://www.w3.org/2000/svg">
<g filter="url(#filter0_d)">
<rect width="200" height="200" rx="8" fill="#121212"/>
<rect width="200" height="200" rx="8" fill="white" fill-opacity="0.08"/>
</g>
<path d="M73.124 165.902H68.574L67.677 168.008H65.935L70.03 158.908H71.694L75.802 168.008H74.034L73.124 165.902ZM72.565 164.576L70.849 160.598L69.146 164.576H72.565ZM85.7953 158.908V168.008H84.4043L79.3863 161.846V168.008H77.7093V158.908H79.1003L84.1183 165.07V158.908H85.7953ZM90.8297 160.338H87.8137V158.908H95.5357V160.338H92.5197V168.008H90.8297V160.338ZM97.554 158.908H99.244V168.008H97.554V158.908ZM106.798 158.908H108.488V166.578H113.246V168.008H106.798V158.908ZM121.296 165.902H116.746L115.849 168.008H114.107L118.202 158.908H119.866L123.974 168.008H122.206L121.296 165.902ZM120.737 164.576L119.021 160.598L117.318 164.576H120.737ZM131.968 163.354H133.567V166.981C133.099 167.353 132.553 167.639 131.929 167.839C131.305 168.038 130.664 168.138 130.005 168.138C129.078 168.138 128.242 167.938 127.496 167.54C126.751 167.132 126.166 166.573 125.741 165.863C125.317 165.152 125.104 164.35 125.104 163.458C125.104 162.565 125.317 161.763 125.741 161.053C126.166 160.342 126.751 159.787 127.496 159.389C128.25 158.981 129.095 158.778 130.031 158.778C130.794 158.778 131.487 158.903 132.111 159.155C132.735 159.406 133.26 159.774 133.684 160.26L132.618 161.3C131.925 160.606 131.089 160.26 130.109 160.26C129.468 160.26 128.896 160.394 128.393 160.663C127.899 160.931 127.509 161.308 127.223 161.794C126.946 162.279 126.807 162.834 126.807 163.458C126.807 164.064 126.946 164.61 127.223 165.096C127.509 165.581 127.899 165.962 128.393 166.24C128.896 166.517 129.464 166.656 130.096 166.656C130.807 166.656 131.431 166.5 131.968 166.188V163.354Z" fill="white" fill-opacity="0.87"/>
<path d="M100.436 81.2842C101.317 80.9942 101.547 80.9279 105.637 80.9492C105.835 80.9492 106.032 80.9492 106.241 80.9604C106.375 80.9492 106.531 80.9604 106.676 80.9717C113.602 81.1979 118.359 83.3004 120.384 84.2067C120.674 84.3354 120.914 84.4342 121.08 84.5092C121.91 84.833 123.167 84.9942 124.091 85.113C124.559 85.1767 125.077 85.2417 125.212 85.2955C125.212 85.308 125.222 85.328 125.222 85.3392C125.244 85.3817 125.254 85.4255 125.275 85.4905C125.337 85.6742 125.43 85.9642 125.504 86.2767C125.524 86.3105 125.534 86.3529 125.545 86.3967L125.586 86.5467C125.607 86.6442 125.627 86.7292 125.659 86.8055L125.794 87.3655C125.794 87.3892 125.794 87.4092 125.804 87.4642L125.815 87.518C125.845 87.593 125.856 87.668 125.866 87.7442C125.866 87.7767 125.866 87.798 125.877 87.8417C125.886 87.918 125.886 87.9717 125.886 88.0142C125.886 88.143 125.897 88.2405 125.939 88.3592C125.95 88.3705 125.95 88.3805 125.95 88.3917C125.991 88.5092 126.064 88.5867 126.126 88.6705L126.137 88.683C126.146 88.7042 126.167 88.7255 126.167 88.7255L126.197 88.7692C126.209 88.7905 126.219 88.823 126.25 88.8555L126.271 88.8992C126.302 88.9529 126.324 89.0067 126.354 89.0817L126.365 89.1242C126.396 89.1892 126.406 89.2542 126.427 89.3192C126.604 90.0079 126.541 91.9492 126.375 92.3817C126.365 92.4042 126.354 92.4242 126.354 92.4242C126.24 92.4567 126.116 92.5442 125.95 92.673C125.897 92.7167 125.845 92.7592 125.762 92.8142C125.752 92.8342 125.731 92.8455 125.7 92.8567C125.679 92.8767 125.67 92.888 125.649 92.9005L125.545 92.9755C125.504 93.008 125.461 93.0292 125.419 93.0617C125.379 93.083 125.337 93.1155 125.306 93.1367C125.222 93.1805 125.15 93.2342 125.056 93.2767L124.86 93.3955C124.661 93.503 124.34 93.6005 123.966 93.698C123.925 93.698 123.882 93.708 123.841 93.7192C123.81 93.7292 123.769 93.7405 123.706 93.753H123.676C123.644 93.7617 123.624 93.7617 123.614 93.773C123.176 93.8692 122.73 93.9355 122.44 93.978C122.492 93.7192 122.512 93.4392 122.512 93.1467C122.512 90.5805 120.509 88.488 118.036 88.488C115.575 88.488 113.572 90.5805 113.572 93.1467C113.572 93.4392 113.592 93.7192 113.644 94.0105L100.436 81.2842ZM113.966 94.2792L113.935 94.1192C113.862 93.7942 113.831 93.4705 113.831 93.1467C113.831 90.7317 115.721 88.758 118.036 88.758C120.362 88.758 122.252 90.7317 122.252 93.1467C122.252 93.493 122.222 93.8067 122.139 94.0967L122.129 94.2692H122.294C122.575 94.2367 123.124 94.1617 123.686 94.0317C123.696 94.0205 123.706 94.0205 123.717 94.0205C123.739 94.0205 123.769 94.0105 123.769 94.0105C123.81 93.9992 123.851 93.9892 123.902 93.978C123.935 93.978 123.966 93.9667 124.017 93.9567C124.414 93.8605 124.766 93.753 124.974 93.633L125.181 93.5142C125.275 93.4705 125.357 93.4167 125.451 93.363C125.482 93.3305 125.524 93.3092 125.566 93.288C125.607 93.2542 125.649 93.223 125.711 93.1805L125.845 93.083C125.877 93.0617 125.919 93.0392 125.929 93.018C125.991 92.9755 126.054 92.9305 126.105 92.888C126.24 92.7917 126.365 92.6942 126.406 92.6942L126.479 92.6842L126.52 92.6405C126.552 92.6092 126.582 92.5442 126.614 92.5017C126.801 92.0042 126.864 90.0079 126.676 89.2654C126.665 89.1892 126.645 89.1242 126.614 89.0392C126.604 89.0167 126.594 88.9955 126.582 88.963C126.561 88.9092 126.541 88.8442 126.51 88.7792C126.5 88.748 126.479 88.7142 126.469 88.7042C126.449 88.683 126.427 88.6505 126.417 88.6292C126.406 88.6167 126.396 88.5967 126.386 88.5742L126.324 88.488C126.261 88.4242 126.219 88.3705 126.197 88.3042L126.177 88.2405C126.157 88.1755 126.146 88.1105 126.146 88.0142C126.146 87.9605 126.146 87.8955 126.137 87.8205C126.137 87.788 126.126 87.7655 126.126 87.7442V87.7117C126.105 87.6255 126.095 87.5392 126.064 87.443C126.064 87.4205 126.064 87.3992 126.054 87.3892L125.907 86.7205C125.877 86.6442 125.856 86.5692 125.835 86.4829L125.794 86.3205C125.782 86.2767 125.762 86.2342 125.752 86.203C125.67 85.8779 125.586 85.598 125.524 85.4042C125.504 85.3392 125.482 85.2855 125.471 85.253C125.461 85.2317 125.451 85.2205 125.451 85.2205L125.44 85.1654C125.379 85.0154 125.171 84.983 124.121 84.843C123.219 84.7255 121.972 84.5629 121.172 84.2492C121.006 84.1854 120.777 84.088 120.487 83.9592C118.441 83.0517 113.665 80.9279 106.697 80.7017C106.552 80.6904 106.396 80.6904 106.241 80.6904C106.042 80.6804 105.835 80.6804 105.637 80.6804C101.505 80.6579 101.266 80.7342 100.354 81.0254L113.966 94.2792ZM107.144 85.1992C107.144 84.1205 107.071 82.9342 106.895 81.4892H107.236C107.341 81.5005 107.425 81.5005 107.496 81.5005C108.4 81.5005 110.394 81.7167 111.775 82.1255C113.064 82.503 115.596 84.0567 115.95 84.498C115.347 84.5942 111.619 84.918 107.144 85.1992ZM111.847 81.8667C110.446 81.4467 108.421 81.2304 107.496 81.2304C107.425 81.2304 107.341 81.2304 107.236 81.2192H106.605L106.625 81.3704C106.811 82.9342 106.895 84.1955 106.884 85.3392V85.4905L107.02 85.4779C111.349 85.2092 115.856 84.843 116.105 84.7355C116.189 84.7017 116.241 84.6392 116.241 84.5404C116.23 84.0229 113.021 82.2117 111.847 81.8667ZM107.144 85.1992C107.144 84.1205 107.071 82.9342 106.895 81.4892H107.236C107.341 81.5005 107.425 81.5005 107.496 81.5005C108.4 81.5005 110.394 81.7167 111.775 82.1255C113.064 82.503 115.596 84.0567 115.95 84.498C115.347 84.5942 111.619 84.918 107.144 85.1992ZM111.847 81.8667C110.446 81.4467 108.421 81.2304 107.496 81.2304C107.425 81.2304 107.341 81.2304 107.236 81.2192H106.605L106.625 81.3704C106.811 82.9342 106.895 84.1955 106.884 85.3392V85.4905L107.02 85.4779C111.349 85.2092 115.856 84.843 116.105 84.7355C116.189 84.7017 116.241 84.6392 116.241 84.5404C116.23 84.0229 113.021 82.2117 111.847 81.8667ZM107.144 85.1992C107.144 84.1205 107.071 82.9342 106.895 81.4892H107.236C107.341 81.5005 107.425 81.5005 107.496 81.5005C108.4 81.5005 110.394 81.7167 111.775 82.1255C113.064 82.503 115.596 84.0567 115.95 84.498C115.347 84.5942 111.619 84.918 107.144 85.1992ZM111.847 81.8667C110.446 81.4467 108.421 81.2304 107.496 81.2304C107.425 81.2304 107.341 81.2304 107.236 81.2192H106.605L106.625 81.3704C106.811 82.9342 106.895 84.1955 106.884 85.3392V85.4905L107.02 85.4779C111.349 85.2092 115.856 84.843 116.105 84.7355C116.189 84.7017 116.241 84.6392 116.241 84.5404C116.23 84.0229 113.021 82.2117 111.847 81.8667ZM107.144 85.1992C107.144 84.1205 107.071 82.9342 106.895 81.4892H107.236C107.341 81.5005 107.425 81.5005 107.496 81.5005C108.4 81.5005 110.394 81.7167 111.775 82.1255C113.064 82.503 115.596 84.0567 115.95 84.498C115.347 84.5942 111.619 84.918 107.144 85.1992ZM111.847 81.8667C110.446 81.4467 108.421 81.2304 107.496 81.2304C107.425 81.2304 107.341 81.2304 107.236 81.2192H106.605L106.625 81.3704C106.811 82.9342 106.895 84.1955 106.884 85.3392V85.4905L107.02 85.4779C111.349 85.2092 115.856 84.843 116.105 84.7355C116.189 84.7017 116.241 84.6392 116.241 84.5404C116.23 84.0229 113.021 82.2117 111.847 81.8667ZM107.144 85.1992C107.144 84.1205 107.071 82.9342 106.895 81.4892H107.236C107.341 81.5005 107.425 81.5005 107.496 81.5005C108.4 81.5005 110.394 81.7167 111.775 82.1255C113.064 82.503 115.596 84.0567 115.95 84.498C115.347 84.5942 111.619 84.918 107.144 85.1992ZM111.847 81.8667C110.446 81.4467 108.421 81.2304 107.496 81.2304C107.425 81.2304 107.341 81.2304 107.236 81.2192H106.605L106.625 81.3704C106.811 82.9342 106.895 84.1955 106.884 85.3392V85.4905L107.02 85.4779C111.349 85.2092 115.856 84.843 116.105 84.7355C116.189 84.7017 116.241 84.6392 116.241 84.5404C116.23 84.0229 113.021 82.2117 111.847 81.8667Z" fill="white"/>
<path d="M105.881 81.5312C105.995 81.5425 106.098 81.5425 106.202 81.5425V81.5312H105.881ZM100.72 85.6187C101.623 85.5862 102.61 85.5425 103.667 85.4787C102.703 85.5212 101.706 85.575 100.72 85.6187Z" fill="white"/>
<path d="M100.761 81.8371C100.813 81.8159 100.864 81.7934 100.917 81.7834C100.999 81.7509 101.072 81.7296 101.134 81.7071C101.177 81.6971 101.207 81.6859 101.228 81.6859C101.301 81.6759 101.394 81.6634 101.498 81.6434C101.737 81.6209 102.038 81.6009 102.359 81.5896C102.878 81.5671 103.523 81.5559 104.292 81.5559C104.842 81.5559 105.403 81.5671 105.891 81.5671H106.212V81.5784C106.389 82.9909 106.462 84.2308 106.462 85.3533C106.047 85.3746 105.652 85.4071 105.257 85.4284C105.059 85.4396 104.842 85.4508 104.634 85.4608C104.313 85.4821 103.991 85.5046 103.678 85.5146C102.619 85.5784 101.633 85.6221 100.731 85.6546C100.522 85.6659 100.324 85.6658 100.117 85.6771L100.761 81.8371ZM106.597 85.6121L106.722 85.6009V85.4709C106.722 85.1159 106.722 84.7484 106.701 84.3609C106.701 84.1234 106.679 83.8871 106.671 83.6284C106.628 82.9484 106.556 82.2159 106.462 81.4271L106.441 81.3084H106.327C105.734 81.2971 105.018 81.2871 104.292 81.2871C102.713 81.2871 101.696 81.3309 101.187 81.4171C101.009 81.4484 100.471 81.6546 99.7432 81.9559" fill="white"/>
<path d="M115.815 91.8175L117.372 92.3513V90.6525C116.74 90.795 116.173 91.2188 115.815 91.8175ZM117.631 92.7113L117.266 92.5988L116.778 92.425L115.432 91.9725L115.507 91.8313C115.923 91.0325 116.662 90.4838 117.483 90.3575L117.631 90.335V92.7113ZM118.467 90.655V92.3475L120.013 91.8175C119.67 91.2288 119.107 90.8063 118.467 90.655ZM118.207 92.7138V90.3338L118.357 90.3587C119.191 90.4975 119.925 91.0487 120.32 91.8325L120.392 91.9738L118.207 92.7138ZM117.913 93.5325C117.703 93.5325 117.525 93.3538 117.525 93.1413C117.525 92.9188 117.7 92.7363 117.913 92.7363C118.128 92.7363 118.302 92.9188 118.302 93.1413C118.302 93.3538 118.125 93.5325 117.913 93.5325ZM115.47 92.8913C115.462 92.9713 115.457 93.0538 115.457 93.1413C115.457 93.76 115.672 94.3463 116.066 94.81L117.038 93.4225L116.535 93.2575L115.47 92.8913ZM116.096 95.2288L115.988 95.1163C115.477 94.5875 115.198 93.885 115.198 93.1413C115.198 92.9813 115.211 92.8288 115.235 92.6888L115.262 92.5363L117.448 93.2738L117.233 93.6063L116.923 94.0288L116.096 95.2288ZM118.8 93.4225L118.82 93.4575L119.771 94.8088C120.163 94.34 120.37 93.7663 120.37 93.1413C120.37 93.0588 120.366 92.9825 120.357 92.9038L118.8 93.4225ZM119.745 95.2288L118.391 93.2738L120.566 92.55L120.591 92.7013C120.617 92.8463 120.63 92.9888 120.63 93.1413C120.63 93.88 120.353 94.5813 119.851 95.115L119.745 95.2288ZM116.946 95.4825C117.541 95.7525 118.242 95.7625 118.88 95.48L117.915 94.09L116.946 95.4825ZM117.913 95.96C117.481 95.96 117.07 95.8575 116.69 95.6538L116.556 95.5813L117.912 93.6313L118.442 94.38L119.272 95.5838L119.135 95.6538C118.748 95.8538 118.326 95.96 117.913 95.96ZM117.913 89.6125C116.047 89.6125 114.528 91.195 114.528 93.1413C114.528 95.0788 116.047 96.6563 117.913 96.6563C119.786 96.6563 121.31 95.0788 121.31 93.1413C121.31 91.195 119.786 89.6125 117.913 89.6125ZM117.913 96.9263C115.903 96.9263 114.27 95.2288 114.27 93.1413C114.27 91.0475 115.903 89.3438 117.913 89.3438C119.928 89.3438 121.57 91.0475 121.57 93.1413C121.57 95.2288 119.928 96.9263 117.913 96.9263Z" fill="white"/>
<path d="M115.517 92.9946C115.51 93.0734 115.505 93.1572 115.505 93.2434C115.505 93.8622 115.72 94.4497 116.115 94.9122L117.087 93.5259L116.584 93.3609L115.517 92.9946ZM116.144 95.3309L116.036 95.2184C115.526 94.6897 115.246 93.9884 115.246 93.2434C115.246 93.0834 115.259 92.9309 115.284 92.7922L115.31 92.6396L117.496 93.3771L117.281 93.7084L116.971 94.1309L116.144 95.3309Z" fill="white"/>
<path d="M115.873 91.9249L117.43 92.4586V90.7599C116.798 90.9024 116.231 91.3261 115.873 91.9249ZM117.689 92.8186L117.324 92.7061L116.836 92.5324L115.49 92.0799L115.565 91.9386C115.981 91.1399 116.72 90.5911 117.541 90.4649L117.689 90.4424V92.8186Z" fill="white"/>
<path d="M116.979 95.5883C117.574 95.8596 118.275 95.8695 118.913 95.5858L117.946 94.197L116.979 95.5883ZM117.945 96.067C117.514 96.067 117.103 95.9646 116.723 95.7608L116.589 95.687L117.944 93.7383L118.474 94.4858L119.304 95.6895L119.168 95.7608C118.78 95.9608 118.359 96.067 117.945 96.067Z" fill="white"/>
<path d="M118.558 90.6416V92.334L120.104 91.804C119.76 91.2153 119.198 90.7928 118.558 90.6416ZM118.298 92.699V90.3203L118.448 90.3453C119.282 90.484 120.015 91.0341 120.41 91.8178L120.483 91.9603L118.298 92.699Z" fill="white"/>
<path d="M118.829 93.5121L118.85 93.5459L119.8 94.8971C120.192 94.4284 120.399 93.8546 120.399 93.2296C120.399 93.1484 120.395 93.0709 120.386 92.9934L118.829 93.5121ZM119.774 95.3184L118.42 93.3634L120.595 92.6396L120.621 92.7909C120.646 92.9359 120.659 93.0784 120.659 93.2296C120.659 93.9696 120.382 94.6709 119.881 95.2046L119.774 95.3184Z" fill="white"/>
<path d="M115.517 92.9946C115.51 93.0734 115.505 93.1572 115.505 93.2434C115.505 93.8622 115.72 94.4497 116.115 94.9122L117.087 93.5259L116.584 93.3609L115.517 92.9946ZM116.144 95.3309L116.036 95.2184C115.526 94.6897 115.246 93.9884 115.246 93.2434C115.246 93.0834 115.259 92.9309 115.284 92.7922L115.31 92.6396L117.496 93.3771L117.281 93.7084L116.971 94.1309L116.144 95.3309Z" fill="white"/>
<path d="M115.873 91.9249L117.43 92.4586V90.7599C116.798 90.9024 116.231 91.3261 115.873 91.9249ZM117.689 92.8186L117.324 92.7061L116.836 92.5324L115.49 92.0799L115.565 91.9386C115.981 91.1399 116.72 90.5911 117.541 90.4649L117.689 90.4424V92.8186Z" fill="white"/>
<path d="M116.979 95.5883C117.574 95.8596 118.275 95.8695 118.913 95.5858L117.946 94.197L116.979 95.5883ZM117.945 96.067C117.514 96.067 117.103 95.9646 116.723 95.7608L116.589 95.687L117.944 93.7383L118.474 94.4858L119.304 95.6895L119.168 95.7608C118.78 95.9608 118.359 96.067 117.945 96.067Z" fill="white"/>
<path d="M118.558 90.6416V92.334L120.104 91.804C119.76 91.2153 119.198 90.7928 118.558 90.6416ZM118.298 92.699V90.3203L118.448 90.3453C119.282 90.484 120.015 91.0341 120.41 91.8178L120.483 91.9603L118.298 92.699Z" fill="white"/>
<path d="M118.829 93.5121L118.85 93.5459L119.8 94.8971C120.192 94.4284 120.399 93.8546 120.399 93.2296C120.399 93.1484 120.395 93.0709 120.386 92.9934L118.829 93.5121ZM119.774 95.3184L118.42 93.3634L120.595 92.6396L120.621 92.7909C120.646 92.9359 120.659 93.0784 120.659 93.2296C120.659 93.9696 120.382 94.6709 119.881 95.2046L119.774 95.3184Z" fill="white"/>
<path d="M125.5 93.3725L129.592 92.5888L132.179 92.03C133.401 91.9913 133.04 93.53 133.04 94.8025V95.61L127.87 95.05L125.716 94.0438L125.5 93.3725Z" fill="white"/>
<path d="M98.7514 78.4375L118.03 98.685L111.136 98.5725L93.1514 77.9912L98.7514 78.4375Z" fill="white"/>
<path d="M81.6744 95.7974C81.7319 95.5586 81.6869 95.3548 81.5381 95.1861C81.3869 95.0148 81.1756 94.9299 80.9044 94.9299H78.7056C78.4356 94.9299 78.1844 95.0148 77.9519 95.1861C77.7206 95.3548 77.5756 95.5586 77.5194 95.7974L77.3894 96.3349H81.5456L81.6744 95.7974ZM80.9556 94.7148C81.2919 94.7148 81.5544 94.8211 81.7431 95.0336C81.9319 95.2449 81.9894 95.4999 81.9169 95.7974L81.3131 98.3236H81.0706L81.4944 96.5498H77.3381L76.9131 98.3236H76.6719L77.2756 95.7974C77.3481 95.4999 77.5281 95.2449 77.8156 95.0336C78.1069 94.8211 78.4194 94.7148 78.7569 94.7148H80.9556Z" fill="white"/>
<path d="M86.0838 94.7148C86.4213 94.7148 86.6826 94.8211 86.8688 95.0336C87.0576 95.2448 87.1176 95.4999 87.0463 95.7974L86.4401 98.3186H86.1988L86.8026 95.7974C86.8601 95.5586 86.8126 95.3549 86.6601 95.1861C86.5126 95.0149 86.3026 94.9299 86.0326 94.9299H83.8326C83.5626 94.9299 83.3113 95.0149 83.0776 95.1861C82.8451 95.3549 82.7013 95.5586 82.6438 95.7974L82.0401 98.3211H81.7988L82.4051 95.7974C82.4763 95.4999 82.6563 95.2448 82.9426 95.0336C83.2351 94.8211 83.5488 94.7148 83.8838 94.7148H86.0838Z" fill="white"/>
<path d="M87.5874 94.7148H91.2236L91.1724 94.9299H89.4761L88.6624 98.3261H88.4199L89.2324 94.9299H87.5361L87.5874 94.7148Z" fill="white"/>
<path d="M91.6983 94.7148H91.9408L91.0733 98.3348H90.832L91.6983 94.7148Z" fill="white"/>
<path d="M91.9424 97.7386C91.9162 97.8411 91.9374 97.9286 92.0024 98.0024C92.0687 98.0749 92.1587 98.1111 92.2737 98.1111H95.0349L94.9837 98.3261H92.2224C92.0412 98.3261 91.8987 98.2686 91.7962 98.1536C91.6962 98.0386 91.6637 97.9011 91.7024 97.7386L92.4274 94.7148H92.6662L91.9424 97.7386Z" fill="white"/>
<path d="M100.352 95.7974C100.41 95.5586 100.364 95.3548 100.216 95.1861C100.064 95.0148 99.8524 94.9299 99.5824 94.9299H97.3824C97.1124 94.9299 96.8611 95.0148 96.6286 95.1861C96.3974 95.3548 96.2536 95.5586 96.1961 95.7974L96.0674 96.3349H100.224L100.352 95.7974ZM99.6336 94.7148C99.9699 94.7148 100.232 94.8211 100.421 95.0336C100.609 95.2449 100.667 95.4999 100.594 95.7974L99.9899 98.3236H99.7474L100.172 96.5498H96.0161L95.5911 98.3236H95.3486L95.9524 95.7974C96.0261 95.4999 96.2061 95.2449 96.4924 95.0336C96.7836 94.8211 97.0974 94.7148 97.4336 94.7148H99.6336Z" fill="white"/>
<path d="M105.494 94.9299H102.401C102.133 94.9299 101.88 95.0148 101.649 95.1861C101.414 95.3548 101.269 95.5586 101.213 95.7974L100.868 97.2411C100.81 97.4799 100.858 97.6836 101.01 97.8524C101.16 98.0236 101.37 98.1086 101.64 98.1086H103.84C104.11 98.1086 104.361 98.0236 104.593 97.8524C104.825 97.6836 104.969 97.4799 105.026 97.2411L105.189 96.5624H103.08L103.131 96.3473H105.483L105.268 97.2411C105.196 97.5386 105.015 97.7936 104.726 98.0049C104.438 98.2174 104.124 98.3236 103.789 98.3236H101.589C101.251 98.3236 100.989 98.2174 100.801 98.0049C100.614 97.7936 100.555 97.5386 100.628 97.2411L100.973 95.7974C101.044 95.4999 101.225 95.2449 101.511 95.0336C101.803 94.8211 102.116 94.7148 102.453 94.7148H105.545L105.494 94.9299Z" fill="white"/>
<defs>
<filter id="filter0_d" x="0" y="0" width="208" height="208" filterUnits="userSpaceOnUse" color-interpolation-filters="sRGB">
<feFlood flood-opacity="0" result="BackgroundImageFix"/>
<feColorMatrix in="SourceAlpha" type="matrix" values="0 0 0 0 0 0 0 0 0 0 0 0 0 0 0 0 0 0 127 0"/>
<feOffset dx="4" dy="4"/>
<feGaussianBlur stdDeviation="2"/>
<feColorMatrix type="matrix" values="0 0 0 0 0 0 0 0 0 0 0 0 0 0 0 0 0 0 0.25 0"/>
<feBlend mode="normal" in2="BackgroundImageFix" result="effect1_dropShadow"/>
<feBlend mode="normal" in="SourceGraphic" in2="effect1_dropShadow" result="shape"/>
</filter>
</defs>
</svg>
