<svg width="208" height="209" viewBox="0 0 208 209" fill="none" xmlns="http://www.w3.org/2000/svg">
<g filter="url(#filter0_d)">
<rect y="0.308594" width="200" height="200" rx="8" fill="#121212"/>
<rect y="0.308594" width="200" height="200" rx="8" fill="white" fill-opacity="0.08"/>
</g>
<path d="M57.2315 177.311C56.5295 177.311 55.8491 177.211 55.1905 177.012C54.5405 176.813 54.0248 176.548 53.6435 176.219L54.2285 174.906C54.6011 175.201 55.0561 175.443 55.5935 175.634C56.1395 175.816 56.6855 175.907 57.2315 175.907C57.9075 175.907 58.4101 175.799 58.7395 175.582C59.0775 175.365 59.2465 175.079 59.2465 174.724C59.2465 174.464 59.1511 174.252 58.9605 174.087C58.7785 173.914 58.5445 173.779 58.2585 173.684C57.9725 173.589 57.5825 173.48 57.0885 173.359C56.3951 173.194 55.8318 173.03 55.3985 172.865C54.9738 172.7 54.6055 172.445 54.2935 172.098C53.9901 171.743 53.8385 171.266 53.8385 170.668C53.8385 170.165 53.9728 169.71 54.2415 169.303C54.5188 168.887 54.9305 168.558 55.4765 168.315C56.0311 168.072 56.7071 167.951 57.5045 167.951C58.0591 167.951 58.6051 168.02 59.1425 168.159C59.6798 168.298 60.1435 168.497 60.5335 168.757L60.0005 170.07C59.6018 169.836 59.1858 169.658 58.7525 169.537C58.3191 169.416 57.8988 169.355 57.4915 169.355C56.8241 169.355 56.3258 169.468 55.9965 169.693C55.6758 169.918 55.5155 170.217 55.5155 170.59C55.5155 170.85 55.6065 171.062 55.7885 171.227C55.9791 171.392 56.2175 171.522 56.5035 171.617C56.7895 171.712 57.1795 171.821 57.6735 171.942C58.3495 172.098 58.9041 172.263 59.3375 172.436C59.7708 172.601 60.1391 172.856 60.4425 173.203C60.7545 173.55 60.9105 174.018 60.9105 174.607C60.9105 175.11 60.7718 175.565 60.4945 175.972C60.2258 176.379 59.8141 176.704 59.2595 176.947C58.7048 177.19 58.0288 177.311 57.2315 177.311ZM65.0553 169.511H62.0393V168.081H69.7613V169.511H66.7453V177.181H65.0553V169.511ZM78.6046 175.764V177.181H71.7796V168.081H78.4226V169.498H73.4696V171.864H77.8636V173.255H73.4696V175.764H78.6046ZM87.1406 175.075H82.5906L81.6936 177.181H79.9516L84.0466 168.081H85.7106L89.8186 177.181H88.0506L87.1406 175.075ZM86.5816 173.749L84.8656 169.771L83.1626 173.749H86.5816ZM100.085 177.181L100.072 171.149L97.0819 176.141H96.3279L93.3379 171.227V177.181H91.7259V168.081H93.1169L96.7309 174.113L100.28 168.081H101.671L101.684 177.181H100.085ZM117.594 177.181L117.581 171.149L114.591 176.141H113.837L110.847 171.227V177.181H109.235V168.081H110.626L114.24 174.113L117.789 168.081H119.18L119.193 177.181H117.594ZM128.303 175.075H123.753L122.856 177.181H121.114L125.209 168.081H126.873L130.981 177.181H129.213L128.303 175.075ZM127.744 173.749L126.028 169.771L124.325 173.749H127.744ZM134.277 169.511H131.261V168.081H138.983V169.511H135.967V177.181H134.277V169.511Z" fill="white" fill-opacity="0.87"/>
<path d="M99.5023 29.3863C73.1495 29.3863 51.7051 50.8216 51.7051 77.1789C51.7051 103.532 73.1495 124.972 99.5023 124.972C125.855 124.972 147.295 103.532 147.295 77.1789C147.295 50.8216 125.855 29.3863 99.5023 29.3863ZM99.5023 127.181C71.9315 127.181 49.5 104.75 49.5 77.1789C49.5 49.6081 71.9315 27.1812 99.5023 27.1812C127.073 27.1812 149.5 49.6081 149.5 77.1789C149.5 104.75 127.073 127.181 99.5023 127.181Z" fill="white" fill-opacity="0.87"/>
<path d="M99.5041 33.9803C75.687 33.9803 56.3074 53.3555 56.3074 77.1725C56.3074 100.994 75.687 120.369 99.5041 120.369C123.321 120.369 142.696 100.994 142.696 77.1725C142.696 53.3555 123.321 33.9803 99.5041 33.9803ZM99.5041 121.347C75.1482 121.347 55.3293 101.533 55.3293 77.1725C55.3293 52.8166 75.1482 32.9977 99.5041 32.9977C123.86 32.9977 143.679 52.8166 143.679 77.1725C143.679 101.533 123.86 121.347 99.5041 121.347Z" fill="white" fill-opacity="0.87"/>
<path d="M74.9309 46.3191L75.8864 64.0384L90.8637 57.2225L76.0533 45.6056L74.9309 46.3191Z" fill="white" fill-opacity="0.87"/>
<path d="M88.1757 77.2693L90.4658 80.1975L92.7626 77.2689L90.4669 74.3335L88.1757 77.2693Z" fill="white" fill-opacity="0.87"/>
<path d="M102.276 89.4337L99.983 86.5018L97.6863 89.4305L99.9827 92.3595L102.276 89.4337Z" fill="white" fill-opacity="0.87"/>
<path d="M106.226 67.5445L107.548 65.851H104.904L106.226 67.5445Z" fill="white" fill-opacity="0.87"/>
<path d="M90.4707 87.6936L92.3805 85.2497L90.4645 82.8041L88.5546 85.248L90.4707 87.6936Z" fill="white" fill-opacity="0.87"/>
<path d="M98.9633 85.1962L96.7078 82.3156L94.4183 85.2527L96.6683 88.1261L98.9633 85.1962Z" fill="white" fill-opacity="0.87"/>
<path d="M111.794 77.2695L109.498 74.3346L107.207 77.2708L109.498 80.1986L111.794 77.2695Z" fill="white" fill-opacity="0.87"/>
<path d="M105.551 85.2539L103.255 82.3243L101.003 85.199L103.295 88.1314L105.551 85.2539Z" fill="white" fill-opacity="0.87"/>
<path d="M109.592 65.8537L107.245 68.8527L109.497 71.7357L114.098 65.8554L109.592 65.8537Z" fill="white" fill-opacity="0.87"/>
<path d="M108.479 81.5038L106.188 78.5702L104.271 81.0151L106.569 83.943L108.479 81.5038Z" fill="white" fill-opacity="0.87"/>
<path d="M95.6521 89.4332L93.4022 86.554L91.4888 89.0031L93.7388 91.8823L95.6521 89.4332Z" fill="white" fill-opacity="0.87"/>
<path d="M102.233 81.0146L99.9828 78.1354L97.7294 81.0169L99.9793 83.8961L102.233 81.0146Z" fill="white" fill-opacity="0.87"/>
<path d="M91.4868 73.0259L93.7831 75.9609L96.0341 73.0843L93.7414 70.1466L91.4868 73.0259Z" fill="white" fill-opacity="0.87"/>
<path d="M105.167 77.2657L102.916 74.3812L101.005 76.8261L103.256 79.7042L105.167 77.2657Z" fill="white" fill-opacity="0.87"/>
<path d="M98.9665 76.8298L97.0538 74.3823L94.8032 77.2675L96.7103 79.7078L98.9665 76.8298Z" fill="white" fill-opacity="0.87"/>
<path d="M91.4855 81.5033L93.3975 83.9454L95.6927 81.0156L93.7814 78.5671L91.4855 81.5033Z" fill="white" fill-opacity="0.87"/>
<path d="M94.761 68.8453L97.0539 71.7772L98.9655 69.3337L96.6726 66.4019L94.761 68.8453Z" fill="white" fill-opacity="0.87"/>
<path d="M108.483 73.0308L106.23 70.148L103.94 73.0864L106.19 75.9656L108.483 73.0308Z" fill="white" fill-opacity="0.87"/>
<path d="M98.0676 73.0888L99.9797 75.531L101.889 73.0929L99.9779 70.6443L98.0676 73.0888Z" fill="white" fill-opacity="0.87"/>
<path d="M101.006 69.3366L102.916 71.7805L105.207 68.852L103.295 66.4045L101.006 69.3366Z" fill="white" fill-opacity="0.87"/>
<path d="M115.741 82.321L113.445 85.2506L119.721 93.2787H117.683L112.426 86.5592L110.515 89.0043L113.857 93.2787H111.819L109.496 90.3083L107.246 93.1836L107.319 93.2787H107.169L106.694 93.8899H120.572C121.835 93.8899 123.008 93.5141 124.013 92.8983L115.741 82.321Z" fill="white" fill-opacity="0.87"/>
<path d="M111.409 85.2481L109.499 82.8042L107.583 85.2498L109.493 87.6937L111.409 85.2481Z" fill="white" fill-opacity="0.87"/>
<path d="M114.722 81.0161L112.812 78.5722L110.517 81.5036L112.431 83.9447L114.722 81.0161Z" fill="white" fill-opacity="0.87"/>
<path d="M125.141 67.6944C124.406 66.994 123.504 66.4757 122.511 66.1716L113.831 77.2707L115.745 79.7075L125.141 67.6944Z" fill="white" fill-opacity="0.87"/>
<path d="M106.564 86.5522L104.312 89.4293L106.225 91.8767L108.478 88.9996L106.564 86.5522Z" fill="white" fill-opacity="0.87"/>
<path d="M105.212 93.1827L103.302 90.7388L100.835 93.8845L104.658 93.8857L105.212 93.1827Z" fill="white" fill-opacity="0.87"/>
<path d="M86.5152 85.2506L84.224 82.321L75.6164 93.3239C76.4269 93.6817 77.3189 93.8854 78.2652 93.8854H79.764L86.5152 85.2506Z" fill="white" fill-opacity="0.87"/>
<path d="M116.76 81.0124L125.282 91.9112C126.468 90.7158 127.197 89.0721 127.197 87.2564V72.4726C127.197 71.1822 126.812 69.9868 126.179 68.9725L116.76 81.0124Z" fill="white" fill-opacity="0.87"/>
<path d="M74.233 92.4809L83.2029 81.0116L73.2097 68.2382C72.2452 69.3838 71.6385 70.8554 71.6385 72.4719V87.2557C71.6385 89.3883 72.6663 91.2674 74.233 92.4809Z" fill="white" fill-opacity="0.87"/>
<path d="M110.518 73.0279L112.809 75.962L120.706 65.8646C120.661 65.8646 120.62 65.851 120.574 65.851H116.133L110.518 73.0279Z" fill="white" fill-opacity="0.87"/>
<path d="M92.7205 93.1828L90.4678 90.3058L87.6646 93.8867L92.1672 93.8863L92.7205 93.1828Z" fill="white" fill-opacity="0.87"/>
<path d="M90.4707 71.7295L92.7262 68.849L90.3747 65.8517L85.872 65.8513L90.4707 71.7295Z" fill="white" fill-opacity="0.87"/>
<path d="M87.1575 75.9672L89.451 73.03L83.8391 65.8558L79.2451 65.8534L87.1575 75.9672Z" fill="white" fill-opacity="0.87"/>
<path d="M99.271 93.2747H98.6552L96.6674 90.7345L94.7566 93.1796L94.8336 93.2747H94.6841L94.2087 93.886H98.7955L99.271 93.2747Z" fill="white" fill-opacity="0.87"/>
<path d="M84.2272 79.7116L86.1365 77.2729L77.2846 65.949C76.2106 66.1088 75.2284 66.5187 74.3869 67.1307L84.2272 79.7116Z" fill="white" fill-opacity="0.87"/>
<path d="M93.7421 67.5445L95.0643 65.851H92.42L93.7421 67.5445Z" fill="white" fill-opacity="0.87"/>
<path d="M101.688 65.851H98.2738L99.9808 68.029L101.688 65.851Z" fill="white" fill-opacity="0.87"/>
<path d="M89.4489 81.5038L87.1582 78.5702L85.2411 81.0151L87.539 83.943L89.4489 81.5038Z" fill="white" fill-opacity="0.87"/>
<path d="M85.623 93.8891L89.445 89.003L87.5363 86.5558L81.8007 93.8885L85.623 93.8891Z" fill="white" fill-opacity="0.87"/>
<defs>
<filter id="filter0_d" x="0" y="0.308594" width="208" height="208" filterUnits="userSpaceOnUse" color-interpolation-filters="sRGB">
<feFlood flood-opacity="0" result="BackgroundImageFix"/>
<feColorMatrix in="SourceAlpha" type="matrix" values="0 0 0 0 0 0 0 0 0 0 0 0 0 0 0 0 0 0 127 0"/>
<feOffset dx="4" dy="4"/>
<feGaussianBlur stdDeviation="2"/>
<feColorMatrix type="matrix" values="0 0 0 0 0 0 0 0 0 0 0 0 0 0 0 0 0 0 0.25 0"/>
<feBlend mode="normal" in2="BackgroundImageFix" result="effect1_dropShadow"/>
<feBlend mode="normal" in="SourceGraphic" in2="effect1_dropShadow" result="shape"/>
</filter>
</defs>
</svg>
