<svg width="208" height="208" viewBox="0 0 208 208" fill="none" xmlns="http://www.w3.org/2000/svg">
<g filter="url(#filter0_d)">
<rect width="200" height="200" rx="8" fill="#121212"/>
<rect width="200" height="200" rx="8" fill="white" fill-opacity="0.08"/>
</g>
<path d="M52.043 155.13C51.341 155.13 50.6607 155.03 50.002 154.831C49.352 154.632 48.8363 154.367 48.455 154.038L49.04 152.725C49.4127 153.02 49.8677 153.262 50.405 153.453C50.951 153.635 51.497 153.726 52.043 153.726C52.719 153.726 53.2217 153.618 53.551 153.401C53.889 153.184 54.058 152.898 54.058 152.543C54.058 152.283 53.9627 152.071 53.772 151.906C53.59 151.733 53.356 151.598 53.07 151.503C52.784 151.408 52.394 151.299 51.9 151.178C51.2067 151.013 50.6433 150.849 50.21 150.684C49.7853 150.519 49.417 150.264 49.105 149.917C48.8017 149.562 48.65 149.085 48.65 148.487C48.65 147.984 48.7843 147.529 49.053 147.122C49.3303 146.706 49.742 146.377 50.288 146.134C50.8427 145.891 51.5187 145.77 52.316 145.77C52.8707 145.77 53.4167 145.839 53.954 145.978C54.4913 146.117 54.955 146.316 55.345 146.576L54.812 147.889C54.4133 147.655 53.9973 147.477 53.564 147.356C53.1307 147.235 52.7103 147.174 52.303 147.174C51.6357 147.174 51.1373 147.287 50.808 147.512C50.4873 147.737 50.327 148.036 50.327 148.409C50.327 148.669 50.418 148.881 50.6 149.046C50.7907 149.211 51.029 149.341 51.315 149.436C51.601 149.531 51.991 149.64 52.485 149.761C53.161 149.917 53.7157 150.082 54.149 150.255C54.5823 150.42 54.9507 150.675 55.254 151.022C55.566 151.369 55.722 151.837 55.722 152.426C55.722 152.929 55.5833 153.384 55.306 153.791C55.0373 154.198 54.6257 154.523 54.071 154.766C53.5163 155.009 52.8403 155.13 52.043 155.13ZM59.8668 147.33H56.8508V145.9H64.5728V147.33H61.5568V155H59.8668V147.33ZM72.0361 152.894H67.4861L66.5891 155H64.8471L68.9421 145.9H70.6061L74.7141 155H72.9461L72.0361 152.894ZM71.4771 151.568L69.7611 147.59L68.0581 151.568H71.4771ZM82.7085 150.346H84.3075V153.973C83.8395 154.346 83.2935 154.632 82.6695 154.831C82.0455 155.03 81.4041 155.13 80.7455 155.13C79.8181 155.13 78.9818 154.931 78.2365 154.532C77.4911 154.125 76.9061 153.566 76.4815 152.855C76.0568 152.144 75.8445 151.343 75.8445 150.45C75.8445 149.557 76.0568 148.756 76.4815 148.045C76.9061 147.334 77.4911 146.78 78.2365 146.381C78.9905 145.974 79.8355 145.77 80.7715 145.77C81.5341 145.77 82.2275 145.896 82.8515 146.147C83.4755 146.398 83.9998 146.767 84.4245 147.252L83.3585 148.292C82.6651 147.599 81.8288 147.252 80.8495 147.252C80.2081 147.252 79.6361 147.386 79.1335 147.655C78.6395 147.924 78.2495 148.301 77.9635 148.786C77.6861 149.271 77.5475 149.826 77.5475 150.45C77.5475 151.057 77.6861 151.603 77.9635 152.088C78.2495 152.573 78.6395 152.955 79.1335 153.232C79.6361 153.509 80.2038 153.648 80.8365 153.648C81.5471 153.648 82.1711 153.492 82.7085 153.18V150.346ZM94.1115 153.583V155H87.2865V145.9H93.9295V147.317H88.9765V149.683H93.3705V151.074H88.9765V153.583H94.1115ZM107.042 155L105.183 152.335C105.105 152.344 104.988 152.348 104.832 152.348H102.778V155H101.088V145.9H104.832C105.621 145.9 106.306 146.03 106.886 146.29C107.476 146.55 107.926 146.923 108.238 147.408C108.55 147.893 108.706 148.47 108.706 149.137C108.706 149.822 108.537 150.411 108.199 150.905C107.87 151.399 107.393 151.767 106.769 152.01L108.862 155H107.042ZM107.003 149.137C107.003 148.556 106.813 148.11 106.431 147.798C106.05 147.486 105.491 147.33 104.754 147.33H102.778V150.957H104.754C105.491 150.957 106.05 150.801 106.431 150.489C106.813 150.168 107.003 149.718 107.003 149.137ZM118.172 153.583V155H111.347V145.9H117.99V147.317H113.037V149.683H117.431V151.074H113.037V153.583H118.172ZM129.165 155L129.152 148.968L126.162 153.96H125.408L122.418 149.046V155H120.806V145.9H122.197L125.811 151.932L129.36 145.9H130.751L130.764 155H129.165ZM139.874 152.894H135.324L134.427 155H132.685L136.78 145.9H138.444L142.552 155H140.784L139.874 152.894ZM139.315 151.568L137.599 147.59L135.896 151.568H139.315ZM148.203 145.9C148.992 145.9 149.677 146.03 150.257 146.29C150.847 146.55 151.297 146.923 151.609 147.408C151.921 147.893 152.077 148.47 152.077 149.137C152.077 149.796 151.921 150.372 151.609 150.866C151.297 151.351 150.847 151.724 150.257 151.984C149.677 152.244 148.992 152.374 148.203 152.374H146.149V155H144.459V145.9H148.203ZM148.125 150.944C148.862 150.944 149.421 150.788 149.802 150.476C150.184 150.164 150.374 149.718 150.374 149.137C150.374 148.556 150.184 148.11 149.802 147.798C149.421 147.486 148.862 147.33 148.125 147.33H146.149V150.944H148.125ZM157.463 155.13C156.761 155.13 156.081 155.03 155.422 154.831C154.772 154.632 154.256 154.367 153.875 154.038L154.46 152.725C154.833 153.02 155.288 153.262 155.825 153.453C156.371 153.635 156.917 153.726 157.463 153.726C158.139 153.726 158.642 153.618 158.971 153.401C159.309 153.184 159.478 152.898 159.478 152.543C159.478 152.283 159.383 152.071 159.192 151.906C159.01 151.733 158.776 151.598 158.49 151.503C158.204 151.408 157.814 151.299 157.32 151.178C156.627 151.013 156.063 150.849 155.63 150.684C155.205 150.519 154.837 150.264 154.525 149.917C154.222 149.562 154.07 149.085 154.07 148.487C154.07 147.984 154.204 147.529 154.473 147.122C154.75 146.706 155.162 146.377 155.708 146.134C156.263 145.891 156.939 145.77 157.736 145.77C158.291 145.77 158.837 145.839 159.374 145.978C159.911 146.117 160.375 146.316 160.765 146.576L160.232 147.889C159.833 147.655 159.417 147.477 158.984 147.356C158.551 147.235 158.13 147.174 157.723 147.174C157.056 147.174 156.557 147.287 156.228 147.512C155.907 147.737 155.747 148.036 155.747 148.409C155.747 148.669 155.838 148.881 156.02 149.046C156.211 149.211 156.449 149.341 156.735 149.436C157.021 149.531 157.411 149.64 157.905 149.761C158.581 149.917 159.136 150.082 159.569 150.255C160.002 150.42 160.371 150.675 160.674 151.022C160.986 151.369 161.142 151.837 161.142 152.426C161.142 152.929 161.003 153.384 160.726 153.791C160.457 154.198 160.046 154.523 159.491 154.766C158.936 155.009 158.26 155.13 157.463 155.13Z" fill="white" fill-opacity="0.87"/>
<path d="M84.4058 85.4715H67.5916V84.3223H84.0614L103.346 71.6429H121.78L133.931 60.2842H143.931V61.4334H134.384L122.233 72.7921H103.688L84.4058 85.4715V85.4715Z" fill="white"/>
<path d="M76.2413 82.2564H74.7254V74.8199L74.3159 74.9945L72.3286 76.9675L71.5222 76.1612L74.0682 73.5532H76.2413V82.2564V82.2564Z" fill="white"/>
<path d="M117.456 64.5449C117.456 65.4798 117.129 66.1592 116.475 66.5814C115.977 66.9116 115.24 67.11 114.266 67.1767C113.471 67.1925 112.675 67.21 111.88 67.2259C111.326 67.2513 110.896 67.31 110.59 67.4005C110.018 67.5655 109.734 67.8481 109.734 68.2449C109.725 68.41 109.721 68.6751 109.721 69.0386H117.407V70.3671H108.058V68.6163C108.058 67.2592 108.742 66.4306 110.105 66.1338C111.372 66.0592 112.644 65.9846 113.918 65.91C115.283 65.8116 115.966 65.3274 115.966 64.4576C115.966 63.8195 115.742 63.3894 115.296 63.1671C114.988 63.01 114.477 62.9306 113.756 62.9306H112.217C111.372 62.9306 110.798 62.9925 110.49 63.1179C109.928 63.3243 109.647 63.7719 109.647 64.4576H108.12C108.12 63.3401 108.509 62.5592 109.286 62.1116C109.875 61.7798 110.777 61.6147 111.994 61.6147H113.432C114.825 61.6147 115.78 61.756 116.301 62.037C117.072 62.4417 117.456 63.2782 117.456 64.5449" fill="white"/>
<path d="M149.237 57.5094C149.237 58.6697 148.886 59.4396 148.183 59.8173C147.7 60.0888 146.824 60.2253 145.561 60.2253H143.107C141.885 60.2253 141.023 60.0888 140.523 59.8173C139.819 59.4396 139.464 58.6872 139.454 57.5634H140.997C140.997 58.0904 141.211 58.4507 141.645 58.6427C141.926 58.7761 142.369 58.8412 142.977 58.8412H145.77C147.045 58.8412 147.683 58.3792 147.683 57.457C147.683 56.5078 146.94 56.0332 145.454 56.0332C145.199 56.0332 144.826 56.0539 144.332 56.0919C143.842 56.1316 143.477 56.1523 143.238 56.1523V54.7539C143.467 54.7539 143.821 54.7713 144.302 54.8062C144.778 54.8412 145.142 54.8602 145.388 54.8602C146.918 54.8602 147.683 54.4189 147.683 53.5412C147.683 52.7586 146.992 52.3681 145.611 52.3681L143.489 52.3808C142.724 52.3808 142.18 52.438 141.854 52.5523C141.265 52.7459 140.967 53.1412 140.958 53.7396H139.454C139.454 52.5792 139.827 51.7999 140.575 51.4046C141.092 51.1237 141.999 50.9824 143.292 50.9824H145.664C146.808 50.9824 147.629 51.111 148.131 51.365C148.869 51.7348 149.237 52.4285 149.237 53.4475C149.237 54.0634 149.14 54.5078 148.948 54.7808C148.737 55.0967 148.342 55.3031 147.761 55.3999C148.342 55.5062 148.742 55.738 148.961 56.0983C149.145 56.4062 149.237 56.8777 149.237 57.5094" fill="white"/>
<path d="M79.7457 51.9007C80.1346 51.9007 80.4393 52.0388 80.6568 52.315C80.8758 52.5928 80.9441 52.9245 80.8616 53.3134L80.4885 55.0785C80.4028 55.4721 80.1917 55.8055 79.8552 56.0832C79.5219 56.3594 79.16 56.4975 78.7711 56.4975H71.925L72.0314 56.0007H78.8758C79.1282 56.0007 79.3647 55.9118 79.5822 55.7324C79.8044 55.5499 79.9425 55.3308 79.9981 55.0785L80.3727 53.3134C80.4266 53.061 80.3774 52.8451 80.2314 52.6658C80.0901 52.488 79.8933 52.3975 79.6425 52.3975H73.8981C73.5298 52.3975 73.2409 52.2642 73.0346 51.9991C72.825 51.7356 72.7584 51.4182 72.8346 51.0483L73.1647 49.5118C73.2457 49.1388 73.4457 48.8197 73.7647 48.5547C74.0854 48.2928 74.4282 48.1626 74.7997 48.1626H81.7076L81.6028 48.6531H74.6933C74.46 48.6531 74.2425 48.7372 74.0393 48.9039C73.8362 49.0721 73.7108 49.2753 73.66 49.5118L73.333 51.0483C73.287 51.2816 73.3266 51.4816 73.4552 51.6499C73.5885 51.8166 73.7695 51.9007 74.0044 51.9007H79.7457V51.9007Z" fill="white"/>
<path d="M83.2359 48.1626H90.6819L90.5771 48.6594H87.1025L85.4375 56.4975H84.9406L86.6057 48.6594H83.1311L83.2359 48.1626Z" fill="white"/>
<path d="M100.445 50.6748C100.561 50.1224 100.469 49.651 100.162 49.2605C99.8529 48.8685 99.4196 48.6716 98.8672 48.6716H94.3641C93.8101 48.6716 93.2974 48.8685 92.8212 49.2605C92.3466 49.651 92.0514 50.1224 91.9355 50.6748L91.672 51.9129H100.182L100.445 50.6748ZM98.972 48.1748C99.6625 48.1748 100.201 48.4208 100.585 48.9113C100.97 49.3986 101.088 49.9859 100.94 50.6748L99.7022 56.5034H99.2053L100.077 52.4097H91.5656L90.6958 56.5034H90.199L91.4371 50.6748C91.5863 49.9859 91.9529 49.3986 92.5418 48.9113C93.1371 48.4208 93.7815 48.1748 94.4688 48.1748H98.972V48.1748Z" fill="white"/>
<path d="M111.485 48.67H105.155C104.601 48.67 104.088 48.8669 103.612 49.2605C103.133 49.6494 102.836 50.1208 102.72 50.6732L102.012 54.0034C101.895 54.5558 101.993 55.0272 102.304 55.4161C102.61 55.8097 103.042 56.0066 103.595 56.0066H108.098C108.652 56.0066 109.164 55.8097 109.641 55.4161C110.115 55.0272 110.41 54.5558 110.526 54.0034L110.86 52.4383H106.545L106.65 51.9415H111.461L111.025 54.0034C110.876 54.6907 110.507 55.2796 109.914 55.7669C109.323 56.2573 108.682 56.5034 107.993 56.5034H103.49C102.799 56.5034 102.263 56.2573 101.877 55.7669C101.491 55.2796 101.374 54.6907 101.522 54.0034L102.228 50.6732C102.376 49.9843 102.744 49.397 103.331 48.9097C103.928 48.4192 104.571 48.1748 105.26 48.1748H111.59L111.485 48.67V48.67Z" fill="white"/>
<path d="M113.259 49.5304C113.337 49.1558 113.538 48.8367 113.861 48.5716C114.18 48.3081 114.524 48.1748 114.894 48.1748H120.55L120.443 48.6716H114.789C114.554 48.6716 114.338 48.7558 114.135 48.9224C113.929 49.0907 113.8 49.2939 113.75 49.5304L113.235 51.9431H119.748L119.642 52.4399H113.13L112.37 56.0081H118.884L118.78 56.505H111.775L113.259 49.5304V49.5304Z" fill="white"/>
<defs>
<filter id="filter0_d" x="0" y="0" width="208" height="208" filterUnits="userSpaceOnUse" color-interpolation-filters="sRGB">
<feFlood flood-opacity="0" result="BackgroundImageFix"/>
<feColorMatrix in="SourceAlpha" type="matrix" values="0 0 0 0 0 0 0 0 0 0 0 0 0 0 0 0 0 0 127 0"/>
<feOffset dx="4" dy="4"/>
<feGaussianBlur stdDeviation="2"/>
<feColorMatrix type="matrix" values="0 0 0 0 0 0 0 0 0 0 0 0 0 0 0 0 0 0 0.25 0"/>
<feBlend mode="normal" in2="BackgroundImageFix" result="effect1_dropShadow"/>
<feBlend mode="normal" in="SourceGraphic" in2="effect1_dropShadow" result="shape"/>
</filter>
</defs>
</svg>
