<svg width="208" height="208" viewBox="0 0 208 208" fill="none" xmlns="http://www.w3.org/2000/svg">
<g filter="url(#filter0_d)">
<rect width="200" height="200" rx="8" fill="#121212"/>
<rect width="200" height="200" rx="8" fill="white" fill-opacity="0.08"/>
</g>
<path d="M65.047 152.583V154H58.222V144.9H64.865V146.317H59.912V148.683H64.306V150.074H59.912V152.583H65.047ZM73.8569 149.346H75.4559V152.973C74.9879 153.346 74.4419 153.632 73.8179 153.831C73.1939 154.03 72.5526 154.13 71.8939 154.13C70.9666 154.13 70.1302 153.931 69.3849 153.532C68.6396 153.125 68.0546 152.566 67.6299 151.855C67.2052 151.144 66.9929 150.343 66.9929 149.45C66.9929 148.557 67.2052 147.756 67.6299 147.045C68.0546 146.334 68.6396 145.78 69.3849 145.381C70.1389 144.974 70.9839 144.77 71.9199 144.77C72.6826 144.77 73.3759 144.896 73.9999 145.147C74.6239 145.398 75.1482 145.767 75.5729 146.252L74.5069 147.292C73.8136 146.599 72.9772 146.252 71.9979 146.252C71.3566 146.252 70.7846 146.386 70.2819 146.655C69.7879 146.924 69.3979 147.301 69.1119 147.786C68.8346 148.271 68.6959 148.826 68.6959 149.45C68.6959 150.057 68.8346 150.603 69.1119 151.088C69.3979 151.573 69.7879 151.955 70.2819 152.232C70.7846 152.509 71.3522 152.648 71.9849 152.648C72.6956 152.648 73.3196 152.492 73.8569 152.18V149.346ZM84.3889 154L82.5299 151.335C82.4519 151.344 82.3349 151.348 82.1789 151.348H80.1249V154H78.4349V144.9H82.1789C82.9676 144.9 83.6522 145.03 84.2329 145.29C84.8222 145.55 85.2729 145.923 85.5849 146.408C85.8969 146.893 86.0529 147.47 86.0529 148.137C86.0529 148.822 85.8839 149.411 85.5459 149.905C85.2166 150.399 84.7399 150.767 84.1159 151.01L86.2089 154H84.3889ZM84.3499 148.137C84.3499 147.556 84.1592 147.11 83.7779 146.798C83.3966 146.486 82.8376 146.33 82.1009 146.33H80.1249V149.957H82.1009C82.8376 149.957 83.3966 149.801 83.7779 149.489C84.1592 149.168 84.3499 148.718 84.3499 148.137ZM93.0365 144.9H97.0145C97.9851 144.9 98.8475 145.091 99.6015 145.472C100.355 145.845 100.94 146.378 101.356 147.071C101.772 147.756 101.98 148.549 101.98 149.45C101.98 150.351 101.772 151.149 101.356 151.842C100.94 152.527 100.355 153.06 99.6015 153.441C98.8475 153.814 97.9851 154 97.0145 154H93.0365V144.9ZM96.9365 152.57C97.6038 152.57 98.1888 152.444 98.6915 152.193C99.2028 151.933 99.5928 151.569 99.8615 151.101C100.139 150.624 100.277 150.074 100.277 149.45C100.277 148.826 100.139 148.28 99.8615 147.812C99.5928 147.335 99.2028 146.971 98.6915 146.72C98.1888 146.46 97.6038 146.33 96.9365 146.33H94.7265V152.57H96.9365ZM111.352 152.583V154H104.527V144.9H111.17V146.317H106.217V148.683H110.611V150.074H106.217V152.583H111.352ZM113.986 144.9H115.676V152.57H120.434V154H113.986V144.9ZM129.343 152.583V154H122.518V144.9H129.161V146.317H124.208V148.683H128.602V150.074H124.208V152.583H129.343ZM133.823 146.33H130.807V144.9H138.529V146.33H135.513V154H133.823V146.33ZM147.372 152.583V154H140.547V144.9H147.19V146.317H142.237V148.683H146.631V150.074H142.237V152.583H147.372Z" fill="white" fill-opacity="0.87"/>
<path d="M106.961 69.6635L106.97 70.2447C106.977 70.6963 106.798 70.84 106.513 70.9244L106.508 70.926C106.339 70.9791 105.825 71.0666 104.325 71.0666H102.302C100.623 71.0666 100.188 70.8447 100.092 70.776C99.9734 70.69 99.7203 70.3885 99.6563 69.3791H106.177V66.8291H99.675C99.7563 66.076 99.9719 65.8135 100.109 65.7244C100.239 65.64 100.72 65.4447 102.344 65.4447H104.309C105.784 65.4447 106.306 65.5338 106.477 65.5838C106.827 65.6916 106.956 65.8682 106.956 66.2338V66.8057H109.158C109.123 67.2932 109.102 67.8494 109.102 68.5025C109.102 68.9244 109.123 69.3025 109.152 69.6635H106.961V69.6635ZM114.591 69.901H118.639C118.58 70.5494 118.427 70.7213 118.398 70.7463C118.372 70.7697 118.098 70.9697 116.869 70.9697H114.008C112.975 70.9697 112.55 70.8228 112.391 70.7369C112.252 70.6619 112.058 70.5119 111.97 70.0838C111.931 69.8885 111.884 69.4135 111.884 68.2682C111.884 66.5744 112.097 66.0682 112.189 65.9307C112.428 65.5682 113.138 65.3572 114.181 65.3338C114.838 65.326 115.252 65.3213 115.42 65.3213L117.048 65.3338C117.533 65.3338 117.931 65.4119 118.23 65.5588C118.634 65.7697 118.689 66.0244 118.689 66.2463V66.8197H121.509L121.513 66.2525C121.528 64.5135 120.647 63.7025 119.906 63.3291C119.205 62.9713 118.183 62.7979 116.788 62.7979H114.119C112.68 62.7979 111.631 62.9822 110.914 63.3603C110.219 63.726 109.741 64.3197 109.466 65.1088C109.264 64.5025 108.905 64.0041 108.353 63.6494C107.508 63.0947 106.208 62.826 104.38 62.826H102.247C100.744 62.826 99.6688 62.9713 98.9594 63.2697C98.1375 63.6119 97.5781 64.2416 97.3 65.1353C97.0781 65.8213 96.9688 66.8963 96.9688 68.4213C96.9688 69.851 97.0938 70.8791 97.3516 71.5697C97.6688 72.3963 98.2484 72.9713 99.075 73.2775C99.7625 73.5322 100.791 73.6572 102.22 73.6572H104.352C106.238 73.6572 107.486 73.4932 108.159 73.1619C108.666 72.9228 109.239 72.4416 109.517 71.4978C109.655 71.876 109.813 72.2088 110.022 72.451C110.711 73.2619 111.997 73.6572 113.953 73.6572H116.909C118.709 73.6572 119.913 73.2994 120.592 72.5635C121.222 71.8775 121.528 70.6682 121.528 68.8603V67.3244H114.591V69.901V69.901Z" fill="white"/>
<path d="M130.326 66.3742C130.326 66.7977 130.248 67.1773 129.317 67.1773H124.264V65.668H129.317C130.326 65.668 130.326 66.093 130.326 66.3742ZM132.595 68.4523C132.909 67.9977 133.068 67.368 133.068 66.568C133.068 65.2555 132.731 64.2883 132.059 63.6867C131.432 63.1383 130.485 62.8711 129.167 62.8711H121.535V73.6602H124.264V69.9727L129.304 69.9602C129.807 69.9602 130.173 70.0555 130.334 70.2305C130.456 70.3617 130.603 70.6586 130.603 71.3258V73.6602H133.371V70.6789C133.371 69.5227 133.029 68.8461 132.595 68.4523" fill="white"/>
<path d="M90.6766 78.1812C89.875 79.1468 88.3047 78.5968 88.2844 77.3406L88.0532 63.8718L89.3704 63.4343L91.9782 73.5077C92.3626 74.9921 92.011 76.5718 91.0329 77.7531L90.6766 78.1812V78.1812ZM94.9157 74.2687L93.0672 62.6531C93.0313 62.5062 92.9954 62.3609 92.9594 62.2156C93.5672 61.5499 93.8657 60.6124 93.6266 59.6468L90.9266 48.7546C90.5297 47.1562 89.0766 46.0484 87.4297 46.0874L75.3704 46.3843C73.6563 46.4265 72.2297 47.7109 72.0063 49.4093L70.6719 59.5546C70.4219 61.4546 71.9 63.1406 73.8172 63.1406C73.8407 63.1406 73.8579 63.1593 73.8579 63.1812V80.7156C73.8579 83.2937 75.9485 85.3843 78.5266 85.3843H83.6641V85.6702C83.6641 86.4015 84.2563 86.9937 84.986 86.9937H86.6579C87.7032 86.9937 88.6672 86.4359 89.1875 85.5312L94.5625 76.1812C94.8954 75.6031 95.0204 74.9265 94.9157 74.2687" fill="white"/>
<path d="M101.434 78.6814V78.3861C101.434 78.0908 101.405 77.8814 101.345 77.7564C101.287 77.6314 101.18 77.5502 101.022 77.5158C100.915 77.4877 100.705 77.4752 100.397 77.4752H99.8842C99.4561 77.4752 99.1889 77.5189 99.0764 77.608C98.9405 77.7174 98.8717 77.9768 98.8717 78.3893V78.6846C98.8717 79.0861 98.942 79.3393 99.0811 79.4455C99.1889 79.5252 99.4514 79.5643 99.8702 79.5643H100.405C100.709 79.5643 100.914 79.5533 101.017 79.5283C101.175 79.4971 101.283 79.4189 101.342 79.2971C101.403 79.1752 101.434 78.9705 101.434 78.6814V78.6814ZM101.965 78.6986C101.965 79.1111 101.917 79.4127 101.817 79.6064C101.722 79.7986 101.556 79.9283 101.323 79.9924C101.14 80.0455 100.834 80.0721 100.414 80.0721H99.8436C99.4108 80.0721 99.0967 80.0346 98.8999 79.9611C98.6811 79.883 98.5327 79.7346 98.453 79.5205C98.3795 79.3205 98.342 79.0033 98.342 78.5705C98.342 78.1111 98.3733 77.7814 98.4358 77.5814C98.5092 77.3455 98.6545 77.183 98.8686 77.0908C99.0717 77.0018 99.3999 76.958 99.853 76.958H100.419C100.905 76.958 101.255 77.0096 101.467 77.1096C101.681 77.2096 101.82 77.3877 101.884 77.6471C101.939 77.8408 101.965 78.1924 101.965 78.6986" fill="white"/>
<path d="M102.85 78.2518H105.032V78.6971H102.85V80.0721H102.358L102.361 78.4643C102.361 78.0361 102.396 77.7283 102.463 77.5361C102.539 77.3189 102.686 77.1674 102.9 77.0814C103.102 76.9986 103.425 76.958 103.866 76.958H104.443C104.997 76.958 105.38 77.0252 105.589 77.1611C105.789 77.2908 105.911 77.5361 105.952 77.8986H105.453C105.405 77.6924 105.299 77.5596 105.135 77.5018C105.018 77.4596 104.778 77.4377 104.419 77.4377H103.897C103.48 77.4377 103.21 77.4783 103.093 77.558C102.944 77.6549 102.863 77.8861 102.85 78.2518" fill="white"/>
<path d="M106.404 78.2518H108.585V78.6971H106.404V80.0721H105.91L105.915 78.4643C105.915 78.0361 105.948 77.7283 106.015 77.5361C106.093 77.3189 106.239 77.1674 106.453 77.0814C106.656 76.9986 106.978 76.958 107.42 76.958H107.995C108.551 76.958 108.934 77.0252 109.142 77.1611C109.343 77.2908 109.464 77.5361 109.504 77.8986H109.006C108.959 77.6924 108.851 77.5596 108.689 77.5018C108.571 77.4596 108.331 77.4377 107.973 77.4377H107.451C107.032 77.4377 106.764 77.4783 106.646 77.558C106.498 77.6549 106.417 77.8861 106.404 78.2518" fill="white"/>
<path d="M112.584 76.8237L111.603 80.4675H111.184L112.167 76.8237H112.584Z" fill="white"/>
<path d="M117.645 78.7184V78.3293C117.645 77.9855 117.585 77.7527 117.47 77.6324C117.352 77.5121 117.123 77.4496 116.777 77.4496H115.237V79.6105H116.818C117.171 79.6105 117.401 79.548 117.507 79.4246C117.598 79.3168 117.645 79.0809 117.645 78.7184V78.7184ZM118.17 78.7355C118.17 79.2543 118.087 79.6043 117.923 79.7871C117.742 79.9855 117.398 80.084 116.888 80.084H114.706V76.9824H116.813C117.246 76.9824 117.563 77.0496 117.762 77.1809C117.946 77.2996 118.065 77.4949 118.117 77.7684C118.152 77.9449 118.17 78.2668 118.17 78.7355" fill="white"/>
<path d="M121.132 78.6939H119.026L119.029 78.2439H121.132V78.6939V78.6939ZM122.259 79.1533C122.259 79.5486 122.131 79.8049 121.874 79.9268C121.684 80.0205 121.301 80.0674 120.729 80.0674H120.046C119.612 80.0674 119.298 80.0299 119.101 79.958C118.887 79.8783 118.737 79.7314 118.654 79.5158C118.581 79.3174 118.545 79.0033 118.545 78.5705C118.545 78.1064 118.576 77.7736 118.64 77.5721C118.715 77.3361 118.859 77.1752 119.07 77.0861C119.273 77.0018 119.602 76.958 120.056 76.958H120.738C121.284 76.958 121.676 77.0361 121.913 77.1924C122.137 77.3361 122.249 77.5627 122.249 77.8689H121.751C121.751 77.6705 121.656 77.5439 121.468 77.4846C121.346 77.4486 121.098 77.4314 120.715 77.4314H120.085C119.665 77.4314 119.393 77.4705 119.27 77.5518C119.115 77.6502 119.037 77.883 119.034 78.2486V78.6939C119.031 79.1064 119.106 79.3674 119.256 79.4752C119.373 79.5611 119.645 79.6049 120.073 79.6049H120.72C121.11 79.6049 121.36 79.5861 121.477 79.5518C121.665 79.4955 121.757 79.3627 121.754 79.1533H122.259V79.1533Z" fill="white"/>
<path d="M125.082 80.0777H122.457V76.9824H122.984V79.6059H125.082V80.0777V80.0777Z" fill="white"/>
<path d="M127.547 78.6939H125.441L125.444 78.2439H127.547V78.6939ZM128.674 79.1533C128.674 79.5486 128.545 79.8049 128.289 79.9268C128.099 80.0205 127.716 80.0674 127.144 80.0674H126.461C126.027 80.0674 125.713 80.0299 125.516 79.958C125.302 79.8783 125.153 79.7314 125.069 79.5158C124.995 79.3174 124.959 79.0033 124.959 78.5705C124.959 78.1064 124.991 77.7736 125.056 77.5721C125.13 77.3361 125.274 77.1752 125.484 77.0861C125.688 77.0018 126.017 76.958 126.47 76.958H127.153C127.7 76.958 128.091 77.0361 128.33 77.1924C128.553 77.3361 128.664 77.5627 128.664 77.8689H128.166C128.166 77.6705 128.07 77.5439 127.883 77.4846C127.763 77.4486 127.513 77.4314 127.131 77.4314H126.5C126.08 77.4314 125.808 77.4705 125.684 77.5518C125.531 77.6502 125.452 77.883 125.449 78.2486V78.6939C125.447 79.1064 125.52 79.3674 125.67 79.4752C125.788 79.5611 126.061 79.6049 126.488 79.6049H127.136C127.525 79.6049 127.775 79.5861 127.892 79.5518C128.08 79.4955 128.172 79.3627 128.17 79.1533H128.674V79.1533Z" fill="white"/>
<path d="M131.934 77.4543H130.537V80.0777H130.014V77.4543H128.622V76.9824H131.934V77.4543Z" fill="white"/>
<path d="M134.552 78.6939H132.446L132.451 78.2439H134.552V78.6939ZM135.679 79.1533C135.679 79.5486 135.552 79.8049 135.296 79.9268C135.104 80.0205 134.723 80.0674 134.151 80.0674H133.468C133.034 80.0674 132.719 80.0299 132.521 79.958C132.307 79.8783 132.158 79.7314 132.076 79.5158C132.001 79.3174 131.966 79.0033 131.966 78.5705C131.966 78.1064 131.996 77.7736 132.062 77.5721C132.135 77.3361 132.279 77.1752 132.491 77.0861C132.694 77.0018 133.023 76.958 133.477 76.958H134.16C134.705 76.958 135.098 77.0361 135.335 77.1924C135.559 77.3361 135.669 77.5627 135.669 77.8689H135.171C135.171 77.6705 135.077 77.5439 134.888 77.4846C134.768 77.4486 134.519 77.4314 134.137 77.4314H133.505C133.085 77.4314 132.813 77.4705 132.691 77.5518C132.537 77.6502 132.458 77.883 132.454 78.2486V78.6939C132.452 79.1064 132.526 79.3674 132.677 79.4752C132.794 79.5611 133.066 79.6049 133.493 79.6049H134.141C134.53 79.6049 134.782 79.5861 134.898 79.5518C135.087 79.4955 135.177 79.3627 135.176 79.1533H135.679V79.1533Z" fill="white"/>
<defs>
<filter id="filter0_d" x="0" y="0" width="208" height="208" filterUnits="userSpaceOnUse" color-interpolation-filters="sRGB">
<feFlood flood-opacity="0" result="BackgroundImageFix"/>
<feColorMatrix in="SourceAlpha" type="matrix" values="0 0 0 0 0 0 0 0 0 0 0 0 0 0 0 0 0 0 127 0"/>
<feOffset dx="4" dy="4"/>
<feGaussianBlur stdDeviation="2"/>
<feColorMatrix type="matrix" values="0 0 0 0 0 0 0 0 0 0 0 0 0 0 0 0 0 0 0.25 0"/>
<feBlend mode="normal" in2="BackgroundImageFix" result="effect1_dropShadow"/>
<feBlend mode="normal" in="SourceGraphic" in2="effect1_dropShadow" result="shape"/>
</filter>
</defs>
</svg>
