<svg width="208" height="208" viewBox="0 0 208 208" fill="none" xmlns="http://www.w3.org/2000/svg">
<g filter="url(#filter0_d)">
<rect width="200" height="200" rx="8" fill="#121212"/>
<rect width="200" height="200" rx="8" fill="white" fill-opacity="0.08"/>
</g>
<path d="M43.505 151.923C42.857 151.923 42.229 151.831 41.621 151.647C41.021 151.463 40.545 151.219 40.193 150.915L40.733 149.703C41.077 149.975 41.497 150.199 41.993 150.375C42.497 150.543 43.001 150.627 43.505 150.627C44.129 150.627 44.593 150.527 44.897 150.327C45.209 150.127 45.365 149.863 45.365 149.535C45.365 149.295 45.277 149.099 45.101 148.947C44.933 148.787 44.717 148.663 44.453 148.575C44.189 148.487 43.829 148.387 43.373 148.275C42.733 148.123 42.213 147.971 41.813 147.819C41.421 147.667 41.081 147.431 40.793 147.111C40.513 146.783 40.373 146.343 40.373 145.791C40.373 145.327 40.497 144.907 40.745 144.531C41.001 144.147 41.381 143.843 41.885 143.619C42.397 143.395 43.021 143.283 43.757 143.283C44.269 143.283 44.773 143.347 45.269 143.475C45.765 143.603 46.193 143.787 46.553 144.027L46.061 145.239C45.693 145.023 45.309 144.859 44.909 144.747C44.509 144.635 44.121 144.579 43.745 144.579C43.129 144.579 42.669 144.683 42.365 144.891C42.069 145.099 41.921 145.375 41.921 145.719C41.921 145.959 42.005 146.155 42.173 146.307C42.349 146.459 42.569 146.579 42.833 146.667C43.097 146.755 43.457 146.855 43.913 146.967C44.537 147.111 45.049 147.263 45.449 147.423C45.849 147.575 46.189 147.811 46.469 148.131C46.757 148.451 46.901 148.883 46.901 149.427C46.901 149.891 46.773 150.311 46.517 150.687C46.269 151.063 45.889 151.363 45.377 151.587C44.865 151.811 44.241 151.923 43.505 151.923ZM56.9139 151.803L56.9019 146.235L54.1419 150.843H53.4459L50.6859 146.307V151.803H49.1979V143.403H50.4819L53.8179 148.971L57.0939 143.403H58.3779L58.3899 151.803H56.9139ZM66.8569 149.859H62.6569L61.8289 151.803H60.2209L64.0009 143.403H65.5369L69.3289 151.803H67.6969L66.8569 149.859ZM66.3409 148.635L64.7569 144.963L63.1849 148.635H66.3409ZM76.6431 151.803L74.9271 149.343C74.8551 149.351 74.7471 149.355 74.6031 149.355H72.7071V151.803H71.1471V143.403H74.6031C75.3311 143.403 75.9631 143.523 76.4991 143.763C77.0431 144.003 77.4591 144.347 77.7471 144.795C78.0351 145.243 78.1791 145.775 78.1791 146.391C78.1791 147.023 78.0231 147.567 77.7111 148.023C77.4071 148.479 76.9671 148.819 76.3911 149.043L78.3231 151.803H76.6431ZM76.6071 146.391C76.6071 145.855 76.4311 145.443 76.0791 145.155C75.7271 144.867 75.2111 144.723 74.5311 144.723H72.7071V148.071H74.5311C75.2111 148.071 75.7271 147.927 76.0791 147.639C76.4311 147.343 76.6071 146.927 76.6071 146.391ZM82.2613 144.723H79.4773V143.403H86.6053V144.723H83.8213V151.803H82.2613V144.723ZM95.5684 146.871C96.3444 146.967 96.9364 147.231 97.3444 147.663C97.7524 148.095 97.9564 148.635 97.9564 149.283C97.9564 149.771 97.8324 150.215 97.5844 150.615C97.3364 151.015 96.9604 151.335 96.4564 151.575C95.9604 151.807 95.3524 151.923 94.6324 151.923C94.0324 151.923 93.4524 151.839 92.8924 151.671C92.3404 151.495 91.8684 151.255 91.4764 150.951L92.1484 149.739C92.4524 149.995 92.8204 150.199 93.2524 150.351C93.6924 150.495 94.1444 150.567 94.6084 150.567C95.1604 150.567 95.5924 150.455 95.9044 150.231C96.2244 149.999 96.3844 149.687 96.3844 149.295C96.3844 148.903 96.2324 148.599 95.9284 148.383C95.6324 148.159 95.1764 148.047 94.5604 148.047H93.7924V146.979L95.7004 144.711H91.8844V143.403H97.6084V144.447L95.5684 146.871ZM103.543 146.619C104.095 146.619 104.591 146.727 105.031 146.943C105.471 147.151 105.815 147.451 106.063 147.843C106.311 148.235 106.435 148.687 106.435 149.199C106.435 149.743 106.299 150.223 106.027 150.639C105.755 151.047 105.387 151.363 104.923 151.587C104.459 151.811 103.939 151.923 103.363 151.923C102.211 151.923 101.315 151.563 100.675 150.843C100.043 150.123 99.7268 149.091 99.7268 147.747C99.7268 146.803 99.8988 145.999 100.243 145.335C100.587 144.663 101.067 144.155 101.683 143.811C102.307 143.459 103.027 143.283 103.843 143.283C104.275 143.283 104.679 143.331 105.055 143.427C105.439 143.515 105.771 143.647 106.051 143.823L105.475 144.999C105.059 144.727 104.527 144.591 103.879 144.591C103.071 144.591 102.439 144.839 101.983 145.335C101.527 145.831 101.299 146.547 101.299 147.483V147.495C101.547 147.207 101.863 146.991 102.247 146.847C102.631 146.695 103.063 146.619 103.543 146.619ZM103.279 150.699C103.767 150.699 104.163 150.571 104.467 150.315C104.771 150.051 104.923 149.703 104.923 149.271C104.923 148.831 104.771 148.483 104.467 148.227C104.163 147.971 103.755 147.843 103.243 147.843C102.739 147.843 102.327 147.979 102.007 148.251C101.695 148.523 101.539 148.867 101.539 149.283C101.539 149.691 101.691 150.031 101.995 150.303C102.307 150.567 102.735 150.699 103.279 150.699ZM111.504 151.923C110.832 151.923 110.232 151.755 109.704 151.419C109.176 151.075 108.76 150.579 108.456 149.931C108.152 149.275 108 148.499 108 147.603C108 146.707 108.152 145.935 108.456 145.287C108.76 144.631 109.176 144.135 109.704 143.799C110.232 143.455 110.832 143.283 111.504 143.283C112.176 143.283 112.776 143.455 113.304 143.799C113.84 144.135 114.26 144.631 114.564 145.287C114.868 145.935 115.02 146.707 115.02 147.603C115.02 148.499 114.868 149.275 114.564 149.931C114.26 150.579 113.84 151.075 113.304 151.419C112.776 151.755 112.176 151.923 111.504 151.923ZM111.504 150.567C112.104 150.567 112.576 150.319 112.92 149.823C113.272 149.327 113.448 148.587 113.448 147.603C113.448 146.619 113.272 145.879 112.92 145.383C112.576 144.887 112.104 144.639 111.504 144.639C110.912 144.639 110.44 144.887 110.088 145.383C109.744 145.879 109.572 146.619 109.572 147.603C109.572 148.587 109.744 149.327 110.088 149.823C110.44 150.319 110.912 150.567 111.504 150.567ZM121.491 143.403H125.163C126.059 143.403 126.855 143.579 127.551 143.931C128.247 144.275 128.787 144.767 129.171 145.407C129.555 146.039 129.747 146.771 129.747 147.603C129.747 148.435 129.555 149.171 129.171 149.811C128.787 150.443 128.247 150.935 127.551 151.287C126.855 151.631 126.059 151.803 125.163 151.803H121.491V143.403ZM125.091 150.483C125.707 150.483 126.247 150.367 126.711 150.135C127.183 149.895 127.543 149.559 127.791 149.127C128.047 148.687 128.175 148.179 128.175 147.603C128.175 147.027 128.047 146.523 127.791 146.091C127.543 145.651 127.183 145.315 126.711 145.083C126.247 144.843 125.707 144.723 125.091 144.723H123.051V150.483H125.091ZM137.486 149.859H133.286L132.458 151.803H130.85L134.63 143.403H136.166L139.958 151.803H138.326L137.486 149.859ZM136.97 148.635L135.386 144.963L133.814 148.635H136.97ZM144.38 151.923C143.732 151.923 143.104 151.831 142.496 151.647C141.896 151.463 141.42 151.219 141.068 150.915L141.608 149.703C141.952 149.975 142.372 150.199 142.868 150.375C143.372 150.543 143.876 150.627 144.38 150.627C145.004 150.627 145.468 150.527 145.772 150.327C146.084 150.127 146.24 149.863 146.24 149.535C146.24 149.295 146.152 149.099 145.976 148.947C145.808 148.787 145.592 148.663 145.328 148.575C145.064 148.487 144.704 148.387 144.248 148.275C143.608 148.123 143.088 147.971 142.688 147.819C142.296 147.667 141.956 147.431 141.668 147.111C141.388 146.783 141.248 146.343 141.248 145.791C141.248 145.327 141.372 144.907 141.62 144.531C141.876 144.147 142.256 143.843 142.76 143.619C143.272 143.395 143.896 143.283 144.632 143.283C145.144 143.283 145.648 143.347 146.144 143.475C146.64 143.603 147.068 143.787 147.428 144.027L146.936 145.239C146.568 145.023 146.184 144.859 145.784 144.747C145.384 144.635 144.996 144.579 144.62 144.579C144.004 144.579 143.544 144.683 143.24 144.891C142.944 145.099 142.796 145.375 142.796 145.719C142.796 145.959 142.88 146.155 143.048 146.307C143.224 146.459 143.444 146.579 143.708 146.667C143.972 146.755 144.332 146.855 144.788 146.967C145.412 147.111 145.924 147.263 146.324 147.423C146.724 147.575 147.064 147.811 147.344 148.131C147.632 148.451 147.776 148.883 147.776 149.427C147.776 149.891 147.648 150.311 147.392 150.687C147.144 151.063 146.764 151.363 146.252 151.587C145.74 151.811 145.116 151.923 144.38 151.923ZM157.537 143.403V151.803H155.977V148.203H151.633V151.803H150.073V143.403H151.633V146.871H155.977V143.403H157.537ZM75.334 167.923C74.486 167.923 73.718 167.739 73.03 167.371C72.35 166.995 71.814 166.479 71.422 165.823C71.038 165.167 70.846 164.427 70.846 163.603C70.846 162.779 71.042 162.039 71.434 161.383C71.826 160.727 72.362 160.215 73.042 159.847C73.73 159.471 74.498 159.283 75.346 159.283C76.034 159.283 76.662 159.403 77.23 159.643C77.798 159.883 78.278 160.231 78.67 160.687L77.662 161.635C77.054 160.979 76.306 160.651 75.418 160.651C74.842 160.651 74.326 160.779 73.87 161.035C73.414 161.283 73.058 161.631 72.802 162.079C72.546 162.527 72.418 163.035 72.418 163.603C72.418 164.171 72.546 164.679 72.802 165.127C73.058 165.575 73.414 165.927 73.87 166.183C74.326 166.431 74.842 166.555 75.418 166.555C76.306 166.555 77.054 166.223 77.662 165.559L78.67 166.519C78.278 166.975 77.794 167.323 77.218 167.563C76.65 167.803 76.022 167.923 75.334 167.923ZM86.1869 165.859H81.9869L81.1589 167.803H79.5509L83.3309 159.403H84.8669L88.6589 167.803H87.0269L86.1869 165.859ZM85.6709 164.635L84.0869 160.963L82.5149 164.635H85.6709ZM98.1932 167.803L98.1812 162.235L95.4212 166.843H94.7252L91.9652 162.307V167.803H90.4772V159.403H91.7612L95.0972 164.971L98.3732 159.403H99.6572L99.6692 167.803H98.1932ZM108.988 166.495V167.803H102.688V159.403H108.82V160.711H104.248V162.895H108.304V164.179H104.248V166.495H108.988ZM116.973 167.803L115.257 165.343C115.185 165.351 115.077 165.355 114.933 165.355H113.037V167.803H111.477V159.403H114.933C115.661 159.403 116.293 159.523 116.829 159.763C117.373 160.003 117.789 160.347 118.077 160.795C118.365 161.243 118.509 161.775 118.509 162.391C118.509 163.023 118.353 163.567 118.041 164.023C117.737 164.479 117.297 164.819 116.721 165.043L118.653 167.803H116.973ZM116.937 162.391C116.937 161.855 116.761 161.443 116.409 161.155C116.057 160.867 115.541 160.723 114.861 160.723H113.037V164.071H114.861C115.541 164.071 116.057 163.927 116.409 163.639C116.761 163.343 116.937 162.927 116.937 162.391ZM126.453 165.859H122.253L121.425 167.803H119.817L123.597 159.403H125.133L128.925 167.803H127.293L126.453 165.859ZM125.937 164.635L124.353 160.963L122.781 164.635H125.937ZM62.1231 178.871C62.8991 178.967 63.4911 179.231 63.8991 179.663C64.3071 180.095 64.5111 180.635 64.5111 181.283C64.5111 181.771 64.3871 182.215 64.1391 182.615C63.8911 183.015 63.5151 183.335 63.0111 183.575C62.5151 183.807 61.9071 183.923 61.1871 183.923C60.5871 183.923 60.0071 183.839 59.4471 183.671C58.8951 183.495 58.4231 183.255 58.0311 182.951L58.7031 181.739C59.0071 181.995 59.3751 182.199 59.8071 182.351C60.2471 182.495 60.6991 182.567 61.1631 182.567C61.7151 182.567 62.1471 182.455 62.4591 182.231C62.7791 181.999 62.9391 181.687 62.9391 181.295C62.9391 180.903 62.7871 180.599 62.4831 180.383C62.1871 180.159 61.7311 180.047 61.1151 180.047H60.3471V178.979L62.2551 176.711H58.4391V175.403H64.1631V176.447L62.1231 178.871ZM70.0975 178.619C70.6495 178.619 71.1455 178.727 71.5855 178.943C72.0255 179.151 72.3695 179.451 72.6175 179.843C72.8655 180.235 72.9895 180.687 72.9895 181.199C72.9895 181.743 72.8535 182.223 72.5815 182.639C72.3095 183.047 71.9415 183.363 71.4775 183.587C71.0135 183.811 70.4935 183.923 69.9175 183.923C68.7655 183.923 67.8695 183.563 67.2295 182.843C66.5975 182.123 66.2815 181.091 66.2815 179.747C66.2815 178.803 66.4535 177.999 66.7975 177.335C67.1415 176.663 67.6215 176.155 68.2375 175.811C68.8615 175.459 69.5815 175.283 70.3975 175.283C70.8295 175.283 71.2335 175.331 71.6095 175.427C71.9935 175.515 72.3255 175.647 72.6055 175.823L72.0295 176.999C71.6135 176.727 71.0815 176.591 70.4335 176.591C69.6255 176.591 68.9935 176.839 68.5375 177.335C68.0815 177.831 67.8535 178.547 67.8535 179.483V179.495C68.1015 179.207 68.4175 178.991 68.8015 178.847C69.1855 178.695 69.6175 178.619 70.0975 178.619ZM69.8335 182.699C70.3215 182.699 70.7175 182.571 71.0215 182.315C71.3255 182.051 71.4775 181.703 71.4775 181.271C71.4775 180.831 71.3255 180.483 71.0215 180.227C70.7175 179.971 70.3095 179.843 69.7975 179.843C69.2935 179.843 68.8815 179.979 68.5615 180.251C68.2495 180.523 68.0935 180.867 68.0935 181.283C68.0935 181.691 68.2455 182.031 68.5495 182.303C68.8615 182.567 69.2895 182.699 69.8335 182.699ZM78.0589 183.923C77.3869 183.923 76.7869 183.755 76.2589 183.419C75.7309 183.075 75.3149 182.579 75.0109 181.931C74.7069 181.275 74.5549 180.499 74.5549 179.603C74.5549 178.707 74.7069 177.935 75.0109 177.287C75.3149 176.631 75.7309 176.135 76.2589 175.799C76.7869 175.455 77.3869 175.283 78.0589 175.283C78.7309 175.283 79.3309 175.455 79.8589 175.799C80.3949 176.135 80.8149 176.631 81.1189 177.287C81.4229 177.935 81.5749 178.707 81.5749 179.603C81.5749 180.499 81.4229 181.275 81.1189 181.931C80.8149 182.579 80.3949 183.075 79.8589 183.419C79.3309 183.755 78.7309 183.923 78.0589 183.923ZM78.0589 182.567C78.6589 182.567 79.1309 182.319 79.4749 181.823C79.8269 181.327 80.0029 180.587 80.0029 179.603C80.0029 178.619 79.8269 177.879 79.4749 177.383C79.1309 176.887 78.6589 176.639 78.0589 176.639C77.4669 176.639 76.9949 176.887 76.6429 177.383C76.2989 177.879 76.1269 178.619 76.1269 179.603C76.1269 180.587 76.2989 181.327 76.6429 181.823C76.9949 182.319 77.4669 182.567 78.0589 182.567ZM90.6496 183.923C90.0016 183.923 89.3736 183.831 88.7656 183.647C88.1656 183.463 87.6896 183.219 87.3376 182.915L87.8776 181.703C88.2216 181.975 88.6416 182.199 89.1376 182.375C89.6416 182.543 90.1456 182.627 90.6496 182.627C91.2736 182.627 91.7376 182.527 92.0416 182.327C92.3536 182.127 92.5096 181.863 92.5096 181.535C92.5096 181.295 92.4216 181.099 92.2456 180.947C92.0776 180.787 91.8616 180.663 91.5976 180.575C91.3336 180.487 90.9736 180.387 90.5176 180.275C89.8776 180.123 89.3576 179.971 88.9576 179.819C88.5656 179.667 88.2256 179.431 87.9376 179.111C87.6576 178.783 87.5176 178.343 87.5176 177.791C87.5176 177.327 87.6416 176.907 87.8896 176.531C88.1456 176.147 88.5256 175.843 89.0296 175.619C89.5416 175.395 90.1656 175.283 90.9016 175.283C91.4136 175.283 91.9176 175.347 92.4136 175.475C92.9096 175.603 93.3376 175.787 93.6976 176.027L93.2056 177.239C92.8376 177.023 92.4536 176.859 92.0536 176.747C91.6536 176.635 91.2656 176.579 90.8896 176.579C90.2736 176.579 89.8136 176.683 89.5096 176.891C89.2136 177.099 89.0656 177.375 89.0656 177.719C89.0656 177.959 89.1496 178.155 89.3176 178.307C89.4936 178.459 89.7136 178.579 89.9776 178.667C90.2416 178.755 90.6016 178.855 91.0576 178.967C91.6816 179.111 92.1936 179.263 92.5936 179.423C92.9936 179.575 93.3336 179.811 93.6136 180.131C93.9016 180.451 94.0456 180.883 94.0456 181.427C94.0456 181.891 93.9176 182.311 93.6616 182.687C93.4136 183.063 93.0336 183.363 92.5216 183.587C92.0096 183.811 91.3856 183.923 90.6496 183.923ZM102.642 182.495V183.803H96.3424V175.403H102.474V176.711H97.9024V178.895H101.958V180.179H97.9024V182.495H102.642ZM108.984 183.923C108.136 183.923 107.368 183.739 106.68 183.371C106 182.995 105.464 182.479 105.072 181.823C104.688 181.167 104.496 180.427 104.496 179.603C104.496 178.779 104.692 178.039 105.084 177.383C105.476 176.727 106.012 176.215 106.692 175.847C107.38 175.471 108.148 175.283 108.996 175.283C109.684 175.283 110.312 175.403 110.88 175.643C111.448 175.883 111.928 176.231 112.32 176.687L111.312 177.635C110.704 176.979 109.956 176.651 109.068 176.651C108.492 176.651 107.976 176.779 107.52 177.035C107.064 177.283 106.708 177.631 106.452 178.079C106.196 178.527 106.068 179.035 106.068 179.603C106.068 180.171 106.196 180.679 106.452 181.127C106.708 181.575 107.064 181.927 107.52 182.183C107.976 182.431 108.492 182.555 109.068 182.555C109.956 182.555 110.704 182.223 111.312 181.559L112.32 182.519C111.928 182.975 111.444 183.323 110.868 183.563C110.3 183.803 109.672 183.923 108.984 183.923ZM118.119 183.923C116.959 183.923 116.055 183.599 115.407 182.951C114.759 182.295 114.435 181.359 114.435 180.143V175.403H115.995V180.083C115.995 181.731 116.707 182.555 118.131 182.555C119.547 182.555 120.255 181.731 120.255 180.083V175.403H121.791V180.143C121.791 181.359 121.467 182.295 120.819 182.951C120.179 183.599 119.279 183.923 118.119 183.923ZM130.221 183.803L128.505 181.343C128.433 181.351 128.325 181.355 128.181 181.355H126.285V183.803H124.725V175.403H128.181C128.909 175.403 129.541 175.523 130.077 175.763C130.621 176.003 131.037 176.347 131.325 176.795C131.613 177.243 131.757 177.775 131.757 178.391C131.757 179.023 131.601 179.567 131.289 180.023C130.985 180.479 130.545 180.819 129.969 181.043L131.901 183.803H130.221ZM130.185 178.391C130.185 177.855 130.009 177.443 129.657 177.155C129.305 176.867 128.789 176.723 128.109 176.723H126.285V180.071H128.109C128.789 180.071 129.305 179.927 129.657 179.639C130.009 179.343 130.185 178.927 130.185 178.391ZM140.553 182.495V183.803H134.253V175.403H140.385V176.711H135.813V178.895H139.869V180.179H135.813V182.495H140.553Z" fill="white" fill-opacity="0.87"/>
<path d="M98.3513 50.2402C87.55 50.2402 78.763 59.4472 78.763 70.7649C78.763 82.0826 87.55 91.2897 98.3513 91.2897C109.153 91.2897 117.938 82.0826 117.938 70.7649C117.938 59.4472 109.153 50.2402 98.3513 50.2402V50.2402ZM98.3513 92.5312C86.896 92.5312 77.5782 82.7662 77.5782 70.7649C77.5782 58.7636 86.896 48.9986 98.3513 48.9986C109.805 48.9986 119.123 58.7636 119.123 70.7649C119.123 82.7662 109.805 92.5312 98.3513 92.5312ZM98.3513 48.1412C86.4457 48.1412 76.7582 58.2902 76.7582 70.7649C76.7582 83.2413 86.4457 93.3886 98.3513 93.3886C110.257 93.3886 119.943 83.2413 119.943 70.7649C119.943 58.2902 110.257 48.1412 98.3513 48.1412V48.1412ZM98.3513 94.6302C85.7917 94.6302 75.5734 83.925 75.5734 70.7649C75.5734 57.6065 85.7917 46.8997 98.3513 46.8997C110.909 46.8997 121.128 57.6065 121.128 70.7649C121.128 83.925 110.909 94.6302 98.3513 94.6302Z" fill="white"/>
<path d="M98.3462 60.711C93.0538 60.711 88.7488 65.2218 88.7488 70.7672C88.7488 76.311 93.0538 80.8219 98.3462 80.8219C103.639 80.8219 107.942 76.311 107.942 70.7672C107.942 65.2218 103.639 60.711 98.3462 60.711V60.711ZM98.3462 82.0634C92.3998 82.0634 87.5639 76.9947 87.5639 70.7672C87.5639 64.5381 92.3998 59.4694 98.3462 59.4694C104.291 59.4694 109.127 64.5381 109.127 70.7672C109.127 76.9947 104.291 82.0634 98.3462 82.0634ZM98.3462 54.9371C90.0174 54.9371 83.2383 62.0385 83.2383 70.7672C83.2383 79.4943 90.0174 86.5957 98.3462 86.5957C106.675 86.5957 113.453 79.4943 113.453 70.7672C113.453 62.0385 106.675 54.9371 98.3462 54.9371ZM98.3462 87.8373C89.3618 87.8373 82.0535 80.1796 82.0535 70.7672C82.0535 61.3532 89.3618 53.6956 98.3462 53.6956C107.329 53.6956 114.637 61.3532 114.637 70.7672C114.637 80.1796 107.329 87.8373 98.3462 87.8373Z" fill="white"/>
<path d="M75.2864 51.2303L75.3338 51.9918L76.0558 51.8626L75.2864 51.2303V51.2303ZM72.4237 45.5326L73.0162 55.0757L79.7873 53.9004L78.5677 52.6721L74.2358 53.4485L73.9325 48.5403L76.4254 50.588L76.833 50.0533C76.9199 49.9424 78.871 47.4892 82.8285 45.3637C86.4447 43.4203 92.5555 41.3247 101.284 42.2533L101.434 40.8794C86.9534 39.3333 79.2581 45.521 76.5992 48.2838L76.228 48.6711L72.4237 45.5326V45.5326ZM71.9166 56.5241L71.0682 42.836L76.1426 47.0207C79.2707 43.9434 87.4021 37.9428 102.158 39.7123L102.745 39.7819L102.327 43.6239L101.737 43.5528C92.9915 42.5016 86.9218 44.5592 83.3688 46.4678C79.6277 48.4774 77.8299 50.7387 77.7541 50.8347L77.1127 51.6723L78.9563 51.3412L82.3071 54.7214L71.9166 56.5241V56.5241Z" fill="white"/>
<path d="M123.179 84.2235L123.651 84.4371L123.531 84.0563L123.179 84.2235ZM103.806 98.2311L103.948 99.2707C116.41 97.2197 121.569 90.2606 123.222 87.3306L123.489 86.8589L127.268 88.5854L124.838 80.9178L119.583 83.3743L120.707 84.0332L124.241 82.3579L125.61 86.6817L122.99 85.4899L122.787 85.965C122.666 86.2398 121.55 88.6632 118.694 91.3349C116.051 93.8114 111.341 96.9847 103.806 98.2311V98.2311ZM102.941 100.679L102.468 97.1833L103.054 97.0956C110.637 95.9633 115.315 92.8347 117.904 90.4096C120.628 87.8604 121.664 85.5495 121.707 85.4518L121.991 84.788L120.65 85.4237L116.945 83.2485L125.55 79.2244L129.23 90.835L123.969 88.4315C121.939 91.7852 116.296 98.6831 103.529 100.592L102.941 100.679V100.679Z" fill="white"/>
<defs>
<filter id="filter0_d" x="0" y="0" width="208" height="208" filterUnits="userSpaceOnUse" color-interpolation-filters="sRGB">
<feFlood flood-opacity="0" result="BackgroundImageFix"/>
<feColorMatrix in="SourceAlpha" type="matrix" values="0 0 0 0 0 0 0 0 0 0 0 0 0 0 0 0 0 0 127 0"/>
<feOffset dx="4" dy="4"/>
<feGaussianBlur stdDeviation="2"/>
<feColorMatrix type="matrix" values="0 0 0 0 0 0 0 0 0 0 0 0 0 0 0 0 0 0 0.25 0"/>
<feBlend mode="normal" in2="BackgroundImageFix" result="effect1_dropShadow"/>
<feBlend mode="normal" in="SourceGraphic" in2="effect1_dropShadow" result="shape"/>
</filter>
</defs>
</svg>
