<svg width="208" height="208" viewBox="0 0 208 208" fill="none" xmlns="http://www.w3.org/2000/svg">
<g filter="url(#filter0_d)">
<rect width="200" height="200" rx="8" fill="#121212"/>
<rect width="200" height="200" rx="8" fill="white" fill-opacity="0.08"/>
</g>
<path d="M41.0426 178.13C40.3406 178.13 39.6603 178.03 39.0016 177.831C38.3516 177.632 37.836 177.367 37.4546 177.038L38.0396 175.725C38.4123 176.02 38.8673 176.262 39.4046 176.453C39.9506 176.635 40.4966 176.726 41.0426 176.726C41.7186 176.726 42.2213 176.618 42.5506 176.401C42.8886 176.184 43.0576 175.898 43.0576 175.543C43.0576 175.283 42.9623 175.071 42.7716 174.906C42.5896 174.733 42.3556 174.598 42.0696 174.503C41.7836 174.408 41.3936 174.299 40.8996 174.178C40.2063 174.013 39.643 173.849 39.2096 173.684C38.785 173.519 38.4166 173.264 38.1046 172.917C37.8013 172.562 37.6496 172.085 37.6496 171.487C37.6496 170.984 37.784 170.529 38.0526 170.122C38.33 169.706 38.7416 169.377 39.2876 169.134C39.8423 168.891 40.5183 168.77 41.3156 168.77C41.8703 168.77 42.4163 168.839 42.9536 168.978C43.491 169.117 43.9546 169.316 44.3446 169.576L43.8116 170.889C43.413 170.655 42.997 170.477 42.5636 170.356C42.1303 170.235 41.71 170.174 41.3026 170.174C40.6353 170.174 40.137 170.287 39.8076 170.512C39.487 170.737 39.3266 171.036 39.3266 171.409C39.3266 171.669 39.4176 171.881 39.5996 172.046C39.7903 172.211 40.0286 172.341 40.3146 172.436C40.6006 172.531 40.9906 172.64 41.4846 172.761C42.1606 172.917 42.7153 173.082 43.1486 173.255C43.582 173.42 43.9503 173.675 44.2536 174.022C44.5656 174.369 44.7216 174.837 44.7216 175.426C44.7216 175.929 44.583 176.384 44.3056 176.791C44.037 177.198 43.6253 177.523 43.0706 177.766C42.516 178.009 41.84 178.13 41.0426 178.13ZM48.8665 170.33H45.8505V168.9H53.5725V170.33H50.5565V178H48.8665V170.33ZM62.4158 176.583V178H55.5908V168.9H62.2338V170.317H57.2808V172.683H61.6748V174.074H57.2808V176.583H62.4158ZM70.9518 175.894H66.4018L65.5048 178H63.7628L67.8578 168.9H69.5218L73.6298 178H71.8618L70.9518 175.894ZM70.3928 174.568L68.6768 170.59L66.9738 174.568H70.3928ZM83.8961 178L83.8831 171.968L80.8931 176.96H80.1391L77.1491 172.046V178H75.5371V168.9H76.9281L80.5421 174.932L84.0911 168.9H85.4821L85.4951 178H83.8961ZM99.8709 176.583V178H93.0459V168.9H99.6889V170.317H94.7359V172.683H99.1299V174.074H94.7359V176.583H99.8709ZM108.136 178L105.666 174.542L103.222 178H101.298L104.678 173.359L101.48 168.9H103.391L105.718 172.137L108.019 168.9H109.852L106.667 173.294L110.086 178H108.136ZM113.619 170.33H110.603V168.9H118.325V170.33H115.309V178H113.619V170.33ZM127.169 176.583V178H120.344V168.9H126.987V170.317H122.034V172.683H126.428V174.074H122.034V176.583H127.169ZM135.757 178L133.898 175.335C133.82 175.344 133.703 175.348 133.547 175.348H131.493V178H129.803V168.9H133.547C134.335 168.9 135.02 169.03 135.601 169.29C136.19 169.55 136.641 169.923 136.953 170.408C137.265 170.893 137.421 171.47 137.421 172.137C137.421 172.822 137.252 173.411 136.914 173.905C136.584 174.399 136.108 174.767 135.484 175.01L137.577 178H135.757ZM135.718 172.137C135.718 171.556 135.527 171.11 135.146 170.798C134.764 170.486 134.205 170.33 133.469 170.33H131.493V173.957H133.469C134.205 173.957 134.764 173.801 135.146 173.489C135.527 173.168 135.718 172.718 135.718 172.137ZM140.061 168.9H141.751V178H140.061V168.9ZM149.214 178.13C148.287 178.13 147.45 177.931 146.705 177.532C145.96 177.125 145.375 176.566 144.95 175.855C144.525 175.136 144.313 174.334 144.313 173.45C144.313 172.566 144.525 171.769 144.95 171.058C145.375 170.339 145.96 169.78 146.705 169.381C147.45 168.974 148.287 168.77 149.214 168.77C150.141 168.77 150.978 168.974 151.723 169.381C152.468 169.78 153.053 170.334 153.478 171.045C153.903 171.756 154.115 172.557 154.115 173.45C154.115 174.343 153.903 175.144 153.478 175.855C153.053 176.566 152.468 177.125 151.723 177.532C150.978 177.931 150.141 178.13 149.214 178.13ZM149.214 176.648C149.821 176.648 150.367 176.514 150.852 176.245C151.337 175.968 151.719 175.586 151.996 175.101C152.273 174.607 152.412 174.057 152.412 173.45C152.412 172.843 152.273 172.297 151.996 171.812C151.719 171.318 151.337 170.937 150.852 170.668C150.367 170.391 149.821 170.252 149.214 170.252C148.607 170.252 148.061 170.391 147.576 170.668C147.091 170.937 146.709 171.318 146.432 171.812C146.155 172.297 146.016 172.843 146.016 173.45C146.016 174.057 146.155 174.607 146.432 175.101C146.709 175.586 147.091 175.968 147.576 176.245C148.061 176.514 148.607 176.648 149.214 176.648ZM162.61 178L160.751 175.335C160.673 175.344 160.556 175.348 160.4 175.348H158.346V178H156.656V168.9H160.4C161.189 168.9 161.874 169.03 162.454 169.29C163.044 169.55 163.494 169.923 163.806 170.408C164.118 170.893 164.274 171.47 164.274 172.137C164.274 172.822 164.105 173.411 163.767 173.905C163.438 174.399 162.961 174.767 162.337 175.01L164.43 178H162.61ZM162.571 172.137C162.571 171.556 162.381 171.11 161.999 170.798C161.618 170.486 161.059 170.33 160.322 170.33H158.346V173.957H160.322C161.059 173.957 161.618 173.801 161.999 173.489C162.381 173.168 162.571 172.718 162.571 172.137Z" fill="white" fill-opacity="0.87"/>
<path d="M99.4996 31.2051C73.1457 31.2051 51.7048 52.645 51.7048 79.0023C51.7048 105.355 73.1457 126.795 99.4996 126.795C125.854 126.795 147.294 105.355 147.294 79.0023C147.294 52.645 125.854 31.2051 99.4996 31.2051ZM99.4996 129C71.9276 129 49.4996 106.573 49.4996 79.0023C49.4996 51.4315 71.9276 29 99.4996 29C127.072 29 149.5 51.4315 149.5 79.0023C149.5 106.573 127.072 129 99.4996 129Z" fill="white" fill-opacity="0.87"/>
<path d="M99.5 35.8013C75.6818 35.8013 56.3058 55.1765 56.3058 78.9981C56.3058 102.811 75.6818 122.19 99.5 122.19C123.318 122.19 142.694 102.811 142.694 78.9981C142.694 55.1765 123.318 35.8013 99.5 35.8013ZM99.5 123.168C75.143 123.168 55.3232 103.354 55.3232 78.9981C55.3232 54.6377 75.143 34.8233 99.5 34.8233C123.857 34.8233 143.677 54.6377 143.677 78.9981C143.677 103.354 123.857 123.168 99.5 123.168Z" fill="white" fill-opacity="0.87"/>
<path d="M76.3241 51.1923L81.5719 68.1438L94.4356 57.8814L77.2416 50.221L76.3241 51.1923Z" fill="white" fill-opacity="0.87"/>
<path d="M79.8954 74.2792C79.7142 74.6007 79.5965 74.8452 79.5512 74.972C79.4244 75.3568 79.3746 75.547 79.3339 75.6557C79.1165 75.6013 78.8675 75.5063 78.6728 75.5697C78.4781 75.6466 78.4418 75.8368 78.2109 75.8957C77.9392 75.95 77.5407 75.8006 77.2736 75.7644C76.6985 75.6693 76.1008 75.5878 75.5302 75.4564C74.6065 75.2436 74.2805 74.3833 74.3348 73.5185C74.3982 72.7125 75.2178 72.4454 75.8698 72.3503C76.5174 72.2325 77.4049 71.9428 78.0162 72.3095C78.9082 72.8619 78.555 74.5237 79.8954 74.2792Z" fill="white" fill-opacity="0.87"/>
<path d="M120.086 93.8389C118.991 93.8389 117.94 93.8751 116.871 93.8978C116.428 93.9068 115.993 93.9068 115.554 93.9068C114.625 93.9068 112.683 93.9838 111.845 93.6759C110.469 93.2141 110.111 91.3938 109.735 90.0943C109.83 90.0671 109.925 90.0445 110.034 90.0264C110.17 90.0083 110.324 89.9766 110.478 89.9494C110.573 89.9403 110.677 89.9222 110.785 89.8996C110.822 89.8996 110.849 89.8996 110.89 89.8905C111.025 89.8724 111.179 89.8543 111.324 89.8317H111.361C111.505 89.8135 111.659 89.7954 111.813 89.7773C112.189 89.7366 112.583 89.6958 113 89.6687C113.113 89.6687 113.231 89.6596 113.344 89.6505C113.969 89.6007 114.616 89.5645 115.25 89.5464C115.413 89.5328 115.581 89.5238 115.744 89.5147H116.102C116.246 89.5056 116.378 89.5056 116.523 89.4966H116.862C118.506 89.4694 119.846 89.5328 120.231 89.6687C121.259 90.0535 121.078 90.9999 121.386 92.0006C121.694 93.3771 121.463 93.8389 120.086 93.8389ZM108.195 91.9326C107.702 93.3091 105.786 93.128 105.596 93.128L92.3242 93.1371C92.143 93.1371 90.214 93.3273 89.725 91.9508C89.2178 90.5652 88.4526 88.342 88.1854 87.2371C87.8956 86.0689 86.9538 84.0676 92.5958 84.1898C95.5029 84.2487 97.604 84.2487 98.9534 84.2306C100.307 84.2487 102.408 84.2487 105.315 84.1808C110.949 84.0449 110.016 86.0508 109.726 87.2145C109.454 88.3239 108.693 90.5561 108.195 91.9326ZM86.0843 93.694C85.2376 94.0019 83.295 93.934 82.3667 93.934C82.0316 93.934 81.692 93.934 81.366 93.9249C80.56 93.9159 79.7494 93.8978 78.9344 93.8887C78.5676 93.8751 78.2099 93.8751 77.834 93.8751C76.4575 93.8751 76.2265 93.4133 76.5344 92.0413C76.8424 91.0361 76.6476 90.0943 77.6801 89.7094C78.0559 89.5736 79.3057 89.5147 80.8588 89.5238C81.0219 89.5238 81.1939 89.5238 81.366 89.5328C81.8777 89.5464 82.4165 89.5555 82.9644 89.5826C83.295 89.5917 83.621 89.6098 83.9471 89.6324C84.0738 89.6324 84.187 89.6415 84.3048 89.6505C84.4904 89.6596 84.6625 89.6822 84.8346 89.6868C85.0066 89.6958 85.1832 89.7185 85.3553 89.7275C85.5274 89.7456 85.6904 89.7683 85.8534 89.7773C86.107 89.7954 86.347 89.8226 86.5779 89.8543C86.7319 89.8724 86.8858 89.8905 87.0217 89.9086C87.1439 89.9313 87.2617 89.9494 87.3749 89.9584C87.4337 89.9675 87.4926 89.9766 87.5424 89.9856C87.6194 89.9947 87.6873 90.0173 87.7507 90.0264C87.7824 90.0354 87.8096 90.0354 87.8277 90.0354C87.8775 90.0445 87.9228 90.0535 87.9726 90.0671C88.0496 90.0852 88.1175 90.0943 88.1854 90.1124C87.8005 91.4119 87.4609 93.2322 86.0843 93.694ZM77.0461 80.821C77.2182 80.0241 77.3903 80.1373 78.2461 80.1282C79.5683 80.1282 80.8407 80.255 82.1584 80.486C83.8882 80.7622 85.9032 80.7078 87.6194 81.215C85.6225 84.7875 83.4308 84.1627 80.8951 84.1627C79.5185 84.1627 77.3903 84.1627 77.0461 82.4964C76.9284 82.0345 76.9284 81.3417 77.0461 80.821ZM84.8753 67.4273L98.9534 66.9383L113 67.4001C113 67.4001 118.076 75.2924 117.691 75.2924C117.324 75.2924 104.641 74.5815 98.9398 74.7083C93.2479 74.5905 80.56 75.3241 80.2023 75.3241C79.8174 75.3241 84.8753 67.4273 84.8753 67.4273ZM119.643 80.0965C120.512 80.0965 120.684 79.9834 120.856 80.7848C120.969 81.301 120.969 81.9938 120.856 82.4601C120.512 84.1219 118.388 84.1219 117.003 84.1219C114.471 84.131 112.275 84.7603 110.283 81.1968C111.999 80.6852 114.019 80.735 115.744 80.4543C117.052 80.2143 118.325 80.0965 119.643 80.0965ZM123.405 80.6988C123.36 79.8883 121.481 78.1541 120.942 77.6243C120.589 77.2756 119.335 76.207 118.923 75.9399C118.674 75.7859 118.624 75.7859 118.556 75.632C118.515 75.5188 118.47 75.3241 118.343 74.9483C118.293 74.8124 118.18 74.5724 117.999 74.2555C116.917 72.2994 113.77 67.4364 113.507 67.1692C113.194 66.8613 112.506 66.2455 111.524 66.0689C110.555 65.9059 100.778 65.3943 98.9398 65.3943C97.0923 65.3943 87.3205 65.924 86.347 66.1006C85.3644 66.2727 84.6806 66.8794 84.3727 67.1873C84.1101 67.4545 80.963 72.3311 79.8943 74.2826C79.7087 74.6087 79.5955 74.8532 79.5457 74.9754C79.4234 75.3603 79.3736 75.555 79.3374 75.6591C79.2876 75.7678 79.0385 75.9399 78.9434 75.9897L78.9117 76.0169C78.6446 76.198 77.5442 76.9406 76.9601 77.5654C76.0635 78.5118 74.5285 79.9245 74.4922 80.735C74.456 81.5455 74.1073 82.1115 74.1934 83.728C74.2251 84.5068 74.4424 86.8749 74.6553 89.1298C74.8681 91.498 75.099 93.7438 75.1171 93.9159C75.1579 94.2645 75.0401 94.6494 75.1941 94.9483C75.3481 95.2516 75.7375 95.3422 76.3397 95.3331C76.5344 95.3331 78.5676 95.3603 81.366 95.4011C88.0315 95.478 98.9579 95.6229 98.9579 95.6229C98.9579 95.6229 110.238 95.4554 116.871 95.3603C119.498 95.3241 121.409 95.2924 121.581 95.2924C122.187 95.2924 122.568 95.2154 122.731 94.9075C122.88 94.6087 122.762 94.2238 122.803 93.8751C122.83 93.6397 123.224 89.5826 123.482 86.5987C123.6 85.2765 123.686 84.1717 123.718 83.6827C123.795 82.0707 123.446 81.4957 123.405 80.6988Z" fill="white" fill-opacity="0.87"/>
<path d="M81.3688 96.3648V99.0136C81.3688 99.2627 81.1695 99.4755 80.9159 99.4755L75.1289 99.4845C74.8708 99.4845 74.6671 99.2717 74.6671 99.0227V95.8169C75.1697 96.2787 75.8987 96.2969 76.3063 96.2969C76.3153 96.2969 81.3597 96.3648 81.3597 96.3648H81.3688Z" fill="white" fill-opacity="0.87"/>
<path d="M123.586 95.3482V98.9569C123.586 99.2196 123.382 99.4188 123.119 99.4188L117.337 99.4324C117.083 99.4324 116.875 99.2196 116.875 98.9705V96.3126C119.61 96.2719 121.543 96.2447 121.584 96.2447C122.037 96.2447 123.083 96.2447 123.586 95.3482Z" fill="white" fill-opacity="0.87"/>
<path d="M80.8489 91.7409C80.8489 92.7099 80.0655 93.4932 79.0965 93.4977C78.1275 93.4977 77.3441 92.7099 77.3396 91.7409C77.3396 90.7764 78.1229 89.9886 79.0965 89.9886C80.061 89.9886 80.8489 90.7719 80.8489 91.7409Z" fill="white" fill-opacity="0.87"/>
<path d="M122.372 75.4276C121.802 75.5589 121.199 75.6404 120.624 75.7355C120.357 75.7717 119.959 75.9257 119.687 75.8713C119.456 75.8125 119.42 75.6223 119.225 75.5453C119.026 75.4819 118.786 75.577 118.564 75.6313C118.523 75.5227 118.469 75.3325 118.347 74.9521C118.301 74.8208 118.184 74.5809 118.003 74.2594C119.338 74.4993 118.981 72.8376 119.877 72.2852C120.484 71.9184 121.371 72.2082 122.024 72.3214C122.671 72.4165 123.5 72.6836 123.554 73.4896C123.613 74.3545 123.291 75.2102 122.372 75.4276Z" fill="white" fill-opacity="0.87"/>
<path d="M83.8661 91.7299C83.8661 92.4182 83.3047 92.9796 82.6164 92.9796C81.9236 92.9796 81.3621 92.4227 81.3621 91.7299C81.3575 91.0417 81.919 90.4802 82.6164 90.4802C83.3047 90.4802 83.8661 91.0371 83.8661 91.7299Z" fill="white" fill-opacity="0.87"/>
<path d="M120.464 91.6915C120.469 92.656 119.685 93.4484 118.712 93.4484C117.747 93.4484 116.955 92.6605 116.955 91.6915C116.95 90.7225 117.743 89.9347 118.712 89.9347C119.681 89.9347 120.464 90.718 120.464 91.6915Z" fill="white" fill-opacity="0.87"/>
<path d="M116.269 91.7051C116.269 92.3979 115.708 92.9548 115.019 92.9548C114.331 92.9548 113.769 92.3979 113.769 91.7051C113.769 91.0169 114.326 90.4554 115.019 90.4554C115.708 90.4554 116.269 91.0123 116.269 91.7051Z" fill="white" fill-opacity="0.87"/>
<defs>
<filter id="filter0_d" x="0" y="0" width="208" height="208" filterUnits="userSpaceOnUse" color-interpolation-filters="sRGB">
<feFlood flood-opacity="0" result="BackgroundImageFix"/>
<feColorMatrix in="SourceAlpha" type="matrix" values="0 0 0 0 0 0 0 0 0 0 0 0 0 0 0 0 0 0 127 0"/>
<feOffset dx="4" dy="4"/>
<feGaussianBlur stdDeviation="2"/>
<feColorMatrix type="matrix" values="0 0 0 0 0 0 0 0 0 0 0 0 0 0 0 0 0 0 0.25 0"/>
<feBlend mode="normal" in2="BackgroundImageFix" result="effect1_dropShadow"/>
<feBlend mode="normal" in="SourceGraphic" in2="effect1_dropShadow" result="shape"/>
</filter>
</defs>
</svg>
