<svg width="208" height="208" viewBox="0 0 208 208" fill="none" xmlns="http://www.w3.org/2000/svg">
<g filter="url(#filter0_d)">
<rect width="200" height="200" rx="8" fill="#121212"/>
<rect width="200" height="200" rx="8" fill="white" fill-opacity="0.08"/>
</g>
<path d="M46.473 152.13C45.5457 152.13 44.7093 151.931 43.964 151.532C43.2187 151.125 42.6337 150.566 42.209 149.855C41.7843 149.136 41.572 148.334 41.572 147.45C41.572 146.566 41.7843 145.769 42.209 145.058C42.6337 144.339 43.2187 143.78 43.964 143.381C44.7093 142.974 45.5457 142.77 46.473 142.77C47.4003 142.77 48.2367 142.974 48.982 143.381C49.7273 143.78 50.3123 144.334 50.737 145.045C51.1617 145.756 51.374 146.557 51.374 147.45C51.374 148.343 51.1617 149.144 50.737 149.855C50.3123 150.566 49.7273 151.125 48.982 151.532C48.2367 151.931 47.4003 152.13 46.473 152.13ZM46.473 150.648C47.0797 150.648 47.6257 150.514 48.111 150.245C48.5963 149.968 48.9777 149.586 49.255 149.101C49.5323 148.607 49.671 148.057 49.671 147.45C49.671 146.843 49.5323 146.297 49.255 145.812C48.9777 145.318 48.5963 144.937 48.111 144.668C47.6257 144.391 47.0797 144.252 46.473 144.252C45.8663 144.252 45.3203 144.391 44.835 144.668C44.3497 144.937 43.9683 145.318 43.691 145.812C43.4137 146.297 43.275 146.843 43.275 147.45C43.275 148.057 43.4137 148.607 43.691 149.101C43.9683 149.586 44.3497 149.968 44.835 150.245C45.3203 150.514 45.8663 150.648 46.473 150.648ZM60.3634 147.268C60.866 147.433 61.2647 147.71 61.5594 148.1C61.854 148.481 62.0014 148.958 62.0014 149.53C62.0014 150.319 61.698 150.93 61.0914 151.363C60.4847 151.788 59.6007 152 58.4394 152H53.9154V142.9H58.1794C59.254 142.9 60.0817 143.112 60.6624 143.537C61.243 143.953 61.5334 144.529 61.5334 145.266C61.5334 145.717 61.4294 146.115 61.2214 146.462C61.0134 146.809 60.7274 147.077 60.3634 147.268ZM55.6054 144.226V146.735H57.9974C58.5867 146.735 59.0374 146.631 59.3494 146.423C59.67 146.206 59.8304 145.894 59.8304 145.487C59.8304 145.071 59.67 144.759 59.3494 144.551C59.0374 144.334 58.5867 144.226 57.9974 144.226H55.6054ZM58.3354 150.674C59.644 150.674 60.2984 150.236 60.2984 149.361C60.2984 148.486 59.644 148.048 58.3354 148.048H55.6054V150.674H58.3354ZM64.555 142.9H68.533C69.5037 142.9 70.366 143.091 71.12 143.472C71.874 143.845 72.459 144.378 72.875 145.071C73.291 145.756 73.499 146.549 73.499 147.45C73.499 148.351 73.291 149.149 72.875 149.842C72.459 150.527 71.874 151.06 71.12 151.441C70.366 151.814 69.5037 152 68.533 152H64.555V142.9ZM68.455 150.57C69.1223 150.57 69.7073 150.444 70.21 150.193C70.7213 149.933 71.1113 149.569 71.38 149.101C71.6573 148.624 71.796 148.074 71.796 147.45C71.796 146.826 71.6573 146.28 71.38 145.812C71.1113 145.335 70.7213 144.971 70.21 144.72C69.7073 144.46 69.1223 144.33 68.455 144.33H66.245V150.57H68.455ZM88.747 152L88.734 145.968L85.744 150.96H84.99L82 146.046V152H80.388V142.9H81.779L85.393 148.932L88.942 142.9H90.333L90.346 152H88.747ZM99.456 149.894H94.906L94.009 152H92.267L96.362 142.9H98.026L102.134 152H100.366L99.456 149.894ZM98.897 148.568L97.181 144.59L95.478 148.568H98.897ZM107.785 142.9C108.574 142.9 109.259 143.03 109.839 143.29C110.429 143.55 110.879 143.923 111.191 144.408C111.503 144.893 111.659 145.47 111.659 146.137C111.659 146.796 111.503 147.372 111.191 147.866C110.879 148.351 110.429 148.724 109.839 148.984C109.259 149.244 108.574 149.374 107.785 149.374H105.731V152H104.041V142.9H107.785ZM107.707 147.944C108.444 147.944 109.003 147.788 109.384 147.476C109.766 147.164 109.956 146.718 109.956 146.137C109.956 145.556 109.766 145.11 109.384 144.798C109.003 144.486 108.444 144.33 107.707 144.33H105.731V147.944H107.707ZM117.841 142.9C118.63 142.9 119.314 143.03 119.895 143.29C120.484 143.55 120.935 143.923 121.247 144.408C121.559 144.893 121.715 145.47 121.715 146.137C121.715 146.796 121.559 147.372 121.247 147.866C120.935 148.351 120.484 148.724 119.895 148.984C119.314 149.244 118.63 149.374 117.841 149.374H115.787V152H114.097V142.9H117.841ZM117.763 147.944C118.5 147.944 119.059 147.788 119.44 147.476C119.821 147.164 120.012 146.718 120.012 146.137C120.012 145.556 119.821 145.11 119.44 144.798C119.059 144.486 118.5 144.33 117.763 144.33H115.787V147.944H117.763ZM124.153 142.9H125.843V152H124.153V142.9ZM137.14 142.9V152H135.749L130.731 145.838V152H129.054V142.9H130.445L135.463 149.062V142.9H137.14ZM146.542 147.346H148.141V150.973C147.673 151.346 147.127 151.632 146.503 151.831C145.879 152.03 145.238 152.13 144.579 152.13C143.652 152.13 142.816 151.931 142.07 151.532C141.325 151.125 140.74 150.566 140.315 149.855C139.891 149.144 139.678 148.343 139.678 147.45C139.678 146.557 139.891 145.756 140.315 145.045C140.74 144.334 141.325 143.78 142.07 143.381C142.824 142.974 143.669 142.77 144.605 142.77C145.368 142.77 146.061 142.896 146.685 143.147C147.309 143.398 147.834 143.767 148.258 144.252L147.192 145.292C146.499 144.599 145.663 144.252 144.683 144.252C144.042 144.252 143.47 144.386 142.967 144.655C142.473 144.924 142.083 145.301 141.797 145.786C141.52 146.271 141.381 146.826 141.381 147.45C141.381 148.057 141.52 148.603 141.797 149.088C142.083 149.573 142.473 149.955 142.967 150.232C143.47 150.509 144.038 150.648 144.67 150.648C145.381 150.648 146.005 150.492 146.542 150.18V147.346Z" fill="white" fill-opacity="0.87"/>
<path d="M117.728 89.954L90.149 89.375C88.5112 89.3398 86.9853 88.6697 85.8497 87.4877C84.7174 86.3041 84.1112 84.7511 84.1448 83.1133C84.2183 79.7753 86.9565 77.1074 90.2786 77.1074H90.4065L111.129 77.5441C111.863 77.5713 112.643 77.2738 113.206 76.7332C113.766 76.1942 114.088 75.4696 114.102 74.6907L114.108 74.398C114.126 73.6207 113.838 72.8833 113.297 72.3203C112.76 71.7589 112.034 71.4407 111.257 71.4247L84.8437 70.8697L84.9125 67.65L111.324 68.205C112.962 68.2386 114.489 68.9088 115.623 70.0923C116.759 71.2743 117.362 72.829 117.328 74.4668L117.322 74.7595C117.288 76.3957 116.618 77.9231 115.434 79.0571C114.252 80.1911 112.752 80.7813 111.06 80.7621L90.3393 80.3271C88.7239 80.2743 87.398 81.5746 87.366 83.1804C87.3484 83.9578 87.6379 84.6967 88.1737 85.2581C88.7127 85.8211 89.4389 86.1394 90.2162 86.1554L117.797 86.7344L117.728 89.954Z" fill="white"/>
<path d="M92.4167 70.5756L80.7073 72.0806L80.8304 66.2443L93.0548 67.9605L92.4167 70.5756Z" fill="white"/>
<path d="M80.9605 66.416L80.8453 71.926L92.2924 70.4529L92.8714 68.0874L80.9605 66.416ZM80.551 72.2507L80.6806 66.0881L93.2233 67.849L92.5227 70.712L80.551 72.2507Z" fill="white"/>
<path d="M92.1275 100.566L92.1467 99.7313C92.1627 98.9012 92.0908 98.3078 91.9276 97.9512C91.7645 97.5945 91.4606 97.3626 91.0127 97.2522C90.6977 97.1706 90.0947 97.1211 89.2038 97.1019L87.7243 97.0715C86.4928 97.0459 85.7123 97.1547 85.3844 97.3962C84.9861 97.6953 84.775 98.4262 84.7526 99.589L84.7334 100.424C84.7094 101.553 84.8949 102.271 85.2884 102.578C85.5971 102.809 86.3568 102.937 87.5628 102.964L89.1046 102.996C89.9811 103.013 90.5713 102.993 90.88 102.932C91.3326 102.85 91.6477 102.639 91.83 102.298C92.0124 101.958 92.1099 101.38 92.1275 100.566ZM93.6566 100.648C93.631 101.811 93.4743 102.661 93.1816 103.199C92.8921 103.738 92.4074 104.09 91.7325 104.259C91.1935 104.398 90.3154 104.454 89.0998 104.429L87.4556 104.394C86.2065 104.366 85.2996 104.245 84.735 104.026C84.1096 103.787 83.6906 103.364 83.4731 102.753C83.2731 102.183 83.1852 101.289 83.2107 100.067C83.2379 98.7717 83.3467 97.844 83.537 97.2826C83.7641 96.6236 84.1896 96.171 84.815 95.9263C85.4068 95.6896 86.3584 95.5856 87.6667 95.6128L89.2982 95.6464C90.6993 95.6752 91.7053 95.8383 92.3163 96.1342C92.9273 96.4301 93.3175 96.9435 93.4903 97.6793C93.631 98.2295 93.687 99.2195 93.6566 100.648Z" fill="white"/>
<path d="M87.2682 97.3147C86.051 97.3147 85.5744 97.4682 85.3905 97.6042C85.1569 97.7817 84.869 98.2791 84.8403 99.6386L84.8243 100.474C84.7939 101.788 85.0658 102.282 85.3009 102.465C85.4832 102.604 86.0126 102.777 87.4553 102.807L88.9972 102.839C89.8481 102.858 90.4334 102.837 90.7293 102.781C91.1228 102.71 91.3867 102.535 91.5402 102.249C91.705 101.939 91.7978 101.387 91.8153 100.608L91.8329 99.7746C91.8489 98.9765 91.7818 98.4071 91.633 98.0808C91.4955 97.7801 91.238 97.5882 90.8525 97.4938C90.5518 97.4154 89.96 97.3674 89.0867 97.3482L87.6073 97.3179C87.4905 97.3163 87.3753 97.3147 87.2682 97.3147ZM89.5714 103.249C89.3938 103.249 89.2003 103.245 88.9876 103.242L87.4457 103.21C86.1838 103.183 85.4017 103.045 85.0546 102.785C84.6003 102.43 84.394 101.671 84.4212 100.464L84.4372 99.6306C84.4628 98.3911 84.6963 97.6233 85.1505 97.2811C85.52 97.0092 86.3053 96.8924 87.6169 96.9164L89.0963 96.9468C90.0112 96.966 90.619 97.0172 90.9501 97.1035C91.4539 97.2267 91.8089 97.5002 91.9977 97.9128C92.1752 98.3015 92.252 98.9125 92.2328 99.781L92.2168 100.616C92.1976 101.472 92.0936 102.068 91.8953 102.439C91.6842 102.834 91.3179 103.082 90.8045 103.177C90.555 103.225 90.1503 103.249 89.5714 103.249ZM87.1594 95.856C86.083 95.856 85.2833 95.9567 84.7747 96.1583C84.2021 96.3822 83.8214 96.7868 83.6151 97.393C83.4328 97.932 83.3256 98.8485 83.3 100.117C83.2744 101.31 83.3608 102.19 83.5511 102.73C83.7478 103.289 84.1221 103.664 84.6947 103.883C85.2353 104.093 86.1262 104.211 87.3482 104.239L88.9924 104.272C90.1759 104.299 91.0492 104.243 91.569 104.111C92.1944 103.954 92.6279 103.64 92.8918 103.149C93.1669 102.641 93.3204 101.814 93.3428 100.689C93.3716 99.2836 93.3172 98.3031 93.1813 97.7753C93.0245 97.0923 92.6742 96.6317 92.116 96.3598C91.537 96.0799 90.5486 95.9232 89.1811 95.8928L87.5497 95.8592C87.4153 95.856 87.2858 95.856 87.1594 95.856ZM89.5458 104.68C89.3666 104.68 89.1795 104.678 88.9828 104.675L87.3386 104.64C86.0542 104.613 85.1409 104.488 84.5508 104.259C83.8726 104 83.4088 103.532 83.1705 102.865C82.9625 102.27 82.873 101.369 82.8985 100.109C82.9241 98.7813 83.0345 97.8505 83.2344 97.2635C83.4791 96.5485 83.9494 96.0511 84.6291 95.784C85.2497 95.5361 86.1886 95.4257 87.5593 95.4577L89.1907 95.4913C90.6366 95.5217 91.6506 95.688 92.2936 95.9983C92.9573 96.3214 93.3876 96.886 93.5731 97.6793C93.7187 98.2471 93.7746 99.2356 93.7459 100.697C93.7203 101.903 93.5587 102.767 93.2452 103.341C92.9285 103.928 92.3975 104.317 91.6682 104.499C91.1948 104.621 90.4974 104.68 89.5458 104.68Z" fill="white"/>
<path d="M102.21 100.73L96.8328 100.618L96.7784 103.209L102.221 103.322C103.189 103.343 103.685 102.905 103.704 102.008C103.72 101.177 103.224 100.752 102.21 100.73ZM101.978 97.2108L96.9064 97.1037L96.8584 99.2965L101.946 99.4036C102.845 99.4228 103.304 99.0742 103.318 98.3608C103.334 97.6139 102.888 97.23 101.978 97.2108ZM102.383 104.647L95.2334 104.496L95.4157 95.765L101.994 95.9025C102.895 95.9217 103.573 96.0736 104.025 96.3567C104.577 96.7166 104.846 97.3132 104.828 98.1433C104.819 98.6167 104.777 98.9766 104.705 99.2245C104.585 99.6132 104.361 99.8819 104.025 100.032C104.836 100.274 105.23 100.976 105.206 102.139C105.185 103.068 104.95 103.725 104.5 104.106C104.049 104.487 103.344 104.666 102.383 104.647Z" fill="white"/>
<path d="M97.1148 99.1498L102.001 99.2521C102.022 99.2537 102.044 99.2537 102.067 99.2537C103.025 99.2537 103.157 98.8027 103.167 98.406C103.175 98.0925 103.09 97.867 102.914 97.7167C102.729 97.5567 102.428 97.472 102.023 97.4624L97.15 97.36L97.1148 99.1498ZM102.063 99.6552H101.991L96.7038 99.5448L96.7581 96.9506L102.033 97.0593C102.534 97.0705 102.918 97.1889 103.177 97.4096C103.447 97.6415 103.58 97.9806 103.57 98.4156C103.557 98.9834 103.284 99.6552 102.063 99.6552ZM97.0332 103.06L102.276 103.171C102.686 103.182 103.028 103.092 103.234 102.908C103.441 102.726 103.545 102.448 103.551 102.054C103.561 101.605 103.437 101.005 102.257 100.981L97.078 100.872L97.0332 103.06ZM102.334 103.575C102.311 103.575 102.289 103.575 102.267 103.574L96.6206 103.455L96.6846 100.461L102.267 100.58C103.685 100.608 103.968 101.402 103.954 102.062C103.944 102.566 103.791 102.952 103.501 103.211C103.228 103.452 102.834 103.575 102.334 103.575ZM102.438 104.495C103.362 104.516 104.012 104.348 104.419 104.001C104.821 103.662 105.035 103.049 105.054 102.184C105.077 101.115 104.738 100.49 104.016 100.276L103.5 100.121L103.994 99.8983C104.274 99.7735 104.459 99.5496 104.562 99.2153C104.627 98.9914 104.667 98.6444 104.679 98.1885C104.693 97.4256 104.461 96.8978 103.965 96.5747C103.548 96.314 102.898 96.1716 102.039 96.154L95.6625 96.0197L95.4882 104.349L102.438 104.495ZM102.577 104.9C102.529 104.9 102.479 104.9 102.428 104.898L95.0771 104.745L95.2707 95.6086L102.049 95.751C102.982 95.7718 103.7 95.9333 104.183 96.2356C104.797 96.6371 105.099 97.296 105.078 98.1965C105.069 98.6955 105.024 99.0666 104.947 99.3305C104.858 99.628 104.709 99.8663 104.506 100.044C105.16 100.402 105.478 101.122 105.457 102.192C105.435 103.179 105.174 103.89 104.68 104.31C104.211 104.706 103.522 104.9 102.577 104.9Z" fill="white"/>
<path d="M115.196 101.151L115.22 100.055C115.239 99.0825 115.085 98.4235 114.756 98.0764C114.428 97.7278 113.766 97.5438 112.771 97.523L108.323 97.4303L108.195 103.521L112.76 103.617C113.779 103.638 114.445 103.478 114.759 103.135C115.029 102.833 115.173 102.173 115.196 101.151ZM116.71 101.232C116.681 102.694 116.422 103.678 115.936 104.183C115.405 104.727 114.406 104.984 112.936 104.954L106.635 104.821L106.821 96.0771L112.9 96.2051C114.151 96.2307 115.06 96.437 115.631 96.8225C116.15 97.1664 116.48 97.7262 116.616 98.5019C116.707 99.0009 116.739 99.9126 116.71 101.232Z" fill="white"/>
<path d="M108.45 103.373L112.811 103.465C112.869 103.467 112.925 103.467 112.979 103.467C114.046 103.467 114.481 103.241 114.659 103.05C114.819 102.87 115.017 102.4 115.044 101.196L115.067 100.1C115.084 99.1885 114.947 98.5695 114.659 98.2641C114.371 97.9586 113.749 97.7938 112.815 97.7746L108.568 97.6835L108.45 103.373ZM112.983 103.868C112.925 103.868 112.864 103.868 112.802 103.867L108.039 103.768L108.175 97.274L112.824 97.3716C113.885 97.394 114.58 97.5955 114.95 97.9874C115.321 98.3792 115.49 99.0734 115.468 100.107L115.446 101.205C115.422 102.285 115.263 102.978 114.955 103.32C114.617 103.689 113.971 103.868 112.983 103.868ZM106.89 104.673L112.989 104.803C114.398 104.823 115.351 104.591 115.839 104.091C116.287 103.627 116.53 102.682 116.559 101.277C116.586 99.9738 116.554 99.0702 116.468 98.5871C116.34 97.861 116.045 97.3556 115.567 97.0405C115.031 96.6774 114.148 96.4807 112.947 96.4551L107.065 96.332L106.89 104.673ZM113.224 105.207C113.146 105.207 113.062 105.206 112.979 105.206L106.479 105.068L106.673 95.9209L112.955 96.0521C114.254 96.0808 115.182 96.2936 115.793 96.7062C116.356 97.0789 116.717 97.6883 116.863 98.5168C116.957 99.0302 116.989 99.9371 116.962 101.285V101.287C116.928 102.816 116.656 103.825 116.129 104.372C115.583 104.934 114.632 105.207 113.224 105.207Z" fill="white"/>
<defs>
<filter id="filter0_d" x="0" y="0" width="208" height="208" filterUnits="userSpaceOnUse" color-interpolation-filters="sRGB">
<feFlood flood-opacity="0" result="BackgroundImageFix"/>
<feColorMatrix in="SourceAlpha" type="matrix" values="0 0 0 0 0 0 0 0 0 0 0 0 0 0 0 0 0 0 127 0"/>
<feOffset dx="4" dy="4"/>
<feGaussianBlur stdDeviation="2"/>
<feColorMatrix type="matrix" values="0 0 0 0 0 0 0 0 0 0 0 0 0 0 0 0 0 0 0.25 0"/>
<feBlend mode="normal" in2="BackgroundImageFix" result="effect1_dropShadow"/>
<feBlend mode="normal" in="SourceGraphic" in2="effect1_dropShadow" result="shape"/>
</filter>
</defs>
</svg>
