<svg width="208" height="208" viewBox="0 0 208 208" fill="none" xmlns="http://www.w3.org/2000/svg">
<g filter="url(#filter0_d)">
<rect width="200" height="200" rx="8" fill="#121212"/>
<rect width="200" height="200" rx="8" fill="white" fill-opacity="0.08"/>
</g>
<path d="M41.1024 137.9V147H39.4124V143.1H34.7064V147H33.0164V137.9H34.7064V141.657H39.4124V137.9H41.1024ZM44.2908 137.9H45.9808V147H44.2908V137.9ZM48.6852 142.71H52.2602V144.062H48.6852V142.71ZM58.6882 137.9C59.4768 137.9 60.1615 138.03 60.7422 138.29C61.3315 138.55 61.7822 138.923 62.0942 139.408C62.4062 139.893 62.5622 140.47 62.5622 141.137C62.5622 141.796 62.4062 142.372 62.0942 142.866C61.7822 143.351 61.3315 143.724 60.7422 143.984C60.1615 144.244 59.4768 144.374 58.6882 144.374H56.6342V147H54.9442V137.9H58.6882ZM58.6102 142.944C59.3468 142.944 59.9058 142.788 60.2872 142.476C60.6685 142.164 60.8592 141.718 60.8592 141.137C60.8592 140.556 60.6685 140.11 60.2872 139.798C59.9058 139.486 59.3468 139.33 58.6102 139.33H56.6342V142.944H58.6102ZM71.8248 145.583V147H64.9998V137.9H71.6428V139.317H66.6898V141.683H71.0838V143.074H66.6898V145.583H71.8248ZM80.4128 147L78.5538 144.335C78.4758 144.344 78.3588 144.348 78.2028 144.348H76.1488V147H74.4588V137.9H78.2028C78.9915 137.9 79.6762 138.03 80.2568 138.29C80.8462 138.55 81.2968 138.923 81.6088 139.408C81.9208 139.893 82.0768 140.47 82.0768 141.137C82.0768 141.822 81.9078 142.411 81.5698 142.905C81.2405 143.399 80.7638 143.767 80.1398 144.01L82.2328 147H80.4128ZM80.3738 141.137C80.3738 140.556 80.1831 140.11 79.8018 139.798C79.4205 139.486 78.8615 139.33 78.1248 139.33H76.1488V142.957H78.1248C78.8615 142.957 79.4205 142.801 79.8018 142.489C80.1831 142.168 80.3738 141.718 80.3738 141.137ZM86.4076 139.317V142.086H90.8016V143.516H86.4076V147H84.7176V137.9H91.3606V139.317H86.4076ZM97.8944 147.13C96.9671 147.13 96.1307 146.931 95.3854 146.532C94.6401 146.125 94.0551 145.566 93.6304 144.855C93.2057 144.136 92.9934 143.334 92.9934 142.45C92.9934 141.566 93.2057 140.769 93.6304 140.058C94.0551 139.339 94.6401 138.78 95.3854 138.381C96.1307 137.974 96.9671 137.77 97.8944 137.77C98.8217 137.77 99.6581 137.974 100.403 138.381C101.149 138.78 101.734 139.334 102.158 140.045C102.583 140.756 102.795 141.557 102.795 142.45C102.795 143.343 102.583 144.144 102.158 144.855C101.734 145.566 101.149 146.125 100.403 146.532C99.6581 146.931 98.8217 147.13 97.8944 147.13ZM97.8944 145.648C98.5011 145.648 99.0471 145.514 99.5324 145.245C100.018 144.968 100.399 144.586 100.676 144.101C100.954 143.607 101.092 143.057 101.092 142.45C101.092 141.843 100.954 141.297 100.676 140.812C100.399 140.318 100.018 139.937 99.5324 139.668C99.0471 139.391 98.5011 139.252 97.8944 139.252C97.2877 139.252 96.7417 139.391 96.2564 139.668C95.7711 139.937 95.3897 140.318 95.1124 140.812C94.8351 141.297 94.6964 141.843 94.6964 142.45C94.6964 143.057 94.8351 143.607 95.1124 144.101C95.3897 144.586 95.7711 144.968 96.2564 145.245C96.7417 145.514 97.2877 145.648 97.8944 145.648ZM111.291 147L109.432 144.335C109.354 144.344 109.237 144.348 109.081 144.348H107.027V147H105.337V137.9H109.081C109.869 137.9 110.554 138.03 111.135 138.29C111.724 138.55 112.175 138.923 112.487 139.408C112.799 139.893 112.955 140.47 112.955 141.137C112.955 141.822 112.786 142.411 112.448 142.905C112.118 143.399 111.642 143.767 111.018 144.01L113.111 147H111.291ZM111.252 141.137C111.252 140.556 111.061 140.11 110.68 139.798C110.298 139.486 109.739 139.33 109.003 139.33H107.027V142.957H109.003C109.739 142.957 110.298 142.801 110.68 142.489C111.061 142.168 111.252 141.718 111.252 141.137ZM123.955 147L123.942 140.968L120.952 145.96H120.198L117.208 141.046V147H115.596V137.9H116.987L120.601 143.932L124.15 137.9H125.541L125.554 147H123.955ZM134.664 144.894H130.114L129.217 147H127.475L131.57 137.9H133.234L137.342 147H135.574L134.664 144.894ZM134.105 143.568L132.389 139.59L130.686 143.568H134.105ZM147.335 137.9V147H145.944L140.926 140.838V147H139.249V137.9H140.64L145.658 144.062V137.9H147.335ZM154.735 147.13C153.817 147.13 152.985 146.931 152.239 146.532C151.503 146.125 150.922 145.566 150.497 144.855C150.081 144.144 149.873 143.343 149.873 142.45C149.873 141.557 150.086 140.756 150.51 140.045C150.935 139.334 151.516 138.78 152.252 138.381C152.998 137.974 153.83 137.77 154.748 137.77C155.494 137.77 156.174 137.9 156.789 138.16C157.405 138.42 157.925 138.797 158.349 139.291L157.257 140.318C156.599 139.607 155.788 139.252 154.826 139.252C154.202 139.252 153.643 139.391 153.149 139.668C152.655 139.937 152.27 140.314 151.992 140.799C151.715 141.284 151.576 141.835 151.576 142.45C151.576 143.065 151.715 143.616 151.992 144.101C152.27 144.586 152.655 144.968 153.149 145.245C153.643 145.514 154.202 145.648 154.826 145.648C155.788 145.648 156.599 145.288 157.257 144.569L158.349 145.609C157.925 146.103 157.4 146.48 156.776 146.74C156.161 147 155.481 147.13 154.735 147.13ZM167.544 145.583V147H160.719V137.9H167.362V139.317H162.409V141.683H166.803V143.074H162.409V145.583H167.544ZM72.7745 152.33H69.7585V150.9H77.4805V152.33H74.4645V160H72.7745V152.33ZM83.2468 160.13C81.9901 160.13 81.0108 159.779 80.3088 159.077C79.6068 158.366 79.2558 157.352 79.2558 156.035V150.9H80.9458V155.97C80.9458 157.755 81.7171 158.648 83.2598 158.648C84.7938 158.648 85.5608 157.755 85.5608 155.97V150.9H87.2248V156.035C87.2248 157.352 86.8738 158.366 86.1718 159.077C85.4785 159.779 84.5035 160.13 83.2468 160.13ZM98.4276 150.9V160H97.0366L92.0186 153.838V160H90.3416V150.9H91.7326L96.7506 157.062V150.9H98.4276ZM108.441 158.583V160H101.616V150.9H108.259V152.317H103.306V154.683H107.7V156.074H103.306V158.583H108.441ZM114.988 160.13C113.731 160.13 112.752 159.779 112.05 159.077C111.348 158.366 110.997 157.352 110.997 156.035V150.9H112.687V155.97C112.687 157.755 113.458 158.648 115.001 158.648C116.535 158.648 117.302 157.755 117.302 155.97V150.9H118.966V156.035C118.966 157.352 118.615 158.366 117.913 159.077C117.22 159.779 116.245 160.13 114.988 160.13ZM125.827 150.9C126.616 150.9 127.3 151.03 127.881 151.29C128.47 151.55 128.921 151.923 129.233 152.408C129.545 152.893 129.701 153.47 129.701 154.137C129.701 154.796 129.545 155.372 129.233 155.866C128.921 156.351 128.47 156.724 127.881 156.984C127.3 157.244 126.616 157.374 125.827 157.374H123.773V160H122.083V150.9H125.827ZM125.749 155.944C126.486 155.944 127.045 155.788 127.426 155.476C127.807 155.164 127.998 154.718 127.998 154.137C127.998 153.556 127.807 153.11 127.426 152.798C127.045 152.486 126.486 152.33 125.749 152.33H123.773V155.944H125.749Z" fill="white" fill-opacity="0.87"/>
<path d="M105.55 83.3825C98.7069 84.5613 98.6759 83.552 98.3286 82.008C97.9585 80.3596 97.8248 79.4775 105.11 79.0764L117.942 80.053L105.55 83.3825ZM101.061 61.5847C88.7072 61.5847 78.8918 68.5044 78.6912 77.0367C78.3994 89.6435 77.8091 87.0005 101.65 87.0005C126.081 87.0005 123.431 87.8141 123.431 77.0367C123.431 68.5028 113.415 61.5847 101.061 61.5847Z" fill="white"/>
<path d="M105.083 79.2042C100.999 79.4308 99.0245 79.8238 98.4978 80.5216C98.2337 80.8705 98.3038 81.2993 98.4538 81.9597L98.4799 82.082C98.7929 83.4939 98.9821 84.3499 105.502 83.2265L117.072 80.1172L105.083 79.2042ZM101.001 84.0238C98.7603 84.0238 98.4505 83.282 98.1978 82.1439L98.1717 82.0233C98.0348 81.4102 97.9043 80.8298 98.2679 80.3471C98.7669 79.6868 100.117 79.1911 105.087 78.9172L118.776 79.9575L105.559 83.5086C103.498 83.8641 102.044 84.0238 101.001 84.0238ZM101.045 61.7125C95.1228 61.7125 89.5596 63.312 85.384 66.2142C81.2475 69.0904 78.9159 72.9301 78.8213 77.0259L78.7969 78.0042C78.6909 82.2825 78.6322 84.6385 79.8208 85.8272C81.2132 87.2245 84.36 87.1495 91.2667 86.988C94.0352 86.9228 97.4804 86.8413 101.635 86.8413C103.36 86.8413 104.953 86.8462 106.419 86.8495C116.695 86.8772 120.949 86.8853 122.474 85.325C123.439 84.3336 123.393 82.6608 123.32 79.8857C123.297 79.0428 123.27 78.0857 123.27 77.0226C123.27 68.5817 113.301 61.7125 101.045 61.7125ZM86.2644 87.3598C82.6382 87.3598 80.6833 87.1022 79.617 86.031C78.342 84.7559 78.4007 82.3542 78.5083 77.996L78.5327 77.0194C78.7365 68.2751 88.6253 61.4255 101.045 61.4255C113.461 61.4255 123.558 68.4219 123.558 77.0226C123.558 78.0824 123.586 79.0362 123.607 79.8792C123.685 82.7293 123.733 84.4478 122.679 85.5255C121.072 87.1739 117.079 87.1625 106.419 87.138C104.951 87.1348 103.36 87.1299 101.635 87.1299C97.4837 87.1299 94.0417 87.2114 91.2732 87.2766C89.3232 87.3207 87.6682 87.3598 86.2644 87.3598Z" fill="white"/>
<path d="M69.578 96.5099H68.9747V94.9414H66.3219V96.5099H65.7186V92.9522H66.3219V94.4033H68.9747V92.9522H69.578V96.5099Z" fill="white"/>
<path d="M70.9395 92.9522H70.3362V96.5099H70.9395V92.9522Z" fill="white"/>
<path d="M75.6118 94.6218V94.9756C75.6118 95.5822 75.5139 95.9898 75.3215 96.1985C75.1161 96.4235 74.715 96.5344 74.1199 96.5344H73.0291C72.3802 96.5344 71.9514 96.4105 71.7394 96.1643C71.5486 95.9409 71.4508 95.5007 71.4508 94.8452C71.4508 94.3365 71.4818 93.9713 71.5437 93.743C71.622 93.4609 71.7736 93.2571 72.0068 93.1348C72.24 93.0125 72.5987 92.9522 73.0894 92.9522H74.0742C74.552 92.9522 74.9025 93.0093 75.1291 93.125C75.4503 93.2881 75.6101 93.5832 75.6052 94.012H74.9873C74.9873 93.8164 74.8927 93.6696 74.702 93.5718C74.5601 93.5017 74.384 93.4642 74.1704 93.4642L73.572 93.4609C73.5085 93.4609 73.3536 93.4609 73.1106 93.4642C72.6362 93.474 72.3345 93.5799 72.2008 93.7789C72.1046 93.9289 72.0541 94.255 72.0541 94.7572C72.0541 95.1142 72.0671 95.3506 72.0899 95.468C72.1274 95.6523 72.2155 95.7795 72.3508 95.8545C72.4894 95.9295 72.7209 95.9653 73.0503 95.9653H74.1036C74.4672 95.9653 74.6987 95.9213 74.8047 95.8349C74.9188 95.7338 74.9759 95.5055 74.9759 95.1485H73.4742V94.6218H75.6118Z" fill="white"/>
<path d="M80.0869 96.5099H79.4836V94.9414H76.8308V96.5099H76.2275V92.9522H76.8308V94.4033H79.4836V92.9522H80.0869V96.5099Z" fill="white"/>
<path d="M85.3151 93.5408H83.5151V94.6169H85.3265C85.5352 94.6169 85.6868 94.5859 85.7765 94.5256C85.8923 94.4474 85.951 94.3088 85.951 94.1098C85.951 93.8799 85.9037 93.7267 85.8107 93.6533C85.7178 93.5783 85.5531 93.5408 85.3151 93.5408ZM85.2662 95.2104H83.5151V96.5099H82.915V92.9522H85.3151C85.7863 92.9522 86.1075 93.0386 86.2852 93.2147C86.4613 93.3892 86.5494 93.7087 86.5494 94.1751C86.5494 94.5908 86.4303 94.8762 86.1939 95.0327C86.0113 95.1517 85.6999 95.2104 85.2662 95.2104Z" fill="white"/>
<path d="M89.8697 94.9463H87.4501L87.455 94.4294H89.8697V94.9463ZM91.1627 95.4746C91.1627 95.9278 91.016 96.2229 90.7208 96.3632C90.5007 96.4708 90.0621 96.5246 89.4067 96.5246H88.6208C88.1235 96.5246 87.7615 96.4822 87.5349 96.3974C87.2887 96.3061 87.1191 96.1365 87.0229 95.8903C86.9381 95.6637 86.8958 95.3017 86.8958 94.8044C86.8958 94.2696 86.9333 93.8881 87.0066 93.6582C87.0914 93.3859 87.2561 93.2017 87.499 93.1006C87.7322 93.0028 88.1105 92.9522 88.6306 92.9522H89.4181C90.0426 92.9522 90.4926 93.0435 90.7665 93.2212C91.0241 93.3859 91.1529 93.6468 91.1529 93.9974H90.579C90.579 93.7707 90.4697 93.624 90.2545 93.5555C90.1159 93.5164 89.829 93.4952 89.392 93.4952H88.6681C88.1838 93.4952 87.8691 93.5408 87.7289 93.6321C87.5528 93.7479 87.4615 94.0153 87.4583 94.4343V94.9463C87.4566 95.4207 87.5398 95.7191 87.7126 95.8447C87.8479 95.9425 88.1594 95.993 88.6518 95.993H89.3969C89.842 95.993 90.1322 95.9718 90.2643 95.9311C90.4812 95.8659 90.5871 95.7142 90.5839 95.4746H91.1627Z" fill="white"/>
<path d="M94.4893 93.562H92.4154V94.5403H94.4893C94.879 94.5403 95.073 94.3723 95.073 94.0348C95.073 93.7185 94.879 93.562 94.4893 93.562ZM95.7741 96.5099H95.1758V95.861C95.1758 95.6066 95.1236 95.424 95.0192 95.3115C94.9181 95.2006 94.7388 95.1452 94.4861 95.1452L92.4154 95.1501V96.5099H91.8317V92.9522H94.4355C94.8627 92.9522 95.1741 93.0354 95.3633 93.2017C95.5622 93.381 95.6616 93.681 95.6616 94.105C95.6616 94.4897 95.5524 94.7359 95.3388 94.8403C95.6274 94.9185 95.7741 95.1794 95.7741 95.6213V96.5099Z" fill="white"/>
<path d="M97.0183 94.4392H99.5243V94.9512H97.0183V96.5295H96.4492L96.4541 94.6821C96.4541 94.193 96.4949 93.8359 96.5731 93.6174C96.6595 93.3664 96.8275 93.1919 97.0737 93.0941C97.3069 92.9995 97.677 92.9522 98.1857 92.9522H98.8444C99.4852 92.9522 99.9221 93.0305 100.165 93.1854C100.393 93.3337 100.532 93.6174 100.581 94.0332H100.007C99.9531 93.7952 99.8308 93.6435 99.64 93.5767C99.5047 93.5294 99.2308 93.5049 98.8183 93.5049H98.2199C97.7389 93.5049 97.4324 93.5506 97.2971 93.6435C97.1242 93.7544 97.0313 94.0202 97.0183 94.4392Z" fill="white"/>
<path d="M104.46 94.93V94.5892C104.46 94.2517 104.426 94.012 104.359 93.8669C104.291 93.7234 104.167 93.6321 103.988 93.5913C103.862 93.5604 103.622 93.5441 103.269 93.5441H102.678C102.188 93.5441 101.879 93.5962 101.751 93.6973C101.594 93.8212 101.517 94.1213 101.517 94.5957V94.9349C101.517 95.3947 101.596 95.6865 101.757 95.8072C101.881 95.8985 102.184 95.9457 102.662 95.9457H103.277C103.626 95.9457 103.862 95.9311 103.983 95.9034C104.162 95.8659 104.288 95.7794 104.356 95.6376C104.426 95.4974 104.46 95.2626 104.46 94.93ZM105.069 94.9495C105.069 95.424 105.013 95.7713 104.902 95.9914C104.788 96.2148 104.601 96.3631 104.333 96.4365C104.12 96.4968 103.771 96.5278 103.288 96.5278H102.633C102.137 96.5278 101.775 96.4854 101.548 96.4007C101.297 96.3093 101.126 96.1414 101.035 95.8936C100.952 95.6637 100.908 95.3001 100.908 94.8028C100.908 94.2762 100.945 93.8963 101.015 93.6664C101.098 93.3973 101.265 93.2082 101.511 93.1038C101.746 93.0028 102.122 92.9522 102.644 92.9522H103.293C103.851 92.9522 104.252 93.0093 104.496 93.1234C104.742 93.2392 104.902 93.4446 104.976 93.743C105.038 93.9664 105.069 94.3691 105.069 94.9495Z" fill="white"/>
<path d="M108.342 93.562H106.268V94.5403H108.342C108.73 94.5403 108.924 94.3723 108.924 94.0348C108.924 93.7185 108.73 93.562 108.342 93.562ZM109.625 96.5099H109.027V95.861C109.027 95.6066 108.976 95.424 108.872 95.3115C108.769 95.2006 108.59 95.1452 108.337 95.1452L106.268 95.1501V96.5099H105.684V92.9522H108.287C108.715 92.9522 109.025 93.0354 109.214 93.2017C109.413 93.381 109.514 93.681 109.514 94.105C109.514 94.4897 109.405 94.7359 109.19 94.8403C109.48 94.9185 109.625 95.1794 109.625 95.6213V96.5099Z" fill="white"/>
<path d="M116.395 96.5099L116.39 94.6772C116.39 94.3055 116.313 94.0251 116.16 93.8359C115.971 93.5995 115.66 93.4805 115.221 93.4805H115.061C114.606 93.4805 114.293 93.6077 114.12 93.8604C113.983 94.0674 113.913 94.4196 113.913 94.9169V96.5099H113.351V94.9561C113.351 94.48 113.279 94.1294 113.137 93.9011C112.963 93.6207 112.656 93.4805 112.224 93.4805H112.046C111.596 93.4805 111.283 93.6207 111.107 93.8963C110.965 94.1196 110.895 94.4783 110.895 94.9724L110.9 96.5099H110.302V92.9522H110.895V93.4038C111.122 93.1038 111.477 92.9522 111.965 92.9522H112.299C112.932 92.9522 113.37 93.1788 113.608 93.6272C113.855 93.1788 114.29 92.9522 114.913 92.9522H115.348C116.408 92.9522 116.936 93.531 116.936 94.6887V96.5099H116.395Z" fill="white"/>
<path d="M118.231 94.4033H121.127C121.124 94.0006 121.042 93.7446 120.879 93.6321C120.75 93.5408 120.468 93.4952 120.036 93.4952H119.31C118.885 93.4952 118.608 93.5424 118.477 93.637C118.318 93.7511 118.234 94.0071 118.231 94.4033ZM121.132 94.9414H118.231V96.5099H117.626V94.3984C117.626 93.8098 117.75 93.4153 117.996 93.2147C118.213 93.0403 118.624 92.9522 119.229 92.9522H120.127C120.722 92.9522 121.132 93.0419 121.357 93.2212C121.609 93.4234 121.735 93.8164 121.735 94.3984V96.5099H121.132V94.9414Z" fill="white"/>
<path d="M125.659 96.5099V94.374C125.659 94.0919 125.573 93.8734 125.398 93.7169C125.224 93.5587 124.994 93.4805 124.705 93.4805H123.965C123.691 93.4805 123.463 93.562 123.28 93.7267C123.098 93.8914 123.006 94.105 123.006 94.374V96.5099H122.403V92.9522H123.006V93.4185C123.221 93.1087 123.541 92.9522 123.965 92.9522H124.705C125.196 92.9522 125.577 93.0794 125.851 93.3354C126.127 93.5914 126.262 93.9631 126.262 94.449V96.5099H125.659Z" fill="white"/>
<path d="M131.164 95.4077C131.164 95.8773 131.02 96.1936 130.731 96.3566C130.526 96.4756 130.171 96.5327 129.662 96.5327H128.613C127.953 96.5327 127.516 96.4072 127.304 96.1528C127.115 95.9294 127.021 95.4811 127.021 94.8093C127.021 94.3006 127.053 93.9338 127.122 93.7087C127.201 93.4348 127.36 93.2392 127.594 93.125C127.826 93.0093 128.19 92.9522 128.679 92.9522H129.657C130.156 92.9522 130.51 93.0125 130.722 93.1348C131.014 93.2979 131.159 93.6077 131.159 94.0642H130.541C130.544 93.7104 130.244 93.5359 129.637 93.5359H128.684C128.207 93.5359 127.904 93.6223 127.775 93.7952C127.678 93.9256 127.627 94.2403 127.627 94.7376C127.627 95.1028 127.64 95.3441 127.665 95.4631C127.697 95.6457 127.784 95.7745 127.924 95.8495C128.062 95.9229 128.294 95.9604 128.622 95.9604H129.641C129.929 95.9604 130.133 95.9376 130.25 95.8887C130.451 95.812 130.549 95.6506 130.546 95.4077H131.164Z" fill="white"/>
<path d="M134.451 94.9463H132.032L132.037 94.4294H134.451V94.9463ZM135.744 95.4746C135.744 95.9278 135.597 96.2229 135.302 96.3632C135.084 96.4708 134.645 96.5246 133.99 96.5246H133.202C132.707 96.5246 132.345 96.4822 132.116 96.3974C131.87 96.3061 131.701 96.1365 131.604 95.8903C131.52 95.6637 131.479 95.3017 131.479 94.8044C131.479 94.2696 131.516 93.8881 131.59 93.6582C131.675 93.3859 131.839 93.2017 132.082 93.1006C132.315 93.0028 132.692 92.9522 133.214 92.9522H134C134.624 92.9522 135.076 93.0435 135.35 93.2212C135.606 93.3859 135.734 93.6468 135.734 93.9974H135.162C135.162 93.7707 135.053 93.624 134.836 93.5555C134.697 93.5164 134.41 93.4952 133.975 93.4952H133.25C132.765 93.4952 132.452 93.5408 132.312 93.6321C132.134 93.7479 132.045 94.0153 132.041 94.4343V94.9463C132.04 95.4207 132.123 95.7191 132.296 95.8447C132.431 95.9425 132.742 95.993 133.235 95.993H133.98C134.425 95.993 134.715 95.9718 134.847 95.9311C135.063 95.8659 135.17 95.7142 135.167 95.4746H135.744Z" fill="white"/>
<defs>
<filter id="filter0_d" x="0" y="0" width="208" height="208" filterUnits="userSpaceOnUse" color-interpolation-filters="sRGB">
<feFlood flood-opacity="0" result="BackgroundImageFix"/>
<feColorMatrix in="SourceAlpha" type="matrix" values="0 0 0 0 0 0 0 0 0 0 0 0 0 0 0 0 0 0 127 0"/>
<feOffset dx="4" dy="4"/>
<feGaussianBlur stdDeviation="2"/>
<feColorMatrix type="matrix" values="0 0 0 0 0 0 0 0 0 0 0 0 0 0 0 0 0 0 0.25 0"/>
<feBlend mode="normal" in2="BackgroundImageFix" result="effect1_dropShadow"/>
<feBlend mode="normal" in="SourceGraphic" in2="effect1_dropShadow" result="shape"/>
</filter>
</defs>
</svg>
