<svg width="208" height="209" viewBox="0 0 208 209" fill="none" xmlns="http://www.w3.org/2000/svg">
<g filter="url(#filter0_d)">
<rect y="0.308594" width="200" height="200" rx="8" fill="#121212"/>
<rect y="0.308594" width="200" height="200" rx="8" fill="white" fill-opacity="0.08"/>
</g>
<path d="M53.543 179.13C52.841 179.13 52.1607 179.03 51.502 178.831C50.852 178.632 50.3363 178.367 49.955 178.038L50.54 176.725C50.9127 177.02 51.3677 177.262 51.905 177.453C52.451 177.635 52.997 177.726 53.543 177.726C54.219 177.726 54.7217 177.618 55.051 177.401C55.389 177.184 55.558 176.898 55.558 176.543C55.558 176.283 55.4627 176.071 55.272 175.906C55.09 175.733 54.856 175.598 54.57 175.503C54.284 175.408 53.894 175.299 53.4 175.178C52.7067 175.013 52.1433 174.849 51.71 174.684C51.2853 174.519 50.917 174.264 50.605 173.917C50.3017 173.562 50.15 173.085 50.15 172.487C50.15 171.984 50.2843 171.529 50.553 171.122C50.8303 170.706 51.242 170.377 51.788 170.134C52.3427 169.891 53.0187 169.77 53.816 169.77C54.3707 169.77 54.9167 169.839 55.454 169.978C55.9913 170.117 56.455 170.316 56.845 170.576L56.312 171.889C55.9133 171.655 55.4973 171.477 55.064 171.356C54.6307 171.235 54.2103 171.174 53.803 171.174C53.1357 171.174 52.6373 171.287 52.308 171.512C51.9873 171.737 51.827 172.036 51.827 172.409C51.827 172.669 51.918 172.881 52.1 173.046C52.2907 173.211 52.529 173.341 52.815 173.436C53.101 173.531 53.491 173.64 53.985 173.761C54.661 173.917 55.2157 174.082 55.649 174.255C56.0823 174.42 56.4507 174.675 56.754 175.022C57.066 175.369 57.222 175.837 57.222 176.426C57.222 176.929 57.0833 177.384 56.806 177.791C56.5373 178.198 56.1257 178.523 55.571 178.766C55.0163 179.009 54.3403 179.13 53.543 179.13ZM61.3668 171.33H58.3508V169.9H66.0728V171.33H63.0568V179H61.3668V171.33ZM74.9161 177.583V179H68.0911V169.9H74.7341V171.317H69.7811V173.683H74.1751V175.074H69.7811V177.583H74.9161ZM83.4521 176.894H78.9021L78.0051 179H76.2631L80.3581 169.9H82.0221L86.1301 179H84.3621L83.4521 176.894ZM82.8931 175.568L81.1771 171.59L79.4741 175.568H82.8931ZM96.3964 179L96.3834 172.968L93.3934 177.96H92.6394L89.6494 173.046V179H88.0374V169.9H89.4284L93.0424 175.932L96.5914 169.9H97.9824L97.9954 179H96.3964ZM113.905 179L113.892 172.968L110.902 177.96H110.148L107.158 173.046V179H105.546V169.9H106.937L110.551 175.932L114.1 169.9H115.491L115.504 179H113.905ZM122.963 179.13C122.036 179.13 121.2 178.931 120.454 178.532C119.709 178.125 119.124 177.566 118.699 176.855C118.275 176.136 118.062 175.334 118.062 174.45C118.062 173.566 118.275 172.769 118.699 172.058C119.124 171.339 119.709 170.78 120.454 170.381C121.2 169.974 122.036 169.77 122.963 169.77C123.891 169.77 124.727 169.974 125.472 170.381C126.218 170.78 126.803 171.334 127.227 172.045C127.652 172.756 127.864 173.557 127.864 174.45C127.864 175.343 127.652 176.144 127.227 176.855C126.803 177.566 126.218 178.125 125.472 178.532C124.727 178.931 123.891 179.13 122.963 179.13ZM122.963 177.648C123.57 177.648 124.116 177.514 124.601 177.245C125.087 176.968 125.468 176.586 125.745 176.101C126.023 175.607 126.161 175.057 126.161 174.45C126.161 173.843 126.023 173.297 125.745 172.812C125.468 172.318 125.087 171.937 124.601 171.668C124.116 171.391 123.57 171.252 122.963 171.252C122.357 171.252 121.811 171.391 121.325 171.668C120.84 171.937 120.459 172.318 120.181 172.812C119.904 173.297 119.765 173.843 119.765 174.45C119.765 175.057 119.904 175.607 120.181 176.101C120.459 176.586 120.84 176.968 121.325 177.245C121.811 177.514 122.357 177.648 122.963 177.648ZM132.125 171.33H129.109V169.9H136.831V171.33H133.815V179H132.125V171.33ZM142.973 179.13C142.046 179.13 141.209 178.931 140.464 178.532C139.719 178.125 139.134 177.566 138.709 176.855C138.284 176.136 138.072 175.334 138.072 174.45C138.072 173.566 138.284 172.769 138.709 172.058C139.134 171.339 139.719 170.78 140.464 170.381C141.209 169.974 142.046 169.77 142.973 169.77C143.9 169.77 144.737 169.974 145.482 170.381C146.227 170.78 146.812 171.334 147.237 172.045C147.662 172.756 147.874 173.557 147.874 174.45C147.874 175.343 147.662 176.144 147.237 176.855C146.812 177.566 146.227 178.125 145.482 178.532C144.737 178.931 143.9 179.13 142.973 179.13ZM142.973 177.648C143.58 177.648 144.126 177.514 144.611 177.245C145.096 176.968 145.478 176.586 145.755 176.101C146.032 175.607 146.171 175.057 146.171 174.45C146.171 173.843 146.032 173.297 145.755 172.812C145.478 172.318 145.096 171.937 144.611 171.668C144.126 171.391 143.58 171.252 142.973 171.252C142.366 171.252 141.82 171.391 141.335 171.668C140.85 171.937 140.468 172.318 140.191 172.812C139.914 173.297 139.775 173.843 139.775 174.45C139.775 175.057 139.914 175.607 140.191 176.101C140.468 176.586 140.85 176.968 141.335 177.245C141.82 177.514 142.366 177.648 142.973 177.648Z" fill="white" fill-opacity="0.87"/>
<path d="M99.4977 31.2051C73.145 31.2051 51.7051 52.645 51.7051 79.0023C51.7051 105.355 73.145 126.79 99.4977 126.79C125.85 126.79 147.295 105.355 147.295 79.0023C147.295 52.645 125.85 31.2051 99.4977 31.2051ZM99.4977 129C71.927 129 49.5 106.573 49.5 79.0023C49.5 51.4315 71.927 29 99.4977 29C127.068 29 149.5 51.4315 149.5 79.0023C149.5 106.573 127.068 129 99.4977 129Z" fill="white" fill-opacity="0.87"/>
<path d="M99.4972 35.8044C75.6802 35.8044 56.305 55.1796 56.305 79.0012C56.305 102.818 75.6802 122.193 99.4972 122.193C123.314 122.193 142.694 102.818 142.694 79.0012C142.694 55.1796 123.314 35.8044 99.4972 35.8044ZM99.4972 123.176C75.1413 123.176 55.3225 103.357 55.3225 79.0012C55.3225 54.6407 75.1413 34.8264 99.4972 34.8264C123.853 34.8264 143.672 54.6407 143.672 79.0012C143.672 103.357 123.853 123.176 99.4972 123.176Z" fill="white" fill-opacity="0.87"/>
<path d="M74.9241 48.1413L75.8795 65.8607L90.8569 59.0448L76.0464 47.4278L74.9241 48.1413Z" fill="white" fill-opacity="0.87"/>
<path d="M81.5675 80.251C77.7504 80.251 74.6488 83.3571 74.6488 87.1697C74.6488 90.9822 77.7504 94.0929 81.5675 94.0929C85.3846 94.0929 88.4862 90.9822 88.4862 87.1697C88.4862 83.3571 85.3846 80.251 81.5675 80.251ZM81.5675 95.6324C76.8992 95.6324 73.1002 91.838 73.1002 87.1697C73.1002 82.5014 76.8992 78.7024 81.5675 78.7024C86.2313 78.7024 90.0303 82.5014 90.0303 87.1697C90.0303 91.838 86.2313 95.6324 81.5675 95.6324Z" fill="white" fill-opacity="0.87"/>
<path d="M117.653 80.251C113.84 80.251 110.734 83.3571 110.734 87.1697C110.734 90.9822 113.84 94.0929 117.653 94.0929C121.465 94.0929 124.571 90.9822 124.571 87.1697C124.571 83.3571 121.465 80.251 117.653 80.251ZM117.653 95.6324C112.984 95.6324 109.185 91.838 109.185 87.1697C109.185 82.5014 112.984 78.7024 117.653 78.7024C122.321 78.7024 126.115 82.5014 126.115 87.1697C126.115 91.838 122.321 95.6324 117.653 95.6324Z" fill="white" fill-opacity="0.87"/>
<path d="M86.7408 73.2686L79.5277 78.1814L82.969 84.0089L81.7917 90.1171L105.419 89.7232L102.688 83.1758L114.909 72.0189L91.0423 75.9627L86.7408 73.2686Z" fill="white" fill-opacity="0.87"/>
<path d="M82.0385 89.3473L104.796 88.9398L101.989 82.732L111.919 73.2912L90.7096 76.8003L88.6448 74.1696L80.3043 78.6568L86.2722 83.4564L82.0385 89.3473ZM106.028 90.5065L81.5269 90.8868L82.197 84.4073L78.7376 77.7105L86.9514 72.295L91.3616 75.1205L117.877 70.7419L103.37 83.624L106.028 90.5065Z" fill="white" fill-opacity="0.87"/>
<defs>
<filter id="filter0_d" x="0" y="0.308594" width="208" height="208" filterUnits="userSpaceOnUse" color-interpolation-filters="sRGB">
<feFlood flood-opacity="0" result="BackgroundImageFix"/>
<feColorMatrix in="SourceAlpha" type="matrix" values="0 0 0 0 0 0 0 0 0 0 0 0 0 0 0 0 0 0 127 0"/>
<feOffset dx="4" dy="4"/>
<feGaussianBlur stdDeviation="2"/>
<feColorMatrix type="matrix" values="0 0 0 0 0 0 0 0 0 0 0 0 0 0 0 0 0 0 0.25 0"/>
<feBlend mode="normal" in2="BackgroundImageFix" result="effect1_dropShadow"/>
<feBlend mode="normal" in="SourceGraphic" in2="effect1_dropShadow" result="shape"/>
</filter>
</defs>
</svg>
