<svg width="208" height="208" viewBox="0 0 208 208" fill="none" xmlns="http://www.w3.org/2000/svg">
<g filter="url(#filter0_d)">
<rect width="200" height="200" rx="8" fill="#121212"/>
<rect width="200" height="200" rx="8" fill="white" fill-opacity="0.08"/>
</g>
<path d="M92.8368 73.716L81.9916 74.6321C81.6506 74.6604 81.3301 74.8033 81.0818 75.0406L73.6542 82.7149L73.3227 82.4918L68.7234 83.1093C68.5474 83.1297 68.3934 83.2413 68.3211 83.4047L65.5493 89.6099C65.3608 90.0325 65.7882 90.4662 66.214 90.2839L70.9892 88.2365C71.3617 88.0778 71.7623 88.3968 71.6885 88.7943L71.3208 90.8229C71.2627 91.1435 71.5156 91.4341 71.8409 91.4216L74.3519 91.321C74.7525 91.3037 75.0118 91.7374 74.8107 92.0831L72.5134 96.0192C72.2824 96.4184 72.6611 96.8976 73.1026 96.7609L80.4721 94.4825C80.6764 94.4196 80.8194 94.2342 80.8288 94.0205L81.7905 90.4694V90.1221L91.4839 84.5879C91.8437 84.3931 92.1093 84.0584 92.2161 83.6624L94.4128 75.6094C94.6878 74.6022 93.877 73.628 92.8368 73.716Z" fill="white"/>
<path d="M104.206 82.7827H100.029V77.8535H100.867V82.0301H104.206V82.7827Z" fill="white"/>
<path d="M105.162 79.8632H109.177C109.172 79.3054 109.057 78.9487 108.833 78.7932C108.655 78.6675 108.265 78.6046 107.665 78.6046H106.659C106.069 78.6046 105.684 78.6706 105.506 78.801C105.281 78.9613 105.167 79.3148 105.162 79.8632ZM109.185 80.6096H105.162V82.7811H104.326V79.8569C104.326 79.0414 104.496 78.4946 104.838 78.2181C105.138 77.9745 105.709 77.8535 106.546 77.8535H107.792C108.617 77.8535 109.185 77.9761 109.492 78.2259C109.844 78.5072 110.02 79.0493 110.02 79.8569V82.7811H109.185V80.6096Z" fill="white"/>
<path d="M112.775 82.7827C112.094 82.7827 111.565 82.6052 111.185 82.2516C110.806 81.8981 110.617 81.3827 110.617 80.7086V77.8535H111.453V80.8123C111.453 81.202 111.574 81.5068 111.816 81.7237C112.057 81.9421 112.377 82.0505 112.775 82.0505H113.809C114.208 82.0505 114.527 81.9421 114.77 81.7237C115.011 81.5068 115.13 81.202 115.13 80.8123V77.8535H115.968V80.7086C115.968 81.3827 115.778 81.8981 115.399 82.2516C115.019 82.6052 114.489 82.7827 113.809 82.7827H112.775Z" fill="white"/>
<path d="M121.268 82.7827V79.8208C121.268 79.4327 121.147 79.1294 120.907 78.911C120.665 78.6926 120.344 78.5842 119.945 78.5842H118.919C118.54 78.5842 118.225 78.6973 117.97 78.9252C117.717 79.153 117.591 79.4516 117.591 79.8208V82.7827H116.755V77.8535H117.591V78.4993C117.891 78.0688 118.335 77.8535 118.919 77.8535H119.945C120.627 77.8535 121.155 78.0311 121.535 78.3846C121.916 78.7382 122.106 79.252 122.106 79.9277V82.7827H121.268Z" fill="white"/>
<path d="M128.33 81.1035C128.33 81.7556 128.13 82.1924 127.732 82.4187C127.447 82.5821 126.952 82.6638 126.249 82.6638H124.793C123.88 82.6638 123.275 82.4894 122.979 82.1374C122.717 81.8279 122.586 81.2057 122.586 80.2739C122.586 79.5699 122.632 79.0624 122.726 78.7481C122.839 78.3679 123.056 78.0992 123.38 77.9389C123.704 77.7802 124.205 77.7001 124.885 77.7001H126.241C126.931 77.7001 127.423 77.7849 127.717 77.953C128.121 78.1793 128.322 78.6067 128.322 79.2399H127.464C127.469 78.7528 127.054 78.5093 126.213 78.5093H124.892C124.232 78.5093 123.811 78.6287 123.633 78.8675C123.496 79.0498 123.429 79.4866 123.429 80.1749C123.429 80.6808 123.446 81.0155 123.479 81.1805C123.524 81.4335 123.646 81.6111 123.837 81.7163C124.029 81.8185 124.353 81.8688 124.807 81.8688H126.221C126.618 81.8688 126.9 81.8373 127.063 81.7713C127.341 81.6629 127.476 81.4414 127.472 81.1035H128.33Z" fill="white"/>
<path d="M134.075 82.7827H133.239V80.6096H129.56V82.7827H128.724V77.8535H129.56V79.8648H133.239V77.8535H134.075V82.7827Z" fill="white"/>
<path d="M105.621 88.6222C105.621 89.2743 105.421 89.7111 105.024 89.9374C104.738 90.1008 104.243 90.1825 103.54 90.1825H102.084C101.171 90.1825 100.566 90.0081 100.27 89.6561C100.008 89.3466 99.876 88.7244 99.876 87.7926C99.876 87.0886 99.9231 86.5811 100.017 86.2668C100.129 85.8866 100.347 85.6179 100.671 85.4576C100.995 85.2989 101.496 85.2188 102.176 85.2188H103.532C104.222 85.2188 104.714 85.3036 105.008 85.4717C105.412 85.698 105.613 86.1254 105.613 86.7587H104.755C104.76 86.2715 104.345 86.028 103.504 86.028H102.183C101.521 86.028 101.102 86.1474 100.924 86.3863C100.789 86.5685 100.72 87.0054 100.72 87.6936C100.72 88.1996 100.737 88.5342 100.768 88.6992C100.816 88.9522 100.937 89.1297 101.128 89.235C101.32 89.3372 101.644 89.3874 102.098 89.3874H103.51C103.91 89.3874 104.191 89.356 104.354 89.29C104.632 89.1816 104.767 88.96 104.763 88.6222H105.621Z" fill="white"/>
<path d="M110.937 87.9611V87.4897C110.937 87.0214 110.89 86.6867 110.795 86.4888C110.703 86.2892 110.531 86.1603 110.283 86.1053C110.11 86.0629 109.777 86.0409 109.284 86.0409H108.47C107.79 86.0409 107.361 86.1116 107.181 86.253C106.966 86.4259 106.859 86.8407 106.859 87.4975V87.9689C106.859 88.6053 106.969 89.0091 107.189 89.1773C107.364 89.303 107.782 89.3674 108.448 89.3674H109.3C109.782 89.3674 110.107 89.3485 110.275 89.3108C110.524 89.2589 110.698 89.1364 110.792 88.9415C110.888 88.7483 110.937 88.4199 110.937 87.9611ZM111.781 87.9893C111.781 88.6461 111.704 89.127 111.548 89.4334C111.394 89.7413 111.132 89.9472 110.762 90.0493C110.465 90.1342 109.985 90.1766 109.312 90.1766H108.407C107.717 90.1766 107.216 90.1169 106.902 90.0006C106.554 89.8749 106.319 89.6392 106.19 89.2982C106.074 88.9777 106.014 88.4749 106.014 87.7866C106.014 87.0544 106.064 86.5296 106.163 86.2106C106.279 85.8351 106.51 85.5758 106.851 85.4313C107.175 85.2898 107.697 85.2191 108.42 85.2191H109.32C110.093 85.2191 110.649 85.2993 110.989 85.458C111.33 85.6182 111.551 85.9027 111.653 86.3159C111.738 86.6255 111.781 87.1832 111.781 87.9893Z" fill="white"/>
<path d="M116.972 90.1483V87.1864C116.972 86.7983 116.852 86.495 116.612 86.2766C116.368 86.0582 116.049 85.9498 115.65 85.9498H114.624C114.245 85.9498 113.928 86.0629 113.675 86.2908C113.422 86.5186 113.295 86.8171 113.295 87.1864V90.1483H112.459V85.2191H113.295V85.8649C113.596 85.4344 114.04 85.2191 114.624 85.2191H115.65C116.33 85.2191 116.86 85.3967 117.24 85.7502C117.619 86.1038 117.809 86.6176 117.809 87.2933V90.1483H116.972Z" fill="white"/>
<path d="M123.101 85.9718H120.881V90.1483H120.043V85.9718H117.829V85.2191H123.101V85.9718Z" fill="white"/>
<path d="M127.19 86.0629H124.315V87.4189H127.19C127.731 87.4189 127.999 87.1848 127.999 86.715C127.999 86.2797 127.731 86.0629 127.19 86.0629ZM128.969 90.1483H128.139V89.2464C128.139 88.896 128.069 88.643 127.926 88.4874C127.783 88.3319 127.536 88.2565 127.184 88.2565L124.315 88.2612V90.1483H123.507V85.2191H127.113C127.709 85.2191 128.138 85.3322 128.402 85.5632C128.677 85.8115 128.815 86.2279 128.815 86.8156C128.815 87.3482 128.664 87.6876 128.364 87.8338C128.768 87.9406 128.969 88.302 128.969 88.9164V90.1483Z" fill="white"/>
<path d="M134.415 87.9611V87.4897C134.415 87.0214 134.367 86.6867 134.273 86.4888C134.18 86.2892 134.009 86.1603 133.761 86.1053C133.588 86.0629 133.253 86.0409 132.762 86.0409H131.948C131.267 86.0409 130.838 86.1116 130.659 86.253C130.444 86.4259 130.337 86.8407 130.337 87.4975V87.9689C130.337 88.6053 130.447 89.0091 130.667 89.1773C130.841 89.303 131.259 89.3674 131.926 89.3674H132.776C133.26 89.3674 133.585 89.3485 133.753 89.3108C134.001 89.2589 134.176 89.1364 134.27 88.9415C134.366 88.7483 134.415 88.4199 134.415 87.9611ZM135.258 87.9893C135.258 88.6461 135.18 89.127 135.026 89.4334C134.872 89.7413 134.609 89.9472 134.239 90.0493C133.943 90.1342 133.461 90.1766 132.79 90.1766H131.885C131.195 90.1766 130.692 90.1169 130.379 90.0006C130.032 89.8749 129.796 89.6392 129.668 89.2982C129.551 88.9777 129.492 88.4749 129.492 87.7866C129.492 87.0544 129.542 86.5296 129.639 86.2106C129.757 85.8351 129.987 85.5758 130.328 85.4313C130.653 85.2898 131.175 85.2191 131.896 85.2191H132.798C133.571 85.2191 134.127 85.2993 134.466 85.458C134.807 85.6182 135.029 85.9027 135.131 86.3159C135.216 86.6255 135.258 87.1832 135.258 87.9893Z" fill="white"/>
<path d="M139.958 90.1483H135.783V85.2191H136.619V89.3957H139.958V90.1483Z" fill="white"/>
<path d="M70.3997 149.278H72.0897V156.948H76.8477V158.378H70.3997V149.278ZM84.8974 156.272H80.3474L79.4504 158.378H77.7084L81.8034 149.278H83.4674L87.5754 158.378H85.8074L84.8974 156.272ZM84.3384 154.946L82.6224 150.968L80.9194 154.946H84.3384ZM93.2053 158.508C91.9486 158.508 90.9693 158.157 90.2673 157.455C89.5653 156.744 89.2143 155.73 89.2143 154.413V149.278H90.9043V154.348C90.9043 156.133 91.6756 157.026 93.2183 157.026C94.7523 157.026 95.5193 156.133 95.5193 154.348V149.278H97.1833V154.413C97.1833 155.73 96.8323 156.744 96.1303 157.455C95.437 158.157 94.462 158.508 93.2053 158.508ZM108.386 149.278V158.378H106.995L101.977 152.216V158.378H100.3V149.278H101.691L106.709 155.44V149.278H108.386ZM115.787 158.508C114.868 158.508 114.036 158.308 113.291 157.91C112.554 157.502 111.973 156.943 111.549 156.233C111.133 155.522 110.925 154.72 110.925 153.828C110.925 152.935 111.137 152.133 111.562 151.423C111.986 150.712 112.567 150.157 113.304 149.759C114.049 149.351 114.881 149.148 115.8 149.148C116.545 149.148 117.225 149.278 117.841 149.538C118.456 149.798 118.976 150.175 119.401 150.669L118.309 151.696C117.65 150.985 116.84 150.63 115.878 150.63C115.254 150.63 114.695 150.768 114.201 151.046C113.707 151.314 113.321 151.691 113.044 152.177C112.766 152.662 112.628 153.212 112.628 153.828C112.628 154.443 112.766 154.993 113.044 155.479C113.321 155.964 113.707 156.345 114.201 156.623C114.695 156.891 115.254 157.026 115.878 157.026C116.84 157.026 117.65 156.666 118.309 155.947L119.401 156.987C118.976 157.481 118.452 157.858 117.828 158.118C117.212 158.378 116.532 158.508 115.787 158.508ZM129.856 149.278V158.378H128.166V154.478H123.46V158.378H121.77V149.278H123.46V153.035H128.166V149.278H129.856ZM70.2953 172.508C69.3767 172.508 68.5447 172.308 67.7993 171.91C67.0627 171.502 66.482 170.943 66.0573 170.233C65.6413 169.522 65.4333 168.72 65.4333 167.828C65.4333 166.935 65.6457 166.133 66.0703 165.423C66.495 164.712 67.0757 164.157 67.8123 163.759C68.5577 163.351 69.3897 163.148 70.3083 163.148C71.0537 163.148 71.734 163.278 72.3493 163.538C72.9647 163.798 73.4847 164.175 73.9093 164.669L72.8173 165.696C72.1587 164.985 71.3483 164.63 70.3863 164.63C69.7623 164.63 69.2033 164.768 68.7093 165.046C68.2153 165.314 67.8297 165.691 67.5523 166.177C67.275 166.662 67.1363 167.212 67.1363 167.828C67.1363 168.443 67.275 168.993 67.5523 169.479C67.8297 169.964 68.2153 170.345 68.7093 170.623C69.2033 170.891 69.7623 171.026 70.3863 171.026C71.3483 171.026 72.1587 170.666 72.8173 169.947L73.9093 170.987C73.4847 171.481 72.9603 171.858 72.3363 172.118C71.721 172.378 71.0407 172.508 70.2953 172.508ZM80.3392 172.508C79.4119 172.508 78.5755 172.308 77.8302 171.91C77.0849 171.502 76.4999 170.943 76.0752 170.233C75.6505 169.513 75.4382 168.712 75.4382 167.828C75.4382 166.944 75.6505 166.146 76.0752 165.436C76.4999 164.716 77.0849 164.157 77.8302 163.759C78.5755 163.351 79.4119 163.148 80.3392 163.148C81.2665 163.148 82.1029 163.351 82.8482 163.759C83.5935 164.157 84.1785 164.712 84.6032 165.423C85.0279 166.133 85.2402 166.935 85.2402 167.828C85.2402 168.72 85.0279 169.522 84.6032 170.233C84.1785 170.943 83.5935 171.502 82.8482 171.91C82.1029 172.308 81.2665 172.508 80.3392 172.508ZM80.3392 171.026C80.9459 171.026 81.4919 170.891 81.9772 170.623C82.4625 170.345 82.8439 169.964 83.1212 169.479C83.3985 168.985 83.5372 168.434 83.5372 167.828C83.5372 167.221 83.3985 166.675 83.1212 166.19C82.8439 165.696 82.4625 165.314 81.9772 165.046C81.4919 164.768 80.9459 164.63 80.3392 164.63C79.7325 164.63 79.1865 164.768 78.7012 165.046C78.2159 165.314 77.8345 165.696 77.5572 166.19C77.2799 166.675 77.1412 167.221 77.1412 167.828C77.1412 168.434 77.2799 168.985 77.5572 169.479C77.8345 169.964 78.2159 170.345 78.7012 170.623C79.1865 170.891 79.7325 171.026 80.3392 171.026ZM95.8676 163.278V172.378H94.4766L89.4586 166.216V172.378H87.7816V163.278H89.1726L94.1906 169.44V163.278H95.8676ZM100.902 164.708H97.886V163.278H105.608V164.708H102.592V172.378H100.902V164.708ZM113.58 172.378L111.721 169.713C111.643 169.721 111.526 169.726 111.37 169.726H109.316V172.378H107.626V163.278H111.37C112.159 163.278 112.844 163.408 113.424 163.668C114.014 163.928 114.464 164.3 114.776 164.786C115.088 165.271 115.244 165.847 115.244 166.515C115.244 167.199 115.075 167.789 114.737 168.283C114.408 168.777 113.931 169.145 113.307 169.388L115.4 172.378H113.58ZM113.541 166.515C113.541 165.934 113.351 165.488 112.969 165.176C112.588 164.864 112.029 164.708 111.292 164.708H109.316V168.335H111.292C112.029 168.335 112.588 168.179 112.969 167.867C113.351 167.546 113.541 167.095 113.541 166.515ZM122.136 172.508C121.209 172.508 120.372 172.308 119.627 171.91C118.882 171.502 118.297 170.943 117.872 170.233C117.447 169.513 117.235 168.712 117.235 167.828C117.235 166.944 117.447 166.146 117.872 165.436C118.297 164.716 118.882 164.157 119.627 163.759C120.372 163.351 121.209 163.148 122.136 163.148C123.063 163.148 123.9 163.351 124.645 163.759C125.39 164.157 125.975 164.712 126.4 165.423C126.825 166.133 127.037 166.935 127.037 167.828C127.037 168.72 126.825 169.522 126.4 170.233C125.975 170.943 125.39 171.502 124.645 171.91C123.9 172.308 123.063 172.508 122.136 172.508ZM122.136 171.026C122.743 171.026 123.289 170.891 123.774 170.623C124.259 170.345 124.641 169.964 124.918 169.479C125.195 168.985 125.334 168.434 125.334 167.828C125.334 167.221 125.195 166.675 124.918 166.19C124.641 165.696 124.259 165.314 123.774 165.046C123.289 164.768 122.743 164.63 122.136 164.63C121.529 164.63 120.983 164.768 120.498 165.046C120.013 165.314 119.631 165.696 119.354 166.19C119.077 166.675 118.938 167.221 118.938 167.828C118.938 168.434 119.077 168.985 119.354 169.479C119.631 169.964 120.013 170.345 120.498 170.623C120.983 170.891 121.529 171.026 122.136 171.026ZM129.578 163.278H131.268V170.948H136.026V172.378H129.578V163.278Z" fill="white" fill-opacity="0.87"/>
<defs>
<filter id="filter0_d" x="0" y="0" width="208" height="208" filterUnits="userSpaceOnUse" color-interpolation-filters="sRGB">
<feFlood flood-opacity="0" result="BackgroundImageFix"/>
<feColorMatrix in="SourceAlpha" type="matrix" values="0 0 0 0 0 0 0 0 0 0 0 0 0 0 0 0 0 0 127 0"/>
<feOffset dx="4" dy="4"/>
<feGaussianBlur stdDeviation="2"/>
<feColorMatrix type="matrix" values="0 0 0 0 0 0 0 0 0 0 0 0 0 0 0 0 0 0 0.25 0"/>
<feBlend mode="normal" in2="BackgroundImageFix" result="effect1_dropShadow"/>
<feBlend mode="normal" in="SourceGraphic" in2="effect1_dropShadow" result="shape"/>
</filter>
</defs>
</svg>
