<svg width="208" height="208" viewBox="0 0 208 208" fill="none" xmlns="http://www.w3.org/2000/svg">
<g filter="url(#filter0_d)">
<rect width="200" height="200" rx="8" fill="#121212"/>
<rect width="200" height="200" rx="8" fill="white" fill-opacity="0.08"/>
</g>
<path d="M81.6373 139.086C82.14 139.251 82.5386 139.528 82.8333 139.918C83.128 140.299 83.2753 140.776 83.2753 141.348C83.2753 142.137 82.972 142.748 82.3653 143.181C81.7586 143.606 80.8746 143.818 79.7133 143.818H75.1893V134.718H79.4533C80.528 134.718 81.3556 134.93 81.9363 135.355C82.517 135.771 82.8073 136.347 82.8073 137.084C82.8073 137.535 82.7033 137.933 82.4953 138.28C82.2873 138.627 82.0013 138.895 81.6373 139.086ZM76.8793 136.044V138.553H79.2713C79.8606 138.553 80.3113 138.449 80.6233 138.241C80.944 138.024 81.1043 137.712 81.1043 137.305C81.1043 136.889 80.944 136.577 80.6233 136.369C80.3113 136.152 79.8606 136.044 79.2713 136.044H76.8793ZM79.6093 142.492C80.918 142.492 81.5723 142.054 81.5723 141.179C81.5723 140.304 80.918 139.866 79.6093 139.866H76.8793V142.492H79.6093ZM91.7829 143.818L89.9239 141.153C89.8459 141.162 89.7289 141.166 89.5729 141.166H87.5189V143.818H85.8289V134.718H89.5729C90.3616 134.718 91.0463 134.848 91.6269 135.108C92.2163 135.368 92.6669 135.741 92.9789 136.226C93.2909 136.711 93.4469 137.288 93.4469 137.955C93.4469 138.64 93.2779 139.229 92.9399 139.723C92.6106 140.217 92.1339 140.585 91.5099 140.828L93.6029 143.818H91.7829ZM91.7439 137.955C91.7439 137.374 91.5533 136.928 91.1719 136.616C90.7906 136.304 90.2316 136.148 89.4949 136.148H87.5189V139.775H89.4949C90.2316 139.775 90.7906 139.619 91.1719 139.307C91.5533 138.986 91.7439 138.536 91.7439 137.955ZM101.99 141.712H97.4397L96.5427 143.818H94.8007L98.8957 134.718H100.56L104.668 143.818H102.9L101.99 141.712ZM101.431 140.386L99.7147 136.408L98.0117 140.386H101.431ZM109.708 140.009L108.265 141.491V143.818H106.575V134.718H108.265V139.385L112.763 134.718H114.661L110.839 138.787L114.895 143.818H112.919L109.708 140.009ZM123.621 142.401V143.818H116.796V134.718H123.439V136.135H118.486V138.501H122.88V139.892H118.486V142.401H123.621ZM57.9394 155.712H53.3894L52.4924 157.818H50.7504L54.8454 148.718H56.5094L60.6174 157.818H58.8494L57.9394 155.712ZM57.3804 154.386L55.6644 150.408L53.9614 154.386H57.3804ZM65.3457 157.948C64.6437 157.948 63.9634 157.848 63.3047 157.649C62.6547 157.45 62.1391 157.185 61.7577 156.856L62.3427 155.543C62.7154 155.838 63.1704 156.08 63.7077 156.271C64.2537 156.453 64.7997 156.544 65.3457 156.544C66.0217 156.544 66.5244 156.436 66.8537 156.219C67.1917 156.002 67.3607 155.716 67.3607 155.361C67.3607 155.101 67.2654 154.889 67.0747 154.724C66.8927 154.551 66.6587 154.416 66.3727 154.321C66.0867 154.226 65.6967 154.117 65.2027 153.996C64.5094 153.831 63.9461 153.667 63.5127 153.502C63.0881 153.337 62.7197 153.082 62.4077 152.735C62.1044 152.38 61.9527 151.903 61.9527 151.305C61.9527 150.802 62.0871 150.347 62.3557 149.94C62.6331 149.524 63.0447 149.195 63.5907 148.952C64.1454 148.709 64.8214 148.588 65.6187 148.588C66.1734 148.588 66.7194 148.657 67.2567 148.796C67.7941 148.935 68.2577 149.134 68.6477 149.394L68.1147 150.707C67.7161 150.473 67.3001 150.295 66.8667 150.174C66.4334 150.053 66.0131 149.992 65.6057 149.992C64.9384 149.992 64.4401 150.105 64.1107 150.33C63.7901 150.555 63.6297 150.854 63.6297 151.227C63.6297 151.487 63.7207 151.699 63.9027 151.864C64.0934 152.029 64.3317 152.159 64.6177 152.254C64.9037 152.349 65.2937 152.458 65.7877 152.579C66.4637 152.735 67.0184 152.9 67.4517 153.073C67.8851 153.238 68.2534 153.493 68.5567 153.84C68.8687 154.187 69.0247 154.655 69.0247 155.244C69.0247 155.747 68.8861 156.202 68.6087 156.609C68.3401 157.016 67.9284 157.341 67.3737 157.584C66.8191 157.827 66.1431 157.948 65.3457 157.948ZM74.2715 157.948C73.5695 157.948 72.8892 157.848 72.2305 157.649C71.5805 157.45 71.0648 157.185 70.6835 156.856L71.2685 155.543C71.6412 155.838 72.0962 156.08 72.6335 156.271C73.1795 156.453 73.7255 156.544 74.2715 156.544C74.9475 156.544 75.4502 156.436 75.7795 156.219C76.1175 156.002 76.2865 155.716 76.2865 155.361C76.2865 155.101 76.1912 154.889 76.0005 154.724C75.8185 154.551 75.5845 154.416 75.2985 154.321C75.0125 154.226 74.6225 154.117 74.1285 153.996C73.4352 153.831 72.8718 153.667 72.4385 153.502C72.0138 153.337 71.6455 153.082 71.3335 152.735C71.0302 152.38 70.8785 151.903 70.8785 151.305C70.8785 150.802 71.0128 150.347 71.2815 149.94C71.5588 149.524 71.9705 149.195 72.5165 148.952C73.0712 148.709 73.7472 148.588 74.5445 148.588C75.0992 148.588 75.6452 148.657 76.1825 148.796C76.7198 148.935 77.1835 149.134 77.5735 149.394L77.0405 150.707C76.6418 150.473 76.2258 150.295 75.7925 150.174C75.3592 150.053 74.9388 149.992 74.5315 149.992C73.8642 149.992 73.3658 150.105 73.0365 150.33C72.7158 150.555 72.5555 150.854 72.5555 151.227C72.5555 151.487 72.6465 151.699 72.8285 151.864C73.0192 152.029 73.2575 152.159 73.5435 152.254C73.8295 152.349 74.2195 152.458 74.7135 152.579C75.3895 152.735 75.9442 152.9 76.3775 153.073C76.8108 153.238 77.1792 153.493 77.4825 153.84C77.7945 154.187 77.9505 154.655 77.9505 155.244C77.9505 155.747 77.8118 156.202 77.5345 156.609C77.2658 157.016 76.8542 157.341 76.2995 157.584C75.7448 157.827 75.0688 157.948 74.2715 157.948ZM87.2013 156.401V157.818H80.3763V148.718H87.0193V150.135H82.0663V152.501H86.4603V153.892H82.0663V156.401H87.2013ZM92.6563 157.948C91.9543 157.948 91.2739 157.848 90.6153 157.649C89.9653 157.45 89.4496 157.185 89.0683 156.856L89.6533 155.543C90.0259 155.838 90.4809 156.08 91.0183 156.271C91.5643 156.453 92.1103 156.544 92.6563 156.544C93.3323 156.544 93.8349 156.436 94.1643 156.219C94.5023 156.002 94.6713 155.716 94.6713 155.361C94.6713 155.101 94.5759 154.889 94.3853 154.724C94.2033 154.551 93.9693 154.416 93.6833 154.321C93.3973 154.226 93.0073 154.117 92.5133 153.996C91.8199 153.831 91.2566 153.667 90.8233 153.502C90.3986 153.337 90.0303 153.082 89.7183 152.735C89.4149 152.38 89.2633 151.903 89.2633 151.305C89.2633 150.802 89.3976 150.347 89.6663 149.94C89.9436 149.524 90.3553 149.195 90.9013 148.952C91.4559 148.709 92.1319 148.588 92.9293 148.588C93.4839 148.588 94.0299 148.657 94.5673 148.796C95.1046 148.935 95.5683 149.134 95.9583 149.394L95.4253 150.707C95.0266 150.473 94.6106 150.295 94.1773 150.174C93.7439 150.053 93.3236 149.992 92.9163 149.992C92.2489 149.992 91.7506 150.105 91.4213 150.33C91.1006 150.555 90.9403 150.854 90.9403 151.227C90.9403 151.487 91.0313 151.699 91.2133 151.864C91.4039 152.029 91.6423 152.159 91.9283 152.254C92.2143 152.349 92.6043 152.458 93.0983 152.579C93.7743 152.735 94.3289 152.9 94.7623 153.073C95.1956 153.238 95.5639 153.493 95.8673 153.84C96.1793 154.187 96.3353 154.655 96.3353 155.244C96.3353 155.747 96.1966 156.202 95.9193 156.609C95.6506 157.016 95.2389 157.341 94.6843 157.584C94.1296 157.827 93.4536 157.948 92.6563 157.948ZM101.582 157.948C100.88 157.948 100.2 157.848 99.5411 157.649C98.8911 157.45 98.3754 157.185 97.9941 156.856L98.5791 155.543C98.9517 155.838 99.4067 156.08 99.9441 156.271C100.49 156.453 101.036 156.544 101.582 156.544C102.258 156.544 102.761 156.436 103.09 156.219C103.428 156.002 103.597 155.716 103.597 155.361C103.597 155.101 103.502 154.889 103.311 154.724C103.129 154.551 102.895 154.416 102.609 154.321C102.323 154.226 101.933 154.117 101.439 153.996C100.746 153.831 100.182 153.667 99.7491 153.502C99.3244 153.337 98.9561 153.082 98.6441 152.735C98.3407 152.38 98.1891 151.903 98.1891 151.305C98.1891 150.802 98.3234 150.347 98.5921 149.94C98.8694 149.524 99.2811 149.195 99.8271 148.952C100.382 148.709 101.058 148.588 101.855 148.588C102.41 148.588 102.956 148.657 103.493 148.796C104.03 148.935 104.494 149.134 104.884 149.394L104.351 150.707C103.952 150.473 103.536 150.295 103.103 150.174C102.67 150.053 102.249 149.992 101.842 149.992C101.175 149.992 100.676 150.105 100.347 150.33C100.026 150.555 99.8661 150.854 99.8661 151.227C99.8661 151.487 99.9571 151.699 100.139 151.864C100.33 152.029 100.568 152.159 100.854 152.254C101.14 152.349 101.53 152.458 102.024 152.579C102.7 152.735 103.255 152.9 103.688 153.073C104.121 153.238 104.49 153.493 104.793 153.84C105.105 154.187 105.261 154.655 105.261 155.244C105.261 155.747 105.122 156.202 104.845 156.609C104.576 157.016 104.165 157.341 103.61 157.584C103.055 157.827 102.379 157.948 101.582 157.948ZM116.046 157.818L116.033 151.786L113.043 156.778H112.289L109.299 151.864V157.818H107.687V148.718H109.078L112.692 154.75L116.241 148.718H117.632L117.645 157.818H116.046ZM127.678 156.401V157.818H120.853V148.718H127.496V150.135H122.543V152.501H126.937V153.892H122.543V156.401H127.678ZM138.398 148.718V157.818H137.007L131.989 151.656V157.818H130.312V148.718H131.703L136.721 154.88V148.718H138.398ZM143.432 150.148H140.416V148.718H148.138V150.148H145.122V157.818H143.432V150.148Z" fill="white" fill-opacity="0.87"/>
<path d="M97.0834 80.8664C89.4649 80.8664 83.2941 74.6894 83.2941 67.0679C83.2941 59.4494 89.4649 53.2709 97.0834 53.2709C104.703 53.2709 110.882 59.4494 110.882 67.0679C110.882 74.6894 104.703 80.8664 97.0834 80.8664ZM112.137 68.3154C112.789 62.9418 110.433 58.3474 106.763 55.3476L112.645 49.4647C108.508 45.7949 103.051 43.5742 97.0834 43.5742C84.108 43.5742 73.5913 54.0925 73.5913 67.0679C73.5913 80.0448 84.108 90.5615 97.0834 90.5615C109.645 90.5615 119.9 80.7072 120.545 68.3154H112.137Z" fill="white"/>
<path d="M105.246 66.3023C104.255 66.3023 103.457 65.5065 103.457 64.5137C103.457 63.5299 104.255 62.7266 105.246 62.7266C106.228 62.7266 107.035 63.5299 107.035 64.5137C107.035 65.5065 106.228 66.3023 105.246 66.3023ZM102.119 75.9733C101.135 75.9733 100.339 75.1684 100.339 74.1846C100.339 73.1933 101.135 72.3975 102.119 72.3975C103.112 72.3975 103.906 73.1933 103.906 74.1846C103.906 75.1684 103.112 75.9733 102.119 75.9733ZM91.5839 67.0982C91.5839 64.0893 94.0168 61.6594 97.0242 61.6594C100.025 61.6594 102.466 64.0893 102.466 67.0982C102.466 70.0995 100.025 72.5324 97.0242 72.5324C94.0168 72.5324 91.5839 70.0995 91.5839 67.0982ZM91.9052 75.9733C90.9139 75.9733 90.1181 75.1684 90.1181 74.1846C90.1181 73.1933 90.9139 72.3975 91.9052 72.3975C92.889 72.3975 93.6939 73.1933 93.6939 74.1846C93.6939 75.1684 92.889 75.9733 91.9052 75.9733ZM88.8024 66.3023C87.8125 66.3023 87.0167 65.5065 87.0167 64.5137C87.0167 63.5299 87.8125 62.7266 88.8024 62.7266C89.7967 62.7266 90.5925 63.5299 90.5925 64.5137C90.5925 65.5065 89.7967 66.3023 88.8024 66.3023ZM97.0014 56.6815C97.9821 56.6815 98.787 57.4894 98.787 58.4717C98.787 59.463 97.9821 60.2603 97.0014 60.2603C96.007 60.2603 95.2112 59.463 95.2112 58.4717C95.2112 57.4894 96.007 56.6815 97.0014 56.6815ZM97.0242 54.1486C89.8892 54.1486 84.0836 59.9632 84.0836 67.0982C84.0836 74.2346 89.8892 80.0493 97.0242 80.0493C104.17 80.0493 109.975 74.2346 109.975 67.0982C109.975 59.9632 104.17 54.1486 97.0242 54.1486Z" fill="white"/>
<path d="M113.074 67.4579C113.352 62.8513 111.543 58.5009 108.019 55.2889L116.206 47.099C121.463 52.6545 124.432 59.8243 124.637 67.4579H113.074Z" fill="white"/>
<path d="M138.165 101.818H59.8366C53.8521 101.818 49 96.9659 49 90.9815V43.835C49 37.8506 53.8521 33 59.8366 33H138.165C144.149 33 149 37.8506 149 43.835V90.9815C149 96.9659 144.149 101.818 138.165 101.818Z" stroke="white" stroke-width="0.00112867" stroke-miterlimit="10"/>
<defs>
<filter id="filter0_d" x="0" y="0" width="208" height="208" filterUnits="userSpaceOnUse" color-interpolation-filters="sRGB">
<feFlood flood-opacity="0" result="BackgroundImageFix"/>
<feColorMatrix in="SourceAlpha" type="matrix" values="0 0 0 0 0 0 0 0 0 0 0 0 0 0 0 0 0 0 127 0"/>
<feOffset dx="4" dy="4"/>
<feGaussianBlur stdDeviation="2"/>
<feColorMatrix type="matrix" values="0 0 0 0 0 0 0 0 0 0 0 0 0 0 0 0 0 0 0.25 0"/>
<feBlend mode="normal" in2="BackgroundImageFix" result="effect1_dropShadow"/>
<feBlend mode="normal" in="SourceGraphic" in2="effect1_dropShadow" result="shape"/>
</filter>
</defs>
</svg>
