<svg width="208" height="209" viewBox="0 0 208 209" fill="none" xmlns="http://www.w3.org/2000/svg">
<path d="M142.37 181.45H137.514V186.306C137.514 186.84 137.077 187.277 136.543 187.277C136.009 187.277 135.571 186.84 135.571 186.306V181.45H130.715C130.181 181.45 129.744 181.013 129.744 180.478C129.744 179.944 130.181 179.507 130.715 179.507H135.571V174.651C135.571 174.117 136.009 173.68 136.543 173.68C137.077 173.68 137.514 174.117 137.514 174.651V179.507H142.37C142.905 179.507 143.342 179.944 143.342 180.478C143.342 181.013 142.905 181.45 142.37 181.45Z" fill="#FAFAFA"/>
<g filter="url(#filter0_d)">
<rect y="0.308594" width="200" height="200" rx="8" fill="#121212"/>
<rect y="0.308594" width="200" height="200" rx="8" fill="white" fill-opacity="0.08"/>
</g>
<path d="M36.946 173.657C37.7867 173.761 38.428 174.047 38.87 174.515C39.312 174.983 39.533 175.568 39.533 176.27C39.533 176.799 39.3987 177.28 39.13 177.713C38.8613 178.146 38.454 178.493 37.908 178.753C37.3707 179.004 36.712 179.13 35.932 179.13C35.282 179.13 34.6537 179.039 34.047 178.857C33.449 178.666 32.9377 178.406 32.513 178.077L33.241 176.764C33.5703 177.041 33.969 177.262 34.437 177.427C34.9137 177.583 35.4033 177.661 35.906 177.661C36.504 177.661 36.972 177.54 37.31 177.297C37.6567 177.046 37.83 176.708 37.83 176.283C37.83 175.858 37.6653 175.529 37.336 175.295C37.0153 175.052 36.5213 174.931 35.854 174.931H35.022V173.774L37.089 171.317H32.955V169.9H39.156V171.031L36.946 173.657ZM45.5224 173.384C46.1204 173.384 46.6577 173.501 47.1344 173.735C47.6111 173.96 47.9837 174.285 48.2524 174.71C48.5211 175.135 48.6554 175.624 48.6554 176.179C48.6554 176.768 48.5081 177.288 48.2134 177.739C47.9187 178.181 47.5201 178.523 47.0174 178.766C46.5147 179.009 45.9514 179.13 45.3274 179.13C44.0794 179.13 43.1087 178.74 42.4154 177.96C41.7307 177.18 41.3884 176.062 41.3884 174.606C41.3884 173.583 41.5747 172.712 41.9474 171.993C42.3201 171.265 42.8401 170.715 43.5074 170.342C44.1834 169.961 44.9634 169.77 45.8474 169.77C46.3154 169.77 46.7531 169.822 47.1604 169.926C47.5764 170.021 47.9361 170.164 48.2394 170.355L47.6154 171.629C47.1647 171.334 46.5884 171.187 45.8864 171.187C45.0111 171.187 44.3264 171.456 43.8324 171.993C43.3384 172.53 43.0914 173.306 43.0914 174.32V174.333C43.3601 174.021 43.7024 173.787 44.1184 173.631C44.5344 173.466 45.0024 173.384 45.5224 173.384ZM45.2364 177.804C45.7651 177.804 46.1941 177.665 46.5234 177.388C46.8527 177.102 47.0174 176.725 47.0174 176.257C47.0174 175.78 46.8527 175.403 46.5234 175.126C46.1941 174.849 45.7521 174.71 45.1974 174.71C44.6514 174.71 44.2051 174.857 43.8584 175.152C43.5204 175.447 43.3514 175.819 43.3514 176.27C43.3514 176.712 43.5161 177.08 43.8454 177.375C44.1834 177.661 44.6471 177.804 45.2364 177.804ZM54.0848 179.13C53.3568 179.13 52.7068 178.948 52.1348 178.584C51.5628 178.211 51.1121 177.674 50.7828 176.972C50.4535 176.261 50.2888 175.421 50.2888 174.45C50.2888 173.479 50.4535 172.643 50.7828 171.941C51.1121 171.23 51.5628 170.693 52.1348 170.329C52.7068 169.956 53.3568 169.77 54.0848 169.77C54.8128 169.77 55.4628 169.956 56.0348 170.329C56.6155 170.693 57.0705 171.23 57.3998 171.941C57.7291 172.643 57.8938 173.479 57.8938 174.45C57.8938 175.421 57.7291 176.261 57.3998 176.972C57.0705 177.674 56.6155 178.211 56.0348 178.584C55.4628 178.948 54.8128 179.13 54.0848 179.13ZM54.0848 177.661C54.7348 177.661 55.2461 177.392 55.6188 176.855C56.0001 176.318 56.1908 175.516 56.1908 174.45C56.1908 173.384 56.0001 172.582 55.6188 172.045C55.2461 171.508 54.7348 171.239 54.0848 171.239C53.4435 171.239 52.9321 171.508 52.5508 172.045C52.1781 172.582 51.9918 173.384 51.9918 174.45C51.9918 175.516 52.1781 176.318 52.5508 176.855C52.9321 177.392 53.4435 177.661 54.0848 177.661ZM64.7786 169.9H68.7566C69.7273 169.9 70.5896 170.091 71.3436 170.472C72.0976 170.845 72.6826 171.378 73.0986 172.071C73.5146 172.756 73.7226 173.549 73.7226 174.45C73.7226 175.351 73.5146 176.149 73.0986 176.842C72.6826 177.527 72.0976 178.06 71.3436 178.441C70.5896 178.814 69.7273 179 68.7566 179H64.7786V169.9ZM68.6786 177.57C69.346 177.57 69.931 177.444 70.4336 177.193C70.945 176.933 71.335 176.569 71.6036 176.101C71.881 175.624 72.0196 175.074 72.0196 174.45C72.0196 173.826 71.881 173.28 71.6036 172.812C71.335 172.335 70.945 171.971 70.4336 171.72C69.931 171.46 69.346 171.33 68.6786 171.33H66.4686V177.57H68.6786ZM83.0939 177.583V179H76.2689V169.9H82.9119V171.317H77.9589V173.683H82.3529V175.074H77.9589V177.583H83.0939ZM92.5529 177.583V179H85.7279V169.9H92.3709V171.317H87.4179V173.683H91.8119V175.074H87.4179V177.583H92.5529ZM98.9308 169.9C99.7195 169.9 100.404 170.03 100.985 170.29C101.574 170.55 102.025 170.923 102.337 171.408C102.649 171.893 102.805 172.47 102.805 173.137C102.805 173.796 102.649 174.372 102.337 174.866C102.025 175.351 101.574 175.724 100.985 175.984C100.404 176.244 99.7195 176.374 98.9308 176.374H96.8768V179H95.1868V169.9H98.9308ZM98.8528 174.944C99.5895 174.944 100.149 174.788 100.53 174.476C100.911 174.164 101.102 173.718 101.102 173.137C101.102 172.556 100.911 172.11 100.53 171.798C100.149 171.486 99.5895 171.33 98.8528 171.33H96.8768V174.944H98.8528ZM113.924 179.13C113.006 179.13 112.174 178.931 111.428 178.532C110.692 178.125 110.111 177.566 109.686 176.855C109.27 176.144 109.062 175.343 109.062 174.45C109.062 173.557 109.275 172.756 109.699 172.045C110.124 171.334 110.705 170.78 111.441 170.381C112.187 169.974 113.019 169.77 113.937 169.77C114.683 169.77 115.363 169.9 115.978 170.16C116.594 170.42 117.114 170.797 117.538 171.291L116.446 172.318C115.788 171.607 114.977 171.252 114.015 171.252C113.391 171.252 112.832 171.391 112.338 171.668C111.844 171.937 111.459 172.314 111.181 172.799C110.904 173.284 110.765 173.835 110.765 174.45C110.765 175.065 110.904 175.616 111.181 176.101C111.459 176.586 111.844 176.968 112.338 177.245C112.832 177.514 113.391 177.648 114.015 177.648C114.977 177.648 115.788 177.288 116.446 176.569L117.538 177.609C117.114 178.103 116.589 178.48 115.965 178.74C115.35 179 114.67 179.13 113.924 179.13ZM119.908 169.9H121.598V177.57H126.356V179H119.908V169.9ZM135.265 177.583V179H128.44V169.9H135.083V171.317H130.13V173.683H134.524V175.074H130.13V177.583H135.265ZM145.985 169.9V179H144.594L139.576 172.838V179H137.899V169.9H139.29L144.308 176.062V169.9H145.985ZM151.994 179.13C151.292 179.13 150.612 179.03 149.953 178.831C149.303 178.632 148.788 178.367 148.406 178.038L148.991 176.725C149.364 177.02 149.819 177.262 150.356 177.453C150.902 177.635 151.448 177.726 151.994 177.726C152.67 177.726 153.173 177.618 153.502 177.401C153.84 177.184 154.009 176.898 154.009 176.543C154.009 176.283 153.914 176.071 153.723 175.906C153.541 175.733 153.307 175.598 153.021 175.503C152.735 175.408 152.345 175.299 151.851 175.178C151.158 175.013 150.595 174.849 150.161 174.684C149.737 174.519 149.368 174.264 149.056 173.917C148.753 173.562 148.601 173.085 148.601 172.487C148.601 171.984 148.736 171.529 149.004 171.122C149.282 170.706 149.693 170.377 150.239 170.134C150.794 169.891 151.47 169.77 152.267 169.77C152.822 169.77 153.368 169.839 153.905 169.978C154.443 170.117 154.906 170.316 155.296 170.576L154.763 171.889C154.365 171.655 153.949 171.477 153.515 171.356C153.082 171.235 152.662 171.174 152.254 171.174C151.587 171.174 151.089 171.287 150.759 171.512C150.439 171.737 150.278 172.036 150.278 172.409C150.278 172.669 150.369 172.881 150.551 173.046C150.742 173.211 150.98 173.341 151.266 173.436C151.552 173.531 151.942 173.64 152.436 173.761C153.112 173.917 153.667 174.082 154.1 174.255C154.534 174.42 154.902 174.675 155.205 175.022C155.517 175.369 155.673 175.837 155.673 176.426C155.673 176.929 155.535 177.384 155.257 177.791C154.989 178.198 154.577 178.523 154.022 178.766C153.468 179.009 152.792 179.13 151.994 179.13ZM164.924 177.583V179H158.099V169.9H164.742V171.317H159.789V173.683H164.183V175.074H159.789V177.583H164.924Z" fill="white" fill-opacity="0.87"/>
<path d="M99.5023 31.2051C73.1495 31.2051 51.7051 52.645 51.7051 79.0023C51.7051 105.355 73.1495 126.79 99.5023 126.79C125.855 126.79 147.295 105.355 147.295 79.0023C147.295 52.645 125.855 31.2051 99.5023 31.2051ZM99.5023 129C71.9315 129 49.5 106.573 49.5 79.0023C49.5 51.4315 71.9315 29 99.5023 29C127.073 29 149.5 51.4315 149.5 79.0023C149.5 106.573 127.073 129 99.5023 129Z" fill="white" fill-opacity="0.87"/>
<path d="M99.4987 35.7069C75.6816 35.7069 56.302 55.0821 56.302 78.8991C56.302 102.716 75.6816 122.091 99.4987 122.091C123.316 122.091 142.691 102.716 142.691 78.8991C142.691 55.0821 123.316 35.7069 99.4987 35.7069ZM99.4987 123.074C75.1428 123.074 55.3239 103.255 55.3239 78.8991C55.3239 54.5387 75.1428 34.7244 99.4987 34.7244C123.855 34.7244 143.673 54.5387 143.673 78.8991C143.673 103.255 123.855 123.074 99.4987 123.074Z" fill="white" fill-opacity="0.87"/>
<path d="M134.837 79.0636C134.818 78.9595 134.787 78.8644 134.742 78.7421C134.728 78.7059 134.71 78.6742 134.696 78.6289C134.665 78.552 134.633 78.4569 134.588 78.3663C134.569 78.321 134.542 78.2712 134.524 78.2577C134.492 78.226 134.461 78.1807 134.447 78.149C134.434 78.1309 134.416 78.1037 134.402 78.0675L134.307 77.9452C134.216 77.8501 134.153 77.7777 134.121 77.6826L134.09 77.592C134.062 77.4924 134.044 77.4019 134.044 77.266C134.044 77.1845 134.044 77.0894 134.026 76.9853C134.026 76.9355 134.013 76.9038 134.013 76.8766V76.8313C133.981 76.7046 133.967 76.5778 133.917 76.4419C133.917 76.4102 133.917 76.3785 133.904 76.3604L133.687 75.396C133.641 75.2918 133.61 75.1832 133.578 75.0564L133.514 74.8255C133.501 74.7621 133.469 74.6987 133.456 74.6534C133.329 74.1915 133.207 73.784 133.111 73.5033C133.08 73.4127 133.048 73.3358 133.034 73.2905C133.021 73.2588 133.003 73.2452 133.003 73.2452L132.989 73.1637C132.894 72.9464 132.582 72.9011 131.015 72.6973C129.666 72.5298 127.8 72.2943 126.609 71.8415C126.356 71.7555 126.016 71.6106 125.581 71.425C122.525 70.1209 115.384 67.0645 104.966 66.734C104.744 66.7204 104.513 66.7204 104.282 66.7204C103.988 66.7068 103.675 66.7068 103.381 66.7068C97.2002 66.6751 96.8425 66.7838 95.4796 67.2049C93.5824 67.7754 88.7873 70.216 85.6177 71.828C84.3906 72.4347 83.4443 72.9328 83.1183 73.055C82.5749 73.2905 81.1803 73.4942 79.4234 73.6799L79.3782 74.0648C81.2256 73.8655 82.67 73.6799 83.2722 73.4127C83.6028 73.2724 84.5174 72.806 85.7898 72.1721C88.7556 70.6688 93.7227 68.1512 95.6018 67.5762C96.9195 67.1551 97.2636 67.0645 103.381 67.0917C103.675 67.0917 103.97 67.0917 104.282 67.1098C104.481 67.0917 104.717 67.1098 104.934 67.1234C115.289 67.4539 122.398 70.4786 125.428 71.7827C125.862 71.9728 126.22 72.1087 126.469 72.2174C127.71 72.6837 129.589 72.9192 130.97 73.0867C131.667 73.1773 132.446 73.2724 132.645 73.3493C132.645 73.3675 132.663 73.3992 132.663 73.4127C132.69 73.4761 132.708 73.535 132.74 73.6301C132.835 73.8927 132.971 74.3138 133.08 74.7621C133.111 74.8119 133.13 74.8707 133.143 74.9341L133.207 75.1515C133.234 75.2918 133.265 75.4141 133.315 75.5273L133.514 76.3287C133.514 76.3604 133.514 76.3921 133.533 76.4736L133.546 76.5461C133.596 76.6593 133.61 76.7634 133.623 76.8766C133.623 76.9219 133.623 76.9536 133.641 77.017C133.655 77.1211 133.655 77.2026 133.655 77.266C133.655 77.4517 133.673 77.592 133.732 77.7596C133.75 77.7777 133.75 77.7913 133.75 77.8094C133.809 77.9769 133.917 78.0856 134.013 78.2124L134.026 78.226C134.044 78.2577 134.076 78.2894 134.076 78.2894L134.121 78.3527C134.139 78.3844 134.153 78.4252 134.198 78.475L134.23 78.5384C134.275 78.6108 134.307 78.6923 134.357 78.801L134.37 78.8644C134.416 78.9595 134.434 79.0455 134.461 79.1451C134.728 80.1322 134.633 82.9305 134.384 83.5508L134.357 83.6142C134.18 83.664 133.994 83.7863 133.75 83.9719C133.673 84.0353 133.596 84.0942 133.469 84.1712C133.456 84.2029 133.424 84.221 133.374 84.2391C133.342 84.2617 133.329 84.2798 133.297 84.298L133.143 84.4066C133.08 84.4519 133.021 84.4791 132.958 84.5289C132.894 84.5606 132.835 84.6059 132.785 84.6375C132.663 84.7009 132.555 84.7779 132.414 84.8368L132.12 85.0088C131.821 85.1673 131.346 85.3077 130.784 85.4435C130.721 85.4435 130.657 85.4616 130.594 85.4752C130.549 85.4933 130.49 85.5069 130.395 85.525H130.349C130.304 85.5386 130.272 85.5386 130.254 85.5567C129.602 85.6926 128.937 85.7877 128.502 85.851C128.579 85.4752 128.611 85.0722 128.611 84.6511C128.611 80.9608 125.613 77.9452 121.918 77.9452C118.237 77.9452 115.24 80.9608 115.24 84.6511C115.24 85.0722 115.276 85.4752 115.353 85.8963H83.1816C83.2586 85.4299 83.3039 85.0405 83.3039 84.6511C83.3039 81.7985 81.5063 79.3444 78.9752 78.3844L78.9254 78.7829C81.2573 79.7021 82.919 81.9977 82.919 84.6511C82.919 85.0722 82.8692 85.525 82.747 86.0503L82.7017 86.2857H115.833L115.783 86.0503C115.679 85.5839 115.629 85.1175 115.629 84.6511C115.629 81.1782 118.454 78.3346 121.918 78.3346C125.396 78.3346 128.221 81.1782 128.221 84.6511C128.221 85.1537 128.176 85.5975 128.049 86.0186L128.036 86.2676H128.285C128.706 86.2223 129.525 86.1137 130.363 85.928C130.381 85.9144 130.395 85.9144 130.408 85.9144C130.44 85.9144 130.49 85.8963 130.49 85.8963C130.549 85.8827 130.612 85.8646 130.689 85.851C130.739 85.851 130.784 85.8329 130.861 85.8148C131.45 85.679 131.979 85.525 132.292 85.353L132.6 85.1809C132.74 85.1175 132.862 85.0405 133.003 84.9636C133.048 84.9183 133.111 84.8866 133.175 84.8549C133.234 84.8096 133.297 84.7643 133.392 84.7009L133.596 84.5606C133.641 84.5289 133.705 84.4972 133.718 84.4655C133.809 84.4066 133.904 84.3432 133.981 84.2798C134.18 84.1395 134.37 84.0036 134.434 84.0036L134.542 83.9855L134.601 83.9221C134.646 83.8769 134.696 83.7863 134.742 83.7229C135.022 83.0075 135.117 80.1322 134.837 79.0636ZM75.1853 78.5067L75.0766 78.1309C72.1289 78.8282 69.9374 81.4861 69.9374 84.6511C69.9374 85.0722 69.9691 85.4752 70.046 85.8963H67.0983C66.2561 85.8963 66.2561 85.8963 65.3596 85.8329L64.4585 85.7877C64.0555 85.7695 63.725 85.679 63.5122 85.5386C63.4307 85.4616 63.3854 85.4118 63.3537 85.3711L63.3265 85.3213C63.3084 85.276 63.2948 85.2443 63.2767 85.2126C63.245 85.0541 63.2631 84.9002 63.2948 84.7462C63.3084 84.7145 63.3265 84.6828 63.3265 84.6511C63.3401 84.624 63.3401 84.6059 63.3401 84.5923C63.3401 84.5787 63.3537 84.5606 63.3537 84.5606L63.3718 84.4972C63.4171 84.4202 63.4488 84.3749 63.4488 84.3749L63.4941 84.3432V84.2798C63.5122 84.2527 63.5394 84.2029 63.5575 84.1395C63.5711 84.1259 63.5711 84.1078 63.5892 84.0761C63.6027 84.0489 63.6163 84.0036 63.6163 84.0036C63.6661 83.9085 63.6978 83.8316 63.725 83.7048C63.7431 83.6142 63.7567 83.5191 63.7567 83.4603C63.7567 82.9441 63.7567 82.4958 63.7884 82.0611L63.7748 81.2823C63.8065 81.1782 63.8065 81.0469 63.8065 80.9608V80.7888C63.8201 80.739 63.8201 80.6756 63.8201 80.6167C63.8201 80.5397 63.8201 80.4492 63.8337 80.3224C63.8337 80.2454 63.8337 80.1685 63.8518 80.0598C63.8518 80.0281 63.8518 79.9783 63.8654 79.9466V79.8243L63.9152 79.4349C64.0691 78.2712 64.3634 77.8682 64.9521 77.0623C65.0789 76.8947 65.2192 76.7046 65.3596 76.5053C65.9935 75.5997 70.123 75.0247 74.0352 74.6126L73.9265 74.2368C69.7517 74.6715 65.7762 75.2466 65.0472 76.2699C64.8932 76.4872 64.7664 76.6774 64.6442 76.8313C64.0374 77.6645 63.6978 78.1309 63.5394 79.3715C63.5258 79.5164 63.4941 79.6387 63.4805 79.7926V79.9058C63.4624 79.9647 63.4624 80.01 63.4624 80.0281C63.4488 80.1186 63.4488 80.2318 63.4488 80.2907C63.4307 80.4175 63.4307 80.5216 63.4307 80.6167C63.4307 80.6665 63.4307 80.7073 63.4171 80.7571V80.9608C63.4171 81.0378 63.4171 81.1284 63.4035 81.2506V82.0611C63.3718 82.4777 63.3718 82.9441 63.3718 83.4603C63.3718 83.501 63.3718 83.5644 63.3537 83.6459C63.3401 83.7048 63.3084 83.7501 63.2631 83.8497C63.2631 83.8769 63.245 83.8904 63.2315 83.9221C63.2179 83.9538 63.1998 83.9855 63.1681 84.0625L63.1409 84.1259C63.1228 84.1395 63.1092 84.1712 63.1092 84.1893C63.0911 84.221 63.0594 84.2617 63.0322 84.3251C63.0141 84.3432 63.0141 84.3749 62.9824 84.4519L62.919 84.624C62.8873 84.8232 62.8421 85.0541 62.9054 85.3077C62.919 85.3847 62.9643 85.4435 62.9824 85.5069L63.0141 85.5567C63.073 85.6473 63.15 85.7424 63.2767 85.8329C63.5575 86.0503 63.9469 86.1589 64.4404 86.1725L65.3279 86.2223C66.2561 86.2857 66.2561 86.2857 67.0983 86.2857H70.526L70.4807 86.0503C70.372 85.5839 70.3268 85.1175 70.3268 84.6511C70.3268 81.6717 72.3915 79.1587 75.1853 78.5067ZM105.631 73.209C105.631 71.6559 105.523 69.9488 105.26 67.8705H105.772C105.926 67.8841 106.052 67.8841 106.161 67.8841C107.51 67.8841 110.494 68.1965 112.559 68.7852C114.479 69.333 118.269 71.5653 118.799 72.1992C117.898 72.3441 112.324 72.806 105.631 73.209ZM112.668 68.4093C110.571 67.8117 107.542 67.4947 106.161 67.4947C106.052 67.4947 105.926 67.4947 105.772 67.4811H104.825L104.857 67.6984C105.133 69.9488 105.26 71.7691 105.242 73.4127V73.6301L105.446 73.6165C111.921 73.2271 118.658 72.6973 119.03 72.5479C119.156 72.4981 119.233 72.403 119.233 72.2626C119.215 71.5201 114.42 68.9119 112.668 68.4093ZM105.631 73.209C105.631 71.6559 105.523 69.9488 105.26 67.8705H105.772C105.926 67.8841 106.052 67.8841 106.161 67.8841C107.51 67.8841 110.494 68.1965 112.559 68.7852C114.479 69.333 118.269 71.5653 118.799 72.1992C117.898 72.3441 112.324 72.806 105.631 73.209ZM112.668 68.4093C110.571 67.8117 107.542 67.4947 106.161 67.4947C106.052 67.4947 105.926 67.4947 105.772 67.4811H104.825L104.857 67.6984C105.133 69.9488 105.26 71.7691 105.242 73.4127V73.6301L105.446 73.6165C111.921 73.2271 118.658 72.6973 119.03 72.5479C119.156 72.4981 119.233 72.403 119.233 72.2626C119.215 71.5201 114.42 68.9119 112.668 68.4093ZM105.631 73.209C105.631 71.6559 105.523 69.9488 105.26 67.8705H105.772C105.926 67.8841 106.052 67.8841 106.161 67.8841C107.51 67.8841 110.494 68.1965 112.559 68.7852C114.479 69.333 118.269 71.5653 118.799 72.1992C117.898 72.3441 112.324 72.806 105.631 73.209ZM112.668 68.4093C110.571 67.8117 107.542 67.4947 106.161 67.4947C106.052 67.4947 105.926 67.4947 105.772 67.4811H104.825L104.857 67.6984C105.133 69.9488 105.26 71.7691 105.242 73.4127V73.6301L105.446 73.6165C111.921 73.2271 118.658 72.6973 119.03 72.5479C119.156 72.4981 119.233 72.403 119.233 72.2626C119.215 71.5201 114.42 68.9119 112.668 68.4093ZM105.631 73.209C105.631 71.6559 105.523 69.9488 105.26 67.8705H105.772C105.926 67.8841 106.052 67.8841 106.161 67.8841C107.51 67.8841 110.494 68.1965 112.559 68.7852C114.479 69.333 118.269 71.5653 118.799 72.1992C117.898 72.3441 112.324 72.806 105.631 73.209ZM112.668 68.4093C110.571 67.8117 107.542 67.4947 106.161 67.4947C106.052 67.4947 105.926 67.4947 105.772 67.4811H104.825L104.857 67.6984C105.133 69.9488 105.26 71.7691 105.242 73.4127V73.6301L105.446 73.6165C111.921 73.2271 118.658 72.6973 119.03 72.5479C119.156 72.4981 119.233 72.403 119.233 72.2626C119.215 71.5201 114.42 68.9119 112.668 68.4093ZM105.631 73.209C105.631 71.6559 105.523 69.9488 105.26 67.8705H105.772C105.926 67.8841 106.052 67.8841 106.161 67.8841C107.51 67.8841 110.494 68.1965 112.559 68.7852C114.479 69.333 118.269 71.5653 118.799 72.1992C117.898 72.3441 112.324 72.806 105.631 73.209ZM112.668 68.4093C110.571 67.8117 107.542 67.4947 106.161 67.4947C106.052 67.4947 105.926 67.4947 105.772 67.4811H104.825L104.857 67.6984C105.133 69.9488 105.26 71.7691 105.242 73.4127V73.6301L105.446 73.6165C111.921 73.2271 118.658 72.6973 119.03 72.5479C119.156 72.4981 119.233 72.403 119.233 72.2626C119.215 71.5201 114.42 68.9119 112.668 68.4093Z" fill="white" fill-opacity="0.87"/>
<path d="M103.726 67.6884C103.898 67.702 104.052 67.702 104.206 67.702V67.6884H103.726ZM96.0105 73.5702C97.3598 73.5249 98.8359 73.4615 100.421 73.371C98.9763 73.4344 97.4866 73.5068 96.0105 73.5702Z" fill="white" fill-opacity="0.87"/>
<path d="M102.768 73.257C102.474 73.2706 102.148 73.2887 101.835 73.3023C101.355 73.334 100.875 73.3611 100.409 73.3792C98.8241 73.4743 97.3525 73.5377 95.9986 73.5785C95.6907 73.5966 95.3964 73.5966 95.084 73.6102C94.6946 73.6283 94.3233 73.6419 93.9656 73.66C93.4856 73.6781 93.0192 73.6917 92.5529 73.7052C92.1046 73.7052 91.6518 73.7234 91.2352 73.7234C90.6602 73.7369 90.0987 73.7369 89.587 73.7369H89.4784C89.4648 73.7234 89.4467 73.7052 89.4331 73.6917H89.5282C89.6957 73.6917 90.0081 73.6102 90.067 73.0351C90.0987 72.777 90.1757 72.1205 90.1757 71.5952C90.1757 71.1922 89.8225 70.9885 89.4331 70.9568L90.5968 70.3998C90.8141 70.2912 91.0315 70.1825 91.2488 70.0874C91.5748 69.9516 91.8872 69.8067 92.1951 69.6708C92.4442 69.544 92.6932 69.4354 92.9423 69.3448C94.2146 68.7834 95.333 68.3351 96.0484 68.0815C96.1254 68.0543 96.2024 68.0227 96.2794 68.0091C96.4061 67.9593 96.5148 67.9276 96.6054 67.8959C96.6688 67.8823 96.714 67.8687 96.7457 67.8687C96.8544 67.8551 96.9948 67.837 97.1487 67.8053C97.5064 67.7736 97.9592 67.7419 98.4347 67.7283C99.2135 67.6966 100.178 67.6831 101.328 67.6831C102.148 67.6831 102.985 67.6966 103.714 67.6966H104.194V67.7102C104.461 69.7478 104.57 71.5318 104.57 73.1483C103.95 73.1755 103.357 73.2253 102.768 73.257ZM89.1071 73.1483C88.8761 73.0351 88.686 72.9762 88.5456 73.0668C88.4233 73.1483 88.4098 73.257 88.4233 73.3204C88.4233 73.4743 88.5637 73.5966 88.7629 73.7234C88.455 73.7234 88.1607 73.7234 87.8936 73.7052C86.8884 73.6917 86.1594 73.6283 85.7202 73.5468C85.7519 73.506 85.7971 73.4743 85.8288 73.4426C86.4673 72.9129 87.1193 72.3559 87.957 71.8714C88.1743 71.7492 88.36 71.6541 88.532 71.5635C88.7811 71.4548 88.9984 71.3779 89.338 71.3462C89.338 71.3462 89.7908 71.3462 89.7908 71.5952C89.7908 72.1069 89.7138 72.7453 89.6821 72.9898C89.6504 73.3023 89.5599 73.3023 89.5282 73.3023C89.4014 73.3023 89.2293 73.2253 89.1071 73.1483ZM104.928 71.7175C104.928 71.3779 104.896 71.0383 104.882 70.6625C104.819 69.6844 104.71 68.6294 104.57 67.4974L104.538 67.3208H104.371C103.483 67.3118 102.41 67.2937 101.328 67.2937C98.9644 67.2937 97.443 67.3525 96.6823 67.4838C96.4197 67.5246 95.6092 67.8234 94.5225 68.2581C94.1829 68.3985 93.798 68.5524 93.3905 68.72C90.2526 70.0557 85.9556 72.1069 84.9912 73.2389C84.9006 73.3611 84.9006 73.4743 84.9142 73.5377C84.9323 73.6283 84.9912 73.6917 85.0681 73.7369C85.1315 73.7822 85.1949 73.8139 85.2221 73.8139C85.2538 73.8275 85.3036 73.8456 85.3489 73.8592C85.77 73.9814 86.5759 74.063 87.88 74.0946C88.3147 74.1082 88.7811 74.1218 89.2927 74.1218H89.587C93.7799 74.1218 100.16 73.7958 104.769 73.5196L104.959 73.506V73.3204C104.959 72.8042 104.959 72.2744 104.928 71.7175Z" fill="white" fill-opacity="0.87"/>
<path d="M63.9383 79.1477L64.0832 79.1522C64.4001 79.1613 64.7126 79.1703 65.0295 79.1703C65.6453 79.1703 66.1343 79.1296 66.56 79.0435C67.5924 78.7945 67.9455 77.9885 68.2172 77.015C67.4565 76.9697 66.7049 76.9607 66.1162 76.9607C65.7676 76.9607 65.4144 76.9652 65.0612 76.9652H64.9661L64.9299 77.015C64.3911 77.7576 64.1013 78.1515 63.9383 79.1477ZM65.0295 79.5597C64.708 79.5597 64.3911 79.5507 64.0696 79.5371L63.49 79.5235L63.5217 79.3062C63.6893 78.061 64.0379 77.5765 64.6175 76.7886L64.7669 76.5803L65.0612 76.5758C65.4099 76.5758 65.7631 76.5713 66.1162 76.5713C66.7683 76.5713 67.6286 76.5803 68.4798 76.6437L68.7108 76.6618L68.6564 76.8837C68.3485 78.0429 67.9682 79.1024 66.646 79.4239C66.1887 79.5144 65.6725 79.5597 65.0295 79.5597Z" fill="white" fill-opacity="0.87"/>
<path d="M75.8304 83.3121L73.4985 82.5514C74.0282 81.6866 74.884 81.0798 75.8304 80.8761V83.3121ZM75.9843 80.455C74.7572 80.627 73.6569 81.4194 73.0366 82.5695L72.9279 82.7688L74.9474 83.4208L75.6719 83.6698L76.2152 83.8419V80.4233L75.9843 80.455ZM77.4604 83.3121V80.8761C78.4204 81.0934 79.2626 81.7002 79.7742 82.5514L77.4604 83.3121ZM80.2406 82.5695C79.6474 81.4511 78.5471 80.6587 77.3065 80.455L77.071 80.4097V83.8419L80.3493 82.7688L80.2406 82.5695ZM76.6363 83.8736C76.3103 83.8736 76.0613 84.1362 76.0613 84.4622C76.0613 84.7565 76.3239 85.0237 76.6363 85.0237C76.9488 85.0237 77.2114 84.7565 77.2114 84.4622C77.2114 84.1362 76.9623 83.8736 76.6363 83.8736ZM73.8743 86.853C73.2856 86.1874 72.9596 85.3452 72.9596 84.4622C72.9596 84.34 72.9732 84.2132 72.9913 84.109L74.5716 84.6162L75.3323 84.8652L73.8743 86.853ZM72.6789 83.5929L72.6291 83.8102C72.6019 84.0094 72.5702 84.2268 72.5702 84.4622C72.5702 85.5353 72.9913 86.5451 73.7656 87.3058L73.9196 87.4597L75.1648 85.7346L75.613 85.1278L75.939 84.6479L72.6789 83.5929ZM79.4165 86.853L77.9902 84.915L77.9585 84.8652L80.2859 84.1226C80.2995 84.2268 80.2995 84.34 80.2995 84.4622C80.2995 85.3633 80.0051 86.1874 79.4165 86.853ZM80.6436 83.8238L80.5938 83.6064L77.3518 84.6479L79.3712 87.4597L79.5388 87.3058C80.2859 86.527 80.6889 85.5172 80.6889 84.4622C80.6889 84.2449 80.6753 84.0275 80.6436 83.8238ZM75.1919 87.831L76.6363 85.8297L78.0808 87.8174C77.1344 88.234 76.0794 88.2204 75.1919 87.831ZM77.4287 86.2327L76.6363 85.1595L74.6033 87.9714L74.8025 88.0801C75.3776 88.3744 75.9843 88.5147 76.6363 88.5147C77.2567 88.5147 77.8815 88.3563 78.4702 88.0801L78.6694 87.9714L77.4287 86.2327ZM79.4165 86.853L77.9902 84.915L77.9585 84.8652L80.2859 84.1226C80.2995 84.2268 80.2995 84.34 80.2995 84.4622C80.2995 85.3633 80.0051 86.1874 79.4165 86.853ZM80.6436 83.8238L80.5938 83.6064L77.3518 84.6479L79.3712 87.4597L79.5388 87.3058C80.2859 86.527 80.6889 85.5172 80.6889 84.4622C80.6889 84.2449 80.6753 84.0275 80.6436 83.8238ZM77.4604 83.3121V80.8761C78.4204 81.0934 79.2626 81.7002 79.7742 82.5514L77.4604 83.3121ZM80.2406 82.5695C79.6474 81.4511 78.5471 80.6587 77.3065 80.455L77.071 80.4097V83.8419L80.3493 82.7688L80.2406 82.5695ZM75.1919 87.831L76.6363 85.8297L78.0808 87.8174C77.1344 88.234 76.0794 88.2204 75.1919 87.831ZM77.4287 86.2327L76.6363 85.1595L74.6033 87.9714L74.8025 88.0801C75.3776 88.3744 75.9843 88.5147 76.6363 88.5147C77.2567 88.5147 77.8815 88.3563 78.4702 88.0801L78.6694 87.9714L77.4287 86.2327ZM76.6363 83.8736C76.3103 83.8736 76.0613 84.1362 76.0613 84.4622C76.0613 84.7565 76.3239 85.0237 76.6363 85.0237C76.9488 85.0237 77.2114 84.7565 77.2114 84.4622C77.2114 84.1362 76.9623 83.8736 76.6363 83.8736ZM75.8304 83.3121L73.4985 82.5514C74.0282 81.6866 74.884 81.0798 75.8304 80.8761V83.3121ZM75.9843 80.455C74.7572 80.627 73.6569 81.4194 73.0366 82.5695L72.9279 82.7688L74.9474 83.4208L75.6719 83.6698L76.2152 83.8419V80.4233L75.9843 80.455ZM73.8743 86.853C73.2856 86.1874 72.9596 85.3452 72.9596 84.4622C72.9596 84.34 72.9732 84.2132 72.9913 84.109L74.5716 84.6162L75.3323 84.8652L73.8743 86.853ZM72.6789 83.5929L72.6291 83.8102C72.6019 84.0094 72.5702 84.2268 72.5702 84.4622C72.5702 85.5353 72.9913 86.5451 73.7656 87.3058L73.9196 87.4597L75.1648 85.7346L75.613 85.1278L75.939 84.6479L72.6789 83.5929ZM73.8743 86.853C73.2856 86.1874 72.9596 85.3452 72.9596 84.4622C72.9596 84.34 72.9732 84.2132 72.9913 84.109L74.5716 84.6162L75.3323 84.8652L73.8743 86.853ZM72.6789 83.5929L72.6291 83.8102C72.6019 84.0094 72.5702 84.2268 72.5702 84.4622C72.5702 85.5353 72.9913 86.5451 73.7656 87.3058L73.9196 87.4597L75.1648 85.7346L75.613 85.1278L75.939 84.6479L72.6789 83.5929ZM75.8304 83.3121L73.4985 82.5514C74.0282 81.6866 74.884 81.0798 75.8304 80.8761V83.3121ZM75.9843 80.455C74.7572 80.627 73.6569 81.4194 73.0366 82.5695L72.9279 82.7688L74.9474 83.4208L75.6719 83.6698L76.2152 83.8419V80.4233L75.9843 80.455ZM76.6363 83.8736C76.3103 83.8736 76.0613 84.1362 76.0613 84.4622C76.0613 84.7565 76.3239 85.0237 76.6363 85.0237C76.9488 85.0237 77.2114 84.7565 77.2114 84.4622C77.2114 84.1362 76.9623 83.8736 76.6363 83.8736ZM75.1919 87.831L76.6363 85.8297L78.0808 87.8174C77.1344 88.234 76.0794 88.2204 75.1919 87.831ZM77.4287 86.2327L76.6363 85.1595L74.6033 87.9714L74.8025 88.0801C75.3776 88.3744 75.9843 88.5147 76.6363 88.5147C77.2567 88.5147 77.8815 88.3563 78.4702 88.0801L78.6694 87.9714L77.4287 86.2327ZM77.4604 83.3121V80.8761C78.4204 81.0934 79.2626 81.7002 79.7742 82.5514L77.4604 83.3121ZM80.2406 82.5695C79.6474 81.4511 78.5471 80.6587 77.3065 80.455L77.071 80.4097V83.8419L80.3493 82.7688L80.2406 82.5695ZM79.4165 86.853L77.9902 84.915L77.9585 84.8652L80.2859 84.1226C80.2995 84.2268 80.2995 84.34 80.2995 84.4622C80.2995 85.3633 80.0051 86.1874 79.4165 86.853ZM80.6436 83.8238L80.5938 83.6064L77.3518 84.6479L79.3712 87.4597L79.5388 87.3058C80.2859 86.527 80.6889 85.5172 80.6889 84.4622C80.6889 84.2449 80.6753 84.0275 80.6436 83.8238ZM79.4165 86.853L77.9902 84.915L77.9585 84.8652L80.2859 84.1226C80.2995 84.2268 80.2995 84.34 80.2995 84.4622C80.2995 85.3633 80.0051 86.1874 79.4165 86.853ZM80.6436 83.8238L80.5938 83.6064L77.3518 84.6479L79.3712 87.4597L79.5388 87.3058C80.2859 86.527 80.6889 85.5172 80.6889 84.4622C80.6889 84.2449 80.6753 84.0275 80.6436 83.8238ZM77.4604 83.3121V80.8761C78.4204 81.0934 79.2626 81.7002 79.7742 82.5514L77.4604 83.3121ZM80.2406 82.5695C79.6474 81.4511 78.5471 80.6587 77.3065 80.455L77.071 80.4097V83.8419L80.3493 82.7688L80.2406 82.5695ZM75.1919 87.831L76.6363 85.8297L78.0808 87.8174C77.1344 88.234 76.0794 88.2204 75.1919 87.831ZM77.4287 86.2327L76.6363 85.1595L74.6033 87.9714L74.8025 88.0801C75.3776 88.3744 75.9843 88.5147 76.6363 88.5147C77.2567 88.5147 77.8815 88.3563 78.4702 88.0801L78.6694 87.9714L77.4287 86.2327ZM76.6363 83.8736C76.3103 83.8736 76.0613 84.1362 76.0613 84.4622C76.0613 84.7565 76.3239 85.0237 76.6363 85.0237C76.9488 85.0237 77.2114 84.7565 77.2114 84.4622C77.2114 84.1362 76.9623 83.8736 76.6363 83.8736ZM75.8304 83.3121L73.4985 82.5514C74.0282 81.6866 74.884 81.0798 75.8304 80.8761V83.3121ZM75.9843 80.455C74.7572 80.627 73.6569 81.4194 73.0366 82.5695L72.9279 82.7688L74.9474 83.4208L75.6719 83.6698L76.2152 83.8419V80.4233L75.9843 80.455ZM73.8743 86.853C73.2856 86.1874 72.9596 85.3452 72.9596 84.4622C72.9596 84.34 72.9732 84.2132 72.9913 84.109L74.5716 84.6162L75.3323 84.8652L73.8743 86.853ZM72.6789 83.5929L72.6291 83.8102C72.6019 84.0094 72.5702 84.2268 72.5702 84.4622C72.5702 85.5353 72.9913 86.5451 73.7656 87.3058L73.9196 87.4597L75.1648 85.7346L75.613 85.1278L75.939 84.6479L72.6789 83.5929ZM73.8743 86.853C73.2856 86.1874 72.9596 85.3452 72.9596 84.4622C72.9596 84.34 72.9732 84.2132 72.9913 84.109L74.5716 84.6162L75.3323 84.8652L73.8743 86.853ZM72.6789 83.5929L72.6291 83.8102C72.6019 84.0094 72.5702 84.2268 72.5702 84.4622C72.5702 85.5353 72.9913 86.5451 73.7656 87.3058L73.9196 87.4597L75.1648 85.7346L75.613 85.1278L75.939 84.6479L72.6789 83.5929ZM75.8304 83.3121L73.4985 82.5514C74.0282 81.6866 74.884 81.0798 75.8304 80.8761V83.3121ZM75.9843 80.455C74.7572 80.627 73.6569 81.4194 73.0366 82.5695L72.9279 82.7688L74.9474 83.4208L75.6719 83.6698L76.2152 83.8419V80.4233L75.9843 80.455ZM76.6363 83.8736C76.3103 83.8736 76.0613 84.1362 76.0613 84.4622C76.0613 84.7565 76.3239 85.0237 76.6363 85.0237C76.9488 85.0237 77.2114 84.7565 77.2114 84.4622C77.2114 84.1362 76.9623 83.8736 76.6363 83.8736ZM75.1919 87.831L76.6363 85.8297L78.0808 87.8174C77.1344 88.234 76.0794 88.2204 75.1919 87.831ZM77.4287 86.2327L76.6363 85.1595L74.6033 87.9714L74.8025 88.0801C75.3776 88.3744 75.9843 88.5147 76.6363 88.5147C77.2567 88.5147 77.8815 88.3563 78.4702 88.0801L78.6694 87.9714L77.4287 86.2327ZM77.4604 83.3121V80.8761C78.4204 81.0934 79.2626 81.7002 79.7742 82.5514L77.4604 83.3121ZM80.2406 82.5695C79.6474 81.4511 78.5471 80.6587 77.3065 80.455L77.071 80.4097V83.8419L80.3493 82.7688L80.2406 82.5695ZM79.4165 86.853L77.9902 84.915L77.9585 84.8652L80.2859 84.1226C80.2995 84.2268 80.2995 84.34 80.2995 84.4622C80.2995 85.3633 80.0051 86.1874 79.4165 86.853ZM80.6436 83.8238L80.5938 83.6064L77.3518 84.6479L79.3712 87.4597L79.5388 87.3058C80.2859 86.527 80.6889 85.5172 80.6889 84.4622C80.6889 84.2449 80.6753 84.0275 80.6436 83.8238ZM79.4165 86.853L77.9902 84.915L77.9585 84.8652L80.2859 84.1226C80.2995 84.2268 80.2995 84.34 80.2995 84.4622C80.2995 85.3633 80.0051 86.1874 79.4165 86.853ZM80.6436 83.8238L80.5938 83.6064L77.3518 84.6479L79.3712 87.4597L79.5388 87.3058C80.2859 86.527 80.6889 85.5172 80.6889 84.4622C80.6889 84.2449 80.6753 84.0275 80.6436 83.8238ZM77.4604 83.3121V80.8761C78.4204 81.0934 79.2626 81.7002 79.7742 82.5514L77.4604 83.3121ZM80.2406 82.5695C79.6474 81.4511 78.5471 80.6587 77.3065 80.455L77.071 80.4097V83.8419L80.3493 82.7688L80.2406 82.5695ZM75.1919 87.831L76.6363 85.8297L78.0808 87.8174C77.1344 88.234 76.0794 88.2204 75.1919 87.831ZM77.4287 86.2327L76.6363 85.1595L74.6033 87.9714L74.8025 88.0801C75.3776 88.3744 75.9843 88.5147 76.6363 88.5147C77.2567 88.5147 77.8815 88.3563 78.4702 88.0801L78.6694 87.9714L77.4287 86.2327ZM76.6363 83.8736C76.3103 83.8736 76.0613 84.1362 76.0613 84.4622C76.0613 84.7565 76.3239 85.0237 76.6363 85.0237C76.9488 85.0237 77.2114 84.7565 77.2114 84.4622C77.2114 84.1362 76.9623 83.8736 76.6363 83.8736ZM75.8304 83.3121L73.4985 82.5514C74.0282 81.6866 74.884 81.0798 75.8304 80.8761V83.3121ZM75.9843 80.455C74.7572 80.627 73.6569 81.4194 73.0366 82.5695L72.9279 82.7688L74.9474 83.4208L75.6719 83.6698L76.2152 83.8419V80.4233L75.9843 80.455ZM73.8743 86.853C73.2856 86.1874 72.9596 85.3452 72.9596 84.4622C72.9596 84.34 72.9732 84.2132 72.9913 84.109L74.5716 84.6162L75.3323 84.8652L73.8743 86.853ZM72.6789 83.5929L72.6291 83.8102C72.6019 84.0094 72.5702 84.2268 72.5702 84.4622C72.5702 85.5353 72.9913 86.5451 73.7656 87.3058L73.9196 87.4597L75.1648 85.7346L75.613 85.1278L75.939 84.6479L72.6789 83.5929ZM73.8743 86.853C73.2856 86.1874 72.9596 85.3452 72.9596 84.4622C72.9596 84.34 72.9732 84.2132 72.9913 84.109L74.5716 84.6162L75.3323 84.8652L73.8743 86.853ZM72.6789 83.5929L72.6291 83.8102C72.6019 84.0094 72.5702 84.2268 72.5702 84.4622C72.5702 85.5353 72.9913 86.5451 73.7656 87.3058L73.9196 87.4597L75.1648 85.7346L75.613 85.1278L75.939 84.6479L72.6789 83.5929ZM75.8304 83.3121L73.4985 82.5514C74.0282 81.6866 74.884 81.0798 75.8304 80.8761V83.3121ZM75.9843 80.455C74.7572 80.627 73.6569 81.4194 73.0366 82.5695L72.9279 82.7688L74.9474 83.4208L75.6719 83.6698L76.2152 83.8419V80.4233L75.9843 80.455ZM76.6363 83.8736C76.3103 83.8736 76.0613 84.1362 76.0613 84.4622C76.0613 84.7565 76.3239 85.0237 76.6363 85.0237C76.9488 85.0237 77.2114 84.7565 77.2114 84.4622C77.2114 84.1362 76.9623 83.8736 76.6363 83.8736ZM75.1919 87.831L76.6363 85.8297L78.0808 87.8174C77.1344 88.234 76.0794 88.2204 75.1919 87.831ZM77.4287 86.2327L76.6363 85.1595L74.6033 87.9714L74.8025 88.0801C75.3776 88.3744 75.9843 88.5147 76.6363 88.5147C77.2567 88.5147 77.8815 88.3563 78.4702 88.0801L78.6694 87.9714L77.4287 86.2327ZM77.4604 83.3121V80.8761C78.4204 81.0934 79.2626 81.7002 79.7742 82.5514L77.4604 83.3121ZM80.2406 82.5695C79.6474 81.4511 78.5471 80.6587 77.3065 80.455L77.071 80.4097V83.8419L80.3493 82.7688L80.2406 82.5695ZM79.4165 86.853L77.9902 84.915L77.9585 84.8652L80.2859 84.1226C80.2995 84.2268 80.2995 84.34 80.2995 84.4622C80.2995 85.3633 80.0051 86.1874 79.4165 86.853ZM80.6436 83.8238L80.5938 83.6064L77.3518 84.6479L79.3712 87.4597L79.5388 87.3058C80.2859 86.527 80.6889 85.5172 80.6889 84.4622C80.6889 84.2449 80.6753 84.0275 80.6436 83.8238ZM79.4165 86.853L77.9902 84.915L77.9585 84.8652L80.2859 84.1226C80.2995 84.2268 80.2995 84.34 80.2995 84.4622C80.2995 85.3633 80.0051 86.1874 79.4165 86.853ZM80.6436 83.8238L80.5938 83.6064L77.3518 84.6479L79.3712 87.4597L79.5388 87.3058C80.2859 86.527 80.6889 85.5172 80.6889 84.4622C80.6889 84.2449 80.6753 84.0275 80.6436 83.8238ZM77.4604 83.3121V80.8761C78.4204 81.0934 79.2626 81.7002 79.7742 82.5514L77.4604 83.3121ZM80.2406 82.5695C79.6474 81.4511 78.5471 80.6587 77.3065 80.455L77.071 80.4097V83.8419L80.3493 82.7688L80.2406 82.5695ZM75.1919 87.831L76.6363 85.8297L78.0808 87.8174C77.1344 88.234 76.0794 88.2204 75.1919 87.831ZM77.4287 86.2327L76.6363 85.1595L74.6033 87.9714L74.8025 88.0801C75.3776 88.3744 75.9843 88.5147 76.6363 88.5147C77.2567 88.5147 77.8815 88.3563 78.4702 88.0801L78.6694 87.9714L77.4287 86.2327ZM76.6363 83.8736C76.3103 83.8736 76.0613 84.1362 76.0613 84.4622C76.0613 84.7565 76.3239 85.0237 76.6363 85.0237C76.9488 85.0237 77.2114 84.7565 77.2114 84.4622C77.2114 84.1362 76.9623 83.8736 76.6363 83.8736ZM75.8304 83.3121L73.4985 82.5514C74.0282 81.6866 74.884 81.0798 75.8304 80.8761V83.3121ZM75.9843 80.455C74.7572 80.627 73.6569 81.4194 73.0366 82.5695L72.9279 82.7688L74.9474 83.4208L75.6719 83.6698L76.2152 83.8419V80.4233L75.9843 80.455ZM73.8743 86.853C73.2856 86.1874 72.9596 85.3452 72.9596 84.4622C72.9596 84.34 72.9732 84.2132 72.9913 84.109L74.5716 84.6162L75.3323 84.8652L73.8743 86.853ZM72.6789 83.5929L72.6291 83.8102C72.6019 84.0094 72.5702 84.2268 72.5702 84.4622C72.5702 85.5353 72.9913 86.5451 73.7656 87.3058L73.9196 87.4597L75.1648 85.7346L75.613 85.1278L75.939 84.6479L72.6789 83.5929ZM73.8743 86.853C73.2856 86.1874 72.9596 85.3452 72.9596 84.4622C72.9596 84.34 72.9732 84.2132 72.9913 84.109L74.5716 84.6162L75.3323 84.8652L73.8743 86.853ZM72.6789 83.5929L72.6291 83.8102C72.6019 84.0094 72.5702 84.2268 72.5702 84.4622C72.5702 85.5353 72.9913 86.5451 73.7656 87.3058L73.9196 87.4597L75.1648 85.7346L75.613 85.1278L75.939 84.6479L72.6789 83.5929ZM75.8304 83.3121L73.4985 82.5514C74.0282 81.6866 74.884 81.0798 75.8304 80.8761V83.3121ZM75.9843 80.455C74.7572 80.627 73.6569 81.4194 73.0366 82.5695L72.9279 82.7688L74.9474 83.4208L75.6719 83.6698L76.2152 83.8419V80.4233L75.9843 80.455ZM76.6363 83.8736C76.3103 83.8736 76.0613 84.1362 76.0613 84.4622C76.0613 84.7565 76.3239 85.0237 76.6363 85.0237C76.9488 85.0237 77.2114 84.7565 77.2114 84.4622C77.2114 84.1362 76.9623 83.8736 76.6363 83.8736ZM75.1919 87.831L76.6363 85.8297L78.0808 87.8174C77.1344 88.234 76.0794 88.2204 75.1919 87.831ZM77.4287 86.2327L76.6363 85.1595L74.6033 87.9714L74.8025 88.0801C75.3776 88.3744 75.9843 88.5147 76.6363 88.5147C77.2567 88.5147 77.8815 88.3563 78.4702 88.0801L78.6694 87.9714L77.4287 86.2327ZM77.4604 83.3121V80.8761C78.4204 81.0934 79.2626 81.7002 79.7742 82.5514L77.4604 83.3121ZM80.2406 82.5695C79.6474 81.4511 78.5471 80.6587 77.3065 80.455L77.071 80.4097V83.8419L80.3493 82.7688L80.2406 82.5695ZM79.4165 86.853L77.9902 84.915L77.9585 84.8652L80.2859 84.1226C80.2995 84.2268 80.2995 84.34 80.2995 84.4622C80.2995 85.3633 80.0051 86.1874 79.4165 86.853ZM80.6436 83.8238L80.5938 83.6064L77.3518 84.6479L79.3712 87.4597L79.5388 87.3058C80.2859 86.527 80.6889 85.5172 80.6889 84.4622C80.6889 84.2449 80.6753 84.0275 80.6436 83.8238ZM79.4165 86.853L77.9902 84.915L77.9585 84.8652L80.2859 84.1226C80.2995 84.2268 80.2995 84.34 80.2995 84.4622C80.2995 85.3633 80.0051 86.1874 79.4165 86.853ZM80.6436 83.8238L80.5938 83.6064L77.3518 84.6479L79.3712 87.4597L79.5388 87.3058C80.2859 86.527 80.6889 85.5172 80.6889 84.4622C80.6889 84.2449 80.6753 84.0275 80.6436 83.8238ZM77.4604 83.3121V80.8761C78.4204 81.0934 79.2626 81.7002 79.7742 82.5514L77.4604 83.3121ZM80.2406 82.5695C79.6474 81.4511 78.5471 80.6587 77.3065 80.455L77.071 80.4097V83.8419L80.3493 82.7688L80.2406 82.5695ZM75.1919 87.831L76.6363 85.8297L78.0808 87.8174C77.1344 88.234 76.0794 88.2204 75.1919 87.831ZM77.4287 86.2327L76.6363 85.1595L74.6033 87.9714L74.8025 88.0801C75.3776 88.3744 75.9843 88.5147 76.6363 88.5147C77.2567 88.5147 77.8815 88.3563 78.4702 88.0801L78.6694 87.9714L77.4287 86.2327ZM76.6363 83.8736C76.3103 83.8736 76.0613 84.1362 76.0613 84.4622C76.0613 84.7565 76.3239 85.0237 76.6363 85.0237C76.9488 85.0237 77.2114 84.7565 77.2114 84.4622C77.2114 84.1362 76.9623 83.8736 76.6363 83.8736ZM75.8304 83.3121L73.4985 82.5514C74.0282 81.6866 74.884 81.0798 75.8304 80.8761V83.3121ZM75.9843 80.455C74.7572 80.627 73.6569 81.4194 73.0366 82.5695L72.9279 82.7688L74.9474 83.4208L75.6719 83.6698L76.2152 83.8419V80.4233L75.9843 80.455ZM73.8743 86.853C73.2856 86.1874 72.9596 85.3452 72.9596 84.4622C72.9596 84.34 72.9732 84.2132 72.9913 84.109L74.5716 84.6162L75.3323 84.8652L73.8743 86.853ZM72.6789 83.5929L72.6291 83.8102C72.6019 84.0094 72.5702 84.2268 72.5702 84.4622C72.5702 85.5353 72.9913 86.5451 73.7656 87.3058L73.9196 87.4597L75.1648 85.7346L75.613 85.1278L75.939 84.6479L72.6789 83.5929ZM73.8743 86.853C73.2856 86.1874 72.9596 85.3452 72.9596 84.4622C72.9596 84.34 72.9732 84.2132 72.9913 84.109L74.5716 84.6162L75.3323 84.8652L73.8743 86.853ZM72.6789 83.5929L72.6291 83.8102C72.6019 84.0094 72.5702 84.2268 72.5702 84.4622C72.5702 85.5353 72.9913 86.5451 73.7656 87.3058L73.9196 87.4597L75.1648 85.7346L75.613 85.1278L75.939 84.6479L72.6789 83.5929ZM75.8304 83.3121L73.4985 82.5514C74.0282 81.6866 74.884 81.0798 75.8304 80.8761V83.3121ZM75.9843 80.455C74.7572 80.627 73.6569 81.4194 73.0366 82.5695L72.9279 82.7688L74.9474 83.4208L75.6719 83.6698L76.2152 83.8419V80.4233L75.9843 80.455ZM76.6363 83.8736C76.3103 83.8736 76.0613 84.1362 76.0613 84.4622C76.0613 84.7565 76.3239 85.0237 76.6363 85.0237C76.9488 85.0237 77.2114 84.7565 77.2114 84.4622C77.2114 84.1362 76.9623 83.8736 76.6363 83.8736ZM75.1919 87.831L76.6363 85.8297L78.0808 87.8174C77.1344 88.234 76.0794 88.2204 75.1919 87.831ZM77.4287 86.2327L76.6363 85.1595L74.6033 87.9714L74.8025 88.0801C75.3776 88.3744 75.9843 88.5147 76.6363 88.5147C77.2567 88.5147 77.8815 88.3563 78.4702 88.0801L78.6694 87.9714L77.4287 86.2327ZM77.4604 83.3121V80.8761C78.4204 81.0934 79.2626 81.7002 79.7742 82.5514L77.4604 83.3121ZM80.2406 82.5695C79.6474 81.4511 78.5471 80.6587 77.3065 80.455L77.071 80.4097V83.8419L80.3493 82.7688L80.2406 82.5695ZM79.4165 86.853L77.9902 84.915L77.9585 84.8652L80.2859 84.1226C80.2995 84.2268 80.2995 84.34 80.2995 84.4622C80.2995 85.3633 80.0051 86.1874 79.4165 86.853ZM80.6436 83.8238L80.5938 83.6064L77.3518 84.6479L79.3712 87.4597L79.5388 87.3058C80.2859 86.527 80.6889 85.5172 80.6889 84.4622C80.6889 84.2449 80.6753 84.0275 80.6436 83.8238ZM79.4165 86.853L77.9902 84.915L77.9585 84.8652L80.2859 84.1226C80.2995 84.2268 80.2995 84.34 80.2995 84.4622C80.2995 85.3633 80.0051 86.1874 79.4165 86.853ZM80.6436 83.8238L80.5938 83.6064L77.3518 84.6479L79.3712 87.4597L79.5388 87.3058C80.2859 86.527 80.6889 85.5172 80.6889 84.4622C80.6889 84.2449 80.6753 84.0275 80.6436 83.8238ZM77.4604 83.3121V80.8761C78.4204 81.0934 79.2626 81.7002 79.7742 82.5514L77.4604 83.3121ZM80.2406 82.5695C79.6474 81.4511 78.5471 80.6587 77.3065 80.455L77.071 80.4097V83.8419L80.3493 82.7688L80.2406 82.5695ZM75.1919 87.831L76.6363 85.8297L78.0808 87.8174C77.1344 88.234 76.0794 88.2204 75.1919 87.831ZM77.4287 86.2327L76.6363 85.1595L74.6033 87.9714L74.8025 88.0801C75.3776 88.3744 75.9843 88.5147 76.6363 88.5147C77.2567 88.5147 77.8815 88.3563 78.4702 88.0801L78.6694 87.9714L77.4287 86.2327ZM76.6363 83.8736C76.3103 83.8736 76.0613 84.1362 76.0613 84.4622C76.0613 84.7565 76.3239 85.0237 76.6363 85.0237C76.9488 85.0237 77.2114 84.7565 77.2114 84.4622C77.2114 84.1362 76.9623 83.8736 76.6363 83.8736ZM75.8304 83.3121L73.4985 82.5514C74.0282 81.6866 74.884 81.0798 75.8304 80.8761V83.3121ZM75.9843 80.455C74.7572 80.627 73.6569 81.4194 73.0366 82.5695L72.9279 82.7688L74.9474 83.4208L75.6719 83.6698L76.2152 83.8419V80.4233L75.9843 80.455ZM73.8743 86.853C73.2856 86.1874 72.9596 85.3452 72.9596 84.4622C72.9596 84.34 72.9732 84.2132 72.9913 84.109L74.5716 84.6162L75.3323 84.8652L73.8743 86.853ZM72.6789 83.5929L72.6291 83.8102C72.6019 84.0094 72.5702 84.2268 72.5702 84.4622C72.5702 85.5353 72.9913 86.5451 73.7656 87.3058L73.9196 87.4597L75.1648 85.7346L75.613 85.1278L75.939 84.6479L72.6789 83.5929ZM73.8743 86.853C73.2856 86.1874 72.9596 85.3452 72.9596 84.4622C72.9596 84.34 72.9732 84.2132 72.9913 84.109L74.5716 84.6162L75.3323 84.8652L73.8743 86.853ZM72.6789 83.5929L72.6291 83.8102C72.6019 84.0094 72.5702 84.2268 72.5702 84.4622C72.5702 85.5353 72.9913 86.5451 73.7656 87.3058L73.9196 87.4597L75.1648 85.7346L75.613 85.1278L75.939 84.6479L72.6789 83.5929ZM75.8304 83.3121L73.4985 82.5514C74.0282 81.6866 74.884 81.0798 75.8304 80.8761V83.3121ZM75.9843 80.455C74.7572 80.627 73.6569 81.4194 73.0366 82.5695L72.9279 82.7688L74.9474 83.4208L75.6719 83.6698L76.2152 83.8419V80.4233L75.9843 80.455ZM76.6363 83.8736C76.3103 83.8736 76.0613 84.1362 76.0613 84.4622C76.0613 84.7565 76.3239 85.0237 76.6363 85.0237C76.9488 85.0237 77.2114 84.7565 77.2114 84.4622C77.2114 84.1362 76.9623 83.8736 76.6363 83.8736ZM75.1919 87.831L76.6363 85.8297L78.0808 87.8174C77.1344 88.234 76.0794 88.2204 75.1919 87.831ZM77.4287 86.2327L76.6363 85.1595L74.6033 87.9714L74.8025 88.0801C75.3776 88.3744 75.9843 88.5147 76.6363 88.5147C77.2567 88.5147 77.8815 88.3563 78.4702 88.0801L78.6694 87.9714L77.4287 86.2327ZM77.4604 83.3121V80.8761C78.4204 81.0934 79.2626 81.7002 79.7742 82.5514L77.4604 83.3121ZM80.2406 82.5695C79.6474 81.4511 78.5471 80.6587 77.3065 80.455L77.071 80.4097V83.8419L80.3493 82.7688L80.2406 82.5695ZM79.4165 86.853L77.9902 84.915L77.9585 84.8652L80.2859 84.1226C80.2995 84.2268 80.2995 84.34 80.2995 84.4622C80.2995 85.3633 80.0051 86.1874 79.4165 86.853ZM80.6436 83.8238L80.5938 83.6064L77.3518 84.6479L79.3712 87.4597L79.5388 87.3058C80.2859 86.527 80.6889 85.5172 80.6889 84.4622C80.6889 84.2449 80.6753 84.0275 80.6436 83.8238ZM73.8743 86.853C73.2856 86.1874 72.9596 85.3452 72.9596 84.4622C72.9596 84.34 72.9732 84.2132 72.9913 84.109L74.5716 84.6162L75.3323 84.8652L73.8743 86.853ZM72.6789 83.5929L72.6291 83.8102C72.6019 84.0094 72.5702 84.2268 72.5702 84.4622C72.5702 85.5353 72.9913 86.5451 73.7656 87.3058L73.9196 87.4597L75.1648 85.7346L75.613 85.1278L75.939 84.6479L72.6789 83.5929ZM75.8304 83.3121L73.4985 82.5514C74.0282 81.6866 74.884 81.0798 75.8304 80.8761V83.3121ZM75.9843 80.455C74.7572 80.627 73.6569 81.4194 73.0366 82.5695L72.9279 82.7688L74.9474 83.4208L75.6719 83.6698L76.2152 83.8419V80.4233L75.9843 80.455ZM76.6363 83.8736C76.3103 83.8736 76.0613 84.1362 76.0613 84.4622C76.0613 84.7565 76.3239 85.0237 76.6363 85.0237C76.9488 85.0237 77.2114 84.7565 77.2114 84.4622C77.2114 84.1362 76.9623 83.8736 76.6363 83.8736ZM75.1919 87.831L76.6363 85.8297L78.0808 87.8174C77.1344 88.234 76.0794 88.2204 75.1919 87.831ZM77.4287 86.2327L76.6363 85.1595L74.6033 87.9714L74.8025 88.0801C75.3776 88.3744 75.9843 88.5147 76.6363 88.5147C77.2567 88.5147 77.8815 88.3563 78.4702 88.0801L78.6694 87.9714L77.4287 86.2327ZM77.4604 83.3121V80.8761C78.4204 81.0934 79.2626 81.7002 79.7742 82.5514L77.4604 83.3121ZM80.2406 82.5695C79.6474 81.4511 78.5471 80.6587 77.3065 80.455L77.071 80.4097V83.8419L80.3493 82.7688L80.2406 82.5695ZM79.4165 86.853L77.9902 84.915L77.9585 84.8652L80.2859 84.1226C80.2995 84.2268 80.2995 84.34 80.2995 84.4622C80.2995 85.3633 80.0051 86.1874 79.4165 86.853ZM80.6436 83.8238L80.5938 83.6064L77.3518 84.6479L79.3712 87.4597L79.5388 87.3058C80.2859 86.527 80.6889 85.5172 80.6889 84.4622C80.6889 84.2449 80.6753 84.0275 80.6436 83.8238ZM73.8743 86.853C73.2856 86.1874 72.9596 85.3452 72.9596 84.4622C72.9596 84.34 72.9732 84.2132 72.9913 84.109L74.5716 84.6162L75.3323 84.8652L73.8743 86.853ZM72.6789 83.5929L72.6291 83.8102C72.6019 84.0094 72.5702 84.2268 72.5702 84.4622C72.5702 85.5353 72.9913 86.5451 73.7656 87.3058L73.9196 87.4597L75.1648 85.7346L75.613 85.1278L75.939 84.6479L72.6789 83.5929ZM75.8304 83.3121L73.4985 82.5514C74.0282 81.6866 74.884 81.0798 75.8304 80.8761V83.3121ZM75.9843 80.455C74.7572 80.627 73.6569 81.4194 73.0366 82.5695L72.9279 82.7688L74.9474 83.4208L75.6719 83.6698L76.2152 83.8419V80.4233L75.9843 80.455ZM76.6363 83.8736C76.3103 83.8736 76.0613 84.1362 76.0613 84.4622C76.0613 84.7565 76.3239 85.0237 76.6363 85.0237C76.9488 85.0237 77.2114 84.7565 77.2114 84.4622C77.2114 84.1362 76.9623 83.8736 76.6363 83.8736ZM75.1919 87.831L76.6363 85.8297L78.0808 87.8174C77.1344 88.234 76.0794 88.2204 75.1919 87.831ZM77.4287 86.2327L76.6363 85.1595L74.6033 87.9714L74.8025 88.0801C75.3776 88.3744 75.9843 88.5147 76.6363 88.5147C77.2567 88.5147 77.8815 88.3563 78.4702 88.0801L78.6694 87.9714L77.4287 86.2327ZM77.4604 83.3121V80.8761C78.4204 81.0934 79.2626 81.7002 79.7742 82.5514L77.4604 83.3121ZM80.2406 82.5695C79.6474 81.4511 78.5471 80.6587 77.3065 80.455L77.071 80.4097V83.8419L80.3493 82.7688L80.2406 82.5695ZM79.4165 86.853L77.9902 84.915L77.9585 84.8652L80.2859 84.1226C80.2995 84.2268 80.2995 84.34 80.2995 84.4622C80.2995 85.3633 80.0051 86.1874 79.4165 86.853ZM80.6436 83.8238L80.5938 83.6064L77.3518 84.6479L79.3712 87.4597L79.5388 87.3058C80.2859 86.527 80.6889 85.5172 80.6889 84.4622C80.6889 84.2449 80.6753 84.0275 80.6436 83.8238ZM73.8743 86.853C73.2856 86.1874 72.9596 85.3452 72.9596 84.4622C72.9596 84.34 72.9732 84.2132 72.9913 84.109L74.5716 84.6162L75.3323 84.8652L73.8743 86.853ZM75.939 84.6479L72.6789 83.5929L72.6291 83.8102C72.6019 84.0094 72.5702 84.2268 72.5702 84.4622C72.5702 85.5353 72.9913 86.5451 73.7656 87.3058L73.9196 87.4597L75.1648 85.7346L75.613 85.1278L75.939 84.6479ZM75.8304 80.8761V83.3121L73.4985 82.5514C74.0282 81.6866 74.884 81.0798 75.8304 80.8761ZM73.0366 82.5695L72.9279 82.7688L74.9474 83.4208L75.6719 83.6698L76.2152 83.8419V80.4233L75.9843 80.455C74.7572 80.627 73.6569 81.4194 73.0366 82.5695ZM76.6363 85.0237C76.9488 85.0237 77.2114 84.7565 77.2114 84.4622C77.2114 84.1362 76.9623 83.8736 76.6363 83.8736C76.3103 83.8736 76.0613 84.1362 76.0613 84.4622C76.0613 84.7565 76.3239 85.0237 76.6363 85.0237ZM76.6363 85.8297L78.0808 87.8174C77.1344 88.234 76.0794 88.2204 75.1919 87.831L76.6363 85.8297ZM76.6363 88.5147C77.2567 88.5147 77.8815 88.3563 78.4702 88.0801L78.6694 87.9714L77.4287 86.2327L76.6363 85.1595L74.6033 87.9714L74.8025 88.0801C75.3776 88.3744 75.9843 88.5147 76.6363 88.5147ZM77.4604 83.3121V80.8761C78.4204 81.0934 79.2626 81.7002 79.7742 82.5514L77.4604 83.3121ZM80.2406 82.5695C79.6474 81.4511 78.5471 80.6587 77.3065 80.455L77.071 80.4097V83.8419L80.3493 82.7688L80.2406 82.5695ZM77.9585 84.8652L80.2859 84.1226C80.2995 84.2268 80.2995 84.34 80.2995 84.4622C80.2995 85.3633 80.0051 86.1874 79.4165 86.853L77.9902 84.915L77.9585 84.8652ZM79.5388 87.3058C80.2859 86.527 80.6889 85.5172 80.6889 84.4622C80.6889 84.2449 80.6753 84.0275 80.6436 83.8238L80.5938 83.6064L77.3518 84.6479L79.3712 87.4597L79.5388 87.3058ZM78.855 79.4634L78.8098 79.8799C80.5168 80.6904 81.7122 82.4292 81.7122 84.4622C81.7122 87.2424 79.4301 89.5245 76.6363 89.5245C73.8426 89.5245 71.5786 87.2424 71.5786 84.4622C71.5786 82.0262 73.2856 79.9931 75.5496 79.5086L75.441 79.1373C73.0049 79.6807 71.1892 81.8541 71.1892 84.4622C71.1892 87.4597 73.6252 89.9094 76.6363 89.9094C79.6474 89.9094 82.1016 87.4597 82.1016 84.4622C82.1016 82.2299 80.7658 80.3191 78.855 79.4634ZM79.4165 86.853L77.9902 84.915L77.9585 84.8652L80.2859 84.1226C80.2995 84.2268 80.2995 84.34 80.2995 84.4622C80.2995 85.3633 80.0051 86.1874 79.4165 86.853ZM80.6436 83.8238L80.5938 83.6064L77.3518 84.6479L79.3712 87.4597L79.5388 87.3058C80.2859 86.527 80.6889 85.5172 80.6889 84.4622C80.6889 84.2449 80.6753 84.0275 80.6436 83.8238ZM77.4604 83.3121V80.8761C78.4204 81.0934 79.2626 81.7002 79.7742 82.5514L77.4604 83.3121ZM80.2406 82.5695C79.6474 81.4511 78.5471 80.6587 77.3065 80.455L77.071 80.4097V83.8419L80.3493 82.7688L80.2406 82.5695ZM75.1919 87.831L76.6363 85.8297L78.0808 87.8174C77.1344 88.234 76.0794 88.2204 75.1919 87.831ZM77.4287 86.2327L76.6363 85.1595L74.6033 87.9714L74.8025 88.0801C75.3776 88.3744 75.9843 88.5147 76.6363 88.5147C77.2567 88.5147 77.8815 88.3563 78.4702 88.0801L78.6694 87.9714L77.4287 86.2327ZM76.6363 83.8736C76.3103 83.8736 76.0613 84.1362 76.0613 84.4622C76.0613 84.7565 76.3239 85.0237 76.6363 85.0237C76.9488 85.0237 77.2114 84.7565 77.2114 84.4622C77.2114 84.1362 76.9623 83.8736 76.6363 83.8736ZM75.8304 83.3121L73.4985 82.5514C74.0282 81.6866 74.884 81.0798 75.8304 80.8761V83.3121ZM75.9843 80.455C74.7572 80.627 73.6569 81.4194 73.0366 82.5695L72.9279 82.7688L74.9474 83.4208L75.6719 83.6698L76.2152 83.8419V80.4233L75.9843 80.455ZM73.8743 86.853C73.2856 86.1874 72.9596 85.3452 72.9596 84.4622C72.9596 84.34 72.9732 84.2132 72.9913 84.109L74.5716 84.6162L75.3323 84.8652L73.8743 86.853ZM72.6789 83.5929L72.6291 83.8102C72.6019 84.0094 72.5702 84.2268 72.5702 84.4622C72.5702 85.5353 72.9913 86.5451 73.7656 87.3058L73.9196 87.4597L75.1648 85.7346L75.613 85.1278L75.939 84.6479L72.6789 83.5929ZM79.4165 86.853L77.9902 84.915L77.9585 84.8652L80.2859 84.1226C80.2995 84.2268 80.2995 84.34 80.2995 84.4622C80.2995 85.3633 80.0051 86.1874 79.4165 86.853ZM80.6436 83.8238L80.5938 83.6064L77.3518 84.6479L79.3712 87.4597L79.5388 87.3058C80.2859 86.527 80.6889 85.5172 80.6889 84.4622C80.6889 84.2449 80.6753 84.0275 80.6436 83.8238ZM77.4604 83.3121V80.8761C78.4204 81.0934 79.2626 81.7002 79.7742 82.5514L77.4604 83.3121ZM80.2406 82.5695C79.6474 81.4511 78.5471 80.6587 77.3065 80.455L77.071 80.4097V83.8419L80.3493 82.7688L80.2406 82.5695ZM75.1919 87.831L76.6363 85.8297L78.0808 87.8174C77.1344 88.234 76.0794 88.2204 75.1919 87.831ZM77.4287 86.2327L76.6363 85.1595L74.6033 87.9714L74.8025 88.0801C75.3776 88.3744 75.9843 88.5147 76.6363 88.5147C77.2567 88.5147 77.8815 88.3563 78.4702 88.0801L78.6694 87.9714L77.4287 86.2327ZM76.6363 83.8736C76.3103 83.8736 76.0613 84.1362 76.0613 84.4622C76.0613 84.7565 76.3239 85.0237 76.6363 85.0237C76.9488 85.0237 77.2114 84.7565 77.2114 84.4622C77.2114 84.1362 76.9623 83.8736 76.6363 83.8736ZM75.8304 83.3121L73.4985 82.5514C74.0282 81.6866 74.884 81.0798 75.8304 80.8761V83.3121ZM75.9843 80.455C74.7572 80.627 73.6569 81.4194 73.0366 82.5695L72.9279 82.7688L74.9474 83.4208L75.6719 83.6698L76.2152 83.8419V80.4233L75.9843 80.455ZM73.8743 86.853C73.2856 86.1874 72.9596 85.3452 72.9596 84.4622C72.9596 84.34 72.9732 84.2132 72.9913 84.109L74.5716 84.6162L75.3323 84.8652L73.8743 86.853ZM72.6789 83.5929L72.6291 83.8102C72.6019 84.0094 72.5702 84.2268 72.5702 84.4622C72.5702 85.5353 72.9913 86.5451 73.7656 87.3058L73.9196 87.4597L75.1648 85.7346L75.613 85.1278L75.939 84.6479L72.6789 83.5929ZM79.4165 86.853L77.9902 84.915L77.9585 84.8652L80.2859 84.1226C80.2995 84.2268 80.2995 84.34 80.2995 84.4622C80.2995 85.3633 80.0051 86.1874 79.4165 86.853ZM80.6436 83.8238L80.5938 83.6064L77.3518 84.6479L79.3712 87.4597L79.5388 87.3058C80.2859 86.527 80.6889 85.5172 80.6889 84.4622C80.6889 84.2449 80.6753 84.0275 80.6436 83.8238ZM77.4604 83.3121V80.8761C78.4204 81.0934 79.2626 81.7002 79.7742 82.5514L77.4604 83.3121ZM80.2406 82.5695C79.6474 81.4511 78.5471 80.6587 77.3065 80.455L77.071 80.4097V83.8419L80.3493 82.7688L80.2406 82.5695ZM75.1919 87.831L76.6363 85.8297L78.0808 87.8174C77.1344 88.234 76.0794 88.2204 75.1919 87.831ZM77.4287 86.2327L76.6363 85.1595L74.6033 87.9714L74.8025 88.0801C75.3776 88.3744 75.9843 88.5147 76.6363 88.5147C77.2567 88.5147 77.8815 88.3563 78.4702 88.0801L78.6694 87.9714L77.4287 86.2327ZM76.6363 83.8736C76.3103 83.8736 76.0613 84.1362 76.0613 84.4622C76.0613 84.7565 76.3239 85.0237 76.6363 85.0237C76.9488 85.0237 77.2114 84.7565 77.2114 84.4622C77.2114 84.1362 76.9623 83.8736 76.6363 83.8736ZM75.8304 83.3121L73.4985 82.5514C74.0282 81.6866 74.884 81.0798 75.8304 80.8761V83.3121ZM75.9843 80.455C74.7572 80.627 73.6569 81.4194 73.0366 82.5695L72.9279 82.7688L74.9474 83.4208L75.6719 83.6698L76.2152 83.8419V80.4233L75.9843 80.455ZM73.8743 86.853C73.2856 86.1874 72.9596 85.3452 72.9596 84.4622C72.9596 84.34 72.9732 84.2132 72.9913 84.109L74.5716 84.6162L75.3323 84.8652L73.8743 86.853ZM72.6789 83.5929L72.6291 83.8102C72.6019 84.0094 72.5702 84.2268 72.5702 84.4622C72.5702 85.5353 72.9913 86.5451 73.7656 87.3058L73.9196 87.4597L75.1648 85.7346L75.613 85.1278L75.939 84.6479L72.6789 83.5929Z" fill="white" fill-opacity="0.87"/>
<path d="M72.9784 84.1889C72.9648 84.3021 72.9603 84.4244 72.9603 84.5466C72.9603 85.4341 73.2818 86.2809 73.8704 86.9465L75.3239 84.9542L74.5722 84.7142L72.9784 84.1889ZM73.9157 87.5487L73.7527 87.3902C72.992 86.6295 72.5709 85.6152 72.5709 84.5466C72.5709 84.3157 72.5935 84.0939 72.6252 83.8991L72.6659 83.6773L75.9351 84.7368L75.6182 85.2168L75.1518 85.8235L73.9157 87.5487Z" fill="white" fill-opacity="0.87"/>
<path d="M73.4863 82.6517L75.8137 83.4214V80.9763C74.8719 81.1801 74.0252 81.7914 73.4863 82.6517ZM76.2031 83.9376L75.6552 83.7746L74.9262 83.5256L72.9158 82.8781L73.0245 82.6698C73.6493 81.5242 74.7542 80.7273 75.9812 80.5507L76.2031 80.519V83.9376Z" fill="white" fill-opacity="0.87"/>
<path d="M75.1779 87.9189C76.0654 88.3083 77.1159 88.3264 78.0667 87.9143L76.6223 85.9175L75.1779 87.9189ZM76.6223 88.6071C75.9794 88.6071 75.3636 88.4577 74.793 88.1679L74.5938 88.0592L76.6178 85.2564L77.4147 86.3296L78.6554 88.0638L78.4516 88.1679C77.872 88.4532 77.2381 88.6071 76.6223 88.6071Z" fill="white" fill-opacity="0.87"/>
<path d="M77.4502 80.9854V83.4214L79.764 82.6562C79.2478 81.8095 78.4056 81.2027 77.4502 80.9854ZM77.0608 83.9467V80.519L77.2872 80.5552C78.5324 80.7545 79.6281 81.5514 80.2213 82.6788L80.33 82.8826L77.0608 83.9467Z" fill="white" fill-opacity="0.87"/>
<path d="M77.9684 84.9361L78.0001 84.9859L79.4219 86.9284C80.006 86.2537 80.3184 85.4251 80.3184 84.5285C80.3184 84.4108 80.3094 84.2976 80.2958 84.1889L77.9684 84.9361ZM79.3811 87.5351L77.3571 84.7187L80.6082 83.6773L80.6489 83.8991C80.6852 84.1029 80.7033 84.3112 80.7033 84.5285C80.7033 85.5971 80.2912 86.6023 79.5396 87.3676L79.3811 87.5351Z" fill="white" fill-opacity="0.87"/>
<path d="M72.9784 84.1889C72.9648 84.3021 72.9603 84.4244 72.9603 84.5466C72.9603 85.4341 73.2818 86.2809 73.8704 86.9465L75.3239 84.9542L74.5722 84.7142L72.9784 84.1889ZM73.9157 87.5487L73.7527 87.3902C72.992 86.6295 72.5709 85.6152 72.5709 84.5466C72.5709 84.3157 72.5935 84.0939 72.6252 83.8991L72.6659 83.6773L75.9351 84.7368L75.6182 85.2168L75.1518 85.8235L73.9157 87.5487Z" fill="white" fill-opacity="0.87"/>
<path d="M73.4863 82.6517L75.8137 83.4214V80.9763C74.8719 81.1801 74.0252 81.7914 73.4863 82.6517ZM76.2031 83.9376L75.6552 83.7746L74.9262 83.5256L72.9158 82.8781L73.0245 82.6698C73.6493 81.5242 74.7542 80.7273 75.9812 80.5507L76.2031 80.519V83.9376Z" fill="white" fill-opacity="0.87"/>
<path d="M75.1779 87.9189C76.0654 88.3083 77.1159 88.3264 78.0667 87.9143L76.6223 85.9175L75.1779 87.9189ZM76.6223 88.6071C75.9794 88.6071 75.3636 88.4577 74.793 88.1679L74.5938 88.0592L76.6178 85.2564L77.4147 86.3296L78.6554 88.0638L78.4516 88.1679C77.872 88.4532 77.2381 88.6071 76.6223 88.6071Z" fill="white" fill-opacity="0.87"/>
<path d="M77.4502 80.9854V83.4214L79.764 82.6562C79.2478 81.8095 78.4056 81.2027 77.4502 80.9854ZM77.0608 83.9467V80.519L77.2872 80.5552C78.5324 80.7545 79.6281 81.5514 80.2213 82.6788L80.33 82.8826L77.0608 83.9467Z" fill="white" fill-opacity="0.87"/>
<path d="M77.9684 84.9361L78.0001 84.9859L79.4219 86.9284C80.006 86.2537 80.3184 85.4251 80.3184 84.5285C80.3184 84.4108 80.3094 84.2976 80.2958 84.1889L77.9684 84.9361ZM79.3811 87.5351L77.3571 84.7187L80.6082 83.6773L80.6489 83.8991C80.6852 84.1029 80.7033 84.3112 80.7033 84.5285C80.7033 85.5971 80.2912 86.6023 79.5396 87.3676L79.3811 87.5351Z" fill="white" fill-opacity="0.87"/>
<path d="M118.749 82.6963L121.077 83.4661V81.021C120.135 81.2247 119.288 81.836 118.749 82.6963ZM121.466 83.9823L120.918 83.8193L120.189 83.5702L118.179 82.9227L118.287 82.7144C118.912 81.5689 120.017 80.7765 121.244 80.5953L121.466 80.5636V83.9823ZM122.711 81.0255V83.4615L125.03 82.6963C124.513 81.8496 123.671 81.2428 122.711 81.0255ZM122.326 83.9868V80.5591L122.553 80.5953C123.798 80.7946 124.894 81.5915 125.487 82.719L125.591 82.9227L122.326 83.9868ZM121.887 85.1641C121.575 85.1641 121.308 84.906 121.308 84.6026C121.308 84.2811 121.566 84.0185 121.887 84.0185C122.209 84.0185 122.467 84.2811 122.467 84.6026C122.467 84.906 122.204 85.1641 121.887 85.1641ZM118.233 84.2449C118.219 84.3581 118.215 84.4803 118.215 84.6026C118.215 85.4901 118.536 86.3368 119.125 87.0024L120.579 85.0101L119.827 84.7701L118.233 84.2449ZM119.17 87.6046L119.007 87.4461C118.247 86.6854 117.826 85.6712 117.826 84.6026C117.826 84.3717 117.844 84.1498 117.884 83.9506L117.921 83.7332L121.19 84.7928L120.873 85.2682L120.406 85.8795L119.17 87.6046ZM123.209 85.0101L123.246 85.0554L124.663 87.0024C125.251 86.3277 125.559 85.4991 125.559 84.6026C125.559 84.4849 125.555 84.3717 125.541 84.263L123.209 85.0101ZM124.622 87.6092L122.603 84.7928L125.854 83.7468L125.89 83.9687C125.931 84.177 125.949 84.3852 125.949 84.6026C125.949 85.6667 125.537 86.6764 124.785 87.4416L124.622 87.6092ZM120.443 87.9714C121.33 88.3608 122.381 88.3789 123.332 87.9669L121.887 85.97L120.443 87.9714ZM121.887 88.6596C121.24 88.6596 120.628 88.5102 120.058 88.2204L119.859 88.1118L121.883 85.309L122.675 86.3821L123.92 88.1163L123.712 88.2204C123.137 88.5057 122.503 88.6596 121.887 88.6596ZM121.887 79.5222C119.098 79.5222 116.825 81.7998 116.825 84.6026C116.825 87.3918 119.098 89.6603 121.887 89.6603C124.69 89.6603 126.963 87.3918 126.963 84.6026C126.963 81.7998 124.69 79.5222 121.887 79.5222ZM121.887 90.0497C118.881 90.0497 116.44 87.6046 116.44 84.6026C116.44 81.587 118.881 79.1373 121.887 79.1373C124.898 79.1373 127.352 81.587 127.352 84.6026C127.352 87.6046 124.898 90.0497 121.887 90.0497Z" fill="white" fill-opacity="0.87"/>
<path d="M118.225 84.1889C118.216 84.3021 118.207 84.4244 118.207 84.5466C118.207 85.4341 118.528 86.2809 119.117 86.9465L120.575 84.9542L119.818 84.7142L118.225 84.1889ZM119.162 87.5487L118.999 87.3902C118.238 86.6295 117.822 85.6152 117.822 84.5466C117.822 84.3157 117.84 84.0939 117.876 83.8991L117.917 83.6773L121.181 84.7368L120.864 85.2168L120.398 85.8235L119.162 87.5487Z" fill="white" fill-opacity="0.87"/>
<path d="M118.738 82.6517L121.065 83.4214V80.9763C120.124 81.1801 119.277 81.7914 118.738 82.6517ZM121.455 83.9376L120.907 83.7746L120.178 83.5256L118.168 82.8781L118.276 82.6698C118.901 81.5242 120.006 80.7318 121.233 80.5507L121.455 80.519V83.9376Z" fill="white" fill-opacity="0.87"/>
<path d="M120.43 87.9189C121.317 88.3083 122.368 88.3264 123.323 87.9143L121.879 85.9175L120.43 87.9189ZM121.874 88.6071C121.231 88.6071 120.615 88.4577 120.049 88.1679L119.846 88.0592L121.874 85.2564L122.666 86.3296L123.907 88.0638L123.703 88.1679C123.124 88.4532 122.494 88.6071 121.874 88.6071Z" fill="white" fill-opacity="0.87"/>
<path d="M122.698 80.9854V83.4214L125.012 82.6562C124.496 81.8095 123.658 81.2027 122.698 80.9854ZM122.313 83.9467V80.519L122.535 80.5552C123.781 80.7545 124.876 81.5514 125.469 82.6788L125.578 82.8826L122.313 83.9467Z" fill="white" fill-opacity="0.87"/>
<path d="M123.195 84.9361L123.227 84.9859L124.649 86.9284C125.237 86.2537 125.545 85.4251 125.545 84.5285C125.545 84.4108 125.541 84.2976 125.527 84.1889L123.195 84.9361ZM124.608 87.5351L122.584 84.7187L125.835 83.6773L125.876 83.8991C125.917 84.1029 125.93 84.3112 125.93 84.5285C125.93 85.5971 125.518 86.6023 124.771 87.3676L124.608 87.5351Z" fill="white" fill-opacity="0.87"/>
<path d="M118.225 84.1889C118.216 84.3021 118.207 84.4244 118.207 84.5466C118.207 85.4341 118.528 86.2809 119.117 86.9465L120.575 84.9542L119.818 84.7142L118.225 84.1889ZM119.162 87.5487L118.999 87.3902C118.238 86.6295 117.822 85.6152 117.822 84.5466C117.822 84.3157 117.84 84.0939 117.876 83.8991L117.917 83.6773L121.181 84.7368L120.864 85.2168L120.398 85.8235L119.162 87.5487Z" fill="white" fill-opacity="0.87"/>
<path d="M118.738 82.6517L121.065 83.4214V80.9763C120.124 81.1801 119.277 81.7914 118.738 82.6517ZM121.455 83.9376L120.907 83.7746L120.178 83.5256L118.168 82.8781L118.276 82.6698C118.901 81.5242 120.006 80.7318 121.233 80.5507L121.455 80.519V83.9376Z" fill="white" fill-opacity="0.87"/>
<path d="M120.43 87.9189C121.317 88.3083 122.368 88.3264 123.323 87.9143L121.879 85.9175L120.43 87.9189ZM121.874 88.6071C121.231 88.6071 120.615 88.4577 120.049 88.1679L119.846 88.0592L121.874 85.2564L122.666 86.3296L123.907 88.0638L123.703 88.1679C123.124 88.4532 122.494 88.6071 121.874 88.6071Z" fill="white" fill-opacity="0.87"/>
<path d="M122.698 80.9854V83.4214L125.012 82.6562C124.496 81.8095 123.658 81.2027 122.698 80.9854ZM122.313 83.9467V80.519L122.535 80.5552C123.781 80.7545 124.876 81.5514 125.469 82.6788L125.578 82.8826L122.313 83.9467Z" fill="white" fill-opacity="0.87"/>
<path d="M123.195 84.9361L123.227 84.9859L124.649 86.9284C125.237 86.2537 125.545 85.4251 125.545 84.5285C125.545 84.4108 125.541 84.2976 125.527 84.1889L123.195 84.9361ZM124.608 87.5351L122.584 84.7187L125.835 83.6773L125.876 83.8991C125.917 84.1029 125.93 84.3112 125.93 84.5285C125.93 85.5971 125.518 86.6023 124.771 87.3676L124.608 87.5351Z" fill="white" fill-opacity="0.87"/>
<path d="M76.1581 101.324L76.4343 101.646C83.4481 109.964 91.277 114.306 99.699 114.559L100.482 114.569C116.43 114.569 129.004 100.296 131.295 97.5298L128.624 95.4288C126.441 98.0369 114.723 111.182 100.663 111.182C100.369 111.182 100.075 111.177 99.776 111.163C92.6671 110.946 85.9204 107.274 79.7307 100.256L79.4092 99.8889L81.7049 97.1359L72.6807 93.3777L71.1955 103.493L76.1581 101.324ZM100.482 115.701L99.6809 115.691C91.0189 115.433 83.0044 111.064 75.8412 102.701L69.7828 105.354L71.7705 91.7702L83.5568 96.6876L80.9034 99.8662C86.7898 106.409 93.1516 109.828 99.8167 110.031C100.093 110.045 100.369 110.05 100.641 110.05C115.434 110.05 127.963 94.4553 128.094 94.2968L128.442 93.8486L132.884 97.3442L132.54 97.7924C131.965 98.5214 118.313 115.701 100.482 115.701Z" fill="white" fill-opacity="0.87"/>
<path d="M119.536 61.9742L128.56 65.7324L130.04 55.6169L125.082 57.7858L124.806 57.4643C117.788 49.1464 109.964 44.8041 101.537 44.5506L100.758 44.5415C84.8107 44.5415 72.2365 58.8136 69.9454 61.5802L72.6124 63.6812C74.8401 61.0233 87.0475 47.3896 101.46 47.9465C108.569 48.1639 115.316 51.8361 121.51 58.8634L121.831 59.2257L119.536 61.9742ZM129.47 67.3398L117.688 62.4315L120.337 59.2438C114.451 52.7009 108.089 49.2823 101.424 49.0785C101.148 49.0695 100.871 49.0649 100.595 49.0649C85.8068 49.0649 73.2734 64.6547 73.1467 64.8132L72.798 65.266L68.3516 61.7659L68.6957 61.3176C69.2707 60.5886 82.9316 43.4095 100.758 43.4095L101.56 43.4186C110.217 43.6767 118.236 48.0507 125.399 56.4093L131.458 53.765L129.47 67.3398Z" fill="white" fill-opacity="0.87"/>
<defs>
<filter id="filter0_d" x="0" y="0.308594" width="208" height="208" filterUnits="userSpaceOnUse" color-interpolation-filters="sRGB">
<feFlood flood-opacity="0" result="BackgroundImageFix"/>
<feColorMatrix in="SourceAlpha" type="matrix" values="0 0 0 0 0 0 0 0 0 0 0 0 0 0 0 0 0 0 127 0"/>
<feOffset dx="4" dy="4"/>
<feGaussianBlur stdDeviation="2"/>
<feColorMatrix type="matrix" values="0 0 0 0 0 0 0 0 0 0 0 0 0 0 0 0 0 0 0.25 0"/>
<feBlend mode="normal" in2="BackgroundImageFix" result="effect1_dropShadow"/>
<feBlend mode="normal" in="SourceGraphic" in2="effect1_dropShadow" result="shape"/>
</filter>
</defs>
</svg>
