<svg width="287" height="361" viewBox="0 0 287 361" fill="none" xmlns="http://www.w3.org/2000/svg">
<g filter="url(#filter0_d)">
<rect width="279" height="353" rx="8" fill="#121212"/>
<rect width="279" height="353" rx="8" fill="white" fill-opacity="0.08"/>
</g>
<path d="M249.286 319.714H240.714V328.286C240.714 329.229 239.943 330 239 330C238.057 330 237.286 329.229 237.286 328.286V319.714H228.714C227.771 319.714 227 318.943 227 318C227 317.057 227.771 316.286 228.714 316.286H237.286V307.714C237.286 306.771 238.057 306 239 306C239.943 306 240.714 306.771 240.714 307.714V316.286H249.286C250.229 316.286 251 317.057 251 318C251 318.943 250.229 319.714 249.286 319.714Z" fill="#FAFAFA"/>
<path d="M16.464 238.24C15.168 238.24 13.912 238.056 12.696 237.688C11.496 237.32 10.544 236.832 9.84 236.224L10.92 233.8C11.608 234.344 12.448 234.792 13.44 235.144C14.448 235.48 15.456 235.648 16.464 235.648C17.712 235.648 18.64 235.448 19.248 235.048C19.872 234.648 20.184 234.12 20.184 233.464C20.184 232.984 20.008 232.592 19.656 232.288C19.32 231.968 18.888 231.72 18.36 231.544C17.832 231.368 17.112 231.168 16.2 230.944C14.92 230.64 13.88 230.336 13.08 230.032C12.296 229.728 11.616 229.256 11.04 228.616C10.48 227.96 10.2 227.08 10.2 225.976C10.2 225.048 10.448 224.208 10.944 223.456C11.456 222.688 12.216 222.08 13.224 221.632C14.248 221.184 15.496 220.96 16.968 220.96C17.992 220.96 19 221.088 19.992 221.344C20.984 221.6 21.84 221.968 22.56 222.448L21.576 224.872C20.84 224.44 20.072 224.112 19.272 223.888C18.472 223.664 17.696 223.552 16.944 223.552C15.712 223.552 14.792 223.76 14.184 224.176C13.592 224.592 13.296 225.144 13.296 225.832C13.296 226.312 13.464 226.704 13.8 227.008C14.152 227.312 14.592 227.552 15.12 227.728C15.648 227.904 16.368 228.104 17.28 228.328C18.528 228.616 19.552 228.92 20.352 229.24C21.152 229.544 21.832 230.016 22.392 230.656C22.968 231.296 23.256 232.16 23.256 233.248C23.256 234.176 23 235.016 22.488 235.768C21.992 236.52 21.232 237.12 20.208 237.568C19.184 238.016 17.936 238.24 16.464 238.24ZM30.2734 223.84H24.7054V221.2H38.9614V223.84H33.3934V238H30.2734V223.84ZM54.6529 235.384V238H42.0529V221.2H54.3169V223.816H45.1729V228.184H53.2849V230.752H45.1729V235.384H54.6529ZM69.777 234.112H61.377L59.721 238H56.505L64.065 221.2H67.137L74.721 238H71.457L69.777 234.112ZM68.745 231.664L65.577 224.32L62.433 231.664H68.745ZM93.0396 238L93.0156 226.864L87.4956 236.08H86.1036L80.5836 227.008V238H77.6076V221.2H80.1756L86.8476 232.336L93.3996 221.2H95.9676L95.9916 238H93.0396ZM119.654 238L116.222 233.08C116.078 233.096 115.862 233.104 115.574 233.104H111.782V238H108.662V221.2H115.574C117.03 221.2 118.294 221.44 119.366 221.92C120.454 222.4 121.286 223.088 121.862 223.984C122.438 224.88 122.726 225.944 122.726 227.176C122.726 228.44 122.414 229.528 121.79 230.44C121.182 231.352 120.302 232.032 119.15 232.48L123.014 238H119.654ZM119.582 227.176C119.582 226.104 119.23 225.28 118.526 224.704C117.822 224.128 116.79 223.84 115.43 223.84H111.782V230.536H115.43C116.79 230.536 117.822 230.248 118.526 229.672C119.23 229.08 119.582 228.248 119.582 227.176ZM134.815 238.24C133.103 238.24 131.559 237.872 130.183 237.136C128.807 236.384 127.727 235.352 126.943 234.04C126.159 232.712 125.767 231.232 125.767 229.6C125.767 227.968 126.159 226.496 126.943 225.184C127.727 223.856 128.807 222.824 130.183 222.088C131.559 221.336 133.103 220.96 134.815 220.96C136.527 220.96 138.071 221.336 139.447 222.088C140.823 222.824 141.903 223.848 142.687 225.16C143.471 226.472 143.863 227.952 143.863 229.6C143.863 231.248 143.471 232.728 142.687 234.04C141.903 235.352 140.823 236.384 139.447 237.136C138.071 237.872 136.527 238.24 134.815 238.24ZM134.815 235.504C135.935 235.504 136.943 235.256 137.839 234.76C138.735 234.248 139.439 233.544 139.951 232.648C140.463 231.736 140.719 230.72 140.719 229.6C140.719 228.48 140.463 227.472 139.951 226.576C139.439 225.664 138.735 224.96 137.839 224.464C136.943 223.952 135.935 223.696 134.815 223.696C133.695 223.696 132.687 223.952 131.791 224.464C130.895 224.96 130.191 225.664 129.679 226.576C129.167 227.472 128.911 228.48 128.911 229.6C128.911 230.72 129.167 231.736 129.679 232.648C130.191 233.544 130.895 234.248 131.791 234.76C132.687 235.256 133.695 235.504 134.815 235.504ZM155.768 238.24C154.056 238.24 152.512 237.872 151.136 237.136C149.76 236.384 148.68 235.352 147.896 234.04C147.112 232.712 146.72 231.232 146.72 229.6C146.72 227.968 147.112 226.496 147.896 225.184C148.68 223.856 149.76 222.824 151.136 222.088C152.512 221.336 154.056 220.96 155.768 220.96C157.48 220.96 159.024 221.336 160.4 222.088C161.776 222.824 162.856 223.848 163.64 225.16C164.424 226.472 164.816 227.952 164.816 229.6C164.816 231.248 164.424 232.728 163.64 234.04C162.856 235.352 161.776 236.384 160.4 237.136C159.024 237.872 157.48 238.24 155.768 238.24ZM155.768 235.504C156.888 235.504 157.896 235.256 158.792 234.76C159.688 234.248 160.392 233.544 160.904 232.648C161.416 231.736 161.672 230.72 161.672 229.6C161.672 228.48 161.416 227.472 160.904 226.576C160.392 225.664 159.688 224.96 158.792 224.464C157.896 223.952 156.888 223.696 155.768 223.696C154.648 223.696 153.64 223.952 152.744 224.464C151.848 224.96 151.144 225.664 150.632 226.576C150.12 227.472 149.864 228.48 149.864 229.6C149.864 230.72 150.12 231.736 150.632 232.648C151.144 233.544 151.848 234.248 152.744 234.76C153.64 235.256 154.648 235.504 155.768 235.504ZM171.993 223.816V228.928H180.105V231.568H171.993V238H168.873V221.2H181.137V223.816H171.993ZM190.688 230.968L188.024 233.704V238H184.904V221.2H188.024V229.816L196.328 221.2H199.832L192.776 228.712L200.264 238H196.616L190.688 230.968ZM203.139 221.2H206.259V235.36H215.043V238H203.139V221.2ZM230.856 235.384V238H218.256V221.2H230.52V223.816H221.376V228.184H229.488V230.752H221.376V235.384H230.856ZM247.684 235.384V238H235.084V221.2H247.348V223.816H238.204V228.184H246.316V230.752H238.204V235.384H247.684ZM266.84 221.2V238H264.272L255.008 226.624V238H251.912V221.2H254.48L263.744 232.576V221.2H266.84Z" fill="white" fill-opacity="0.87"/>
<path d="M142.575 59.0683C105.907 59.0683 76.0683 88.9007 76.0683 125.575C76.0683 162.237 105.907 192.076 142.575 192.076C179.244 192.076 209.076 162.237 209.076 125.575C209.076 88.9007 179.244 59.0683 142.575 59.0683ZM142.575 195.144C104.212 195.144 73 163.938 73 125.575C73 87.2059 104.212 56 142.575 56C180.938 56 212.144 87.2059 212.144 125.575C212.144 163.938 180.938 195.144 142.575 195.144Z" fill="white"/>
<path d="M142.569 65.4634C109.429 65.4634 82.4632 92.4228 82.4632 125.569C82.4632 158.703 109.429 185.669 142.569 185.669C175.709 185.669 202.669 158.703 202.669 125.569C202.669 92.4228 175.709 65.4634 142.569 65.4634ZM142.569 187.03C108.679 187.03 81.1023 159.459 81.1023 125.569C81.1023 91.6731 108.679 64.1025 142.569 64.1025C176.459 64.1025 204.036 91.6731 204.036 125.569C204.036 159.459 176.459 187.03 142.569 187.03Z" fill="white"/>
<path d="M114.402 79.4342L115.732 104.09L136.572 94.606L115.97 78.4348L114.402 79.4342Z" fill="white"/>
<path d="M118.984 111.824H163.912V138.519H118.984V111.824Z" fill="white"/>
<path d="M106.961 142.654L106.577 141.438L117.527 137.998V112.197L107.509 108.134L107.988 106.949L113.407 109.154C116.67 110.477 118.806 113.647 118.806 117.162V132.636C118.806 136.385 116.374 139.699 112.795 140.82L106.961 142.654Z" fill="white"/>
<path d="M174.024 142.579L163.603 138.345V111.77L175.013 108.185L175.391 109.401L167.478 111.89C165.928 112.375 164.875 113.811 164.875 115.424V132.208C164.875 135.396 166.81 138.269 169.771 139.473L174.502 141.394L174.024 142.579Z" fill="white"/>
<defs>
<filter id="filter0_d" x="0" y="0" width="287" height="361" filterUnits="userSpaceOnUse" color-interpolation-filters="sRGB">
<feFlood flood-opacity="0" result="BackgroundImageFix"/>
<feColorMatrix in="SourceAlpha" type="matrix" values="0 0 0 0 0 0 0 0 0 0 0 0 0 0 0 0 0 0 127 0"/>
<feOffset dx="4" dy="4"/>
<feGaussianBlur stdDeviation="2"/>
<feColorMatrix type="matrix" values="0 0 0 0 0 0 0 0 0 0 0 0 0 0 0 0 0 0 0.25 0"/>
<feBlend mode="normal" in2="BackgroundImageFix" result="effect1_dropShadow"/>
<feBlend mode="normal" in="SourceGraphic" in2="effect1_dropShadow" result="shape"/>
</filter>
</defs>
</svg>
