<svg width="287" height="361" viewBox="0 0 287 361" fill="none" xmlns="http://www.w3.org/2000/svg">
<g filter="url(#filter0_d)">
<rect width="279" height="353" rx="8" fill="#121212"/>
<rect width="279" height="353" rx="8" fill="white" fill-opacity="0.08"/>
</g>
<g clip-path="url(#clip0)">
<rect x="68" y="49" width="142.969" height="142.969" fill="#121212"/>
<rect x="68" y="49" width="142.969" height="142.969" fill="white" fill-opacity="0.08"/>
<path d="M139.461 52.2928C102.181 52.2928 71.8517 82.6224 71.8517 119.908C71.8517 157.181 102.181 187.517 139.461 187.517C176.74 187.517 207.07 157.181 207.07 119.908C207.07 82.6224 176.74 52.2928 139.461 52.2928ZM139.461 190.637C100.458 190.637 68.7323 158.911 68.7323 119.908C68.7323 80.8993 100.458 49.1733 139.461 49.1733C178.463 49.1733 210.189 80.8993 210.189 119.908C210.189 158.911 178.463 190.637 139.461 190.637Z" fill="white" fill-opacity="0.87"/>
<path d="M139.461 58.804C105.768 58.804 78.3596 86.2127 78.3596 119.912C78.3596 153.598 105.768 181.013 139.461 181.013C173.153 181.013 200.562 153.598 200.562 119.912C200.562 86.2127 173.153 58.804 139.461 58.804ZM139.461 182.396C105.006 182.396 76.9696 154.36 76.9696 119.912C76.9696 85.4505 105.006 57.4204 139.461 57.4204C173.915 57.4204 201.952 85.4505 201.952 119.912C201.952 154.36 173.915 182.396 139.461 182.396Z" fill="white" fill-opacity="0.87"/>
<path d="M106.677 80.5598L114.106 104.538L132.295 90.0241L107.977 79.1915L106.677 80.5598Z" fill="#FC5C2E"/>
<path d="M99.2798 107.081H181.186V108.682H99.2798V107.081Z" fill="white" fill-opacity="0.87"/>
<path d="M99.2798 111.302H181.186V112.904H99.2798V111.302Z" fill="white" fill-opacity="0.87"/>
<path d="M99.2798 115.936H181.186V117.537H99.2798V115.936Z" fill="white" fill-opacity="0.87"/>
<path d="M99.2798 120.169H181.186V121.771H99.2798V120.169Z" fill="white" fill-opacity="0.87"/>
<path d="M99.2798 123.841H181.186V125.443H99.2798V123.841Z" fill="white" fill-opacity="0.87"/>
<path d="M99.2798 128.065H181.186V129.666H99.2798V128.065Z" fill="white" fill-opacity="0.87"/>
<path d="M99.2798 132.699H181.186V134.3H99.2798V132.699Z" fill="white" fill-opacity="0.87"/>
<path d="M99.2798 136.932H181.186V138.534H99.2798V136.932Z" fill="white" fill-opacity="0.87"/>
<path d="M99.2798 140.057H181.186V141.658H99.2798V140.057Z" fill="white" fill-opacity="0.87"/>
<path d="M99.2798 144.688H181.186V146.29H99.2798V144.688Z" fill="white" fill-opacity="0.87"/>
<path d="M99.2798 148.922H181.186V150.523H99.2798V148.922Z" fill="white" fill-opacity="0.87"/>
</g>
<path d="M251.286 319.714H242.714V328.286C242.714 329.229 241.943 330 241 330C240.057 330 239.286 329.229 239.286 328.286V319.714H230.714C229.771 319.714 229 318.943 229 318C229 317.057 229.771 316.286 230.714 316.286H239.286V307.714C239.286 306.771 240.057 306 241 306C241.943 306 242.714 306.771 242.714 307.714V316.286H251.286C252.229 316.286 253 317.057 253 318C253 318.943 252.229 319.714 251.286 319.714Z" fill="#FAFAFA"/>
<path d="M29.464 238.24C28.168 238.24 26.912 238.056 25.696 237.688C24.496 237.32 23.544 236.832 22.84 236.224L23.92 233.8C24.608 234.344 25.448 234.792 26.44 235.144C27.448 235.48 28.456 235.648 29.464 235.648C30.712 235.648 31.64 235.448 32.248 235.048C32.872 234.648 33.184 234.12 33.184 233.464C33.184 232.984 33.008 232.592 32.656 232.288C32.32 231.968 31.888 231.72 31.36 231.544C30.832 231.368 30.112 231.168 29.2 230.944C27.92 230.64 26.88 230.336 26.08 230.032C25.296 229.728 24.616 229.256 24.04 228.616C23.48 227.96 23.2 227.08 23.2 225.976C23.2 225.048 23.448 224.208 23.944 223.456C24.456 222.688 25.216 222.08 26.224 221.632C27.248 221.184 28.496 220.96 29.968 220.96C30.992 220.96 32 221.088 32.992 221.344C33.984 221.6 34.84 221.968 35.56 222.448L34.576 224.872C33.84 224.44 33.072 224.112 32.272 223.888C31.472 223.664 30.696 223.552 29.944 223.552C28.712 223.552 27.792 223.76 27.184 224.176C26.592 224.592 26.296 225.144 26.296 225.832C26.296 226.312 26.464 226.704 26.8 227.008C27.152 227.312 27.592 227.552 28.12 227.728C28.648 227.904 29.368 228.104 30.28 228.328C31.528 228.616 32.552 228.92 33.352 229.24C34.152 229.544 34.832 230.016 35.392 230.656C35.968 231.296 36.256 232.16 36.256 233.248C36.256 234.176 36 235.016 35.488 235.768C34.992 236.52 34.232 237.12 33.208 237.568C32.184 238.016 30.936 238.24 29.464 238.24ZM43.2734 223.84H37.7054V221.2H51.9614V223.84H46.3934V238H43.2734V223.84ZM67.6529 235.384V238H55.0529V221.2H67.3169V223.816H58.1729V228.184H66.2849V230.752H58.1729V235.384H67.6529ZM82.777 234.112H74.377L72.721 238H69.505L77.065 221.2H80.137L87.721 238H84.457L82.777 234.112ZM81.745 231.664L78.577 224.32L75.433 231.664H81.745ZM106.04 238L106.016 226.864L100.496 236.08H99.1036L93.5836 227.008V238H90.6076V221.2H93.1756L99.8476 232.336L106.4 221.2H108.968L108.992 238H106.04ZM132.654 238L129.222 233.08C129.078 233.096 128.862 233.104 128.574 233.104H124.782V238H121.662V221.2H128.574C130.03 221.2 131.294 221.44 132.366 221.92C133.454 222.4 134.286 223.088 134.862 223.984C135.438 224.88 135.726 225.944 135.726 227.176C135.726 228.44 135.414 229.528 134.79 230.44C134.182 231.352 133.302 232.032 132.15 232.48L136.014 238H132.654ZM132.582 227.176C132.582 226.104 132.23 225.28 131.526 224.704C130.822 224.128 129.79 223.84 128.43 223.84H124.782V230.536H128.43C129.79 230.536 130.822 230.248 131.526 229.672C132.23 229.08 132.582 228.248 132.582 227.176ZM150.863 234.112H142.463L140.807 238H137.591L145.151 221.2H148.223L155.807 238H152.543L150.863 234.112ZM149.831 231.664L146.663 224.32L143.519 231.664H149.831ZM158.694 221.2H166.038C167.83 221.2 169.422 221.552 170.814 222.256C172.206 222.944 173.286 223.928 174.054 225.208C174.822 226.472 175.206 227.936 175.206 229.6C175.206 231.264 174.822 232.736 174.054 234.016C173.286 235.28 172.206 236.264 170.814 236.968C169.422 237.656 167.83 238 166.038 238H158.694V221.2ZM165.894 235.36C167.126 235.36 168.206 235.128 169.134 234.664C170.078 234.184 170.798 233.512 171.294 232.648C171.806 231.768 172.062 230.752 172.062 229.6C172.062 228.448 171.806 227.44 171.294 226.576C170.798 225.696 170.078 225.024 169.134 224.56C168.206 224.08 167.126 223.84 165.894 223.84H161.814V235.36H165.894ZM179.272 221.2H182.392V238H179.272V221.2ZM198.582 234.112H190.182L188.526 238H185.31L192.87 221.2H195.942L203.526 238H200.262L198.582 234.112ZM197.55 231.664L194.382 224.32L191.238 231.664H197.55ZM208.977 223.84H203.409V221.2H217.665V223.84H212.097V238H208.977V223.84ZM228.37 238.24C226.658 238.24 225.114 237.872 223.738 237.136C222.362 236.384 221.282 235.352 220.498 234.04C219.714 232.712 219.322 231.232 219.322 229.6C219.322 227.968 219.714 226.496 220.498 225.184C221.282 223.856 222.362 222.824 223.738 222.088C225.114 221.336 226.658 220.96 228.37 220.96C230.082 220.96 231.626 221.336 233.002 222.088C234.378 222.824 235.458 223.848 236.242 225.16C237.026 226.472 237.418 227.952 237.418 229.6C237.418 231.248 237.026 232.728 236.242 234.04C235.458 235.352 234.378 236.384 233.002 237.136C231.626 237.872 230.082 238.24 228.37 238.24ZM228.37 235.504C229.49 235.504 230.498 235.256 231.394 234.76C232.29 234.248 232.994 233.544 233.506 232.648C234.018 231.736 234.274 230.72 234.274 229.6C234.274 228.48 234.018 227.472 233.506 226.576C232.994 225.664 232.29 224.96 231.394 224.464C230.498 223.952 229.49 223.696 228.37 223.696C227.25 223.696 226.242 223.952 225.346 224.464C224.45 224.96 223.746 225.664 223.234 226.576C222.722 227.472 222.466 228.48 222.466 229.6C222.466 230.72 222.722 231.736 223.234 232.648C223.746 233.544 224.45 234.248 225.346 234.76C226.242 235.256 227.25 235.504 228.37 235.504ZM252.467 238L249.035 233.08C248.891 233.096 248.675 233.104 248.387 233.104H244.595V238H241.475V221.2H248.387C249.843 221.2 251.107 221.44 252.179 221.92C253.267 222.4 254.099 223.088 254.675 223.984C255.251 224.88 255.539 225.944 255.539 227.176C255.539 228.44 255.227 229.528 254.603 230.44C253.995 231.352 253.115 232.032 251.963 232.48L255.827 238H252.467ZM252.395 227.176C252.395 226.104 252.043 225.28 251.339 224.704C250.635 224.128 249.603 223.84 248.243 223.84H244.595V230.536H248.243C249.603 230.536 250.635 230.248 251.339 229.672C252.043 229.08 252.395 228.248 252.395 227.176Z" fill="white" fill-opacity="0.87"/>
<defs>
<filter id="filter0_d" x="0" y="0" width="287" height="361" filterUnits="userSpaceOnUse" color-interpolation-filters="sRGB">
<feFlood flood-opacity="0" result="BackgroundImageFix"/>
<feColorMatrix in="SourceAlpha" type="matrix" values="0 0 0 0 0 0 0 0 0 0 0 0 0 0 0 0 0 0 127 0"/>
<feOffset dx="4" dy="4"/>
<feGaussianBlur stdDeviation="2"/>
<feColorMatrix type="matrix" values="0 0 0 0 0 0 0 0 0 0 0 0 0 0 0 0 0 0 0.25 0"/>
<feBlend mode="normal" in2="BackgroundImageFix" result="effect1_dropShadow"/>
<feBlend mode="normal" in="SourceGraphic" in2="effect1_dropShadow" result="shape"/>
</filter>
<clipPath id="clip0">
<rect x="68" y="49" width="142.969" height="142.969" fill="white"/>
</clipPath>
</defs>
</svg>
