<svg width="299" height="361" viewBox="0 0 299 361" fill="none" xmlns="http://www.w3.org/2000/svg">
<g filter="url(#filter0_d)">
<rect width="279" height="353" rx="8" fill="#121212"/>
<rect width="279" height="353" rx="8" fill="white" fill-opacity="0.08"/>
</g>
<path d="M22.152 252.112H13.752L12.096 256H8.88L16.44 239.2H19.512L27.096 256H23.832L22.152 252.112ZM21.12 249.664L17.952 242.32L14.808 249.664H21.12ZM36.855 256.24C34.535 256.24 32.727 255.592 31.431 254.296C30.135 252.984 29.487 251.112 29.487 248.68V239.2H32.607V248.56C32.607 251.856 34.031 253.504 36.879 253.504C39.711 253.504 41.127 251.856 41.127 248.56V239.2H44.199V248.68C44.199 251.112 43.551 252.984 42.255 254.296C40.975 255.592 39.175 256.24 36.855 256.24ZM52.4218 241.84H46.8538V239.2H61.1098V241.84H55.5418V256H52.4218V241.84ZM71.8149 256.24C70.1029 256.24 68.5589 255.872 67.1829 255.136C65.8069 254.384 64.7269 253.352 63.9429 252.04C63.1589 250.712 62.7669 249.232 62.7669 247.6C62.7669 245.968 63.1589 244.496 63.9429 243.184C64.7269 241.856 65.8069 240.824 67.1829 240.088C68.5589 239.336 70.1029 238.96 71.8149 238.96C73.5269 238.96 75.0709 239.336 76.4469 240.088C77.8229 240.824 78.9029 241.848 79.6869 243.16C80.4709 244.472 80.8629 245.952 80.8629 247.6C80.8629 249.248 80.4709 250.728 79.6869 252.04C78.9029 253.352 77.8229 254.384 76.4469 255.136C75.0709 255.872 73.5269 256.24 71.8149 256.24ZM71.8149 253.504C72.9349 253.504 73.9429 253.256 74.8389 252.76C75.7349 252.248 76.4389 251.544 76.9509 250.648C77.4629 249.736 77.7189 248.72 77.7189 247.6C77.7189 246.48 77.4629 245.472 76.9509 244.576C76.4389 243.664 75.7349 242.96 74.8389 242.464C73.9429 241.952 72.9349 241.696 71.8149 241.696C70.6949 241.696 69.6869 241.952 68.7909 242.464C67.8949 242.96 67.1909 243.664 66.6789 244.576C66.1669 245.472 65.9109 246.48 65.9109 247.6C65.9109 248.72 66.1669 249.736 66.6789 250.648C67.1909 251.544 67.8949 252.248 68.7909 252.76C69.6869 253.256 70.6949 253.504 71.8149 253.504ZM100.352 256L100.328 244.864L94.8081 254.08H93.4161L87.8961 245.008V256H84.9201V239.2H87.4881L94.1601 250.336L100.712 239.2H103.28L103.304 256H100.352ZM116.44 256.24C114.728 256.24 113.184 255.872 111.808 255.136C110.432 254.384 109.352 253.352 108.568 252.04C107.784 250.712 107.392 249.232 107.392 247.6C107.392 245.968 107.784 244.496 108.568 243.184C109.352 241.856 110.432 240.824 111.808 240.088C113.184 239.336 114.728 238.96 116.44 238.96C118.152 238.96 119.696 239.336 121.072 240.088C122.448 240.824 123.528 241.848 124.312 243.16C125.096 244.472 125.488 245.952 125.488 247.6C125.488 249.248 125.096 250.728 124.312 252.04C123.528 253.352 122.448 254.384 121.072 255.136C119.696 255.872 118.152 256.24 116.44 256.24ZM116.44 253.504C117.56 253.504 118.568 253.256 119.464 252.76C120.36 252.248 121.064 251.544 121.576 250.648C122.088 249.736 122.344 248.72 122.344 247.6C122.344 246.48 122.088 245.472 121.576 244.576C121.064 243.664 120.36 242.96 119.464 242.464C118.568 241.952 117.56 241.696 116.44 241.696C115.32 241.696 114.312 241.952 113.416 242.464C112.52 242.96 111.816 243.664 111.304 244.576C110.792 245.472 110.536 246.48 110.536 247.6C110.536 248.72 110.792 249.736 111.304 250.648C111.816 251.544 112.52 252.248 113.416 252.76C114.312 253.256 115.32 253.504 116.44 253.504ZM132.719 241.84H127.151V239.2H141.407V241.84H135.839V256H132.719V241.84ZM152.112 256.24C150.4 256.24 148.856 255.872 147.48 255.136C146.104 254.384 145.024 253.352 144.24 252.04C143.456 250.712 143.064 249.232 143.064 247.6C143.064 245.968 143.456 244.496 144.24 243.184C145.024 241.856 146.104 240.824 147.48 240.088C148.856 239.336 150.4 238.96 152.112 238.96C153.824 238.96 155.368 239.336 156.744 240.088C158.12 240.824 159.2 241.848 159.984 243.16C160.768 244.472 161.16 245.952 161.16 247.6C161.16 249.248 160.768 250.728 159.984 252.04C159.2 253.352 158.12 254.384 156.744 255.136C155.368 255.872 153.824 256.24 152.112 256.24ZM152.112 253.504C153.232 253.504 154.24 253.256 155.136 252.76C156.032 252.248 156.736 251.544 157.248 250.648C157.76 249.736 158.016 248.72 158.016 247.6C158.016 246.48 157.76 245.472 157.248 244.576C156.736 243.664 156.032 242.96 155.136 242.464C154.24 241.952 153.232 241.696 152.112 241.696C150.992 241.696 149.984 241.952 149.088 242.464C148.192 242.96 147.488 243.664 146.976 244.576C146.464 245.472 146.208 246.48 146.208 247.6C146.208 248.72 146.464 249.736 146.976 250.648C147.488 251.544 148.192 252.248 149.088 252.76C149.984 253.256 150.992 253.504 152.112 253.504ZM179.512 239.2C180.968 239.2 182.232 239.44 183.304 239.92C184.392 240.4 185.224 241.088 185.8 241.984C186.376 242.88 186.664 243.944 186.664 245.176C186.664 246.392 186.376 247.456 185.8 248.368C185.224 249.264 184.392 249.952 183.304 250.432C182.232 250.912 180.968 251.152 179.512 251.152H175.72V256H172.6V239.2H179.512ZM179.368 248.512C180.728 248.512 181.76 248.224 182.464 247.648C183.168 247.072 183.52 246.248 183.52 245.176C183.52 244.104 183.168 243.28 182.464 242.704C181.76 242.128 180.728 241.84 179.368 241.84H175.72V248.512H179.368ZM201.521 256L198.089 251.08C197.945 251.096 197.729 251.104 197.441 251.104H193.649V256H190.529V239.2H197.441C198.897 239.2 200.161 239.44 201.233 239.92C202.321 240.4 203.153 241.088 203.729 241.984C204.305 242.88 204.593 243.944 204.593 245.176C204.593 246.44 204.281 247.528 203.657 248.44C203.049 249.352 202.169 250.032 201.017 250.48L204.881 256H201.521ZM201.449 245.176C201.449 244.104 201.097 243.28 200.393 242.704C199.689 242.128 198.657 241.84 197.297 241.84H193.649V248.536H197.297C198.657 248.536 199.689 248.248 200.393 247.672C201.097 247.08 201.449 246.248 201.449 245.176ZM221.434 253.384V256H208.834V239.2H221.098V241.816H211.954V246.184H220.066V248.752H211.954V253.384H221.434ZM224.258 248.08H230.858V250.576H224.258V248.08ZM240.034 256.24C238.738 256.24 237.482 256.056 236.266 255.688C235.066 255.32 234.114 254.832 233.41 254.224L234.49 251.8C235.178 252.344 236.018 252.792 237.01 253.144C238.018 253.48 239.026 253.648 240.034 253.648C241.282 253.648 242.21 253.448 242.818 253.048C243.442 252.648 243.754 252.12 243.754 251.464C243.754 250.984 243.578 250.592 243.226 250.288C242.89 249.968 242.458 249.72 241.93 249.544C241.402 249.368 240.682 249.168 239.77 248.944C238.49 248.64 237.45 248.336 236.65 248.032C235.866 247.728 235.186 247.256 234.61 246.616C234.05 245.96 233.77 245.08 233.77 243.976C233.77 243.048 234.018 242.208 234.514 241.456C235.026 240.688 235.786 240.08 236.794 239.632C237.818 239.184 239.066 238.96 240.538 238.96C241.562 238.96 242.57 239.088 243.562 239.344C244.554 239.6 245.41 239.968 246.13 240.448L245.146 242.872C244.41 242.44 243.642 242.112 242.842 241.888C242.042 241.664 241.266 241.552 240.514 241.552C239.282 241.552 238.362 241.76 237.754 242.176C237.162 242.592 236.866 243.144 236.866 243.832C236.866 244.312 237.034 244.704 237.37 245.008C237.722 245.312 238.162 245.552 238.69 245.728C239.218 245.904 239.938 246.104 240.85 246.328C242.098 246.616 243.122 246.92 243.922 247.24C244.722 247.544 245.402 248.016 245.962 248.656C246.538 249.296 246.826 250.16 246.826 251.248C246.826 252.176 246.57 253.016 246.058 253.768C245.562 254.52 244.802 255.12 243.778 255.568C242.754 256.016 241.506 256.24 240.034 256.24ZM261.566 252.112H253.166L251.51 256H248.294L255.854 239.2H258.926L266.51 256H263.246L261.566 252.112ZM260.534 249.664L257.366 242.32L254.222 249.664H260.534ZM269.397 239.2H272.517V253.36H281.301V256H269.397V239.2ZM297.114 253.384V256H284.514V239.2H296.778V241.816H287.634V246.184H295.746V248.752H287.634V253.384H297.114Z" fill="white" fill-opacity="0.87"/>
<path d="M139.575 55.0683C102.907 55.0683 73.0683 84.9007 73.0683 121.575C73.0683 158.244 102.907 188.076 139.575 188.076C176.244 188.076 206.076 158.244 206.076 121.575C206.076 84.9007 176.244 55.0683 139.575 55.0683ZM139.575 191.151C101.212 191.151 70 159.938 70 121.575C70 83.2122 101.212 52 139.575 52C177.938 52 209.144 83.2122 209.144 121.575C209.144 159.938 177.938 191.151 139.575 191.151Z" fill="white"/>
<path d="M139.578 61.4697C106.438 61.4697 79.472 88.4291 79.472 121.569C79.472 154.709 106.438 181.669 139.578 181.669C172.718 181.669 199.677 154.709 199.677 121.569C199.677 88.4291 172.718 61.4697 139.578 61.4697ZM139.578 183.036C105.688 183.036 78.1111 155.459 78.1111 121.569C78.1111 87.6731 105.688 60.1025 139.578 60.1025C173.468 60.1025 201.044 87.6731 201.044 121.569C201.044 155.459 173.468 183.036 139.578 183.036Z" fill="white"/>
<path d="M108.934 107.774C108.651 108.291 108.455 108.687 108.386 108.895C108.178 109.507 108.102 109.815 108.033 109.992C107.68 109.897 107.29 109.746 106.968 109.847C106.66 109.973 106.597 110.275 106.231 110.376C105.79 110.464 105.147 110.225 104.719 110.162C103.793 110.004 102.835 109.885 101.909 109.67C100.422 109.33 99.9056 107.944 100 106.558C100.095 105.26 101.418 104.825 102.464 104.674C103.509 104.491 104.933 104.019 105.916 104.611C107.346 105.493 106.779 108.171 108.934 107.774Z" fill="white"/>
<path d="M173.593 139.227C171.829 139.227 170.14 139.29 168.42 139.328C167.708 139.341 167.009 139.341 166.297 139.341C164.81 139.341 161.679 139.46 160.337 138.969C158.119 138.225 157.546 135.296 156.941 133.204C157.098 133.16 157.25 133.128 157.42 133.097C157.64 133.065 157.886 133.021 158.132 132.971C158.289 132.958 158.459 132.927 158.629 132.895C158.692 132.895 158.743 132.895 158.799 132.876C159.02 132.845 159.266 132.813 159.499 132.788H159.555C159.795 132.757 160.041 132.725 160.286 132.694C160.891 132.631 161.528 132.568 162.189 132.524C162.378 132.524 162.567 132.511 162.75 132.492C163.752 132.416 164.797 132.353 165.818 132.322C166.083 132.303 166.347 132.29 166.606 132.272H167.179C167.412 132.265 167.626 132.265 167.859 132.246H168.401C171.054 132.202 173.202 132.303 173.826 132.524C175.483 133.141 175.187 134.659 175.685 136.272C176.176 138.49 175.811 139.227 173.593 139.227ZM154.465 136.165C153.671 138.377 150.59 138.08 150.281 138.08L128.942 138.099C128.646 138.099 125.546 138.408 124.758 136.197C123.939 133.966 122.711 130.388 122.276 128.605C121.816 126.733 120.298 123.508 129.37 123.709C134.051 123.804 137.422 123.804 139.596 123.772C141.782 123.804 145.153 123.804 149.834 123.697C158.894 123.476 157.388 126.702 156.922 128.579C156.493 130.356 155.271 133.947 154.465 136.165ZM118.905 139C117.538 139.492 114.407 139.385 112.926 139.385C112.384 139.385 111.843 139.385 111.313 139.366C110.015 139.359 108.711 139.328 107.394 139.309C106.802 139.29 106.235 139.29 105.63 139.29C103.413 139.29 103.041 138.553 103.539 136.335C104.03 134.722 103.721 133.204 105.378 132.58C105.989 132.366 107.999 132.272 110.494 132.29C110.753 132.29 111.036 132.29 111.313 132.303C112.132 132.322 113.002 132.335 113.884 132.385C114.407 132.398 114.936 132.429 115.465 132.461C115.667 132.461 115.85 132.479 116.039 132.492C116.335 132.511 116.612 132.536 116.889 132.549C117.166 132.568 117.444 132.599 117.727 132.618C118.004 132.65 118.269 132.681 118.534 132.694C118.93 132.725 119.321 132.776 119.693 132.813C119.939 132.845 120.184 132.876 120.405 132.908C120.606 132.939 120.795 132.971 120.978 132.99C121.073 133.002 121.161 133.021 121.243 133.034C121.362 133.053 121.476 133.078 121.583 133.097C121.627 133.109 121.671 133.109 121.709 133.109C121.785 133.128 121.86 133.141 121.936 133.16C122.062 133.191 122.169 133.204 122.276 133.235C121.659 135.327 121.117 138.257 118.905 139ZM104.358 118.291C104.635 117.006 104.918 117.188 106.292 117.176C108.415 117.176 110.463 117.371 112.58 117.749C115.371 118.196 118.609 118.102 121.362 118.921C118.162 124.667 114.627 123.665 110.557 123.665C108.34 123.665 104.918 123.665 104.358 120.981C104.175 120.238 104.175 119.129 104.358 118.291ZM116.952 96.7435L139.596 95.956L162.189 96.6994C162.189 96.6994 170.354 109.401 169.737 109.401C169.145 109.401 148.75 108.254 139.583 108.45C130.422 108.267 110.015 109.445 109.436 109.445C108.818 109.445 116.952 96.7435 116.952 96.7435ZM172.881 117.125C174.273 117.125 174.55 116.943 174.828 118.228C175.017 119.066 175.017 120.181 174.828 120.924C174.273 123.602 170.865 123.602 168.634 123.602C164.558 123.615 161.03 124.629 157.829 118.889C160.582 118.077 163.833 118.146 166.606 117.699C168.716 117.308 170.758 117.125 172.881 117.125ZM178.936 118.089C178.854 116.785 175.836 114 174.973 113.143C174.399 112.589 172.383 110.869 171.715 110.441C171.318 110.189 171.236 110.189 171.129 109.943C171.066 109.754 170.991 109.445 170.789 108.84C170.707 108.626 170.524 108.235 170.228 107.725C168.496 104.581 163.43 96.7624 163.014 96.3214C162.504 95.83 161.401 94.8408 159.82 94.5573C158.258 94.299 142.538 93.4736 139.583 93.4736C136.603 93.4736 120.884 94.3305 119.321 94.6077C117.74 94.8849 116.637 95.8615 116.146 96.3529C115.724 96.7939 110.664 104.632 108.944 107.776C108.648 108.298 108.466 108.683 108.384 108.891C108.188 109.508 108.106 109.817 108.043 109.987C107.968 110.157 107.565 110.441 107.413 110.51C107.382 110.541 107.363 110.56 107.363 110.56C106.928 110.856 105.164 112.054 104.219 113.055C102.776 114.574 100.319 116.848 100.25 118.146C100.193 119.45 99.6324 120.364 99.771 122.966C99.8214 124.22 100.181 128.031 100.514 131.654C100.861 135.466 101.233 139.076 101.264 139.359C101.321 139.908 101.138 140.531 101.384 141.01C101.636 141.502 102.253 141.646 103.23 141.634C103.539 141.634 106.802 141.678 111.313 141.735C122.03 141.861 139.608 142.094 139.608 142.094C139.608 142.094 157.747 141.829 168.42 141.678C172.648 141.615 175.71 141.565 175.993 141.565C176.97 141.565 177.587 141.445 177.852 140.947C178.079 140.468 177.896 139.851 177.959 139.29C178.009 138.906 178.639 132.385 179.062 127.578C179.244 125.454 179.383 123.678 179.433 122.89C179.553 120.301 178.999 119.375 178.936 118.089Z" fill="white"/>
<path d="M111.31 143.251V147.51C111.31 147.913 110.989 148.253 110.585 148.253L101.273 148.266C100.858 148.266 100.53 147.926 100.53 147.529V142.362C101.336 143.112 102.515 143.137 103.164 143.137C103.176 143.137 111.297 143.251 111.297 143.251H111.31Z" fill="white"/>
<path d="M179.215 141.676V147.485C179.215 147.901 178.887 148.228 178.471 148.228L169.166 148.241C168.762 148.241 168.422 147.901 168.422 147.504V143.226C172.82 143.163 175.932 143.119 175.995 143.119C176.72 143.119 178.415 143.119 179.215 141.676Z" fill="white"/>
<path d="M110.475 135.832C110.47 137.388 109.211 138.65 107.655 138.658C106.099 138.653 104.831 137.395 104.823 135.839C104.828 134.276 106.093 133.015 107.655 133.019C109.205 133.017 110.473 134.276 110.475 135.832Z" fill="white"/>
<path d="M177.264 109.527C176.345 109.741 175.374 109.873 174.454 110.025C174.02 110.088 173.377 110.333 172.942 110.239C172.571 110.151 172.514 109.842 172.205 109.716C171.884 109.615 171.493 109.766 171.14 109.861C171.071 109.684 170.989 109.382 170.788 108.764C170.712 108.557 170.523 108.166 170.233 107.643C172.388 108.04 171.815 105.362 173.251 104.474C174.234 103.882 175.651 104.354 176.704 104.537C177.75 104.688 179.073 105.117 179.167 106.414C179.255 107.801 178.745 109.18 177.264 109.527Z" fill="white"/>
<path d="M115.324 135.821C115.326 136.936 114.426 137.832 113.317 137.834C112.208 137.829 111.3 136.942 111.304 135.827C111.303 134.712 112.202 133.816 113.317 133.82C114.426 133.812 115.329 134.712 115.324 135.821Z" fill="white"/>
<path d="M174.198 135.695C174.205 137.251 172.945 138.518 171.376 138.518C169.826 138.518 168.56 137.257 168.553 135.695C168.553 134.145 169.82 132.879 171.376 132.879C172.938 132.879 174.198 134.139 174.198 135.695Z" fill="white"/>
<path d="M167.444 135.821C167.444 136.936 166.543 137.831 165.434 137.831C164.325 137.831 163.424 136.936 163.424 135.821C163.424 134.712 164.319 133.811 165.434 133.811C166.543 133.811 167.444 134.706 167.444 135.821Z" fill="white"/>
<path d="M112.761 160.874V154.722H114.905C115.654 154.722 116.19 154.85 116.513 155.105C116.828 155.352 116.99 155.769 116.99 156.356C116.99 157.02 116.777 157.539 116.343 157.913C115.918 158.279 115.322 158.466 114.548 158.466H114.02V160.874H112.761ZM114.02 157.624H114.267C114.709 157.624 115.05 157.522 115.305 157.318C115.56 157.113 115.688 156.832 115.688 156.484C115.688 155.871 115.297 155.565 114.514 155.565H114.02V157.624Z" fill="white"/>
<path d="M118.769 160.896V156.335H120.003V157.194C120.318 156.548 120.803 156.233 121.458 156.233C121.535 156.233 121.611 156.241 121.688 156.258V157.348C121.509 157.288 121.347 157.254 121.194 157.254C120.709 157.254 120.309 157.501 120.003 158.003V160.896H118.769Z" fill="white"/>
<path d="M127.145 160.743C126.557 160.913 126.004 160.998 125.485 160.998C124.719 160.998 124.115 160.785 123.681 160.351C123.239 159.917 123.018 159.33 123.018 158.581C123.018 157.875 123.222 157.305 123.622 156.88C124.022 156.446 124.558 156.233 125.221 156.233C125.885 156.233 126.379 156.437 126.685 156.863C126.991 157.28 127.145 157.952 127.145 158.862H124.311C124.396 159.73 124.873 160.164 125.749 160.164C126.158 160.164 126.626 160.071 127.145 159.875V160.743ZM124.294 158.165H125.936C125.936 157.39 125.681 156.999 125.179 156.999C124.668 156.999 124.379 157.39 124.294 158.165Z" fill="white"/>
<path d="M133.053 157.881H129.258V158.647H133.053V157.881Z" fill="white"/>
<path d="M135.085 160.839V159.784C135.749 160.056 136.311 160.193 136.787 160.193C137.111 160.193 137.374 160.125 137.562 159.98C137.749 159.827 137.851 159.631 137.851 159.376C137.851 159.18 137.791 159.01 137.672 158.874C137.553 158.738 137.323 158.576 136.991 158.389L136.583 158.159C136.03 157.844 135.638 157.546 135.409 157.265C135.187 156.985 135.068 156.653 135.068 156.27C135.068 155.759 135.256 155.359 135.63 155.044C136.004 154.738 136.498 154.585 137.111 154.585C137.596 154.585 138.149 154.662 138.761 154.798V155.785C138.14 155.547 137.638 155.427 137.272 155.427C136.991 155.427 136.762 155.495 136.592 155.623C136.421 155.742 136.336 155.912 136.336 156.117C136.336 156.287 136.396 156.431 136.515 156.559C136.634 156.687 136.864 156.848 137.187 157.027L137.63 157.274C138.225 157.606 138.634 157.912 138.855 158.193C139.085 158.474 139.195 158.814 139.195 159.214C139.195 159.784 138.983 160.235 138.557 160.559C138.132 160.882 137.553 161.044 136.804 161.044C136.311 161.044 135.741 160.975 135.085 160.839Z" fill="white"/>
<path d="M144.581 160.402C144.172 160.802 143.73 160.998 143.262 160.998C142.862 160.998 142.539 160.879 142.292 160.632C142.045 160.394 141.917 160.071 141.917 159.688C141.917 159.186 142.122 158.794 142.522 158.522C142.922 158.25 143.5 158.113 144.249 158.113H144.581V157.697C144.581 157.22 144.309 156.99 143.773 156.99C143.287 156.99 142.811 157.118 142.317 157.39V156.548C142.871 156.335 143.424 156.233 143.968 156.233C145.168 156.233 145.764 156.701 145.764 157.654V159.671C145.764 160.028 145.874 160.207 146.104 160.207C146.147 160.207 146.198 160.207 146.266 160.19L146.3 160.888C146.036 160.964 145.806 160.998 145.611 160.998C145.1 160.998 144.777 160.802 144.632 160.402H144.581ZM144.581 159.747V158.82H144.292C143.492 158.82 143.1 159.067 143.1 159.569C143.1 159.739 143.151 159.875 143.27 159.994C143.381 160.105 143.526 160.164 143.696 160.164C143.985 160.164 144.283 160.028 144.581 159.747Z" fill="white"/>
<path d="M150.921 154.344H149.688V160.904H150.921V154.344Z" fill="white"/>
<path d="M158.502 160.416C157.915 160.586 157.362 160.671 156.843 160.671C156.077 160.671 155.473 160.459 155.039 160.025C154.596 159.591 154.375 159.004 154.375 158.255C154.375 157.549 154.579 156.978 154.979 156.553C155.379 156.119 155.915 155.906 156.579 155.906C157.243 155.906 157.736 156.11 158.043 156.536C158.349 156.953 158.502 157.625 158.502 158.536H155.668C155.754 159.404 156.23 159.838 157.106 159.838C157.515 159.838 157.983 159.744 158.502 159.548V160.416ZM155.651 157.838H157.294C157.294 157.064 157.038 156.672 156.536 156.672C156.026 156.672 155.736 157.064 155.651 157.838Z" fill="white"/>
<defs>
<filter id="filter0_d" x="0" y="0" width="287" height="361" filterUnits="userSpaceOnUse" color-interpolation-filters="sRGB">
<feFlood flood-opacity="0" result="BackgroundImageFix"/>
<feColorMatrix in="SourceAlpha" type="matrix" values="0 0 0 0 0 0 0 0 0 0 0 0 0 0 0 0 0 0 127 0"/>
<feOffset dx="4" dy="4"/>
<feGaussianBlur stdDeviation="2"/>
<feColorMatrix type="matrix" values="0 0 0 0 0 0 0 0 0 0 0 0 0 0 0 0 0 0 0.25 0"/>
<feBlend mode="normal" in2="BackgroundImageFix" result="effect1_dropShadow"/>
<feBlend mode="normal" in="SourceGraphic" in2="effect1_dropShadow" result="shape"/>
</filter>
</defs>
</svg>
