<svg width="287" height="361" viewBox="0 0 287 361" fill="none" xmlns="http://www.w3.org/2000/svg">
<g filter="url(#filter0_d)">
<rect width="279" height="353" rx="8" fill="#121212"/>
<rect width="279" height="353" rx="8" fill="white" fill-opacity="0.08"/>
</g>
<path d="M251.286 319.714H242.714V328.286C242.714 329.229 241.943 330 241 330C240.057 330 239.286 329.229 239.286 328.286V319.714H230.714C229.771 319.714 229 318.943 229 318C229 317.057 229.771 316.286 230.714 316.286H239.286V307.714C239.286 306.771 240.057 306 241 306C241.943 306 242.714 306.771 242.714 307.714V316.286H251.286C252.229 316.286 253 317.057 253 318C253 318.943 252.229 319.714 251.286 319.714Z" fill="#FAFAFA"/>
<path d="M26.464 237.24C25.168 237.24 23.912 237.056 22.696 236.688C21.496 236.32 20.544 235.832 19.84 235.224L20.92 232.8C21.608 233.344 22.448 233.792 23.44 234.144C24.448 234.48 25.456 234.648 26.464 234.648C27.712 234.648 28.64 234.448 29.248 234.048C29.872 233.648 30.184 233.12 30.184 232.464C30.184 231.984 30.008 231.592 29.656 231.288C29.32 230.968 28.888 230.72 28.36 230.544C27.832 230.368 27.112 230.168 26.2 229.944C24.92 229.64 23.88 229.336 23.08 229.032C22.296 228.728 21.616 228.256 21.04 227.616C20.48 226.96 20.2 226.08 20.2 224.976C20.2 224.048 20.448 223.208 20.944 222.456C21.456 221.688 22.216 221.08 23.224 220.632C24.248 220.184 25.496 219.96 26.968 219.96C27.992 219.96 29 220.088 29.992 220.344C30.984 220.6 31.84 220.968 32.56 221.448L31.576 223.872C30.84 223.44 30.072 223.112 29.272 222.888C28.472 222.664 27.696 222.552 26.944 222.552C25.712 222.552 24.792 222.76 24.184 223.176C23.592 223.592 23.296 224.144 23.296 224.832C23.296 225.312 23.464 225.704 23.8 226.008C24.152 226.312 24.592 226.552 25.12 226.728C25.648 226.904 26.368 227.104 27.28 227.328C28.528 227.616 29.552 227.92 30.352 228.24C31.152 228.544 31.832 229.016 32.392 229.656C32.968 230.296 33.256 231.16 33.256 232.248C33.256 233.176 33 234.016 32.488 234.768C31.992 235.52 31.232 236.12 30.208 236.568C29.184 237.016 27.936 237.24 26.464 237.24ZM40.2734 222.84H34.7054V220.2H48.9614V222.84H43.3934V237H40.2734V222.84ZM64.6529 234.384V237H52.0529V220.2H64.3169V222.816H55.1729V227.184H63.2849V229.752H55.1729V234.384H64.6529ZM79.777 233.112H71.377L69.721 237H66.505L74.065 220.2H77.137L84.721 237H81.457L79.777 233.112ZM78.745 230.664L75.577 223.32L72.433 230.664H78.745ZM103.04 237L103.016 225.864L97.4956 235.08H96.1036L90.5836 226.008V237H87.6076V220.2H90.1756L96.8476 231.336L103.4 220.2H105.968L105.992 237H103.04ZM131.262 234.384V237H118.662V220.2H130.926V222.816H121.782V227.184H129.894V229.752H121.782V234.384H131.262ZM150.418 220.2V237H147.85L138.586 225.624V237H135.49V220.2H138.058L147.322 231.576V220.2H150.418ZM167.142 228.408H170.094V235.104C169.23 235.792 168.222 236.32 167.07 236.688C165.918 237.056 164.734 237.24 163.518 237.24C161.806 237.24 160.262 236.872 158.886 236.136C157.51 235.384 156.43 234.352 155.646 233.04C154.862 231.728 154.47 230.248 154.47 228.6C154.47 226.952 154.862 225.472 155.646 224.16C156.43 222.848 157.51 221.824 158.886 221.088C160.278 220.336 161.838 219.96 163.566 219.96C164.974 219.96 166.254 220.192 167.406 220.656C168.558 221.12 169.526 221.8 170.31 222.696L168.342 224.616C167.062 223.336 165.518 222.696 163.71 222.696C162.526 222.696 161.47 222.944 160.542 223.44C159.63 223.936 158.91 224.632 158.382 225.528C157.87 226.424 157.614 227.448 157.614 228.6C157.614 229.72 157.87 230.728 158.382 231.624C158.91 232.52 159.63 233.224 160.542 233.736C161.47 234.248 162.518 234.504 163.686 234.504C164.998 234.504 166.15 234.216 167.142 233.64V228.408ZM174.959 220.2H178.079V237H174.959V220.2ZM198.301 220.2V237H195.733L186.469 225.624V237H183.373V220.2H185.941L195.205 231.576V220.2H198.301ZM216.153 234.384V237H203.553V220.2H215.817V222.816H206.673V227.184H214.785V229.752H206.673V234.384H216.153ZM232.285 228.264C233.213 228.568 233.949 229.08 234.493 229.8C235.037 230.504 235.309 231.384 235.309 232.44C235.309 233.896 234.749 235.024 233.629 235.824C232.509 236.608 230.877 237 228.733 237H220.381V220.2H228.253C230.237 220.2 231.765 220.592 232.837 221.376C233.909 222.144 234.445 223.208 234.445 224.568C234.445 225.4 234.253 226.136 233.869 226.776C233.485 227.416 232.957 227.912 232.285 228.264ZM223.501 222.648V227.28H227.917C229.005 227.28 229.837 227.088 230.413 226.704C231.005 226.304 231.301 225.728 231.301 224.976C231.301 224.208 231.005 223.632 230.413 223.248C229.837 222.848 229.005 222.648 227.917 222.648H223.501ZM228.541 234.552C230.957 234.552 232.165 233.744 232.165 232.128C232.165 230.512 230.957 229.704 228.541 229.704H223.501V234.552H228.541ZM250.285 233.112H241.885L240.229 237H237.013L244.573 220.2H247.645L255.229 237H251.965L250.285 233.112ZM249.253 230.664L246.085 223.32L242.941 230.664H249.253ZM264.356 231.072V237H261.236V231.12L254.636 220.2H257.972L262.892 228.384L267.86 220.2H270.932L264.356 231.072Z" fill="white" fill-opacity="0.87"/>
<path d="M140.735 54.1258C103.455 54.1258 73.1194 84.4554 73.1194 121.735C73.1194 159.014 103.455 189.344 140.735 189.344C178.014 189.344 208.344 159.014 208.344 121.735C208.344 84.4554 178.014 54.1258 140.735 54.1258ZM140.735 192.47C101.732 192.47 70 160.737 70 121.735C70 82.7324 101.732 51 140.735 51C179.737 51 211.463 82.7324 211.463 121.735C211.463 160.737 179.737 192.47 140.735 192.47Z" fill="white"/>
<path d="M140.729 60.6273C107.036 60.6273 79.621 88.036 79.621 121.728C79.621 155.421 107.036 182.83 140.729 182.83C174.421 182.83 201.83 155.421 201.83 121.728C201.83 88.036 174.421 60.6273 140.729 60.6273ZM140.729 184.22C106.274 184.22 78.2374 156.183 78.2374 121.728C78.2374 87.2738 106.274 59.2373 140.729 59.2373C175.183 59.2373 203.22 87.2738 203.22 121.728C203.22 156.183 175.183 184.22 140.729 184.22Z" fill="white"/>
<path d="M112.11 74.8185L113.461 99.8849L134.649 90.2493L113.704 73.8088L112.11 74.8185Z" fill="#FC5C2E"/>
<path d="M128.151 121.14C128.151 121.422 127.927 121.646 127.651 121.646C127.376 121.646 127.145 121.422 127.145 121.14C127.145 120.859 127.376 120.628 127.651 120.628C127.927 120.628 128.151 120.859 128.151 121.14Z" fill="white"/>
<path d="M145.036 126.21C144.229 126.21 143.569 126.87 143.569 127.677C143.569 128.49 144.229 129.144 145.036 129.144C145.843 129.144 146.503 128.49 146.503 127.677C146.503 126.87 145.843 126.21 145.036 126.21ZM141.084 135.152C138.413 133.736 136.587 130.912 136.587 127.677C136.587 124.974 137.856 122.559 139.848 121.015L133.205 119.555C133.359 120.067 133.436 120.599 133.436 121.156C133.436 124.346 130.848 126.947 127.652 126.947C127.332 126.947 127.018 126.915 126.717 126.87L128.6 133.134C129.426 132.494 130.464 132.109 131.591 132.109C134.294 132.109 136.491 134.313 136.491 137.016V137.029L141.084 135.152ZM131.591 136.766C131.444 136.766 131.341 136.875 131.341 137.016C131.341 137.15 131.457 137.272 131.591 137.272C131.726 137.272 131.835 137.15 131.835 137.016C131.835 136.875 131.726 136.766 131.591 136.766ZM145.036 126.21C144.229 126.21 143.569 126.87 143.569 127.677C143.569 128.49 144.229 129.144 145.036 129.144C145.843 129.144 146.503 128.49 146.503 127.677C146.503 126.87 145.843 126.21 145.036 126.21ZM145.036 126.21C144.229 126.21 143.569 126.87 143.569 127.677C143.569 128.49 144.229 129.144 145.036 129.144C145.843 129.144 146.503 128.49 146.503 127.677C146.503 126.87 145.843 126.21 145.036 126.21ZM141.084 135.152C138.413 133.736 136.587 130.912 136.587 127.677C136.587 124.974 137.856 122.559 139.848 121.015L133.205 119.555C133.359 120.067 133.436 120.599 133.436 121.156C133.436 124.346 130.848 126.947 127.652 126.947C127.332 126.947 127.018 126.915 126.717 126.87L128.6 133.134C129.426 132.494 130.464 132.109 131.591 132.109C134.294 132.109 136.491 134.313 136.491 137.016V137.029L141.084 135.152ZM145.036 126.21C144.229 126.21 143.569 126.87 143.569 127.677C143.569 128.49 144.229 129.144 145.036 129.144C145.843 129.144 146.503 128.49 146.503 127.677C146.503 126.87 145.843 126.21 145.036 126.21ZM145.036 126.21C144.229 126.21 143.569 126.87 143.569 127.677C143.569 128.49 144.229 129.144 145.036 129.144C145.843 129.144 146.503 128.49 146.503 127.677C146.503 126.87 145.843 126.21 145.036 126.21ZM141.084 135.152C138.413 133.736 136.587 130.912 136.587 127.677C136.587 124.974 137.856 122.559 139.848 121.015L133.205 119.555C133.359 120.067 133.436 120.599 133.436 121.156C133.436 124.346 130.848 126.947 127.652 126.947C127.332 126.947 127.018 126.915 126.717 126.87L128.6 133.134C129.426 132.494 130.464 132.109 131.591 132.109C134.294 132.109 136.491 134.313 136.491 137.016V137.029L141.084 135.152ZM131.591 136.766C131.444 136.766 131.341 136.875 131.341 137.016C131.341 137.15 131.457 137.272 131.591 137.272C131.726 137.272 131.835 137.15 131.835 137.016C131.835 136.875 131.726 136.766 131.591 136.766ZM141.084 135.152C138.413 133.736 136.587 130.912 136.587 127.677C136.587 124.974 137.856 122.559 139.848 121.015L133.205 119.555C133.359 120.067 133.436 120.599 133.436 121.156C133.436 124.346 130.848 126.947 127.652 126.947C127.332 126.947 127.018 126.915 126.717 126.87L128.6 133.134C129.426 132.494 130.464 132.109 131.591 132.109C134.294 132.109 136.491 134.313 136.491 137.016V137.029L141.084 135.152ZM145.036 126.21C144.229 126.21 143.569 126.87 143.569 127.677C143.569 128.49 144.229 129.144 145.036 129.144C145.843 129.144 146.503 128.49 146.503 127.677C146.503 126.87 145.843 126.21 145.036 126.21ZM145.036 126.21C144.229 126.21 143.569 126.87 143.569 127.677C143.569 128.49 144.229 129.144 145.036 129.144C145.843 129.144 146.503 128.49 146.503 127.677C146.503 126.87 145.843 126.21 145.036 126.21ZM141.084 135.152C138.413 133.736 136.587 130.912 136.587 127.677C136.587 124.974 137.856 122.559 139.848 121.015L133.205 119.555C133.359 120.067 133.436 120.599 133.436 121.156C133.436 124.346 130.848 126.947 127.652 126.947C127.332 126.947 127.018 126.915 126.717 126.87L128.6 133.134C129.426 132.494 130.464 132.109 131.591 132.109C134.294 132.109 136.491 134.313 136.491 137.016V137.029L141.084 135.152ZM131.591 136.766C131.444 136.766 131.341 136.875 131.341 137.016C131.341 137.15 131.457 137.272 131.591 137.272C131.726 137.272 131.835 137.15 131.835 137.016C131.835 136.875 131.726 136.766 131.591 136.766ZM131.591 136.766C131.444 136.766 131.341 136.875 131.341 137.016C131.341 137.15 131.457 137.272 131.591 137.272C131.726 137.272 131.835 137.15 131.835 137.016C131.835 136.875 131.726 136.766 131.591 136.766ZM141.084 135.152C138.413 133.736 136.587 130.912 136.587 127.677C136.587 124.974 137.856 122.559 139.848 121.015L133.205 119.555C133.359 120.067 133.436 120.599 133.436 121.156C133.436 124.346 130.848 126.947 127.652 126.947C127.332 126.947 127.018 126.915 126.717 126.87L128.6 133.134C129.426 132.494 130.464 132.109 131.591 132.109C134.294 132.109 136.491 134.313 136.491 137.016V137.029L141.084 135.152ZM145.036 126.21C144.229 126.21 143.569 126.87 143.569 127.677C143.569 128.49 144.229 129.144 145.036 129.144C145.843 129.144 146.503 128.49 146.503 127.677C146.503 126.87 145.843 126.21 145.036 126.21ZM131.341 137.016C131.341 137.15 131.457 137.272 131.591 137.272C131.726 137.272 131.835 137.15 131.835 137.016C131.835 136.875 131.726 136.766 131.591 136.766C131.444 136.766 131.341 136.875 131.341 137.016ZM127.652 126.947C127.332 126.947 127.018 126.915 126.717 126.87L128.6 133.134C129.426 132.494 130.464 132.109 131.591 132.109C134.294 132.109 136.491 134.313 136.491 137.016V137.029L141.084 135.152C138.413 133.736 136.587 130.912 136.587 127.677C136.587 124.974 137.856 122.559 139.848 121.015L133.205 119.555C133.359 120.067 133.436 120.599 133.436 121.156C133.436 124.346 130.848 126.947 127.652 126.947ZM146.503 127.677C146.503 126.87 145.843 126.21 145.036 126.21C144.229 126.21 143.569 126.87 143.569 127.677C143.569 128.49 144.229 129.144 145.036 129.144C145.843 129.144 146.503 128.49 146.503 127.677ZM144.178 111.369L143.377 110.824L143.448 110.722H132.219L132.296 110.824L131.284 111.522L124.949 115.904L125.013 116C125.807 115.596 126.697 115.366 127.652 115.366C128.542 115.366 129.388 115.564 130.131 115.923L145.305 119.234C149.847 119.375 153.485 123.103 153.485 127.677C153.485 131.251 151.269 134.313 148.124 135.555L147.944 135.626L144.351 136.971L134.474 140.981C133.667 141.577 132.661 141.922 131.591 141.922C128.888 141.922 126.685 139.719 126.685 137.016C126.685 136.958 126.685 136.913 126.697 136.856L123.014 124.615C122.284 123.654 121.855 122.456 121.855 121.156C121.855 119.542 122.515 118.088 123.584 117.044L123.501 116.916L116.929 121.47L121.246 132.506L128.216 150.32H147.457L154.42 132.506L158.744 121.476V121.47L144.178 111.369ZM145.036 126.21C144.229 126.21 143.569 126.87 143.569 127.677C143.569 128.49 144.229 129.144 145.036 129.144C145.843 129.144 146.503 128.49 146.503 127.677C146.503 126.87 145.843 126.21 145.036 126.21ZM141.084 135.152C138.413 133.736 136.587 130.912 136.587 127.677C136.587 124.974 137.856 122.559 139.848 121.015L133.205 119.555C133.359 120.067 133.436 120.599 133.436 121.156C133.436 124.346 130.848 126.947 127.652 126.947C127.332 126.947 127.018 126.915 126.717 126.87L128.6 133.134C129.426 132.494 130.464 132.109 131.591 132.109C134.294 132.109 136.491 134.313 136.491 137.016V137.029L141.084 135.152ZM131.591 136.766C131.444 136.766 131.341 136.875 131.341 137.016C131.341 137.15 131.457 137.272 131.591 137.272C131.726 137.272 131.835 137.15 131.835 137.016C131.835 136.875 131.726 136.766 131.591 136.766ZM131.591 136.766C131.444 136.766 131.341 136.875 131.341 137.016C131.341 137.15 131.457 137.272 131.591 137.272C131.726 137.272 131.835 137.15 131.835 137.016C131.835 136.875 131.726 136.766 131.591 136.766ZM141.084 135.152C138.413 133.736 136.587 130.912 136.587 127.677C136.587 124.974 137.856 122.559 139.848 121.015L133.205 119.555C133.359 120.067 133.436 120.599 133.436 121.156C133.436 124.346 130.848 126.947 127.652 126.947C127.332 126.947 127.018 126.915 126.717 126.87L128.6 133.134C129.426 132.494 130.464 132.109 131.591 132.109C134.294 132.109 136.491 134.313 136.491 137.016V137.029L141.084 135.152ZM145.036 126.21C144.229 126.21 143.569 126.87 143.569 127.677C143.569 128.49 144.229 129.144 145.036 129.144C145.843 129.144 146.503 128.49 146.503 127.677C146.503 126.87 145.843 126.21 145.036 126.21ZM145.036 126.21C144.229 126.21 143.569 126.87 143.569 127.677C143.569 128.49 144.229 129.144 145.036 129.144C145.843 129.144 146.503 128.49 146.503 127.677C146.503 126.87 145.843 126.21 145.036 126.21ZM141.084 135.152C138.413 133.736 136.587 130.912 136.587 127.677C136.587 124.974 137.856 122.559 139.848 121.015L133.205 119.555C133.359 120.067 133.436 120.599 133.436 121.156C133.436 124.346 130.848 126.947 127.652 126.947C127.332 126.947 127.018 126.915 126.717 126.87L128.6 133.134C129.426 132.494 130.464 132.109 131.591 132.109C134.294 132.109 136.491 134.313 136.491 137.016V137.029L141.084 135.152ZM131.591 136.766C131.444 136.766 131.341 136.875 131.341 137.016C131.341 137.15 131.457 137.272 131.591 137.272C131.726 137.272 131.835 137.15 131.835 137.016C131.835 136.875 131.726 136.766 131.591 136.766ZM131.591 136.766C131.444 136.766 131.341 136.875 131.341 137.016C131.341 137.15 131.457 137.272 131.591 137.272C131.726 137.272 131.835 137.15 131.835 137.016C131.835 136.875 131.726 136.766 131.591 136.766ZM141.084 135.152C138.413 133.736 136.587 130.912 136.587 127.677C136.587 124.974 137.856 122.559 139.848 121.015L133.205 119.555C133.359 120.067 133.436 120.599 133.436 121.156C133.436 124.346 130.848 126.947 127.652 126.947C127.332 126.947 127.018 126.915 126.717 126.87L128.6 133.134C129.426 132.494 130.464 132.109 131.591 132.109C134.294 132.109 136.491 134.313 136.491 137.016V137.029L141.084 135.152ZM145.036 126.21C144.229 126.21 143.569 126.87 143.569 127.677C143.569 128.49 144.229 129.144 145.036 129.144C145.843 129.144 146.503 128.49 146.503 127.677C146.503 126.87 145.843 126.21 145.036 126.21ZM145.036 126.21C144.229 126.21 143.569 126.87 143.569 127.677C143.569 128.49 144.229 129.144 145.036 129.144C145.843 129.144 146.503 128.49 146.503 127.677C146.503 126.87 145.843 126.21 145.036 126.21ZM131.591 136.766C131.444 136.766 131.341 136.875 131.341 137.016C131.341 137.15 131.457 137.272 131.591 137.272C131.726 137.272 131.835 137.15 131.835 137.016C131.835 136.875 131.726 136.766 131.591 136.766ZM141.084 135.152C138.413 133.736 136.587 130.912 136.587 127.677C136.587 124.974 137.856 122.559 139.848 121.015L133.205 119.555C133.359 120.067 133.436 120.599 133.436 121.156C133.436 124.346 130.848 126.947 127.652 126.947C127.332 126.947 127.018 126.915 126.717 126.87L128.6 133.134C129.426 132.494 130.464 132.109 131.591 132.109C134.294 132.109 136.491 134.313 136.491 137.016V137.029L141.084 135.152ZM145.036 126.21C144.229 126.21 143.569 126.87 143.569 127.677C143.569 128.49 144.229 129.144 145.036 129.144C145.843 129.144 146.503 128.49 146.503 127.677C146.503 126.87 145.843 126.21 145.036 126.21ZM145.036 126.21C144.229 126.21 143.569 126.87 143.569 127.677C143.569 128.49 144.229 129.144 145.036 129.144C145.843 129.144 146.503 128.49 146.503 127.677C146.503 126.87 145.843 126.21 145.036 126.21Z" fill="white"/>
<path d="M143.983 136.056L135.9 139.342C136.105 138.964 136.252 138.561 136.354 138.125V138.112L142.337 135.678C142.862 135.864 143.413 135.986 143.983 136.056Z" fill="white"/>
<path d="M142.504 119.618C141.972 119.778 141.466 120.002 140.985 120.278H140.979L132.774 118.478C132.556 118.055 132.287 117.664 131.973 117.318L142.504 119.618Z" fill="white"/>
<path d="M127.829 133.864C127.557 134.189 127.323 134.554 127.156 134.945L124.441 125.935C124.805 126.184 125.203 126.397 125.622 126.546L127.829 133.864Z" fill="white"/>
<path d="M145.039 130.103C143.701 130.103 142.605 129.014 142.605 127.669C142.605 126.323 143.701 125.235 145.039 125.235C146.378 125.235 147.473 126.323 147.473 127.669C147.473 129.014 146.378 130.103 145.039 130.103ZM145.039 120.181C140.901 120.181 137.558 123.537 137.558 127.669C137.558 131.8 140.901 135.163 145.039 135.163C149.177 135.163 152.521 131.8 152.521 127.669C152.521 123.537 149.177 120.181 145.039 120.181Z" fill="white"/>
<path d="M127.658 122.603C126.844 122.603 126.191 121.943 126.191 121.136C126.191 120.329 126.844 119.663 127.658 119.663C128.465 119.663 129.125 120.329 129.125 121.136C129.125 121.943 128.465 122.603 127.658 122.603ZM127.658 116.306C124.987 116.306 122.828 118.471 122.828 121.136C122.828 123.8 124.987 125.953 127.658 125.953C130.322 125.953 132.475 123.8 132.475 121.136C132.475 118.471 130.322 116.306 127.658 116.306Z" fill="white"/>
<path d="M131.602 138.217C130.929 138.217 130.385 137.666 130.385 137C130.385 136.327 130.929 135.783 131.602 135.783C132.268 135.783 132.806 136.327 132.806 137C132.806 137.666 132.268 138.217 131.602 138.217ZM131.602 133.061C129.424 133.061 127.662 134.828 127.662 137C127.662 139.171 129.424 140.939 131.602 140.939C133.773 140.939 135.534 139.171 135.534 137C135.534 134.828 133.773 133.061 131.602 133.061Z" fill="white"/>
<path d="M149.776 106.5H149.033V100.793H149.776V106.5ZM148.418 106.5H147.675V100.793H148.418V106.5ZM147.06 106.5H146.317V100.793H147.06V106.5ZM145.702 106.5H144.959V100.793H145.702V106.5ZM144.338 106.5H143.595V100.793H144.338V106.5ZM142.986 106.5H142.23V100.793H142.986V106.5ZM141.628 106.5H140.885V100.793H141.628V106.5ZM140.264 106.5H139.521V100.793H140.264V106.5ZM138.9 106.5H138.157V100.793H138.9V106.5ZM137.548 106.5H136.792V100.793H137.548V106.5ZM136.184 106.5H135.441V100.793H136.184V106.5ZM134.826 106.5H134.083V100.793H134.826V106.5ZM133.461 106.5H132.718V100.793H133.461V106.5ZM132.11 106.5H131.367V100.793H132.11V106.5ZM130.752 106.5H130.009V100.793H130.752V106.5ZM129.388 106.5H128.644V100.793H129.388V106.5ZM128.036 106.5H127.28V100.793H128.036V106.5ZM126.678 106.5H125.935V100.793H126.678V106.5ZM125.359 107.07H150.308V100.146H125.359V107.07Z" fill="white"/>
<path d="M131.436 107.825H144.259V109.676H131.436V107.825Z" fill="white"/>
<path d="M130.955 110.553L130.743 110.693L116.575 120.526L110.758 124.568L110.041 125.061L107.581 121.487C106.364 119.719 106.806 117.31 108.568 116.106L123.159 106.05C123.544 105.78 123.973 105.595 124.396 105.486V108.01H129.206L130.955 110.553Z" fill="white"/>
<path d="M120.215 132.497H116.013C114.873 132.497 114.45 131.235 114.45 131.235L111.222 125.419L116.109 122.031L120.215 132.497Z" fill="white"/>
<path d="M168.104 121.515L165.638 125.09L164.927 124.596L159.111 120.561L144.942 110.729L144.73 110.581L146.479 108.038H151.29V105.521C151.712 105.63 152.142 105.809 152.526 106.078L167.117 116.135C168.879 117.345 169.321 119.747 168.104 121.515Z" fill="white"/>
<path d="M164.444 125.419L161.229 131.223C161.229 131.223 160.799 132.491 159.659 132.491H155.464L159.557 122.031L164.444 125.419Z" fill="white"/>
<path d="M107.454 88.0948C101.35 88.0948 96.3792 93.059 96.3792 99.1697V145.782C96.3792 151.886 101.35 156.85 107.454 156.85H170.419C176.524 156.85 181.494 151.886 181.494 145.782V99.1697C181.494 93.059 176.524 88.0948 170.419 88.0948H107.454ZM170.419 160.053H107.454C99.5819 160.053 93.1765 153.648 93.1765 145.782V99.1697C93.1765 91.2975 99.5819 84.8921 107.454 84.8921H170.419C178.292 84.8921 184.697 91.2975 184.697 99.1697V145.782C184.697 153.648 178.292 160.053 170.419 160.053Z" fill="white"/>
<defs>
<filter id="filter0_d" x="0" y="0" width="287" height="361" filterUnits="userSpaceOnUse" color-interpolation-filters="sRGB">
<feFlood flood-opacity="0" result="BackgroundImageFix"/>
<feColorMatrix in="SourceAlpha" type="matrix" values="0 0 0 0 0 0 0 0 0 0 0 0 0 0 0 0 0 0 127 0"/>
<feOffset dx="4" dy="4"/>
<feGaussianBlur stdDeviation="2"/>
<feColorMatrix type="matrix" values="0 0 0 0 0 0 0 0 0 0 0 0 0 0 0 0 0 0 0.25 0"/>
<feBlend mode="normal" in2="BackgroundImageFix" result="effect1_dropShadow"/>
<feBlend mode="normal" in="SourceGraphic" in2="effect1_dropShadow" result="shape"/>
</filter>
</defs>
</svg>
