<svg width="287" height="361" viewBox="0 0 287 361" fill="none" xmlns="http://www.w3.org/2000/svg">
<g filter="url(#filter0_d)">
<rect width="279" height="353" rx="8" fill="#121212"/>
<rect width="279" height="353" rx="8" fill="white" fill-opacity="0.08"/>
</g>
<path d="M251.286 319.714H242.714V328.286C242.714 329.229 241.943 330 241 330C240.057 330 239.286 329.229 239.286 328.286V319.714H230.714C229.771 319.714 229 318.943 229 318C229 317.057 229.771 316.286 230.714 316.286H239.286V307.714C239.286 306.771 240.057 306 241 306C241.943 306 242.714 306.771 242.714 307.714V316.286H251.286C252.229 316.286 253 317.057 253 318C253 318.943 252.229 319.714 251.286 319.714Z" fill="#FAFAFA"/>
<path d="M29.208 228.136C30.76 228.328 31.944 228.856 32.76 229.72C33.576 230.584 33.984 231.664 33.984 232.96C33.984 233.936 33.736 234.824 33.24 235.624C32.744 236.424 31.992 237.064 30.984 237.544C29.992 238.008 28.776 238.24 27.336 238.24C26.136 238.24 24.976 238.072 23.856 237.736C22.752 237.384 21.808 236.904 21.024 236.296L22.368 233.872C22.976 234.384 23.712 234.792 24.576 235.096C25.456 235.384 26.36 235.528 27.288 235.528C28.392 235.528 29.256 235.304 29.88 234.856C30.52 234.392 30.84 233.768 30.84 232.984C30.84 232.2 30.536 231.592 29.928 231.16C29.336 230.712 28.424 230.488 27.192 230.488H25.656V228.352L29.472 223.816H21.84V221.2H33.288V223.288L29.208 228.136ZM44.4068 227.632C45.5108 227.632 46.5028 227.848 47.3828 228.28C48.2628 228.696 48.9508 229.296 49.4468 230.08C49.9428 230.864 50.1908 231.768 50.1908 232.792C50.1908 233.88 49.9188 234.84 49.3748 235.672C48.8308 236.488 48.0948 237.12 47.1668 237.568C46.2388 238.016 45.1988 238.24 44.0468 238.24C41.7428 238.24 39.9508 237.52 38.6708 236.08C37.4068 234.64 36.7748 232.576 36.7748 229.888C36.7748 228 37.1188 226.392 37.8068 225.064C38.4948 223.72 39.4548 222.704 40.6868 222.016C41.9348 221.312 43.3748 220.96 45.0068 220.96C45.8708 220.96 46.6788 221.056 47.4308 221.248C48.1988 221.424 48.8628 221.688 49.4228 222.04L48.2708 224.392C47.4388 223.848 46.3748 223.576 45.0788 223.576C43.4628 223.576 42.1988 224.072 41.2868 225.064C40.3748 226.056 39.9188 227.488 39.9188 229.36V229.384C40.4148 228.808 41.0468 228.376 41.8148 228.088C42.5828 227.784 43.4468 227.632 44.4068 227.632ZM43.8788 235.792C44.8548 235.792 45.6468 235.536 46.2548 235.024C46.8628 234.496 47.1668 233.8 47.1668 232.936C47.1668 232.056 46.8628 231.36 46.2548 230.848C45.6468 230.336 44.8308 230.08 43.8068 230.08C42.7988 230.08 41.9748 230.352 41.3348 230.896C40.7108 231.44 40.3988 232.128 40.3988 232.96C40.3988 233.776 40.7028 234.456 41.3108 235C41.9348 235.528 42.7908 235.792 43.8788 235.792ZM59.5796 238.24C58.2356 238.24 57.0356 237.904 55.9796 237.232C54.9236 236.544 54.0916 235.552 53.4836 234.256C52.8756 232.944 52.5716 231.392 52.5716 229.6C52.5716 227.808 52.8756 226.264 53.4836 224.968C54.0916 223.656 54.9236 222.664 55.9796 221.992C57.0356 221.304 58.2356 220.96 59.5796 220.96C60.9236 220.96 62.1236 221.304 63.1796 221.992C64.2516 222.664 65.0916 223.656 65.6996 224.968C66.3076 226.264 66.6116 227.808 66.6116 229.6C66.6116 231.392 66.3076 232.944 65.6996 234.256C65.0916 235.552 64.2516 236.544 63.1796 237.232C62.1236 237.904 60.9236 238.24 59.5796 238.24ZM59.5796 235.528C60.7796 235.528 61.7236 235.032 62.4116 234.04C63.1156 233.048 63.4676 231.568 63.4676 229.6C63.4676 227.632 63.1156 226.152 62.4116 225.16C61.7236 224.168 60.7796 223.672 59.5796 223.672C58.3956 223.672 57.4516 224.168 56.7476 225.16C56.0596 226.152 55.7156 227.632 55.7156 229.6C55.7156 231.568 56.0596 233.048 56.7476 234.04C57.4516 235.032 58.3956 235.528 59.5796 235.528ZM78.0529 221.2H85.3969C87.1889 221.2 88.7809 221.552 90.1729 222.256C91.5649 222.944 92.6449 223.928 93.4129 225.208C94.1809 226.472 94.5649 227.936 94.5649 229.6C94.5649 231.264 94.1809 232.736 93.4129 234.016C92.6449 235.28 91.5649 236.264 90.1729 236.968C88.7809 237.656 87.1889 238 85.3969 238H78.0529V221.2ZM85.2529 235.36C86.4849 235.36 87.5649 235.128 88.4929 234.664C89.4369 234.184 90.1569 233.512 90.6529 232.648C91.1649 231.768 91.4209 230.752 91.4209 229.6C91.4209 228.448 91.1649 227.44 90.6529 226.576C90.1569 225.696 89.4369 225.024 88.4929 224.56C87.5649 224.08 86.4849 223.84 85.2529 223.84H81.1729V235.36H85.2529ZM111.231 235.384V238H98.631V221.2H110.895V223.816H101.751V228.184H109.863V230.752H101.751V235.384H111.231ZM128.059 235.384V238H115.459V221.2H127.723V223.816H118.579V228.184H126.691V230.752H118.579V235.384H128.059ZM139.199 221.2C140.655 221.2 141.919 221.44 142.991 221.92C144.079 222.4 144.911 223.088 145.487 223.984C146.063 224.88 146.351 225.944 146.351 227.176C146.351 228.392 146.063 229.456 145.487 230.368C144.911 231.264 144.079 231.952 142.991 232.432C141.919 232.912 140.655 233.152 139.199 233.152H135.407V238H132.287V221.2H139.199ZM139.055 230.512C140.415 230.512 141.447 230.224 142.151 229.648C142.855 229.072 143.207 228.248 143.207 227.176C143.207 226.104 142.855 225.28 142.151 224.704C141.447 224.128 140.415 223.84 139.055 223.84H135.407V230.512H139.055ZM165.61 238.24C163.914 238.24 162.378 237.872 161.002 237.136C159.642 236.384 158.57 235.352 157.786 234.04C157.018 232.728 156.634 231.248 156.634 229.6C156.634 227.952 157.026 226.472 157.81 225.16C158.594 223.848 159.666 222.824 161.026 222.088C162.402 221.336 163.938 220.96 165.634 220.96C167.01 220.96 168.266 221.2 169.402 221.68C170.538 222.16 171.498 222.856 172.282 223.768L170.266 225.664C169.05 224.352 167.554 223.696 165.778 223.696C164.626 223.696 163.594 223.952 162.682 224.464C161.77 224.96 161.058 225.656 160.546 226.552C160.034 227.448 159.778 228.464 159.778 229.6C159.778 230.736 160.034 231.752 160.546 232.648C161.058 233.544 161.77 234.248 162.682 234.76C163.594 235.256 164.626 235.504 165.778 235.504C167.554 235.504 169.05 234.84 170.266 233.512L172.282 235.432C171.498 236.344 170.53 237.04 169.378 237.52C168.242 238 166.986 238.24 165.61 238.24ZM176.022 221.2H179.142V235.36H187.926V238H176.022V221.2ZM203.739 235.384V238H191.139V221.2H203.403V223.816H194.259V228.184H202.371V230.752H194.259V235.384H203.739ZM222.895 221.2V238H220.327L211.063 226.624V238H207.967V221.2H210.535L219.799 232.576V221.2H222.895ZM233.355 238.24C232.059 238.24 230.803 238.056 229.587 237.688C228.387 237.32 227.435 236.832 226.731 236.224L227.811 233.8C228.499 234.344 229.339 234.792 230.331 235.144C231.339 235.48 232.347 235.648 233.355 235.648C234.603 235.648 235.531 235.448 236.139 235.048C236.763 234.648 237.075 234.12 237.075 233.464C237.075 232.984 236.899 232.592 236.547 232.288C236.211 231.968 235.779 231.72 235.251 231.544C234.723 231.368 234.003 231.168 233.091 230.944C231.811 230.64 230.771 230.336 229.971 230.032C229.187 229.728 228.507 229.256 227.931 228.616C227.371 227.96 227.091 227.08 227.091 225.976C227.091 225.048 227.339 224.208 227.835 223.456C228.347 222.688 229.107 222.08 230.115 221.632C231.139 221.184 232.387 220.96 233.859 220.96C234.883 220.96 235.891 221.088 236.883 221.344C237.875 221.6 238.731 221.968 239.451 222.448L238.467 224.872C237.731 224.44 236.963 224.112 236.163 223.888C235.363 223.664 234.587 223.552 233.835 223.552C232.603 223.552 231.683 223.76 231.075 224.176C230.483 224.592 230.187 225.144 230.187 225.832C230.187 226.312 230.355 226.704 230.691 227.008C231.043 227.312 231.483 227.552 232.011 227.728C232.539 227.904 233.259 228.104 234.171 228.328C235.419 228.616 236.443 228.92 237.243 229.24C238.043 229.544 238.723 230.016 239.283 230.656C239.859 231.296 240.147 232.16 240.147 233.248C240.147 234.176 239.891 235.016 239.379 235.768C238.883 236.52 238.123 237.12 237.099 237.568C236.075 238.016 234.827 238.24 233.355 238.24ZM256.59 235.384V238H243.99V221.2H256.254V223.816H247.11V228.184H255.222V230.752H247.11V235.384H256.59Z" fill="white" fill-opacity="0.87"/>
<path d="M139.488 47.1526C101.811 47.1526 71.1526 77.805 71.1526 115.488C71.1526 153.164 101.811 183.81 139.488 183.81C177.164 183.81 207.816 153.164 207.816 115.488C207.816 77.805 177.164 47.1526 139.488 47.1526ZM139.488 186.969C100.07 186.969 68 154.905 68 115.488C68 76.0701 100.07 44 139.488 44C178.905 44 210.969 76.0701 210.969 115.488C210.969 154.905 178.905 186.969 139.488 186.969Z" fill="white"/>
<path d="M139.481 53.5889C105.43 53.5889 77.7235 81.2892 77.7235 115.34C77.7235 149.391 105.43 177.092 139.481 177.092C173.532 177.092 201.233 149.391 201.233 115.34C201.233 81.2892 173.532 53.5889 139.481 53.5889ZM139.481 178.496C104.66 178.496 76.3252 150.162 76.3252 115.34C76.3252 80.5124 104.66 52.1841 139.481 52.1841C174.303 52.1841 202.637 80.5124 202.637 115.34C202.637 150.162 174.303 178.496 139.481 178.496Z" fill="white"/>
<path d="M190.004 115.576C189.978 115.427 189.933 115.291 189.868 115.116C189.849 115.064 189.823 115.019 189.804 114.954C189.758 114.844 189.713 114.708 189.648 114.579C189.622 114.514 189.583 114.443 189.558 114.423C189.512 114.378 189.467 114.313 189.448 114.268C189.428 114.242 189.402 114.203 189.383 114.151L189.247 113.977C189.117 113.841 189.027 113.737 188.981 113.601L188.936 113.472C188.897 113.329 188.871 113.2 188.871 113.006C188.871 112.889 188.871 112.753 188.845 112.604C188.845 112.533 188.826 112.488 188.826 112.449V112.384C188.781 112.203 188.761 112.022 188.69 111.827C188.69 111.782 188.69 111.737 188.671 111.711L188.36 110.332C188.295 110.183 188.25 110.028 188.205 109.846L188.114 109.516C188.095 109.426 188.049 109.335 188.03 109.27C187.849 108.61 187.674 108.027 187.538 107.626C187.493 107.497 187.447 107.387 187.428 107.322C187.408 107.276 187.382 107.257 187.382 107.257L187.363 107.141C187.227 106.83 186.78 106.765 184.541 106.474C182.611 106.234 179.944 105.898 178.242 105.25C177.879 105.127 177.394 104.92 176.772 104.655C172.403 102.79 162.194 98.4206 147.298 97.948C146.981 97.9286 146.651 97.9286 146.321 97.9286C145.9 97.9092 145.453 97.9092 145.032 97.9092C136.196 97.8639 135.685 98.0193 133.736 98.6213C131.024 99.437 124.168 102.926 119.637 105.231C117.882 106.098 116.529 106.81 116.063 106.985C115.286 107.322 113.292 107.613 110.781 107.879L110.716 108.429C113.357 108.144 115.422 107.879 116.283 107.497C116.756 107.296 118.063 106.629 119.883 105.723C124.123 103.574 131.224 99.9743 133.911 99.1521C135.795 98.5501 136.287 98.4206 145.032 98.4595C145.453 98.4595 145.874 98.4595 146.321 98.4854C146.605 98.4595 146.942 98.4854 147.253 98.5048C162.058 98.9773 172.221 103.302 176.552 105.166C177.174 105.438 177.685 105.632 178.041 105.788C179.815 106.454 182.501 106.791 184.476 107.03C185.473 107.16 186.586 107.296 186.871 107.406C186.871 107.432 186.897 107.477 186.897 107.497C186.936 107.587 186.962 107.671 187.007 107.807C187.143 108.183 187.337 108.785 187.493 109.426C187.538 109.497 187.564 109.581 187.583 109.672L187.674 109.982C187.713 110.183 187.758 110.358 187.829 110.52L188.114 111.666C188.114 111.711 188.114 111.756 188.14 111.873L188.159 111.976C188.23 112.138 188.25 112.287 188.269 112.449C188.269 112.514 188.269 112.559 188.295 112.65C188.315 112.798 188.315 112.915 188.315 113.006C188.315 113.271 188.341 113.472 188.425 113.711C188.451 113.737 188.451 113.757 188.451 113.782C188.535 114.022 188.69 114.177 188.826 114.359L188.845 114.378C188.871 114.423 188.917 114.469 188.917 114.469L188.981 114.559C189.007 114.605 189.027 114.663 189.091 114.734L189.137 114.825C189.202 114.928 189.247 115.045 189.318 115.2L189.337 115.291C189.402 115.427 189.428 115.55 189.467 115.692C189.849 117.103 189.713 121.104 189.357 121.991L189.318 122.082C189.066 122.153 188.8 122.328 188.451 122.593C188.341 122.684 188.23 122.768 188.049 122.878C188.03 122.923 187.985 122.949 187.913 122.975C187.868 123.007 187.849 123.033 187.803 123.059L187.583 123.214C187.493 123.279 187.408 123.318 187.318 123.389C187.227 123.434 187.143 123.499 187.072 123.545C186.897 123.635 186.742 123.745 186.541 123.829L186.12 124.075C185.693 124.302 185.013 124.503 184.21 124.697C184.12 124.697 184.029 124.723 183.939 124.742C183.874 124.768 183.79 124.787 183.654 124.813H183.589C183.524 124.833 183.479 124.833 183.453 124.859C182.521 125.053 181.569 125.189 180.948 125.279C181.058 124.742 181.103 124.166 181.103 123.564C181.103 118.288 176.818 113.977 171.535 113.977C166.272 113.977 161.987 118.288 161.987 123.564C161.987 124.166 162.038 124.742 162.148 125.344H116.154C116.264 124.677 116.329 124.121 116.329 123.564C116.329 119.486 113.759 115.977 110.14 114.605L110.069 115.174C113.403 116.488 115.778 119.77 115.778 123.564C115.778 124.166 115.707 124.813 115.532 125.564L115.468 125.901H162.835L162.763 125.564C162.615 124.898 162.543 124.231 162.543 123.564C162.543 118.599 166.583 114.533 171.535 114.533C176.507 114.533 180.546 118.599 180.546 123.564C180.546 124.283 180.482 124.917 180.3 125.519L180.281 125.875H180.637C181.239 125.81 182.411 125.655 183.608 125.39C183.634 125.37 183.654 125.37 183.673 125.37C183.718 125.37 183.79 125.344 183.79 125.344C183.874 125.325 183.964 125.299 184.074 125.279C184.146 125.279 184.21 125.254 184.32 125.228C185.162 125.033 185.919 124.813 186.366 124.567L186.806 124.321C187.007 124.231 187.182 124.121 187.382 124.011C187.447 123.946 187.538 123.901 187.628 123.855C187.713 123.791 187.803 123.726 187.939 123.635L188.23 123.434C188.295 123.389 188.386 123.344 188.405 123.299C188.535 123.214 188.671 123.124 188.781 123.033C189.066 122.832 189.337 122.638 189.428 122.638L189.583 122.612L189.668 122.522C189.732 122.457 189.804 122.328 189.868 122.237C190.27 121.214 190.406 117.103 190.004 115.576ZM104.721 114.779L104.566 114.242C100.352 115.239 97.2186 119.039 97.2186 123.564C97.2186 124.166 97.2639 124.742 97.374 125.344H93.1597C91.9556 125.344 91.9556 125.344 90.6738 125.254L89.3856 125.189C88.8094 125.163 88.3369 125.033 88.0326 124.833C87.9161 124.723 87.8514 124.652 87.806 124.593L87.7672 124.522C87.7413 124.457 87.7219 124.412 87.696 124.367C87.6507 124.14 87.6766 123.92 87.7219 123.7C87.7413 123.655 87.7672 123.609 87.7672 123.564C87.7866 123.525 87.7866 123.499 87.7866 123.48C87.7866 123.46 87.806 123.434 87.806 123.434L87.8319 123.344C87.8967 123.234 87.942 123.169 87.942 123.169L88.0067 123.124V123.033C88.0326 122.994 88.0715 122.923 88.0973 122.832C88.1168 122.813 88.1168 122.787 88.1427 122.742C88.1621 122.703 88.1815 122.638 88.1815 122.638C88.2527 122.502 88.298 122.392 88.3369 122.211C88.3628 122.082 88.3822 121.946 88.3822 121.861C88.3822 121.123 88.3822 120.483 88.4275 119.861L88.4081 118.748C88.4534 118.599 88.4534 118.411 88.4534 118.288V118.042C88.4728 117.971 88.4728 117.88 88.4728 117.796C88.4728 117.686 88.4728 117.556 88.4922 117.375C88.4922 117.265 88.4922 117.155 88.5181 117C88.5181 116.954 88.5181 116.883 88.5375 116.838V116.663L88.6088 116.106C88.8289 114.443 89.2496 113.867 90.0912 112.714C90.2725 112.475 90.4731 112.203 90.6738 111.918C91.5801 110.623 97.484 109.801 103.077 109.212L102.922 108.675C96.9532 109.296 91.2694 110.118 90.2271 111.581C90.007 111.892 89.8258 112.164 89.651 112.384C88.7835 113.575 88.298 114.242 88.0714 116.016C88.052 116.223 88.0067 116.398 87.9873 116.618V116.78C87.9614 116.864 87.9614 116.929 87.9614 116.954C87.942 117.084 87.942 117.246 87.942 117.33C87.9161 117.511 87.9161 117.66 87.9161 117.796C87.9161 117.867 87.9161 117.925 87.8967 117.997V118.288C87.8967 118.398 87.8967 118.528 87.8772 118.702V119.861C87.8319 120.457 87.8319 121.123 87.8319 121.861C87.8319 121.92 87.8319 122.01 87.806 122.127C87.7866 122.211 87.7413 122.276 87.6766 122.418C87.6766 122.457 87.6507 122.476 87.6312 122.522C87.6118 122.567 87.5859 122.612 87.5406 122.722L87.5018 122.813C87.4759 122.832 87.4565 122.878 87.4565 122.904C87.4306 122.949 87.3853 123.007 87.3464 123.098C87.3205 123.124 87.3205 123.169 87.2752 123.279L87.1846 123.525C87.1393 123.81 87.0745 124.14 87.1652 124.503C87.1846 124.613 87.2493 124.697 87.2752 124.787L87.3205 124.859C87.4047 124.988 87.5147 125.124 87.696 125.254C88.0973 125.564 88.6541 125.72 89.3597 125.739L90.6285 125.81C91.9556 125.901 91.9556 125.901 93.1597 125.901H98.0602L97.9954 125.564C97.8401 124.898 97.7753 124.231 97.7753 123.564C97.7753 119.304 100.727 115.712 104.721 114.779ZM148.25 107.205C148.25 104.985 148.094 102.544 147.719 99.5729H148.45C148.671 99.5923 148.852 99.5923 149.007 99.5923C150.936 99.5923 155.202 100.039 158.154 100.881C160.899 101.664 166.317 104.855 167.075 105.762C165.787 105.969 157.818 106.629 148.25 107.205ZM158.31 100.343C155.312 99.4888 150.982 99.0356 149.007 99.0356C148.852 99.0356 148.671 99.0356 148.45 99.0162H147.097L147.143 99.3269C147.538 102.544 147.719 105.147 147.693 107.497V107.807L147.984 107.788C157.242 107.231 166.874 106.474 167.405 106.26C167.586 106.189 167.696 106.053 167.696 105.852C167.67 104.791 160.815 101.062 158.31 100.343ZM148.25 107.205C148.25 104.985 148.094 102.544 147.719 99.5729H148.45C148.671 99.5923 148.852 99.5923 149.007 99.5923C150.936 99.5923 155.202 100.039 158.154 100.881C160.899 101.664 166.317 104.855 167.075 105.762C165.787 105.969 157.818 106.629 148.25 107.205ZM158.31 100.343C155.312 99.4888 150.982 99.0356 149.007 99.0356C148.852 99.0356 148.671 99.0356 148.45 99.0162H147.097L147.143 99.3269C147.538 102.544 147.719 105.147 147.693 107.497V107.807L147.984 107.788C157.242 107.231 166.874 106.474 167.405 106.26C167.586 106.189 167.696 106.053 167.696 105.852C167.67 104.791 160.815 101.062 158.31 100.343ZM148.25 107.205C148.25 104.985 148.094 102.544 147.719 99.5729H148.45C148.671 99.5923 148.852 99.5923 149.007 99.5923C150.936 99.5923 155.202 100.039 158.154 100.881C160.899 101.664 166.317 104.855 167.075 105.762C165.787 105.969 157.818 106.629 148.25 107.205ZM158.31 100.343C155.312 99.4888 150.982 99.0356 149.007 99.0356C148.852 99.0356 148.671 99.0356 148.45 99.0162H147.097L147.143 99.3269C147.538 102.544 147.719 105.147 147.693 107.497V107.807L147.984 107.788C157.242 107.231 166.874 106.474 167.405 106.26C167.586 106.189 167.696 106.053 167.696 105.852C167.67 104.791 160.815 101.062 158.31 100.343ZM148.25 107.205C148.25 104.985 148.094 102.544 147.719 99.5729H148.45C148.671 99.5923 148.852 99.5923 149.007 99.5923C150.936 99.5923 155.202 100.039 158.154 100.881C160.899 101.664 166.317 104.855 167.075 105.762C165.787 105.969 157.818 106.629 148.25 107.205ZM158.31 100.343C155.312 99.4888 150.982 99.0356 149.007 99.0356C148.852 99.0356 148.671 99.0356 148.45 99.0162H147.097L147.143 99.3269C147.538 102.544 147.719 105.147 147.693 107.497V107.807L147.984 107.788C157.242 107.231 166.874 106.474 167.405 106.26C167.586 106.189 167.696 106.053 167.696 105.852C167.67 104.791 160.815 101.062 158.31 100.343ZM148.25 107.205C148.25 104.985 148.094 102.544 147.719 99.5729H148.45C148.671 99.5923 148.852 99.5923 149.007 99.5923C150.936 99.5923 155.202 100.039 158.154 100.881C160.899 101.664 166.317 104.855 167.075 105.762C165.787 105.969 157.818 106.629 148.25 107.205ZM158.31 100.343C155.312 99.4888 150.982 99.0356 149.007 99.0356C148.852 99.0356 148.671 99.0356 148.45 99.0162H147.097L147.143 99.3269C147.538 102.544 147.719 105.147 147.693 107.497V107.807L147.984 107.788C157.242 107.231 166.874 106.474 167.405 106.26C167.586 106.189 167.696 106.053 167.696 105.852C167.67 104.791 160.815 101.062 158.31 100.343Z" fill="white"/>
<path d="M145.526 99.3125C145.772 99.3319 145.992 99.3319 146.212 99.3319V99.3125H145.526ZM134.495 107.722C136.424 107.657 138.535 107.566 140.8 107.437C138.735 107.527 136.606 107.631 134.495 107.722Z" fill="white"/>
<path d="M144.155 107.274C143.735 107.293 143.269 107.319 142.822 107.338C142.136 107.384 141.45 107.423 140.783 107.449C138.517 107.584 136.413 107.675 134.477 107.733C134.037 107.759 133.616 107.759 133.17 107.779C132.613 107.805 132.082 107.824 131.571 107.85C130.885 107.876 130.218 107.895 129.551 107.915C128.91 107.915 128.263 107.941 127.667 107.941C126.845 107.96 126.042 107.96 125.311 107.96H125.156C125.136 107.941 125.11 107.915 125.091 107.895H125.227C125.466 107.895 125.913 107.779 125.997 106.957C126.042 106.588 126.152 105.649 126.152 104.898C126.152 104.322 125.648 104.03 125.091 103.985L126.755 103.189C127.065 103.034 127.376 102.878 127.687 102.742C128.153 102.548 128.599 102.341 129.04 102.147C129.396 101.965 129.752 101.81 130.108 101.681C131.927 100.878 133.526 100.237 134.549 99.8744C134.659 99.8356 134.769 99.7903 134.879 99.7709C135.06 99.6997 135.215 99.6543 135.345 99.609C135.436 99.5896 135.5 99.5702 135.546 99.5702C135.701 99.5508 135.902 99.5249 136.122 99.4796C136.633 99.4342 137.281 99.3889 137.96 99.3695C139.074 99.3242 140.453 99.3048 142.097 99.3048C143.269 99.3048 144.466 99.3242 145.508 99.3242H146.195V99.3436C146.577 102.257 146.732 104.807 146.732 107.118C145.845 107.157 144.997 107.228 144.155 107.274ZM124.625 107.118C124.295 106.957 124.023 106.872 123.822 107.002C123.647 107.118 123.628 107.274 123.647 107.364C123.647 107.584 123.848 107.759 124.133 107.941C123.693 107.941 123.272 107.941 122.89 107.915C121.453 107.895 120.41 107.805 119.782 107.688C119.828 107.63 119.893 107.584 119.938 107.539C120.851 106.782 121.783 105.985 122.98 105.293C123.291 105.118 123.557 104.982 123.803 104.853C124.159 104.697 124.469 104.587 124.955 104.542C124.955 104.542 125.602 104.542 125.602 104.898C125.602 105.629 125.492 106.542 125.447 106.892C125.402 107.338 125.272 107.338 125.227 107.338C125.045 107.338 124.799 107.228 124.625 107.118ZM147.243 105.073C147.243 104.587 147.198 104.102 147.179 103.564C147.088 102.166 146.933 100.658 146.732 99.0394L146.687 98.7869H146.447C145.178 98.7739 143.644 98.748 142.097 98.748C138.718 98.748 136.543 98.8322 135.455 99.0199C135.08 99.0782 133.921 99.5055 132.367 100.127C131.882 100.328 131.331 100.548 130.749 100.787C126.263 102.697 120.119 105.629 118.74 107.248C118.611 107.423 118.611 107.584 118.63 107.675C118.656 107.805 118.74 107.895 118.85 107.96C118.941 108.025 119.032 108.07 119.07 108.07C119.116 108.089 119.187 108.115 119.252 108.135C119.854 108.31 121.006 108.426 122.87 108.471C123.492 108.491 124.159 108.51 124.89 108.51H125.311C131.305 108.51 140.427 108.044 147.017 107.649L147.289 107.63V107.364C147.289 106.626 147.289 105.869 147.243 105.073Z" fill="white"/>
<path d="M88.6423 115.695L88.8495 115.702C89.3027 115.715 89.7493 115.728 90.2025 115.728C91.0829 115.728 91.782 115.669 92.3905 115.546C93.8665 115.19 94.3715 114.038 94.7599 112.646C93.6723 112.581 92.5977 112.568 91.7561 112.568C91.2577 112.568 90.7527 112.575 90.2478 112.575H90.1118L90.0601 112.646C89.2897 113.708 88.8754 114.271 88.6423 115.695ZM90.2025 116.284C89.7429 116.284 89.2897 116.271 88.8301 116.252L88.0015 116.232L88.0468 115.922C88.2863 114.142 88.7848 113.449 89.6134 112.322L89.827 112.025L90.2478 112.018C90.7463 112.018 91.2512 112.012 91.7561 112.012C92.6883 112.012 93.9183 112.025 95.1353 112.115L95.4655 112.141L95.3878 112.458C94.9476 114.116 94.4038 115.63 92.5135 116.09C91.8597 116.22 91.1217 116.284 90.2025 116.284Z" fill="white"/>
<path d="M105.643 121.649L102.309 120.562C103.066 119.325 104.29 118.458 105.643 118.167V121.649ZM105.863 117.564C104.109 117.81 102.536 118.943 101.649 120.588L101.493 120.872L104.381 121.805L105.416 122.161L106.193 122.407V117.519L105.863 117.564ZM107.973 121.649V118.167C109.346 118.477 110.55 119.345 111.281 120.562L107.973 121.649ZM111.948 120.588C111.1 118.989 109.527 117.856 107.753 117.564L107.417 117.5V122.407L112.104 120.872L111.948 120.588ZM106.795 122.452C106.329 122.452 105.973 122.827 105.973 123.294C105.973 123.714 106.349 124.096 106.795 124.096C107.242 124.096 107.617 123.714 107.617 123.294C107.617 122.827 107.261 122.452 106.795 122.452ZM102.846 126.712C102.005 125.76 101.539 124.556 101.539 123.294C101.539 123.119 101.558 122.938 101.584 122.789L103.843 123.514L104.931 123.87L102.846 126.712ZM101.137 122.051L101.066 122.361C101.027 122.646 100.982 122.957 100.982 123.294C100.982 124.828 101.584 126.271 102.691 127.359L102.911 127.579L104.691 125.113L105.332 124.245L105.798 123.559L101.137 122.051ZM110.77 126.712L108.731 123.941L108.686 123.87L112.013 122.808C112.032 122.957 112.032 123.119 112.032 123.294C112.032 124.582 111.612 125.76 110.77 126.712ZM112.524 122.381L112.453 122.07L107.818 123.559L110.705 127.579L110.945 127.359C112.013 126.246 112.589 124.802 112.589 123.294C112.589 122.983 112.57 122.672 112.524 122.381ZM104.73 128.11L106.795 125.249L108.86 128.09C107.507 128.686 105.999 128.667 104.73 128.11ZM107.928 125.825L106.795 124.291L103.889 128.311L104.173 128.466C104.996 128.887 105.863 129.087 106.795 129.087C107.682 129.087 108.576 128.861 109.417 128.466L109.702 128.311L107.928 125.825ZM110.77 126.712L108.731 123.941L108.686 123.87L112.013 122.808C112.032 122.957 112.032 123.119 112.032 123.294C112.032 124.582 111.612 125.76 110.77 126.712ZM112.524 122.381L112.453 122.07L107.818 123.559L110.705 127.579L110.945 127.359C112.013 126.246 112.589 124.802 112.589 123.294C112.589 122.983 112.57 122.672 112.524 122.381ZM107.973 121.649V118.167C109.346 118.477 110.55 119.345 111.281 120.562L107.973 121.649ZM111.948 120.588C111.1 118.989 109.527 117.856 107.753 117.564L107.417 117.5V122.407L112.104 120.872L111.948 120.588ZM104.73 128.11L106.795 125.249L108.86 128.09C107.507 128.686 105.999 128.667 104.73 128.11ZM107.928 125.825L106.795 124.291L103.889 128.311L104.173 128.466C104.996 128.887 105.863 129.087 106.795 129.087C107.682 129.087 108.576 128.861 109.417 128.466L109.702 128.311L107.928 125.825ZM106.795 122.452C106.329 122.452 105.973 122.827 105.973 123.294C105.973 123.714 106.349 124.096 106.795 124.096C107.242 124.096 107.617 123.714 107.617 123.294C107.617 122.827 107.261 122.452 106.795 122.452ZM105.643 121.649L102.309 120.562C103.066 119.325 104.29 118.458 105.643 118.167V121.649ZM105.863 117.564C104.109 117.81 102.536 118.943 101.649 120.588L101.493 120.872L104.381 121.805L105.416 122.161L106.193 122.407V117.519L105.863 117.564ZM102.846 126.712C102.005 125.76 101.539 124.556 101.539 123.294C101.539 123.119 101.558 122.938 101.584 122.789L103.843 123.514L104.931 123.87L102.846 126.712ZM101.137 122.051L101.066 122.361C101.027 122.646 100.982 122.957 100.982 123.294C100.982 124.828 101.584 126.271 102.691 127.359L102.911 127.579L104.691 125.113L105.332 124.245L105.798 123.559L101.137 122.051ZM102.846 126.712C102.005 125.76 101.539 124.556 101.539 123.294C101.539 123.119 101.558 122.938 101.584 122.789L103.843 123.514L104.931 123.87L102.846 126.712ZM101.137 122.051L101.066 122.361C101.027 122.646 100.982 122.957 100.982 123.294C100.982 124.828 101.584 126.271 102.691 127.359L102.911 127.579L104.691 125.113L105.332 124.245L105.798 123.559L101.137 122.051ZM105.643 121.649L102.309 120.562C103.066 119.325 104.29 118.458 105.643 118.167V121.649ZM105.863 117.564C104.109 117.81 102.536 118.943 101.649 120.588L101.493 120.872L104.381 121.805L105.416 122.161L106.193 122.407V117.519L105.863 117.564ZM106.795 122.452C106.329 122.452 105.973 122.827 105.973 123.294C105.973 123.714 106.349 124.096 106.795 124.096C107.242 124.096 107.617 123.714 107.617 123.294C107.617 122.827 107.261 122.452 106.795 122.452ZM104.73 128.11L106.795 125.249L108.86 128.09C107.507 128.686 105.999 128.667 104.73 128.11ZM107.928 125.825L106.795 124.291L103.889 128.311L104.173 128.466C104.996 128.887 105.863 129.087 106.795 129.087C107.682 129.087 108.576 128.861 109.417 128.466L109.702 128.311L107.928 125.825ZM107.973 121.649V118.167C109.346 118.477 110.55 119.345 111.281 120.562L107.973 121.649ZM111.948 120.588C111.1 118.989 109.527 117.856 107.753 117.564L107.417 117.5V122.407L112.104 120.872L111.948 120.588ZM110.77 126.712L108.731 123.941L108.686 123.87L112.013 122.808C112.032 122.957 112.032 123.119 112.032 123.294C112.032 124.582 111.612 125.76 110.77 126.712ZM112.524 122.381L112.453 122.07L107.818 123.559L110.705 127.579L110.945 127.359C112.013 126.246 112.589 124.802 112.589 123.294C112.589 122.983 112.57 122.672 112.524 122.381ZM110.77 126.712L108.731 123.941L108.686 123.87L112.013 122.808C112.032 122.957 112.032 123.119 112.032 123.294C112.032 124.582 111.612 125.76 110.77 126.712ZM112.524 122.381L112.453 122.07L107.818 123.559L110.705 127.579L110.945 127.359C112.013 126.246 112.589 124.802 112.589 123.294C112.589 122.983 112.57 122.672 112.524 122.381ZM107.973 121.649V118.167C109.346 118.477 110.55 119.345 111.281 120.562L107.973 121.649ZM111.948 120.588C111.1 118.989 109.527 117.856 107.753 117.564L107.417 117.5V122.407L112.104 120.872L111.948 120.588ZM104.73 128.11L106.795 125.249L108.86 128.09C107.507 128.686 105.999 128.667 104.73 128.11ZM107.928 125.825L106.795 124.291L103.889 128.311L104.173 128.466C104.996 128.887 105.863 129.087 106.795 129.087C107.682 129.087 108.576 128.861 109.417 128.466L109.702 128.311L107.928 125.825ZM106.795 122.452C106.329 122.452 105.973 122.827 105.973 123.294C105.973 123.714 106.349 124.096 106.795 124.096C107.242 124.096 107.617 123.714 107.617 123.294C107.617 122.827 107.261 122.452 106.795 122.452ZM105.643 121.649L102.309 120.562C103.066 119.325 104.29 118.458 105.643 118.167V121.649ZM105.863 117.564C104.109 117.81 102.536 118.943 101.649 120.588L101.493 120.872L104.381 121.805L105.416 122.161L106.193 122.407V117.519L105.863 117.564ZM102.846 126.712C102.005 125.76 101.539 124.556 101.539 123.294C101.539 123.119 101.558 122.938 101.584 122.789L103.843 123.514L104.931 123.87L102.846 126.712ZM101.137 122.051L101.066 122.361C101.027 122.646 100.982 122.957 100.982 123.294C100.982 124.828 101.584 126.271 102.691 127.359L102.911 127.579L104.691 125.113L105.332 124.245L105.798 123.559L101.137 122.051ZM102.846 126.712C102.005 125.76 101.539 124.556 101.539 123.294C101.539 123.119 101.558 122.938 101.584 122.789L103.843 123.514L104.931 123.87L102.846 126.712ZM101.137 122.051L101.066 122.361C101.027 122.646 100.982 122.957 100.982 123.294C100.982 124.828 101.584 126.271 102.691 127.359L102.911 127.579L104.691 125.113L105.332 124.245L105.798 123.559L101.137 122.051ZM105.643 121.649L102.309 120.562C103.066 119.325 104.29 118.458 105.643 118.167V121.649ZM105.863 117.564C104.109 117.81 102.536 118.943 101.649 120.588L101.493 120.872L104.381 121.805L105.416 122.161L106.193 122.407V117.519L105.863 117.564ZM106.795 122.452C106.329 122.452 105.973 122.827 105.973 123.294C105.973 123.714 106.349 124.096 106.795 124.096C107.242 124.096 107.617 123.714 107.617 123.294C107.617 122.827 107.261 122.452 106.795 122.452ZM104.73 128.11L106.795 125.249L108.86 128.09C107.507 128.686 105.999 128.667 104.73 128.11ZM107.928 125.825L106.795 124.291L103.889 128.311L104.173 128.466C104.996 128.887 105.863 129.087 106.795 129.087C107.682 129.087 108.576 128.861 109.417 128.466L109.702 128.311L107.928 125.825ZM107.973 121.649V118.167C109.346 118.477 110.55 119.345 111.281 120.562L107.973 121.649ZM111.948 120.588C111.1 118.989 109.527 117.856 107.753 117.564L107.417 117.5V122.407L112.104 120.872L111.948 120.588ZM110.77 126.712L108.731 123.941L108.686 123.87L112.013 122.808C112.032 122.957 112.032 123.119 112.032 123.294C112.032 124.582 111.612 125.76 110.77 126.712ZM112.524 122.381L112.453 122.07L107.818 123.559L110.705 127.579L110.945 127.359C112.013 126.246 112.589 124.802 112.589 123.294C112.589 122.983 112.57 122.672 112.524 122.381ZM110.77 126.712L108.731 123.941L108.686 123.87L112.013 122.808C112.032 122.957 112.032 123.119 112.032 123.294C112.032 124.582 111.612 125.76 110.77 126.712ZM112.524 122.381L112.453 122.07L107.818 123.559L110.705 127.579L110.945 127.359C112.013 126.246 112.589 124.802 112.589 123.294C112.589 122.983 112.57 122.672 112.524 122.381ZM107.973 121.649V118.167C109.346 118.477 110.55 119.345 111.281 120.562L107.973 121.649ZM111.948 120.588C111.1 118.989 109.527 117.856 107.753 117.564L107.417 117.5V122.407L112.104 120.872L111.948 120.588ZM104.73 128.11L106.795 125.249L108.86 128.09C107.507 128.686 105.999 128.667 104.73 128.11ZM107.928 125.825L106.795 124.291L103.889 128.311L104.173 128.466C104.996 128.887 105.863 129.087 106.795 129.087C107.682 129.087 108.576 128.861 109.417 128.466L109.702 128.311L107.928 125.825ZM106.795 122.452C106.329 122.452 105.973 122.827 105.973 123.294C105.973 123.714 106.349 124.096 106.795 124.096C107.242 124.096 107.617 123.714 107.617 123.294C107.617 122.827 107.261 122.452 106.795 122.452ZM105.643 121.649L102.309 120.562C103.066 119.325 104.29 118.458 105.643 118.167V121.649ZM105.863 117.564C104.109 117.81 102.536 118.943 101.649 120.588L101.493 120.872L104.381 121.805L105.416 122.161L106.193 122.407V117.519L105.863 117.564ZM102.846 126.712C102.005 125.76 101.539 124.556 101.539 123.294C101.539 123.119 101.558 122.938 101.584 122.789L103.843 123.514L104.931 123.87L102.846 126.712ZM101.137 122.051L101.066 122.361C101.027 122.646 100.982 122.957 100.982 123.294C100.982 124.828 101.584 126.271 102.691 127.359L102.911 127.579L104.691 125.113L105.332 124.245L105.798 123.559L101.137 122.051ZM102.846 126.712C102.005 125.76 101.539 124.556 101.539 123.294C101.539 123.119 101.558 122.938 101.584 122.789L103.843 123.514L104.931 123.87L102.846 126.712ZM101.137 122.051L101.066 122.361C101.027 122.646 100.982 122.957 100.982 123.294C100.982 124.828 101.584 126.271 102.691 127.359L102.911 127.579L104.691 125.113L105.332 124.245L105.798 123.559L101.137 122.051ZM105.643 121.649L102.309 120.562C103.066 119.325 104.29 118.458 105.643 118.167V121.649ZM105.863 117.564C104.109 117.81 102.536 118.943 101.649 120.588L101.493 120.872L104.381 121.805L105.416 122.161L106.193 122.407V117.519L105.863 117.564ZM106.795 122.452C106.329 122.452 105.973 122.827 105.973 123.294C105.973 123.714 106.349 124.096 106.795 124.096C107.242 124.096 107.617 123.714 107.617 123.294C107.617 122.827 107.261 122.452 106.795 122.452ZM104.73 128.11L106.795 125.249L108.86 128.09C107.507 128.686 105.999 128.667 104.73 128.11ZM107.928 125.825L106.795 124.291L103.889 128.311L104.173 128.466C104.996 128.887 105.863 129.087 106.795 129.087C107.682 129.087 108.576 128.861 109.417 128.466L109.702 128.311L107.928 125.825ZM107.973 121.649V118.167C109.346 118.477 110.55 119.345 111.281 120.562L107.973 121.649ZM111.948 120.588C111.1 118.989 109.527 117.856 107.753 117.564L107.417 117.5V122.407L112.104 120.872L111.948 120.588ZM110.77 126.712L108.731 123.941L108.686 123.87L112.013 122.808C112.032 122.957 112.032 123.119 112.032 123.294C112.032 124.582 111.612 125.76 110.77 126.712ZM112.524 122.381L112.453 122.07L107.818 123.559L110.705 127.579L110.945 127.359C112.013 126.246 112.589 124.802 112.589 123.294C112.589 122.983 112.57 122.672 112.524 122.381ZM110.77 126.712L108.731 123.941L108.686 123.87L112.013 122.808C112.032 122.957 112.032 123.119 112.032 123.294C112.032 124.582 111.612 125.76 110.77 126.712ZM112.524 122.381L112.453 122.07L107.818 123.559L110.705 127.579L110.945 127.359C112.013 126.246 112.589 124.802 112.589 123.294C112.589 122.983 112.57 122.672 112.524 122.381ZM107.973 121.649V118.167C109.346 118.477 110.55 119.345 111.281 120.562L107.973 121.649ZM111.948 120.588C111.1 118.989 109.527 117.856 107.753 117.564L107.417 117.5V122.407L112.104 120.872L111.948 120.588ZM104.73 128.11L106.795 125.249L108.86 128.09C107.507 128.686 105.999 128.667 104.73 128.11ZM107.928 125.825L106.795 124.291L103.889 128.311L104.173 128.466C104.996 128.887 105.863 129.087 106.795 129.087C107.682 129.087 108.576 128.861 109.417 128.466L109.702 128.311L107.928 125.825ZM106.795 122.452C106.329 122.452 105.973 122.827 105.973 123.294C105.973 123.714 106.349 124.096 106.795 124.096C107.242 124.096 107.617 123.714 107.617 123.294C107.617 122.827 107.261 122.452 106.795 122.452ZM105.643 121.649L102.309 120.562C103.066 119.325 104.29 118.458 105.643 118.167V121.649ZM105.863 117.564C104.109 117.81 102.536 118.943 101.649 120.588L101.493 120.872L104.381 121.805L105.416 122.161L106.193 122.407V117.519L105.863 117.564ZM102.846 126.712C102.005 125.76 101.539 124.556 101.539 123.294C101.539 123.119 101.558 122.938 101.584 122.789L103.843 123.514L104.931 123.87L102.846 126.712ZM101.137 122.051L101.066 122.361C101.027 122.646 100.982 122.957 100.982 123.294C100.982 124.828 101.584 126.271 102.691 127.359L102.911 127.579L104.691 125.113L105.332 124.245L105.798 123.559L101.137 122.051ZM102.846 126.712C102.005 125.76 101.539 124.556 101.539 123.294C101.539 123.119 101.558 122.938 101.584 122.789L103.843 123.514L104.931 123.87L102.846 126.712ZM101.137 122.051L101.066 122.361C101.027 122.646 100.982 122.957 100.982 123.294C100.982 124.828 101.584 126.271 102.691 127.359L102.911 127.579L104.691 125.113L105.332 124.245L105.798 123.559L101.137 122.051ZM105.643 121.649L102.309 120.562C103.066 119.325 104.29 118.458 105.643 118.167V121.649ZM105.863 117.564C104.109 117.81 102.536 118.943 101.649 120.588L101.493 120.872L104.381 121.805L105.416 122.161L106.193 122.407V117.519L105.863 117.564ZM106.795 122.452C106.329 122.452 105.973 122.827 105.973 123.294C105.973 123.714 106.349 124.096 106.795 124.096C107.242 124.096 107.617 123.714 107.617 123.294C107.617 122.827 107.261 122.452 106.795 122.452ZM104.73 128.11L106.795 125.249L108.86 128.09C107.507 128.686 105.999 128.667 104.73 128.11ZM107.928 125.825L106.795 124.291L103.889 128.311L104.173 128.466C104.996 128.887 105.863 129.087 106.795 129.087C107.682 129.087 108.576 128.861 109.417 128.466L109.702 128.311L107.928 125.825ZM107.973 121.649V118.167C109.346 118.477 110.55 119.345 111.281 120.562L107.973 121.649ZM111.948 120.588C111.1 118.989 109.527 117.856 107.753 117.564L107.417 117.5V122.407L112.104 120.872L111.948 120.588ZM110.77 126.712L108.731 123.941L108.686 123.87L112.013 122.808C112.032 122.957 112.032 123.119 112.032 123.294C112.032 124.582 111.612 125.76 110.77 126.712ZM112.524 122.381L112.453 122.07L107.818 123.559L110.705 127.579L110.945 127.359C112.013 126.246 112.589 124.802 112.589 123.294C112.589 122.983 112.57 122.672 112.524 122.381ZM110.77 126.712L108.731 123.941L108.686 123.87L112.013 122.808C112.032 122.957 112.032 123.119 112.032 123.294C112.032 124.582 111.612 125.76 110.77 126.712ZM112.524 122.381L112.453 122.07L107.818 123.559L110.705 127.579L110.945 127.359C112.013 126.246 112.589 124.802 112.589 123.294C112.589 122.983 112.57 122.672 112.524 122.381ZM107.973 121.649V118.167C109.346 118.477 110.55 119.345 111.281 120.562L107.973 121.649ZM111.948 120.588C111.1 118.989 109.527 117.856 107.753 117.564L107.417 117.5V122.407L112.104 120.872L111.948 120.588ZM104.73 128.11L106.795 125.249L108.86 128.09C107.507 128.686 105.999 128.667 104.73 128.11ZM107.928 125.825L106.795 124.291L103.889 128.311L104.173 128.466C104.996 128.887 105.863 129.087 106.795 129.087C107.682 129.087 108.576 128.861 109.417 128.466L109.702 128.311L107.928 125.825ZM106.795 122.452C106.329 122.452 105.973 122.827 105.973 123.294C105.973 123.714 106.349 124.096 106.795 124.096C107.242 124.096 107.617 123.714 107.617 123.294C107.617 122.827 107.261 122.452 106.795 122.452ZM105.643 121.649L102.309 120.562C103.066 119.325 104.29 118.458 105.643 118.167V121.649ZM105.863 117.564C104.109 117.81 102.536 118.943 101.649 120.588L101.493 120.872L104.381 121.805L105.416 122.161L106.193 122.407V117.519L105.863 117.564ZM102.846 126.712C102.005 125.76 101.539 124.556 101.539 123.294C101.539 123.119 101.558 122.938 101.584 122.789L103.843 123.514L104.931 123.87L102.846 126.712ZM101.137 122.051L101.066 122.361C101.027 122.646 100.982 122.957 100.982 123.294C100.982 124.828 101.584 126.271 102.691 127.359L102.911 127.579L104.691 125.113L105.332 124.245L105.798 123.559L101.137 122.051ZM102.846 126.712C102.005 125.76 101.539 124.556 101.539 123.294C101.539 123.119 101.558 122.938 101.584 122.789L103.843 123.514L104.931 123.87L102.846 126.712ZM101.137 122.051L101.066 122.361C101.027 122.646 100.982 122.957 100.982 123.294C100.982 124.828 101.584 126.271 102.691 127.359L102.911 127.579L104.691 125.113L105.332 124.245L105.798 123.559L101.137 122.051ZM105.643 121.649L102.309 120.562C103.066 119.325 104.29 118.458 105.643 118.167V121.649ZM105.863 117.564C104.109 117.81 102.536 118.943 101.649 120.588L101.493 120.872L104.381 121.805L105.416 122.161L106.193 122.407V117.519L105.863 117.564ZM106.795 122.452C106.329 122.452 105.973 122.827 105.973 123.294C105.973 123.714 106.349 124.096 106.795 124.096C107.242 124.096 107.617 123.714 107.617 123.294C107.617 122.827 107.261 122.452 106.795 122.452ZM104.73 128.11L106.795 125.249L108.86 128.09C107.507 128.686 105.999 128.667 104.73 128.11ZM107.928 125.825L106.795 124.291L103.889 128.311L104.173 128.466C104.996 128.887 105.863 129.087 106.795 129.087C107.682 129.087 108.576 128.861 109.417 128.466L109.702 128.311L107.928 125.825ZM107.973 121.649V118.167C109.346 118.477 110.55 119.345 111.281 120.562L107.973 121.649ZM111.948 120.588C111.1 118.989 109.527 117.856 107.753 117.564L107.417 117.5V122.407L112.104 120.872L111.948 120.588ZM110.77 126.712L108.731 123.941L108.686 123.87L112.013 122.808C112.032 122.957 112.032 123.119 112.032 123.294C112.032 124.582 111.612 125.76 110.77 126.712ZM112.524 122.381L112.453 122.07L107.818 123.559L110.705 127.579L110.945 127.359C112.013 126.246 112.589 124.802 112.589 123.294C112.589 122.983 112.57 122.672 112.524 122.381ZM110.77 126.712L108.731 123.941L108.686 123.87L112.013 122.808C112.032 122.957 112.032 123.119 112.032 123.294C112.032 124.582 111.612 125.76 110.77 126.712ZM112.524 122.381L112.453 122.07L107.818 123.559L110.705 127.579L110.945 127.359C112.013 126.246 112.589 124.802 112.589 123.294C112.589 122.983 112.57 122.672 112.524 122.381ZM107.973 121.649V118.167C109.346 118.477 110.55 119.345 111.281 120.562L107.973 121.649ZM111.948 120.588C111.1 118.989 109.527 117.856 107.753 117.564L107.417 117.5V122.407L112.104 120.872L111.948 120.588ZM104.73 128.11L106.795 125.249L108.86 128.09C107.507 128.686 105.999 128.667 104.73 128.11ZM107.928 125.825L106.795 124.291L103.889 128.311L104.173 128.466C104.996 128.887 105.863 129.087 106.795 129.087C107.682 129.087 108.576 128.861 109.417 128.466L109.702 128.311L107.928 125.825ZM106.795 122.452C106.329 122.452 105.973 122.827 105.973 123.294C105.973 123.714 106.349 124.096 106.795 124.096C107.242 124.096 107.617 123.714 107.617 123.294C107.617 122.827 107.261 122.452 106.795 122.452ZM105.643 121.649L102.309 120.562C103.066 119.325 104.29 118.458 105.643 118.167V121.649ZM105.863 117.564C104.109 117.81 102.536 118.943 101.649 120.588L101.493 120.872L104.381 121.805L105.416 122.161L106.193 122.407V117.519L105.863 117.564ZM102.846 126.712C102.005 125.76 101.539 124.556 101.539 123.294C101.539 123.119 101.558 122.938 101.584 122.789L103.843 123.514L104.931 123.87L102.846 126.712ZM101.137 122.051L101.066 122.361C101.027 122.646 100.982 122.957 100.982 123.294C100.982 124.828 101.584 126.271 102.691 127.359L102.911 127.579L104.691 125.113L105.332 124.245L105.798 123.559L101.137 122.051ZM102.846 126.712C102.005 125.76 101.539 124.556 101.539 123.294C101.539 123.119 101.558 122.938 101.584 122.789L103.843 123.514L104.931 123.87L102.846 126.712ZM101.137 122.051L101.066 122.361C101.027 122.646 100.982 122.957 100.982 123.294C100.982 124.828 101.584 126.271 102.691 127.359L102.911 127.579L104.691 125.113L105.332 124.245L105.798 123.559L101.137 122.051ZM105.643 121.649L102.309 120.562C103.066 119.325 104.29 118.458 105.643 118.167V121.649ZM105.863 117.564C104.109 117.81 102.536 118.943 101.649 120.588L101.493 120.872L104.381 121.805L105.416 122.161L106.193 122.407V117.519L105.863 117.564ZM106.795 122.452C106.329 122.452 105.973 122.827 105.973 123.294C105.973 123.714 106.349 124.096 106.795 124.096C107.242 124.096 107.617 123.714 107.617 123.294C107.617 122.827 107.261 122.452 106.795 122.452ZM104.73 128.11L106.795 125.249L108.86 128.09C107.507 128.686 105.999 128.667 104.73 128.11ZM107.928 125.825L106.795 124.291L103.889 128.311L104.173 128.466C104.996 128.887 105.863 129.087 106.795 129.087C107.682 129.087 108.576 128.861 109.417 128.466L109.702 128.311L107.928 125.825ZM107.973 121.649V118.167C109.346 118.477 110.55 119.345 111.281 120.562L107.973 121.649ZM111.948 120.588C111.1 118.989 109.527 117.856 107.753 117.564L107.417 117.5V122.407L112.104 120.872L111.948 120.588ZM110.77 126.712L108.731 123.941L108.686 123.87L112.013 122.808C112.032 122.957 112.032 123.119 112.032 123.294C112.032 124.582 111.612 125.76 110.77 126.712ZM112.524 122.381L112.453 122.07L107.818 123.559L110.705 127.579L110.945 127.359C112.013 126.246 112.589 124.802 112.589 123.294C112.589 122.983 112.57 122.672 112.524 122.381ZM102.846 126.712C102.005 125.76 101.539 124.556 101.539 123.294C101.539 123.119 101.558 122.938 101.584 122.789L103.843 123.514L104.931 123.87L102.846 126.712ZM101.137 122.051L101.066 122.361C101.027 122.646 100.982 122.957 100.982 123.294C100.982 124.828 101.584 126.271 102.691 127.359L102.911 127.579L104.691 125.113L105.332 124.245L105.798 123.559L101.137 122.051ZM105.643 121.649L102.309 120.562C103.066 119.325 104.29 118.458 105.643 118.167V121.649ZM105.863 117.564C104.109 117.81 102.536 118.943 101.649 120.588L101.493 120.872L104.381 121.805L105.416 122.161L106.193 122.407V117.519L105.863 117.564ZM106.795 122.452C106.329 122.452 105.973 122.827 105.973 123.294C105.973 123.714 106.349 124.096 106.795 124.096C107.242 124.096 107.617 123.714 107.617 123.294C107.617 122.827 107.261 122.452 106.795 122.452ZM104.73 128.11L106.795 125.249L108.86 128.09C107.507 128.686 105.999 128.667 104.73 128.11ZM107.928 125.825L106.795 124.291L103.889 128.311L104.173 128.466C104.996 128.887 105.863 129.087 106.795 129.087C107.682 129.087 108.576 128.861 109.417 128.466L109.702 128.311L107.928 125.825ZM107.973 121.649V118.167C109.346 118.477 110.55 119.345 111.281 120.562L107.973 121.649ZM111.948 120.588C111.1 118.989 109.527 117.856 107.753 117.564L107.417 117.5V122.407L112.104 120.872L111.948 120.588ZM110.77 126.712L108.731 123.941L108.686 123.87L112.013 122.808C112.032 122.957 112.032 123.119 112.032 123.294C112.032 124.582 111.612 125.76 110.77 126.712ZM112.524 122.381L112.453 122.07L107.818 123.559L110.705 127.579L110.945 127.359C112.013 126.246 112.589 124.802 112.589 123.294C112.589 122.983 112.57 122.672 112.524 122.381ZM102.846 126.712C102.005 125.76 101.539 124.556 101.539 123.294C101.539 123.119 101.558 122.938 101.584 122.789L103.843 123.514L104.931 123.87L102.846 126.712ZM101.137 122.051L101.066 122.361C101.027 122.646 100.982 122.957 100.982 123.294C100.982 124.828 101.584 126.271 102.691 127.359L102.911 127.579L104.691 125.113L105.332 124.245L105.798 123.559L101.137 122.051ZM105.643 121.649L102.309 120.562C103.066 119.325 104.29 118.458 105.643 118.167V121.649ZM105.863 117.564C104.109 117.81 102.536 118.943 101.649 120.588L101.493 120.872L104.381 121.805L105.416 122.161L106.193 122.407V117.519L105.863 117.564ZM106.795 122.452C106.329 122.452 105.973 122.827 105.973 123.294C105.973 123.714 106.349 124.096 106.795 124.096C107.242 124.096 107.617 123.714 107.617 123.294C107.617 122.827 107.261 122.452 106.795 122.452ZM104.73 128.11L106.795 125.249L108.86 128.09C107.507 128.686 105.999 128.667 104.73 128.11ZM107.928 125.825L106.795 124.291L103.889 128.311L104.173 128.466C104.996 128.887 105.863 129.087 106.795 129.087C107.682 129.087 108.576 128.861 109.417 128.466L109.702 128.311L107.928 125.825ZM107.973 121.649V118.167C109.346 118.477 110.55 119.345 111.281 120.562L107.973 121.649ZM111.948 120.588C111.1 118.989 109.527 117.856 107.753 117.564L107.417 117.5V122.407L112.104 120.872L111.948 120.588ZM110.77 126.712L108.731 123.941L108.686 123.87L112.013 122.808C112.032 122.957 112.032 123.119 112.032 123.294C112.032 124.582 111.612 125.76 110.77 126.712ZM112.524 122.381L112.453 122.07L107.818 123.559L110.705 127.579L110.945 127.359C112.013 126.246 112.589 124.802 112.589 123.294C112.589 122.983 112.57 122.672 112.524 122.381ZM102.846 126.712C102.005 125.76 101.539 124.556 101.539 123.294C101.539 123.119 101.558 122.938 101.584 122.789L103.843 123.514L104.931 123.87L102.846 126.712ZM105.798 123.559L101.137 122.051L101.066 122.361C101.027 122.646 100.982 122.957 100.982 123.294C100.982 124.828 101.584 126.271 102.691 127.359L102.911 127.579L104.691 125.113L105.332 124.245L105.798 123.559ZM105.643 118.167V121.649L102.309 120.562C103.066 119.325 104.29 118.458 105.643 118.167ZM101.649 120.588L101.493 120.872L104.381 121.805L105.416 122.161L106.193 122.407V117.519L105.863 117.564C104.109 117.81 102.536 118.943 101.649 120.588ZM106.795 124.096C107.242 124.096 107.617 123.714 107.617 123.294C107.617 122.827 107.261 122.452 106.795 122.452C106.329 122.452 105.973 122.827 105.973 123.294C105.973 123.714 106.349 124.096 106.795 124.096ZM106.795 125.249L108.86 128.09C107.507 128.686 105.999 128.667 104.73 128.11L106.795 125.249ZM106.795 129.087C107.682 129.087 108.576 128.861 109.417 128.466L109.702 128.311L107.928 125.825L106.795 124.291L103.889 128.311L104.173 128.466C104.996 128.887 105.863 129.087 106.795 129.087ZM107.973 121.649V118.167C109.346 118.477 110.55 119.345 111.281 120.562L107.973 121.649ZM111.948 120.588C111.1 118.989 109.527 117.856 107.753 117.564L107.417 117.5V122.407L112.104 120.872L111.948 120.588ZM108.686 123.87L112.013 122.808C112.032 122.957 112.032 123.119 112.032 123.294C112.032 124.582 111.612 125.76 110.77 126.712L108.731 123.941L108.686 123.87ZM110.945 127.359C112.013 126.246 112.589 124.802 112.589 123.294C112.589 122.983 112.57 122.672 112.524 122.381L112.453 122.07L107.818 123.559L110.705 127.579L110.945 127.359ZM109.967 116.147L109.903 116.742C112.343 117.901 114.052 120.387 114.052 123.294C114.052 127.268 110.789 130.531 106.795 130.531C102.801 130.531 99.5643 127.268 99.5643 123.294C99.5643 119.811 102.005 116.904 105.242 116.211L105.086 115.681C101.603 116.457 99.0076 119.565 99.0076 123.294C99.0076 127.579 102.49 131.081 106.795 131.081C111.1 131.081 114.609 127.579 114.609 123.294C114.609 120.102 112.699 117.37 109.967 116.147ZM110.77 126.712L108.731 123.941L108.686 123.87L112.013 122.808C112.032 122.957 112.032 123.119 112.032 123.294C112.032 124.582 111.612 125.76 110.77 126.712ZM112.524 122.381L112.453 122.07L107.818 123.559L110.705 127.579L110.945 127.359C112.013 126.246 112.589 124.802 112.589 123.294C112.589 122.983 112.57 122.672 112.524 122.381ZM107.973 121.649V118.167C109.346 118.477 110.55 119.345 111.281 120.562L107.973 121.649ZM111.948 120.588C111.1 118.989 109.527 117.856 107.753 117.564L107.417 117.5V122.407L112.104 120.872L111.948 120.588ZM104.73 128.11L106.795 125.249L108.86 128.09C107.507 128.686 105.999 128.667 104.73 128.11ZM107.928 125.825L106.795 124.291L103.889 128.311L104.173 128.466C104.996 128.887 105.863 129.087 106.795 129.087C107.682 129.087 108.576 128.861 109.417 128.466L109.702 128.311L107.928 125.825ZM106.795 122.452C106.329 122.452 105.973 122.827 105.973 123.294C105.973 123.714 106.349 124.096 106.795 124.096C107.242 124.096 107.617 123.714 107.617 123.294C107.617 122.827 107.261 122.452 106.795 122.452ZM105.643 121.649L102.309 120.562C103.066 119.325 104.29 118.458 105.643 118.167V121.649ZM105.863 117.564C104.109 117.81 102.536 118.943 101.649 120.588L101.493 120.872L104.381 121.805L105.416 122.161L106.193 122.407V117.519L105.863 117.564ZM102.846 126.712C102.005 125.76 101.539 124.556 101.539 123.294C101.539 123.119 101.558 122.938 101.584 122.789L103.843 123.514L104.931 123.87L102.846 126.712ZM101.137 122.051L101.066 122.361C101.027 122.646 100.982 122.957 100.982 123.294C100.982 124.828 101.584 126.271 102.691 127.359L102.911 127.579L104.691 125.113L105.332 124.245L105.798 123.559L101.137 122.051ZM110.77 126.712L108.731 123.941L108.686 123.87L112.013 122.808C112.032 122.957 112.032 123.119 112.032 123.294C112.032 124.582 111.612 125.76 110.77 126.712ZM112.524 122.381L112.453 122.07L107.818 123.559L110.705 127.579L110.945 127.359C112.013 126.246 112.589 124.802 112.589 123.294C112.589 122.983 112.57 122.672 112.524 122.381ZM107.973 121.649V118.167C109.346 118.477 110.55 119.345 111.281 120.562L107.973 121.649ZM111.948 120.588C111.1 118.989 109.527 117.856 107.753 117.564L107.417 117.5V122.407L112.104 120.872L111.948 120.588ZM104.73 128.11L106.795 125.249L108.86 128.09C107.507 128.686 105.999 128.667 104.73 128.11ZM107.928 125.825L106.795 124.291L103.889 128.311L104.173 128.466C104.996 128.887 105.863 129.087 106.795 129.087C107.682 129.087 108.576 128.861 109.417 128.466L109.702 128.311L107.928 125.825ZM106.795 122.452C106.329 122.452 105.973 122.827 105.973 123.294C105.973 123.714 106.349 124.096 106.795 124.096C107.242 124.096 107.617 123.714 107.617 123.294C107.617 122.827 107.261 122.452 106.795 122.452ZM105.643 121.649L102.309 120.562C103.066 119.325 104.29 118.458 105.643 118.167V121.649ZM105.863 117.564C104.109 117.81 102.536 118.943 101.649 120.588L101.493 120.872L104.381 121.805L105.416 122.161L106.193 122.407V117.519L105.863 117.564ZM102.846 126.712C102.005 125.76 101.539 124.556 101.539 123.294C101.539 123.119 101.558 122.938 101.584 122.789L103.843 123.514L104.931 123.87L102.846 126.712ZM101.137 122.051L101.066 122.361C101.027 122.646 100.982 122.957 100.982 123.294C100.982 124.828 101.584 126.271 102.691 127.359L102.911 127.579L104.691 125.113L105.332 124.245L105.798 123.559L101.137 122.051ZM110.77 126.712L108.731 123.941L108.686 123.87L112.013 122.808C112.032 122.957 112.032 123.119 112.032 123.294C112.032 124.582 111.612 125.76 110.77 126.712ZM112.524 122.381L112.453 122.07L107.818 123.559L110.705 127.579L110.945 127.359C112.013 126.246 112.589 124.802 112.589 123.294C112.589 122.983 112.57 122.672 112.524 122.381ZM107.973 121.649V118.167C109.346 118.477 110.55 119.345 111.281 120.562L107.973 121.649ZM111.948 120.588C111.1 118.989 109.527 117.856 107.753 117.564L107.417 117.5V122.407L112.104 120.872L111.948 120.588ZM104.73 128.11L106.795 125.249L108.86 128.09C107.507 128.686 105.999 128.667 104.73 128.11ZM107.928 125.825L106.795 124.291L103.889 128.311L104.173 128.466C104.996 128.887 105.863 129.087 106.795 129.087C107.682 129.087 108.576 128.861 109.417 128.466L109.702 128.311L107.928 125.825ZM106.795 122.452C106.329 122.452 105.973 122.827 105.973 123.294C105.973 123.714 106.349 124.096 106.795 124.096C107.242 124.096 107.617 123.714 107.617 123.294C107.617 122.827 107.261 122.452 106.795 122.452ZM105.643 121.649L102.309 120.562C103.066 119.325 104.29 118.458 105.643 118.167V121.649ZM105.863 117.564C104.109 117.81 102.536 118.943 101.649 120.588L101.493 120.872L104.381 121.805L105.416 122.161L106.193 122.407V117.519L105.863 117.564ZM102.846 126.712C102.005 125.76 101.539 124.556 101.539 123.294C101.539 123.119 101.558 122.938 101.584 122.789L103.843 123.514L104.931 123.87L102.846 126.712ZM101.137 122.051L101.066 122.361C101.027 122.646 100.982 122.957 100.982 123.294C100.982 124.828 101.584 126.271 102.691 127.359L102.911 127.579L104.691 125.113L105.332 124.245L105.798 123.559L101.137 122.051Z" fill="white"/>
<path d="M101.566 122.903C101.546 123.065 101.54 123.24 101.54 123.414C101.54 124.683 101.999 125.894 102.841 126.845L104.919 123.997L103.844 123.654L101.566 122.903ZM102.906 127.706L102.673 127.48C101.585 126.392 100.983 124.942 100.983 123.414C100.983 123.084 101.015 122.767 101.061 122.489L101.119 122.171L105.793 123.686L105.34 124.372L104.673 125.24L102.906 127.706Z" fill="white"/>
<path d="M102.292 120.705L105.62 121.806V118.31C104.273 118.601 103.063 119.475 102.292 120.705ZM106.177 122.544L105.393 122.311L104.351 121.955L101.477 121.029L101.632 120.731C102.526 119.093 104.105 117.954 105.859 117.702L106.177 117.656V122.544Z" fill="white"/>
<path d="M104.711 128.236C105.979 128.792 107.481 128.818 108.841 128.229L106.776 125.374L104.711 128.236ZM106.776 129.22C105.856 129.22 104.976 129.006 104.16 128.592L103.875 128.436L106.769 124.429L107.909 125.963L109.682 128.443L109.391 128.592C108.562 129 107.656 129.22 106.776 129.22Z" fill="white"/>
<path d="M107.96 118.323V121.806L111.268 120.712C110.53 119.501 109.326 118.634 107.96 118.323ZM107.403 122.557V117.656L107.727 117.708C109.507 117.993 111.074 119.132 111.922 120.744L112.077 121.035L107.403 122.557Z" fill="white"/>
<path d="M108.7 123.971L108.746 124.042L110.778 126.819C111.614 125.855 112.06 124.67 112.06 123.388C112.06 123.22 112.047 123.058 112.028 122.903L108.7 123.971ZM110.72 127.687L107.827 123.66L112.475 122.171L112.533 122.489C112.585 122.78 112.611 123.078 112.611 123.388C112.611 124.916 112.021 126.353 110.947 127.447L110.72 127.687Z" fill="white"/>
<path d="M101.566 122.903C101.546 123.065 101.54 123.24 101.54 123.414C101.54 124.683 101.999 125.894 102.841 126.845L104.919 123.997L103.844 123.654L101.566 122.903ZM102.906 127.706L102.673 127.48C101.585 126.392 100.983 124.942 100.983 123.414C100.983 123.084 101.015 122.767 101.061 122.489L101.119 122.171L105.793 123.686L105.34 124.372L104.673 125.24L102.906 127.706Z" fill="white"/>
<path d="M102.292 120.705L105.62 121.806V118.31C104.273 118.601 103.063 119.475 102.292 120.705ZM106.177 122.544L105.393 122.311L104.351 121.955L101.477 121.029L101.632 120.731C102.526 119.093 104.105 117.954 105.859 117.702L106.177 117.656V122.544Z" fill="white"/>
<path d="M104.711 128.236C105.979 128.792 107.481 128.818 108.841 128.229L106.776 125.374L104.711 128.236ZM106.776 129.22C105.856 129.22 104.976 129.006 104.16 128.592L103.875 128.436L106.769 124.429L107.909 125.963L109.682 128.443L109.391 128.592C108.562 129 107.656 129.22 106.776 129.22Z" fill="white"/>
<path d="M107.96 118.323V121.806L111.268 120.712C110.53 119.501 109.326 118.634 107.96 118.323ZM107.403 122.557V117.656L107.727 117.708C109.507 117.993 111.074 119.132 111.922 120.744L112.077 121.035L107.403 122.557Z" fill="white"/>
<path d="M108.7 123.971L108.746 124.042L110.778 126.819C111.614 125.855 112.06 124.67 112.06 123.388C112.06 123.22 112.047 123.058 112.028 122.903L108.7 123.971ZM110.72 127.687L107.827 123.66L112.475 122.171L112.533 122.489C112.585 122.78 112.611 123.078 112.611 123.388C112.611 124.916 112.021 126.353 110.947 127.447L110.72 127.687Z" fill="white"/>
<path d="M167.005 120.769L170.332 121.869V118.374C168.986 118.665 167.775 119.539 167.005 120.769ZM170.889 122.607L170.106 122.374L169.064 122.018L166.189 121.093L166.345 120.795C167.238 119.157 168.818 118.024 170.572 117.765L170.889 117.72V122.607ZM172.669 118.38V121.863L175.984 120.769C175.246 119.558 174.042 118.691 172.669 118.38ZM172.119 122.614V117.713L172.443 117.765C174.223 118.05 175.79 119.189 176.638 120.801L176.787 121.093L172.119 122.614ZM171.491 124.297C171.045 124.297 170.663 123.928 170.663 123.494C170.663 123.035 171.032 122.659 171.491 122.659C171.951 122.659 172.32 123.035 172.32 123.494C172.32 123.928 171.944 124.297 171.491 124.297ZM166.267 122.983C166.248 123.145 166.241 123.319 166.241 123.494C166.241 124.763 166.701 125.974 167.542 126.925L169.62 124.077L168.546 123.734L166.267 122.983ZM167.607 127.786L167.374 127.56C166.286 126.472 165.684 125.022 165.684 123.494C165.684 123.164 165.71 122.847 165.769 122.562L165.82 122.251L170.494 123.766L170.041 124.446L169.374 125.32L167.607 127.786ZM173.381 124.077L173.433 124.142L175.459 126.925C176.301 125.961 176.741 124.776 176.741 123.494C176.741 123.326 176.735 123.164 176.715 123.009L173.381 124.077ZM175.401 127.793L172.514 123.766L177.162 122.271L177.214 122.588C177.272 122.886 177.298 123.184 177.298 123.494C177.298 125.016 176.709 126.459 175.634 127.553L175.401 127.793ZM169.426 128.311C170.695 128.867 172.197 128.893 173.556 128.304L171.491 125.449L169.426 128.311ZM171.491 129.295C170.565 129.295 169.692 129.081 168.876 128.667L168.591 128.511L171.485 124.504L172.618 126.038L174.398 128.518L174.1 128.667C173.278 129.074 172.372 129.295 171.491 129.295ZM171.491 116.231C167.503 116.231 164.254 119.487 164.254 123.494C164.254 127.482 167.503 130.725 171.491 130.725C175.498 130.725 178.748 127.482 178.748 123.494C178.748 119.487 175.498 116.231 171.491 116.231ZM171.491 131.282C167.193 131.282 163.703 127.786 163.703 123.494C163.703 119.183 167.193 115.681 171.491 115.681C175.796 115.681 179.305 119.183 179.305 123.494C179.305 127.786 175.796 131.282 171.491 131.282Z" fill="white"/>
<path d="M166.255 122.903C166.242 123.065 166.229 123.24 166.229 123.414C166.229 124.683 166.689 125.894 167.53 126.845L169.615 123.997L168.534 123.654L166.255 122.903ZM167.595 127.706L167.362 127.48C166.275 126.392 165.679 124.942 165.679 123.414C165.679 123.084 165.705 122.767 165.757 122.489L165.815 122.171L170.482 123.686L170.029 124.372L169.362 125.24L167.595 127.706Z" fill="white"/>
<path d="M166.988 120.705L170.316 121.806V118.31C168.969 118.601 167.759 119.475 166.988 120.705ZM170.873 122.544L170.089 122.311L169.047 121.955L166.173 121.029L166.328 120.731C167.221 119.093 168.801 117.961 170.555 117.702L170.873 117.656V122.544Z" fill="white"/>
<path d="M169.407 128.236C170.676 128.792 172.177 128.818 173.543 128.229L171.478 125.374L169.407 128.236ZM171.472 129.22C170.553 129.22 169.672 129.006 168.863 128.592L168.572 128.436L171.472 124.429L172.605 125.963L174.378 128.443L174.087 128.592C173.259 129 172.359 129.22 171.472 129.22Z" fill="white"/>
<path d="M172.649 118.323V121.806L175.957 120.712C175.22 119.501 174.022 118.634 172.649 118.323ZM172.099 122.557V117.656L172.416 117.708C174.197 117.993 175.763 119.132 176.611 120.744L176.767 121.035L172.099 122.557Z" fill="white"/>
<path d="M173.361 123.971L173.406 124.042L175.439 126.819C176.281 125.855 176.721 124.67 176.721 123.388C176.721 123.22 176.714 123.058 176.695 122.903L173.361 123.971ZM175.381 127.687L172.487 123.66L177.135 122.171L177.193 122.489C177.252 122.78 177.271 123.078 177.271 123.388C177.271 124.916 176.682 126.353 175.614 127.447L175.381 127.687Z" fill="white"/>
<path d="M166.255 122.903C166.242 123.065 166.229 123.24 166.229 123.414C166.229 124.683 166.689 125.894 167.53 126.845L169.615 123.997L168.534 123.654L166.255 122.903ZM167.595 127.706L167.362 127.48C166.275 126.392 165.679 124.942 165.679 123.414C165.679 123.084 165.705 122.767 165.757 122.489L165.815 122.171L170.482 123.686L170.029 124.372L169.362 125.24L167.595 127.706Z" fill="white"/>
<path d="M166.988 120.705L170.316 121.806V118.31C168.969 118.601 167.759 119.475 166.988 120.705ZM170.873 122.544L170.089 122.311L169.047 121.955L166.173 121.029L166.328 120.731C167.221 119.093 168.801 117.961 170.555 117.702L170.873 117.656V122.544Z" fill="white"/>
<path d="M169.407 128.236C170.676 128.792 172.177 128.818 173.543 128.229L171.478 125.374L169.407 128.236ZM171.472 129.22C170.553 129.22 169.672 129.006 168.863 128.592L168.572 128.436L171.472 124.429L172.605 125.963L174.378 128.443L174.087 128.592C173.259 129 172.359 129.22 171.472 129.22Z" fill="white"/>
<path d="M172.649 118.323V121.806L175.957 120.712C175.22 119.501 174.022 118.634 172.649 118.323ZM172.099 122.557V117.656L172.416 117.708C174.197 117.993 175.763 119.132 176.611 120.744L176.767 121.035L172.099 122.557Z" fill="white"/>
<path d="M173.361 123.971L173.406 124.042L175.439 126.819C176.281 125.855 176.721 124.67 176.721 123.388C176.721 123.22 176.714 123.058 176.695 122.903L173.361 123.971ZM175.381 127.687L172.487 123.66L177.135 122.171L177.193 122.489C177.252 122.78 177.271 123.078 177.271 123.388C177.271 124.916 176.682 126.353 175.614 127.447L175.381 127.687Z" fill="white"/>
<path d="M106.112 147.401L106.506 147.861C116.534 159.752 127.727 165.961 139.768 166.323L140.888 166.336C163.688 166.336 181.665 145.931 184.94 141.976L181.121 138.972C178.001 142.701 161.247 161.494 141.147 161.494C140.726 161.494 140.305 161.487 139.878 161.468C129.714 161.157 120.069 155.907 111.219 145.873L110.76 145.349L114.042 141.413L101.14 136.04L99.0166 150.502L106.112 147.401ZM140.888 167.955L139.742 167.942C127.358 167.573 115.9 161.326 105.658 149.369L96.9968 153.162L99.8387 133.742L116.689 140.772L112.896 145.316C121.312 154.671 130.407 159.558 139.936 159.85C140.331 159.869 140.726 159.875 141.114 159.875C162.263 159.875 180.176 137.581 180.363 137.354L180.862 136.713L187.212 141.711L186.72 142.352C185.898 143.394 166.381 167.955 140.888 167.955Z" fill="#FC5C2E"/>
<path d="M168.128 91.1427L181.03 96.5158L183.147 82.0538L176.058 85.1547L175.663 84.695C165.629 72.8031 154.443 66.5949 142.396 66.2324L141.282 66.2195C118.482 66.2195 100.505 86.6242 97.2295 90.5795L101.042 93.5832C104.227 89.7833 121.68 70.2913 142.286 71.0876C152.449 71.3983 162.095 76.6484 170.95 86.6954L171.41 87.2132L168.128 91.1427ZM182.331 98.8139L165.487 91.7965L169.274 87.2391C160.858 77.8848 151.763 72.9973 142.234 72.706C141.839 72.693 141.444 72.6866 141.049 72.6866C119.906 72.6866 101.988 94.9751 101.806 95.2016L101.308 95.849L94.9508 90.8449L95.4428 90.204C96.2649 89.1618 115.796 64.6011 141.282 64.6011L142.428 64.614C154.805 64.983 166.27 71.2365 176.511 83.1867L185.173 79.4061L182.331 98.8139Z" fill="#FC5C2E"/>
<defs>
<filter id="filter0_d" x="0" y="0" width="287" height="361" filterUnits="userSpaceOnUse" color-interpolation-filters="sRGB">
<feFlood flood-opacity="0" result="BackgroundImageFix"/>
<feColorMatrix in="SourceAlpha" type="matrix" values="0 0 0 0 0 0 0 0 0 0 0 0 0 0 0 0 0 0 127 0"/>
<feOffset dx="4" dy="4"/>
<feGaussianBlur stdDeviation="2"/>
<feColorMatrix type="matrix" values="0 0 0 0 0 0 0 0 0 0 0 0 0 0 0 0 0 0 0.25 0"/>
<feBlend mode="normal" in2="BackgroundImageFix" result="effect1_dropShadow"/>
<feBlend mode="normal" in="SourceGraphic" in2="effect1_dropShadow" result="shape"/>
</filter>
</defs>
</svg>
