<svg width="287" height="361" viewBox="0 0 287 361" fill="none" xmlns="http://www.w3.org/2000/svg">
<g filter="url(#filter0_d)">
<rect width="279" height="353" rx="8" fill="#121212"/>
<rect width="279" height="353" rx="8" fill="white" fill-opacity="0.08"/>
</g>
<path d="M251.286 319.714H242.714V328.286C242.714 329.229 241.943 330 241 330C240.057 330 239.286 329.229 239.286 328.286V319.714H230.714C229.771 319.714 229 318.943 229 318C229 317.057 229.771 316.286 230.714 316.286H239.286V307.714C239.286 306.771 240.057 306 241 306C241.943 306 242.714 306.771 242.714 307.714V316.286H251.286C252.229 316.286 253 317.057 253 318C253 318.943 252.229 319.714 251.286 319.714Z" fill="#FAFAFA"/>
<path d="M63.464 246.24C62.168 246.24 60.912 246.056 59.696 245.688C58.496 245.32 57.544 244.832 56.84 244.224L57.92 241.8C58.608 242.344 59.448 242.792 60.44 243.144C61.448 243.48 62.456 243.648 63.464 243.648C64.712 243.648 65.64 243.448 66.248 243.048C66.872 242.648 67.184 242.12 67.184 241.464C67.184 240.984 67.008 240.592 66.656 240.288C66.32 239.968 65.888 239.72 65.36 239.544C64.832 239.368 64.112 239.168 63.2 238.944C61.92 238.64 60.88 238.336 60.08 238.032C59.296 237.728 58.616 237.256 58.04 236.616C57.48 235.96 57.2 235.08 57.2 233.976C57.2 233.048 57.448 232.208 57.944 231.456C58.456 230.688 59.216 230.08 60.224 229.632C61.248 229.184 62.496 228.96 63.968 228.96C64.992 228.96 66 229.088 66.992 229.344C67.984 229.6 68.84 229.968 69.56 230.448L68.576 232.872C67.84 232.44 67.072 232.112 66.272 231.888C65.472 231.664 64.696 231.552 63.944 231.552C62.712 231.552 61.792 231.76 61.184 232.176C60.592 232.592 60.296 233.144 60.296 233.832C60.296 234.312 60.464 234.704 60.8 235.008C61.152 235.312 61.592 235.552 62.12 235.728C62.648 235.904 63.368 236.104 64.28 236.328C65.528 236.616 66.552 236.92 67.352 237.24C68.152 237.544 68.832 238.016 69.392 238.656C69.968 239.296 70.256 240.16 70.256 241.248C70.256 242.176 70 243.016 69.488 243.768C68.992 244.52 68.232 245.12 67.208 245.568C66.184 246.016 64.936 246.24 63.464 246.24ZM77.2734 231.84H71.7054V229.2H85.9614V231.84H80.3934V246H77.2734V231.84ZM101.653 243.384V246H89.0529V229.2H101.317V231.816H92.1729V236.184H100.285V238.752H92.1729V243.384H101.653ZM116.777 242.112H108.377L106.721 246H103.505L111.065 229.2H114.137L121.721 246H118.457L116.777 242.112ZM115.745 239.664L112.577 232.32L109.433 239.664H115.745ZM140.04 246L140.016 234.864L134.496 244.08H133.104L127.584 235.008V246H124.608V229.2H127.176L133.848 240.336L140.4 229.2H142.968L142.992 246H140.04ZM155.662 229.2H158.782V243.36H167.566V246H155.662V229.2ZM178.323 246.24C176.611 246.24 175.067 245.872 173.691 245.136C172.315 244.384 171.235 243.352 170.451 242.04C169.667 240.712 169.275 239.232 169.275 237.6C169.275 235.968 169.667 234.496 170.451 233.184C171.235 231.856 172.315 230.824 173.691 230.088C175.067 229.336 176.611 228.96 178.323 228.96C180.035 228.96 181.579 229.336 182.955 230.088C184.331 230.824 185.411 231.848 186.195 233.16C186.979 234.472 187.371 235.952 187.371 237.6C187.371 239.248 186.979 240.728 186.195 242.04C185.411 243.352 184.331 244.384 182.955 245.136C181.579 245.872 180.035 246.24 178.323 246.24ZM178.323 243.504C179.443 243.504 180.451 243.256 181.347 242.76C182.243 242.248 182.947 241.544 183.459 240.648C183.971 239.736 184.227 238.72 184.227 237.6C184.227 236.48 183.971 235.472 183.459 234.576C182.947 233.664 182.243 232.96 181.347 232.464C180.451 231.952 179.443 231.696 178.323 231.696C177.203 231.696 176.195 231.952 175.299 232.464C174.403 232.96 173.699 233.664 173.187 234.576C172.675 235.472 172.419 236.48 172.419 237.6C172.419 238.72 172.675 239.736 173.187 240.648C173.699 241.544 174.403 242.248 175.299 242.76C176.195 243.256 177.203 243.504 178.323 243.504ZM202.9 237.408H205.852V244.104C204.988 244.792 203.98 245.32 202.828 245.688C201.676 246.056 200.492 246.24 199.276 246.24C197.564 246.24 196.02 245.872 194.644 245.136C193.268 244.384 192.188 243.352 191.404 242.04C190.62 240.728 190.228 239.248 190.228 237.6C190.228 235.952 190.62 234.472 191.404 233.16C192.188 231.848 193.268 230.824 194.644 230.088C196.036 229.336 197.596 228.96 199.324 228.96C200.732 228.96 202.012 229.192 203.164 229.656C204.316 230.12 205.284 230.8 206.068 231.696L204.1 233.616C202.82 232.336 201.276 231.696 199.468 231.696C198.284 231.696 197.228 231.944 196.3 232.44C195.388 232.936 194.668 233.632 194.14 234.528C193.628 235.424 193.372 236.448 193.372 237.6C193.372 238.72 193.628 239.728 194.14 240.624C194.668 241.52 195.388 242.224 196.3 242.736C197.228 243.248 198.276 243.504 199.444 243.504C200.756 243.504 201.908 243.216 202.9 242.64V237.408ZM218.565 246.24C216.853 246.24 215.309 245.872 213.933 245.136C212.557 244.384 211.477 243.352 210.693 242.04C209.909 240.712 209.517 239.232 209.517 237.6C209.517 235.968 209.909 234.496 210.693 233.184C211.477 231.856 212.557 230.824 213.933 230.088C215.309 229.336 216.853 228.96 218.565 228.96C220.277 228.96 221.821 229.336 223.197 230.088C224.573 230.824 225.653 231.848 226.437 233.16C227.221 234.472 227.613 235.952 227.613 237.6C227.613 239.248 227.221 240.728 226.437 242.04C225.653 243.352 224.573 244.384 223.197 245.136C221.821 245.872 220.277 246.24 218.565 246.24ZM218.565 243.504C219.685 243.504 220.693 243.256 221.589 242.76C222.485 242.248 223.189 241.544 223.701 240.648C224.213 239.736 224.469 238.72 224.469 237.6C224.469 236.48 224.213 235.472 223.701 234.576C223.189 233.664 222.485 232.96 221.589 232.464C220.693 231.952 219.685 231.696 218.565 231.696C217.445 231.696 216.437 231.952 215.541 232.464C214.645 232.96 213.941 233.664 213.429 234.576C212.917 235.472 212.661 236.48 212.661 237.6C212.661 238.72 212.917 239.736 213.429 240.648C213.941 241.544 214.645 242.248 215.541 242.76C216.437 243.256 217.445 243.504 218.565 243.504Z" fill="white" fill-opacity="0.87"/>
<path d="M142.569 59.0683C105.901 59.0683 76.0683 88.9007 76.0683 125.575C76.0683 162.237 105.901 192.076 142.569 192.076C179.237 192.076 209.07 162.237 209.07 125.575C209.07 88.9007 179.237 59.0683 142.569 59.0683ZM142.569 195.144C104.206 195.144 73 163.938 73 125.575C73 87.2059 104.206 56 142.569 56C180.932 56 212.138 87.2059 212.138 125.575C212.138 163.938 180.932 195.144 142.569 195.144Z" fill="white"/>
<path d="M142.569 65.4697C109.429 65.4697 82.4695 92.4291 82.4695 125.569C82.4695 158.709 109.429 185.675 142.569 185.675C175.709 185.675 202.669 158.709 202.669 125.569C202.669 92.4291 175.709 65.4697 142.569 65.4697ZM142.569 187.036C108.679 187.036 81.1023 159.459 81.1023 125.569C81.1023 91.6794 108.679 64.1025 142.569 64.1025C176.459 64.1025 204.036 91.6794 204.036 125.569C204.036 159.459 176.459 187.036 142.569 187.036Z" fill="white"/>
<path d="M110.313 86.8647L117.614 110.452L135.515 96.1782L111.585 85.5211L110.313 86.8647Z" fill="#FC5C2E"/>
<path d="M145.182 137.578C145.787 137.578 146.386 137.76 146.902 138.132L161.702 148.881L156.05 131.504C155.666 130.307 156.076 128.99 157.084 128.228L171.908 117.461H153.631C152.352 117.461 151.218 116.635 150.827 115.413L145.907 100.279C145.623 99.3973 144.741 99.391 144.451 100.273L139.531 115.413C139.134 116.635 138.006 117.461 136.721 117.461H118.45L133.23 128.196C134.276 128.978 134.698 130.301 134.301 131.504L128.656 148.881L143.443 138.138C143.966 137.76 144.577 137.578 145.182 137.578ZM125.292 156.473C124.687 156.473 124.082 156.284 123.559 155.906C122.52 155.156 122.085 153.833 122.476 152.61L129.419 131.265L111.267 118.078C110.228 117.322 109.793 115.993 110.19 114.777C110.587 113.554 111.714 112.735 113 112.735H135.435L139.959 98.8177C140.703 96.5117 142.75 95.0186 145.176 95.0186H145.182C147.602 95.0186 149.649 96.5054 150.405 98.8177L154.923 112.735H177.358C178.644 112.735 179.771 113.554 180.168 114.777C180.565 115.999 180.124 117.328 179.085 118.078L160.939 131.265L167.876 152.598C168.279 153.814 167.845 155.143 166.805 155.899C165.772 156.662 164.361 156.655 163.327 155.906L145.182 142.719L127.031 155.906C126.514 156.284 125.903 156.473 125.292 156.473Z" fill="white"/>
<defs>
<filter id="filter0_d" x="0" y="0" width="287" height="361" filterUnits="userSpaceOnUse" color-interpolation-filters="sRGB">
<feFlood flood-opacity="0" result="BackgroundImageFix"/>
<feColorMatrix in="SourceAlpha" type="matrix" values="0 0 0 0 0 0 0 0 0 0 0 0 0 0 0 0 0 0 127 0"/>
<feOffset dx="4" dy="4"/>
<feGaussianBlur stdDeviation="2"/>
<feColorMatrix type="matrix" values="0 0 0 0 0 0 0 0 0 0 0 0 0 0 0 0 0 0 0.25 0"/>
<feBlend mode="normal" in2="BackgroundImageFix" result="effect1_dropShadow"/>
<feBlend mode="normal" in="SourceGraphic" in2="effect1_dropShadow" result="shape"/>
</filter>
</defs>
</svg>
