<svg width="414" height="644" viewBox="0 0 414 644" fill="none" xmlns="http://www.w3.org/2000/svg">
<rect width="414" height="644" rx="8" fill="white" fill-opacity="0.08"/>
<path d="M64.428 311.692V313H58.128V304.6H64.26V305.908H59.688V308.092H63.744V309.376H59.688V311.692H64.428ZM70.4091 306.52C71.2171 306.52 71.8651 306.756 72.3531 307.228C72.8411 307.7 73.0851 308.4 73.0851 309.328V313H71.5851V309.52C71.5851 308.96 71.4531 308.54 71.1891 308.26C70.9251 307.972 70.5491 307.828 70.0611 307.828C69.5091 307.828 69.0731 307.996 68.7531 308.332C68.4331 308.66 68.2731 309.136 68.2731 309.76V313H66.7731V306.592H68.2011V307.42C68.4491 307.124 68.7611 306.9 69.1371 306.748C69.5131 306.596 69.9371 306.52 70.4091 306.52ZM82.1565 306.592V312.028C82.1565 314.284 81.0045 315.412 78.7005 315.412C78.0845 315.412 77.5005 315.332 76.9485 315.172C76.3965 315.02 75.9405 314.796 75.5805 314.5L76.2525 313.372C76.5325 313.604 76.8845 313.788 77.3085 313.924C77.7405 314.068 78.1765 314.14 78.6165 314.14C79.3205 314.14 79.8365 313.98 80.1645 313.66C80.4925 313.34 80.6565 312.852 80.6565 312.196V311.86C80.4005 312.14 80.0885 312.352 79.7205 312.496C79.3525 312.64 78.9485 312.712 78.5085 312.712C77.9005 312.712 77.3485 312.584 76.8525 312.328C76.3645 312.064 75.9765 311.696 75.6885 311.224C75.4085 310.752 75.2685 310.212 75.2685 309.604C75.2685 308.996 75.4085 308.46 75.6885 307.996C75.9765 307.524 76.3645 307.16 76.8525 306.904C77.3485 306.648 77.9005 306.52 78.5085 306.52C78.9725 306.52 79.3925 306.596 79.7685 306.748C80.1525 306.9 80.4725 307.132 80.7285 307.444V306.592H82.1565ZM78.7365 311.44C79.3045 311.44 79.7685 311.272 80.1285 310.936C80.4965 310.592 80.6805 310.148 80.6805 309.604C80.6805 309.068 80.4965 308.632 80.1285 308.296C79.7685 307.96 79.3045 307.792 78.7365 307.792C78.1605 307.792 77.6885 307.96 77.3205 308.296C76.9605 308.632 76.7805 309.068 76.7805 309.604C76.7805 310.148 76.9605 310.592 77.3205 310.936C77.6885 311.272 78.1605 311.44 78.7365 311.44ZM84.8785 306.592H86.3785V313H84.8785V306.592ZM85.6345 305.536C85.3625 305.536 85.1345 305.452 84.9505 305.284C84.7665 305.108 84.6745 304.892 84.6745 304.636C84.6745 304.38 84.7665 304.168 84.9505 304C85.1345 303.824 85.3625 303.736 85.6345 303.736C85.9065 303.736 86.1345 303.82 86.3185 303.988C86.5025 304.148 86.5945 304.352 86.5945 304.6C86.5945 304.864 86.5025 305.088 86.3185 305.272C86.1425 305.448 85.9145 305.536 85.6345 305.536ZM92.7333 306.52C93.5413 306.52 94.1893 306.756 94.6773 307.228C95.1653 307.7 95.4093 308.4 95.4093 309.328V313H93.9093V309.52C93.9093 308.96 93.7773 308.54 93.5133 308.26C93.2493 307.972 92.8733 307.828 92.3853 307.828C91.8333 307.828 91.3973 307.996 91.0773 308.332C90.7573 308.66 90.5973 309.136 90.5973 309.76V313H89.0973V306.592H90.5253V307.42C90.7733 307.124 91.0853 306.9 91.4613 306.748C91.8373 306.596 92.2613 306.52 92.7333 306.52ZM104.145 309.832C104.145 309.936 104.137 310.084 104.121 310.276H99.0927C99.1807 310.748 99.4087 311.124 99.7767 311.404C100.153 311.676 100.617 311.812 101.169 311.812C101.873 311.812 102.453 311.58 102.909 311.116L103.713 312.04C103.425 312.384 103.061 312.644 102.621 312.82C102.181 312.996 101.685 313.084 101.133 313.084C100.429 313.084 99.8087 312.944 99.2727 312.664C98.7367 312.384 98.3207 311.996 98.0247 311.5C97.7367 310.996 97.5927 310.428 97.5927 309.796C97.5927 309.172 97.7327 308.612 98.0127 308.116C98.3007 307.612 98.6967 307.22 99.2007 306.94C99.7047 306.66 100.273 306.52 100.905 306.52C101.529 306.52 102.085 306.66 102.573 306.94C103.069 307.212 103.453 307.6 103.725 308.104C104.005 308.6 104.145 309.176 104.145 309.832ZM100.905 307.72C100.425 307.72 100.017 307.864 99.6807 308.152C99.3527 308.432 99.1527 308.808 99.0807 309.28H102.717C102.653 308.816 102.457 308.44 102.129 308.152C101.801 307.864 101.393 307.72 100.905 307.72ZM114.47 313.12C113.614 313.12 112.842 312.936 112.154 312.568C111.466 312.192 110.926 311.676 110.534 311.02C110.142 310.356 109.946 309.616 109.946 308.8C109.946 307.984 110.142 307.248 110.534 306.592C110.926 305.928 111.466 305.412 112.154 305.044C112.842 304.668 113.614 304.48 114.47 304.48C115.326 304.48 116.098 304.668 116.786 305.044C117.474 305.412 118.014 305.924 118.406 306.58C118.798 307.236 118.994 307.976 118.994 308.8C118.994 309.624 118.798 310.364 118.406 311.02C118.014 311.676 117.474 312.192 116.786 312.568C116.098 312.936 115.326 313.12 114.47 313.12ZM114.47 311.752C115.03 311.752 115.534 311.628 115.982 311.38C116.43 311.124 116.782 310.772 117.038 310.324C117.294 309.868 117.422 309.36 117.422 308.8C117.422 308.24 117.294 307.736 117.038 307.288C116.782 306.832 116.43 306.48 115.982 306.232C115.534 305.976 115.03 305.848 114.47 305.848C113.91 305.848 113.406 305.976 112.958 306.232C112.51 306.48 112.158 306.832 111.902 307.288C111.646 307.736 111.518 308.24 111.518 308.8C111.518 309.36 111.646 309.868 111.902 310.324C112.158 310.772 112.51 311.124 112.958 311.38C113.406 311.628 113.91 311.752 114.47 311.752ZM121.254 306.592H122.754V313H121.254V306.592ZM122.01 305.536C121.738 305.536 121.51 305.452 121.326 305.284C121.142 305.108 121.05 304.892 121.05 304.636C121.05 304.38 121.142 304.168 121.326 304C121.51 303.824 121.738 303.736 122.01 303.736C122.282 303.736 122.51 303.82 122.694 303.988C122.878 304.148 122.97 304.352 122.97 304.6C122.97 304.864 122.878 305.088 122.694 305.272C122.518 305.448 122.29 305.536 122.01 305.536ZM125.472 304.096H126.972V313H125.472V304.096ZM137.789 313.12C136.941 313.12 136.173 312.936 135.485 312.568C134.805 312.192 134.269 311.676 133.877 311.02C133.493 310.364 133.301 309.624 133.301 308.8C133.301 307.976 133.497 307.236 133.889 306.58C134.281 305.924 134.817 305.412 135.497 305.044C136.185 304.668 136.953 304.48 137.801 304.48C138.489 304.48 139.117 304.6 139.685 304.84C140.253 305.08 140.733 305.428 141.125 305.884L140.117 306.832C139.509 306.176 138.761 305.848 137.873 305.848C137.297 305.848 136.781 305.976 136.325 306.232C135.869 306.48 135.513 306.828 135.257 307.276C135.001 307.724 134.873 308.232 134.873 308.8C134.873 309.368 135.001 309.876 135.257 310.324C135.513 310.772 135.869 311.124 136.325 311.38C136.781 311.628 137.297 311.752 137.873 311.752C138.761 311.752 139.509 311.42 140.117 310.756L141.125 311.716C140.733 312.172 140.249 312.52 139.673 312.76C139.105 313 138.477 313.12 137.789 313.12ZM146.862 306.52C147.67 306.52 148.318 306.756 148.806 307.228C149.294 307.7 149.538 308.4 149.538 309.328V313H148.038V309.52C148.038 308.96 147.906 308.54 147.642 308.26C147.378 307.972 147.002 307.828 146.514 307.828C145.962 307.828 145.526 307.996 145.206 308.332C144.886 308.66 144.726 309.136 144.726 309.76V313H143.226V304.096H144.726V307.336C144.974 307.072 145.278 306.872 145.638 306.736C146.006 306.592 146.414 306.52 146.862 306.52ZM154.639 306.52C155.583 306.52 156.303 306.748 156.799 307.204C157.303 307.652 157.555 308.332 157.555 309.244V313H156.139V312.22C155.955 312.5 155.691 312.716 155.347 312.868C155.011 313.012 154.603 313.084 154.123 313.084C153.643 313.084 153.223 313.004 152.863 312.844C152.503 312.676 152.223 312.448 152.023 312.16C151.831 311.864 151.735 311.532 151.735 311.164C151.735 310.588 151.947 310.128 152.371 309.784C152.803 309.432 153.479 309.256 154.399 309.256H156.055V309.16C156.055 308.712 155.919 308.368 155.647 308.128C155.383 307.888 154.987 307.768 154.459 307.768C154.099 307.768 153.743 307.824 153.391 307.936C153.047 308.048 152.755 308.204 152.515 308.404L151.927 307.312C152.263 307.056 152.667 306.86 153.139 306.724C153.611 306.588 154.111 306.52 154.639 306.52ZM154.435 311.992C154.811 311.992 155.143 311.908 155.431 311.74C155.727 311.564 155.935 311.316 156.055 310.996V310.252H154.507C153.643 310.252 153.211 310.536 153.211 311.104C153.211 311.376 153.319 311.592 153.535 311.752C153.751 311.912 154.051 311.992 154.435 311.992ZM163.866 306.52C164.674 306.52 165.322 306.756 165.81 307.228C166.298 307.7 166.542 308.4 166.542 309.328V313H165.042V309.52C165.042 308.96 164.91 308.54 164.646 308.26C164.382 307.972 164.006 307.828 163.518 307.828C162.966 307.828 162.53 307.996 162.21 308.332C161.89 308.66 161.73 309.136 161.73 309.76V313H160.23V306.592H161.658V307.42C161.906 307.124 162.218 306.9 162.594 306.748C162.97 306.596 163.394 306.52 163.866 306.52ZM175.614 306.592V312.028C175.614 314.284 174.462 315.412 172.158 315.412C171.542 315.412 170.958 315.332 170.406 315.172C169.854 315.02 169.398 314.796 169.038 314.5L169.71 313.372C169.99 313.604 170.342 313.788 170.766 313.924C171.198 314.068 171.634 314.14 172.074 314.14C172.778 314.14 173.294 313.98 173.622 313.66C173.95 313.34 174.114 312.852 174.114 312.196V311.86C173.858 312.14 173.546 312.352 173.178 312.496C172.81 312.64 172.406 312.712 171.966 312.712C171.358 312.712 170.806 312.584 170.31 312.328C169.822 312.064 169.434 311.696 169.146 311.224C168.866 310.752 168.726 310.212 168.726 309.604C168.726 308.996 168.866 308.46 169.146 307.996C169.434 307.524 169.822 307.16 170.31 306.904C170.806 306.648 171.358 306.52 171.966 306.52C172.43 306.52 172.85 306.596 173.226 306.748C173.61 306.9 173.93 307.132 174.186 307.444V306.592H175.614ZM172.194 311.44C172.762 311.44 173.226 311.272 173.586 310.936C173.954 310.592 174.138 310.148 174.138 309.604C174.138 309.068 173.954 308.632 173.586 308.296C173.226 307.96 172.762 307.792 172.194 307.792C171.618 307.792 171.146 307.96 170.778 308.296C170.418 308.632 170.238 309.068 170.238 309.604C170.238 310.148 170.418 310.592 170.778 310.936C171.146 311.272 171.618 311.44 172.194 311.44ZM184.36 309.832C184.36 309.936 184.352 310.084 184.336 310.276H179.308C179.396 310.748 179.624 311.124 179.992 311.404C180.368 311.676 180.832 311.812 181.384 311.812C182.088 311.812 182.668 311.58 183.124 311.116L183.928 312.04C183.64 312.384 183.276 312.644 182.836 312.82C182.396 312.996 181.9 313.084 181.348 313.084C180.644 313.084 180.024 312.944 179.488 312.664C178.952 312.384 178.536 311.996 178.24 311.5C177.952 310.996 177.808 310.428 177.808 309.796C177.808 309.172 177.948 308.612 178.228 308.116C178.516 307.612 178.912 307.22 179.416 306.94C179.92 306.66 180.488 306.52 181.12 306.52C181.744 306.52 182.3 306.66 182.788 306.94C183.284 307.212 183.668 307.6 183.94 308.104C184.22 308.6 184.36 309.176 184.36 309.832ZM181.12 307.72C180.64 307.72 180.232 307.864 179.896 308.152C179.568 308.432 179.368 308.808 179.296 309.28H182.932C182.868 308.816 182.672 308.44 182.344 308.152C182.016 307.864 181.608 307.72 181.12 307.72ZM62.052 335.12C61.196 335.12 60.424 334.936 59.736 334.568C59.048 334.192 58.508 333.676 58.116 333.02C57.724 332.356 57.528 331.616 57.528 330.8C57.528 329.984 57.724 329.248 58.116 328.592C58.508 327.928 59.048 327.412 59.736 327.044C60.424 326.668 61.196 326.48 62.052 326.48C62.908 326.48 63.68 326.668 64.368 327.044C65.056 327.412 65.596 327.924 65.988 328.58C66.38 329.236 66.576 329.976 66.576 330.8C66.576 331.624 66.38 332.364 65.988 333.02C65.596 333.676 65.056 334.192 64.368 334.568C63.68 334.936 62.908 335.12 62.052 335.12ZM62.052 333.752C62.612 333.752 63.116 333.628 63.564 333.38C64.012 333.124 64.364 332.772 64.62 332.324C64.876 331.868 65.004 331.36 65.004 330.8C65.004 330.24 64.876 329.736 64.62 329.288C64.364 328.832 64.012 328.48 63.564 328.232C63.116 327.976 62.612 327.848 62.052 327.848C61.492 327.848 60.988 327.976 60.54 328.232C60.092 328.48 59.74 328.832 59.484 329.288C59.228 329.736 59.1 330.24 59.1 330.8C59.1 331.36 59.228 331.868 59.484 332.324C59.74 332.772 60.092 333.124 60.54 333.38C60.988 333.628 61.492 333.752 62.052 333.752ZM68.8356 328.592H70.3356V335H68.8356V328.592ZM69.5916 327.536C69.3196 327.536 69.0916 327.452 68.9076 327.284C68.7236 327.108 68.6316 326.892 68.6316 326.636C68.6316 326.38 68.7236 326.168 68.9076 326C69.0916 325.824 69.3196 325.736 69.5916 325.736C69.8636 325.736 70.0916 325.82 70.2756 325.988C70.4596 326.148 70.5516 326.352 70.5516 326.6C70.5516 326.864 70.4596 327.088 70.2756 327.272C70.0996 327.448 69.8716 327.536 69.5916 327.536ZM73.0543 326.096H74.5543V335H73.0543V326.096ZM83.0435 327.908V330.464H87.0995V331.784H83.0435V335H81.4835V326.6H87.6155V327.908H83.0435ZM89.6129 328.592H91.1129V335H89.6129V328.592ZM90.3689 327.536C90.0969 327.536 89.8689 327.452 89.6849 327.284C89.5009 327.108 89.4089 326.892 89.4089 326.636C89.4089 326.38 89.5009 326.168 89.6849 326C89.8689 325.824 90.0969 325.736 90.3689 325.736C90.6409 325.736 90.8689 325.82 91.0529 325.988C91.2369 326.148 91.3289 326.352 91.3289 326.6C91.3289 326.864 91.2369 327.088 91.0529 327.272C90.8769 327.448 90.6489 327.536 90.3689 327.536ZM93.8317 326.096H95.3317V335H93.8317V326.096ZM102.219 334.652C102.043 334.796 101.827 334.904 101.571 334.976C101.323 335.048 101.059 335.084 100.779 335.084C100.075 335.084 99.5308 334.9 99.1468 334.532C98.7628 334.164 98.5708 333.628 98.5708 332.924V329.84H97.5148V328.64H98.5708V327.176H100.071V328.64H101.787V329.84H100.071V332.888C100.071 333.2 100.147 333.44 100.299 333.608C100.451 333.768 100.671 333.848 100.959 333.848C101.295 333.848 101.575 333.76 101.799 333.584L102.219 334.652ZM110.016 331.832C110.016 331.936 110.008 332.084 109.992 332.276H104.964C105.052 332.748 105.28 333.124 105.648 333.404C106.024 333.676 106.488 333.812 107.04 333.812C107.744 333.812 108.324 333.58 108.78 333.116L109.584 334.04C109.296 334.384 108.932 334.644 108.492 334.82C108.052 334.996 107.556 335.084 107.004 335.084C106.3 335.084 105.68 334.944 105.144 334.664C104.608 334.384 104.192 333.996 103.896 333.5C103.608 332.996 103.464 332.428 103.464 331.796C103.464 331.172 103.604 330.612 103.884 330.116C104.172 329.612 104.568 329.22 105.072 328.94C105.576 328.66 106.144 328.52 106.776 328.52C107.4 328.52 107.956 328.66 108.444 328.94C108.94 329.212 109.324 329.6 109.596 330.104C109.876 330.6 110.016 331.176 110.016 331.832ZM106.776 329.72C106.296 329.72 105.888 329.864 105.552 330.152C105.224 330.432 105.024 330.808 104.952 331.28H108.588C108.524 330.816 108.328 330.44 108 330.152C107.672 329.864 107.264 329.72 106.776 329.72ZM113.635 329.528C114.067 328.856 114.827 328.52 115.915 328.52V329.948C115.787 329.924 115.671 329.912 115.567 329.912C114.983 329.912 114.527 330.084 114.199 330.428C113.871 330.764 113.707 331.252 113.707 331.892V335H112.207V328.592H113.635V329.528ZM126.094 335.12C125.246 335.12 124.478 334.936 123.79 334.568C123.11 334.192 122.574 333.676 122.182 333.02C121.798 332.364 121.606 331.624 121.606 330.8C121.606 329.976 121.802 329.236 122.194 328.58C122.586 327.924 123.122 327.412 123.802 327.044C124.49 326.668 125.258 326.48 126.106 326.48C126.794 326.48 127.422 326.6 127.99 326.84C128.558 327.08 129.038 327.428 129.43 327.884L128.422 328.832C127.814 328.176 127.066 327.848 126.178 327.848C125.602 327.848 125.086 327.976 124.63 328.232C124.174 328.48 123.818 328.828 123.562 329.276C123.306 329.724 123.178 330.232 123.178 330.8C123.178 331.368 123.306 331.876 123.562 332.324C123.818 332.772 124.174 333.124 124.63 333.38C125.086 333.628 125.602 333.752 126.178 333.752C127.066 333.752 127.814 333.42 128.422 332.756L129.43 333.716C129.038 334.172 128.554 334.52 127.978 334.76C127.41 335 126.782 335.12 126.094 335.12ZM135.167 328.52C135.975 328.52 136.623 328.756 137.111 329.228C137.599 329.7 137.843 330.4 137.843 331.328V335H136.343V331.52C136.343 330.96 136.211 330.54 135.947 330.26C135.683 329.972 135.307 329.828 134.819 329.828C134.267 329.828 133.831 329.996 133.511 330.332C133.191 330.66 133.031 331.136 133.031 331.76V335H131.531V326.096H133.031V329.336C133.279 329.072 133.583 328.872 133.943 328.736C134.311 328.592 134.719 328.52 135.167 328.52ZM142.944 328.52C143.888 328.52 144.608 328.748 145.104 329.204C145.608 329.652 145.86 330.332 145.86 331.244V335H144.444V334.22C144.26 334.5 143.996 334.716 143.652 334.868C143.316 335.012 142.908 335.084 142.428 335.084C141.948 335.084 141.528 335.004 141.168 334.844C140.808 334.676 140.528 334.448 140.328 334.16C140.136 333.864 140.04 333.532 140.04 333.164C140.04 332.588 140.252 332.128 140.676 331.784C141.108 331.432 141.784 331.256 142.704 331.256H144.36V331.16C144.36 330.712 144.224 330.368 143.952 330.128C143.688 329.888 143.292 329.768 142.764 329.768C142.404 329.768 142.048 329.824 141.696 329.936C141.352 330.048 141.06 330.204 140.82 330.404L140.232 329.312C140.568 329.056 140.972 328.86 141.444 328.724C141.916 328.588 142.416 328.52 142.944 328.52ZM142.74 333.992C143.116 333.992 143.448 333.908 143.736 333.74C144.032 333.564 144.24 333.316 144.36 332.996V332.252H142.812C141.948 332.252 141.516 332.536 141.516 333.104C141.516 333.376 141.624 333.592 141.84 333.752C142.056 333.912 142.356 333.992 142.74 333.992ZM152.171 328.52C152.979 328.52 153.627 328.756 154.115 329.228C154.603 329.7 154.847 330.4 154.847 331.328V335H153.347V331.52C153.347 330.96 153.215 330.54 152.951 330.26C152.687 329.972 152.311 329.828 151.823 329.828C151.271 329.828 150.835 329.996 150.515 330.332C150.195 330.66 150.035 331.136 150.035 331.76V335H148.535V328.592H149.963V329.42C150.211 329.124 150.523 328.9 150.899 328.748C151.275 328.596 151.699 328.52 152.171 328.52ZM163.918 328.592V334.028C163.918 336.284 162.766 337.412 160.462 337.412C159.846 337.412 159.262 337.332 158.71 337.172C158.158 337.02 157.702 336.796 157.342 336.5L158.014 335.372C158.294 335.604 158.646 335.788 159.07 335.924C159.502 336.068 159.938 336.14 160.378 336.14C161.082 336.14 161.598 335.98 161.926 335.66C162.254 335.34 162.418 334.852 162.418 334.196V333.86C162.162 334.14 161.85 334.352 161.482 334.496C161.114 334.64 160.71 334.712 160.27 334.712C159.662 334.712 159.11 334.584 158.614 334.328C158.126 334.064 157.738 333.696 157.45 333.224C157.17 332.752 157.03 332.212 157.03 331.604C157.03 330.996 157.17 330.46 157.45 329.996C157.738 329.524 158.126 329.16 158.614 328.904C159.11 328.648 159.662 328.52 160.27 328.52C160.734 328.52 161.154 328.596 161.53 328.748C161.914 328.9 162.234 329.132 162.49 329.444V328.592H163.918ZM160.498 333.44C161.066 333.44 161.53 333.272 161.89 332.936C162.258 332.592 162.442 332.148 162.442 331.604C162.442 331.068 162.258 330.632 161.89 330.296C161.53 329.96 161.066 329.792 160.498 329.792C159.922 329.792 159.45 329.96 159.082 330.296C158.722 330.632 158.542 331.068 158.542 331.604C158.542 332.148 158.722 332.592 159.082 332.936C159.45 333.272 159.922 333.44 160.498 333.44ZM172.664 331.832C172.664 331.936 172.656 332.084 172.64 332.276H167.612C167.7 332.748 167.928 333.124 168.296 333.404C168.672 333.676 169.136 333.812 169.688 333.812C170.392 333.812 170.972 333.58 171.428 333.116L172.232 334.04C171.944 334.384 171.58 334.644 171.14 334.82C170.7 334.996 170.204 335.084 169.652 335.084C168.948 335.084 168.328 334.944 167.792 334.664C167.256 334.384 166.84 333.996 166.544 333.5C166.256 332.996 166.112 332.428 166.112 331.796C166.112 331.172 166.252 330.612 166.532 330.116C166.82 329.612 167.216 329.22 167.72 328.94C168.224 328.66 168.792 328.52 169.424 328.52C170.048 328.52 170.604 328.66 171.092 328.94C171.588 329.212 171.972 329.6 172.244 330.104C172.524 330.6 172.664 331.176 172.664 331.832ZM169.424 329.72C168.944 329.72 168.536 329.864 168.2 330.152C167.872 330.432 167.672 330.808 167.6 331.28H171.236C171.172 330.816 170.976 330.44 170.648 330.152C170.32 329.864 169.912 329.72 169.424 329.72ZM59.688 348.908V351.464H63.744V352.784H59.688V356H58.128V347.6H64.26V348.908H59.688ZM72.4028 349.592V356H70.9748V355.184C70.7348 355.472 70.4348 355.696 70.0748 355.856C69.7148 356.008 69.3268 356.084 68.9108 356.084C68.0548 356.084 67.3788 355.848 66.8828 355.376C66.3948 354.896 66.1508 354.188 66.1508 353.252V349.592H67.6508V353.048C67.6508 353.624 67.7788 354.056 68.0348 354.344C68.2988 354.624 68.6708 354.764 69.1508 354.764C69.6868 354.764 70.1108 354.6 70.4228 354.272C70.7428 353.936 70.9028 353.456 70.9028 352.832V349.592H72.4028ZM81.1408 352.832C81.1408 352.936 81.1328 353.084 81.1168 353.276H76.0888C76.1768 353.748 76.4048 354.124 76.7728 354.404C77.1488 354.676 77.6128 354.812 78.1648 354.812C78.8688 354.812 79.4488 354.58 79.9048 354.116L80.7088 355.04C80.4208 355.384 80.0568 355.644 79.6168 355.82C79.1768 355.996 78.6808 356.084 78.1288 356.084C77.4248 356.084 76.8048 355.944 76.2688 355.664C75.7328 355.384 75.3168 354.996 75.0208 354.5C74.7328 353.996 74.5888 353.428 74.5888 352.796C74.5888 352.172 74.7288 351.612 75.0088 351.116C75.2968 350.612 75.6928 350.22 76.1968 349.94C76.7008 349.66 77.2688 349.52 77.9008 349.52C78.5248 349.52 79.0808 349.66 79.5688 349.94C80.0648 350.212 80.4488 350.6 80.7208 351.104C81.0008 351.6 81.1408 352.176 81.1408 352.832ZM77.9008 350.72C77.4208 350.72 77.0128 350.864 76.6768 351.152C76.3488 351.432 76.1488 351.808 76.0768 352.28H79.7128C79.6488 351.816 79.4528 351.44 79.1248 351.152C78.7968 350.864 78.3888 350.72 77.9008 350.72ZM83.3317 347.096H84.8317V356H83.3317V347.096ZM93.3208 348.908V351.464H97.3768V352.784H93.3208V356H91.7608V347.6H97.8928V348.908H93.3208ZM99.8903 349.592H101.39V356H99.8903V349.592ZM100.646 348.536C100.374 348.536 100.146 348.452 99.9623 348.284C99.7783 348.108 99.6863 347.892 99.6863 347.636C99.6863 347.38 99.7783 347.168 99.9623 347C100.146 346.824 100.374 346.736 100.646 346.736C100.918 346.736 101.146 346.82 101.33 346.988C101.514 347.148 101.606 347.352 101.606 347.6C101.606 347.864 101.514 348.088 101.33 348.272C101.154 348.448 100.926 348.536 100.646 348.536ZM104.109 347.096H105.609V356H104.109V347.096ZM112.496 355.652C112.32 355.796 112.104 355.904 111.848 355.976C111.6 356.048 111.336 356.084 111.056 356.084C110.352 356.084 109.808 355.9 109.424 355.532C109.04 355.164 108.848 354.628 108.848 353.924V350.84H107.792V349.64H108.848V348.176H110.348V349.64H112.064V350.84H110.348V353.888C110.348 354.2 110.424 354.44 110.576 354.608C110.728 354.768 110.948 354.848 111.236 354.848C111.572 354.848 111.852 354.76 112.076 354.584L112.496 355.652ZM120.293 352.832C120.293 352.936 120.285 353.084 120.269 353.276H115.241C115.329 353.748 115.557 354.124 115.925 354.404C116.301 354.676 116.765 354.812 117.317 354.812C118.021 354.812 118.601 354.58 119.057 354.116L119.861 355.04C119.573 355.384 119.209 355.644 118.769 355.82C118.329 355.996 117.833 356.084 117.281 356.084C116.577 356.084 115.957 355.944 115.421 355.664C114.885 355.384 114.469 354.996 114.173 354.5C113.885 353.996 113.741 353.428 113.741 352.796C113.741 352.172 113.881 351.612 114.161 351.116C114.449 350.612 114.845 350.22 115.349 349.94C115.853 349.66 116.421 349.52 117.053 349.52C117.677 349.52 118.233 349.66 118.721 349.94C119.217 350.212 119.601 350.6 119.873 351.104C120.153 351.6 120.293 352.176 120.293 352.832ZM117.053 350.72C116.573 350.72 116.165 350.864 115.829 351.152C115.501 351.432 115.301 351.808 115.229 352.28H118.865C118.801 351.816 118.605 351.44 118.277 351.152C117.949 350.864 117.541 350.72 117.053 350.72ZM123.912 350.528C124.344 349.856 125.104 349.52 126.192 349.52V350.948C126.064 350.924 125.948 350.912 125.844 350.912C125.26 350.912 124.804 351.084 124.476 351.428C124.148 351.764 123.984 352.252 123.984 352.892V356H122.484V349.592H123.912V350.528ZM132.483 347.6H134.043V356H132.483V347.6ZM140.558 349.52C141.366 349.52 142.014 349.756 142.502 350.228C142.99 350.7 143.234 351.4 143.234 352.328V356H141.734V352.52C141.734 351.96 141.602 351.54 141.338 351.26C141.074 350.972 140.698 350.828 140.21 350.828C139.658 350.828 139.222 350.996 138.902 351.332C138.582 351.66 138.422 352.136 138.422 352.76V356H136.922V349.592H138.35V350.42C138.598 350.124 138.91 349.9 139.286 349.748C139.662 349.596 140.086 349.52 140.558 349.52ZM147.866 356.084C147.346 356.084 146.838 356.016 146.342 355.88C145.846 355.744 145.45 355.572 145.154 355.364L145.73 354.224C146.018 354.416 146.362 354.572 146.762 354.692C147.17 354.804 147.57 354.86 147.962 354.86C148.858 354.86 149.306 354.624 149.306 354.152C149.306 353.928 149.19 353.772 148.958 353.684C148.734 353.596 148.37 353.512 147.866 353.432C147.338 353.352 146.906 353.26 146.57 353.156C146.242 353.052 145.954 352.872 145.706 352.616C145.466 352.352 145.346 351.988 145.346 351.524C145.346 350.916 145.598 350.432 146.102 350.072C146.614 349.704 147.302 349.52 148.166 349.52C148.606 349.52 149.046 349.572 149.486 349.676C149.926 349.772 150.286 349.904 150.566 350.072L149.99 351.212C149.446 350.892 148.834 350.732 148.154 350.732C147.714 350.732 147.378 350.8 147.146 350.936C146.922 351.064 146.81 351.236 146.81 351.452C146.81 351.692 146.93 351.864 147.17 351.968C147.418 352.064 147.798 352.156 148.31 352.244C148.822 352.324 149.242 352.416 149.57 352.52C149.898 352.624 150.178 352.8 150.41 353.048C150.65 353.296 150.77 353.648 150.77 354.104C150.77 354.704 150.51 355.184 149.99 355.544C149.47 355.904 148.762 356.084 147.866 356.084ZM156.364 349.52C156.988 349.52 157.544 349.656 158.032 349.928C158.528 350.2 158.916 350.584 159.196 351.08C159.476 351.576 159.616 352.148 159.616 352.796C159.616 353.444 159.476 354.02 159.196 354.524C158.916 355.02 158.528 355.404 158.032 355.676C157.544 355.948 156.988 356.084 156.364 356.084C155.5 356.084 154.816 355.796 154.312 355.22V358.328H152.812V349.592H154.24V350.432C154.488 350.128 154.792 349.9 155.152 349.748C155.52 349.596 155.924 349.52 156.364 349.52ZM156.196 354.8C156.748 354.8 157.2 354.616 157.552 354.248C157.912 353.88 158.092 353.396 158.092 352.796C158.092 352.196 157.912 351.712 157.552 351.344C157.2 350.976 156.748 350.792 156.196 350.792C155.836 350.792 155.512 350.876 155.224 351.044C154.936 351.204 154.708 351.436 154.54 351.74C154.372 352.044 154.288 352.396 154.288 352.796C154.288 353.196 154.372 353.548 154.54 353.852C154.708 354.156 154.936 354.392 155.224 354.56C155.512 354.72 155.836 354.8 156.196 354.8ZM167.813 352.832C167.813 352.936 167.805 353.084 167.789 353.276H162.761C162.849 353.748 163.077 354.124 163.445 354.404C163.821 354.676 164.285 354.812 164.837 354.812C165.541 354.812 166.121 354.58 166.577 354.116L167.381 355.04C167.093 355.384 166.729 355.644 166.289 355.82C165.849 355.996 165.353 356.084 164.801 356.084C164.097 356.084 163.477 355.944 162.941 355.664C162.405 355.384 161.989 354.996 161.693 354.5C161.405 353.996 161.261 353.428 161.261 352.796C161.261 352.172 161.401 351.612 161.681 351.116C161.969 350.612 162.365 350.22 162.869 349.94C163.373 349.66 163.941 349.52 164.573 349.52C165.197 349.52 165.753 349.66 166.241 349.94C166.737 350.212 167.121 350.6 167.393 351.104C167.673 351.6 167.813 352.176 167.813 352.832ZM164.573 350.72C164.093 350.72 163.685 350.864 163.349 351.152C163.021 351.432 162.821 351.808 162.749 352.28H166.385C166.321 351.816 166.125 351.44 165.797 351.152C165.469 350.864 165.061 350.72 164.573 350.72ZM172.944 356.084C172.28 356.084 171.684 355.944 171.156 355.664C170.628 355.384 170.216 354.996 169.92 354.5C169.624 353.996 169.476 353.428 169.476 352.796C169.476 352.164 169.624 351.6 169.92 351.104C170.216 350.608 170.624 350.22 171.144 349.94C171.672 349.66 172.272 349.52 172.944 349.52C173.576 349.52 174.128 349.648 174.6 349.904C175.08 350.16 175.44 350.528 175.68 351.008L174.528 351.68C174.344 351.384 174.112 351.164 173.832 351.02C173.56 350.868 173.26 350.792 172.932 350.792C172.372 350.792 171.908 350.976 171.54 351.344C171.172 351.704 170.988 352.188 170.988 352.796C170.988 353.404 171.168 353.892 171.528 354.26C171.896 354.62 172.364 354.8 172.932 354.8C173.26 354.8 173.56 354.728 173.832 354.584C174.112 354.432 174.344 354.208 174.528 353.912L175.68 354.584C175.432 355.064 175.068 355.436 174.588 355.7C174.116 355.956 173.568 356.084 172.944 356.084ZM181.66 355.652C181.484 355.796 181.268 355.904 181.012 355.976C180.764 356.048 180.5 356.084 180.22 356.084C179.516 356.084 178.972 355.9 178.588 355.532C178.204 355.164 178.012 354.628 178.012 353.924V350.84H176.956V349.64H178.012V348.176H179.512V349.64H181.228V350.84H179.512V353.888C179.512 354.2 179.588 354.44 179.74 354.608C179.892 354.768 180.112 354.848 180.4 354.848C180.736 354.848 181.016 354.76 181.24 354.584L181.66 355.652ZM183.644 349.592H185.144V356H183.644V349.592ZM184.4 348.536C184.128 348.536 183.9 348.452 183.716 348.284C183.532 348.108 183.44 347.892 183.44 347.636C183.44 347.38 183.532 347.168 183.716 347C183.9 346.824 184.128 346.736 184.4 346.736C184.672 346.736 184.9 346.82 185.084 346.988C185.268 347.148 185.36 347.352 185.36 347.6C185.36 347.864 185.268 348.088 185.084 348.272C184.908 348.448 184.68 348.536 184.4 348.536ZM190.743 356.084C190.095 356.084 189.511 355.944 188.991 355.664C188.471 355.384 188.063 354.996 187.767 354.5C187.479 353.996 187.335 353.428 187.335 352.796C187.335 352.164 187.479 351.6 187.767 351.104C188.063 350.608 188.471 350.22 188.991 349.94C189.511 349.66 190.095 349.52 190.743 349.52C191.399 349.52 191.987 349.66 192.507 349.94C193.027 350.22 193.431 350.608 193.719 351.104C194.015 351.6 194.163 352.164 194.163 352.796C194.163 353.428 194.015 353.996 193.719 354.5C193.431 354.996 193.027 355.384 192.507 355.664C191.987 355.944 191.399 356.084 190.743 356.084ZM190.743 354.8C191.295 354.8 191.751 354.616 192.111 354.248C192.471 353.88 192.651 353.396 192.651 352.796C192.651 352.196 192.471 351.712 192.111 351.344C191.751 350.976 191.295 350.792 190.743 350.792C190.191 350.792 189.735 350.976 189.375 351.344C189.023 351.712 188.847 352.196 188.847 352.796C188.847 353.396 189.023 353.88 189.375 354.248C189.735 354.616 190.191 354.8 190.743 354.8ZM199.983 349.52C200.791 349.52 201.439 349.756 201.927 350.228C202.415 350.7 202.659 351.4 202.659 352.328V356H201.159V352.52C201.159 351.96 201.027 351.54 200.763 351.26C200.499 350.972 200.123 350.828 199.635 350.828C199.083 350.828 198.647 350.996 198.327 351.332C198.007 351.66 197.847 352.136 197.847 352.76V356H196.347V349.592H197.775V350.42C198.023 350.124 198.335 349.9 198.711 349.748C199.087 349.596 199.511 349.52 199.983 349.52ZM64.08 373.632C64.544 373.784 64.912 374.04 65.184 374.4C65.456 374.752 65.592 375.192 65.592 375.72C65.592 376.448 65.312 377.012 64.752 377.412C64.192 377.804 63.376 378 62.304 378H58.128V369.6H62.064C63.056 369.6 63.82 369.796 64.356 370.188C64.892 370.572 65.16 371.104 65.16 371.784C65.16 372.2 65.064 372.568 64.872 372.888C64.68 373.208 64.416 373.456 64.08 373.632ZM59.688 370.824V373.14H61.896C62.44 373.14 62.856 373.044 63.144 372.852C63.44 372.652 63.588 372.364 63.588 371.988C63.588 371.604 63.44 371.316 63.144 371.124C62.856 370.924 62.44 370.824 61.896 370.824H59.688ZM62.208 376.776C63.416 376.776 64.02 376.372 64.02 375.564C64.02 374.756 63.416 374.352 62.208 374.352H59.688V376.776H62.208ZM70.3109 371.52C71.2549 371.52 71.9749 371.748 72.4709 372.204C72.9749 372.652 73.2269 373.332 73.2269 374.244V378H71.8109V377.22C71.6269 377.5 71.3629 377.716 71.0189 377.868C70.6829 378.012 70.2749 378.084 69.7949 378.084C69.3149 378.084 68.8949 378.004 68.5349 377.844C68.1749 377.676 67.8949 377.448 67.6949 377.16C67.5029 376.864 67.4069 376.532 67.4069 376.164C67.4069 375.588 67.6189 375.128 68.0429 374.784C68.4749 374.432 69.1509 374.256 70.0709 374.256H71.7269V374.16C71.7269 373.712 71.5909 373.368 71.3189 373.128C71.0549 372.888 70.6589 372.768 70.1309 372.768C69.7709 372.768 69.4149 372.824 69.0629 372.936C68.7189 373.048 68.4269 373.204 68.1869 373.404L67.5989 372.312C67.9349 372.056 68.3389 371.86 68.8109 371.724C69.2829 371.588 69.7829 371.52 70.3109 371.52ZM70.1069 376.992C70.4829 376.992 70.8149 376.908 71.1029 376.74C71.3989 376.564 71.6069 376.316 71.7269 375.996V375.252H70.1789C69.3149 375.252 68.8829 375.536 68.8829 376.104C68.8829 376.376 68.9909 376.592 69.2069 376.752C69.4229 376.912 69.7229 376.992 70.1069 376.992ZM79.754 377.652C79.578 377.796 79.362 377.904 79.106 377.976C78.858 378.048 78.594 378.084 78.314 378.084C77.61 378.084 77.066 377.9 76.682 377.532C76.298 377.164 76.106 376.628 76.106 375.924V372.84H75.05V371.64H76.106V370.176H77.606V371.64H79.322V372.84H77.606V375.888C77.606 376.2 77.682 376.44 77.834 376.608C77.986 376.768 78.206 376.848 78.494 376.848C78.83 376.848 79.11 376.76 79.334 376.584L79.754 377.652ZM85.4376 377.652C85.2616 377.796 85.0456 377.904 84.7896 377.976C84.5416 378.048 84.2776 378.084 83.9976 378.084C83.2936 378.084 82.7496 377.9 82.3656 377.532C81.9816 377.164 81.7896 376.628 81.7896 375.924V372.84H80.7336V371.64H81.7896V370.176H83.2896V371.64H85.0056V372.84H83.2896V375.888C83.2896 376.2 83.3656 376.44 83.5176 376.608C83.6696 376.768 83.8896 376.848 84.1776 376.848C84.5136 376.848 84.7936 376.76 85.0176 376.584L85.4376 377.652ZM93.2346 374.832C93.2346 374.936 93.2266 375.084 93.2106 375.276H88.1826C88.2706 375.748 88.4986 376.124 88.8666 376.404C89.2426 376.676 89.7066 376.812 90.2586 376.812C90.9626 376.812 91.5426 376.58 91.9986 376.116L92.8026 377.04C92.5146 377.384 92.1506 377.644 91.7106 377.82C91.2706 377.996 90.7746 378.084 90.2226 378.084C89.5186 378.084 88.8986 377.944 88.3626 377.664C87.8266 377.384 87.4106 376.996 87.1146 376.5C86.8266 375.996 86.6826 375.428 86.6826 374.796C86.6826 374.172 86.8226 373.612 87.1026 373.116C87.3906 372.612 87.7866 372.22 88.2906 371.94C88.7946 371.66 89.3626 371.52 89.9946 371.52C90.6186 371.52 91.1746 371.66 91.6626 371.94C92.1586 372.212 92.5426 372.6 92.8146 373.104C93.0946 373.6 93.2346 374.176 93.2346 374.832ZM89.9946 372.72C89.5146 372.72 89.1066 372.864 88.7706 373.152C88.4426 373.432 88.2426 373.808 88.1706 374.28H91.8066C91.7426 373.816 91.5466 373.44 91.2186 373.152C90.8906 372.864 90.4826 372.72 89.9946 372.72ZM96.8534 372.528C97.2854 371.856 98.0454 371.52 99.1334 371.52V372.948C99.0054 372.924 98.8894 372.912 98.7854 372.912C98.2014 372.912 97.7454 373.084 97.4174 373.428C97.0894 373.764 96.9254 374.252 96.9254 374.892V378H95.4254V371.592H96.8534V372.528ZM107.39 371.592L104.39 378.516C104.11 379.212 103.77 379.7 103.37 379.98C102.97 380.268 102.486 380.412 101.918 380.412C101.598 380.412 101.282 380.36 100.97 380.256C100.658 380.152 100.402 380.008 100.202 379.824L100.802 378.72C100.946 378.856 101.114 378.964 101.306 379.044C101.506 379.124 101.706 379.164 101.906 379.164C102.17 379.164 102.386 379.096 102.554 378.96C102.73 378.824 102.89 378.596 103.034 378.276L103.142 378.024L100.346 371.592H101.906L103.922 376.332L105.95 371.592H107.39ZM113.288 369.6H114.848V378H113.288V369.6ZM121.362 371.52C122.17 371.52 122.818 371.756 123.306 372.228C123.794 372.7 124.038 373.4 124.038 374.328V378H122.538V374.52C122.538 373.96 122.406 373.54 122.142 373.26C121.878 372.972 121.502 372.828 121.014 372.828C120.462 372.828 120.026 372.996 119.706 373.332C119.386 373.66 119.226 374.136 119.226 374.76V378H117.726V371.592H119.154V372.42C119.402 372.124 119.714 371.9 120.09 371.748C120.466 371.596 120.89 371.52 121.362 371.52ZM128.671 378.084C128.151 378.084 127.643 378.016 127.147 377.88C126.651 377.744 126.255 377.572 125.959 377.364L126.535 376.224C126.823 376.416 127.167 376.572 127.567 376.692C127.975 376.804 128.375 376.86 128.767 376.86C129.663 376.86 130.111 376.624 130.111 376.152C130.111 375.928 129.995 375.772 129.763 375.684C129.539 375.596 129.175 375.512 128.671 375.432C128.143 375.352 127.711 375.26 127.375 375.156C127.047 375.052 126.759 374.872 126.511 374.616C126.271 374.352 126.151 373.988 126.151 373.524C126.151 372.916 126.403 372.432 126.907 372.072C127.419 371.704 128.107 371.52 128.971 371.52C129.411 371.52 129.851 371.572 130.291 371.676C130.731 371.772 131.091 371.904 131.371 372.072L130.795 373.212C130.251 372.892 129.639 372.732 128.959 372.732C128.519 372.732 128.183 372.8 127.951 372.936C127.727 373.064 127.615 373.236 127.615 373.452C127.615 373.692 127.735 373.864 127.975 373.968C128.223 374.064 128.603 374.156 129.115 374.244C129.627 374.324 130.047 374.416 130.375 374.52C130.703 374.624 130.983 374.8 131.215 375.048C131.455 375.296 131.575 375.648 131.575 376.104C131.575 376.704 131.315 377.184 130.795 377.544C130.275 377.904 129.567 378.084 128.671 378.084ZM137.169 371.52C137.793 371.52 138.349 371.656 138.837 371.928C139.333 372.2 139.721 372.584 140.001 373.08C140.281 373.576 140.421 374.148 140.421 374.796C140.421 375.444 140.281 376.02 140.001 376.524C139.721 377.02 139.333 377.404 138.837 377.676C138.349 377.948 137.793 378.084 137.169 378.084C136.305 378.084 135.621 377.796 135.117 377.22V380.328H133.617V371.592H135.045V372.432C135.293 372.128 135.597 371.9 135.957 371.748C136.325 371.596 136.729 371.52 137.169 371.52ZM137.001 376.8C137.553 376.8 138.005 376.616 138.357 376.248C138.717 375.88 138.897 375.396 138.897 374.796C138.897 374.196 138.717 373.712 138.357 373.344C138.005 372.976 137.553 372.792 137.001 372.792C136.641 372.792 136.317 372.876 136.029 373.044C135.741 373.204 135.513 373.436 135.345 373.74C135.177 374.044 135.093 374.396 135.093 374.796C135.093 375.196 135.177 375.548 135.345 375.852C135.513 376.156 135.741 376.392 136.029 376.56C136.317 376.72 136.641 376.8 137.001 376.8ZM148.617 374.832C148.617 374.936 148.609 375.084 148.593 375.276H143.565C143.653 375.748 143.881 376.124 144.249 376.404C144.625 376.676 145.089 376.812 145.641 376.812C146.345 376.812 146.925 376.58 147.381 376.116L148.185 377.04C147.897 377.384 147.533 377.644 147.093 377.82C146.653 377.996 146.157 378.084 145.605 378.084C144.901 378.084 144.281 377.944 143.745 377.664C143.209 377.384 142.793 376.996 142.497 376.5C142.209 375.996 142.065 375.428 142.065 374.796C142.065 374.172 142.205 373.612 142.485 373.116C142.773 372.612 143.169 372.22 143.673 371.94C144.177 371.66 144.745 371.52 145.377 371.52C146.001 371.52 146.557 371.66 147.045 371.94C147.541 372.212 147.925 372.6 148.197 373.104C148.477 373.6 148.617 374.176 148.617 374.832ZM145.377 372.72C144.897 372.72 144.489 372.864 144.153 373.152C143.825 373.432 143.625 373.808 143.553 374.28H147.189C147.125 373.816 146.929 373.44 146.601 373.152C146.273 372.864 145.865 372.72 145.377 372.72ZM153.748 378.084C153.084 378.084 152.488 377.944 151.96 377.664C151.432 377.384 151.02 376.996 150.724 376.5C150.428 375.996 150.28 375.428 150.28 374.796C150.28 374.164 150.428 373.6 150.724 373.104C151.02 372.608 151.428 372.22 151.948 371.94C152.476 371.66 153.076 371.52 153.748 371.52C154.38 371.52 154.932 371.648 155.404 371.904C155.884 372.16 156.244 372.528 156.484 373.008L155.332 373.68C155.148 373.384 154.916 373.164 154.636 373.02C154.364 372.868 154.064 372.792 153.736 372.792C153.176 372.792 152.712 372.976 152.344 373.344C151.976 373.704 151.792 374.188 151.792 374.796C151.792 375.404 151.972 375.892 152.332 376.26C152.7 376.62 153.168 376.8 153.736 376.8C154.064 376.8 154.364 376.728 154.636 376.584C154.916 376.432 155.148 376.208 155.332 375.912L156.484 376.584C156.236 377.064 155.872 377.436 155.392 377.7C154.92 377.956 154.372 378.084 153.748 378.084ZM162.465 377.652C162.289 377.796 162.073 377.904 161.817 377.976C161.569 378.048 161.305 378.084 161.025 378.084C160.321 378.084 159.777 377.9 159.393 377.532C159.009 377.164 158.817 376.628 158.817 375.924V372.84H157.761V371.64H158.817V370.176H160.317V371.64H162.033V372.84H160.317V375.888C160.317 376.2 160.393 376.44 160.545 376.608C160.697 376.768 160.917 376.848 161.205 376.848C161.541 376.848 161.821 376.76 162.045 376.584L162.465 377.652ZM164.449 371.592H165.949V378H164.449V371.592ZM165.205 370.536C164.933 370.536 164.705 370.452 164.521 370.284C164.337 370.108 164.245 369.892 164.245 369.636C164.245 369.38 164.337 369.168 164.521 369C164.705 368.824 164.933 368.736 165.205 368.736C165.477 368.736 165.705 368.82 165.889 368.988C166.073 369.148 166.165 369.352 166.165 369.6C166.165 369.864 166.073 370.088 165.889 370.272C165.713 370.448 165.485 370.536 165.205 370.536ZM171.548 378.084C170.9 378.084 170.316 377.944 169.796 377.664C169.276 377.384 168.868 376.996 168.572 376.5C168.284 375.996 168.14 375.428 168.14 374.796C168.14 374.164 168.284 373.6 168.572 373.104C168.868 372.608 169.276 372.22 169.796 371.94C170.316 371.66 170.9 371.52 171.548 371.52C172.204 371.52 172.792 371.66 173.312 371.94C173.832 372.22 174.236 372.608 174.524 373.104C174.82 373.6 174.968 374.164 174.968 374.796C174.968 375.428 174.82 375.996 174.524 376.5C174.236 376.996 173.832 377.384 173.312 377.664C172.792 377.944 172.204 378.084 171.548 378.084ZM171.548 376.8C172.1 376.8 172.556 376.616 172.916 376.248C173.276 375.88 173.456 375.396 173.456 374.796C173.456 374.196 173.276 373.712 172.916 373.344C172.556 372.976 172.1 372.792 171.548 372.792C170.996 372.792 170.54 372.976 170.18 373.344C169.828 373.712 169.652 374.196 169.652 374.796C169.652 375.396 169.828 375.88 170.18 376.248C170.54 376.616 170.996 376.8 171.548 376.8ZM180.788 371.52C181.596 371.52 182.244 371.756 182.732 372.228C183.22 372.7 183.464 373.4 183.464 374.328V378H181.964V374.52C181.964 373.96 181.832 373.54 181.568 373.26C181.304 372.972 180.928 372.828 180.44 372.828C179.888 372.828 179.452 372.996 179.132 373.332C178.812 373.66 178.652 374.136 178.652 374.76V378H177.152V371.592H178.58V372.42C178.828 372.124 179.14 371.9 179.516 371.748C179.892 371.596 180.316 371.52 180.788 371.52ZM64.08 394.632C64.544 394.784 64.912 395.04 65.184 395.4C65.456 395.752 65.592 396.192 65.592 396.72C65.592 397.448 65.312 398.012 64.752 398.412C64.192 398.804 63.376 399 62.304 399H58.128V390.6H62.064C63.056 390.6 63.82 390.796 64.356 391.188C64.892 391.572 65.16 392.104 65.16 392.784C65.16 393.2 65.064 393.568 64.872 393.888C64.68 394.208 64.416 394.456 64.08 394.632ZM59.688 391.824V394.14H61.896C62.44 394.14 62.856 394.044 63.144 393.852C63.44 393.652 63.588 393.364 63.588 392.988C63.588 392.604 63.44 392.316 63.144 392.124C62.856 391.924 62.44 391.824 61.896 391.824H59.688ZM62.208 397.776C63.416 397.776 64.02 397.372 64.02 396.564C64.02 395.756 63.416 395.352 62.208 395.352H59.688V397.776H62.208ZM69.2909 393.528C69.7229 392.856 70.4829 392.52 71.5709 392.52V393.948C71.4429 393.924 71.3269 393.912 71.2229 393.912C70.6389 393.912 70.1829 394.084 69.8549 394.428C69.5269 394.764 69.3629 395.252 69.3629 395.892V399H67.8629V392.592H69.2909V393.528ZM76.0062 392.52C76.9502 392.52 77.6702 392.748 78.1662 393.204C78.6702 393.652 78.9222 394.332 78.9222 395.244V399H77.5062V398.22C77.3222 398.5 77.0582 398.716 76.7142 398.868C76.3782 399.012 75.9702 399.084 75.4902 399.084C75.0102 399.084 74.5902 399.004 74.2302 398.844C73.8702 398.676 73.5902 398.448 73.3902 398.16C73.1982 397.864 73.1022 397.532 73.1022 397.164C73.1022 396.588 73.3142 396.128 73.7382 395.784C74.1702 395.432 74.8462 395.256 75.7662 395.256H77.4222V395.16C77.4222 394.712 77.2862 394.368 77.0142 394.128C76.7502 393.888 76.3542 393.768 75.8262 393.768C75.4662 393.768 75.1102 393.824 74.7582 393.936C74.4142 394.048 74.1222 394.204 73.8822 394.404L73.2942 393.312C73.6302 393.056 74.0342 392.86 74.5062 392.724C74.9782 392.588 75.4782 392.52 76.0062 392.52ZM75.8022 397.992C76.1782 397.992 76.5102 397.908 76.7982 397.74C77.0942 397.564 77.3022 397.316 77.4222 396.996V396.252H75.8742C75.0102 396.252 74.5782 396.536 74.5782 397.104C74.5782 397.376 74.6862 397.592 74.9022 397.752C75.1182 397.912 75.4182 397.992 75.8022 397.992ZM84.2133 396.252L83.0973 397.308V399H81.5973V390.096H83.0973V395.472L86.2053 392.592H88.0053L85.3293 395.28L88.2573 399H86.4333L84.2133 396.252ZM95.7307 395.832C95.7307 395.936 95.7227 396.084 95.7067 396.276H90.6787C90.7667 396.748 90.9947 397.124 91.3627 397.404C91.7387 397.676 92.2027 397.812 92.7547 397.812C93.4587 397.812 94.0387 397.58 94.4947 397.116L95.2987 398.04C95.0107 398.384 94.6467 398.644 94.2067 398.82C93.7667 398.996 93.2707 399.084 92.7187 399.084C92.0147 399.084 91.3947 398.944 90.8587 398.664C90.3227 398.384 89.9067 397.996 89.6107 397.5C89.3227 396.996 89.1787 396.428 89.1787 395.796C89.1787 395.172 89.3187 394.612 89.5987 394.116C89.8867 393.612 90.2827 393.22 90.7867 392.94C91.2907 392.66 91.8587 392.52 92.4907 392.52C93.1147 392.52 93.6707 392.66 94.1587 392.94C94.6547 393.212 95.0387 393.6 95.3107 394.104C95.5907 394.6 95.7307 395.176 95.7307 395.832ZM92.4907 393.72C92.0107 393.72 91.6027 393.864 91.2667 394.152C90.9387 394.432 90.7387 394.808 90.6667 395.28H94.3027C94.2387 394.816 94.0427 394.44 93.7147 394.152C93.3867 393.864 92.9787 393.72 92.4907 393.72ZM105.588 390.6C106.316 390.6 106.948 390.72 107.484 390.96C108.028 391.2 108.444 391.544 108.732 391.992C109.02 392.44 109.164 392.972 109.164 393.588C109.164 394.196 109.02 394.728 108.732 395.184C108.444 395.632 108.028 395.976 107.484 396.216C106.948 396.456 106.316 396.576 105.588 396.576H103.692V399H102.132V390.6H105.588ZM105.516 395.256C106.196 395.256 106.712 395.112 107.064 394.824C107.416 394.536 107.592 394.124 107.592 393.588C107.592 393.052 107.416 392.64 107.064 392.352C106.712 392.064 106.196 391.92 105.516 391.92H103.692V395.256H105.516ZM113.717 392.52C114.661 392.52 115.381 392.748 115.877 393.204C116.381 393.652 116.633 394.332 116.633 395.244V399H115.217V398.22C115.033 398.5 114.769 398.716 114.425 398.868C114.089 399.012 113.681 399.084 113.201 399.084C112.721 399.084 112.301 399.004 111.941 398.844C111.581 398.676 111.301 398.448 111.101 398.16C110.909 397.864 110.813 397.532 110.813 397.164C110.813 396.588 111.025 396.128 111.449 395.784C111.881 395.432 112.557 395.256 113.477 395.256H115.133V395.16C115.133 394.712 114.997 394.368 114.725 394.128C114.461 393.888 114.065 393.768 113.537 393.768C113.177 393.768 112.821 393.824 112.469 393.936C112.125 394.048 111.833 394.204 111.593 394.404L111.005 393.312C111.341 393.056 111.745 392.86 112.217 392.724C112.689 392.588 113.189 392.52 113.717 392.52ZM113.513 397.992C113.889 397.992 114.221 397.908 114.509 397.74C114.805 397.564 115.013 397.316 115.133 396.996V396.252H113.585C112.721 396.252 112.289 396.536 112.289 397.104C112.289 397.376 112.397 397.592 112.613 397.752C112.829 397.912 113.129 397.992 113.513 397.992ZM125.643 390.096V399H124.203V398.172C123.955 398.476 123.647 398.704 123.279 398.856C122.919 399.008 122.519 399.084 122.079 399.084C121.463 399.084 120.907 398.948 120.411 398.676C119.923 398.404 119.539 398.02 119.259 397.524C118.979 397.02 118.839 396.444 118.839 395.796C118.839 395.148 118.979 394.576 119.259 394.08C119.539 393.584 119.923 393.2 120.411 392.928C120.907 392.656 121.463 392.52 122.079 392.52C122.503 392.52 122.891 392.592 123.243 392.736C123.595 392.88 123.895 393.096 124.143 393.384V390.096H125.643ZM122.259 397.8C122.619 397.8 122.943 397.72 123.231 397.56C123.519 397.392 123.747 397.156 123.915 396.852C124.083 396.548 124.167 396.196 124.167 395.796C124.167 395.396 124.083 395.044 123.915 394.74C123.747 394.436 123.519 394.204 123.231 394.044C122.943 393.876 122.619 393.792 122.259 393.792C121.899 393.792 121.575 393.876 121.287 394.044C120.999 394.204 120.771 394.436 120.603 394.74C120.435 395.044 120.351 395.396 120.351 395.796C120.351 396.196 120.435 396.548 120.603 396.852C120.771 397.156 120.999 397.392 121.287 397.56C121.575 397.72 121.899 397.8 122.259 397.8ZM138.014 397.056H133.814L132.986 399H131.377L135.158 390.6H136.694L140.486 399H138.854L138.014 397.056ZM137.497 395.832L135.914 392.16L134.342 395.832H137.497ZM145.796 392.52C146.604 392.52 147.252 392.756 147.74 393.228C148.228 393.7 148.472 394.4 148.472 395.328V399H146.972V395.52C146.972 394.96 146.84 394.54 146.576 394.26C146.312 393.972 145.936 393.828 145.448 393.828C144.896 393.828 144.46 393.996 144.14 394.332C143.82 394.66 143.66 395.136 143.66 395.76V399H142.16V392.592H143.588V393.42C143.836 393.124 144.148 392.9 144.524 392.748C144.9 392.596 145.324 392.52 145.796 392.52ZM157.459 390.096V399H156.019V398.172C155.771 398.476 155.463 398.704 155.095 398.856C154.735 399.008 154.335 399.084 153.895 399.084C153.279 399.084 152.723 398.948 152.227 398.676C151.739 398.404 151.355 398.02 151.075 397.524C150.795 397.02 150.655 396.444 150.655 395.796C150.655 395.148 150.795 394.576 151.075 394.08C151.355 393.584 151.739 393.2 152.227 392.928C152.723 392.656 153.279 392.52 153.895 392.52C154.319 392.52 154.707 392.592 155.059 392.736C155.411 392.88 155.711 393.096 155.959 393.384V390.096H157.459ZM154.075 397.8C154.435 397.8 154.759 397.72 155.047 397.56C155.335 397.392 155.563 397.156 155.731 396.852C155.899 396.548 155.983 396.196 155.983 395.796C155.983 395.396 155.899 395.044 155.731 394.74C155.563 394.436 155.335 394.204 155.047 394.044C154.759 393.876 154.435 393.792 154.075 393.792C153.715 393.792 153.391 393.876 153.103 394.044C152.815 394.204 152.587 394.436 152.419 394.74C152.251 395.044 152.167 395.396 152.167 395.796C152.167 396.196 152.251 396.548 152.419 396.852C152.587 397.156 152.815 397.392 153.103 397.56C153.391 397.72 153.715 397.8 154.075 397.8ZM164.382 390.6H168.054C168.95 390.6 169.746 390.776 170.442 391.128C171.138 391.472 171.678 391.964 172.062 392.604C172.446 393.236 172.638 393.968 172.638 394.8C172.638 395.632 172.446 396.368 172.062 397.008C171.678 397.64 171.138 398.132 170.442 398.484C169.746 398.828 168.95 399 168.054 399H164.382V390.6ZM167.982 397.68C168.598 397.68 169.138 397.564 169.602 397.332C170.074 397.092 170.434 396.756 170.682 396.324C170.938 395.884 171.066 395.376 171.066 394.8C171.066 394.224 170.938 393.72 170.682 393.288C170.434 392.848 170.074 392.512 169.602 392.28C169.138 392.04 168.598 391.92 167.982 391.92H165.942V397.68H167.982ZM174.902 392.592H176.402V399H174.902V392.592ZM175.658 391.536C175.386 391.536 175.158 391.452 174.974 391.284C174.79 391.108 174.698 390.892 174.698 390.636C174.698 390.38 174.79 390.168 174.974 390C175.158 389.824 175.386 389.736 175.658 389.736C175.93 389.736 176.158 389.82 176.342 389.988C176.526 390.148 176.618 390.352 176.618 390.6C176.618 390.864 176.526 391.088 176.342 391.272C176.166 391.448 175.938 391.536 175.658 391.536ZM181.101 399.084C180.581 399.084 180.073 399.016 179.577 398.88C179.081 398.744 178.685 398.572 178.389 398.364L178.965 397.224C179.253 397.416 179.597 397.572 179.997 397.692C180.405 397.804 180.805 397.86 181.197 397.86C182.093 397.86 182.541 397.624 182.541 397.152C182.541 396.928 182.425 396.772 182.193 396.684C181.969 396.596 181.605 396.512 181.101 396.432C180.573 396.352 180.141 396.26 179.805 396.156C179.477 396.052 179.189 395.872 178.941 395.616C178.701 395.352 178.581 394.988 178.581 394.524C178.581 393.916 178.833 393.432 179.337 393.072C179.849 392.704 180.537 392.52 181.401 392.52C181.841 392.52 182.281 392.572 182.721 392.676C183.161 392.772 183.521 392.904 183.801 393.072L183.225 394.212C182.681 393.892 182.069 393.732 181.389 393.732C180.949 393.732 180.613 393.8 180.381 393.936C180.157 394.064 180.045 394.236 180.045 394.452C180.045 394.692 180.165 394.864 180.405 394.968C180.653 395.064 181.033 395.156 181.545 395.244C182.057 395.324 182.477 395.416 182.805 395.52C183.133 395.624 183.413 395.8 183.645 396.048C183.885 396.296 184.005 396.648 184.005 397.104C184.005 397.704 183.745 398.184 183.225 398.544C182.705 398.904 181.997 399.084 181.101 399.084ZM188.987 399.084C188.323 399.084 187.727 398.944 187.199 398.664C186.671 398.384 186.259 397.996 185.963 397.5C185.667 396.996 185.519 396.428 185.519 395.796C185.519 395.164 185.667 394.6 185.963 394.104C186.259 393.608 186.667 393.22 187.187 392.94C187.715 392.66 188.315 392.52 188.987 392.52C189.619 392.52 190.171 392.648 190.643 392.904C191.123 393.16 191.483 393.528 191.723 394.008L190.571 394.68C190.387 394.384 190.155 394.164 189.875 394.02C189.603 393.868 189.303 393.792 188.975 393.792C188.415 393.792 187.951 393.976 187.583 394.344C187.215 394.704 187.031 395.188 187.031 395.796C187.031 396.404 187.211 396.892 187.571 397.26C187.939 397.62 188.407 397.8 188.975 397.8C189.303 397.8 189.603 397.728 189.875 397.584C190.155 397.432 190.387 397.208 190.571 396.912L191.723 397.584C191.475 398.064 191.111 398.436 190.631 398.7C190.159 398.956 189.611 399.084 188.987 399.084ZM197.98 390.6H199.54V399H197.98V390.6ZM206.054 392.52C206.862 392.52 207.51 392.756 207.998 393.228C208.486 393.7 208.73 394.4 208.73 395.328V399H207.23V395.52C207.23 394.96 207.098 394.54 206.834 394.26C206.57 393.972 206.194 393.828 205.706 393.828C205.154 393.828 204.718 393.996 204.398 394.332C204.078 394.66 203.918 395.136 203.918 395.76V399H202.418V392.592H203.846V393.42C204.094 393.124 204.406 392.9 204.782 392.748C205.158 392.596 205.582 392.52 206.054 392.52ZM213.362 399.084C212.842 399.084 212.334 399.016 211.838 398.88C211.342 398.744 210.946 398.572 210.65 398.364L211.226 397.224C211.514 397.416 211.858 397.572 212.258 397.692C212.666 397.804 213.066 397.86 213.458 397.86C214.354 397.86 214.802 397.624 214.802 397.152C214.802 396.928 214.686 396.772 214.454 396.684C214.23 396.596 213.866 396.512 213.362 396.432C212.834 396.352 212.402 396.26 212.066 396.156C211.738 396.052 211.45 395.872 211.202 395.616C210.962 395.352 210.842 394.988 210.842 394.524C210.842 393.916 211.094 393.432 211.598 393.072C212.11 392.704 212.798 392.52 213.662 392.52C214.102 392.52 214.542 392.572 214.982 392.676C215.422 392.772 215.782 392.904 216.062 393.072L215.486 394.212C214.942 393.892 214.33 393.732 213.65 393.732C213.21 393.732 212.874 393.8 212.642 393.936C212.418 394.064 212.306 394.236 212.306 394.452C212.306 394.692 212.426 394.864 212.666 394.968C212.914 395.064 213.294 395.156 213.806 395.244C214.318 395.324 214.738 395.416 215.066 395.52C215.394 395.624 215.674 395.8 215.906 396.048C216.146 396.296 216.266 396.648 216.266 397.104C216.266 397.704 216.006 398.184 215.486 398.544C214.966 398.904 214.258 399.084 213.362 399.084ZM221.86 392.52C222.484 392.52 223.04 392.656 223.528 392.928C224.024 393.2 224.412 393.584 224.692 394.08C224.972 394.576 225.112 395.148 225.112 395.796C225.112 396.444 224.972 397.02 224.692 397.524C224.412 398.02 224.024 398.404 223.528 398.676C223.04 398.948 222.484 399.084 221.86 399.084C220.996 399.084 220.312 398.796 219.808 398.22V401.328H218.308V392.592H219.736V393.432C219.984 393.128 220.288 392.9 220.648 392.748C221.016 392.596 221.42 392.52 221.86 392.52ZM221.692 397.8C222.244 397.8 222.696 397.616 223.048 397.248C223.408 396.88 223.588 396.396 223.588 395.796C223.588 395.196 223.408 394.712 223.048 394.344C222.696 393.976 222.244 393.792 221.692 393.792C221.332 393.792 221.008 393.876 220.72 394.044C220.432 394.204 220.204 394.436 220.036 394.74C219.868 395.044 219.784 395.396 219.784 395.796C219.784 396.196 219.868 396.548 220.036 396.852C220.204 397.156 220.432 397.392 220.72 397.56C221.008 397.72 221.332 397.8 221.692 397.8ZM233.309 395.832C233.309 395.936 233.301 396.084 233.285 396.276H228.257C228.345 396.748 228.573 397.124 228.941 397.404C229.317 397.676 229.781 397.812 230.333 397.812C231.037 397.812 231.617 397.58 232.073 397.116L232.877 398.04C232.589 398.384 232.225 398.644 231.785 398.82C231.345 398.996 230.849 399.084 230.297 399.084C229.593 399.084 228.973 398.944 228.437 398.664C227.901 398.384 227.485 397.996 227.189 397.5C226.901 396.996 226.757 396.428 226.757 395.796C226.757 395.172 226.897 394.612 227.177 394.116C227.465 393.612 227.861 393.22 228.365 392.94C228.869 392.66 229.437 392.52 230.069 392.52C230.693 392.52 231.249 392.66 231.737 392.94C232.233 393.212 232.617 393.6 232.889 394.104C233.169 394.6 233.309 395.176 233.309 395.832ZM230.069 393.72C229.589 393.72 229.181 393.864 228.845 394.152C228.517 394.432 228.317 394.808 228.245 395.28H231.881C231.817 394.816 231.621 394.44 231.293 394.152C230.965 393.864 230.557 393.72 230.069 393.72ZM238.44 399.084C237.776 399.084 237.18 398.944 236.652 398.664C236.124 398.384 235.712 397.996 235.416 397.5C235.12 396.996 234.972 396.428 234.972 395.796C234.972 395.164 235.12 394.6 235.416 394.104C235.712 393.608 236.12 393.22 236.64 392.94C237.168 392.66 237.768 392.52 238.44 392.52C239.072 392.52 239.624 392.648 240.096 392.904C240.576 393.16 240.936 393.528 241.176 394.008L240.024 394.68C239.84 394.384 239.608 394.164 239.328 394.02C239.056 393.868 238.756 393.792 238.428 393.792C237.868 393.792 237.404 393.976 237.036 394.344C236.668 394.704 236.484 395.188 236.484 395.796C236.484 396.404 236.664 396.892 237.024 397.26C237.392 397.62 237.86 397.8 238.428 397.8C238.756 397.8 239.056 397.728 239.328 397.584C239.608 397.432 239.84 397.208 240.024 396.912L241.176 397.584C240.928 398.064 240.564 398.436 240.084 398.7C239.612 398.956 239.064 399.084 238.44 399.084ZM247.156 398.652C246.98 398.796 246.764 398.904 246.508 398.976C246.26 399.048 245.996 399.084 245.716 399.084C245.012 399.084 244.468 398.9 244.084 398.532C243.7 398.164 243.508 397.628 243.508 396.924V393.84H242.452V392.64H243.508V391.176H245.008V392.64H246.724V393.84H245.008V396.888C245.008 397.2 245.084 397.44 245.236 397.608C245.388 397.768 245.608 397.848 245.896 397.848C246.232 397.848 246.512 397.76 246.736 397.584L247.156 398.652ZM249.14 392.592H250.64V399H249.14V392.592ZM249.896 391.536C249.624 391.536 249.396 391.452 249.212 391.284C249.028 391.108 248.936 390.892 248.936 390.636C248.936 390.38 249.028 390.168 249.212 390C249.396 389.824 249.624 389.736 249.896 389.736C250.168 389.736 250.396 389.82 250.58 389.988C250.764 390.148 250.856 390.352 250.856 390.6C250.856 390.864 250.764 391.088 250.58 391.272C250.404 391.448 250.176 391.536 249.896 391.536ZM256.239 399.084C255.591 399.084 255.007 398.944 254.487 398.664C253.967 398.384 253.559 397.996 253.263 397.5C252.975 396.996 252.831 396.428 252.831 395.796C252.831 395.164 252.975 394.6 253.263 394.104C253.559 393.608 253.967 393.22 254.487 392.94C255.007 392.66 255.591 392.52 256.239 392.52C256.895 392.52 257.483 392.66 258.003 392.94C258.523 393.22 258.927 393.608 259.215 394.104C259.511 394.6 259.659 395.164 259.659 395.796C259.659 396.428 259.511 396.996 259.215 397.5C258.927 397.996 258.523 398.384 258.003 398.664C257.483 398.944 256.895 399.084 256.239 399.084ZM256.239 397.8C256.791 397.8 257.247 397.616 257.607 397.248C257.967 396.88 258.147 396.396 258.147 395.796C258.147 395.196 257.967 394.712 257.607 394.344C257.247 393.976 256.791 393.792 256.239 393.792C255.687 393.792 255.231 393.976 254.871 394.344C254.519 394.712 254.343 395.196 254.343 395.796C254.343 396.396 254.519 396.88 254.871 397.248C255.231 397.616 255.687 397.8 256.239 397.8ZM265.479 392.52C266.287 392.52 266.935 392.756 267.423 393.228C267.911 393.7 268.155 394.4 268.155 395.328V399H266.655V395.52C266.655 394.96 266.523 394.54 266.259 394.26C265.995 393.972 265.619 393.828 265.131 393.828C264.579 393.828 264.143 393.996 263.823 394.332C263.503 394.66 263.343 395.136 263.343 395.76V399H261.843V392.592H263.271V393.42C263.519 393.124 263.831 392.9 264.207 392.748C264.583 392.596 265.007 392.52 265.479 392.52ZM63.576 419.056H59.376L58.548 421H56.94L60.72 412.6H62.256L66.048 421H64.416L63.576 419.056ZM63.06 417.832L61.476 414.16L59.904 417.832H63.06ZM71.6371 421.12C70.7891 421.12 70.0211 420.936 69.3331 420.568C68.6531 420.192 68.1171 419.676 67.7251 419.02C67.3411 418.364 67.1491 417.624 67.1491 416.8C67.1491 415.976 67.3451 415.236 67.7371 414.58C68.1291 413.924 68.6651 413.412 69.3451 413.044C70.0331 412.668 70.8011 412.48 71.6491 412.48C72.3371 412.48 72.9651 412.6 73.5331 412.84C74.1011 413.08 74.5811 413.428 74.9731 413.884L73.9651 414.832C73.3571 414.176 72.6091 413.848 71.7211 413.848C71.1451 413.848 70.6291 413.976 70.1731 414.232C69.7171 414.48 69.3611 414.828 69.1051 415.276C68.8491 415.724 68.7211 416.232 68.7211 416.8C68.7211 417.368 68.8491 417.876 69.1051 418.324C69.3611 418.772 69.7171 419.124 70.1731 419.38C70.6291 419.628 71.1451 419.752 71.7211 419.752C72.6091 419.752 73.3571 419.42 73.9651 418.756L74.9731 419.716C74.5811 420.172 74.0971 420.52 73.5211 420.76C72.9531 421 72.3251 421.12 71.6371 421.12ZM82.8443 413.908V416.464H86.9003V417.784H82.8443V421H81.2843V412.6H87.4163V413.908H82.8443ZM89.4137 414.592H90.9137V421H89.4137V414.592ZM90.1697 413.536C89.8977 413.536 89.6697 413.452 89.4857 413.284C89.3017 413.108 89.2097 412.892 89.2097 412.636C89.2097 412.38 89.3017 412.168 89.4857 412C89.6697 411.824 89.8977 411.736 90.1697 411.736C90.4417 411.736 90.6697 411.82 90.8537 411.988C91.0377 412.148 91.1297 412.352 91.1297 412.6C91.1297 412.864 91.0377 413.088 90.8537 413.272C90.6777 413.448 90.4497 413.536 90.1697 413.536ZM93.6324 412.096H95.1324V421H93.6324V412.096ZM102.02 420.652C101.844 420.796 101.628 420.904 101.372 420.976C101.124 421.048 100.86 421.084 100.58 421.084C99.8756 421.084 99.3316 420.9 98.9476 420.532C98.5636 420.164 98.3716 419.628 98.3716 418.924V415.84H97.3156V414.64H98.3716V413.176H99.8716V414.64H101.588V415.84H99.8716V418.888C99.8716 419.2 99.9476 419.44 100.1 419.608C100.252 419.768 100.472 419.848 100.76 419.848C101.096 419.848 101.376 419.76 101.6 419.584L102.02 420.652ZM109.817 417.832C109.817 417.936 109.809 418.084 109.793 418.276H104.765C104.853 418.748 105.081 419.124 105.449 419.404C105.825 419.676 106.289 419.812 106.841 419.812C107.545 419.812 108.125 419.58 108.581 419.116L109.385 420.04C109.097 420.384 108.733 420.644 108.293 420.82C107.853 420.996 107.357 421.084 106.805 421.084C106.101 421.084 105.481 420.944 104.945 420.664C104.409 420.384 103.993 419.996 103.697 419.5C103.409 418.996 103.265 418.428 103.265 417.796C103.265 417.172 103.405 416.612 103.685 416.116C103.973 415.612 104.369 415.22 104.873 414.94C105.377 414.66 105.945 414.52 106.577 414.52C107.201 414.52 107.757 414.66 108.245 414.94C108.741 415.212 109.125 415.6 109.397 416.104C109.677 416.6 109.817 417.176 109.817 417.832ZM106.577 415.72C106.097 415.72 105.689 415.864 105.353 416.152C105.025 416.432 104.825 416.808 104.753 417.28H108.389C108.325 416.816 108.129 416.44 107.801 416.152C107.473 415.864 107.065 415.72 106.577 415.72ZM113.435 415.528C113.867 414.856 114.627 414.52 115.715 414.52V415.948C115.587 415.924 115.471 415.912 115.367 415.912C114.783 415.912 114.327 416.084 113.999 416.428C113.671 416.764 113.507 417.252 113.507 417.892V421H112.007V414.592H113.435V415.528ZM119.932 410.896H121.276L117.316 422.2H115.972L119.932 410.896ZM126.119 412.6C126.847 412.6 127.479 412.72 128.015 412.96C128.559 413.2 128.975 413.544 129.263 413.992C129.551 414.44 129.695 414.972 129.695 415.588C129.695 416.196 129.551 416.728 129.263 417.184C128.975 417.632 128.559 417.976 128.015 418.216C127.479 418.456 126.847 418.576 126.119 418.576H124.223V421H122.663V412.6H126.119ZM126.047 417.256C126.727 417.256 127.243 417.112 127.595 416.824C127.947 416.536 128.123 416.124 128.123 415.588C128.123 415.052 127.947 414.64 127.595 414.352C127.243 414.064 126.727 413.92 126.047 413.92H124.223V417.256H126.047ZM134.716 421.084C134.068 421.084 133.484 420.944 132.964 420.664C132.444 420.384 132.036 419.996 131.74 419.5C131.452 418.996 131.308 418.428 131.308 417.796C131.308 417.164 131.452 416.6 131.74 416.104C132.036 415.608 132.444 415.22 132.964 414.94C133.484 414.66 134.068 414.52 134.716 414.52C135.372 414.52 135.96 414.66 136.48 414.94C137 415.22 137.404 415.608 137.692 416.104C137.988 416.6 138.136 417.164 138.136 417.796C138.136 418.428 137.988 418.996 137.692 419.5C137.404 419.996 137 420.384 136.48 420.664C135.96 420.944 135.372 421.084 134.716 421.084ZM134.716 419.8C135.268 419.8 135.724 419.616 136.084 419.248C136.444 418.88 136.624 418.396 136.624 417.796C136.624 417.196 136.444 416.712 136.084 416.344C135.724 415.976 135.268 415.792 134.716 415.792C134.164 415.792 133.708 415.976 133.348 416.344C132.996 416.712 132.82 417.196 132.82 417.796C132.82 418.396 132.996 418.88 133.348 419.248C133.708 419.616 134.164 419.8 134.716 419.8ZM140.32 412.096H141.82V421H140.32V412.096ZM144.539 412.096H146.039V421H144.539V412.096ZM154.781 417.832C154.781 417.936 154.773 418.084 154.757 418.276H149.729C149.817 418.748 150.045 419.124 150.413 419.404C150.789 419.676 151.253 419.812 151.805 419.812C152.509 419.812 153.089 419.58 153.545 419.116L154.349 420.04C154.061 420.384 153.697 420.644 153.257 420.82C152.817 420.996 152.321 421.084 151.769 421.084C151.065 421.084 150.445 420.944 149.909 420.664C149.373 420.384 148.957 419.996 148.661 419.5C148.373 418.996 148.229 418.428 148.229 417.796C148.229 417.172 148.369 416.612 148.649 416.116C148.937 415.612 149.333 415.22 149.837 414.94C150.341 414.66 150.909 414.52 151.541 414.52C152.165 414.52 152.721 414.66 153.209 414.94C153.705 415.212 154.089 415.6 154.361 416.104C154.641 416.6 154.781 417.176 154.781 417.832ZM151.541 415.72C151.061 415.72 150.653 415.864 150.317 416.152C149.989 416.432 149.789 416.808 149.717 417.28H153.353C153.289 416.816 153.093 416.44 152.765 416.152C152.437 415.864 152.029 415.72 151.541 415.72ZM160.608 414.52C161.416 414.52 162.064 414.756 162.552 415.228C163.04 415.7 163.284 416.4 163.284 417.328V421H161.784V417.52C161.784 416.96 161.652 416.54 161.388 416.26C161.124 415.972 160.748 415.828 160.26 415.828C159.708 415.828 159.272 415.996 158.952 416.332C158.632 416.66 158.472 417.136 158.472 417.76V421H156.972V414.592H158.4V415.42C158.648 415.124 158.96 414.9 159.336 414.748C159.712 414.596 160.136 414.52 160.608 414.52ZM171.708 413.908V416.464H175.764V417.784H171.708V421H170.148V412.6H176.28V413.908H171.708ZM178.277 414.592H179.777V421H178.277V414.592ZM179.033 413.536C178.761 413.536 178.533 413.452 178.349 413.284C178.165 413.108 178.073 412.892 178.073 412.636C178.073 412.38 178.165 412.168 178.349 412C178.533 411.824 178.761 411.736 179.033 411.736C179.305 411.736 179.533 411.82 179.717 411.988C179.901 412.148 179.993 412.352 179.993 412.6C179.993 412.864 179.901 413.088 179.717 413.272C179.541 413.448 179.313 413.536 179.033 413.536ZM182.496 412.096H183.996V421H182.496V412.096ZM190.883 420.652C190.707 420.796 190.491 420.904 190.235 420.976C189.987 421.048 189.723 421.084 189.443 421.084C188.739 421.084 188.195 420.9 187.811 420.532C187.427 420.164 187.235 419.628 187.235 418.924V415.84H186.179V414.64H187.235V413.176H188.735V414.64H190.451V415.84H188.735V418.888C188.735 419.2 188.811 419.44 188.963 419.608C189.115 419.768 189.335 419.848 189.623 419.848C189.959 419.848 190.239 419.76 190.463 419.584L190.883 420.652ZM198.68 417.832C198.68 417.936 198.672 418.084 198.656 418.276H193.628C193.716 418.748 193.944 419.124 194.312 419.404C194.688 419.676 195.152 419.812 195.704 419.812C196.408 419.812 196.988 419.58 197.444 419.116L198.248 420.04C197.96 420.384 197.596 420.644 197.156 420.82C196.716 420.996 196.22 421.084 195.668 421.084C194.964 421.084 194.344 420.944 193.808 420.664C193.272 420.384 192.856 419.996 192.56 419.5C192.272 418.996 192.128 418.428 192.128 417.796C192.128 417.172 192.268 416.612 192.548 416.116C192.836 415.612 193.232 415.22 193.736 414.94C194.24 414.66 194.808 414.52 195.44 414.52C196.064 414.52 196.62 414.66 197.108 414.94C197.604 415.212 197.988 415.6 198.26 416.104C198.54 416.6 198.68 417.176 198.68 417.832ZM195.44 415.72C194.96 415.72 194.552 415.864 194.216 416.152C193.888 416.432 193.688 416.808 193.616 417.28H197.252C197.188 416.816 196.992 416.44 196.664 416.152C196.336 415.864 195.928 415.72 195.44 415.72ZM202.299 415.528C202.731 414.856 203.491 414.52 204.579 414.52V415.948C204.451 415.924 204.335 415.912 204.231 415.912C203.647 415.912 203.191 416.084 202.863 416.428C202.535 416.764 202.371 417.252 202.371 417.892V421H200.871V414.592H202.299V415.528ZM214.758 421.12C213.91 421.12 213.142 420.936 212.454 420.568C211.774 420.192 211.238 419.676 210.846 419.02C210.462 418.364 210.27 417.624 210.27 416.8C210.27 415.976 210.466 415.236 210.858 414.58C211.25 413.924 211.786 413.412 212.466 413.044C213.154 412.668 213.922 412.48 214.77 412.48C215.458 412.48 216.086 412.6 216.654 412.84C217.222 413.08 217.702 413.428 218.094 413.884L217.086 414.832C216.478 414.176 215.73 413.848 214.842 413.848C214.266 413.848 213.75 413.976 213.294 414.232C212.838 414.48 212.482 414.828 212.226 415.276C211.97 415.724 211.842 416.232 211.842 416.8C211.842 417.368 211.97 417.876 212.226 418.324C212.482 418.772 212.838 419.124 213.294 419.38C213.75 419.628 214.266 419.752 214.842 419.752C215.73 419.752 216.478 419.42 217.086 418.756L218.094 419.716C217.702 420.172 217.218 420.52 216.642 420.76C216.074 421 215.446 421.12 214.758 421.12ZM223.831 414.52C224.639 414.52 225.287 414.756 225.775 415.228C226.263 415.7 226.507 416.4 226.507 417.328V421H225.007V417.52C225.007 416.96 224.875 416.54 224.611 416.26C224.347 415.972 223.971 415.828 223.483 415.828C222.931 415.828 222.495 415.996 222.175 416.332C221.855 416.66 221.695 417.136 221.695 417.76V421H220.195V412.096H221.695V415.336C221.943 415.072 222.247 414.872 222.607 414.736C222.975 414.592 223.383 414.52 223.831 414.52ZM231.608 414.52C232.552 414.52 233.272 414.748 233.768 415.204C234.272 415.652 234.524 416.332 234.524 417.244V421H233.108V420.22C232.924 420.5 232.66 420.716 232.316 420.868C231.98 421.012 231.572 421.084 231.092 421.084C230.612 421.084 230.192 421.004 229.832 420.844C229.472 420.676 229.192 420.448 228.992 420.16C228.8 419.864 228.704 419.532 228.704 419.164C228.704 418.588 228.916 418.128 229.34 417.784C229.772 417.432 230.448 417.256 231.368 417.256H233.024V417.16C233.024 416.712 232.888 416.368 232.616 416.128C232.352 415.888 231.956 415.768 231.428 415.768C231.068 415.768 230.712 415.824 230.36 415.936C230.016 416.048 229.724 416.204 229.484 416.404L228.896 415.312C229.232 415.056 229.636 414.86 230.108 414.724C230.58 414.588 231.08 414.52 231.608 414.52ZM231.404 419.992C231.78 419.992 232.112 419.908 232.4 419.74C232.696 419.564 232.904 419.316 233.024 418.996V418.252H231.476C230.612 418.252 230.18 418.536 230.18 419.104C230.18 419.376 230.288 419.592 230.504 419.752C230.72 419.912 231.02 419.992 231.404 419.992ZM240.835 414.52C241.643 414.52 242.291 414.756 242.779 415.228C243.267 415.7 243.511 416.4 243.511 417.328V421H242.011V417.52C242.011 416.96 241.879 416.54 241.615 416.26C241.351 415.972 240.975 415.828 240.487 415.828C239.935 415.828 239.499 415.996 239.179 416.332C238.859 416.66 238.699 417.136 238.699 417.76V421H237.199V414.592H238.627V415.42C238.875 415.124 239.187 414.9 239.563 414.748C239.939 414.596 240.363 414.52 240.835 414.52ZM252.582 414.592V420.028C252.582 422.284 251.43 423.412 249.126 423.412C248.51 423.412 247.926 423.332 247.374 423.172C246.822 423.02 246.366 422.796 246.006 422.5L246.678 421.372C246.958 421.604 247.31 421.788 247.734 421.924C248.166 422.068 248.602 422.14 249.042 422.14C249.746 422.14 250.262 421.98 250.59 421.66C250.918 421.34 251.082 420.852 251.082 420.196V419.86C250.826 420.14 250.514 420.352 250.146 420.496C249.778 420.64 249.374 420.712 248.934 420.712C248.326 420.712 247.774 420.584 247.278 420.328C246.79 420.064 246.402 419.696 246.114 419.224C245.834 418.752 245.694 418.212 245.694 417.604C245.694 416.996 245.834 416.46 246.114 415.996C246.402 415.524 246.79 415.16 247.278 414.904C247.774 414.648 248.326 414.52 248.934 414.52C249.398 414.52 249.818 414.596 250.194 414.748C250.578 414.9 250.898 415.132 251.154 415.444V414.592H252.582ZM249.162 419.44C249.73 419.44 250.194 419.272 250.554 418.936C250.922 418.592 251.106 418.148 251.106 417.604C251.106 417.068 250.922 416.632 250.554 416.296C250.194 415.96 249.73 415.792 249.162 415.792C248.586 415.792 248.114 415.96 247.746 416.296C247.386 416.632 247.206 417.068 247.206 417.604C247.206 418.148 247.386 418.592 247.746 418.936C248.114 419.272 248.586 419.44 249.162 419.44ZM261.328 417.832C261.328 417.936 261.32 418.084 261.304 418.276H256.276C256.364 418.748 256.592 419.124 256.96 419.404C257.336 419.676 257.8 419.812 258.352 419.812C259.056 419.812 259.636 419.58 260.092 419.116L260.896 420.04C260.608 420.384 260.244 420.644 259.804 420.82C259.364 420.996 258.868 421.084 258.316 421.084C257.612 421.084 256.992 420.944 256.456 420.664C255.92 420.384 255.504 419.996 255.208 419.5C254.92 418.996 254.776 418.428 254.776 417.796C254.776 417.172 254.916 416.612 255.196 416.116C255.484 415.612 255.88 415.22 256.384 414.94C256.888 414.66 257.456 414.52 258.088 414.52C258.712 414.52 259.268 414.66 259.756 414.94C260.252 415.212 260.636 415.6 260.908 416.104C261.188 416.6 261.328 417.176 261.328 417.832ZM258.088 415.72C257.608 415.72 257.2 415.864 256.864 416.152C256.536 416.432 256.336 416.808 256.264 417.28H259.9C259.836 416.816 259.64 416.44 259.312 416.152C258.984 415.864 258.576 415.72 258.088 415.72ZM60.732 442.12C60.084 442.12 59.456 442.028 58.848 441.844C58.248 441.66 57.772 441.416 57.42 441.112L57.96 439.9C58.304 440.172 58.724 440.396 59.22 440.572C59.724 440.74 60.228 440.824 60.732 440.824C61.356 440.824 61.82 440.724 62.124 440.524C62.436 440.324 62.592 440.06 62.592 439.732C62.592 439.492 62.504 439.296 62.328 439.144C62.16 438.984 61.944 438.86 61.68 438.772C61.416 438.684 61.056 438.584 60.6 438.472C59.96 438.32 59.44 438.168 59.04 438.016C58.648 437.864 58.308 437.628 58.02 437.308C57.74 436.98 57.6 436.54 57.6 435.988C57.6 435.524 57.724 435.104 57.972 434.728C58.228 434.344 58.608 434.04 59.112 433.816C59.624 433.592 60.248 433.48 60.984 433.48C61.496 433.48 62 433.544 62.496 433.672C62.992 433.8 63.42 433.984 63.78 434.224L63.288 435.436C62.92 435.22 62.536 435.056 62.136 434.944C61.736 434.832 61.348 434.776 60.972 434.776C60.356 434.776 59.896 434.88 59.592 435.088C59.296 435.296 59.148 435.572 59.148 435.916C59.148 436.156 59.232 436.352 59.4 436.504C59.576 436.656 59.796 436.776 60.06 436.864C60.324 436.952 60.684 437.052 61.14 437.164C61.764 437.308 62.276 437.46 62.676 437.62C63.076 437.772 63.416 438.008 63.696 438.328C63.984 438.648 64.128 439.08 64.128 439.624C64.128 440.088 64 440.508 63.744 440.884C63.496 441.26 63.116 441.56 62.604 441.784C62.092 442.008 61.468 442.12 60.732 442.12ZM70.1329 441.652C69.9569 441.796 69.7409 441.904 69.4849 441.976C69.2369 442.048 68.9729 442.084 68.6929 442.084C67.9889 442.084 67.4449 441.9 67.0609 441.532C66.6769 441.164 66.4849 440.628 66.4849 439.924V436.84H65.4289V435.64H66.4849V434.176H67.9849V435.64H69.7009V436.84H67.9849V439.888C67.9849 440.2 68.0609 440.44 68.2129 440.608C68.3649 440.768 68.5849 440.848 68.8729 440.848C69.2089 440.848 69.4889 440.76 69.7129 440.584L70.1329 441.652ZM77.9299 438.832C77.9299 438.936 77.9219 439.084 77.9059 439.276H72.8779C72.9659 439.748 73.1939 440.124 73.5619 440.404C73.9379 440.676 74.4019 440.812 74.9539 440.812C75.6579 440.812 76.2379 440.58 76.6939 440.116L77.4979 441.04C77.2099 441.384 76.8459 441.644 76.4059 441.82C75.9659 441.996 75.4699 442.084 74.9179 442.084C74.2139 442.084 73.5939 441.944 73.0579 441.664C72.5219 441.384 72.1059 440.996 71.8099 440.5C71.5219 439.996 71.3779 439.428 71.3779 438.796C71.3779 438.172 71.5179 437.612 71.7979 437.116C72.0859 436.612 72.4819 436.22 72.9859 435.94C73.4899 435.66 74.0579 435.52 74.6899 435.52C75.3139 435.52 75.8699 435.66 76.3579 435.94C76.8539 436.212 77.2379 436.6 77.5099 437.104C77.7899 437.6 77.9299 438.176 77.9299 438.832ZM74.6899 436.72C74.2099 436.72 73.8019 436.864 73.4659 437.152C73.1379 437.432 72.9379 437.808 72.8659 438.28H76.5019C76.4379 437.816 76.2419 437.44 75.9139 437.152C75.5859 436.864 75.1779 436.72 74.6899 436.72ZM82.3929 435.52C83.3369 435.52 84.0569 435.748 84.5529 436.204C85.0569 436.652 85.3089 437.332 85.3089 438.244V442H83.8929V441.22C83.7089 441.5 83.4449 441.716 83.1009 441.868C82.7649 442.012 82.3569 442.084 81.8769 442.084C81.3969 442.084 80.9769 442.004 80.6169 441.844C80.2569 441.676 79.9769 441.448 79.7769 441.16C79.5849 440.864 79.4889 440.532 79.4889 440.164C79.4889 439.588 79.7009 439.128 80.1249 438.784C80.5569 438.432 81.2329 438.256 82.1529 438.256H83.8089V438.16C83.8089 437.712 83.6729 437.368 83.4009 437.128C83.1369 436.888 82.7409 436.768 82.2129 436.768C81.8529 436.768 81.4969 436.824 81.1449 436.936C80.8009 437.048 80.5089 437.204 80.2689 437.404L79.6809 436.312C80.0169 436.056 80.4209 435.86 80.8929 435.724C81.3649 435.588 81.8649 435.52 82.3929 435.52ZM82.1889 440.992C82.5649 440.992 82.8969 440.908 83.1849 440.74C83.4809 440.564 83.6889 440.316 83.8089 439.996V439.252H82.2609C81.3969 439.252 80.9649 439.536 80.9649 440.104C80.9649 440.376 81.0729 440.592 81.2889 440.752C81.5049 440.912 81.8049 440.992 82.1889 440.992ZM96.072 435.52C96.88 435.52 97.52 435.756 97.992 436.228C98.464 436.692 98.7 437.392 98.7 438.328V442H97.2V438.52C97.2 437.96 97.076 437.54 96.828 437.26C96.58 436.972 96.224 436.828 95.76 436.828C95.256 436.828 94.852 436.996 94.548 437.332C94.244 437.66 94.092 438.132 94.092 438.748V442H92.592V438.52C92.592 437.96 92.468 437.54 92.22 437.26C91.972 436.972 91.616 436.828 91.152 436.828C90.64 436.828 90.232 436.992 89.928 437.32C89.632 437.648 89.484 438.124 89.484 438.748V442H87.984V435.592H89.412V436.408C89.652 436.12 89.952 435.9 90.312 435.748C90.672 435.596 91.072 435.52 91.512 435.52C91.992 435.52 92.416 435.612 92.784 435.796C93.16 435.972 93.456 436.236 93.672 436.588C93.936 436.252 94.276 435.992 94.692 435.808C95.108 435.616 95.568 435.52 96.072 435.52ZM117.853 433.6L115.069 442H113.413L111.337 435.784L109.225 442H107.557L104.773 433.6H106.393L108.481 439.984L110.653 433.6H112.093L114.217 440.02L116.365 433.6H117.853ZM121.698 435.52C122.642 435.52 123.362 435.748 123.858 436.204C124.362 436.652 124.614 437.332 124.614 438.244V442H123.198V441.22C123.014 441.5 122.75 441.716 122.406 441.868C122.07 442.012 121.662 442.084 121.182 442.084C120.702 442.084 120.282 442.004 119.922 441.844C119.562 441.676 119.282 441.448 119.082 441.16C118.89 440.864 118.794 440.532 118.794 440.164C118.794 439.588 119.006 439.128 119.43 438.784C119.862 438.432 120.538 438.256 121.458 438.256H123.114V438.16C123.114 437.712 122.978 437.368 122.706 437.128C122.442 436.888 122.046 436.768 121.518 436.768C121.158 436.768 120.802 436.824 120.45 436.936C120.106 437.048 119.814 437.204 119.574 437.404L118.986 436.312C119.322 436.056 119.726 435.86 120.198 435.724C120.67 435.588 121.17 435.52 121.698 435.52ZM121.494 440.992C121.87 440.992 122.202 440.908 122.49 440.74C122.786 440.564 122.994 440.316 123.114 439.996V439.252H121.566C120.702 439.252 120.27 439.536 120.27 440.104C120.27 440.376 120.378 440.592 120.594 440.752C120.81 440.912 121.11 440.992 121.494 440.992ZM129.269 442.084C128.749 442.084 128.241 442.016 127.745 441.88C127.249 441.744 126.853 441.572 126.557 441.364L127.133 440.224C127.421 440.416 127.765 440.572 128.165 440.692C128.573 440.804 128.973 440.86 129.365 440.86C130.261 440.86 130.709 440.624 130.709 440.152C130.709 439.928 130.593 439.772 130.361 439.684C130.137 439.596 129.773 439.512 129.269 439.432C128.741 439.352 128.309 439.26 127.973 439.156C127.645 439.052 127.357 438.872 127.109 438.616C126.869 438.352 126.749 437.988 126.749 437.524C126.749 436.916 127.001 436.432 127.505 436.072C128.017 435.704 128.705 435.52 129.569 435.52C130.009 435.52 130.449 435.572 130.889 435.676C131.329 435.772 131.689 435.904 131.969 436.072L131.393 437.212C130.849 436.892 130.237 436.732 129.557 436.732C129.117 436.732 128.781 436.8 128.549 436.936C128.325 437.064 128.213 437.236 128.213 437.452C128.213 437.692 128.333 437.864 128.573 437.968C128.821 438.064 129.201 438.156 129.713 438.244C130.225 438.324 130.645 438.416 130.973 438.52C131.301 438.624 131.581 438.8 131.813 439.048C132.053 439.296 132.173 439.648 132.173 440.104C132.173 440.704 131.913 441.184 131.393 441.544C130.873 441.904 130.165 442.084 129.269 442.084ZM137.85 435.52C138.658 435.52 139.306 435.756 139.794 436.228C140.282 436.7 140.526 437.4 140.526 438.328V442H139.026V438.52C139.026 437.96 138.894 437.54 138.63 437.26C138.366 436.972 137.99 436.828 137.502 436.828C136.95 436.828 136.514 436.996 136.194 437.332C135.874 437.66 135.714 438.136 135.714 438.76V442H134.214V433.096H135.714V436.336C135.962 436.072 136.266 435.872 136.626 435.736C136.994 435.592 137.402 435.52 137.85 435.52ZM60.732 464.12C60.084 464.12 59.456 464.028 58.848 463.844C58.248 463.66 57.772 463.416 57.42 463.112L57.96 461.9C58.304 462.172 58.724 462.396 59.22 462.572C59.724 462.74 60.228 462.824 60.732 462.824C61.356 462.824 61.82 462.724 62.124 462.524C62.436 462.324 62.592 462.06 62.592 461.732C62.592 461.492 62.504 461.296 62.328 461.144C62.16 460.984 61.944 460.86 61.68 460.772C61.416 460.684 61.056 460.584 60.6 460.472C59.96 460.32 59.44 460.168 59.04 460.016C58.648 459.864 58.308 459.628 58.02 459.308C57.74 458.98 57.6 458.54 57.6 457.988C57.6 457.524 57.724 457.104 57.972 456.728C58.228 456.344 58.608 456.04 59.112 455.816C59.624 455.592 60.248 455.48 60.984 455.48C61.496 455.48 62 455.544 62.496 455.672C62.992 455.8 63.42 455.984 63.78 456.224L63.288 457.436C62.92 457.22 62.536 457.056 62.136 456.944C61.736 456.832 61.348 456.776 60.972 456.776C60.356 456.776 59.896 456.88 59.592 457.088C59.296 457.296 59.148 457.572 59.148 457.916C59.148 458.156 59.232 458.352 59.4 458.504C59.576 458.656 59.796 458.776 60.06 458.864C60.324 458.952 60.684 459.052 61.14 459.164C61.764 459.308 62.276 459.46 62.676 459.62C63.076 459.772 63.416 460.008 63.696 460.328C63.984 460.648 64.128 461.08 64.128 461.624C64.128 462.088 64 462.508 63.744 462.884C63.496 463.26 63.116 463.56 62.604 463.784C62.092 464.008 61.468 464.12 60.732 464.12ZM70.1329 463.652C69.9569 463.796 69.7409 463.904 69.4849 463.976C69.2369 464.048 68.9729 464.084 68.6929 464.084C67.9889 464.084 67.4449 463.9 67.0609 463.532C66.6769 463.164 66.4849 462.628 66.4849 461.924V458.84H65.4289V457.64H66.4849V456.176H67.9849V457.64H69.7009V458.84H67.9849V461.888C67.9849 462.2 68.0609 462.44 68.2129 462.608C68.3649 462.768 68.5849 462.848 68.8729 462.848C69.2089 462.848 69.4889 462.76 69.7129 462.584L70.1329 463.652ZM77.9299 460.832C77.9299 460.936 77.9219 461.084 77.9059 461.276H72.8779C72.9659 461.748 73.1939 462.124 73.5619 462.404C73.9379 462.676 74.4019 462.812 74.9539 462.812C75.6579 462.812 76.2379 462.58 76.6939 462.116L77.4979 463.04C77.2099 463.384 76.8459 463.644 76.4059 463.82C75.9659 463.996 75.4699 464.084 74.9179 464.084C74.2139 464.084 73.5939 463.944 73.0579 463.664C72.5219 463.384 72.1059 462.996 71.8099 462.5C71.5219 461.996 71.3779 461.428 71.3779 460.796C71.3779 460.172 71.5179 459.612 71.7979 459.116C72.0859 458.612 72.4819 458.22 72.9859 457.94C73.4899 457.66 74.0579 457.52 74.6899 457.52C75.3139 457.52 75.8699 457.66 76.3579 457.94C76.8539 458.212 77.2379 458.6 77.5099 459.104C77.7899 459.6 77.9299 460.176 77.9299 460.832ZM74.6899 458.72C74.2099 458.72 73.8019 458.864 73.4659 459.152C73.1379 459.432 72.9379 459.808 72.8659 460.28H76.5019C76.4379 459.816 76.2419 459.44 75.9139 459.152C75.5859 458.864 75.1779 458.72 74.6899 458.72ZM82.3929 457.52C83.3369 457.52 84.0569 457.748 84.5529 458.204C85.0569 458.652 85.3089 459.332 85.3089 460.244V464H83.8929V463.22C83.7089 463.5 83.4449 463.716 83.1009 463.868C82.7649 464.012 82.3569 464.084 81.8769 464.084C81.3969 464.084 80.9769 464.004 80.6169 463.844C80.2569 463.676 79.9769 463.448 79.7769 463.16C79.5849 462.864 79.4889 462.532 79.4889 462.164C79.4889 461.588 79.7009 461.128 80.1249 460.784C80.5569 460.432 81.2329 460.256 82.1529 460.256H83.8089V460.16C83.8089 459.712 83.6729 459.368 83.4009 459.128C83.1369 458.888 82.7409 458.768 82.2129 458.768C81.8529 458.768 81.4969 458.824 81.1449 458.936C80.8009 459.048 80.5089 459.204 80.2689 459.404L79.6809 458.312C80.0169 458.056 80.4209 457.86 80.8929 457.724C81.3649 457.588 81.8649 457.52 82.3929 457.52ZM82.1889 462.992C82.5649 462.992 82.8969 462.908 83.1849 462.74C83.4809 462.564 83.6889 462.316 83.8089 461.996V461.252H82.2609C81.3969 461.252 80.9649 461.536 80.9649 462.104C80.9649 462.376 81.0729 462.592 81.2889 462.752C81.5049 462.912 81.8049 462.992 82.1889 462.992ZM96.072 457.52C96.88 457.52 97.52 457.756 97.992 458.228C98.464 458.692 98.7 459.392 98.7 460.328V464H97.2V460.52C97.2 459.96 97.076 459.54 96.828 459.26C96.58 458.972 96.224 458.828 95.76 458.828C95.256 458.828 94.852 458.996 94.548 459.332C94.244 459.66 94.092 460.132 94.092 460.748V464H92.592V460.52C92.592 459.96 92.468 459.54 92.22 459.26C91.972 458.972 91.616 458.828 91.152 458.828C90.64 458.828 90.232 458.992 89.928 459.32C89.632 459.648 89.484 460.124 89.484 460.748V464H87.984V457.592H89.412V458.408C89.652 458.12 89.952 457.9 90.312 457.748C90.672 457.596 91.072 457.52 91.512 457.52C91.992 457.52 92.416 457.612 92.784 457.796C93.16 457.972 93.456 458.236 93.672 458.588C93.936 458.252 94.276 457.992 94.692 457.808C95.108 457.616 95.568 457.52 96.072 457.52ZM117.853 455.6L115.069 464H113.413L111.337 457.784L109.225 464H107.557L104.773 455.6H106.393L108.481 461.984L110.653 455.6H112.093L114.217 462.02L116.365 455.6H117.853ZM121.698 457.52C122.642 457.52 123.362 457.748 123.858 458.204C124.362 458.652 124.614 459.332 124.614 460.244V464H123.198V463.22C123.014 463.5 122.75 463.716 122.406 463.868C122.07 464.012 121.662 464.084 121.182 464.084C120.702 464.084 120.282 464.004 119.922 463.844C119.562 463.676 119.282 463.448 119.082 463.16C118.89 462.864 118.794 462.532 118.794 462.164C118.794 461.588 119.006 461.128 119.43 460.784C119.862 460.432 120.538 460.256 121.458 460.256H123.114V460.16C123.114 459.712 122.978 459.368 122.706 459.128C122.442 458.888 122.046 458.768 121.518 458.768C121.158 458.768 120.802 458.824 120.45 458.936C120.106 459.048 119.814 459.204 119.574 459.404L118.986 458.312C119.322 458.056 119.726 457.86 120.198 457.724C120.67 457.588 121.17 457.52 121.698 457.52ZM121.494 462.992C121.87 462.992 122.202 462.908 122.49 462.74C122.786 462.564 122.994 462.316 123.114 461.996V461.252H121.566C120.702 461.252 120.27 461.536 120.27 462.104C120.27 462.376 120.378 462.592 120.594 462.752C120.81 462.912 121.11 462.992 121.494 462.992ZM129.269 464.084C128.749 464.084 128.241 464.016 127.745 463.88C127.249 463.744 126.853 463.572 126.557 463.364L127.133 462.224C127.421 462.416 127.765 462.572 128.165 462.692C128.573 462.804 128.973 462.86 129.365 462.86C130.261 462.86 130.709 462.624 130.709 462.152C130.709 461.928 130.593 461.772 130.361 461.684C130.137 461.596 129.773 461.512 129.269 461.432C128.741 461.352 128.309 461.26 127.973 461.156C127.645 461.052 127.357 460.872 127.109 460.616C126.869 460.352 126.749 459.988 126.749 459.524C126.749 458.916 127.001 458.432 127.505 458.072C128.017 457.704 128.705 457.52 129.569 457.52C130.009 457.52 130.449 457.572 130.889 457.676C131.329 457.772 131.689 457.904 131.969 458.072L131.393 459.212C130.849 458.892 130.237 458.732 129.557 458.732C129.117 458.732 128.781 458.8 128.549 458.936C128.325 459.064 128.213 459.236 128.213 459.452C128.213 459.692 128.333 459.864 128.573 459.968C128.821 460.064 129.201 460.156 129.713 460.244C130.225 460.324 130.645 460.416 130.973 460.52C131.301 460.624 131.581 460.8 131.813 461.048C132.053 461.296 132.173 461.648 132.173 462.104C132.173 462.704 131.913 463.184 131.393 463.544C130.873 463.904 130.165 464.084 129.269 464.084ZM137.85 457.52C138.658 457.52 139.306 457.756 139.794 458.228C140.282 458.7 140.526 459.4 140.526 460.328V464H139.026V460.52C139.026 459.96 138.894 459.54 138.63 459.26C138.366 458.972 137.99 458.828 137.502 458.828C136.95 458.828 136.514 458.996 136.194 459.332C135.874 459.66 135.714 460.136 135.714 460.76V464H134.214V455.096H135.714V458.336C135.962 458.072 136.266 457.872 136.626 457.736C136.994 457.592 137.402 457.52 137.85 457.52Z" fill="white" fill-opacity="0.87"/>
</svg>
