<?xml version="1.0" encoding="UTF-8" standalone="no"?>
<!DOCTYPE svg PUBLIC "-//W3C//DTD SVG 1.1//EN" "http://www.w3.org/Graphics/SVG/1.1/DTD/svg11.dtd">
<svg width="100%" height="100%" viewBox="0 0 892 314" version="1.1" xmlns="http://www.w3.org/2000/svg" xmlns:xlink="http://www.w3.org/1999/xlink" xml:space="preserve" xmlns:serif="http://www.serif.com/" style="fill-rule:evenodd;clip-rule:evenodd;stroke-linejoin:round;stroke-miterlimit:2;">
    <g transform="matrix(0.5,0,0,0.5,-3503,-9165)">
        <g transform="matrix(8.33333,0,0,8.33333,5400,16200)">
            <g>
                <g transform="matrix(7.6237,0,0,7.6237,234.515,330.619)">
                    <path d="M0.235,0.018C0.186,0.018 0.124,0.007 0.049,-0.014L0.049,-0.115C0.13,-0.077 0.197,-0.059 0.25,-0.059C0.29,-0.059 0.322,-0.069 0.347,-0.09C0.372,-0.111 0.384,-0.139 0.384,-0.174C0.384,-0.202 0.376,-0.226 0.36,-0.246C0.344,-0.266 0.314,-0.288 0.271,-0.313L0.221,-0.341C0.159,-0.376 0.116,-0.41 0.091,-0.441C0.065,-0.472 0.053,-0.508 0.053,-0.549C0.053,-0.605 0.073,-0.651 0.113,-0.687C0.154,-0.723 0.205,-0.741 0.268,-0.741C0.323,-0.741 0.382,-0.731 0.444,-0.713L0.444,-0.619C0.368,-0.649 0.311,-0.664 0.273,-0.664C0.238,-0.664 0.209,-0.655 0.186,-0.636C0.162,-0.617 0.151,-0.593 0.151,-0.564C0.151,-0.54 0.159,-0.519 0.176,-0.5C0.193,-0.482 0.224,-0.46 0.269,-0.434L0.321,-0.405C0.383,-0.369 0.427,-0.336 0.452,-0.304C0.476,-0.273 0.489,-0.235 0.489,-0.19C0.489,-0.128 0.466,-0.077 0.419,-0.039C0.373,-0.001 0.311,0.018 0.235,0.018Z" style="fill:rgb(240,92,45);fill-rule:nonzero;"/>
                </g>
                <g transform="matrix(7.6237,0,0,7.6237,243.102,330.619)">
                    <path d="M0.093,0L0.093,-0.723L0.497,-0.723L0.497,-0.646L0.196,-0.646L0.196,-0.414L0.448,-0.414L0.448,-0.338L0.196,-0.338L0.196,-0.077L0.518,-0.077L0.518,0L0.093,0Z" style="fill:rgb(240,92,45);fill-rule:nonzero;"/>
                </g>
                <g transform="matrix(7.6237,0,0,7.6237,250.978,330.619)">
                    <path d="M0.093,0L0.093,-0.723L0.312,-0.723C0.381,-0.723 0.434,-0.707 0.471,-0.677C0.508,-0.646 0.527,-0.602 0.527,-0.543C0.527,-0.447 0.478,-0.379 0.381,-0.338L0.622,0L0.496,0L0.291,-0.306L0.195,-0.306L0.195,0L0.093,0ZM0.195,-0.382L0.228,-0.382C0.357,-0.382 0.421,-0.433 0.421,-0.534C0.421,-0.609 0.367,-0.646 0.259,-0.646L0.195,-0.646L0.195,-0.382Z" style="fill:rgb(240,92,45);fill-rule:nonzero;"/>
                </g>
                <g transform="matrix(7.6237,0,0,7.6237,259.685,330.619)">
                    <path d="M0.291,0L0.018,-0.723L0.12,-0.723L0.344,-0.131L0.56,-0.723L0.649,-0.723L0.387,0L0.291,0Z" style="fill:rgb(240,92,45);fill-rule:nonzero;"/>
                </g>
                <g transform="matrix(7.6237,0,0,7.6237,269.15,330.619)">
                    <rect x="0.093" y="-0.723" width="0.103" height="0.723" style="fill:rgb(240,92,45);fill-rule:nonzero;"/>
                </g>
                <g transform="matrix(7.6237,0,0,7.6237,274.791,330.619)">
                    <path d="M0.403,0.018C0.291,0.018 0.204,-0.015 0.143,-0.081C0.081,-0.147 0.051,-0.24 0.051,-0.361C0.051,-0.481 0.082,-0.575 0.144,-0.641C0.207,-0.708 0.294,-0.741 0.408,-0.741C0.472,-0.741 0.548,-0.73 0.635,-0.709L0.635,-0.613C0.536,-0.647 0.46,-0.664 0.406,-0.664C0.328,-0.664 0.267,-0.638 0.224,-0.584C0.181,-0.531 0.16,-0.457 0.16,-0.36C0.16,-0.268 0.183,-0.195 0.229,-0.142C0.274,-0.089 0.337,-0.062 0.417,-0.062C0.485,-0.062 0.558,-0.083 0.636,-0.125L0.636,-0.037C0.565,0 0.487,0.018 0.403,0.018Z" style="fill:rgb(240,92,45);fill-rule:nonzero;"/>
                </g>
                <g transform="matrix(7.6237,0,0,7.6237,284.023,330.619)">
                    <path d="M0.093,0L0.093,-0.723L0.497,-0.723L0.497,-0.646L0.196,-0.646L0.196,-0.414L0.448,-0.414L0.448,-0.338L0.196,-0.338L0.196,-0.077L0.518,-0.077L0.518,0L0.093,0Z" style="fill:rgb(240,92,45);fill-rule:nonzero;"/>
                </g>
                <g transform="matrix(7.6237,0,0,7.6237,298.635,330.619)">
                    <path d="M0.093,0L0.093,-0.723L0.312,-0.723C0.381,-0.723 0.434,-0.707 0.471,-0.677C0.508,-0.646 0.527,-0.602 0.527,-0.543C0.527,-0.447 0.478,-0.379 0.381,-0.338L0.622,0L0.496,0L0.291,-0.306L0.195,-0.306L0.195,0L0.093,0ZM0.195,-0.382L0.228,-0.382C0.357,-0.382 0.421,-0.433 0.421,-0.534C0.421,-0.609 0.367,-0.646 0.259,-0.646L0.195,-0.646L0.195,-0.382Z" style="fill:rgb(240,92,45);fill-rule:nonzero;"/>
                </g>
                <g transform="matrix(7.6237,0,0,7.6237,307.341,330.619)">
                    <path d="M0.093,0L0.093,-0.723L0.497,-0.723L0.497,-0.646L0.196,-0.646L0.196,-0.414L0.448,-0.414L0.448,-0.338L0.196,-0.338L0.196,-0.077L0.518,-0.077L0.518,0L0.093,0Z" style="fill:rgb(240,92,45);fill-rule:nonzero;"/>
                </g>
                <g transform="matrix(7.6237,0,0,7.6237,315.954,330.619)">
                    <rect x="0.072" y="-0.325" width="0.434" height="0.072" style="fill:rgb(240,92,45);fill-rule:nonzero;"/>
                </g>
                <g transform="matrix(7.6237,0,0,7.6237,320.522,330.619)">
                    <path d="M0.093,0L0.093,-0.723L0.497,-0.723L0.497,-0.646L0.196,-0.646L0.196,-0.414L0.448,-0.414L0.448,-0.338L0.196,-0.338L0.196,-0.077L0.518,-0.077L0.518,0L0.093,0Z" style="fill:rgb(240,92,45);fill-rule:nonzero;"/>
                </g>
                <g transform="matrix(7.6237,0,0,7.6237,331.211,330.619)">
                    <path d="M0.093,0L0.093,-0.723L0.194,-0.723L0.558,-0.165L0.558,-0.723L0.646,-0.723L0.646,0L0.545,0L0.181,-0.558L0.181,0L0.093,0Z" style="fill:rgb(240,92,45);fill-rule:nonzero;"/>
                </g>
                <g transform="matrix(7.6237,0,0,7.6237,341.324,330.619)">
                    <path d="M0.636,-0.02C0.549,0.006 0.472,0.018 0.407,0.018C0.292,0.018 0.204,-0.015 0.143,-0.08C0.081,-0.146 0.051,-0.239 0.051,-0.361C0.051,-0.481 0.082,-0.574 0.144,-0.641C0.206,-0.707 0.293,-0.741 0.406,-0.741C0.479,-0.741 0.556,-0.73 0.635,-0.708L0.635,-0.613C0.536,-0.647 0.459,-0.664 0.406,-0.664C0.328,-0.664 0.267,-0.638 0.224,-0.584C0.181,-0.531 0.16,-0.457 0.16,-0.36C0.16,-0.265 0.183,-0.191 0.229,-0.138C0.275,-0.085 0.34,-0.059 0.423,-0.059C0.458,-0.059 0.494,-0.065 0.534,-0.077L0.534,-0.312L0.636,-0.312L0.636,-0.02Z" style="fill:rgb(240,92,45);fill-rule:nonzero;"/>
                </g>
                <g transform="matrix(7.6237,0,0,7.6237,350.812,330.619)">
                    <rect x="0.093" y="-0.723" width="0.103" height="0.723" style="fill:rgb(240,92,45);fill-rule:nonzero;"/>
                </g>
                <g transform="matrix(7.6237,0,0,7.6237,356.827,330.619)">
                    <path d="M0.093,0L0.093,-0.723L0.194,-0.723L0.558,-0.165L0.558,-0.723L0.646,-0.723L0.646,0L0.545,0L0.181,-0.558L0.181,0L0.093,0Z" style="fill:rgb(240,92,45);fill-rule:nonzero;"/>
                </g>
                <g transform="matrix(7.6237,0,0,7.6237,366.94,330.619)">
                    <path d="M0.093,0L0.093,-0.723L0.497,-0.723L0.497,-0.646L0.196,-0.646L0.196,-0.414L0.448,-0.414L0.448,-0.338L0.196,-0.338L0.196,-0.077L0.518,-0.077L0.518,0L0.093,0Z" style="fill:rgb(240,92,45);fill-rule:nonzero;"/>
                </g>
                <g transform="matrix(7.6237,0,0,7.6237,375.036,330.619)">
                    <path d="M0.093,0L0.093,-0.723L0.497,-0.723L0.497,-0.646L0.196,-0.646L0.196,-0.414L0.448,-0.414L0.448,-0.338L0.196,-0.338L0.196,-0.077L0.518,-0.077L0.518,0L0.093,0Z" style="fill:rgb(240,92,45);fill-rule:nonzero;"/>
                </g>
                <g transform="matrix(7.6237,0,0,7.6237,383.649,330.619)">
                    <path d="M0.093,0L0.093,-0.723L0.312,-0.723C0.381,-0.723 0.434,-0.707 0.471,-0.677C0.508,-0.646 0.527,-0.602 0.527,-0.543C0.527,-0.447 0.478,-0.379 0.381,-0.338L0.622,0L0.496,0L0.291,-0.306L0.195,-0.306L0.195,0L0.093,0ZM0.195,-0.382L0.228,-0.382C0.357,-0.382 0.421,-0.433 0.421,-0.534C0.421,-0.609 0.367,-0.646 0.259,-0.646L0.195,-0.646L0.195,-0.382Z" style="fill:rgb(240,92,45);fill-rule:nonzero;"/>
                </g>
                <g transform="matrix(7.6237,0,0,7.6237,391.98,330.619)">
                    <path d="M0.093,0L0.093,-0.723L0.497,-0.723L0.497,-0.646L0.196,-0.646L0.196,-0.414L0.448,-0.414L0.448,-0.338L0.196,-0.338L0.196,-0.077L0.518,-0.077L0.518,0L0.093,0Z" style="fill:rgb(240,92,45);fill-rule:nonzero;"/>
                </g>
                <g transform="matrix(7.6237,0,0,7.6237,400.592,330.619)">
                    <path d="M0.093,0L0.093,-0.723L0.333,-0.723C0.405,-0.723 0.463,-0.715 0.507,-0.699C0.551,-0.683 0.589,-0.656 0.622,-0.618C0.673,-0.557 0.698,-0.477 0.698,-0.378C0.698,-0.258 0.667,-0.165 0.603,-0.099C0.54,-0.033 0.45,0 0.335,0L0.093,0ZM0.196,-0.077L0.327,-0.077C0.421,-0.077 0.487,-0.102 0.526,-0.152C0.568,-0.206 0.589,-0.278 0.589,-0.369C0.589,-0.454 0.569,-0.52 0.527,-0.569C0.502,-0.598 0.472,-0.619 0.438,-0.63C0.403,-0.641 0.35,-0.646 0.28,-0.646L0.196,-0.646L0.196,-0.077Z" style="fill:rgb(240,92,45);fill-rule:nonzero;"/>
                </g>
            </g>
            <g transform="matrix(1,0,0,1,226.361,295.991)">
                <path d="M0,-4.479C-1.235,-5.25 -2.867,-4.875 -3.64,-3.64C-4.411,-2.406 -4.035,-0.773 -2.801,-0.001C-1.566,0.771 0.066,0.395 0.839,-0.84C1.61,-2.075 1.234,-3.707 0,-4.479M-3.15,0.559C-4.693,-0.407 -5.164,-2.447 -4.199,-3.99C-3.234,-5.533 -1.193,-6.003 0.35,-5.039C1.893,-4.074 2.363,-2.033 1.398,-0.49C0.434,1.053 -1.607,1.524 -3.15,0.559" style="fill:rgb(240,92,45);fill-rule:nonzero;"/>
            </g>
            <g transform="matrix(1,0,0,1,239.953,267.511)">
                <path d="M0,3.101C-1.173,3.101 -2.124,2.149 -2.124,0.976C-2.124,-0.197 -1.173,-1.149 0,-1.149C1.174,-1.149 2.125,-0.197 2.125,0.976C2.125,2.149 1.174,3.101 0,3.101M-4.2,-7.262L-9.964,1.955L-7.133,3.725C-7.133,3.725 -5.483,2.876 -2.396,4.808C0.612,6.688 0.652,8.593 0.652,8.593L3.482,10.363L9.246,1.146L-4.2,-7.262Z" style="fill:rgb(240,92,45);fill-rule:nonzero;"/>
            </g>
            <g transform="matrix(-0.847878,-0.530192,-0.530192,0.847878,240.183,256.018)">
                <rect x="-14.346" y="4.116" width="15.859" height="1.157" style="fill:rgb(240,92,45);"/>
            </g>
            <g transform="matrix(-0.847878,-0.530192,-0.530192,0.847878,241.148,254.474)">
                <rect x="-14.346" y="4.116" width="15.859" height="1.157" style="fill:rgb(240,92,45);"/>
            </g>
            <g transform="matrix(1,0,0,1,251.481,255.617)">
                <path d="M0,9.39L-13.445,0.982L-12.832,0C-12.832,0 -10.033,0.677 -5.626,3.432C-1.22,6.188 0.614,8.409 0.614,8.409L0,9.39Z" style="fill:rgb(240,92,45);fill-rule:nonzero;"/>
            </g>
            <g transform="matrix(1,0,0,1,227.646,283.548)">
                <path d="M0,0.112L0.07,0C0.07,0 0.052,0.037 0,0.112" style="fill:rgb(240,92,45);fill-rule:nonzero;"/>
            </g>
            <g transform="matrix(1,0,0,1,225.714,273.147)">
                <path d="M0,24.342L-0.024,24.342C-1.034,24.539 -2.125,24.335 -3.035,23.658C-4.503,22.567 -4.987,20.528 -4.162,18.894C-3.237,17.065 -1.104,16.343 0.687,17.077C1.075,17.233 1.494,17.287 1.974,17.288C2.794,17.288 3.568,16.913 4.004,16.217L13.388,1.21C13.388,1.21 12.797,0.438 11.542,-0.346C10.288,-1.131 9.335,-1.325 9.335,-1.325L2.003,10.401C2.003,10.401 1.984,10.438 1.933,10.513C1.769,10.745 1.253,11.334 -0.183,12.213C-2.302,13.514 -3.72,14.184 -4.139,14.459C-4.556,14.736 -5.537,15.657 -5.909,17.291C-6.304,19.033 -6.457,21.03 -6.273,22.206C-6.167,22.893 -5.604,24.142 -4.186,24.804C-2.767,25.468 -0.92,25.667 -0.009,25.566C0.799,25.478 1.109,24.319 0,24.342" style="fill:rgb(240,92,45);fill-rule:nonzero;"/>
            </g>
            <g transform="matrix(1,0,0,1,226,274.919)">
                <path d="M0,37.578C-2.302,37.759 -4.678,37.515 -7.021,36.787C-16.842,33.734 -22.313,23.269 -19.242,13.411C-16.177,3.573 -5.728,-1.907 4.12,1.16C4.54,1.29 4.949,1.439 5.353,1.597L8.053,-2.668C7.879,-2.689 7.722,-2.698 7.586,-2.698C7.076,-2.698 6.811,-2.579 6.808,-2.578L6.571,-2.607L6.272,-2.807L2.542,-5.151C2.542,-5.151 3.351,-6.474 3.507,-6.689C2.938,-8.55 2.367,-10.354 1.786,-12.211C1.575,-12.888 1.373,-13.034 0.668,-13.019C-1.114,-12.98 -2.896,-12.939 -4.679,-12.898C-5.417,-12.881 -5.595,-12.741 -5.765,-12.007C-6.187,-10.183 -6.615,-8.36 -7.017,-6.531C-7.146,-5.942 -7.465,-5.606 -8.043,-5.457C-8.571,-5.321 -9.093,-5.156 -9.605,-4.97C-10.169,-4.766 -10.622,-4.897 -11.069,-5.278C-12.527,-6.52 -14.004,-7.741 -15.474,-8.969C-16.007,-9.415 -16.265,-9.427 -16.852,-9.036C-18.3,-8.07 -19.747,-7.104 -21.193,-6.136C-21.73,-5.776 -21.813,-5.522 -21.592,-4.902C-20.955,-3.125 -20.326,-1.345 -19.673,0.426C-19.479,0.953 -19.536,1.387 -19.916,1.809C-20.398,2.346 -20.86,2.902 -21.307,3.469C-21.664,3.922 -22.099,4.075 -22.666,3.998C-24.535,3.748 -26.408,3.522 -28.279,3.281C-29.041,3.183 -29.271,3.267 -29.575,3.953C-30.3,5.583 -30.987,7.228 -31.705,8.86C-31.866,9.226 -31.766,9.429 -31.457,9.661C-29.856,10.865 -28.278,12.1 -26.682,13.311C-26.272,13.621 -26.111,14.001 -26.176,14.5C-26.29,15.377 -26.414,16.253 -26.502,17.132C-26.559,17.694 -26.843,18.033 -27.344,18.267C-29.066,19.077 -30.778,19.906 -32.493,20.729C-33.133,21.036 -33.247,21.261 -33.127,21.954C-32.855,23.521 -32.583,25.09 -32.31,26.657C-32.175,27.432 -32.008,27.582 -31.215,27.647C-29.335,27.803 -27.456,27.966 -25.575,28.109C-25.08,28.147 -24.753,28.375 -24.539,28.81C-24.104,29.698 -23.663,30.583 -23.22,31.466C-23.01,31.885 -23.027,32.277 -23.278,32.68C-24.291,34.305 -25.294,35.936 -26.301,37.565C-26.705,38.219 -26.685,38.445 -26.162,39.004C-25.084,40.154 -24.004,41.305 -22.925,42.454C-22.421,42.991 -22.198,43.026 -21.534,42.674C-19.88,41.796 -18.221,40.926 -16.576,40.029C-16.053,39.745 -15.593,39.743 -15.085,40.058C-14.309,40.539 -13.514,40.992 -12.715,41.433C-12.249,41.69 -12.053,42.06 -12.047,42.583C-12.025,44.469 -11.988,46.353 -11.956,48.238C-11.944,48.958 -11.8,49.199 -11.098,49.373C-9.48,49.772 -7.855,50.137 -6.231,50.505C-5.759,50.612 -5.414,50.442 -5.17,50.002C-4.221,48.288 -3.247,46.587 -2.299,44.872C-2.037,44.399 -1.676,44.162 -1.134,44.141C-0.756,44.127 -0.378,44.107 0,44.086L0,37.578Z" style="fill:rgb(240,92,45);fill-rule:nonzero;"/>
            </g>
            <g transform="matrix(1,0,0,1,242.561,275.489)">
                <path d="M0,13.571L6.897,13.571C6.843,13.29 6.786,13.009 6.725,12.73C6.614,12.234 6.757,11.842 7.135,11.505C8.576,10.221 10.011,8.928 11.446,7.637C11.96,7.175 12.006,6.908 11.687,6.281C10.857,4.651 10.027,3.022 9.196,1.392C8.871,0.755 8.654,0.649 7.959,0.791C6.082,1.176 4.265,1.547 2.392,1.949C2.096,2.373 1.223,3.782 1.223,3.782L-2.8,1.305L-2.896,1.153C-2.896,1.151 -2.934,0.684 -3.373,0L-5.985,4.123C-3.062,6.592 -0.98,9.907 0,13.571" style="fill:rgb(240,92,45);fill-rule:nonzero;"/>
            </g>
            <g transform="matrix(1,0,0,1,241.862,309.459)">
                <path d="M0,-13.783L-1.528,-16.684L-1.646,-16.684L-3.176,-13.783L-11.938,2.844L-8.763,2.844L-1.588,-10.77L5.617,2.901L8.793,2.901L0,-13.783Z" style="fill:rgb(240,92,45);fill-rule:nonzero;"/>
            </g>
            <g transform="matrix(1,0,0,1,257.801,312.602)">
                <path d="M0,-19.166L0,-10.001C0,-8.545 0.352,-7.101 1.084,-5.843C1.936,-4.379 3.408,-2.923 5.889,-2.956C11.448,-3.03 11.977,-9.176 11.977,-9.176L11.977,-19.166L14.623,-19.166L14.623,-9.462C14.623,-8.645 14.519,-7.833 14.301,-7.046C13.643,-4.679 11.69,-0.588 6.021,-0.243C2.026,0 -0.199,-2.401 -1.412,-4.737C-2.338,-6.52 -2.778,-8.516 -2.778,-10.524L-2.778,-19.166L0,-19.166Z" style="fill:rgb(240,92,45);fill-rule:nonzero;"/>
            </g>
            <g transform="matrix(1,0,0,1,292.074,312.375)">
                <path d="M0,-18.939L-6.021,-18.939L-8.733,-18.939L-14.754,-18.939L-14.754,-16.359L-8.733,-16.359L-8.733,0L-6.021,0L-6.021,-16.359L0,-16.359L0,-18.939Z" style="fill:rgb(240,92,45);fill-rule:nonzero;"/>
            </g>
            <g transform="matrix(1,0,0,1,306.499,312.67)">
                <path d="M0,-19.527C-5.384,-19.527 -9.764,-15.147 -9.764,-9.763C-9.764,-4.38 -5.384,0 0,0C5.383,0 9.763,-4.38 9.763,-9.763C9.763,-15.147 5.383,-19.527 0,-19.527M0,-16.805C3.889,-16.805 7.042,-13.653 7.042,-9.763C7.042,-5.874 3.889,-2.721 0,-2.721C-3.89,-2.721 -7.043,-5.874 -7.043,-9.763C-7.043,-13.653 -3.89,-16.805 0,-16.805" style="fill:rgb(240,92,45);fill-rule:nonzero;"/>
            </g>
            <g transform="matrix(1,0,0,1,338.367,313.17)">
                <path d="M0,-21.917L-2.679,-17.106L-8.615,-6.446L-14.401,-16.837L-17.18,-21.827L-17.18,-0.5L-14.401,-0.5L-14.401,-10.391L-10.41,-3.224L-8.615,0L-6.82,-3.224L-2.679,-10.66L-2.679,-0.5L0.1,-0.5L0.1,-15.65L0.1,-21.917L0,-21.917Z" style="fill:rgb(240,92,45);fill-rule:nonzero;"/>
            </g>
            <g transform="matrix(1,0,0,1,353.144,312.67)">
                <path d="M0,-19.527C-5.383,-19.527 -9.763,-15.147 -9.763,-9.763C-9.763,-4.38 -5.383,0 0,0C5.384,0 9.764,-4.38 9.764,-9.763C9.764,-15.147 5.384,-19.527 0,-19.527M0,-16.805C3.89,-16.805 7.043,-13.653 7.043,-9.763C7.043,-5.874 3.89,-2.721 0,-2.721C-3.889,-2.721 -7.042,-5.874 -7.042,-9.763C-7.042,-13.653 -3.889,-16.805 0,-16.805" style="fill:rgb(240,92,45);fill-rule:nonzero;"/>
            </g>
            <g transform="matrix(1,0,0,1,396.946,312.67)">
                <path d="M0,-19.527C-5.384,-19.527 -9.764,-15.147 -9.764,-9.763C-9.764,-4.38 -5.384,0 0,0C5.383,0 9.763,-4.38 9.763,-9.763C9.763,-15.147 5.383,-19.527 0,-19.527M0,-16.805C3.889,-16.805 7.042,-13.653 7.042,-9.763C7.042,-5.874 3.889,-2.721 0,-2.721C-3.89,-2.721 -7.043,-5.874 -7.043,-9.763C-7.043,-13.653 -3.89,-16.805 0,-16.805" style="fill:rgb(240,92,45);fill-rule:nonzero;"/>
            </g>
            <g transform="matrix(1,0,0,1,382.423,312.375)">
                <path d="M0,-18.939L-6.021,-18.939L-8.733,-18.939L-14.755,-18.939L-14.755,-16.359L-8.733,-16.359L-8.733,0L-6.021,0L-6.021,-16.359L0,-16.359L0,-18.939Z" style="fill:rgb(240,92,45);fill-rule:nonzero;"/>
            </g>
        </g>
    </g>
</svg>
