<svg width="208" height="261" viewBox="0 0 208 261" fill="none" xmlns="http://www.w3.org/2000/svg">
<g filter="url(#filter0_d)">
<rect width="200" height="253" rx="8" fill="white" fill-opacity="0.08"/>
<rect width="200" height="253" rx="8" fill="#121212" fill-opacity="0.08"/>
</g>
<path d="M43.505 186.913C42.857 186.913 42.229 186.821 41.621 186.637C41.021 186.453 40.545 186.209 40.193 185.905L40.733 184.693C41.077 184.965 41.497 185.189 41.993 185.365C42.497 185.533 43.001 185.617 43.505 185.617C44.129 185.617 44.593 185.517 44.897 185.317C45.209 185.117 45.365 184.853 45.365 184.525C45.365 184.285 45.277 184.089 45.101 183.937C44.933 183.777 44.717 183.653 44.453 183.565C44.189 183.477 43.829 183.377 43.373 183.265C42.733 183.113 42.213 182.961 41.813 182.809C41.421 182.657 41.081 182.421 40.793 182.101C40.513 181.773 40.373 181.333 40.373 180.781C40.373 180.317 40.497 179.897 40.745 179.521C41.001 179.137 41.381 178.833 41.885 178.609C42.397 178.385 43.021 178.273 43.757 178.273C44.269 178.273 44.773 178.337 45.269 178.465C45.765 178.593 46.193 178.777 46.553 179.017L46.061 180.229C45.693 180.013 45.309 179.849 44.909 179.737C44.509 179.625 44.121 179.569 43.745 179.569C43.129 179.569 42.669 179.673 42.365 179.881C42.069 180.089 41.921 180.365 41.921 180.709C41.921 180.949 42.005 181.145 42.173 181.297C42.349 181.449 42.569 181.569 42.833 181.657C43.097 181.745 43.457 181.845 43.913 181.957C44.537 182.101 45.049 182.253 45.449 182.413C45.849 182.565 46.189 182.801 46.469 183.121C46.757 183.441 46.901 183.873 46.901 184.417C46.901 184.881 46.773 185.301 46.517 185.677C46.269 186.053 45.889 186.353 45.377 186.577C44.865 186.801 44.241 186.913 43.505 186.913ZM56.9139 186.793L56.9019 181.225L54.1419 185.833H53.4459L50.6859 181.297V186.793H49.1979V178.393H50.4819L53.8179 183.961L57.0939 178.393H58.3779L58.3899 186.793H56.9139ZM66.8569 184.849H62.6569L61.8289 186.793H60.2209L64.0009 178.393H65.5369L69.3289 186.793H67.6969L66.8569 184.849ZM66.3409 183.625L64.7569 179.953L63.1849 183.625H66.3409ZM76.6431 186.793L74.9271 184.333C74.8551 184.341 74.7471 184.345 74.6031 184.345H72.7071V186.793H71.1471V178.393H74.6031C75.3311 178.393 75.9631 178.513 76.4991 178.753C77.0431 178.993 77.4591 179.337 77.7471 179.785C78.0351 180.233 78.1791 180.765 78.1791 181.381C78.1791 182.013 78.0231 182.557 77.7111 183.013C77.4071 183.469 76.9671 183.809 76.3911 184.033L78.3231 186.793H76.6431ZM76.6071 181.381C76.6071 180.845 76.4311 180.433 76.0791 180.145C75.7271 179.857 75.2111 179.713 74.5311 179.713H72.7071V183.061H74.5311C75.2111 183.061 75.7271 182.917 76.0791 182.629C76.4311 182.333 76.6071 181.917 76.6071 181.381ZM82.2613 179.713H79.4773V178.393H86.6053V179.713H83.8213V186.793H82.2613V179.713ZM95.5684 181.861C96.3444 181.957 96.9364 182.221 97.3444 182.653C97.7524 183.085 97.9564 183.625 97.9564 184.273C97.9564 184.761 97.8324 185.205 97.5844 185.605C97.3364 186.005 96.9604 186.325 96.4564 186.565C95.9604 186.797 95.3524 186.913 94.6324 186.913C94.0324 186.913 93.4524 186.829 92.8924 186.661C92.3404 186.485 91.8684 186.245 91.4764 185.941L92.1484 184.729C92.4524 184.985 92.8204 185.189 93.2524 185.341C93.6924 185.485 94.1444 185.557 94.6084 185.557C95.1604 185.557 95.5924 185.445 95.9044 185.221C96.2244 184.989 96.3844 184.677 96.3844 184.285C96.3844 183.893 96.2324 183.589 95.9284 183.373C95.6324 183.149 95.1764 183.037 94.5604 183.037H93.7924V181.969L95.7004 179.701H91.8844V178.393H97.6084V179.437L95.5684 181.861ZM103.543 181.609C104.095 181.609 104.591 181.717 105.031 181.933C105.471 182.141 105.815 182.441 106.063 182.833C106.311 183.225 106.435 183.677 106.435 184.189C106.435 184.733 106.299 185.213 106.027 185.629C105.755 186.037 105.387 186.353 104.923 186.577C104.459 186.801 103.939 186.913 103.363 186.913C102.211 186.913 101.315 186.553 100.675 185.833C100.043 185.113 99.7268 184.081 99.7268 182.737C99.7268 181.793 99.8988 180.989 100.243 180.325C100.587 179.653 101.067 179.145 101.683 178.801C102.307 178.449 103.027 178.273 103.843 178.273C104.275 178.273 104.679 178.321 105.055 178.417C105.439 178.505 105.771 178.637 106.051 178.813L105.475 179.989C105.059 179.717 104.527 179.581 103.879 179.581C103.071 179.581 102.439 179.829 101.983 180.325C101.527 180.821 101.299 181.537 101.299 182.473V182.485C101.547 182.197 101.863 181.981 102.247 181.837C102.631 181.685 103.063 181.609 103.543 181.609ZM103.279 185.689C103.767 185.689 104.163 185.561 104.467 185.305C104.771 185.041 104.923 184.693 104.923 184.261C104.923 183.821 104.771 183.473 104.467 183.217C104.163 182.961 103.755 182.833 103.243 182.833C102.739 182.833 102.327 182.969 102.007 183.241C101.695 183.513 101.539 183.857 101.539 184.273C101.539 184.681 101.691 185.021 101.995 185.293C102.307 185.557 102.735 185.689 103.279 185.689ZM111.504 186.913C110.832 186.913 110.232 186.745 109.704 186.409C109.176 186.065 108.76 185.569 108.456 184.921C108.152 184.265 108 183.489 108 182.593C108 181.697 108.152 180.925 108.456 180.277C108.76 179.621 109.176 179.125 109.704 178.789C110.232 178.445 110.832 178.273 111.504 178.273C112.176 178.273 112.776 178.445 113.304 178.789C113.84 179.125 114.26 179.621 114.564 180.277C114.868 180.925 115.02 181.697 115.02 182.593C115.02 183.489 114.868 184.265 114.564 184.921C114.26 185.569 113.84 186.065 113.304 186.409C112.776 186.745 112.176 186.913 111.504 186.913ZM111.504 185.557C112.104 185.557 112.576 185.309 112.92 184.813C113.272 184.317 113.448 183.577 113.448 182.593C113.448 181.609 113.272 180.869 112.92 180.373C112.576 179.877 112.104 179.629 111.504 179.629C110.912 179.629 110.44 179.877 110.088 180.373C109.744 180.869 109.572 181.609 109.572 182.593C109.572 183.577 109.744 184.317 110.088 184.813C110.44 185.309 110.912 185.557 111.504 185.557ZM121.491 178.393H125.163C126.059 178.393 126.855 178.569 127.551 178.921C128.247 179.265 128.787 179.757 129.171 180.397C129.555 181.029 129.747 181.761 129.747 182.593C129.747 183.425 129.555 184.161 129.171 184.801C128.787 185.433 128.247 185.925 127.551 186.277C126.855 186.621 126.059 186.793 125.163 186.793H121.491V178.393ZM125.091 185.473C125.707 185.473 126.247 185.357 126.711 185.125C127.183 184.885 127.543 184.549 127.791 184.117C128.047 183.677 128.175 183.169 128.175 182.593C128.175 182.017 128.047 181.513 127.791 181.081C127.543 180.641 127.183 180.305 126.711 180.073C126.247 179.833 125.707 179.713 125.091 179.713H123.051V185.473H125.091ZM137.486 184.849H133.286L132.458 186.793H130.85L134.63 178.393H136.166L139.958 186.793H138.326L137.486 184.849ZM136.97 183.625L135.386 179.953L133.814 183.625H136.97ZM144.38 186.913C143.732 186.913 143.104 186.821 142.496 186.637C141.896 186.453 141.42 186.209 141.068 185.905L141.608 184.693C141.952 184.965 142.372 185.189 142.868 185.365C143.372 185.533 143.876 185.617 144.38 185.617C145.004 185.617 145.468 185.517 145.772 185.317C146.084 185.117 146.24 184.853 146.24 184.525C146.24 184.285 146.152 184.089 145.976 183.937C145.808 183.777 145.592 183.653 145.328 183.565C145.064 183.477 144.704 183.377 144.248 183.265C143.608 183.113 143.088 182.961 142.688 182.809C142.296 182.657 141.956 182.421 141.668 182.101C141.388 181.773 141.248 181.333 141.248 180.781C141.248 180.317 141.372 179.897 141.62 179.521C141.876 179.137 142.256 178.833 142.76 178.609C143.272 178.385 143.896 178.273 144.632 178.273C145.144 178.273 145.648 178.337 146.144 178.465C146.64 178.593 147.068 178.777 147.428 179.017L146.936 180.229C146.568 180.013 146.184 179.849 145.784 179.737C145.384 179.625 144.996 179.569 144.62 179.569C144.004 179.569 143.544 179.673 143.24 179.881C142.944 180.089 142.796 180.365 142.796 180.709C142.796 180.949 142.88 181.145 143.048 181.297C143.224 181.449 143.444 181.569 143.708 181.657C143.972 181.745 144.332 181.845 144.788 181.957C145.412 182.101 145.924 182.253 146.324 182.413C146.724 182.565 147.064 182.801 147.344 183.121C147.632 183.441 147.776 183.873 147.776 184.417C147.776 184.881 147.648 185.301 147.392 185.677C147.144 186.053 146.764 186.353 146.252 186.577C145.74 186.801 145.116 186.913 144.38 186.913ZM157.537 178.393V186.793H155.977V183.193H151.633V186.793H150.073V178.393H151.633V181.861H155.977V178.393H157.537ZM75.334 202.913C74.486 202.913 73.718 202.729 73.03 202.361C72.35 201.985 71.814 201.469 71.422 200.813C71.038 200.157 70.846 199.417 70.846 198.593C70.846 197.769 71.042 197.029 71.434 196.373C71.826 195.717 72.362 195.205 73.042 194.837C73.73 194.461 74.498 194.273 75.346 194.273C76.034 194.273 76.662 194.393 77.23 194.633C77.798 194.873 78.278 195.221 78.67 195.677L77.662 196.625C77.054 195.969 76.306 195.641 75.418 195.641C74.842 195.641 74.326 195.769 73.87 196.025C73.414 196.273 73.058 196.621 72.802 197.069C72.546 197.517 72.418 198.025 72.418 198.593C72.418 199.161 72.546 199.669 72.802 200.117C73.058 200.565 73.414 200.917 73.87 201.173C74.326 201.421 74.842 201.545 75.418 201.545C76.306 201.545 77.054 201.213 77.662 200.549L78.67 201.509C78.278 201.965 77.794 202.313 77.218 202.553C76.65 202.793 76.022 202.913 75.334 202.913ZM86.1869 200.849H81.9869L81.1589 202.793H79.5509L83.3309 194.393H84.8669L88.6589 202.793H87.0269L86.1869 200.849ZM85.6709 199.625L84.0869 195.953L82.5149 199.625H85.6709ZM98.1932 202.793L98.1812 197.225L95.4212 201.833H94.7252L91.9652 197.297V202.793H90.4772V194.393H91.7612L95.0972 199.961L98.3732 194.393H99.6572L99.6692 202.793H98.1932ZM108.988 201.485V202.793H102.688V194.393H108.82V195.701H104.248V197.885H108.304V199.169H104.248V201.485H108.988ZM116.973 202.793L115.257 200.333C115.185 200.341 115.077 200.345 114.933 200.345H113.037V202.793H111.477V194.393H114.933C115.661 194.393 116.293 194.513 116.829 194.753C117.373 194.993 117.789 195.337 118.077 195.785C118.365 196.233 118.509 196.765 118.509 197.381C118.509 198.013 118.353 198.557 118.041 199.013C117.737 199.469 117.297 199.809 116.721 200.033L118.653 202.793H116.973ZM116.937 197.381C116.937 196.845 116.761 196.433 116.409 196.145C116.057 195.857 115.541 195.713 114.861 195.713H113.037V199.061H114.861C115.541 199.061 116.057 198.917 116.409 198.629C116.761 198.333 116.937 197.917 116.937 197.381ZM126.453 200.849H122.253L121.425 202.793H119.817L123.597 194.393H125.133L128.925 202.793H127.293L126.453 200.849ZM125.937 199.625L124.353 195.953L122.781 199.625H125.937ZM62.1231 213.861C62.8991 213.957 63.4911 214.221 63.8991 214.653C64.3071 215.085 64.5111 215.625 64.5111 216.273C64.5111 216.761 64.3871 217.205 64.1391 217.605C63.8911 218.005 63.5151 218.325 63.0111 218.565C62.5151 218.797 61.9071 218.913 61.1871 218.913C60.5871 218.913 60.0071 218.829 59.4471 218.661C58.8951 218.485 58.4231 218.245 58.0311 217.941L58.7031 216.729C59.0071 216.985 59.3751 217.189 59.8071 217.341C60.2471 217.485 60.6991 217.557 61.1631 217.557C61.7151 217.557 62.1471 217.445 62.4591 217.221C62.7791 216.989 62.9391 216.677 62.9391 216.285C62.9391 215.893 62.7871 215.589 62.4831 215.373C62.1871 215.149 61.7311 215.037 61.1151 215.037H60.3471V213.969L62.2551 211.701H58.4391V210.393H64.1631V211.437L62.1231 213.861ZM70.0975 213.609C70.6495 213.609 71.1455 213.717 71.5855 213.933C72.0255 214.141 72.3695 214.441 72.6175 214.833C72.8655 215.225 72.9895 215.677 72.9895 216.189C72.9895 216.733 72.8535 217.213 72.5815 217.629C72.3095 218.037 71.9415 218.353 71.4775 218.577C71.0135 218.801 70.4935 218.913 69.9175 218.913C68.7655 218.913 67.8695 218.553 67.2295 217.833C66.5975 217.113 66.2815 216.081 66.2815 214.737C66.2815 213.793 66.4535 212.989 66.7975 212.325C67.1415 211.653 67.6215 211.145 68.2375 210.801C68.8615 210.449 69.5815 210.273 70.3975 210.273C70.8295 210.273 71.2335 210.321 71.6095 210.417C71.9935 210.505 72.3255 210.637 72.6055 210.813L72.0295 211.989C71.6135 211.717 71.0815 211.581 70.4335 211.581C69.6255 211.581 68.9935 211.829 68.5375 212.325C68.0815 212.821 67.8535 213.537 67.8535 214.473V214.485C68.1015 214.197 68.4175 213.981 68.8015 213.837C69.1855 213.685 69.6175 213.609 70.0975 213.609ZM69.8335 217.689C70.3215 217.689 70.7175 217.561 71.0215 217.305C71.3255 217.041 71.4775 216.693 71.4775 216.261C71.4775 215.821 71.3255 215.473 71.0215 215.217C70.7175 214.961 70.3095 214.833 69.7975 214.833C69.2935 214.833 68.8815 214.969 68.5615 215.241C68.2495 215.513 68.0935 215.857 68.0935 216.273C68.0935 216.681 68.2455 217.021 68.5495 217.293C68.8615 217.557 69.2895 217.689 69.8335 217.689ZM78.0589 218.913C77.3869 218.913 76.7869 218.745 76.2589 218.409C75.7309 218.065 75.3149 217.569 75.0109 216.921C74.7069 216.265 74.5549 215.489 74.5549 214.593C74.5549 213.697 74.7069 212.925 75.0109 212.277C75.3149 211.621 75.7309 211.125 76.2589 210.789C76.7869 210.445 77.3869 210.273 78.0589 210.273C78.7309 210.273 79.3309 210.445 79.8589 210.789C80.3949 211.125 80.8149 211.621 81.1189 212.277C81.4229 212.925 81.5749 213.697 81.5749 214.593C81.5749 215.489 81.4229 216.265 81.1189 216.921C80.8149 217.569 80.3949 218.065 79.8589 218.409C79.3309 218.745 78.7309 218.913 78.0589 218.913ZM78.0589 217.557C78.6589 217.557 79.1309 217.309 79.4749 216.813C79.8269 216.317 80.0029 215.577 80.0029 214.593C80.0029 213.609 79.8269 212.869 79.4749 212.373C79.1309 211.877 78.6589 211.629 78.0589 211.629C77.4669 211.629 76.9949 211.877 76.6429 212.373C76.2989 212.869 76.1269 213.609 76.1269 214.593C76.1269 215.577 76.2989 216.317 76.6429 216.813C76.9949 217.309 77.4669 217.557 78.0589 217.557ZM90.6496 218.913C90.0016 218.913 89.3736 218.821 88.7656 218.637C88.1656 218.453 87.6896 218.209 87.3376 217.905L87.8776 216.693C88.2216 216.965 88.6416 217.189 89.1376 217.365C89.6416 217.533 90.1456 217.617 90.6496 217.617C91.2736 217.617 91.7376 217.517 92.0416 217.317C92.3536 217.117 92.5096 216.853 92.5096 216.525C92.5096 216.285 92.4216 216.089 92.2456 215.937C92.0776 215.777 91.8616 215.653 91.5976 215.565C91.3336 215.477 90.9736 215.377 90.5176 215.265C89.8776 215.113 89.3576 214.961 88.9576 214.809C88.5656 214.657 88.2256 214.421 87.9376 214.101C87.6576 213.773 87.5176 213.333 87.5176 212.781C87.5176 212.317 87.6416 211.897 87.8896 211.521C88.1456 211.137 88.5256 210.833 89.0296 210.609C89.5416 210.385 90.1656 210.273 90.9016 210.273C91.4136 210.273 91.9176 210.337 92.4136 210.465C92.9096 210.593 93.3376 210.777 93.6976 211.017L93.2056 212.229C92.8376 212.013 92.4536 211.849 92.0536 211.737C91.6536 211.625 91.2656 211.569 90.8896 211.569C90.2736 211.569 89.8136 211.673 89.5096 211.881C89.2136 212.089 89.0656 212.365 89.0656 212.709C89.0656 212.949 89.1496 213.145 89.3176 213.297C89.4936 213.449 89.7136 213.569 89.9776 213.657C90.2416 213.745 90.6016 213.845 91.0576 213.957C91.6816 214.101 92.1936 214.253 92.5936 214.413C92.9936 214.565 93.3336 214.801 93.6136 215.121C93.9016 215.441 94.0456 215.873 94.0456 216.417C94.0456 216.881 93.9176 217.301 93.6616 217.677C93.4136 218.053 93.0336 218.353 92.5216 218.577C92.0096 218.801 91.3856 218.913 90.6496 218.913ZM102.642 217.485V218.793H96.3424V210.393H102.474V211.701H97.9024V213.885H101.958V215.169H97.9024V217.485H102.642ZM108.984 218.913C108.136 218.913 107.368 218.729 106.68 218.361C106 217.985 105.464 217.469 105.072 216.813C104.688 216.157 104.496 215.417 104.496 214.593C104.496 213.769 104.692 213.029 105.084 212.373C105.476 211.717 106.012 211.205 106.692 210.837C107.38 210.461 108.148 210.273 108.996 210.273C109.684 210.273 110.312 210.393 110.88 210.633C111.448 210.873 111.928 211.221 112.32 211.677L111.312 212.625C110.704 211.969 109.956 211.641 109.068 211.641C108.492 211.641 107.976 211.769 107.52 212.025C107.064 212.273 106.708 212.621 106.452 213.069C106.196 213.517 106.068 214.025 106.068 214.593C106.068 215.161 106.196 215.669 106.452 216.117C106.708 216.565 107.064 216.917 107.52 217.173C107.976 217.421 108.492 217.545 109.068 217.545C109.956 217.545 110.704 217.213 111.312 216.549L112.32 217.509C111.928 217.965 111.444 218.313 110.868 218.553C110.3 218.793 109.672 218.913 108.984 218.913ZM118.119 218.913C116.959 218.913 116.055 218.589 115.407 217.941C114.759 217.285 114.435 216.349 114.435 215.133V210.393H115.995V215.073C115.995 216.721 116.707 217.545 118.131 217.545C119.547 217.545 120.255 216.721 120.255 215.073V210.393H121.791V215.133C121.791 216.349 121.467 217.285 120.819 217.941C120.179 218.589 119.279 218.913 118.119 218.913ZM130.221 218.793L128.505 216.333C128.433 216.341 128.325 216.345 128.181 216.345H126.285V218.793H124.725V210.393H128.181C128.909 210.393 129.541 210.513 130.077 210.753C130.621 210.993 131.037 211.337 131.325 211.785C131.613 212.233 131.757 212.765 131.757 213.381C131.757 214.013 131.601 214.557 131.289 215.013C130.985 215.469 130.545 215.809 129.969 216.033L131.901 218.793H130.221ZM130.185 213.381C130.185 212.845 130.009 212.433 129.657 212.145C129.305 211.857 128.789 211.713 128.109 211.713H126.285V215.061H128.109C128.789 215.061 129.305 214.917 129.657 214.629C130.009 214.333 130.185 213.917 130.185 213.381ZM140.553 217.485V218.793H134.253V210.393H140.385V211.701H135.813V213.885H139.869V215.169H135.813V217.485H140.553Z" fill="white" fill-opacity="0.87"/>
<path d="M97.4607 86.017C85.8464 86.017 76.398 95.4637 76.398 107.076C76.398 118.688 85.8464 128.135 97.4607 128.135C109.075 128.135 118.522 118.688 118.522 107.076C118.522 95.4637 109.075 86.017 97.4607 86.017V86.017ZM97.4607 129.408C85.1431 129.408 75.124 119.389 75.124 107.076C75.124 94.7622 85.1431 84.7432 97.4607 84.7432C109.777 84.7432 119.796 94.7622 119.796 107.076C119.796 119.389 109.777 129.408 97.4607 129.408ZM97.4607 83.8634C84.659 83.8634 74.2423 94.2765 74.2423 107.076C74.2423 119.877 84.659 130.288 97.4607 130.288C110.262 130.288 120.677 119.877 120.677 107.076C120.677 94.2765 110.262 83.8634 97.4607 83.8634V83.8634ZM97.4607 131.562C83.9557 131.562 72.9683 120.578 72.9683 107.076C72.9683 93.575 83.9557 82.5896 97.4607 82.5896C110.964 82.5896 121.951 93.575 121.951 107.076C121.951 120.578 110.964 131.562 97.4607 131.562Z" fill="white"/>
<path d="M97.4551 96.7602C91.7644 96.7602 87.1353 101.388 87.1353 107.078C87.1353 112.766 91.7644 117.394 97.4551 117.394C103.146 117.394 107.773 112.766 107.773 107.078C107.773 101.388 103.146 96.7602 97.4551 96.7602V96.7602ZM97.4551 118.668C91.0611 118.668 85.8612 113.468 85.8612 107.078C85.8612 100.687 91.0611 95.4864 97.4551 95.4864C103.848 95.4864 109.047 100.687 109.047 107.078C109.047 113.468 103.848 118.668 97.4551 118.668ZM97.4551 90.8361C88.4994 90.8361 81.2101 98.1223 81.2101 107.078C81.2101 116.032 88.4994 123.319 97.4551 123.319C106.411 123.319 113.699 116.032 113.699 107.078C113.699 98.1223 106.411 90.8361 97.4551 90.8361ZM97.4551 124.592C87.7944 124.592 79.936 116.735 79.936 107.078C79.936 97.4192 87.7944 89.5623 97.4551 89.5623C107.114 89.5623 114.973 97.4192 114.973 107.078C114.973 116.735 107.114 124.592 97.4551 124.592Z" fill="white"/>
<path d="M72.6597 87.033L72.7106 87.8142L73.4869 87.6818L72.6597 87.033V87.033ZM69.5815 81.187L70.2186 90.9784L77.4994 89.7725L76.1879 88.5123L71.53 89.3089L71.2038 84.273L73.8845 86.374L74.3227 85.8254C74.4162 85.7116 76.5141 83.1945 80.7694 81.0137C84.6579 79.0198 91.2286 76.8696 100.614 77.8224L100.776 76.4127C85.2049 74.8264 76.9303 81.1751 74.0713 84.0098L73.6721 84.4072L69.5815 81.187V81.187ZM69.0362 92.4645L68.124 78.4202L73.5804 82.7139C76.9439 79.5565 85.6873 73.3997 101.554 75.2153L102.185 75.2866L101.735 79.2287L101.102 79.1557C91.6975 78.0772 85.1709 80.1883 81.3504 82.1466C77.3278 84.2085 75.3946 86.5285 75.3131 86.627L74.6234 87.4864L76.6058 87.1468L80.2089 90.6149L69.0362 92.4645V92.4645Z" fill="white"/>
<path d="M124.157 120.885L124.665 121.104L124.536 120.713L124.157 120.885ZM103.326 135.257L103.478 136.323C116.878 134.219 122.426 127.079 124.203 124.073L124.49 123.589L128.554 125.36L125.941 117.493L120.291 120.013L121.499 120.689L125.299 118.97L126.772 123.407L123.953 122.184L123.736 122.671C123.605 122.953 122.406 125.44 119.334 128.181C116.492 130.722 111.429 133.978 103.326 135.257V135.257ZM102.396 137.769L101.887 134.182L102.517 134.092C110.671 132.93 115.701 129.72 118.485 127.232C121.414 124.616 122.528 122.245 122.574 122.145L122.88 121.464L121.438 122.116L117.454 119.884L126.707 115.755L130.663 127.668L125.007 125.202C122.824 128.643 116.756 135.72 103.028 137.679L102.396 137.769V137.769Z" fill="white"/>
<path d="M69.3048 56.6884C57.0976 56.6884 47.1685 66.6174 47.1685 78.8223V133.76C47.1685 145.965 57.0976 155.894 69.3048 155.894H129.158C141.365 155.894 151.298 145.965 151.298 133.76V78.8223C151.298 66.6174 141.365 56.6884 129.158 56.6884H69.3048V56.6884ZM129.158 157.592H69.3048C56.1616 157.592 45.4697 146.9 45.4697 133.76V78.8223C45.4697 65.6816 56.1616 54.99 69.3048 54.99H129.158C142.303 54.99 152.997 65.6816 152.997 78.8223V133.76C152.997 146.9 142.303 157.592 129.158 157.592Z" fill="white"/>
<defs>
<filter id="filter0_d" x="0" y="0" width="208" height="261" filterUnits="userSpaceOnUse" color-interpolation-filters="sRGB">
<feFlood flood-opacity="0" result="BackgroundImageFix"/>
<feColorMatrix in="SourceAlpha" type="matrix" values="0 0 0 0 0 0 0 0 0 0 0 0 0 0 0 0 0 0 127 0"/>
<feOffset dx="4" dy="4"/>
<feGaussianBlur stdDeviation="2"/>
<feColorMatrix type="matrix" values="0 0 0 0 0 0 0 0 0 0 0 0 0 0 0 0 0 0 0.25 0"/>
<feBlend mode="normal" in2="BackgroundImageFix" result="effect1_dropShadow"/>
<feBlend mode="normal" in="SourceGraphic" in2="effect1_dropShadow" result="shape"/>
</filter>
</defs>
</svg>
