<svg width="208" height="262" viewBox="0 0 208 262" fill="none" xmlns="http://www.w3.org/2000/svg">
<g filter="url(#filter0_d)">
<rect y="0.0466309" width="200" height="253" rx="8" fill="white" fill-opacity="0.08"/>
<rect y="0.0466309" width="200" height="253" rx="8" fill="#121212" fill-opacity="0.08"/>
</g>
<path d="M64.5725 186.958C63.9245 186.958 63.2965 186.866 62.6885 186.682C62.0885 186.498 61.6125 186.254 61.2605 185.95L61.8005 184.738C62.1445 185.01 62.5645 185.234 63.0605 185.41C63.5645 185.578 64.0685 185.662 64.5725 185.662C65.1965 185.662 65.6605 185.562 65.9645 185.362C66.2765 185.162 66.4325 184.898 66.4325 184.57C66.4325 184.33 66.3445 184.134 66.1685 183.982C66.0005 183.822 65.7845 183.698 65.5205 183.61C65.2565 183.522 64.8965 183.422 64.4405 183.31C63.8005 183.158 63.2805 183.006 62.8805 182.854C62.4885 182.702 62.1485 182.466 61.8605 182.146C61.5805 181.818 61.4405 181.378 61.4405 180.826C61.4405 180.362 61.5645 179.942 61.8125 179.566C62.0685 179.182 62.4485 178.878 62.9525 178.654C63.4645 178.43 64.0885 178.318 64.8245 178.318C65.3365 178.318 65.8405 178.382 66.3365 178.51C66.8325 178.638 67.2605 178.822 67.6205 179.062L67.1285 180.274C66.7605 180.058 66.3765 179.894 65.9765 179.782C65.5765 179.67 65.1885 179.614 64.8125 179.614C64.1965 179.614 63.7365 179.718 63.4325 179.926C63.1365 180.134 62.9885 180.41 62.9885 180.754C62.9885 180.994 63.0725 181.19 63.2405 181.342C63.4165 181.494 63.6365 181.614 63.9005 181.702C64.1645 181.79 64.5245 181.89 64.9805 182.002C65.6045 182.146 66.1165 182.298 66.5165 182.458C66.9165 182.61 67.2565 182.846 67.5365 183.166C67.8245 183.486 67.9685 183.918 67.9685 184.462C67.9685 184.926 67.8405 185.346 67.5845 185.722C67.3365 186.098 66.9565 186.398 66.4445 186.622C65.9325 186.846 65.3085 186.958 64.5725 186.958ZM77.9814 186.838L77.9694 181.27L75.2094 185.878H74.5134L71.7534 181.342V186.838H70.2654V178.438H71.5494L74.8854 184.006L78.1614 178.438H79.4454L79.4574 186.838H77.9814ZM87.9243 184.894H83.7243L82.8963 186.838H81.2883L85.0683 178.438H86.6043L90.3963 186.838H88.7643L87.9243 184.894ZM87.4083 183.67L85.8243 179.998L84.2523 183.67H87.4083ZM97.7106 186.838L95.9946 184.378C95.9226 184.386 95.8146 184.39 95.6706 184.39H93.7746V186.838H92.2146V178.438H95.6706C96.3986 178.438 97.0306 178.558 97.5666 178.798C98.1106 179.038 98.5266 179.382 98.8146 179.83C99.1026 180.278 99.2466 180.81 99.2466 181.426C99.2466 182.058 99.0906 182.602 98.7786 183.058C98.4746 183.514 98.0346 183.854 97.4586 184.078L99.3906 186.838H97.7106ZM97.6746 181.426C97.6746 180.89 97.4986 180.478 97.1466 180.19C96.7946 179.902 96.2786 179.758 95.5986 179.758H93.7746V183.106H95.5986C96.2786 183.106 96.7946 182.962 97.1466 182.674C97.4986 182.378 97.6746 181.962 97.6746 181.426ZM103.329 179.758H100.545V178.438H107.673V179.758H104.889V186.838H103.329V179.758ZM116.552 183.322L115.22 184.69V186.838H113.66V178.438H115.22V182.746L119.372 178.438H121.124L117.596 182.194L121.34 186.838H119.516L116.552 183.322ZM129.452 185.53V186.838H123.152V178.438H129.284V179.746H124.712V181.93H128.768V183.214H124.712V185.53H129.452ZM135.471 183.874V186.838H133.911V183.898L130.611 178.438H132.279L134.739 182.53L137.223 178.438H138.759L135.471 183.874ZM83.1534 202.958C82.3054 202.958 81.5374 202.774 80.8494 202.406C80.1694 202.03 79.6334 201.514 79.2414 200.858C78.8574 200.202 78.6654 199.462 78.6654 198.638C78.6654 197.814 78.8614 197.074 79.2534 196.418C79.6454 195.762 80.1814 195.25 80.8614 194.882C81.5494 194.506 82.3174 194.318 83.1654 194.318C83.8534 194.318 84.4814 194.438 85.0494 194.678C85.6174 194.918 86.0974 195.266 86.4894 195.722L85.4814 196.67C84.8734 196.014 84.1254 195.686 83.2374 195.686C82.6614 195.686 82.1454 195.814 81.6894 196.07C81.2334 196.318 80.8774 196.666 80.6214 197.114C80.3654 197.562 80.2374 198.07 80.2374 198.638C80.2374 199.206 80.3654 199.714 80.6214 200.162C80.8774 200.61 81.2334 200.962 81.6894 201.218C82.1454 201.466 82.6614 201.59 83.2374 201.59C84.1254 201.59 84.8734 201.258 85.4814 200.594L86.4894 201.554C86.0974 202.01 85.6134 202.358 85.0374 202.598C84.4694 202.838 83.8414 202.958 83.1534 202.958ZM96.1981 194.438V202.838H94.6381V199.238H90.2941V202.838H88.7341V194.438H90.2941V197.906H94.6381V194.438H96.1981ZM104.647 200.894H100.447L99.619 202.838H98.011L101.791 194.438H103.327L107.119 202.838H105.487L104.647 200.894ZM104.131 199.67L102.547 195.998L100.975 199.67H104.131ZM108.937 194.438H110.497V202.838H108.937V194.438ZM120.983 194.438V202.838H119.699L115.067 197.15V202.838H113.519V194.438H114.803L119.435 200.126V194.438H120.983ZM69.6524 221.166C69.1804 220.438 68.8164 219.594 68.5604 218.634C68.3124 217.674 68.1884 216.646 68.1884 215.55C68.1884 214.454 68.3124 213.426 68.5604 212.466C68.8164 211.498 69.1804 210.654 69.6524 209.934H71.0804C70.5924 210.798 70.2324 211.69 70.0004 212.61C69.7764 213.522 69.6644 214.502 69.6644 215.55C69.6644 216.598 69.7764 217.582 70.0004 218.502C70.2324 219.414 70.5924 220.302 71.0804 221.166H69.6524ZM74.7785 211.746V214.302H78.8345V215.622H74.7785V218.838H73.2185V210.438H79.3505V211.746H74.7785ZM81.6091 210.438H83.1691V218.838H81.6091V210.438ZM93.6552 210.438V218.838H92.3712L87.7392 213.15V218.838H86.1912V210.438H87.4752L92.1072 216.126V210.438H93.6552ZM99.26 218.958C98.612 218.958 97.984 218.866 97.376 218.682C96.776 218.498 96.3 218.254 95.948 217.95L96.488 216.738C96.832 217.01 97.252 217.234 97.748 217.41C98.252 217.578 98.756 217.662 99.26 217.662C99.884 217.662 100.348 217.562 100.652 217.362C100.964 217.162 101.12 216.898 101.12 216.57C101.12 216.33 101.032 216.134 100.856 215.982C100.688 215.822 100.472 215.698 100.208 215.61C99.944 215.522 99.584 215.422 99.128 215.31C98.488 215.158 97.968 215.006 97.568 214.854C97.176 214.702 96.836 214.466 96.548 214.146C96.268 213.818 96.128 213.378 96.128 212.826C96.128 212.362 96.252 211.942 96.5 211.566C96.756 211.182 97.136 210.878 97.64 210.654C98.152 210.43 98.776 210.318 99.512 210.318C100.024 210.318 100.528 210.382 101.024 210.51C101.52 210.638 101.948 210.822 102.308 211.062L101.816 212.274C101.448 212.058 101.064 211.894 100.664 211.782C100.264 211.67 99.876 211.614 99.5 211.614C98.884 211.614 98.424 211.718 98.12 211.926C97.824 212.134 97.676 212.41 97.676 212.754C97.676 212.994 97.76 213.19 97.928 213.342C98.104 213.494 98.324 213.614 98.588 213.702C98.852 213.79 99.212 213.89 99.668 214.002C100.292 214.146 100.804 214.298 101.204 214.458C101.604 214.61 101.944 214.846 102.224 215.166C102.512 215.486 102.656 215.918 102.656 216.462C102.656 216.926 102.528 217.346 102.272 217.722C102.024 218.098 101.644 218.398 101.132 218.622C100.62 218.846 99.996 218.958 99.26 218.958ZM116.735 218.838L116.723 213.27L113.963 217.878H113.267L110.507 213.342V218.838H109.019V210.438H110.303L113.639 216.006L116.915 210.438H118.199L118.211 218.838H116.735ZM127.53 217.53V218.838H121.23V210.438H127.362V211.746H122.79V213.93H126.846V215.214H122.79V217.53H127.53ZM129.155 221.166C129.643 220.302 130.003 219.41 130.235 218.49C130.467 217.57 130.583 216.59 130.583 215.55C130.583 214.51 130.467 213.53 130.235 212.61C130.003 211.69 129.643 210.798 129.155 209.934H130.583C131.055 210.646 131.415 211.486 131.663 212.454C131.919 213.414 132.047 214.446 132.047 215.55C132.047 216.654 131.919 217.686 131.663 218.646C131.415 219.598 131.055 220.438 130.583 221.166H129.155Z" fill="white" fill-opacity="0.87"/>
<path d="M92.0354 77.0895C86.9986 77.0895 82.6311 80.7004 81.6781 85.6751L74.6318 122.504C74.0372 125.61 74.8526 128.788 76.8673 131.227C78.8837 133.664 81.8531 135.062 85.0162 135.062L114.517 135.58C117.644 135.58 120.591 134.206 122.603 131.815C124.616 129.42 125.463 126.279 124.926 123.198L118.52 86.3698C117.637 81.2931 113.256 77.6093 108.104 77.6093L92.0354 77.0895V77.0895ZM114.51 137.278H114.496L85.0009 136.76C81.3452 136.76 77.8984 135.138 75.5593 132.309C73.2201 129.481 72.2722 125.79 72.9619 122.186L80.01 85.3558C81.1142 79.5828 86.1849 75.3911 92.0642 75.3911L108.133 75.9108C114.083 75.9108 119.169 80.1858 120.192 86.0776L126.6 122.908C127.223 126.483 126.24 130.13 123.902 132.907C121.565 135.685 118.142 137.278 114.51 137.278" fill="white"/>
<path d="M93.8326 82.7988C90.0869 82.7988 86.827 85.7353 86.1118 89.7776L80.7166 120.278C80.2409 122.977 80.9442 125.691 82.6481 127.72C84.1599 129.524 86.2256 130.516 88.4679 130.516L111.053 130.946C113.266 130.944 115.315 129.968 116.823 128.198C118.522 126.207 119.249 123.527 118.819 120.85L113.913 90.35C113.253 86.2245 109.982 83.2285 106.14 83.2285L93.8326 82.7988V82.7988ZM111.044 132.644H111.027L88.451 132.215C85.7551 132.215 83.1611 130.975 81.3451 128.813C79.3185 126.396 78.4811 123.177 79.045 119.984L84.4402 89.4838C85.2981 84.6246 89.2613 81.1003 93.8632 81.1003L106.171 81.53C110.82 81.53 114.795 85.1256 115.593 90.0816L120.496 120.582C121.006 123.75 120.138 126.927 118.116 129.302C116.28 131.455 113.767 132.644 111.044 132.644" fill="white"/>
<path d="M69.835 56.735C57.6279 56.735 47.6987 66.6641 47.6987 78.8673V133.806C47.6987 146.01 57.6279 155.939 69.835 155.939H129.688C141.896 155.939 151.828 146.01 151.828 133.806V78.8673C151.828 66.6641 141.896 56.735 129.688 56.735H69.835V56.735ZM129.688 157.637H69.835C56.6919 157.637 46 146.947 46 133.806V78.8673C46 65.7265 56.6919 55.0366 69.835 55.0366H129.688C142.833 55.0366 153.527 65.7265 153.527 78.8673V133.806C153.527 146.947 142.833 157.637 129.688 157.637Z" fill="white"/>
<defs>
<filter id="filter0_d" x="0" y="0.0466309" width="208" height="261" filterUnits="userSpaceOnUse" color-interpolation-filters="sRGB">
<feFlood flood-opacity="0" result="BackgroundImageFix"/>
<feColorMatrix in="SourceAlpha" type="matrix" values="0 0 0 0 0 0 0 0 0 0 0 0 0 0 0 0 0 0 127 0"/>
<feOffset dx="4" dy="4"/>
<feGaussianBlur stdDeviation="2"/>
<feColorMatrix type="matrix" values="0 0 0 0 0 0 0 0 0 0 0 0 0 0 0 0 0 0 0.25 0"/>
<feBlend mode="normal" in2="BackgroundImageFix" result="effect1_dropShadow"/>
<feBlend mode="normal" in="SourceGraphic" in2="effect1_dropShadow" result="shape"/>
</filter>
</defs>
</svg>
