<svg width="208" height="261" viewBox="0 0 208 261" fill="none" xmlns="http://www.w3.org/2000/svg">
<g filter="url(#filter0_d)">
<rect width="200" height="253" rx="8" fill="white" fill-opacity="0.08"/>
<rect width="200" height="253" rx="8" fill="#121212" fill-opacity="0.08"/>
</g>
<path d="M42.1835 189.818C41.3275 189.818 40.5555 189.634 39.8675 189.266C39.1795 188.89 38.6395 188.374 38.2475 187.718C37.8555 187.054 37.6595 186.314 37.6595 185.498C37.6595 184.682 37.8555 183.946 38.2475 183.29C38.6395 182.626 39.1795 182.11 39.8675 181.742C40.5555 181.366 41.3275 181.178 42.1835 181.178C43.0395 181.178 43.8115 181.366 44.4995 181.742C45.1875 182.11 45.7275 182.622 46.1195 183.278C46.5115 183.934 46.7075 184.674 46.7075 185.498C46.7075 186.322 46.5115 187.062 46.1195 187.718C45.7275 188.374 45.1875 188.89 44.4995 189.266C43.8115 189.634 43.0395 189.818 42.1835 189.818ZM42.1835 188.45C42.7435 188.45 43.2475 188.326 43.6955 188.078C44.1435 187.822 44.4955 187.47 44.7515 187.022C45.0075 186.566 45.1355 186.058 45.1355 185.498C45.1355 184.938 45.0075 184.434 44.7515 183.986C44.4955 183.53 44.1435 183.178 43.6955 182.93C43.2475 182.674 42.7435 182.546 42.1835 182.546C41.6235 182.546 41.1195 182.674 40.6715 182.93C40.2235 183.178 39.8715 183.53 39.6155 183.986C39.3595 184.434 39.2315 184.938 39.2315 185.498C39.2315 186.058 39.3595 186.566 39.6155 187.022C39.8715 187.47 40.2235 187.822 40.6715 188.078C41.1195 188.326 41.6235 188.45 42.1835 188.45ZM55.063 185.33C55.527 185.482 55.895 185.738 56.167 186.098C56.439 186.45 56.575 186.89 56.575 187.418C56.575 188.146 56.295 188.71 55.735 189.11C55.175 189.502 54.359 189.698 53.287 189.698H49.111V181.298H53.047C54.039 181.298 54.803 181.494 55.339 181.886C55.875 182.27 56.143 182.802 56.143 183.482C56.143 183.898 56.047 184.266 55.855 184.586C55.663 184.906 55.399 185.154 55.063 185.33ZM50.671 182.522V184.838H52.879C53.423 184.838 53.839 184.742 54.127 184.55C54.423 184.35 54.571 184.062 54.571 183.686C54.571 183.302 54.423 183.014 54.127 182.822C53.839 182.622 53.423 182.522 52.879 182.522H50.671ZM53.191 188.474C54.399 188.474 55.003 188.07 55.003 187.262C55.003 186.454 54.399 186.05 53.191 186.05H50.671V188.474H53.191ZM58.9899 181.298H62.6619C63.5579 181.298 64.3539 181.474 65.0499 181.826C65.7459 182.17 66.2859 182.662 66.6699 183.302C67.0539 183.934 67.2459 184.666 67.2459 185.498C67.2459 186.33 67.0539 187.066 66.6699 187.706C66.2859 188.338 65.7459 188.83 65.0499 189.182C64.3539 189.526 63.5579 189.698 62.6619 189.698H58.9899V181.298ZM62.5899 188.378C63.2059 188.378 63.7459 188.262 64.2099 188.03C64.6819 187.79 65.0419 187.454 65.2899 187.022C65.5459 186.582 65.6739 186.074 65.6739 185.498C65.6739 184.922 65.5459 184.418 65.2899 183.986C65.0419 183.546 64.6819 183.21 64.2099 182.978C63.7459 182.738 63.2059 182.618 62.5899 182.618H60.5499V188.378H62.5899ZM75.0208 188.378V189.698H68.8288V188.654L72.1648 185.486C72.5408 185.126 72.7928 184.814 72.9208 184.55C73.0568 184.278 73.1248 184.01 73.1248 183.746C73.1248 183.354 72.9928 183.054 72.7288 182.846C72.4648 182.638 72.0768 182.534 71.5648 182.534C70.7088 182.534 70.0528 182.826 69.5968 183.41L68.5048 182.57C68.8328 182.13 69.2728 181.79 69.8248 181.55C70.3848 181.302 71.0088 181.178 71.6968 181.178C72.6088 181.178 73.3368 181.394 73.8808 181.826C74.4248 182.258 74.6968 182.846 74.6968 183.59C74.6968 184.046 74.6008 184.474 74.4088 184.874C74.2168 185.274 73.8488 185.73 73.3048 186.242L71.0608 188.378H75.0208ZM87.0736 185.402H88.5496V188.75C88.1176 189.094 87.6136 189.358 87.0376 189.542C86.4616 189.726 85.8696 189.818 85.2616 189.818C84.4056 189.818 83.6336 189.634 82.9456 189.266C82.2576 188.89 81.7176 188.374 81.3256 187.718C80.9336 187.062 80.7376 186.322 80.7376 185.498C80.7376 184.674 80.9336 183.934 81.3256 183.278C81.7176 182.622 82.2576 182.11 82.9456 181.742C83.6416 181.366 84.4216 181.178 85.2856 181.178C85.9896 181.178 86.6296 181.294 87.2056 181.526C87.7816 181.758 88.2656 182.098 88.6576 182.546L87.6736 183.506C87.0336 182.866 86.2616 182.546 85.3576 182.546C84.7656 182.546 84.2376 182.67 83.7736 182.918C83.3176 183.166 82.9576 183.514 82.6936 183.962C82.4376 184.41 82.3096 184.922 82.3096 185.498C82.3096 186.058 82.4376 186.562 82.6936 187.01C82.9576 187.458 83.3176 187.81 83.7736 188.066C84.2376 188.322 84.7616 188.45 85.3456 188.45C86.0016 188.45 86.5776 188.306 87.0736 188.018V185.402ZM94.8131 181.298C95.5411 181.298 96.1731 181.418 96.7091 181.658C97.2531 181.898 97.6691 182.242 97.9571 182.69C98.2451 183.138 98.3891 183.67 98.3891 184.286C98.3891 184.894 98.2451 185.426 97.9571 185.882C97.6691 186.33 97.2531 186.674 96.7091 186.914C96.1731 187.154 95.5411 187.274 94.8131 187.274H92.9171V189.698H91.3571V181.298H94.8131ZM94.7411 185.954C95.4211 185.954 95.9371 185.81 96.2891 185.522C96.6411 185.234 96.8171 184.822 96.8171 184.286C96.8171 183.75 96.6411 183.338 96.2891 183.05C95.9371 182.762 95.4211 182.618 94.7411 182.618H92.9171V185.954H94.7411ZM103.418 189.818C102.77 189.818 102.142 189.726 101.534 189.542C100.934 189.358 100.458 189.114 100.106 188.81L100.646 187.598C100.99 187.87 101.41 188.094 101.906 188.27C102.41 188.438 102.914 188.522 103.418 188.522C104.042 188.522 104.506 188.422 104.81 188.222C105.122 188.022 105.278 187.758 105.278 187.43C105.278 187.19 105.19 186.994 105.014 186.842C104.846 186.682 104.63 186.558 104.366 186.47C104.102 186.382 103.742 186.282 103.286 186.17C102.646 186.018 102.126 185.866 101.726 185.714C101.334 185.562 100.994 185.326 100.706 185.006C100.426 184.678 100.286 184.238 100.286 183.686C100.286 183.222 100.41 182.802 100.658 182.426C100.914 182.042 101.294 181.738 101.798 181.514C102.31 181.29 102.934 181.178 103.67 181.178C104.182 181.178 104.686 181.242 105.182 181.37C105.678 181.498 106.106 181.682 106.466 181.922L105.974 183.134C105.606 182.918 105.222 182.754 104.822 182.642C104.422 182.53 104.034 182.474 103.658 182.474C103.042 182.474 102.582 182.578 102.278 182.786C101.982 182.994 101.834 183.27 101.834 183.614C101.834 183.854 101.918 184.05 102.086 184.202C102.262 184.354 102.482 184.474 102.746 184.562C103.01 184.65 103.37 184.75 103.826 184.862C104.45 185.006 104.962 185.158 105.362 185.318C105.762 185.47 106.102 185.706 106.382 186.026C106.67 186.346 106.814 186.778 106.814 187.322C106.814 187.786 106.686 188.206 106.43 188.582C106.182 188.958 105.802 189.258 105.29 189.482C104.778 189.706 104.154 189.818 103.418 189.818ZM114.521 192.026C114.049 191.298 113.685 190.454 113.429 189.494C113.181 188.534 113.057 187.506 113.057 186.41C113.057 185.314 113.181 184.286 113.429 183.326C113.685 182.358 114.049 181.514 114.521 180.794H115.949C115.461 181.658 115.101 182.55 114.869 183.47C114.645 184.382 114.533 185.362 114.533 186.41C114.533 187.458 114.645 188.442 114.869 189.362C115.101 190.274 115.461 191.162 115.949 192.026H114.521ZM122.154 181.298H123.714V189.698H122.154V181.298ZM130.624 189.818C129.776 189.818 129.008 189.634 128.32 189.266C127.64 188.89 127.104 188.374 126.712 187.718C126.328 187.062 126.136 186.322 126.136 185.498C126.136 184.674 126.332 183.934 126.724 183.278C127.116 182.622 127.652 182.11 128.332 181.742C129.02 181.366 129.788 181.178 130.636 181.178C131.324 181.178 131.952 181.298 132.52 181.538C133.088 181.778 133.568 182.126 133.96 182.582L132.952 183.53C132.344 182.874 131.596 182.546 130.708 182.546C130.132 182.546 129.616 182.674 129.16 182.93C128.704 183.178 128.348 183.526 128.092 183.974C127.836 184.422 127.708 184.93 127.708 185.498C127.708 186.066 127.836 186.574 128.092 187.022C128.348 187.47 128.704 187.822 129.16 188.078C129.616 188.326 130.132 188.45 130.708 188.45C131.596 188.45 132.344 188.118 132.952 187.454L133.96 188.414C133.568 188.87 133.084 189.218 132.508 189.458C131.94 189.698 131.312 189.818 130.624 189.818ZM139.917 189.818C139.069 189.818 138.301 189.634 137.613 189.266C136.933 188.89 136.397 188.374 136.005 187.718C135.621 187.062 135.429 186.322 135.429 185.498C135.429 184.674 135.625 183.934 136.017 183.278C136.409 182.622 136.945 182.11 137.625 181.742C138.313 181.366 139.081 181.178 139.929 181.178C140.617 181.178 141.245 181.298 141.813 181.538C142.381 181.778 142.861 182.126 143.253 182.582L142.245 183.53C141.637 182.874 140.889 182.546 140.001 182.546C139.425 182.546 138.909 182.674 138.453 182.93C137.997 183.178 137.641 183.526 137.385 183.974C137.129 184.422 137.001 184.93 137.001 185.498C137.001 186.066 137.129 186.574 137.385 187.022C137.641 187.47 137.997 187.822 138.453 188.078C138.909 188.326 139.425 188.45 140.001 188.45C140.889 188.45 141.637 188.118 142.245 187.454L143.253 188.414C142.861 188.87 142.377 189.218 141.801 189.458C141.233 189.698 140.605 189.818 139.917 189.818ZM149.051 189.818C147.891 189.818 146.987 189.494 146.339 188.846C145.691 188.19 145.367 187.254 145.367 186.038V181.298H146.927V185.978C146.927 187.626 147.639 188.45 149.063 188.45C150.479 188.45 151.187 187.626 151.187 185.978V181.298H152.723V186.038C152.723 187.254 152.399 188.19 151.751 188.846C151.111 189.494 150.211 189.818 149.051 189.818ZM158.86 192.026C159.348 191.162 159.708 190.27 159.94 189.35C160.172 188.43 160.288 187.45 160.288 186.41C160.288 185.37 160.172 184.39 159.94 183.47C159.708 182.55 159.348 181.658 158.86 180.794H160.288C160.76 181.506 161.12 182.346 161.368 183.314C161.624 184.274 161.752 185.306 161.752 186.41C161.752 187.514 161.624 188.546 161.368 189.506C161.12 190.458 160.76 191.298 160.288 192.026H158.86ZM48.1677 197.298H49.7277V205.698H48.1677V197.298ZM60.2137 197.298V205.698H58.9297L54.2977 200.01V205.698H52.7497V197.298H54.0337L58.6657 202.986V197.298H60.2137ZM64.9185 198.618H62.1345V197.298H69.2625V198.618H66.4785V205.698H64.9185V198.618ZM77.4833 204.39V205.698H71.1833V197.298H77.3153V198.606H72.7433V200.79H76.7993V202.074H72.7433V204.39H77.4833ZM87.4364 197.298V205.698H86.1524L81.5204 200.01V205.698H79.9724V197.298H81.2564L85.8884 202.986V197.298H87.4364ZM93.0412 205.818C92.3932 205.818 91.7652 205.726 91.1572 205.542C90.5572 205.358 90.0812 205.114 89.7292 204.81L90.2692 203.598C90.6132 203.87 91.0332 204.094 91.5292 204.27C92.0332 204.438 92.5372 204.522 93.0412 204.522C93.6652 204.522 94.1292 204.422 94.4332 204.222C94.7452 204.022 94.9012 203.758 94.9012 203.43C94.9012 203.19 94.8132 202.994 94.6372 202.842C94.4692 202.682 94.2532 202.558 93.9892 202.47C93.7252 202.382 93.3652 202.282 92.9092 202.17C92.2692 202.018 91.7492 201.866 91.3492 201.714C90.9572 201.562 90.6172 201.326 90.3292 201.006C90.0492 200.678 89.9092 200.238 89.9092 199.686C89.9092 199.222 90.0332 198.802 90.2812 198.426C90.5372 198.042 90.9172 197.738 91.4212 197.514C91.9332 197.29 92.5572 197.178 93.2932 197.178C93.8052 197.178 94.3092 197.242 94.8052 197.37C95.3012 197.498 95.7292 197.682 96.0892 197.922L95.5972 199.134C95.2292 198.918 94.8452 198.754 94.4452 198.642C94.0452 198.53 93.6572 198.474 93.2812 198.474C92.6652 198.474 92.2052 198.578 91.9012 198.786C91.6052 198.994 91.4572 199.27 91.4572 199.614C91.4572 199.854 91.5412 200.05 91.7092 200.202C91.8852 200.354 92.1052 200.474 92.3692 200.562C92.6332 200.65 92.9932 200.75 93.4492 200.862C94.0732 201.006 94.5852 201.158 94.9852 201.318C95.3852 201.47 95.7252 201.706 96.0052 202.026C96.2932 202.346 96.4372 202.778 96.4372 203.322C96.4372 203.786 96.3092 204.206 96.0532 204.582C95.8052 204.958 95.4252 205.258 94.9132 205.482C94.4012 205.706 93.7772 205.818 93.0412 205.818ZM98.7341 197.298H100.294V205.698H98.7341V197.298ZM110.938 197.298L107.278 205.698H105.742L102.07 197.298H103.762L106.558 203.778L109.378 197.298H110.938ZM118.874 204.39V205.698H112.574V197.298H118.706V198.606H114.134V200.79H118.19V202.074H114.134V204.39H118.874ZM129.317 205.818C128.469 205.818 127.701 205.634 127.013 205.266C126.333 204.89 125.797 204.374 125.405 203.718C125.021 203.062 124.829 202.322 124.829 201.498C124.829 200.674 125.025 199.934 125.417 199.278C125.809 198.622 126.345 198.11 127.025 197.742C127.713 197.366 128.481 197.178 129.329 197.178C130.017 197.178 130.645 197.298 131.213 197.538C131.781 197.778 132.261 198.126 132.653 198.582L131.645 199.53C131.037 198.874 130.289 198.546 129.401 198.546C128.825 198.546 128.309 198.674 127.853 198.93C127.397 199.178 127.041 199.526 126.785 199.974C126.529 200.422 126.401 200.93 126.401 201.498C126.401 202.066 126.529 202.574 126.785 203.022C127.041 203.47 127.397 203.822 127.853 204.078C128.309 204.326 128.825 204.45 129.401 204.45C130.289 204.45 131.037 204.118 131.645 203.454L132.653 204.414C132.261 204.87 131.777 205.218 131.201 205.458C130.633 205.698 130.005 205.818 129.317 205.818ZM140.17 203.754H135.97L135.142 205.698H133.534L137.314 197.298H138.85L142.642 205.698H141.01L140.17 203.754ZM139.654 202.53L138.07 198.858L136.498 202.53H139.654ZM149.957 205.698L148.241 203.238C148.169 203.246 148.061 203.25 147.917 203.25H146.021V205.698H144.461V197.298H147.917C148.645 197.298 149.277 197.418 149.813 197.658C150.357 197.898 150.773 198.242 151.061 198.69C151.349 199.138 151.493 199.67 151.493 200.286C151.493 200.918 151.337 201.462 151.025 201.918C150.721 202.374 150.281 202.714 149.705 202.938L151.637 205.698H149.957ZM149.921 200.286C149.921 199.75 149.745 199.338 149.393 199.05C149.041 198.762 148.525 198.618 147.845 198.618H146.021V201.966H147.845C148.525 201.966 149.041 201.822 149.393 201.534C149.745 201.238 149.921 200.822 149.921 200.286ZM68.0166 221.818C67.1686 221.818 66.4006 221.634 65.7126 221.266C65.0326 220.89 64.4966 220.374 64.1046 219.718C63.7206 219.062 63.5286 218.322 63.5286 217.498C63.5286 216.674 63.7246 215.934 64.1166 215.278C64.5086 214.622 65.0446 214.11 65.7246 213.742C66.4126 213.366 67.1806 213.178 68.0286 213.178C68.7166 213.178 69.3446 213.298 69.9126 213.538C70.4806 213.778 70.9606 214.126 71.3526 214.582L70.3446 215.53C69.7366 214.874 68.9886 214.546 68.1006 214.546C67.5246 214.546 67.0086 214.674 66.5526 214.93C66.0966 215.178 65.7406 215.526 65.4846 215.974C65.2286 216.422 65.1006 216.93 65.1006 217.498C65.1006 218.066 65.2286 218.574 65.4846 219.022C65.7406 219.47 66.0966 219.822 66.5526 220.078C67.0086 220.326 67.5246 220.45 68.1006 220.45C68.9886 220.45 69.7366 220.118 70.3446 219.454L71.3526 220.414C70.9606 220.87 70.4766 221.218 69.9006 221.458C69.3326 221.698 68.7046 221.818 68.0166 221.818ZM78.8696 219.754H74.6696L73.8416 221.698H72.2336L76.0136 213.298H77.5496L81.3416 221.698H79.7096L78.8696 219.754ZM78.3536 218.53L76.7696 214.858L75.1976 218.53H78.3536ZM88.6559 221.698L86.9399 219.238C86.8679 219.246 86.7599 219.25 86.6159 219.25H84.7199V221.698H83.1599V213.298H86.6159C87.3439 213.298 87.9759 213.418 88.5119 213.658C89.0559 213.898 89.4719 214.242 89.7599 214.69C90.0479 215.138 90.1919 215.67 90.1919 216.286C90.1919 216.918 90.0359 217.462 89.7239 217.918C89.4199 218.374 88.9799 218.714 88.4039 218.938L90.3359 221.698H88.6559ZM88.6199 216.286C88.6199 215.75 88.4439 215.338 88.0919 215.05C87.7399 214.762 87.2239 214.618 86.5439 214.618H84.7199V217.966H86.5439C87.2239 217.966 87.7399 217.822 88.0919 217.534C88.4439 217.238 88.6199 216.822 88.6199 216.286ZM98.9872 220.39V221.698H92.6872V213.298H98.8192V214.606H94.2472V216.79H98.3032V218.074H94.2472V220.39H98.9872ZM109.155 221.818C107.995 221.818 107.091 221.494 106.443 220.846C105.795 220.19 105.471 219.254 105.471 218.038V213.298H107.031V217.978C107.031 219.626 107.743 220.45 109.167 220.45C110.583 220.45 111.291 219.626 111.291 217.978V213.298H112.827V218.038C112.827 219.254 112.503 220.19 111.855 220.846C111.215 221.494 110.315 221.818 109.155 221.818ZM123.225 213.298V221.698H121.941L117.309 216.01V221.698H115.761V213.298H117.045L121.677 218.986V213.298H123.225ZM126.226 213.298H127.786V221.698H126.226V213.298ZM132.512 214.618H129.728V213.298H136.856V214.618H134.072V221.698H132.512V214.618Z" fill="white" fill-opacity="0.87"/>
<g clip-path="url(#clip0)">
<path d="M70.7653 87.9917H91.6322C92.904 87.9917 94.0633 88.5796 94.8143 89.6043C95.5687 90.6273 95.7804 91.9107 95.399 93.1235L84.3271 128.393L116.669 127.795L106.128 93.0882C105.76 91.8788 105.98 90.6038 106.733 89.5892C107.486 88.5746 108.643 87.9917 109.907 87.9917H128.201L123.949 84.2424L74.5724 83.9316L70.7653 87.9917V87.9917ZM83.0771 129.33L83.2653 128.725L94.5304 92.8497C94.8211 91.9174 94.6581 90.9314 94.0801 90.1452C93.5022 89.3557 92.61 88.9055 91.6322 88.9055H68.6567L74.1776 83.0178L124.297 83.3303L130.616 88.9055H109.907C108.936 88.9055 108.045 89.354 107.467 90.1334C106.889 90.9129 106.718 91.8939 107 92.8228L117.896 128.686L83.0771 129.33V129.33Z" fill="white"/>
<path d="M98.7724 109.178L98.7808 109.17L100.597 109.173V109.178H98.7724V109.178ZM102.731 109.178H101.288V109.175L102.731 109.178ZM105.021 110.1L101.41 104.854L101.288 105.041V104.861L97.0083 110.09H100.597L99.0345 120.476L102.996 120.359L101.288 110.09L105.021 110.1V110.1Z" fill="white"/>
<path d="M69.9696 57.1905C57.8963 57.1905 48.0761 67.0106 48.0761 79.0817V133.416C48.0761 145.487 57.8963 155.308 69.9696 155.308H129.166C141.24 155.308 151.063 145.487 151.063 133.416V79.0817C151.063 67.0106 141.24 57.1905 129.166 57.1905H69.9696V57.1905ZM129.166 156.987H69.9696C56.9706 156.987 46.396 146.413 46.396 133.416V79.0817C46.396 66.0851 56.9706 55.5107 69.9696 55.5107H129.166C142.167 55.5107 152.743 66.0851 152.743 79.0817V133.416C152.743 146.413 142.167 156.987 129.166 156.987Z" fill="white"/>
</g>
<defs>
<filter id="filter0_d" x="0" y="0" width="208" height="261" filterUnits="userSpaceOnUse" color-interpolation-filters="sRGB">
<feFlood flood-opacity="0" result="BackgroundImageFix"/>
<feColorMatrix in="SourceAlpha" type="matrix" values="0 0 0 0 0 0 0 0 0 0 0 0 0 0 0 0 0 0 127 0"/>
<feOffset dx="4" dy="4"/>
<feGaussianBlur stdDeviation="2"/>
<feColorMatrix type="matrix" values="0 0 0 0 0 0 0 0 0 0 0 0 0 0 0 0 0 0 0.25 0"/>
<feBlend mode="normal" in2="BackgroundImageFix" result="effect1_dropShadow"/>
<feBlend mode="normal" in="SourceGraphic" in2="effect1_dropShadow" result="shape"/>
</filter>
<clipPath id="clip0">
<rect x="46.1865" y="52.9902" width="107.527" height="107.507" fill="white"/>
</clipPath>
</defs>
</svg>
