<svg width="208" height="262" viewBox="0 0 208 262" fill="none" xmlns="http://www.w3.org/2000/svg">
<g filter="url(#filter0_d)">
<rect y="0.0466309" width="200" height="253" rx="8" fill="white" fill-opacity="0.08"/>
<rect y="0.0466309" width="200" height="253" rx="8" fill="#121212" fill-opacity="0.08"/>
</g>
<path d="M55.1402 179.758H52.3562V178.438H59.4842V179.758H56.7002V186.838H55.1402V179.758ZM64.861 178.438C65.589 178.438 66.221 178.558 66.757 178.798C67.301 179.038 67.717 179.382 68.005 179.83C68.293 180.278 68.437 180.81 68.437 181.426C68.437 182.034 68.293 182.566 68.005 183.022C67.717 183.47 67.301 183.814 66.757 184.054C66.221 184.294 65.589 184.414 64.861 184.414H62.965V186.838H61.405V178.438H64.861ZM64.789 183.094C65.469 183.094 65.985 182.95 66.337 182.662C66.689 182.374 66.865 181.962 66.865 181.426C66.865 180.89 66.689 180.478 66.337 180.19C65.985 179.902 65.469 179.758 64.789 179.758H62.965V183.094H64.789ZM78.4608 186.838L78.4488 181.27L75.6888 185.878H74.9928L72.2328 181.342V186.838H70.7448V178.438H72.0288L75.3648 184.006L78.6408 178.438H79.9248L79.9368 186.838H78.4608ZM85.5597 186.958C84.9117 186.958 84.2837 186.866 83.6757 186.682C83.0757 186.498 82.5997 186.254 82.2477 185.95L82.7877 184.738C83.1317 185.01 83.5517 185.234 84.0477 185.41C84.5517 185.578 85.0557 185.662 85.5597 185.662C86.1837 185.662 86.6477 185.562 86.9517 185.362C87.2637 185.162 87.4197 184.898 87.4197 184.57C87.4197 184.33 87.3317 184.134 87.1557 183.982C86.9877 183.822 86.7717 183.698 86.5077 183.61C86.2437 183.522 85.8837 183.422 85.4277 183.31C84.7877 183.158 84.2677 183.006 83.8677 182.854C83.4757 182.702 83.1357 182.466 82.8477 182.146C82.5677 181.818 82.4277 181.378 82.4277 180.826C82.4277 180.362 82.5517 179.942 82.7997 179.566C83.0557 179.182 83.4357 178.878 83.9397 178.654C84.4517 178.43 85.0757 178.318 85.8117 178.318C86.3237 178.318 86.8277 178.382 87.3237 178.51C87.8197 178.638 88.2477 178.822 88.6077 179.062L88.1157 180.274C87.7477 180.058 87.3637 179.894 86.9637 179.782C86.5637 179.67 86.1757 179.614 85.7997 179.614C85.1837 179.614 84.7237 179.718 84.4197 179.926C84.1237 180.134 83.9757 180.41 83.9757 180.754C83.9757 180.994 84.0597 181.19 84.2277 181.342C84.4037 181.494 84.6237 181.614 84.8877 181.702C85.1517 181.79 85.5117 181.89 85.9677 182.002C86.5917 182.146 87.1037 182.298 87.5037 182.458C87.9037 182.61 88.2437 182.846 88.5237 183.166C88.8117 183.486 88.9557 183.918 88.9557 184.462C88.9557 184.926 88.8277 185.346 88.5717 185.722C88.3237 186.098 87.9437 186.398 87.4317 186.622C86.9197 186.846 86.2957 186.958 85.5597 186.958ZM97.923 186.958C97.275 186.958 96.647 186.866 96.039 186.682C95.439 186.498 94.963 186.254 94.611 185.95L95.151 184.738C95.495 185.01 95.915 185.234 96.411 185.41C96.915 185.578 97.419 185.662 97.923 185.662C98.547 185.662 99.011 185.562 99.315 185.362C99.627 185.162 99.783 184.898 99.783 184.57C99.783 184.33 99.695 184.134 99.519 183.982C99.351 183.822 99.135 183.698 98.871 183.61C98.607 183.522 98.247 183.422 97.791 183.31C97.151 183.158 96.631 183.006 96.231 182.854C95.839 182.702 95.499 182.466 95.211 182.146C94.931 181.818 94.791 181.378 94.791 180.826C94.791 180.362 94.915 179.942 95.163 179.566C95.419 179.182 95.799 178.878 96.303 178.654C96.815 178.43 97.439 178.318 98.175 178.318C98.687 178.318 99.191 178.382 99.687 178.51C100.183 178.638 100.611 178.822 100.971 179.062L100.479 180.274C100.111 180.058 99.727 179.894 99.327 179.782C98.927 179.67 98.539 179.614 98.163 179.614C97.547 179.614 97.087 179.718 96.783 179.926C96.487 180.134 96.339 180.41 96.339 180.754C96.339 180.994 96.423 181.19 96.591 181.342C96.767 181.494 96.987 181.614 97.251 181.702C97.515 181.79 97.875 181.89 98.331 182.002C98.955 182.146 99.467 182.298 99.867 182.458C100.267 182.61 100.607 182.846 100.887 183.166C101.175 183.486 101.319 183.918 101.319 184.462C101.319 184.926 101.191 185.346 100.935 185.722C100.687 186.098 100.307 186.398 99.795 186.622C99.283 186.846 98.659 186.958 97.923 186.958ZM107.064 183.874V186.838H105.504V183.898L102.204 178.438H103.872L106.332 182.53L108.816 178.438H110.352L107.064 183.874ZM114.552 186.958C113.904 186.958 113.276 186.866 112.668 186.682C112.068 186.498 111.592 186.254 111.24 185.95L111.78 184.738C112.124 185.01 112.544 185.234 113.04 185.41C113.544 185.578 114.048 185.662 114.552 185.662C115.176 185.662 115.64 185.562 115.944 185.362C116.256 185.162 116.412 184.898 116.412 184.57C116.412 184.33 116.324 184.134 116.148 183.982C115.98 183.822 115.764 183.698 115.5 183.61C115.236 183.522 114.876 183.422 114.42 183.31C113.78 183.158 113.26 183.006 112.86 182.854C112.468 182.702 112.128 182.466 111.84 182.146C111.56 181.818 111.42 181.378 111.42 180.826C111.42 180.362 111.544 179.942 111.792 179.566C112.048 179.182 112.428 178.878 112.932 178.654C113.444 178.43 114.068 178.318 114.804 178.318C115.316 178.318 115.82 178.382 116.316 178.51C116.812 178.638 117.24 178.822 117.6 179.062L117.108 180.274C116.74 180.058 116.356 179.894 115.956 179.782C115.556 179.67 115.168 179.614 114.792 179.614C114.176 179.614 113.716 179.718 113.412 179.926C113.116 180.134 112.968 180.41 112.968 180.754C112.968 180.994 113.052 181.19 113.22 181.342C113.396 181.494 113.616 181.614 113.88 181.702C114.144 181.79 114.504 181.89 114.96 182.002C115.584 182.146 116.096 182.298 116.496 182.458C116.896 182.61 117.236 182.846 117.516 183.166C117.804 183.486 117.948 183.918 117.948 184.462C117.948 184.926 117.82 185.346 117.564 185.722C117.316 186.098 116.936 186.398 116.424 186.622C115.912 186.846 115.288 186.958 114.552 186.958ZM121.832 179.758H119.048V178.438H126.176V179.758H123.392V186.838H121.832V179.758ZM134.396 185.53V186.838H128.096V178.438H134.228V179.746H129.656V181.93H133.712V183.214H129.656V185.53H134.396ZM144.601 186.838L144.589 181.27L141.829 185.878H141.133L138.373 181.342V186.838H136.885V178.438H138.169L141.505 184.006L144.781 178.438H146.065L146.077 186.838H144.601ZM59.441 195.758H56.657V194.438H63.785V195.758H61.001V202.838H59.441V195.758ZM65.7057 194.438H67.2657V202.838H65.7057V194.438ZM75.7838 202.838L74.0678 200.378C73.9958 200.386 73.8878 200.39 73.7438 200.39H71.8478V202.838H70.2878V194.438H73.7438C74.4718 194.438 75.1038 194.558 75.6398 194.798C76.1838 195.038 76.5998 195.382 76.8878 195.83C77.1758 196.278 77.3198 196.81 77.3198 197.426C77.3198 198.058 77.1638 198.602 76.8518 199.058C76.5478 199.514 76.1078 199.854 75.5318 200.078L77.4638 202.838H75.7838ZM75.7478 197.426C75.7478 196.89 75.5718 196.478 75.2198 196.19C74.8678 195.902 74.3518 195.758 73.6718 195.758H71.8478V199.106H73.6718C74.3518 199.106 74.8678 198.962 75.2198 198.674C75.5718 198.378 75.7478 197.962 75.7478 197.426ZM86.1151 201.53V202.838H79.8151V194.438H85.9471V195.746H81.3751V197.93H85.4311V199.214H81.3751V201.53H86.1151ZM98.1186 200.894H93.9186L93.0906 202.838H91.4826L95.2626 194.438H96.7986L100.591 202.838H98.9586L98.1186 200.894ZM97.6026 199.67L96.0186 195.998L94.4466 199.67H97.6026ZM114.24 194.438L111.456 202.838H109.8L107.724 196.622L105.612 202.838H103.944L101.16 194.438H102.78L104.868 200.822L107.04 194.438H108.48L110.604 200.858L112.752 194.438H114.24ZM121.439 200.894H117.239L116.411 202.838H114.803L118.583 194.438H120.119L123.911 202.838H122.279L121.439 200.894ZM120.923 199.67L119.339 195.998L117.767 199.67H120.923ZM131.225 202.838L129.509 200.378C129.437 200.386 129.329 200.39 129.185 200.39H127.289V202.838H125.729V194.438H129.185C129.913 194.438 130.545 194.558 131.081 194.798C131.625 195.038 132.041 195.382 132.329 195.83C132.617 196.278 132.761 196.81 132.761 197.426C132.761 198.058 132.605 198.602 132.293 199.058C131.989 199.514 131.549 199.854 130.973 200.078L132.905 202.838H131.225ZM131.189 197.426C131.189 196.89 131.013 196.478 130.661 196.19C130.309 195.902 129.793 195.758 129.113 195.758H127.289V199.106H129.113C129.793 199.106 130.309 198.962 130.661 198.674C131.013 198.378 131.189 197.962 131.189 197.426ZM141.557 201.53V202.838H135.257V194.438H141.389V195.746H136.817V197.93H140.873V199.214H136.817V201.53H141.557ZM76.9816 218.958C76.3336 218.958 75.7056 218.866 75.0976 218.682C74.4976 218.498 74.0216 218.254 73.6696 217.95L74.2096 216.738C74.5536 217.01 74.9736 217.234 75.4696 217.41C75.9736 217.578 76.4776 217.662 76.9816 217.662C77.6056 217.662 78.0696 217.562 78.3736 217.362C78.6856 217.162 78.8416 216.898 78.8416 216.57C78.8416 216.33 78.7536 216.134 78.5776 215.982C78.4096 215.822 78.1936 215.698 77.9296 215.61C77.6656 215.522 77.3056 215.422 76.8496 215.31C76.2096 215.158 75.6896 215.006 75.2896 214.854C74.8976 214.702 74.5576 214.466 74.2696 214.146C73.9896 213.818 73.8496 213.378 73.8496 212.826C73.8496 212.362 73.9736 211.942 74.2216 211.566C74.4776 211.182 74.8576 210.878 75.3616 210.654C75.8736 210.43 76.4976 210.318 77.2336 210.318C77.7456 210.318 78.2496 210.382 78.7456 210.51C79.2416 210.638 79.6696 210.822 80.0296 211.062L79.5376 212.274C79.1696 212.058 78.7856 211.894 78.3856 211.782C77.9856 211.67 77.5976 211.614 77.2216 211.614C76.6056 211.614 76.1456 211.718 75.8416 211.926C75.5456 212.134 75.3976 212.41 75.3976 212.754C75.3976 212.994 75.4816 213.19 75.6496 213.342C75.8256 213.494 76.0456 213.614 76.3096 213.702C76.5736 213.79 76.9336 213.89 77.3896 214.002C78.0136 214.146 78.5256 214.298 78.9256 214.458C79.3256 214.61 79.6656 214.846 79.9456 215.166C80.2336 215.486 80.3776 215.918 80.3776 216.462C80.3776 216.926 80.2496 217.346 79.9936 217.722C79.7456 218.098 79.3656 218.398 78.8536 218.622C78.3416 218.846 77.7176 218.958 76.9816 218.958ZM86.1227 215.874V218.838H84.5627V215.898L81.2627 210.438H82.9307L85.3907 214.53L87.8747 210.438H89.4107L86.1227 215.874ZM93.6105 218.958C92.9625 218.958 92.3345 218.866 91.7265 218.682C91.1265 218.498 90.6505 218.254 90.2985 217.95L90.8385 216.738C91.1825 217.01 91.6025 217.234 92.0985 217.41C92.6025 217.578 93.1065 217.662 93.6105 217.662C94.2345 217.662 94.6985 217.562 95.0025 217.362C95.3145 217.162 95.4705 216.898 95.4705 216.57C95.4705 216.33 95.3825 216.134 95.2065 215.982C95.0385 215.822 94.8225 215.698 94.5585 215.61C94.2945 215.522 93.9345 215.422 93.4785 215.31C92.8385 215.158 92.3185 215.006 91.9185 214.854C91.5265 214.702 91.1865 214.466 90.8985 214.146C90.6185 213.818 90.4785 213.378 90.4785 212.826C90.4785 212.362 90.6025 211.942 90.8505 211.566C91.1065 211.182 91.4865 210.878 91.9905 210.654C92.5025 210.43 93.1265 210.318 93.8625 210.318C94.3745 210.318 94.8785 210.382 95.3745 210.51C95.8705 210.638 96.2985 210.822 96.6585 211.062L96.1665 212.274C95.7985 212.058 95.4145 211.894 95.0145 211.782C94.6145 211.67 94.2265 211.614 93.8505 211.614C93.2345 211.614 92.7745 211.718 92.4705 211.926C92.1745 212.134 92.0265 212.41 92.0265 212.754C92.0265 212.994 92.1105 213.19 92.2785 213.342C92.4545 213.494 92.6745 213.614 92.9385 213.702C93.2025 213.79 93.5625 213.89 94.0185 214.002C94.6425 214.146 95.1545 214.298 95.5545 214.458C95.9545 214.61 96.2945 214.846 96.5745 215.166C96.8625 215.486 97.0065 215.918 97.0065 216.462C97.0065 216.926 96.8785 217.346 96.6225 217.722C96.3745 218.098 95.9945 218.398 95.4825 218.622C94.9705 218.846 94.3465 218.958 93.6105 218.958ZM100.89 211.758H98.1062V210.438H105.234V211.758H102.45V218.838H100.89V211.758ZM113.455 217.53V218.838H107.155V210.438H113.287V211.746H108.715V213.93H112.771V215.214H108.715V217.53H113.455ZM123.66 218.838L123.648 213.27L120.888 217.878H120.192L117.432 213.342V218.838H115.944V210.438H117.228L120.564 216.006L123.84 210.438H125.124L125.136 218.838H123.66Z" fill="white" fill-opacity="0.87"/>
<path d="M107 96.2079C103.422 96.2079 100.513 99.1173 100.513 102.692C100.513 106.271 103.422 109.18 107 109.18C110.576 109.18 113.486 106.271 113.486 102.692C113.486 99.1173 110.576 96.2079 107 96.2079ZM107 110.539C102.672 110.539 99.1519 107.02 99.1519 102.692C99.1519 98.3666 102.672 94.8474 107 94.8474C111.327 94.8474 114.847 98.3666 114.847 102.692C114.847 107.02 111.327 110.539 107 110.539Z" fill="white"/>
<path d="M100.554 88.1409C103.206 93.1802 106.097 97.3345 106.998 97.3566C107.896 97.3345 110.788 93.1802 113.441 88.1409C113.237 88.0679 112.984 87.9847 112.689 87.8998C111.489 90.2181 108.834 94.2994 106.998 94.2994C105.16 94.2994 102.505 90.2181 101.305 87.8998C101.01 87.9847 100.758 88.0679 100.554 88.1409V88.1409ZM106.998 98.717C104.704 98.717 100.641 91.2932 99.0018 88.1036L98.6875 87.4938L99.3007 87.1864C99.3313 87.1694 100.087 86.7924 101.504 86.4391L102.043 86.3049L102.282 86.8077C103.898 90.1909 106.291 92.939 106.998 92.939C107.703 92.939 110.096 90.1909 111.712 86.8077L111.951 86.3049L112.49 86.4391C113.907 86.7924 114.664 87.1694 114.695 87.1864L115.308 87.4938L114.994 88.1036C113.353 91.2932 109.289 98.717 106.998 98.717" fill="white"/>
<path d="M91.1695 100.996C96.867 101.217 101.904 100.792 102.373 100.025C102.804 99.235 100.65 94.6526 97.6128 89.8376C97.4463 89.9785 97.2493 90.1535 97.0267 90.3692C98.4333 92.5652 100.643 96.9064 99.7226 98.4944C98.8036 100.088 93.9452 100.341 91.3359 100.223C91.2629 100.524 91.2068 100.784 91.1695 100.996V100.996ZM94.4175 102.426C92.8529 102.426 91.4022 102.374 90.3592 102.321L89.6763 102.289L89.7153 101.606C89.717 101.57 89.7663 100.728 90.1689 99.3233L90.3235 98.7883L90.8756 98.8341C94.6196 99.1263 98.1938 98.4282 98.5471 97.8168C98.9004 97.2036 97.7164 93.7575 95.593 90.6664L95.277 90.2078L95.6626 89.8104C96.6768 88.7591 97.3801 88.2937 97.4106 88.275L97.9848 87.8979L98.3534 88.4754C100.298 91.4901 104.698 98.7203 103.55 100.704C102.738 102.114 98.2413 102.426 94.4175 102.426" fill="white"/>
<path d="M97.0267 115.019C97.2493 115.233 97.4463 115.408 97.6111 115.549C100.65 110.736 102.802 106.15 102.371 105.362C101.904 104.595 96.8518 104.167 91.1695 104.392C91.2068 104.605 91.2612 104.865 91.3342 105.163C93.9435 105.046 98.8053 105.301 99.7243 106.892C100.643 108.482 98.4333 112.82 97.0267 115.019ZM97.9831 117.489L97.4106 117.112C97.3801 117.095 96.6768 116.628 95.6626 115.578L95.277 115.179L95.5913 114.721C97.7164 111.629 98.9004 108.185 98.5471 107.572C98.1938 106.96 94.6077 106.266 90.8756 106.554L90.3235 106.597L90.1689 106.065C89.7663 104.661 89.7153 103.818 89.7136 103.783L89.6763 103.098L90.3592 103.066C93.9418 102.888 102.403 102.699 103.55 104.683C104.697 106.668 100.298 113.897 98.3534 116.912L97.9831 117.489V117.489Z" fill="white"/>
<path d="M106.999 111.09C108.836 111.09 111.491 115.171 112.69 117.489C112.986 117.404 113.239 117.32 113.443 117.248C110.789 112.209 107.898 108.055 106.999 108.033C106.099 108.055 103.208 112.209 100.554 117.248C100.758 117.32 101.011 117.404 101.307 117.489C102.506 115.171 105.161 111.09 106.999 111.09ZM111.953 119.083L111.713 118.581C110.098 115.198 107.704 112.45 106.999 112.45C106.293 112.45 103.899 115.198 102.284 118.581L102.044 119.083L101.506 118.95C100.089 118.597 99.3313 118.218 99.3024 118.203L98.6875 117.895L99.0018 117.284C100.643 114.094 104.706 106.672 106.999 106.672C109.291 106.672 113.354 114.094 114.995 117.284L115.31 117.895L114.695 118.203C114.666 118.218 113.908 118.597 112.491 118.95L111.953 119.083V119.083Z" fill="white"/>
<path d="M119.857 104.331C115.478 104.331 112.011 104.732 111.625 105.362C111.194 106.15 113.348 110.736 116.387 115.549C116.552 115.408 116.749 115.234 116.971 115.02C115.565 112.82 113.356 108.482 114.275 106.893C115.191 105.301 120.053 105.046 122.662 105.164C122.735 104.863 122.791 104.605 122.83 104.392C121.809 104.352 120.812 104.331 119.857 104.331V104.331ZM116.013 117.489L115.645 116.912C113.7 113.897 109.301 106.668 110.448 104.683C111.593 102.697 120.051 102.886 123.641 103.066L124.325 103.098L124.284 103.784C124.283 103.818 124.23 104.663 123.829 106.065L123.674 106.597L123.122 106.555C119.375 106.268 115.804 106.96 115.453 107.572C115.099 108.183 116.283 111.629 118.407 114.721L118.721 115.179L118.335 115.578C117.321 116.628 116.618 117.095 116.587 117.112L116.013 117.489V117.489Z" fill="white"/>
<path d="M116.387 89.8376C113.348 94.6526 111.194 99.235 111.626 100.025C112.095 100.792 117.145 101.22 122.831 100.996C122.792 100.784 122.736 100.524 122.663 100.223C120.06 100.341 115.195 100.089 114.276 98.4961C113.357 96.9064 115.565 92.5652 116.972 90.3692C116.749 90.1552 116.552 89.9785 116.387 89.8376V89.8376ZM119.583 102.426C115.759 102.426 111.261 102.115 110.449 100.704C109.3 98.7203 113.7 91.4918 115.645 88.4754L116.014 87.8979L116.588 88.275C116.618 88.2937 117.322 88.7591 118.336 89.8104L118.721 90.2095L118.405 90.6664C116.282 93.7592 115.1 97.2053 115.451 97.8168C115.805 98.4299 119.377 99.128 123.123 98.8341L123.675 98.79L123.83 99.3233C124.23 100.726 124.283 101.569 124.285 101.606L124.326 102.289L123.641 102.323C122.598 102.374 121.147 102.426 119.583 102.426" fill="white"/>
<path d="M107.005 87.1742C98.4465 87.1742 91.4834 94.1378 91.4834 102.693C91.4834 111.251 98.4465 118.211 107.005 118.211C115.563 118.211 122.526 111.251 122.526 102.693C122.526 94.1378 115.563 87.1742 107.005 87.1742ZM107.005 119.572C97.6957 119.572 90.1227 112 90.1227 102.693C90.1227 93.3854 97.6957 85.8155 107.005 85.8155C116.312 85.8155 123.887 93.3854 123.887 102.693C123.887 112 116.312 119.572 107.005 119.572ZM107.005 85.4163C97.4765 85.4163 89.7235 93.1663 89.7235 102.693C89.7235 112.219 97.4765 119.971 107.005 119.971C116.531 119.971 124.284 112.219 124.284 102.693C124.284 93.1663 116.531 85.4163 107.005 85.4163V85.4163ZM107.005 121.328C96.7257 121.328 88.3628 112.97 88.3628 102.693C88.3628 92.4173 96.7257 84.0559 107.005 84.0559C117.282 84.0559 125.645 92.4173 125.645 102.693C125.645 112.97 117.282 121.328 107.005 121.328Z" fill="white"/>
<path d="M107.004 85.7597C97.6643 85.7597 90.0658 93.3567 90.0658 102.693C90.0658 112.031 97.6643 119.628 107.004 119.628C116.342 119.628 123.94 112.031 123.94 102.693C123.94 93.3567 116.342 85.7597 107.004 85.7597V85.7597ZM107.004 120.988C96.9151 120.988 88.7068 112.78 88.7068 102.693C88.7068 92.6043 96.9151 84.3992 107.004 84.3992C117.093 84.3992 125.301 92.6043 125.301 102.693C125.301 112.78 117.093 120.988 107.004 120.988ZM107.004 79.2071C94.0493 79.2071 83.5121 89.7425 83.5121 102.693C83.5121 115.645 94.0493 126.181 107.004 126.181C119.957 126.181 130.494 115.645 130.494 102.693C130.494 89.7425 119.957 79.2071 107.004 79.2071V79.2071ZM107.004 127.541C93.3019 127.541 82.1514 116.394 82.1514 102.693C82.1514 88.9935 93.3019 77.8467 107.004 77.8467C120.706 77.8467 131.855 88.9935 131.855 102.693C131.855 116.394 120.706 127.541 107.004 127.541Z" fill="white"/>
<path d="M107 80.7712C94.9086 80.7712 85.0712 90.6051 85.0712 102.693C85.0712 114.782 94.9086 124.618 107 124.618C119.09 124.618 128.928 114.782 128.928 102.693C128.928 90.6051 119.09 80.7712 107 80.7712ZM107 127.099C93.5377 127.099 82.5894 116.153 82.5894 102.693C82.5894 89.2344 93.5377 78.2864 107 78.2864C120.461 78.2864 131.409 89.2344 131.409 102.693C131.409 116.153 120.461 127.099 107 127.099Z" fill="white"/>
<path d="M106.995 83.6769C96.5054 83.6769 87.9743 92.2064 87.9743 102.693C87.9743 113.18 96.5054 121.713 106.995 121.713C117.483 121.713 126.014 113.18 126.014 102.693C126.014 92.2064 117.483 83.6769 106.995 83.6769V83.6769ZM106.995 123.072C95.7563 123.072 86.6136 113.929 86.6136 102.693C86.6136 91.4574 95.7563 82.3165 106.995 82.3165C118.232 82.3165 127.375 91.4574 127.375 102.693C127.375 113.929 118.232 123.072 106.995 123.072ZM106.995 80.7811C94.9103 80.7811 85.078 90.6116 85.078 102.693C85.078 114.777 94.9103 124.607 106.995 124.607C119.078 124.607 128.911 114.777 128.911 102.693C128.911 90.6116 119.078 80.7811 106.995 80.7811V80.7811ZM106.995 125.966C94.1577 125.966 83.7173 115.526 83.7173 102.693C83.7173 89.8609 94.1577 79.4207 106.995 79.4207C119.831 79.4207 130.271 89.8609 130.271 102.693C130.271 115.526 119.831 125.966 106.995 125.966Z" fill="white"/>
<path d="M107 100.534C105.807 100.534 104.839 101.5 104.839 102.692C104.839 103.885 105.807 104.853 107 104.853C108.191 104.853 109.159 103.885 109.159 102.692C109.159 101.5 108.191 100.534 107 100.534ZM107 106.213C105.057 106.213 103.479 104.634 103.479 102.692C103.479 100.753 105.057 99.1731 107 99.1731C108.942 99.1731 110.52 100.753 110.52 102.692C110.52 104.634 108.942 106.213 107 106.213Z" fill="white"/>
<path d="M108.51 79.6865H104.408L104.999 77.5325H107.919L108.51 79.6865Z" fill="white"/>
<path d="M102.019 80.0823L102.384 77.879L105.289 77.5732L106.102 79.6542L102.019 80.0823Z" fill="white"/>
<path d="M99.6831 80.7292L99.8122 78.4988L102.669 77.8906L103.697 79.8731L99.6831 80.7292V80.7292Z" fill="white"/>
<path d="M97.4227 81.6146L97.3208 79.3825L100.098 78.4805L101.328 80.3457L97.4227 81.6146Z" fill="white"/>
<path d="M95.2697 82.7286L94.9316 80.5219L97.6004 79.3345L99.0171 81.0621L95.2697 82.7286Z" fill="white"/>
<path d="M93.2546 84.0631L92.689 81.904L95.2184 80.4414L96.8067 82.0127L93.2546 84.0631Z" fill="white"/>
<path d="M91.3685 85.6018L90.5786 83.514L92.9433 81.7949L94.6879 83.1913L91.3685 85.6018Z" fill="white"/>
<path d="M89.6719 87.3294L88.668 85.3351L90.8407 83.3782L92.7229 84.5826L89.6719 87.3294Z" fill="white"/>
<path d="M88.16 89.2234L86.9556 87.3463L88.9091 85.1719L90.9068 86.1758L88.16 89.2234V89.2234Z" fill="white"/>
<path d="M86.8507 91.2682L85.4561 89.5202L87.1718 87.1606L89.2646 87.9455L86.8507 91.2682Z" fill="white"/>
<path d="M85.7798 93.4339L84.2085 91.8456L85.6728 89.3145L87.8302 89.8801L85.7798 93.4339V93.4339Z" fill="white"/>
<path d="M84.9273 95.7046L83.1997 94.2879L84.3888 91.6191L86.5972 91.9538L84.9273 95.7046Z" fill="white"/>
<path d="M84.3086 98.0496L82.4434 96.8214L83.3471 94.0422L85.5758 94.1459L84.3086 98.0496V98.0496Z" fill="white"/>
<path d="M83.9478 100.445L81.9653 99.4205L82.5718 96.5632L84.8039 96.4324L83.9478 100.445V100.445Z" fill="white"/>
<path d="M83.8356 102.865L81.7529 102.054L82.0604 99.1477L84.2637 98.7842L83.8356 102.865V102.865Z" fill="white"/>
<path d="M83.987 105.285L81.833 104.692V101.774L83.987 101.181V105.285Z" fill="white"/>
<path d="M84.3821 107.676L82.1805 107.314L81.873 104.406L83.954 103.598L84.3821 107.676Z" fill="white"/>
<path d="M85.0266 110.012L82.7979 109.883L82.1914 107.024L84.1738 105.998L85.0266 110.012Z" fill="white"/>
<path d="M83.6791 112.373L82.7754 109.592L84.6406 108.364L85.9079 112.267L83.6791 112.373V112.373Z" fill="white"/>
<path d="M84.8251 114.754L83.6377 112.085L85.3653 110.67L87.0352 114.419L84.8251 114.754V114.754Z" fill="white"/>
<path d="M86.2002 117.006L84.7393 114.478L86.3089 112.888L88.3593 116.444L86.2002 117.006Z" fill="white"/>
<path d="M87.8107 119.1L86.0933 116.737L87.4896 114.992L89.9001 118.315L87.8107 119.1V119.1Z" fill="white"/>
<path d="M89.6276 121.016L87.6724 118.847L88.8785 116.964L91.6236 120.014L89.6276 121.016V121.016Z" fill="white"/>
<path d="M91.6463 122.731L89.4771 120.776L90.4793 118.78L93.5285 121.527L91.6463 122.731V122.731Z" fill="white"/>
<path d="M93.8192 124.226L91.4546 122.509L92.2445 120.418L95.5638 122.832L93.8192 124.226V124.226Z" fill="white"/>
<path d="M96.1488 125.483L93.6177 124.024L94.1834 121.863L97.7388 123.915L96.1488 125.483Z" fill="white"/>
<path d="M98.5943 126.493L95.9272 125.306L96.2619 123.097L100.013 124.765L98.5943 126.493V126.493Z" fill="white"/>
<path d="M101.121 127.242L98.3423 126.339L98.4476 124.106L102.351 125.375L101.121 127.242V127.242Z" fill="white"/>
<path d="M103.723 127.719L100.864 127.115L100.731 124.884L104.747 125.737L103.723 127.719V127.719Z" fill="white"/>
<path d="M106.362 127.925L103.454 127.619L103.094 125.416L107.174 125.846L106.362 127.925V127.925Z" fill="white"/>
<path d="M108.997 127.853H106.077L105.482 125.699H109.59L108.997 127.853Z" fill="white"/>
<path d="M108.712 127.813L107.898 125.734L111.982 125.302L111.616 127.507L108.712 127.813V127.813Z" fill="white"/>
<path d="M111.326 127.497L110.3 125.513L114.312 124.66L114.183 126.891L111.326 127.497Z" fill="white"/>
<path d="M113.892 126.908L112.663 125.043L116.568 123.774L116.67 126.008L113.892 126.908V126.908Z" fill="white"/>
<path d="M116.39 126.053L114.972 124.328L118.722 122.658L119.057 124.868L116.39 126.053V126.053Z" fill="white"/>
<path d="M118.776 124.946L117.188 123.373L120.74 121.321L121.306 123.483L118.776 124.946Z" fill="white"/>
<path d="M121.042 123.593L119.298 122.198L122.617 119.784L123.407 121.875L121.042 123.593V123.593Z" fill="white"/>
<path d="M123.154 122.01L121.275 120.804L124.323 118.058L125.327 120.054L123.154 122.01Z" fill="white"/>
<path d="M125.078 120.217L123.08 119.214L125.825 116.163L127.033 118.044L125.078 120.217V120.217Z" fill="white"/>
<path d="M126.817 118.227L124.726 117.443L127.137 114.12L128.535 115.864L126.817 118.227V118.227Z" fill="white"/>
<path d="M128.335 116.074L126.173 115.51L128.227 111.955L129.795 113.543L128.335 116.074Z" fill="white"/>
<path d="M129.617 113.769L127.407 113.434L129.08 109.683L130.804 111.102L129.617 113.769Z" fill="white"/>
<path d="M130.77 111.522L128.19 111.401L129.595 107.078L131.756 108.495L130.77 111.522Z" fill="white"/>
<path d="M128.986 109.139L129.929 104.691L132.226 105.877L131.567 108.988L128.986 109.139Z" fill="white"/>
<path d="M129.53 106.809L130.004 102.285L132.411 103.224L132.082 106.386L129.53 106.809Z" fill="white"/>
<path d="M129.835 104.427V99.8765L132.328 100.566V103.746L129.835 104.427Z" fill="white"/>
<path d="M129.898 102.029L129.424 97.5071L131.974 97.9284L132.307 101.091L129.898 102.029V102.029Z" fill="white"/>
<path d="M129.706 99.6431L128.76 95.1941L131.342 95.3453L132.003 98.4574L129.706 99.6431V99.6431Z" fill="white"/>
<path d="M129.35 97.022L128.084 93.12L130.313 93.0164L131.218 95.7955L129.35 97.022Z" fill="white"/>
<path d="M128.639 94.7195L126.969 90.9704L129.177 90.634L130.366 93.3028L128.639 94.7195Z" fill="white"/>
<path d="M127.68 92.5008L125.628 88.947L127.788 88.3796L129.248 90.9108L127.68 92.5008Z" fill="white"/>
<path d="M126.501 90.3949L124.089 87.0739L126.18 86.2891L127.896 88.652L126.501 90.3949V90.3949Z" fill="white"/>
<path d="M125.109 88.4248L122.364 85.3755L124.36 84.3716L126.315 86.5443L125.109 88.4248Z" fill="white"/>
<path d="M123.518 86.6097L120.466 83.8629L122.35 82.6584L124.521 84.612L123.518 86.6097V86.6097Z" fill="white"/>
<path d="M121.742 84.9683L118.422 82.556L120.167 81.1614L122.532 82.8788L121.742 84.9683Z" fill="white"/>
<path d="M119.813 83.5253L116.259 81.4749L117.847 79.9036L120.378 81.3662L119.813 83.5253V83.5253Z" fill="white"/>
<path d="M117.738 82.2918L113.989 80.6236L115.404 78.8926L118.073 80.0817L117.738 82.2918V82.2918Z" fill="white"/>
<path d="M115.546 81.2792L111.641 80.0136L112.871 78.1467L115.648 79.0488L115.546 81.2792V81.2792Z" fill="white"/>
<path d="M113.266 80.5034L109.251 79.6506L110.278 77.6665L113.135 78.273L113.266 80.5034Z" fill="white"/>
<path d="M110.909 79.9736L106.823 79.5421L107.639 77.4612L110.543 77.767L110.909 79.9736Z" fill="white"/>
<path d="M71.131 80.69C69.9725 80.69 69.0331 81.6327 69.0331 82.7876V124.453C69.0331 125.608 69.9725 126.551 71.131 126.551C72.2878 126.551 73.2272 125.608 73.2272 124.453V82.7876C73.2272 81.6327 72.2878 80.69 71.131 80.69V80.69ZM71.131 127.911C69.2233 127.911 67.6724 126.361 67.6724 124.453V82.7876C67.6724 80.8803 69.2233 79.3296 71.131 79.3296C73.037 79.3296 74.5879 80.8803 74.5879 82.7876V124.453C74.5879 126.361 73.037 127.911 71.131 127.911" fill="white"/>
<path d="M71.8202 91.1182H70.4595V123.99H71.8202V91.1182Z" fill="white"/>
<path d="M88.2953 135.213C77.5865 135.213 70.7321 127.799 70.6318 127.684L71.6409 126.773C72.232 127.432 86.3622 142.643 106.168 126.646L107.024 127.702C100.051 133.336 93.6837 135.213 88.2953 135.213" fill="white"/>
<path d="M69.835 56.735C57.6279 56.735 47.6987 66.6641 47.6987 78.8673V133.806C47.6987 146.009 57.6279 155.939 69.835 155.939H129.688C141.896 155.939 151.828 146.009 151.828 133.806V78.8673C151.828 66.6641 141.896 56.735 129.688 56.735H69.835V56.735ZM129.688 157.637H69.835C56.6919 157.637 46 146.947 46 133.806V78.8673C46 65.7265 56.6919 55.0366 69.835 55.0366H129.688C142.833 55.0366 153.527 65.7265 153.527 78.8673V133.806C153.527 146.947 142.833 157.637 129.688 157.637Z" fill="white"/>
<defs>
<filter id="filter0_d" x="0" y="0.0466309" width="208" height="261" filterUnits="userSpaceOnUse" color-interpolation-filters="sRGB">
<feFlood flood-opacity="0" result="BackgroundImageFix"/>
<feColorMatrix in="SourceAlpha" type="matrix" values="0 0 0 0 0 0 0 0 0 0 0 0 0 0 0 0 0 0 127 0"/>
<feOffset dx="4" dy="4"/>
<feGaussianBlur stdDeviation="2"/>
<feColorMatrix type="matrix" values="0 0 0 0 0 0 0 0 0 0 0 0 0 0 0 0 0 0 0.25 0"/>
<feBlend mode="normal" in2="BackgroundImageFix" result="effect1_dropShadow"/>
<feBlend mode="normal" in="SourceGraphic" in2="effect1_dropShadow" result="shape"/>
</filter>
</defs>
</svg>
