<svg width="287" height="361" viewBox="0 0 287 361" fill="none" xmlns="http://www.w3.org/2000/svg">
<g filter="url(#filter0_d)">
<rect width="279" height="353" rx="8" fill="white" fill-opacity="0.08"/>
</g>
<path d="M251.286 319.714H242.714V328.286C242.714 329.229 241.943 330 241 330C240.057 330 239.286 329.229 239.286 328.286V319.714H230.714C229.771 319.714 229 318.943 229 318C229 317.057 229.771 316.286 230.714 316.286H239.286V307.714C239.286 306.771 240.057 306 241 306C241.943 306 242.714 306.771 242.714 307.714V316.286H251.286C252.229 316.286 253 317.057 253 318C253 318.943 252.229 319.714 251.286 319.714Z" fill="#FAFAFA"/>
<path d="M129.576 179.056H125.376L124.548 181H122.94L126.72 172.6H128.256L132.048 181H130.416L129.576 179.056ZM129.06 177.832L127.476 174.16L125.904 177.832H129.06ZM141.33 172.6V181H140.046L135.414 175.312V181H133.866V172.6H135.15L139.782 178.288V172.6H141.33ZM146.035 173.92H143.251V172.6H150.379V173.92H147.595V181H146.035V173.92ZM152.3 172.6H153.86V181H152.3V172.6ZM156.414 177.04H159.714V178.288H156.414V177.04ZM162.249 172.6H163.809V179.68H168.201V181H162.249V172.6ZM175.689 179.056H171.489L170.661 181H169.053L172.833 172.6H174.369L178.161 181H176.529L175.689 179.056ZM175.173 177.832L173.589 174.16L172.017 177.832H175.173ZM185.598 176.704H187.074V180.052C186.642 180.396 186.138 180.66 185.562 180.844C184.986 181.028 184.394 181.12 183.786 181.12C182.93 181.12 182.158 180.936 181.47 180.568C180.782 180.192 180.242 179.676 179.85 179.02C179.458 178.364 179.262 177.624 179.262 176.8C179.262 175.976 179.458 175.236 179.85 174.58C180.242 173.924 180.782 173.412 181.47 173.044C182.166 172.668 182.946 172.48 183.81 172.48C184.514 172.48 185.154 172.596 185.73 172.828C186.306 173.06 186.79 173.4 187.182 173.848L186.198 174.808C185.558 174.168 184.786 173.848 183.882 173.848C183.29 173.848 182.762 173.972 182.298 174.22C181.842 174.468 181.482 174.816 181.218 175.264C180.962 175.712 180.834 176.224 180.834 176.8C180.834 177.36 180.962 177.864 181.218 178.312C181.482 178.76 181.842 179.112 182.298 179.368C182.762 179.624 183.286 179.752 183.87 179.752C184.526 179.752 185.102 179.608 185.598 179.32V176.704Z" fill="white" fill-opacity="0.87"/>
<path d="M138.186 88.3048C140.898 87.4105 141.601 87.2113 154.19 87.2801C154.799 87.2801 155.403 87.2801 156.044 87.3127C156.457 87.2801 156.939 87.3127 157.384 87.3417C178.693 88.0405 193.325 94.511 199.553 97.2955C200.447 97.6974 201.182 97.9943 201.693 98.2261C204.249 99.2218 208.113 99.7179 210.959 100.084C212.396 100.286 213.997 100.482 214.41 100.648C214.41 100.685 214.442 100.75 214.442 100.779C214.504 100.913 214.536 101.047 214.601 101.246C214.793 101.811 215.079 102.705 215.304 103.668C215.365 103.77 215.398 103.904 215.431 104.034L215.557 104.497C215.623 104.794 215.688 105.062 215.782 105.294L216.198 107.018C216.198 107.086 216.198 107.152 216.231 107.318L216.26 107.485C216.358 107.713 216.39 107.948 216.419 108.18C216.419 108.281 216.419 108.346 216.455 108.477C216.484 108.712 216.484 108.879 216.484 109.013C216.484 109.407 216.521 109.708 216.644 110.074C216.68 110.106 216.68 110.139 216.68 110.171C216.807 110.537 217.027 110.769 217.219 111.03L217.252 111.066C217.285 111.135 217.346 111.2 217.346 111.2L217.444 111.334C217.476 111.399 217.505 111.497 217.607 111.602L217.668 111.732C217.766 111.899 217.828 112.065 217.922 112.297L217.954 112.427C218.052 112.626 218.081 112.822 218.146 113.025C218.689 115.146 218.501 121.121 217.987 122.45C217.954 122.515 217.922 122.58 217.922 122.58C217.571 122.682 217.187 122.946 216.68 123.348C216.521 123.475 216.358 123.609 216.104 123.775C216.072 123.84 216.006 123.873 215.912 123.909C215.847 123.974 215.814 124.007 215.753 124.043L215.431 124.275C215.304 124.373 215.177 124.438 215.05 124.539C214.92 124.604 214.793 124.702 214.696 124.771C214.442 124.901 214.218 125.068 213.932 125.202L213.323 125.567C212.715 125.901 211.73 126.197 210.575 126.494C210.448 126.494 210.322 126.531 210.191 126.563C210.097 126.596 209.967 126.628 209.775 126.665H209.681C209.587 126.697 209.521 126.697 209.489 126.726C208.145 127.027 206.773 127.226 205.879 127.36C206.038 126.563 206.103 125.701 206.103 124.803C206.103 116.906 199.937 110.468 192.333 110.468C184.762 110.468 178.595 116.906 178.595 124.803C178.595 125.701 178.664 126.563 178.823 127.458L138.186 88.3048ZM179.812 128.287L179.718 127.791C179.49 126.795 179.396 125.796 179.396 124.803C179.396 117.37 185.211 111.301 192.333 111.301C199.491 111.301 205.303 117.37 205.303 124.803C205.303 125.864 205.209 126.831 204.952 127.725L204.923 128.254H205.43C206.295 128.153 207.986 127.921 209.713 127.526C209.746 127.49 209.775 127.49 209.807 127.49C209.873 127.49 209.967 127.458 209.967 127.458C210.097 127.425 210.227 127.392 210.383 127.36C210.481 127.36 210.575 127.324 210.734 127.295C211.951 126.994 213.037 126.665 213.675 126.295L214.312 125.933C214.601 125.796 214.859 125.633 215.145 125.47C215.239 125.365 215.365 125.303 215.496 125.234C215.623 125.133 215.753 125.039 215.945 124.901L216.358 124.604C216.455 124.539 216.578 124.47 216.615 124.405C216.807 124.275 216.998 124.137 217.158 124.007C217.571 123.706 217.954 123.409 218.081 123.409L218.306 123.38L218.432 123.243C218.53 123.145 218.628 122.946 218.722 122.812C219.294 121.288 219.49 115.146 218.914 112.858C218.881 112.626 218.82 112.427 218.722 112.163C218.689 112.094 218.66 112.033 218.628 111.928C218.563 111.765 218.501 111.565 218.403 111.366C218.371 111.265 218.306 111.164 218.273 111.135C218.211 111.066 218.146 110.968 218.114 110.903C218.081 110.867 218.052 110.801 218.02 110.733L217.828 110.468C217.636 110.269 217.505 110.106 217.444 109.907L217.379 109.708C217.317 109.505 217.285 109.31 217.285 109.013C217.285 108.846 217.285 108.643 217.252 108.415C217.252 108.314 217.219 108.245 217.219 108.18V108.082C217.158 107.818 217.125 107.546 217.027 107.249C217.027 107.188 217.027 107.119 216.998 107.086L216.549 105.026C216.455 104.794 216.39 104.563 216.325 104.298L216.198 103.799C216.166 103.668 216.104 103.534 216.072 103.44C215.814 102.437 215.557 101.579 215.365 100.982C215.304 100.779 215.239 100.612 215.206 100.514C215.177 100.449 215.145 100.42 215.145 100.42L215.112 100.25C214.92 99.7867 214.283 99.6853 211.053 99.2544C208.276 98.8923 204.441 98.3926 201.983 97.4331C201.472 97.2339 200.766 96.9334 199.872 96.5351C193.582 93.747 178.885 87.2113 157.446 86.5161C157 86.4799 156.519 86.4799 156.044 86.4799C155.436 86.4473 154.799 86.4473 154.19 86.4473C141.474 86.3821 140.739 86.6139 137.933 87.5082L179.812 128.287ZM158.822 100.348C158.822 97.0312 158.601 93.3813 158.054 88.9385H159.108C159.43 88.9711 159.683 88.9711 159.908 88.9711C162.689 88.9711 168.823 89.6337 173.073 90.8938C177.035 92.0524 184.827 96.832 185.913 98.1935C184.059 98.4904 172.592 99.4898 158.822 100.348ZM173.294 90.0972C168.982 88.8045 162.75 88.1419 159.908 88.1419C159.683 88.1419 159.43 88.1419 159.108 88.1057H157.16L157.225 88.5691C157.801 93.3813 158.054 97.2665 158.025 100.779V101.246L158.441 101.21C171.759 100.38 185.627 99.2544 186.391 98.9249C186.648 98.8235 186.807 98.628 186.807 98.3274C186.775 96.7343 176.901 91.1581 173.294 90.0972ZM158.822 100.348C158.822 97.0312 158.601 93.3813 158.054 88.9385H159.108C159.43 88.9711 159.683 88.9711 159.908 88.9711C162.689 88.9711 168.823 89.6337 173.073 90.8938C177.035 92.0524 184.827 96.832 185.913 98.1935C184.059 98.4904 172.592 99.4898 158.822 100.348ZM173.294 90.0972C168.982 88.8045 162.75 88.1419 159.908 88.1419C159.683 88.1419 159.43 88.1419 159.108 88.1057H157.16L157.225 88.5691C157.801 93.3813 158.054 97.2665 158.025 100.779V101.246L158.441 101.21C171.759 100.38 185.627 99.2544 186.391 98.9249C186.648 98.8235 186.807 98.628 186.807 98.3274C186.775 96.7343 176.901 91.1581 173.294 90.0972ZM158.822 100.348C158.822 97.0312 158.601 93.3813 158.054 88.9385H159.108C159.43 88.9711 159.683 88.9711 159.908 88.9711C162.689 88.9711 168.823 89.6337 173.073 90.8938C177.035 92.0524 184.827 96.832 185.913 98.1935C184.059 98.4904 172.592 99.4898 158.822 100.348ZM173.294 90.0972C168.982 88.8045 162.75 88.1419 159.908 88.1419C159.683 88.1419 159.43 88.1419 159.108 88.1057H157.16L157.225 88.5691C157.801 93.3813 158.054 97.2665 158.025 100.779V101.246L158.441 101.21C171.759 100.38 185.627 99.2544 186.391 98.9249C186.648 98.8235 186.807 98.628 186.807 98.3274C186.775 96.7343 176.901 91.1581 173.294 90.0972ZM158.822 100.348C158.822 97.0312 158.601 93.3813 158.054 88.9385H159.108C159.43 88.9711 159.683 88.9711 159.908 88.9711C162.689 88.9711 168.823 89.6337 173.073 90.8938C177.035 92.0524 184.827 96.832 185.913 98.1935C184.059 98.4904 172.592 99.4898 158.822 100.348ZM173.294 90.0972C168.982 88.8045 162.75 88.1419 159.908 88.1419C159.683 88.1419 159.43 88.1419 159.108 88.1057H157.16L157.225 88.5691C157.801 93.3813 158.054 97.2665 158.025 100.779V101.246L158.441 101.21C171.759 100.38 185.627 99.2544 186.391 98.9249C186.648 98.8235 186.807 98.628 186.807 98.3274C186.775 96.7343 176.901 91.1581 173.294 90.0972ZM158.822 100.348C158.822 97.0312 158.601 93.3813 158.054 88.9385H159.108C159.43 88.9711 159.683 88.9711 159.908 88.9711C162.689 88.9711 168.823 89.6337 173.073 90.8938C177.035 92.0524 184.827 96.832 185.913 98.1935C184.059 98.4904 172.592 99.4898 158.822 100.348ZM173.294 90.0972C168.982 88.8045 162.75 88.1419 159.908 88.1419C159.683 88.1419 159.43 88.1419 159.108 88.1057H157.16L157.225 88.5691C157.801 93.3813 158.054 97.2665 158.025 100.779V101.246L158.441 101.21C171.759 100.38 185.627 99.2544 186.391 98.9249C186.648 98.8235 186.807 98.628 186.807 98.3274C186.775 96.7343 176.901 91.1581 173.294 90.0972Z" fill="white"/>
<path d="M154.902 88.8306C155.253 88.8632 155.576 88.8632 155.891 88.8632V88.8306H154.902ZM139.025 101.406C141.805 101.305 144.84 101.171 148.095 100.975C145.126 101.109 142.059 101.272 139.025 101.406Z" fill="white"/>
<path d="M139.117 89.5645C139.28 89.4993 139.439 89.4341 139.598 89.4016C139.855 89.3002 140.08 89.235 140.268 89.1698C140.398 89.1336 140.493 89.101 140.554 89.101C140.779 89.0684 141.068 89.0358 141.387 88.9707C142.122 88.8982 143.049 88.8367 144.037 88.8041C145.634 88.7353 147.619 88.7063 149.983 88.7063C151.674 88.7063 153.397 88.7353 154.9 88.7353H155.892V88.7679C156.435 93.1166 156.66 96.9294 156.66 100.38C155.378 100.449 154.165 100.55 152.952 100.615C152.344 100.648 151.674 100.681 151.037 100.713C150.048 100.782 149.052 100.847 148.093 100.88C144.838 101.079 141.803 101.213 139.026 101.311C138.385 101.343 137.777 101.343 137.14 101.379L139.117 89.5645ZM157.073 101.177L157.453 101.144V100.749C157.453 99.6523 157.453 98.5262 157.391 97.3313C157.391 96.5999 157.326 95.8685 157.297 95.0719C157.167 92.9826 156.946 90.7268 156.66 88.3044L156.595 87.9387H156.24C154.422 87.9061 152.217 87.8735 149.983 87.8735C145.124 87.8735 141.995 88.0075 140.427 88.2755C139.884 88.3732 138.226 89.0033 135.988 89.9338" fill="white"/>
<path d="M185.791 120.851L190.585 122.491V117.27C188.64 117.708 186.899 119.008 185.791 120.851ZM191.385 123.599L190.255 123.255L188.756 122.723L184.617 121.329L184.845 120.891C186.127 118.439 188.401 116.745 190.925 116.361L191.385 116.292V123.599ZM193.952 117.277V122.48L198.71 120.851C197.649 119.04 195.922 117.744 193.952 117.277ZM193.152 123.61V116.285L193.615 116.365C196.179 116.792 198.435 118.486 199.655 120.898L199.876 121.332L193.152 123.61ZM192.247 126.127C191.598 126.127 191.055 125.576 191.055 124.921C191.055 124.24 191.591 123.679 192.247 123.679C192.909 123.679 193.445 124.24 193.445 124.921C193.445 125.576 192.898 126.127 192.247 126.127ZM184.73 124.157C184.704 124.399 184.693 124.656 184.693 124.921C184.693 126.825 185.356 128.632 186.565 130.055L189.56 125.79L188.007 125.283L184.73 124.157ZM186.656 131.341L186.323 131C184.759 129.371 183.897 127.213 183.897 124.921C183.897 124.428 183.933 123.958 184.009 123.53L184.092 123.06L190.816 125.33L190.157 126.355L189.201 127.655L186.656 131.341ZM194.973 125.79L195.042 125.895L197.964 130.052C199.17 128.61 199.807 126.847 199.807 124.921C199.807 124.675 199.793 124.432 199.767 124.193L194.973 125.79ZM197.884 131.344L193.717 125.33L200.408 123.103L200.491 123.57C200.567 124.019 200.607 124.457 200.607 124.921C200.607 127.198 199.756 129.356 198.214 130.997L197.884 131.344ZM189.274 132.123C191.106 132.963 193.26 132.992 195.223 132.115L192.254 127.846L189.274 132.123ZM192.247 133.6C190.921 133.6 189.654 133.281 188.484 132.655L188.075 132.427L192.243 126.431L193.872 128.734L196.429 132.434L196.005 132.655C194.817 133.274 193.518 133.6 192.247 133.6ZM192.247 114.069C186.504 114.069 181.837 118.939 181.837 124.921C181.837 130.884 186.504 135.736 192.247 135.736C198.011 135.736 202.7 130.884 202.7 124.921C202.7 118.939 198.011 114.069 192.247 114.069ZM192.247 136.569C186.066 136.569 181.04 131.341 181.04 124.921C181.04 118.483 186.066 113.24 192.247 113.24C198.449 113.24 203.497 118.483 203.497 124.921C203.497 131.341 198.449 136.569 192.247 136.569Z" fill="white"/>
<path d="M184.73 123.911C184.704 124.153 184.693 124.41 184.693 124.675C184.693 126.579 185.356 128.386 186.565 129.809L189.56 125.544L188.007 125.037L184.73 123.911ZM186.656 131.094L186.323 130.754C184.759 129.121 183.897 126.967 183.897 124.675C183.897 124.182 183.933 123.711 184.009 123.284L184.092 122.813L190.816 125.084L190.157 126.105L189.201 127.408L186.656 131.094Z" fill="white"/>
<path d="M185.788 120.671L190.582 122.312V117.09C188.638 117.529 186.896 118.828 185.788 120.671ZM191.382 123.42L190.253 123.076L188.753 122.543L184.615 121.149L184.843 120.711C186.125 118.26 188.399 116.565 190.922 116.182L191.382 116.113V123.42Z" fill="white"/>
<path d="M189.268 131.856C191.101 132.693 193.259 132.722 195.221 131.849L192.248 127.576L189.268 131.856ZM192.241 133.33C190.912 133.33 189.649 133.011 188.479 132.385L188.07 132.16L192.238 126.164L193.871 128.463L196.423 132.168L196 132.385C194.812 133.004 193.512 133.33 192.241 133.33Z" fill="white"/>
<path d="M193.941 117.101V122.305L198.699 120.675C197.641 118.865 195.91 117.568 193.941 117.101ZM193.141 123.434V116.113L193.604 116.189C196.168 116.616 198.423 118.311 199.644 120.722L199.864 121.157L193.141 123.434Z" fill="white"/>
<path d="M194.965 125.978L195.034 126.079L197.956 130.24C199.162 128.795 199.799 127.035 199.799 125.109C199.799 124.859 199.785 124.62 199.759 124.381L194.965 125.978ZM197.877 131.532L193.709 125.518L200.4 123.291L200.48 123.758C200.56 124.207 200.599 124.645 200.599 125.109C200.599 127.386 199.749 129.541 198.206 131.181L197.877 131.532Z" fill="white"/>
<path d="M184.73 123.911C184.704 124.153 184.693 124.41 184.693 124.675C184.693 126.579 185.356 128.386 186.565 129.809L189.56 125.544L188.007 125.037L184.73 123.911ZM186.656 131.094L186.323 130.754C184.759 129.121 183.897 126.967 183.897 124.675C183.897 124.182 183.933 123.711 184.009 123.284L184.092 122.813L190.816 125.084L190.157 126.105L189.201 127.408L186.656 131.094Z" fill="white"/>
<path d="M185.788 120.671L190.582 122.312V117.09C188.638 117.529 186.896 118.828 185.788 120.671ZM191.382 123.42L190.253 123.076L188.753 122.543L184.615 121.149L184.843 120.711C186.125 118.26 188.399 116.565 190.922 116.182L191.382 116.113V123.42Z" fill="white"/>
<path d="M189.268 131.856C191.101 132.693 193.259 132.722 195.221 131.849L192.248 127.576L189.268 131.856ZM192.241 133.33C190.912 133.33 189.649 133.011 188.479 132.385L188.07 132.16L192.238 126.164L193.871 128.463L196.423 132.168L196 132.385C194.812 133.004 193.512 133.33 192.241 133.33Z" fill="white"/>
<path d="M193.941 117.101V122.305L198.699 120.675C197.641 118.865 195.91 117.568 193.941 117.101ZM193.141 123.434V116.113L193.604 116.189C196.168 116.616 198.423 118.311 199.644 120.722L199.864 121.157L193.141 123.434Z" fill="white"/>
<path d="M194.965 125.978L195.034 126.079L197.956 130.24C199.162 128.795 199.799 127.035 199.799 125.109C199.799 124.859 199.785 124.62 199.759 124.381L194.965 125.978ZM197.877 131.532L193.709 125.518L200.4 123.291L200.48 123.758C200.56 124.207 200.599 124.645 200.599 125.109C200.599 127.386 199.749 129.541 198.206 131.181L197.877 131.532Z" fill="white"/>
<path d="M215.547 125.511L228.14 123.099L236.092 121.379C239.854 121.256 238.738 125.996 238.738 129.907V132.39L222.835 130.671L216.209 127.575L215.547 125.511Z" fill="white"/>
<path d="M133.22 79.5931L192.53 141.884L171.322 141.538L115.986 78.218L133.22 79.5931Z" fill="white"/>
<path d="M80.7219 132.849C80.8957 132.11 80.7581 131.484 80.3019 130.963C79.8311 130.441 79.183 130.18 78.3538 130.18H71.5864C70.7536 130.18 69.9823 130.441 69.269 130.963C68.5557 131.484 68.1103 132.11 67.9365 132.849L67.5382 134.497H80.3272L80.7219 132.849ZM78.5095 129.514C79.5451 129.514 80.3526 129.844 80.9319 130.499C81.5112 131.144 81.6923 131.929 81.4678 132.849L79.6066 140.619H78.8607L80.1679 135.163H67.3789L66.0754 140.619H65.3295L67.1906 132.849C67.4115 131.929 67.9655 131.144 68.849 130.499C69.7433 129.844 70.7065 129.514 71.7457 129.514H78.5095Z" fill="white"/>
<path d="M93.994 129.514C95.0296 129.514 95.8334 129.84 96.4055 130.495C96.9921 131.144 97.1732 131.926 96.9487 132.845L95.0912 140.601H94.3453L96.2028 132.845C96.3802 132.11 96.2354 131.48 95.7646 130.959C95.3084 130.437 94.6675 130.177 93.8347 130.177H87.0709C86.2381 130.177 85.4668 130.437 84.7427 130.959C84.0293 131.48 83.5876 132.11 83.4102 132.845L81.549 140.605H80.8104L82.6715 132.845C82.896 131.926 83.45 131.144 84.3299 130.495C85.2279 129.84 86.1946 129.514 87.2266 129.514H93.994Z" fill="white"/>
<path d="M98.9635 129.514H110.152L109.993 130.177H104.771L102.269 140.623H101.527L104.025 130.177H98.8041L98.9635 129.514Z" fill="white"/>
<path d="M111.539 129.514H112.285L109.616 140.656H108.87L111.539 129.514Z" fill="white"/>
<path d="M112.169 138.816C112.093 139.135 112.155 139.403 112.354 139.627C112.557 139.848 112.835 139.96 113.187 139.96H121.681L121.522 140.623H113.027C112.473 140.623 112.039 140.446 111.72 140.094C111.412 139.74 111.315 139.316 111.431 138.816L113.661 129.514H114.396L112.169 138.816Z" fill="white"/>
<path d="M138.143 132.849C138.321 132.11 138.18 131.484 137.723 130.963C137.256 130.441 136.604 130.18 135.775 130.18H129.008C128.179 130.18 127.404 130.441 126.69 130.963C125.977 131.484 125.535 132.11 125.358 132.849L124.96 134.497H137.749L138.143 132.849ZM135.935 129.514C136.967 129.514 137.774 129.844 138.357 130.499C138.933 131.144 139.114 131.929 138.889 132.849L137.028 140.619H136.282L137.593 135.163H124.804L123.497 140.619H122.751L124.612 132.849C124.833 131.929 125.387 131.144 126.27 130.499C127.165 129.844 128.128 129.514 129.167 129.514H135.935Z" fill="white"/>
<path d="M153.999 130.18H144.483C143.654 130.18 142.883 130.441 142.166 130.966C141.449 131.484 141 132.11 140.823 132.849L139.762 137.288C139.588 138.023 139.736 138.653 140.2 139.167C140.663 139.696 141.311 139.957 142.144 139.957H148.908C149.737 139.957 150.509 139.696 151.222 139.167C151.939 138.653 152.384 138.023 152.562 137.288L153.058 135.203H146.573L146.732 134.536H153.963L153.304 137.288C153.083 138.204 152.525 138.99 151.638 139.635C150.747 140.29 149.784 140.619 148.749 140.619H141.985C140.949 140.619 140.142 140.29 139.563 139.635C138.983 138.99 138.806 138.204 139.027 137.288L140.088 132.849C140.312 131.929 140.862 131.147 141.746 130.499C142.64 129.844 143.607 129.514 144.643 129.514H154.155L153.999 130.18Z" fill="white"/>
<defs>
<filter id="filter0_d" x="0" y="0" width="287" height="361" filterUnits="userSpaceOnUse" color-interpolation-filters="sRGB">
<feFlood flood-opacity="0" result="BackgroundImageFix"/>
<feColorMatrix in="SourceAlpha" type="matrix" values="0 0 0 0 0 0 0 0 0 0 0 0 0 0 0 0 0 0 127 0"/>
<feOffset dx="4" dy="4"/>
<feGaussianBlur stdDeviation="2"/>
<feColorMatrix type="matrix" values="0 0 0 0 0 0 0 0 0 0 0 0 0 0 0 0 0 0 0.25 0"/>
<feBlend mode="normal" in2="BackgroundImageFix" result="effect1_dropShadow"/>
<feBlend mode="normal" in="SourceGraphic" in2="effect1_dropShadow" result="shape"/>
</filter>
</defs>
</svg>
