<svg width="287" height="361" viewBox="0 0 287 361" fill="none" xmlns="http://www.w3.org/2000/svg">
<g filter="url(#filter0_d)">
<rect width="279" height="353" rx="8" fill="white" fill-opacity="0.08"/>
</g>
<path d="M251.286 319.714H242.714V328.286C242.714 329.229 241.943 330 241 330C240.057 330 239.286 329.229 239.286 328.286V319.714H230.714C229.771 319.714 229 318.943 229 318C229 317.057 229.771 316.286 230.714 316.286H239.286V307.714C239.286 306.771 240.057 306 241 306C241.943 306 242.714 306.771 242.714 307.714V316.286H251.286C252.229 316.286 253 317.057 253 318C253 318.943 252.229 319.714 251.286 319.714Z" fill="#FAFAFA"/>
<path d="M84.6909 107.458C83.9116 106.858 83.4531 105.934 83.434 104.952L83.1436 89.5211C83.1169 88.2413 83.8466 87.0646 85.0042 86.5182L85.2946 86.3769C87.4569 85.353 89.944 86.9308 89.944 89.3224V104.887C89.944 107.599 86.8304 109.124 84.6909 107.458ZM112.546 85.7121L102.536 56.352C102.112 55.0989 100.966 54.2279 99.6441 54.1553L93.0348 53.7618C91.1589 53.6548 89.5849 55.141 89.5849 57.0168V83.4542L91.0252 76.2527L80.0491 84.3215C79.2468 84.9137 78.7578 85.8344 78.7234 86.8315L78.1045 104.176C78.0777 104.982 78.3452 105.766 78.8648 106.385L88.8246 118.274C89.3175 118.858 89.5849 119.599 89.5849 120.364V143.225C89.5849 145.024 91.0405 146.484 92.8437 146.484H99.2277C100.389 146.484 101.47 145.861 102.051 144.849L117.104 118.671C117.474 118.022 117.612 117.265 117.497 116.532L112.679 86.2508C112.649 86.0674 112.607 85.8879 112.546 85.7121Z" fill="white"/>
<path d="M147.505 101.855C147.505 104.632 147.149 106.436 146.454 107.272C145.644 108.22 143.879 108.694 141.174 108.694H129.052V92.1396H140.865C143.509 92.1396 145.274 92.6019 146.164 93.5265C147.058 94.4548 147.505 96.2351 147.505 98.8789V101.855ZM148.418 90.0728C146.882 89.0565 144.456 88.5522 141.14 88.5522H124.987V112.315H141.713C145.621 112.315 148.257 111.559 149.64 110.05C150.901 108.648 151.535 105.962 151.535 101.989C151.535 98.4052 151.398 95.9295 151.123 94.5771C150.718 92.4797 149.812 90.9744 148.418 90.0728Z" fill="white"/>
<path d="M130.707 107.013H141.175C144.239 107.013 145.026 106.368 145.198 106.169C145.301 106.051 145.855 105.218 145.855 101.829V98.8453C145.855 95.873 145.244 94.9179 144.976 94.6505C144.72 94.3792 143.811 93.7641 140.865 93.7641H130.707V107.013ZM141.175 110.318H127.402V90.4595H140.865C144.006 90.4595 146.13 91.0784 147.356 92.3544C148.571 93.6075 149.16 95.7317 149.16 98.8453V101.829C149.16 105.08 148.701 107.139 147.719 108.309C146.558 109.665 144.426 110.318 141.175 110.318ZM126.646 110.635H141.717C145.072 110.635 147.387 110.039 148.418 108.905C149.087 108.171 149.886 106.36 149.886 101.963C149.886 97.6686 149.679 95.7355 149.507 94.8644C149.183 93.214 148.533 92.0908 147.521 91.4337L147.509 91.4222C146.646 90.8568 144.835 90.1729 141.141 90.1729H126.646V110.635ZM141.717 113.94H123.337V86.8721H141.141C144.812 86.8721 147.494 87.4566 149.324 88.66C151.104 89.8138 152.258 91.6858 152.751 94.2302C153.049 95.7202 153.19 98.2493 153.19 101.963C153.19 106.402 152.43 109.397 150.867 111.128C149.141 113.019 146.153 113.94 141.717 113.94Z" fill="white"/>
<path d="M178.312 99.4558C176.735 98.6191 174.408 98.2027 171.34 98.2027C170.637 98.2027 169.594 98.2447 168.204 98.3211C166.817 98.4013 165.774 98.4357 165.075 98.4357C160.582 98.4357 158.335 97.366 158.335 95.2266C158.335 93.1673 159.569 92.1435 162.026 92.1435H172.689C175.673 92.1435 177.159 93.1788 177.159 95.2571H181.426C181.426 90.7872 178.641 88.5522 173.067 88.5522H161.755C159.206 88.5522 157.308 89.0069 156.07 89.9085C154.626 90.9668 153.904 92.7165 153.904 95.1578C153.904 97.8397 154.954 99.7117 157.052 100.778C158.561 101.519 160.819 101.893 163.822 101.893C164.586 101.893 165.728 101.866 167.245 101.809C168.754 101.752 169.896 101.725 170.66 101.725C172.555 101.725 173.988 101.893 174.962 102.233C176.563 102.772 177.365 103.803 177.365 105.313C177.365 106.646 176.903 107.57 175.978 108.09C175.275 108.472 174.217 108.663 172.796 108.663H162.534C159.604 108.663 158.137 107.628 158.137 105.549H154.037C154.018 110.042 156.612 112.285 161.827 112.285H173.709C176.372 112.285 178.301 111.811 179.497 110.864C180.853 109.779 181.529 107.93 181.529 105.313C181.529 102.539 180.456 100.583 178.312 99.4558Z" fill="white"/>
<path d="M171.341 96.5187C172.903 96.5187 174.286 96.618 175.509 96.8281V95.2274C175.509 94.7154 175.509 93.7641 172.693 93.7641H162.027C159.99 93.7641 159.99 94.5244 159.99 95.193C159.99 96.6409 163.883 96.7555 165.075 96.7555C165.752 96.7555 166.768 96.7173 168.109 96.6371C169.545 96.5607 170.623 96.5187 171.341 96.5187ZM155.849 107.17C156.028 107.991 156.365 108.645 156.865 109.149C157.828 110.116 159.494 110.605 161.828 110.605H173.709C176.537 110.605 177.858 110.024 178.466 109.539C179.402 108.794 179.876 107.361 179.876 105.283C179.876 103.124 179.135 101.726 177.545 100.889L177.538 100.885C176.204 100.182 174.122 99.8234 171.341 99.8234C170.657 99.8234 169.648 99.8654 168.304 99.9418C166.867 100.022 165.797 100.064 165.075 100.064C158.141 100.064 156.686 97.4127 156.686 95.193C156.686 92.2283 158.684 90.4595 162.027 90.4595H172.693C176.563 90.4595 178.019 92.0984 178.539 93.5731H179.601C179.146 91.7699 177.637 90.1729 173.068 90.1729H161.755C159.608 90.1729 157.977 90.5359 157.049 91.2121C156.044 91.9456 155.559 93.2293 155.559 95.128C155.559 97.8253 156.835 98.7842 157.797 99.2732C159.058 99.8921 161.094 100.209 163.822 100.209C164.575 100.209 165.694 100.182 167.18 100.125C168.716 100.068 169.881 100.041 170.661 100.041C172.758 100.041 174.344 100.236 175.509 100.641C177.767 101.401 179.02 103.052 179.02 105.283C179.02 107.732 177.801 108.924 176.781 109.497C175.822 110.028 174.519 110.288 172.796 110.288H162.535C158.703 110.288 157.27 108.645 156.758 107.17H155.849ZM173.709 113.909H161.828C158.581 113.909 156.128 113.092 154.523 111.48C153.094 110.043 152.376 108.037 152.388 105.508L152.399 103.865H159.792V105.516C159.792 106.062 159.792 106.979 162.535 106.979H172.796C174.286 106.979 174.924 106.746 175.177 106.612C175.345 106.517 175.715 106.31 175.715 105.283C175.715 104.733 175.612 104.163 174.435 103.766C173.87 103.571 172.777 103.346 170.661 103.346C169.908 103.346 168.789 103.373 167.306 103.434C165.763 103.487 164.602 103.514 163.822 103.514C160.54 103.514 158.084 103.097 156.323 102.23C154.458 101.287 152.254 99.2961 152.254 95.128C152.254 92.1443 153.209 89.9322 155.092 88.5454C156.64 87.4184 158.821 86.8721 161.755 86.8721H173.068C181.782 86.8721 183.081 92.1061 183.081 95.2274V96.8816H175.803C177.083 97.1185 178.168 97.4776 179.085 97.9666C180.957 98.9523 183.184 101.019 183.184 105.283C183.184 108.412 182.286 110.715 180.529 112.125C179.016 113.325 176.785 113.909 173.709 113.909Z" fill="white"/>
<path d="M196.869 99.4529V102.975H206.886C206.886 105.344 206.501 106.865 205.737 107.545C205.037 108.129 203.479 108.423 201.064 108.423H194.023C191.834 108.423 190.283 108.175 189.366 107.678C188.453 107.182 187.872 106.326 187.624 105.103C187.467 104.316 187.387 102.735 187.387 100.366C187.387 97.004 187.716 94.8263 188.365 93.833C189.251 92.5035 191.269 91.8006 194.428 91.7318C196.056 91.7127 197.079 91.7012 197.511 91.7012L201.503 91.7318C202.925 91.7318 204.113 91.9725 205.06 92.4462C206.325 93.0995 206.955 94.0814 206.955 95.3918H211.085C211.112 92.5264 210.046 90.5475 207.903 89.4663C206.39 88.6984 204.044 88.3125 200.862 88.3125H194.294C191.024 88.3125 188.61 88.7175 187.066 89.5312C185.519 90.345 184.487 91.7012 183.968 93.5962C183.563 95.1052 183.36 97.558 183.36 100.943C183.36 105.321 184.002 108.255 185.29 109.745C186.688 111.392 189.553 112.217 193.889 112.217H201.167C205.137 112.217 207.811 111.472 209.19 109.982C210.478 108.584 211.12 105.864 211.12 101.822V99.4529H196.869Z" fill="white"/>
<path d="M194.299 89.9375C190.578 89.9375 188.732 90.4953 187.838 90.969C186.704 91.5612 185.959 92.5507 185.569 93.9986C185.202 95.3472 185.015 97.6739 185.015 100.91C185.015 105.834 185.844 107.829 186.543 108.635C187.284 109.506 189.149 110.533 193.89 110.533H201.168C205.496 110.533 207.261 109.605 207.98 108.83C208.537 108.222 209.473 106.503 209.473 101.792V101.074H198.524V101.288H208.545V102.938C208.545 105.876 208.003 107.722 206.834 108.753C205.756 109.655 203.987 110.048 201.065 110.048H194.027C191.533 110.048 189.756 109.739 188.583 109.101C187.655 108.597 186.44 107.546 186.004 105.406C185.825 104.482 185.741 102.828 185.741 100.337C185.741 96.5507 186.134 94.1858 186.994 92.8869C188.205 91.0569 190.627 90.1285 194.398 90.0521C196.045 90.0254 197.084 90.0177 197.515 90.0177L201.523 90.0521C203.185 90.0521 204.633 90.3463 205.806 90.9384C207.063 91.5879 207.926 92.543 208.339 93.7044H209.282C208.912 92.0044 207.938 91.2976 207.162 90.9117C206.287 90.4647 204.484 89.9375 200.866 89.9375H194.299ZM201.168 113.838H193.89C189 113.838 185.783 112.837 184.033 110.782C182.471 108.979 181.71 105.746 181.71 100.91C181.71 97.3377 181.932 94.7933 182.379 93.1314C183.017 90.7818 184.339 89.0664 186.299 88.0387C188.102 87.0913 190.719 86.6328 194.299 86.6328H200.866C204.346 86.6328 206.891 87.0645 208.656 87.9623C210.536 88.906 212.778 90.969 212.74 95.374L212.725 97.0129H205.305V95.3587C205.305 94.862 205.187 94.3386 204.301 93.884C203.613 93.5363 202.665 93.3606 201.508 93.3606L197.5 93.3224C197.088 93.3224 196.071 93.3339 194.459 93.3606C191.101 93.4256 190.069 94.2355 189.752 94.713C189.588 94.9614 189.046 96.1113 189.046 100.337C189.046 103.275 189.172 104.367 189.248 104.757C189.443 105.708 189.859 106.033 190.157 106.193C190.539 106.4 191.536 106.74 194.027 106.74H201.065C204.037 106.74 204.652 106.266 204.679 106.247C204.679 106.247 204.996 105.934 205.156 104.593H195.219V97.7694H212.778V101.792C212.778 106.3 212.003 109.334 210.409 111.065C208.69 112.933 205.668 113.838 201.168 113.838Z" fill="white"/>
<defs>
<filter id="filter0_d" x="0" y="0" width="287" height="361" filterUnits="userSpaceOnUse" color-interpolation-filters="sRGB">
<feFlood flood-opacity="0" result="BackgroundImageFix"/>
<feColorMatrix in="SourceAlpha" type="matrix" values="0 0 0 0 0 0 0 0 0 0 0 0 0 0 0 0 0 0 127 0"/>
<feOffset dx="4" dy="4"/>
<feGaussianBlur stdDeviation="2"/>
<feColorMatrix type="matrix" values="0 0 0 0 0 0 0 0 0 0 0 0 0 0 0 0 0 0 0.25 0"/>
<feBlend mode="normal" in2="BackgroundImageFix" result="effect1_dropShadow"/>
<feBlend mode="normal" in="SourceGraphic" in2="effect1_dropShadow" result="shape"/>
</filter>
</defs>
</svg>
