<svg width="287" height="361" viewBox="0 0 287 361" fill="none" xmlns="http://www.w3.org/2000/svg">
<g filter="url(#filter0_d)">
<rect width="279" height="353" rx="8" fill="white" fill-opacity="0.08"/>
<rect width="279" height="353" rx="8" fill="#121212" fill-opacity="0.08"/>
</g>
<path d="M251.286 319.714H242.714V328.286C242.714 329.229 241.943 330 241 330C240.057 330 239.286 329.229 239.286 328.286V319.714H230.714C229.771 319.714 229 318.943 229 318C229 317.057 229.771 316.286 230.714 316.286H239.286V307.714C239.286 306.771 240.057 306 241 306C241.943 306 242.714 306.771 242.714 307.714V316.286H251.286C252.229 316.286 253 317.057 253 318C253 318.943 252.229 319.714 251.286 319.714Z" fill="#FAFAFA"/>
<path d="M116.861 79.5353L90.3165 81.7767C89.48 81.8455 88.6979 82.1967 88.0932 82.776L69.9127 101.554L69.1053 101.014L57.8479 102.524C57.417 102.571 57.0405 102.847 56.863 103.249L50.0775 118.431C49.6176 119.467 50.6641 120.527 51.7033 120.082L63.3915 115.071C64.3003 114.683 65.2816 115.462 65.1042 116.436L64.2026 121.404C64.0577 122.182 64.6805 122.899 65.4771 122.867L71.6218 122.617C72.5994 122.581 73.2367 123.641 72.7406 124.489L67.1283 134.12C66.5525 135.098 67.4831 136.267 68.5658 135.931L86.6014 130.358C87.0975 130.202 87.4487 129.75 87.4741 129.228L89.824 120.535V119.687L113.548 106.145C114.432 105.667 115.08 104.845 115.344 103.879L120.717 84.1701C121.391 81.7079 119.407 79.3217 116.861 79.5353Z" fill="white"/>
<path d="M144.604 101.634H134.386V89.5732H136.431V99.7914H144.604V101.634Z" fill="white"/>
<path d="M146.842 94.494H156.669C156.658 93.129 156.376 92.2563 155.822 91.8761C155.387 91.5684 154.439 91.4127 152.965 91.4127H150.506C149.061 91.4127 148.124 91.572 147.686 91.8942C147.135 92.2853 146.853 93.1507 146.842 94.494ZM156.687 96.3153H146.842V101.634H144.796V94.4759C144.796 92.4772 145.216 91.1447 146.053 90.4676C146.784 89.8702 148.178 89.5732 150.235 89.5732H153.276C155.297 89.5732 156.687 89.8774 157.444 90.4857C158.306 91.1701 158.733 92.5025 158.733 94.4759V101.634H156.687V96.3153Z" fill="white"/>
<path d="M165.635 101.634C163.969 101.634 162.676 101.204 161.746 100.338C160.815 99.4691 160.352 98.2127 160.352 96.5616V89.5732H162.398V96.815C162.398 97.7709 162.695 98.5132 163.285 99.0455C163.879 99.5814 164.657 99.8457 165.635 99.8457H168.162C169.14 99.8457 169.922 99.5814 170.516 99.0455C171.106 98.5132 171.399 97.7709 171.399 96.815V89.5732H173.449V96.5616C173.449 98.2127 172.981 99.4691 172.051 100.338C171.124 101.204 169.828 101.634 168.162 101.634H165.635Z" fill="white"/>
<path d="M186.177 101.634V94.389C186.177 93.4367 185.88 92.6945 185.29 92.1622C184.7 91.6263 183.918 91.362 182.94 91.362H180.427C179.5 91.362 178.725 91.6408 178.106 92.1984C177.487 92.756 177.179 93.4838 177.179 94.389V101.634H175.13V89.5732H177.179V91.1556C177.911 90.0983 178.997 89.5732 180.427 89.5732H182.94C184.602 89.5732 185.902 90.0041 186.832 90.8695C187.759 91.7385 188.223 92.995 188.223 94.6497V101.634H186.177Z" fill="white"/>
<path d="M203.844 97.662C203.844 99.2552 203.355 100.327 202.385 100.881C201.683 101.279 200.47 101.482 198.753 101.482H195.19C192.953 101.482 191.475 101.051 190.751 100.189C190.107 99.4327 189.788 97.9119 189.788 95.6271C189.788 93.9108 189.9 92.6652 190.132 91.8976C190.407 90.967 190.939 90.308 191.729 89.9169C192.522 89.5259 193.749 89.334 195.415 89.334H198.735C200.423 89.334 201.628 89.5404 202.349 89.9495C203.334 90.4999 203.826 91.5536 203.826 93.0997H201.73C201.741 91.9084 200.719 91.311 198.663 91.311H195.429C193.811 91.311 192.782 91.6043 192.348 92.1872C192.015 92.6362 191.848 93.7008 191.848 95.3917C191.848 96.6301 191.892 97.4484 191.975 97.8503C192.087 98.4731 192.381 98.9076 192.848 99.1575C193.322 99.4073 194.111 99.5377 195.223 99.5377H198.685C199.659 99.5377 200.343 99.458 200.748 99.2951C201.426 99.0344 201.759 98.4876 201.744 97.662H203.844Z" fill="white"/>
<path d="M217.842 101.634H215.796V96.3153H206.791V101.634H204.745V89.5732H206.791V94.494H215.796V89.5732H217.842V101.634Z" fill="white"/>
<path d="M148.143 115.851C148.143 117.444 147.658 118.519 146.687 119.069C145.985 119.471 144.772 119.674 143.052 119.674H139.489C137.251 119.674 135.774 119.243 135.05 118.382C134.409 117.625 134.087 116.104 134.087 113.819C134.087 112.099 134.199 110.857 134.431 110.086C134.706 109.155 135.242 108.5 136.031 108.105C136.824 107.718 138.051 107.522 139.713 107.522H143.034C144.725 107.522 145.927 107.729 146.647 108.142C147.632 108.692 148.128 109.742 148.128 111.292H146.028C146.039 110.097 145.022 109.503 142.965 109.503H139.732C138.113 109.503 137.085 109.793 136.65 110.379C136.317 110.825 136.15 111.893 136.15 113.58C136.15 114.819 136.19 115.637 136.274 116.042C136.386 116.662 136.679 117.096 137.15 117.35C137.621 117.599 138.41 117.73 139.525 117.73H142.983C143.957 117.73 144.645 117.646 145.051 117.487C145.724 117.223 146.061 116.68 146.046 115.851H148.143Z" fill="white"/>
<path d="M160.908 114.236V113.084C160.908 111.936 160.795 111.118 160.564 110.629C160.336 110.14 159.919 109.829 159.311 109.691C158.884 109.59 158.069 109.536 156.863 109.536H154.868C153.206 109.536 152.156 109.709 151.721 110.053C151.189 110.477 150.928 111.495 150.928 113.102V114.254C150.928 115.814 151.196 116.799 151.736 117.212C152.16 117.52 153.188 117.675 154.817 117.675H156.903C158.083 117.675 158.876 117.628 159.293 117.538C159.901 117.415 160.321 117.111 160.556 116.636C160.792 116.158 160.908 115.362 160.908 114.236ZM162.975 114.304C162.975 115.912 162.787 117.089 162.403 117.838C162.03 118.592 161.386 119.095 160.48 119.345C159.76 119.555 158.572 119.656 156.932 119.656H154.716C153.029 119.656 151.797 119.511 151.03 119.225C150.183 118.917 149.603 118.345 149.292 117.505C149.006 116.723 148.865 115.492 148.865 113.805C148.865 112.016 148.984 110.731 149.223 109.948C149.513 109.032 150.074 108.399 150.91 108.04C151.703 107.696 152.985 107.522 154.749 107.522H156.95C158.847 107.522 160.209 107.718 161.038 108.109C161.871 108.5 162.41 109.199 162.664 110.209C162.87 110.966 162.975 112.331 162.975 114.304Z" fill="white"/>
<path d="M175.643 119.584V112.338C175.643 111.386 175.35 110.644 174.76 110.111C174.17 109.576 173.388 109.311 172.41 109.311H169.897C168.967 109.311 168.195 109.586 167.572 110.144C166.957 110.702 166.649 111.433 166.649 112.338V119.584H164.6V107.522H166.649V109.101C167.381 108.047 168.467 107.522 169.897 107.522H172.41C174.072 107.522 175.372 107.953 176.302 108.819C177.226 109.688 177.693 110.944 177.693 112.595V119.584H175.643Z" fill="white"/>
<path d="M190.787 109.362H185.352V119.584H183.302V109.362H177.882V107.522H190.787V109.362Z" fill="white"/>
<path d="M200.715 109.586H193.68V112.907H200.715C202.033 112.907 202.696 112.331 202.696 111.183C202.696 110.115 202.033 109.586 200.715 109.586ZM205.067 119.584H203.04V117.379C203.04 116.52 202.866 115.898 202.515 115.521C202.163 115.141 201.559 114.953 200.7 114.953L193.68 114.971V119.584H191.703V107.522H200.527C201.986 107.522 203.036 107.801 203.677 108.363C204.354 108.971 204.694 109.992 204.694 111.426C204.694 112.733 204.325 113.566 203.59 113.921C204.575 114.185 205.067 115.068 205.067 116.571V119.584Z" fill="white"/>
<path d="M218.583 114.236V113.084C218.583 111.936 218.471 111.118 218.239 110.629C218.011 110.14 217.595 109.829 216.987 109.691C216.559 109.59 215.745 109.536 214.539 109.536H212.544C210.882 109.536 209.832 109.709 209.397 110.053C208.865 110.477 208.604 111.495 208.604 113.102V114.254C208.604 115.814 208.872 116.799 209.412 117.212C209.835 117.52 210.864 117.675 212.493 117.675H214.579C215.759 117.675 216.552 117.628 216.968 117.538C217.577 117.415 217.997 117.111 218.232 116.636C218.468 116.158 218.583 115.362 218.583 114.236ZM220.651 114.304C220.651 115.912 220.463 117.089 220.079 117.838C219.706 118.592 219.061 119.095 218.156 119.345C217.436 119.555 216.248 119.656 214.608 119.656H212.392C210.704 119.656 209.473 119.511 208.706 119.225C207.858 118.917 207.279 118.345 206.968 117.505C206.681 116.723 206.54 115.492 206.54 113.805C206.54 112.016 206.66 110.731 206.899 109.948C207.188 109.032 207.75 108.399 208.586 108.04C209.379 107.696 210.661 107.522 212.424 107.522H214.626C216.523 107.522 217.885 107.718 218.714 108.109C219.547 108.5 220.086 109.199 220.34 110.209C220.546 110.966 220.651 112.331 220.651 114.304Z" fill="white"/>
<path d="M232.194 119.584H221.976V107.522H224.022V117.741H232.194V119.584Z" fill="white"/>
<defs>
<filter id="filter0_d" x="0" y="0" width="287" height="361" filterUnits="userSpaceOnUse" color-interpolation-filters="sRGB">
<feFlood flood-opacity="0" result="BackgroundImageFix"/>
<feColorMatrix in="SourceAlpha" type="matrix" values="0 0 0 0 0 0 0 0 0 0 0 0 0 0 0 0 0 0 127 0"/>
<feOffset dx="4" dy="4"/>
<feGaussianBlur stdDeviation="2"/>
<feColorMatrix type="matrix" values="0 0 0 0 0 0 0 0 0 0 0 0 0 0 0 0 0 0 0.25 0"/>
<feBlend mode="normal" in2="BackgroundImageFix" result="effect1_dropShadow"/>
<feBlend mode="normal" in="SourceGraphic" in2="effect1_dropShadow" result="shape"/>
</filter>
</defs>
</svg>
