<svg width="287" height="361" viewBox="0 0 287 361" fill="none" xmlns="http://www.w3.org/2000/svg">
<g filter="url(#filter0_d)">
<rect width="279" height="353" rx="8" fill="white" fill-opacity="0.08"/>
</g>
<path d="M251.286 319.714H242.714V328.286C242.714 329.229 241.943 330 241 330C240.057 330 239.286 329.229 239.286 328.286V319.714H230.714C229.771 319.714 229 318.943 229 318C229 317.057 229.771 316.286 230.714 316.286H239.286V307.714C239.286 306.771 240.057 306 241 306C241.943 306 242.714 306.771 242.714 307.714V316.286H251.286C252.229 316.286 253 317.057 253 318C253 318.943 252.229 319.714 251.286 319.714Z" fill="#FAFAFA"/>
<path d="M99.3572 57.8164C78.6896 57.8164 61.8745 74.6314 61.8745 95.299C61.8745 115.967 78.6896 132.778 99.3572 132.778C120.021 132.778 136.836 115.967 136.836 95.299C136.836 74.6314 120.021 57.8164 99.3572 57.8164ZM99.3572 136.909C76.4121 136.909 57.7468 118.24 57.7468 95.299C57.7468 72.354 76.4121 53.6851 99.3572 53.6851C122.299 53.6851 140.964 72.354 140.964 95.299C140.964 118.24 122.299 136.909 99.3572 136.909Z" fill="white"/>
<path d="M56.7037 95.3002H52.5723C52.5723 69.473 73.5839 48.4614 99.4147 48.4614V52.5928C75.865 52.5928 56.7037 71.7505 56.7037 95.3002Z" fill="white"/>
<path d="M69.1608 102.328L70.5353 106.22L61.5664 109.387L60.1918 105.495L69.1608 102.328Z" fill="white"/>
<path d="M68.9562 91.6904L69.6348 95.7729L60.1659 97.3469L59.4873 93.2643L68.9562 91.6904Z" fill="white"/>
<path d="M97.3248 55.7789L101.456 55.7861L101.436 67.3872L97.3045 67.3799L97.3248 55.7789Z" fill="white"/>
<path d="M65.6294 75.1175L73.5374 79.8623L71.4119 83.4049L63.5039 78.6601L65.6294 75.1175Z" fill="white"/>
<path d="M74.5043 62.8285L81.883 70.7358L78.8625 73.5544L71.4838 65.6471L74.5043 62.8285Z" fill="white"/>
<path d="M88.6699 57.3282L91.3094 66.293L87.3462 67.4598L84.7068 58.495L88.6699 57.3282Z" fill="white"/>
<path d="M167.808 80.5468C167.808 81.5498 167.547 82.2667 167.026 82.6831C166.566 83.0452 165.824 83.2298 164.799 83.2298H160.226C158.22 83.2298 157.221 82.3645 157.228 80.6337H158.807C158.807 81.4339 159.372 81.8322 160.498 81.8322H164.448C164.995 81.8322 165.404 81.7634 165.672 81.6149C166.03 81.4122 166.208 81.061 166.208 80.5468C166.208 79.9639 165.9 79.5656 165.281 79.3592C164.908 79.2288 164.357 79.1637 163.63 79.1637C163.333 79.1637 162.891 79.1745 162.308 79.1962C161.729 79.218 161.291 79.2288 160.994 79.2288C159.839 79.2288 158.973 79.0876 158.387 78.8016C157.583 78.3888 157.174 77.6719 157.174 76.6363C157.174 75.6985 157.456 75.0287 158.014 74.6159C158.488 74.2719 159.219 74.0981 160.197 74.0981H164.553C166.696 74.0981 167.768 74.9563 167.768 76.6762H166.128C166.128 75.876 165.556 75.4777 164.412 75.4777H160.306C159.357 75.4777 158.886 75.8723 158.886 76.6617C158.886 77.4872 159.745 77.9036 161.479 77.9036C161.743 77.9036 162.149 77.8855 162.681 77.8565C163.213 77.824 163.619 77.8095 163.887 77.8095C165.067 77.8095 165.961 77.9688 166.57 78.291C167.395 78.7255 167.808 79.475 167.808 80.5468Z" fill="white"/>
<path d="M175.284 75.608H170.661V78.3707H175.313C175.849 78.3707 176.237 78.291 176.468 78.1353C176.765 77.9362 176.91 77.5814 176.91 77.0672C176.91 76.477 176.794 76.086 176.555 75.8941C176.313 75.7022 175.893 75.608 175.284 75.608ZM175.154 79.8951H170.661V83.2298H169.122V74.0981H175.284C176.49 74.0981 177.319 74.3226 177.772 74.768C178.224 75.217 178.449 76.0389 178.449 77.2338C178.449 78.3055 178.145 79.0369 177.537 79.4388C177.069 79.7466 176.273 79.8951 175.154 79.8951Z" fill="white"/>
<path d="M188.752 77.8296C188.737 76.9787 188.719 76.5152 188.701 76.4355C188.625 75.9829 188.313 75.6933 187.767 75.5629C187.408 75.476 186.717 75.4326 185.677 75.4326H183.816C182.574 75.4326 181.771 75.5485 181.405 75.7838C180.952 76.0807 180.724 76.7614 180.713 77.8296H188.752ZM190.225 80.5126C190.225 81.6749 189.849 82.4352 189.092 82.7937C188.527 83.0689 187.401 83.2101 185.717 83.2101H183.697C182.422 83.2101 181.492 83.1015 180.912 82.8842C180.275 82.6489 179.837 82.2144 179.594 81.5807C179.377 80.9978 179.269 80.0708 179.269 78.7963C179.269 77.424 179.363 76.4392 179.555 75.849C179.776 75.1538 180.196 74.6758 180.822 74.4151C181.419 74.1617 182.386 74.0386 183.722 74.0386H185.743C187.227 74.0386 188.328 74.2341 189.041 74.6215C189.711 74.9908 190.084 75.5557 190.174 76.3305C190.189 76.4862 190.207 76.9859 190.225 77.8296V79.1584H180.713C180.706 80.3714 180.923 81.1426 181.365 81.4649C181.713 81.7147 182.516 81.8414 183.777 81.8414H185.692C186.84 81.8414 187.582 81.7907 187.922 81.6821C188.476 81.5228 188.748 81.1281 188.741 80.5126H190.225Z" fill="white"/>
<path d="M200.579 77.8296C200.561 76.9787 200.547 76.5152 200.529 76.4355C200.449 75.9829 200.138 75.6933 199.591 75.5629C199.236 75.476 198.541 75.4326 197.502 75.4326H195.644C194.399 75.4326 193.599 75.5485 193.233 75.7838C192.78 76.0807 192.552 76.7614 192.541 77.8296H200.579ZM202.053 80.5126C202.053 81.6749 201.677 82.4352 200.92 82.7937C200.355 83.0689 199.229 83.2101 197.545 83.2101H195.525C194.247 83.2101 193.32 83.1015 192.74 82.8842C192.103 82.6489 191.665 82.2144 191.422 81.5807C191.205 80.9978 191.097 80.0708 191.097 78.7963C191.097 77.424 191.191 76.4392 191.383 75.849C191.604 75.1538 192.024 74.6758 192.65 74.4151C193.247 74.1617 194.214 74.0386 195.55 74.0386H197.571C199.055 74.0386 200.156 74.2341 200.869 74.6215C201.535 74.9908 201.912 75.5557 202.002 76.3305C202.017 76.4862 202.031 76.9859 202.053 77.8296V79.1584H192.541C192.534 80.3714 192.751 81.1426 193.193 81.4649C193.541 81.7147 194.344 81.8414 195.604 81.8414H197.516C198.668 81.8414 199.41 81.7907 199.75 81.6821C200.304 81.5228 200.576 81.1281 200.569 80.5126H202.053Z" fill="white"/>
<path d="M212.073 79.218V78.0738C212.073 77.0527 211.899 76.3684 211.555 76.0099C211.215 75.6587 210.534 75.4777 209.517 75.4777H204.969V81.8503H209.633C210.675 81.8503 211.353 81.6656 211.668 81.2999C211.939 80.9777 212.073 80.2861 212.073 79.218ZM213.623 79.2723C213.623 80.8003 213.377 81.8322 212.891 82.3681C212.363 82.951 211.345 83.2407 209.843 83.2407H203.405V74.0981H209.618C210.9 74.0981 211.834 74.2937 212.424 74.6847C212.96 75.0323 213.311 75.608 213.467 76.4191C213.568 76.9369 213.623 77.8891 213.623 79.2723Z" fill="white"/>
<path d="M164.975 99.7411H157.234V90.6094H158.783V98.3471H164.975V99.7411Z" fill="white"/>
<path d="M165.887 90.6094H167.441V99.7411H165.887V90.6094Z" fill="white"/>
<path d="M184.873 95.0412C184.873 92.9919 183.852 91.9636 181.799 91.9636C180.481 91.9636 179.575 92.2713 179.09 92.8905C178.663 93.43 178.453 94.3823 178.453 95.7545V99.7447H177.005V95.6532C177.005 94.3931 176.831 93.4988 176.487 92.9701C176.049 92.2967 175.245 91.9636 174.061 91.9636C172.855 91.9636 171.997 92.1736 171.497 92.59C170.929 93.0498 170.647 93.8681 170.647 95.0412L170.636 99.7447H169.242V95.0666C169.242 92.0975 170.665 90.6094 173.514 90.6094C174.633 90.6094 175.441 90.6854 175.922 90.8339C176.722 91.0656 177.327 91.5689 177.736 92.3437C178.37 91.1887 179.485 90.6094 181.082 90.6094C182.204 90.6094 182.939 90.6347 183.287 90.689C185.282 91.0294 186.285 92.485 186.285 95.0666V99.7447H184.887L184.873 95.0412Z" fill="white"/>
<path d="M188.226 90.6094H189.776V99.7411H188.226V90.6094Z" fill="white"/>
<path d="M196.643 92.0034V96.486C196.643 97.1811 196.82 97.6736 197.175 97.9705C197.465 98.2058 197.903 98.3398 198.493 98.376V99.7447H198.388C197.179 99.7447 196.328 99.4767 195.828 98.9553C195.332 98.4267 195.079 97.5577 195.079 96.3411V92.0034H190.976V90.6094H201.307V91.9925L196.643 92.0034Z" fill="white"/>
<path d="M164.423 108.625H159.093V111.138H164.423C165.422 111.138 165.922 110.703 165.922 109.838C165.922 109.027 165.422 108.625 164.423 108.625ZM167.721 116.196H166.183V114.527C166.183 113.875 166.049 113.404 165.784 113.118C165.52 112.832 165.064 112.691 164.412 112.691L159.093 112.702V116.196H157.594V107.061H164.278C165.386 107.061 166.175 107.274 166.664 107.698C167.178 108.161 167.435 108.933 167.435 110.019C167.435 111.007 167.157 111.637 166.599 111.905C167.348 112.108 167.721 112.774 167.721 113.915V116.196Z" fill="white"/>
<path d="M178.785 110.852C178.77 110.001 178.752 109.537 178.734 109.458C178.658 109.005 178.347 108.715 177.796 108.585C177.441 108.498 176.75 108.455 175.711 108.455H173.85C172.608 108.455 171.804 108.57 171.438 108.806C170.986 109.103 170.757 109.783 170.747 110.852H178.785ZM180.258 113.535C180.258 114.697 179.882 115.457 179.125 115.816C178.56 116.091 177.434 116.232 175.751 116.232H173.73C172.456 116.232 171.525 116.123 170.946 115.906C170.308 115.671 169.87 115.236 169.628 114.603C169.41 114.02 169.302 113.093 169.302 111.818C169.302 110.446 169.396 109.461 169.588 108.871C169.809 108.176 170.229 107.698 170.855 107.441C171.453 107.184 172.419 107.061 173.755 107.061H175.776C177.26 107.061 178.361 107.256 179.074 107.643C179.744 108.013 180.117 108.581 180.208 109.353C180.222 109.508 180.24 110.012 180.258 110.852V112.18H170.747C170.739 113.397 170.957 114.165 171.398 114.487C171.746 114.737 172.55 114.863 173.81 114.863H175.725C176.873 114.863 177.615 114.813 177.956 114.704C178.51 114.545 178.781 114.15 178.774 113.535H180.258Z" fill="white"/>
<path d="M197.241 111.492C197.241 109.443 196.217 108.415 194.167 108.415C192.849 108.415 191.944 108.722 191.459 109.338C191.032 109.881 190.822 110.833 190.822 112.206V116.196H189.373V112.104C189.373 110.844 189.199 109.95 188.855 109.421C188.417 108.748 187.61 108.415 186.429 108.415C185.224 108.415 184.362 108.625 183.866 109.041C183.297 109.501 183.015 110.319 183.015 111.492L183.004 116.196H181.61V111.518C181.61 108.549 183.033 107.061 185.883 107.061C187.002 107.061 187.809 107.137 188.291 107.281C189.091 107.517 189.695 108.02 190.101 108.795C190.738 107.64 191.853 107.061 193.45 107.061C194.573 107.061 195.308 107.086 195.655 107.14C197.65 107.481 198.65 108.936 198.65 111.518V116.196H197.256L197.241 111.492Z" fill="white"/>
<path d="M209.524 112.141V111.268C209.524 110.403 209.437 109.78 209.263 109.41C209.089 109.045 208.77 108.806 208.311 108.701C207.988 108.621 207.373 108.585 206.46 108.585H204.947C203.69 108.585 202.894 108.715 202.564 108.976C202.166 109.298 201.963 110.066 201.963 111.282V112.155C201.963 113.335 202.17 114.081 202.575 114.393C202.901 114.628 203.676 114.748 204.911 114.748H206.486C207.38 114.748 207.985 114.711 208.296 114.643C208.756 114.545 209.075 114.32 209.256 113.958C209.433 113.596 209.524 112.991 209.524 112.141ZM211.084 112.195C211.084 113.411 210.943 114.302 210.653 114.871C210.367 115.439 209.886 115.819 209.198 116.008C208.651 116.163 207.753 116.247 206.511 116.247H204.831C203.557 116.247 202.626 116.138 202.043 115.921C201.402 115.685 200.964 115.247 200.729 114.617C200.511 114.027 200.403 113.093 200.403 111.815C200.403 110.46 200.493 109.49 200.678 108.896C200.892 108.201 201.315 107.72 201.949 107.452C202.55 107.191 203.52 107.061 204.86 107.061H206.526C207.956 107.061 208.991 107.209 209.618 107.502C210.248 107.799 210.657 108.328 210.849 109.092C211.008 109.664 211.084 110.699 211.084 112.195Z" fill="white"/>
<path d="M223.15 107.061L218.551 116.192H216.165L211.57 107.061H213.355L217.302 114.889L217.461 114.798L221.368 107.061H223.15Z" fill="white"/>
<path d="M233.121 110.852C233.103 110.001 233.085 109.537 233.071 109.458C232.991 109.005 232.68 108.715 232.133 108.585C231.774 108.498 231.083 108.455 230.044 108.455H228.182C226.941 108.455 226.137 108.57 225.775 108.806C225.322 109.103 225.09 109.783 225.083 110.852H233.121ZM234.591 113.535C234.591 114.697 234.218 115.457 233.458 115.816C232.897 116.091 231.771 116.232 230.087 116.232H228.067C226.788 116.232 225.858 116.123 225.279 115.906C224.641 115.671 224.203 115.236 223.964 114.603C223.743 114.02 223.638 113.093 223.638 111.818C223.638 110.446 223.729 109.461 223.924 108.871C224.142 108.176 224.562 107.698 225.188 107.441C225.786 107.184 226.756 107.061 228.092 107.061H230.112C231.597 107.061 232.698 107.256 233.407 107.643C234.077 108.013 234.454 108.581 234.544 109.353C234.555 109.508 234.573 110.012 234.591 110.852V112.18H225.083C225.072 113.397 225.289 114.165 225.735 114.487C226.082 114.737 226.883 114.863 228.143 114.863H230.058C231.206 114.863 231.948 114.813 232.288 114.704C232.846 114.545 233.118 114.15 233.107 113.535H234.591Z" fill="white"/>
<path d="M241.863 108.415H239.962C239.256 108.415 238.67 108.628 238.199 109.045C237.732 109.468 237.5 110.019 237.5 110.707V116.192H235.947V107.061H237.5V108.259C238.05 107.459 238.872 107.061 239.962 107.061H241.863C242.888 107.061 243.713 107.278 244.34 107.712C245.035 108.205 245.397 108.918 245.433 109.849H243.883C243.768 108.893 243.098 108.415 241.863 108.415Z" fill="white"/>
<defs>
<filter id="filter0_d" x="0" y="0" width="287" height="361" filterUnits="userSpaceOnUse" color-interpolation-filters="sRGB">
<feFlood flood-opacity="0" result="BackgroundImageFix"/>
<feColorMatrix in="SourceAlpha" type="matrix" values="0 0 0 0 0 0 0 0 0 0 0 0 0 0 0 0 0 0 127 0"/>
<feOffset dx="4" dy="4"/>
<feGaussianBlur stdDeviation="2"/>
<feColorMatrix type="matrix" values="0 0 0 0 0 0 0 0 0 0 0 0 0 0 0 0 0 0 0.25 0"/>
<feBlend mode="normal" in2="BackgroundImageFix" result="effect1_dropShadow"/>
<feBlend mode="normal" in="SourceGraphic" in2="effect1_dropShadow" result="shape"/>
</filter>
</defs>
</svg>
