<svg width="287" height="361" viewBox="0 0 287 361" fill="none" xmlns="http://www.w3.org/2000/svg">
<g filter="url(#filter0_d)">
<rect width="279" height="353" rx="8" fill="white" fill-opacity="0.08"/>
<rect width="279" height="353" rx="8" fill="#121212" fill-opacity="0.08"/>
</g>
<path d="M251.286 319.714H242.714V328.286C242.714 329.229 241.943 330 241 330C240.057 330 239.286 329.229 239.286 328.286V319.714H230.714C229.771 319.714 229 318.943 229 318C229 317.057 229.771 316.286 230.714 316.286H239.286V307.714C239.286 306.771 240.057 306 241 306C241.943 306 242.714 306.771 242.714 307.714V316.286H251.286C252.229 316.286 253 317.057 253 318C253 318.943 252.229 319.714 251.286 319.714Z" fill="#FAFAFA"/>
<path d="M53.832 224.92H51.048V223.6H58.176V224.92H55.392V232H53.832V224.92ZM63.5528 223.6C64.2808 223.6 64.9128 223.72 65.4488 223.96C65.9928 224.2 66.4088 224.544 66.6968 224.992C66.9848 225.44 67.1288 225.972 67.1288 226.588C67.1288 227.196 66.9848 227.728 66.6968 228.184C66.4088 228.632 65.9928 228.976 65.4488 229.216C64.9128 229.456 64.2808 229.576 63.5528 229.576H61.6568V232H60.0968V223.6H63.5528ZM63.4808 228.256C64.1608 228.256 64.6768 228.112 65.0287 227.824C65.3808 227.536 65.5568 227.124 65.5568 226.588C65.5568 226.052 65.3808 225.64 65.0287 225.352C64.6768 225.064 64.1608 224.92 63.4808 224.92H61.6568V228.256H63.4808ZM77.1526 232L77.1406 226.432L74.3806 231.04H73.6846L70.9246 226.504V232H69.4366V223.6H70.7206L74.0566 229.168L77.3326 223.6H78.6166L78.6286 232H77.1526ZM84.2515 232.12C83.6035 232.12 82.9755 232.028 82.3675 231.844C81.7675 231.66 81.2915 231.416 80.9395 231.112L81.4795 229.9C81.8235 230.172 82.2435 230.396 82.7395 230.572C83.2435 230.74 83.7475 230.824 84.2515 230.824C84.8755 230.824 85.3395 230.724 85.6435 230.524C85.9555 230.324 86.1115 230.06 86.1115 229.732C86.1115 229.492 86.0235 229.296 85.8475 229.144C85.6795 228.984 85.4635 228.86 85.1995 228.772C84.9355 228.684 84.5755 228.584 84.1195 228.472C83.4795 228.32 82.9595 228.168 82.5595 228.016C82.1675 227.864 81.8275 227.628 81.5395 227.308C81.2595 226.98 81.1195 226.54 81.1195 225.988C81.1195 225.524 81.2435 225.104 81.4915 224.728C81.7475 224.344 82.1275 224.04 82.6315 223.816C83.1435 223.592 83.7675 223.48 84.5035 223.48C85.0155 223.48 85.5195 223.544 86.0155 223.672C86.5115 223.8 86.9395 223.984 87.2995 224.224L86.8075 225.436C86.4395 225.22 86.0555 225.056 85.6555 224.944C85.2555 224.832 84.8675 224.776 84.4915 224.776C83.8755 224.776 83.4155 224.88 83.1115 225.088C82.8155 225.296 82.6675 225.572 82.6675 225.916C82.6675 226.156 82.7515 226.352 82.9195 226.504C83.0955 226.656 83.3155 226.776 83.5795 226.864C83.8435 226.952 84.2035 227.052 84.6595 227.164C85.2835 227.308 85.7955 227.46 86.1955 227.62C86.5955 227.772 86.9355 228.008 87.2155 228.328C87.5035 228.648 87.6475 229.08 87.6475 229.624C87.6475 230.088 87.5195 230.508 87.2635 230.884C87.0155 231.26 86.6355 231.56 86.1235 231.784C85.6115 232.008 84.9875 232.12 84.2515 232.12ZM96.6148 232.12C95.9668 232.12 95.3388 232.028 94.7308 231.844C94.1308 231.66 93.6548 231.416 93.3028 231.112L93.8428 229.9C94.1868 230.172 94.6068 230.396 95.1028 230.572C95.6068 230.74 96.1108 230.824 96.6148 230.824C97.2388 230.824 97.7028 230.724 98.0068 230.524C98.3188 230.324 98.4748 230.06 98.4748 229.732C98.4748 229.492 98.3868 229.296 98.2108 229.144C98.0428 228.984 97.8268 228.86 97.5628 228.772C97.2988 228.684 96.9388 228.584 96.4828 228.472C95.8428 228.32 95.3228 228.168 94.9228 228.016C94.5308 227.864 94.1908 227.628 93.9028 227.308C93.6228 226.98 93.4828 226.54 93.4828 225.988C93.4828 225.524 93.6068 225.104 93.8548 224.728C94.1108 224.344 94.4908 224.04 94.9948 223.816C95.5068 223.592 96.1308 223.48 96.8668 223.48C97.3788 223.48 97.8828 223.544 98.3788 223.672C98.8748 223.8 99.3028 223.984 99.6628 224.224L99.1708 225.436C98.8028 225.22 98.4188 225.056 98.0188 224.944C97.6188 224.832 97.2308 224.776 96.8548 224.776C96.2388 224.776 95.7788 224.88 95.4748 225.088C95.1788 225.296 95.0308 225.572 95.0308 225.916C95.0308 226.156 95.1148 226.352 95.2828 226.504C95.4588 226.656 95.6788 226.776 95.9428 226.864C96.2068 226.952 96.5668 227.052 97.0228 227.164C97.6468 227.308 98.1588 227.46 98.5588 227.62C98.9588 227.772 99.2988 228.008 99.5788 228.328C99.8668 228.648 100.011 229.08 100.011 229.624C100.011 230.088 99.8828 230.508 99.6268 230.884C99.3788 231.26 98.9988 231.56 98.4868 231.784C97.9748 232.008 97.3508 232.12 96.6148 232.12ZM105.756 229.036V232H104.196V229.06L100.896 223.6H102.564L105.024 227.692L107.508 223.6H109.044L105.756 229.036ZM113.244 232.12C112.596 232.12 111.968 232.028 111.36 231.844C110.76 231.66 110.284 231.416 109.932 231.112L110.472 229.9C110.816 230.172 111.236 230.396 111.732 230.572C112.236 230.74 112.74 230.824 113.244 230.824C113.868 230.824 114.332 230.724 114.636 230.524C114.948 230.324 115.104 230.06 115.104 229.732C115.104 229.492 115.016 229.296 114.84 229.144C114.672 228.984 114.456 228.86 114.192 228.772C113.928 228.684 113.568 228.584 113.112 228.472C112.472 228.32 111.952 228.168 111.552 228.016C111.16 227.864 110.82 227.628 110.532 227.308C110.252 226.98 110.112 226.54 110.112 225.988C110.112 225.524 110.236 225.104 110.484 224.728C110.74 224.344 111.12 224.04 111.624 223.816C112.136 223.592 112.76 223.48 113.496 223.48C114.008 223.48 114.512 223.544 115.008 223.672C115.504 223.8 115.932 223.984 116.292 224.224L115.8 225.436C115.432 225.22 115.048 225.056 114.648 224.944C114.248 224.832 113.86 224.776 113.484 224.776C112.868 224.776 112.408 224.88 112.104 225.088C111.808 225.296 111.66 225.572 111.66 225.916C111.66 226.156 111.744 226.352 111.912 226.504C112.088 226.656 112.308 226.776 112.572 226.864C112.836 226.952 113.196 227.052 113.652 227.164C114.276 227.308 114.788 227.46 115.188 227.62C115.588 227.772 115.928 228.008 116.208 228.328C116.496 228.648 116.64 229.08 116.64 229.624C116.64 230.088 116.512 230.508 116.256 230.884C116.008 231.26 115.628 231.56 115.116 231.784C114.604 232.008 113.98 232.12 113.244 232.12ZM120.523 224.92H117.739V223.6H124.867V224.92H122.083V232H120.523V224.92ZM133.088 230.692V232H126.788V223.6H132.92V224.908H128.348V227.092H132.404V228.376H128.348V230.692H133.088ZM143.293 232L143.281 226.432L140.521 231.04H139.825L137.065 226.504V232H135.577V223.6H136.861L140.197 229.168L143.473 223.6H144.757L144.769 232H143.293ZM53.832 240.92H51.048V239.6H58.176V240.92H55.392V248H53.832V240.92ZM60.0968 239.6H61.6568V248H60.0968V239.6ZM70.1748 248L68.4588 245.54C68.3868 245.548 68.2788 245.552 68.1348 245.552H66.2388V248H64.6788V239.6H68.1348C68.8628 239.6 69.4948 239.72 70.0308 239.96C70.5748 240.2 70.9908 240.544 71.2788 240.992C71.5668 241.44 71.7108 241.972 71.7108 242.588C71.7108 243.22 71.5548 243.764 71.2428 244.22C70.9388 244.676 70.4988 245.016 69.9228 245.24L71.8548 248H70.1748ZM70.1388 242.588C70.1388 242.052 69.9628 241.64 69.6108 241.352C69.2588 241.064 68.7428 240.92 68.0628 240.92H66.2388V244.268H68.0628C68.7428 244.268 69.2588 244.124 69.6108 243.836C69.9628 243.54 70.1388 243.124 70.1388 242.588ZM80.5061 246.692V248H74.2061V239.6H80.3381V240.908H75.7661V243.092H79.8221V244.376H75.7661V246.692H80.5061ZM92.5096 246.056H88.3096L87.4816 248H85.8736L89.6536 239.6H91.1896L94.9816 248H93.3496L92.5096 246.056ZM91.9936 244.832L90.4096 241.16L88.8376 244.832H91.9936ZM108.631 239.6L105.847 248H104.191L102.115 241.784L100.003 248H98.3346L95.5506 239.6H97.1706L99.2586 245.984L101.431 239.6H102.871L104.995 246.02L107.143 239.6H108.631ZM115.83 246.056H111.63L110.802 248H109.194L112.974 239.6H114.51L118.302 248H116.67L115.83 246.056ZM115.314 244.832L113.73 241.16L112.158 244.832H115.314ZM125.616 248L123.9 245.54C123.828 245.548 123.72 245.552 123.576 245.552H121.68V248H120.12V239.6H123.576C124.304 239.6 124.936 239.72 125.472 239.96C126.016 240.2 126.432 240.544 126.72 240.992C127.008 241.44 127.152 241.972 127.152 242.588C127.152 243.22 126.996 243.764 126.684 244.22C126.38 244.676 125.94 245.016 125.364 245.24L127.296 248H125.616ZM125.58 242.588C125.58 242.052 125.404 241.64 125.052 241.352C124.7 241.064 124.184 240.92 123.504 240.92H121.68V244.268H123.504C124.184 244.268 124.7 244.124 125.052 243.836C125.404 243.54 125.58 243.124 125.58 242.588ZM135.948 246.692V248H129.648V239.6H135.78V240.908H131.208V243.092H135.264V244.376H131.208V246.692H135.948ZM145.107 248.12C144.459 248.12 143.831 248.028 143.223 247.844C142.623 247.66 142.147 247.416 141.795 247.112L142.335 245.9C142.679 246.172 143.099 246.396 143.595 246.572C144.099 246.74 144.603 246.824 145.107 246.824C145.731 246.824 146.195 246.724 146.499 246.524C146.811 246.324 146.967 246.06 146.967 245.732C146.967 245.492 146.879 245.296 146.703 245.144C146.535 244.984 146.319 244.86 146.055 244.772C145.791 244.684 145.431 244.584 144.975 244.472C144.335 244.32 143.815 244.168 143.415 244.016C143.023 243.864 142.683 243.628 142.395 243.308C142.115 242.98 141.975 242.54 141.975 241.988C141.975 241.524 142.099 241.104 142.347 240.728C142.603 240.344 142.983 240.04 143.487 239.816C143.999 239.592 144.623 239.48 145.359 239.48C145.871 239.48 146.375 239.544 146.871 239.672C147.367 239.8 147.795 239.984 148.155 240.224L147.663 241.436C147.295 241.22 146.911 241.056 146.511 240.944C146.111 240.832 145.723 240.776 145.347 240.776C144.731 240.776 144.271 240.88 143.967 241.088C143.671 241.296 143.523 241.572 143.523 241.916C143.523 242.156 143.607 242.352 143.775 242.504C143.951 242.656 144.171 242.776 144.435 242.864C144.699 242.952 145.059 243.052 145.515 243.164C146.139 243.308 146.651 243.46 147.051 243.62C147.451 243.772 147.791 244.008 148.071 244.328C148.359 244.648 148.503 245.08 148.503 245.624C148.503 246.088 148.375 246.508 148.119 246.884C147.871 247.26 147.491 247.56 146.979 247.784C146.467 248.008 145.843 248.12 145.107 248.12ZM154.248 245.036V248H152.688V245.06L149.388 239.6H151.056L153.516 243.692L156 239.6H157.536L154.248 245.036ZM161.736 248.12C161.088 248.12 160.46 248.028 159.852 247.844C159.252 247.66 158.776 247.416 158.424 247.112L158.964 245.9C159.308 246.172 159.728 246.396 160.224 246.572C160.728 246.74 161.232 246.824 161.736 246.824C162.36 246.824 162.824 246.724 163.128 246.524C163.44 246.324 163.596 246.06 163.596 245.732C163.596 245.492 163.508 245.296 163.332 245.144C163.164 244.984 162.948 244.86 162.684 244.772C162.42 244.684 162.06 244.584 161.604 244.472C160.964 244.32 160.444 244.168 160.044 244.016C159.652 243.864 159.312 243.628 159.024 243.308C158.744 242.98 158.604 242.54 158.604 241.988C158.604 241.524 158.728 241.104 158.976 240.728C159.232 240.344 159.612 240.04 160.116 239.816C160.628 239.592 161.252 239.48 161.988 239.48C162.5 239.48 163.004 239.544 163.5 239.672C163.996 239.8 164.424 239.984 164.784 240.224L164.292 241.436C163.924 241.22 163.54 241.056 163.14 240.944C162.74 240.832 162.352 240.776 161.976 240.776C161.36 240.776 160.9 240.88 160.596 241.088C160.3 241.296 160.152 241.572 160.152 241.916C160.152 242.156 160.236 242.352 160.404 242.504C160.58 242.656 160.8 242.776 161.064 242.864C161.328 242.952 161.688 243.052 162.144 243.164C162.768 243.308 163.28 243.46 163.68 243.62C164.08 243.772 164.42 244.008 164.7 244.328C164.988 244.648 165.132 245.08 165.132 245.624C165.132 246.088 165.004 246.508 164.748 246.884C164.5 247.26 164.12 247.56 163.608 247.784C163.096 248.008 162.472 248.12 161.736 248.12ZM169.016 240.92H166.232V239.6H173.36V240.92H170.576V248H169.016V240.92ZM181.58 246.692V248H175.28V239.6H181.412V240.908H176.84V243.092H180.896V244.376H176.84V246.692H181.58ZM191.785 248L191.773 242.432L189.013 247.04H188.317L185.557 242.504V248H184.069V239.6H185.353L188.689 245.168L191.965 239.6H193.249L193.261 248H191.785Z" fill="white" fill-opacity="0.87"/>
<defs>
<filter id="filter0_d" x="0" y="0" width="287" height="361" filterUnits="userSpaceOnUse" color-interpolation-filters="sRGB">
<feFlood flood-opacity="0" result="BackgroundImageFix"/>
<feColorMatrix in="SourceAlpha" type="matrix" values="0 0 0 0 0 0 0 0 0 0 0 0 0 0 0 0 0 0 127 0"/>
<feOffset dx="4" dy="4"/>
<feGaussianBlur stdDeviation="2"/>
<feColorMatrix type="matrix" values="0 0 0 0 0 0 0 0 0 0 0 0 0 0 0 0 0 0 0.25 0"/>
<feBlend mode="normal" in2="BackgroundImageFix" result="effect1_dropShadow"/>
<feBlend mode="normal" in="SourceGraphic" in2="effect1_dropShadow" result="shape"/>
</filter>
</defs>
</svg>
