<svg width="287" height="361" viewBox="0 0 287 361" fill="none" xmlns="http://www.w3.org/2000/svg">
<g filter="url(#filter0_d)">
<rect width="279" height="353" rx="8" fill="white" fill-opacity="0.08"/>
<rect width="279" height="353" rx="8" fill="#121212" fill-opacity="0.08"/>
</g>
<path d="M251.286 319.714H242.714V328.286C242.714 329.229 241.943 330 241 330C240.057 330 239.286 329.229 239.286 328.286V319.714H230.714C229.771 319.714 229 318.943 229 318C229 317.057 229.771 316.286 230.714 316.286H239.286V307.714C239.286 306.771 240.057 306 241 306C241.943 306 242.714 306.771 242.714 307.714V316.286H251.286C252.229 316.286 253 317.057 253 318C253 318.943 252.229 319.714 251.286 319.714Z" fill="#FAFAFA"/>
<path d="M54.732 232.12C54.084 232.12 53.456 232.028 52.848 231.844C52.248 231.66 51.772 231.416 51.42 231.112L51.96 229.9C52.304 230.172 52.724 230.396 53.22 230.572C53.724 230.74 54.228 230.824 54.732 230.824C55.356 230.824 55.82 230.724 56.124 230.524C56.436 230.324 56.592 230.06 56.592 229.732C56.592 229.492 56.504 229.296 56.328 229.144C56.16 228.984 55.944 228.86 55.68 228.772C55.416 228.684 55.056 228.584 54.6 228.472C53.96 228.32 53.44 228.168 53.04 228.016C52.648 227.864 52.308 227.628 52.02 227.308C51.74 226.98 51.6 226.54 51.6 225.988C51.6 225.524 51.724 225.104 51.972 224.728C52.228 224.344 52.608 224.04 53.112 223.816C53.624 223.592 54.248 223.48 54.984 223.48C55.496 223.48 56 223.544 56.496 223.672C56.992 223.8 57.42 223.984 57.78 224.224L57.288 225.436C56.92 225.22 56.536 225.056 56.136 224.944C55.736 224.832 55.348 224.776 54.972 224.776C54.356 224.776 53.896 224.88 53.592 225.088C53.296 225.296 53.148 225.572 53.148 225.916C53.148 226.156 53.232 226.352 53.4 226.504C53.576 226.656 53.796 226.776 54.06 226.864C54.324 226.952 54.684 227.052 55.14 227.164C55.764 227.308 56.276 227.46 56.676 227.62C57.076 227.772 57.416 228.008 57.696 228.328C57.984 228.648 58.128 229.08 58.128 229.624C58.128 230.088 58 230.508 57.744 230.884C57.496 231.26 57.116 231.56 56.604 231.784C56.092 232.008 55.468 232.12 54.732 232.12ZM68.1409 232L68.1289 226.432L65.3689 231.04H64.6729L61.9129 226.504V232H60.4249V223.6H61.7089L65.0449 229.168L68.3209 223.6H69.6049L69.6169 232H68.1409ZM78.0838 230.056H73.8838L73.0558 232H71.4478L75.2278 223.6H76.7638L80.5558 232H78.9238L78.0838 230.056ZM77.5678 228.832L75.9838 225.16L74.4118 228.832H77.5678ZM87.8701 232L86.1541 229.54C86.0821 229.548 85.9741 229.552 85.8301 229.552H83.9341V232H82.3741V223.6H85.8301C86.5581 223.6 87.1901 223.72 87.7261 223.96C88.2701 224.2 88.6861 224.544 88.9741 224.992C89.2621 225.44 89.4061 225.972 89.4061 226.588C89.4061 227.22 89.2501 227.764 88.9381 228.22C88.6341 228.676 88.1941 229.016 87.6181 229.24L89.5501 232H87.8701ZM87.8341 226.588C87.8341 226.052 87.6581 225.64 87.3061 225.352C86.9541 225.064 86.4381 224.92 85.7581 224.92H83.9341V228.268H85.7581C86.4381 228.268 86.9541 228.124 87.3061 227.836C87.6581 227.54 87.8341 227.124 87.8341 226.588ZM93.4883 224.92H90.7043V223.6H97.8323V224.92H95.0483V232H93.4883V224.92ZM106.711 228.484L105.379 229.852V232H103.819V223.6H105.379V227.908L109.531 223.6H111.283L107.755 227.356L111.499 232H109.675L106.711 228.484ZM119.612 230.692V232H113.312V223.6H119.444V224.908H114.872V227.092H118.928V228.376H114.872V230.692H119.612ZM125.631 229.036V232H124.071V229.06L120.771 223.6H122.439L124.899 227.692L127.383 223.6H128.919L125.631 229.036ZM138.645 232.12C137.797 232.12 137.029 231.936 136.341 231.568C135.661 231.192 135.125 230.676 134.733 230.02C134.349 229.364 134.157 228.624 134.157 227.8C134.157 226.976 134.353 226.236 134.745 225.58C135.137 224.924 135.673 224.412 136.353 224.044C137.041 223.668 137.809 223.48 138.657 223.48C139.345 223.48 139.973 223.6 140.541 223.84C141.109 224.08 141.589 224.428 141.981 224.884L140.973 225.832C140.365 225.176 139.617 224.848 138.729 224.848C138.153 224.848 137.637 224.976 137.181 225.232C136.725 225.48 136.369 225.828 136.113 226.276C135.857 226.724 135.729 227.232 135.729 227.8C135.729 228.368 135.857 228.876 136.113 229.324C136.369 229.772 136.725 230.124 137.181 230.38C137.637 230.628 138.153 230.752 138.729 230.752C139.617 230.752 140.365 230.42 140.973 229.756L141.981 230.716C141.589 231.172 141.105 231.52 140.529 231.76C139.961 232 139.333 232.12 138.645 232.12ZM151.69 223.6V232H150.13V228.4H145.786V232H144.226V223.6H145.786V227.068H150.13V223.6H151.69ZM160.139 230.056H155.939L155.111 232H153.502L157.283 223.6H158.819L162.611 232H160.979L160.139 230.056ZM159.622 228.832L158.039 225.16L156.467 228.832H159.622ZM164.429 223.6H165.989V232H164.429V223.6ZM176.475 223.6V232H175.191L170.559 226.312V232H169.011V223.6H170.295L174.927 229.288V223.6H176.475ZM53.472 250.328C53 249.6 52.636 248.756 52.38 247.796C52.132 246.836 52.008 245.808 52.008 244.712C52.008 243.616 52.132 242.588 52.38 241.628C52.636 240.66 53 239.816 53.472 239.096H54.9C54.412 239.96 54.052 240.852 53.82 241.772C53.596 242.684 53.484 243.664 53.484 244.712C53.484 245.76 53.596 246.744 53.82 247.664C54.052 248.576 54.412 249.464 54.9 250.328H53.472ZM58.5982 240.908V243.464H62.6542V244.784H58.5982V248H57.0382V239.6H63.1702V240.908H58.5982ZM65.4288 239.6H66.9888V248H65.4288V239.6ZM77.4748 239.6V248H76.1908L71.5588 242.312V248H70.0108V239.6H71.2948L75.9268 245.288V239.6H77.4748ZM83.0797 248.12C82.4317 248.12 81.8037 248.028 81.1957 247.844C80.5957 247.66 80.1197 247.416 79.7677 247.112L80.3077 245.9C80.6517 246.172 81.0717 246.396 81.5677 246.572C82.0717 246.74 82.5757 246.824 83.0797 246.824C83.7037 246.824 84.1677 246.724 84.4717 246.524C84.7837 246.324 84.9397 246.06 84.9397 245.732C84.9397 245.492 84.8517 245.296 84.6757 245.144C84.5077 244.984 84.2917 244.86 84.0277 244.772C83.7637 244.684 83.4037 244.584 82.9477 244.472C82.3077 244.32 81.7877 244.168 81.3877 244.016C80.9957 243.864 80.6557 243.628 80.3677 243.308C80.0877 242.98 79.9477 242.54 79.9477 241.988C79.9477 241.524 80.0717 241.104 80.3197 240.728C80.5757 240.344 80.9557 240.04 81.4597 239.816C81.9717 239.592 82.5957 239.48 83.3317 239.48C83.8437 239.48 84.3477 239.544 84.8437 239.672C85.3397 239.8 85.7677 239.984 86.1277 240.224L85.6357 241.436C85.2677 241.22 84.8837 241.056 84.4837 240.944C84.0837 240.832 83.6957 240.776 83.3197 240.776C82.7037 240.776 82.2437 240.88 81.9397 241.088C81.6437 241.296 81.4957 241.572 81.4957 241.916C81.4957 242.156 81.5797 242.352 81.7477 242.504C81.9237 242.656 82.1437 242.776 82.4077 242.864C82.6717 242.952 83.0317 243.052 83.4877 243.164C84.1117 243.308 84.6237 243.46 85.0237 243.62C85.4237 243.772 85.7637 244.008 86.0437 244.328C86.3317 244.648 86.4757 245.08 86.4757 245.624C86.4757 246.088 86.3477 246.508 86.0917 246.884C85.8437 247.26 85.4637 247.56 84.9517 247.784C84.4397 248.008 83.8157 248.12 83.0797 248.12ZM100.555 248L100.543 242.432L97.7829 247.04H97.0869L94.3269 242.504V248H92.8389V239.6H94.1229L97.4589 245.168L100.735 239.6H102.019L102.031 248H100.555ZM111.35 246.692V248H105.05V239.6H111.182V240.908H106.61V243.092H110.666V244.376H106.61V246.692H111.35ZM112.975 250.328C113.463 249.464 113.823 248.572 114.055 247.652C114.287 246.732 114.403 245.752 114.403 244.712C114.403 243.672 114.287 242.692 114.055 241.772C113.823 240.852 113.463 239.96 112.975 239.096H114.403C114.875 239.808 115.235 240.648 115.483 241.616C115.739 242.576 115.867 243.608 115.867 244.712C115.867 245.816 115.739 246.848 115.483 247.808C115.235 248.76 114.875 249.6 114.403 250.328H112.975Z" fill="white" fill-opacity="0.87"/>
<defs>
<filter id="filter0_d" x="0" y="0" width="287" height="361" filterUnits="userSpaceOnUse" color-interpolation-filters="sRGB">
<feFlood flood-opacity="0" result="BackgroundImageFix"/>
<feColorMatrix in="SourceAlpha" type="matrix" values="0 0 0 0 0 0 0 0 0 0 0 0 0 0 0 0 0 0 127 0"/>
<feOffset dx="4" dy="4"/>
<feGaussianBlur stdDeviation="2"/>
<feColorMatrix type="matrix" values="0 0 0 0 0 0 0 0 0 0 0 0 0 0 0 0 0 0 0.25 0"/>
<feBlend mode="normal" in2="BackgroundImageFix" result="effect1_dropShadow"/>
<feBlend mode="normal" in="SourceGraphic" in2="effect1_dropShadow" result="shape"/>
</filter>
</defs>
</svg>
