<svg width="287" height="361" viewBox="0 0 287 361" fill="none" xmlns="http://www.w3.org/2000/svg">
<g filter="url(#filter0_d)">
<rect width="279" height="353" rx="8" fill="white" fill-opacity="0.08"/>
<rect width="279" height="353" rx="8" fill="#121212" fill-opacity="0.08"/>
</g>
<path d="M251.286 319.714H242.714V328.286C242.714 329.229 241.943 330 241 330C240.057 330 239.286 329.229 239.286 328.286V319.714H230.714C229.771 319.714 229 318.943 229 318C229 317.057 229.771 316.286 230.714 316.286H239.286V307.714C239.286 306.771 240.057 306 241 306C241.943 306 242.714 306.771 242.714 307.714V316.286H251.286C252.229 316.286 253 317.057 253 318C253 318.943 252.229 319.714 251.286 319.714Z" fill="#FAFAFA"/>
<path d="M56.052 232.12C55.196 232.12 54.424 231.936 53.736 231.568C53.048 231.192 52.508 230.676 52.116 230.02C51.724 229.356 51.528 228.616 51.528 227.8C51.528 226.984 51.724 226.248 52.116 225.592C52.508 224.928 53.048 224.412 53.736 224.044C54.424 223.668 55.196 223.48 56.052 223.48C56.908 223.48 57.68 223.668 58.368 224.044C59.056 224.412 59.596 224.924 59.988 225.58C60.38 226.236 60.576 226.976 60.576 227.8C60.576 228.624 60.38 229.364 59.988 230.02C59.596 230.676 59.056 231.192 58.368 231.568C57.68 231.936 56.908 232.12 56.052 232.12ZM56.052 230.752C56.612 230.752 57.116 230.628 57.564 230.38C58.012 230.124 58.364 229.772 58.62 229.324C58.876 228.868 59.004 228.36 59.004 227.8C59.004 227.24 58.876 226.736 58.62 226.288C58.364 225.832 58.012 225.48 57.564 225.232C57.116 224.976 56.612 224.848 56.052 224.848C55.492 224.848 54.988 224.976 54.54 225.232C54.092 225.48 53.74 225.832 53.484 226.288C53.228 226.736 53.1 227.24 53.1 227.8C53.1 228.36 53.228 228.868 53.484 229.324C53.74 229.772 54.092 230.124 54.54 230.38C54.988 230.628 55.492 230.752 56.052 230.752ZM68.9316 227.632C69.3956 227.784 69.7636 228.04 70.0356 228.4C70.3076 228.752 70.4436 229.192 70.4436 229.72C70.4436 230.448 70.1636 231.012 69.6036 231.412C69.0436 231.804 68.2276 232 67.1556 232H62.9796V223.6H66.9156C67.9076 223.6 68.6716 223.796 69.2076 224.188C69.7436 224.572 70.0116 225.104 70.0116 225.784C70.0116 226.2 69.9156 226.568 69.7236 226.888C69.5316 227.208 69.2676 227.456 68.9316 227.632ZM64.5396 224.824V227.14H66.7476C67.2916 227.14 67.7076 227.044 67.9956 226.852C68.2916 226.652 68.4396 226.364 68.4396 225.988C68.4396 225.604 68.2916 225.316 67.9956 225.124C67.7076 224.924 67.2916 224.824 66.7476 224.824H64.5396ZM67.0596 230.776C68.2676 230.776 68.8716 230.372 68.8716 229.564C68.8716 228.756 68.2676 228.352 67.0596 228.352H64.5396V230.776H67.0596ZM72.8585 223.6H76.5305C77.4265 223.6 78.2225 223.776 78.9185 224.128C79.6145 224.472 80.1545 224.964 80.5385 225.604C80.9225 226.236 81.1145 226.968 81.1145 227.8C81.1145 228.632 80.9225 229.368 80.5385 230.008C80.1545 230.64 79.6145 231.132 78.9185 231.484C78.2225 231.828 77.4265 232 76.5305 232H72.8585V223.6ZM76.4585 230.68C77.0745 230.68 77.6145 230.564 78.0785 230.332C78.5505 230.092 78.9105 229.756 79.1585 229.324C79.4145 228.884 79.5425 228.376 79.5425 227.8C79.5425 227.224 79.4145 226.72 79.1585 226.288C78.9105 225.848 78.5505 225.512 78.0785 225.28C77.6145 225.04 77.0745 224.92 76.4585 224.92H74.4185V230.68H76.4585ZM88.8893 230.68V232H82.6973V230.956L86.0333 227.788C86.4093 227.428 86.6613 227.116 86.7893 226.852C86.9253 226.58 86.9933 226.312 86.9933 226.048C86.9933 225.656 86.8613 225.356 86.5973 225.148C86.3333 224.94 85.9453 224.836 85.4333 224.836C84.5773 224.836 83.9213 225.128 83.4653 225.712L82.3733 224.872C82.7013 224.432 83.1413 224.092 83.6933 223.852C84.2533 223.604 84.8773 223.48 85.5653 223.48C86.4773 223.48 87.2053 223.696 87.7493 224.128C88.2933 224.56 88.5653 225.148 88.5653 225.892C88.5653 226.348 88.4693 226.776 88.2773 227.176C88.0853 227.576 87.7173 228.032 87.1733 228.544L84.9293 230.68H88.8893ZM100.942 227.704H102.418V231.052C101.986 231.396 101.482 231.66 100.906 231.844C100.33 232.028 99.7381 232.12 99.1301 232.12C98.2741 232.12 97.5021 231.936 96.8141 231.568C96.1261 231.192 95.5861 230.676 95.1941 230.02C94.8021 229.364 94.6061 228.624 94.6061 227.8C94.6061 226.976 94.8021 226.236 95.1941 225.58C95.5861 224.924 96.1261 224.412 96.8141 224.044C97.5101 223.668 98.2901 223.48 99.1541 223.48C99.8581 223.48 100.498 223.596 101.074 223.828C101.65 224.06 102.134 224.4 102.526 224.848L101.542 225.808C100.902 225.168 100.13 224.848 99.2261 224.848C98.6341 224.848 98.1061 224.972 97.6421 225.22C97.1861 225.468 96.8261 225.816 96.5621 226.264C96.3061 226.712 96.1781 227.224 96.1781 227.8C96.1781 228.36 96.3061 228.864 96.5621 229.312C96.8261 229.76 97.1861 230.112 97.6421 230.368C98.1061 230.624 98.6301 230.752 99.2141 230.752C99.8701 230.752 100.446 230.608 100.942 230.32V227.704ZM108.682 223.6C109.41 223.6 110.042 223.72 110.578 223.96C111.122 224.2 111.538 224.544 111.826 224.992C112.114 225.44 112.258 225.972 112.258 226.588C112.258 227.196 112.114 227.728 111.826 228.184C111.538 228.632 111.122 228.976 110.578 229.216C110.042 229.456 109.41 229.576 108.682 229.576H106.786V232H105.226V223.6H108.682ZM108.61 228.256C109.29 228.256 109.806 228.112 110.158 227.824C110.51 227.536 110.686 227.124 110.686 226.588C110.686 226.052 110.51 225.64 110.158 225.352C109.806 225.064 109.29 224.92 108.61 224.92H106.786V228.256H108.61ZM117.287 232.12C116.639 232.12 116.011 232.028 115.403 231.844C114.803 231.66 114.327 231.416 113.975 231.112L114.515 229.9C114.859 230.172 115.279 230.396 115.775 230.572C116.279 230.74 116.783 230.824 117.287 230.824C117.911 230.824 118.375 230.724 118.679 230.524C118.991 230.324 119.147 230.06 119.147 229.732C119.147 229.492 119.059 229.296 118.883 229.144C118.715 228.984 118.499 228.86 118.235 228.772C117.971 228.684 117.611 228.584 117.155 228.472C116.515 228.32 115.995 228.168 115.595 228.016C115.203 227.864 114.863 227.628 114.575 227.308C114.295 226.98 114.155 226.54 114.155 225.988C114.155 225.524 114.279 225.104 114.527 224.728C114.783 224.344 115.163 224.04 115.667 223.816C116.179 223.592 116.803 223.48 117.539 223.48C118.051 223.48 118.555 223.544 119.051 223.672C119.547 223.8 119.975 223.984 120.335 224.224L119.843 225.436C119.475 225.22 119.091 225.056 118.691 224.944C118.291 224.832 117.903 224.776 117.527 224.776C116.911 224.776 116.451 224.88 116.147 225.088C115.851 225.296 115.703 225.572 115.703 225.916C115.703 226.156 115.787 226.352 115.955 226.504C116.131 226.656 116.351 226.776 116.615 226.864C116.879 226.952 117.239 227.052 117.695 227.164C118.319 227.308 118.831 227.46 119.231 227.62C119.631 227.772 119.971 228.008 120.251 228.328C120.539 228.648 120.683 229.08 120.683 229.624C120.683 230.088 120.555 230.508 120.299 230.884C120.051 231.26 119.671 231.56 119.159 231.784C118.647 232.008 118.023 232.12 117.287 232.12ZM128.39 234.328C127.918 233.6 127.554 232.756 127.298 231.796C127.05 230.836 126.926 229.808 126.926 228.712C126.926 227.616 127.05 226.588 127.298 225.628C127.554 224.66 127.918 223.816 128.39 223.096H129.818C129.33 223.96 128.97 224.852 128.738 225.772C128.514 226.684 128.402 227.664 128.402 228.712C128.402 229.76 128.514 230.744 128.738 231.664C128.97 232.576 129.33 233.464 129.818 234.328H128.39ZM136.023 223.6H137.583V232H136.023V223.6ZM144.493 232.12C143.645 232.12 142.877 231.936 142.189 231.568C141.509 231.192 140.973 230.676 140.581 230.02C140.197 229.364 140.005 228.624 140.005 227.8C140.005 226.976 140.201 226.236 140.593 225.58C140.985 224.924 141.521 224.412 142.201 224.044C142.889 223.668 143.657 223.48 144.505 223.48C145.193 223.48 145.821 223.6 146.389 223.84C146.957 224.08 147.437 224.428 147.829 224.884L146.821 225.832C146.213 225.176 145.465 224.848 144.577 224.848C144.001 224.848 143.485 224.976 143.029 225.232C142.573 225.48 142.217 225.828 141.961 226.276C141.705 226.724 141.577 227.232 141.577 227.8C141.577 228.368 141.705 228.876 141.961 229.324C142.217 229.772 142.573 230.124 143.029 230.38C143.485 230.628 144.001 230.752 144.577 230.752C145.465 230.752 146.213 230.42 146.821 229.756L147.829 230.716C147.437 231.172 146.953 231.52 146.377 231.76C145.809 232 145.181 232.12 144.493 232.12ZM153.786 232.12C152.938 232.12 152.17 231.936 151.482 231.568C150.802 231.192 150.266 230.676 149.874 230.02C149.49 229.364 149.298 228.624 149.298 227.8C149.298 226.976 149.494 226.236 149.886 225.58C150.278 224.924 150.814 224.412 151.494 224.044C152.182 223.668 152.95 223.48 153.798 223.48C154.486 223.48 155.114 223.6 155.682 223.84C156.25 224.08 156.73 224.428 157.122 224.884L156.114 225.832C155.506 225.176 154.758 224.848 153.87 224.848C153.294 224.848 152.778 224.976 152.322 225.232C151.866 225.48 151.51 225.828 151.254 226.276C150.998 226.724 150.87 227.232 150.87 227.8C150.87 228.368 150.998 228.876 151.254 229.324C151.51 229.772 151.866 230.124 152.322 230.38C152.778 230.628 153.294 230.752 153.87 230.752C154.758 230.752 155.506 230.42 156.114 229.756L157.122 230.716C156.73 231.172 156.246 231.52 155.67 231.76C155.102 232 154.474 232.12 153.786 232.12ZM162.92 232.12C161.76 232.12 160.856 231.796 160.208 231.148C159.56 230.492 159.236 229.556 159.236 228.34V223.6H160.796V228.28C160.796 229.928 161.508 230.752 162.932 230.752C164.348 230.752 165.056 229.928 165.056 228.28V223.6H166.592V228.34C166.592 229.556 166.268 230.492 165.62 231.148C164.98 231.796 164.08 232.12 162.92 232.12ZM172.729 234.328C173.217 233.464 173.577 232.572 173.809 231.652C174.041 230.732 174.157 229.752 174.157 228.712C174.157 227.672 174.041 226.692 173.809 225.772C173.577 224.852 173.217 223.96 172.729 223.096H174.157C174.629 223.808 174.989 224.648 175.237 225.616C175.493 226.576 175.621 227.608 175.621 228.712C175.621 229.816 175.493 230.848 175.237 231.808C174.989 232.76 174.629 233.6 174.157 234.328H172.729ZM52.128 239.6H53.688V248H52.128V239.6ZM64.174 239.6V248H62.89L58.258 242.312V248H56.71V239.6H57.994L62.626 245.288V239.6H64.174ZM68.8789 240.92H66.0949V239.6H73.2229V240.92H70.4389V248H68.8789V240.92ZM81.4436 246.692V248H75.1436V239.6H81.2756V240.908H76.7036V243.092H80.7596V244.376H76.7036V246.692H81.4436ZM91.3967 239.6V248H90.1127L85.4807 242.312V248H83.9327V239.6H85.2167L89.8487 245.288V239.6H91.3967ZM97.0015 248.12C96.3535 248.12 95.7255 248.028 95.1175 247.844C94.5175 247.66 94.0415 247.416 93.6895 247.112L94.2295 245.9C94.5735 246.172 94.9935 246.396 95.4895 246.572C95.9935 246.74 96.4975 246.824 97.0015 246.824C97.6255 246.824 98.0895 246.724 98.3935 246.524C98.7055 246.324 98.8615 246.06 98.8615 245.732C98.8615 245.492 98.7735 245.296 98.5975 245.144C98.4295 244.984 98.2135 244.86 97.9495 244.772C97.6855 244.684 97.3255 244.584 96.8695 244.472C96.2295 244.32 95.7095 244.168 95.3095 244.016C94.9175 243.864 94.5775 243.628 94.2895 243.308C94.0095 242.98 93.8695 242.54 93.8695 241.988C93.8695 241.524 93.9935 241.104 94.2415 240.728C94.4975 240.344 94.8775 240.04 95.3815 239.816C95.8935 239.592 96.5175 239.48 97.2535 239.48C97.7655 239.48 98.2695 239.544 98.7655 239.672C99.2615 239.8 99.6895 239.984 100.05 240.224L99.5575 241.436C99.1895 241.22 98.8055 241.056 98.4055 240.944C98.0055 240.832 97.6175 240.776 97.2415 240.776C96.6255 240.776 96.1655 240.88 95.8615 241.088C95.5655 241.296 95.4175 241.572 95.4175 241.916C95.4175 242.156 95.5015 242.352 95.6695 242.504C95.8455 242.656 96.0655 242.776 96.3295 242.864C96.5935 242.952 96.9535 243.052 97.4095 243.164C98.0335 243.308 98.5455 243.46 98.9455 243.62C99.3455 243.772 99.6855 244.008 99.9655 244.328C100.254 244.648 100.398 245.08 100.398 245.624C100.398 246.088 100.27 246.508 100.014 246.884C99.7655 247.26 99.3855 247.56 98.8735 247.784C98.3615 248.008 97.7375 248.12 97.0015 248.12ZM102.694 239.6H104.254V248H102.694V239.6ZM114.898 239.6L111.238 248H109.702L106.03 239.6H107.722L110.518 246.08L113.338 239.6H114.898ZM122.834 246.692V248H116.534V239.6H122.666V240.908H118.094V243.092H122.15V244.376H118.094V246.692H122.834ZM133.278 248.12C132.43 248.12 131.662 247.936 130.974 247.568C130.294 247.192 129.758 246.676 129.366 246.02C128.982 245.364 128.79 244.624 128.79 243.8C128.79 242.976 128.986 242.236 129.378 241.58C129.77 240.924 130.306 240.412 130.986 240.044C131.674 239.668 132.442 239.48 133.29 239.48C133.978 239.48 134.606 239.6 135.174 239.84C135.742 240.08 136.222 240.428 136.614 240.884L135.606 241.832C134.998 241.176 134.25 240.848 133.362 240.848C132.786 240.848 132.27 240.976 131.814 241.232C131.358 241.48 131.002 241.828 130.746 242.276C130.49 242.724 130.362 243.232 130.362 243.8C130.362 244.368 130.49 244.876 130.746 245.324C131.002 245.772 131.358 246.124 131.814 246.38C132.27 246.628 132.786 246.752 133.362 246.752C134.25 246.752 134.998 246.42 135.606 245.756L136.614 246.716C136.222 247.172 135.738 247.52 135.162 247.76C134.594 248 133.966 248.12 133.278 248.12ZM144.131 246.056H139.931L139.103 248H137.495L141.275 239.6H142.811L146.603 248H144.971L144.131 246.056ZM143.615 244.832L142.031 241.16L140.459 244.832H143.615ZM153.917 248L152.201 245.54C152.129 245.548 152.021 245.552 151.877 245.552H149.981V248H148.421V239.6H151.877C152.605 239.6 153.237 239.72 153.773 239.96C154.317 240.2 154.733 240.544 155.021 240.992C155.309 241.44 155.453 241.972 155.453 242.588C155.453 243.22 155.297 243.764 154.985 244.22C154.681 244.676 154.241 245.016 153.665 245.24L155.597 248H153.917ZM153.881 242.588C153.881 242.052 153.705 241.64 153.353 241.352C153.001 241.064 152.485 240.92 151.805 240.92H149.981V244.268H151.805C152.485 244.268 153.001 244.124 153.353 243.836C153.705 243.54 153.881 243.124 153.881 242.588ZM165.903 248.12C165.055 248.12 164.287 247.936 163.599 247.568C162.919 247.192 162.383 246.676 161.991 246.02C161.607 245.364 161.415 244.624 161.415 243.8C161.415 242.976 161.611 242.236 162.003 241.58C162.395 240.924 162.931 240.412 163.611 240.044C164.299 239.668 165.067 239.48 165.915 239.48C166.603 239.48 167.231 239.6 167.799 239.84C168.367 240.08 168.847 240.428 169.239 240.884L168.231 241.832C167.623 241.176 166.875 240.848 165.987 240.848C165.411 240.848 164.895 240.976 164.439 241.232C163.983 241.48 163.627 241.828 163.371 242.276C163.115 242.724 162.987 243.232 162.987 243.8C162.987 244.368 163.115 244.876 163.371 245.324C163.627 245.772 163.983 246.124 164.439 246.38C164.895 246.628 165.411 246.752 165.987 246.752C166.875 246.752 167.623 246.42 168.231 245.756L169.239 246.716C168.847 247.172 168.363 247.52 167.787 247.76C167.219 248 166.591 248.12 165.903 248.12ZM176.756 246.056H172.556L171.728 248H170.12L173.9 239.6H175.436L179.228 248H177.596L176.756 246.056ZM176.24 244.832L174.656 241.16L173.084 244.832H176.24ZM186.542 248L184.826 245.54C184.754 245.548 184.646 245.552 184.502 245.552H182.606V248H181.046V239.6H184.502C185.23 239.6 185.862 239.72 186.398 239.96C186.942 240.2 187.358 240.544 187.646 240.992C187.934 241.44 188.078 241.972 188.078 242.588C188.078 243.22 187.922 243.764 187.61 244.22C187.306 244.676 186.866 245.016 186.29 245.24L188.222 248H186.542ZM186.506 242.588C186.506 242.052 186.33 241.64 185.978 241.352C185.626 241.064 185.11 240.92 184.43 240.92H182.606V244.268H184.43C185.11 244.268 185.626 244.124 185.978 243.836C186.33 243.54 186.506 243.124 186.506 242.588ZM196.873 246.692V248H190.573V239.6H196.705V240.908H192.133V243.092H196.189V244.376H192.133V246.692H196.873ZM207.041 248.12C205.881 248.12 204.977 247.796 204.329 247.148C203.681 246.492 203.357 245.556 203.357 244.34V239.6H204.917V244.28C204.917 245.928 205.629 246.752 207.053 246.752C208.469 246.752 209.177 245.928 209.177 244.28V239.6H210.713V244.34C210.713 245.556 210.389 246.492 209.741 247.148C209.101 247.796 208.201 248.12 207.041 248.12ZM221.112 239.6V248H219.828L215.196 242.312V248H213.648V239.6H214.932L219.564 245.288V239.6H221.112ZM224.112 239.6H225.672V248H224.112V239.6ZM230.398 240.92H227.614V239.6H234.742V240.92H231.958V248H230.398V240.92Z" fill="white" fill-opacity="0.87"/>
<defs>
<filter id="filter0_d" x="0" y="0" width="287" height="361" filterUnits="userSpaceOnUse" color-interpolation-filters="sRGB">
<feFlood flood-opacity="0" result="BackgroundImageFix"/>
<feColorMatrix in="SourceAlpha" type="matrix" values="0 0 0 0 0 0 0 0 0 0 0 0 0 0 0 0 0 0 127 0"/>
<feOffset dx="4" dy="4"/>
<feGaussianBlur stdDeviation="2"/>
<feColorMatrix type="matrix" values="0 0 0 0 0 0 0 0 0 0 0 0 0 0 0 0 0 0 0.25 0"/>
<feBlend mode="normal" in2="BackgroundImageFix" result="effect1_dropShadow"/>
<feBlend mode="normal" in="SourceGraphic" in2="effect1_dropShadow" result="shape"/>
</filter>
</defs>
</svg>
