<svg width="287" height="363" viewBox="0 0 287 363" fill="none" xmlns="http://www.w3.org/2000/svg">
<g filter="url(#filter0_d)">
<rect y="2" width="279" height="353" rx="8" fill="white" fill-opacity="0.08"/>
<rect y="2" width="279" height="353" rx="8" fill="#121212" fill-opacity="0.08"/>
</g>
<path d="M251.286 321.714H242.714V330.286C242.714 331.229 241.943 332 241 332C240.057 332 239.286 331.229 239.286 330.286V321.714H230.714C229.771 321.714 229 320.943 229 320C229 319.057 229.771 318.286 230.714 318.286H239.286V309.714C239.286 308.771 240.057 308 241 308C241.943 308 242.714 308.771 242.714 309.714V318.286H251.286C252.229 318.286 253 319.057 253 320C253 320.943 252.229 321.714 251.286 321.714Z" fill="#FAFAFA"/>
<path d="M113.08 223.632C113.544 223.784 113.912 224.04 114.184 224.4C114.456 224.752 114.592 225.192 114.592 225.72C114.592 226.448 114.312 227.012 113.752 227.412C113.192 227.804 112.376 228 111.304 228H107.128V219.6H111.064C112.056 219.6 112.82 219.796 113.356 220.188C113.892 220.572 114.16 221.104 114.16 221.784C114.16 222.2 114.064 222.568 113.872 222.888C113.68 223.208 113.416 223.456 113.08 223.632ZM108.688 220.824V223.14H110.896C111.44 223.14 111.856 223.044 112.144 222.852C112.44 222.652 112.588 222.364 112.588 221.988C112.588 221.604 112.44 221.316 112.144 221.124C111.856 220.924 111.44 220.824 110.896 220.824H108.688ZM111.208 226.776C112.416 226.776 113.02 226.372 113.02 225.564C113.02 224.756 112.416 224.352 111.208 224.352H108.688V226.776H111.208ZM122.455 226.056H118.255L117.427 228H115.819L119.599 219.6H121.135L124.927 228H123.295L122.455 226.056ZM121.939 224.832L120.355 221.16L118.783 224.832H121.939ZM128.027 220.92H125.243V219.6H132.371V220.92H129.587V228H128.027V220.92ZM136.113 220.92H133.329V219.6H140.457V220.92H137.673V228H136.113V220.92ZM148.678 226.692V228H142.378V219.6H148.51V220.908H143.938V223.092H147.994V224.376H143.938V226.692H148.678ZM156.663 228L154.947 225.54C154.875 225.548 154.767 225.552 154.623 225.552H152.727V228H151.167V219.6H154.623C155.351 219.6 155.983 219.72 156.519 219.96C157.063 220.2 157.479 220.544 157.767 220.992C158.055 221.44 158.199 221.972 158.199 222.588C158.199 223.22 158.043 223.764 157.731 224.22C157.427 224.676 156.987 225.016 156.411 225.24L158.343 228H156.663ZM156.627 222.588C156.627 222.052 156.451 221.64 156.099 221.352C155.747 221.064 155.231 220.92 154.551 220.92H152.727V224.268H154.551C155.231 224.268 155.747 224.124 156.099 223.836C156.451 223.54 156.627 223.124 156.627 222.588ZM164.201 225.036V228H162.641V225.06L159.341 219.6H161.009L163.469 223.692L165.953 219.6H167.489L164.201 225.036Z" fill="white" fill-opacity="0.87"/>
<path d="M188.65 140.009H164.373V133.554H188.65V140.009ZM131.478 156.372L139.745 140.055H131.478L148.664 120.238L142.301 135.194L150.099 135.006L131.478 156.372ZM115.89 140.009H106.992V148.908H100.536V140.009H91.6132V133.554H100.536V124.652H106.992V133.554H115.89V140.009ZM79.4764 186.099H200.578V108.432H79.4764V186.099Z" fill="white"/>
<path d="M73.4189 94.3389H205.251V103.614H73.4189V94.3389Z" fill="white"/>
<path d="M103.747 83.0903V91.1187H89.6572V83.0903C89.6572 79.1879 92.8033 76.0454 96.7021 76.0454C98.6515 76.0454 100.391 76.8195 101.68 78.112C102.948 79.3796 103.747 81.1409 103.747 83.0903Z" fill="white"/>
<path d="M188.646 83.0903V91.1187H174.56V83.0903C174.56 79.1879 177.706 76.0454 181.605 76.0454C183.551 76.0454 185.315 76.8195 186.583 78.112C187.872 79.3796 188.646 81.1409 188.646 83.0903Z" fill="white"/>
<defs>
<filter id="filter0_d" x="0" y="2" width="287" height="361" filterUnits="userSpaceOnUse" color-interpolation-filters="sRGB">
<feFlood flood-opacity="0" result="BackgroundImageFix"/>
<feColorMatrix in="SourceAlpha" type="matrix" values="0 0 0 0 0 0 0 0 0 0 0 0 0 0 0 0 0 0 127 0"/>
<feOffset dx="4" dy="4"/>
<feGaussianBlur stdDeviation="2"/>
<feColorMatrix type="matrix" values="0 0 0 0 0 0 0 0 0 0 0 0 0 0 0 0 0 0 0.25 0"/>
<feBlend mode="normal" in2="BackgroundImageFix" result="effect1_dropShadow"/>
<feBlend mode="normal" in="SourceGraphic" in2="effect1_dropShadow" result="shape"/>
</filter>
</defs>
</svg>
