<svg width="287" height="361" viewBox="0 0 287 361" fill="none" xmlns="http://www.w3.org/2000/svg">
<g filter="url(#filter0_d)">
<rect width="279" height="353" rx="8" fill="white" fill-opacity="0.08"/>
<rect width="279" height="353" rx="8" fill="#121212" fill-opacity="0.08"/>
</g>
<path d="M251.286 319.714H242.714V328.286C242.714 329.229 241.943 330 241 330C240.057 330 239.286 329.229 239.286 328.286V319.714H230.714C229.771 319.714 229 318.943 229 318C229 317.057 229.771 316.286 230.714 316.286H239.286V307.714C239.286 306.771 240.057 306 241 306C241.943 306 242.714 306.771 242.714 307.714V316.286H251.286C252.229 316.286 253 317.057 253 318C253 318.943 252.229 319.714 251.286 319.714Z" fill="#FAFAFA"/>
<path d="M42.584 171.6C43.312 171.6 43.944 171.72 44.48 171.96C45.024 172.2 45.44 172.544 45.728 172.992C46.016 173.44 46.16 173.972 46.16 174.588C46.16 175.196 46.016 175.728 45.728 176.184C45.44 176.632 45.024 176.976 44.48 177.216C43.944 177.456 43.312 177.576 42.584 177.576H40.688V180H39.128V171.6H42.584ZM42.512 176.256C43.192 176.256 43.708 176.112 44.06 175.824C44.412 175.536 44.588 175.124 44.588 174.588C44.588 174.052 44.412 173.64 44.06 173.352C43.708 173.064 43.192 172.92 42.512 172.92H40.688V176.256H42.512ZM52.509 180.12C51.653 180.12 50.881 179.936 50.193 179.568C49.505 179.192 48.965 178.676 48.573 178.02C48.181 177.356 47.985 176.616 47.985 175.8C47.985 174.984 48.181 174.248 48.573 173.592C48.965 172.928 49.505 172.412 50.193 172.044C50.881 171.668 51.653 171.48 52.509 171.48C53.365 171.48 54.137 171.668 54.825 172.044C55.513 172.412 56.053 172.924 56.445 173.58C56.837 174.236 57.033 174.976 57.033 175.8C57.033 176.624 56.837 177.364 56.445 178.02C56.053 178.676 55.513 179.192 54.825 179.568C54.137 179.936 53.365 180.12 52.509 180.12ZM52.509 178.752C53.069 178.752 53.573 178.628 54.021 178.38C54.469 178.124 54.821 177.772 55.077 177.324C55.333 176.868 55.461 176.36 55.461 175.8C55.461 175.24 55.333 174.736 55.077 174.288C54.821 173.832 54.469 173.48 54.021 173.232C53.573 172.976 53.069 172.848 52.509 172.848C51.949 172.848 51.445 172.976 50.997 173.232C50.549 173.48 50.197 173.832 49.941 174.288C49.685 174.736 49.557 175.24 49.557 175.8C49.557 176.36 49.685 176.868 49.941 177.324C50.197 177.772 50.549 178.124 50.997 178.38C51.445 178.628 51.949 178.752 52.509 178.752ZM59.4366 171.6H60.9966V178.68H65.3886V180H59.4366V171.6ZM67.3702 171.6H68.9302V178.68H73.3222V180H67.3702V171.6ZM78.7986 180.12C77.6386 180.12 76.7346 179.796 76.0866 179.148C75.4386 178.492 75.1146 177.556 75.1146 176.34V171.6H76.6746V176.28C76.6746 177.928 77.3866 178.752 78.8106 178.752C80.2266 178.752 80.9346 177.928 80.9346 176.28V171.6H82.4706V176.34C82.4706 177.556 82.1466 178.492 81.4986 179.148C80.8586 179.796 79.9586 180.12 78.7986 180.12ZM86.957 172.92H84.173V171.6H91.301V172.92H88.517V180H86.957V172.92ZM93.2218 171.6H94.7818V180H93.2218V171.6ZM101.728 180.12C100.872 180.12 100.1 179.936 99.4118 179.568C98.7238 179.192 98.1838 178.676 97.7918 178.02C97.3998 177.356 97.2038 176.616 97.2038 175.8C97.2038 174.984 97.3998 174.248 97.7918 173.592C98.1838 172.928 98.7238 172.412 99.4118 172.044C100.1 171.668 100.872 171.48 101.728 171.48C102.584 171.48 103.356 171.668 104.044 172.044C104.732 172.412 105.272 172.924 105.664 173.58C106.056 174.236 106.252 174.976 106.252 175.8C106.252 176.624 106.056 177.364 105.664 178.02C105.272 178.676 104.732 179.192 104.044 179.568C103.356 179.936 102.584 180.12 101.728 180.12ZM101.728 178.752C102.288 178.752 102.792 178.628 103.24 178.38C103.688 178.124 104.04 177.772 104.296 177.324C104.552 176.868 104.68 176.36 104.68 175.8C104.68 175.24 104.552 174.736 104.296 174.288C104.04 173.832 103.688 173.48 103.24 173.232C102.792 172.976 102.288 172.848 101.728 172.848C101.168 172.848 100.664 172.976 100.216 173.232C99.7678 173.48 99.4158 173.832 99.1598 174.288C98.9038 174.736 98.7758 175.24 98.7758 175.8C98.7758 176.36 98.9038 176.868 99.1598 177.324C99.4158 177.772 99.7678 178.124 100.216 178.38C100.664 178.628 101.168 178.752 101.728 178.752ZM116.119 171.6V180H114.835L110.203 174.312V180H108.655V171.6H109.939L114.571 177.288V171.6H116.119ZM126.799 180.12C125.639 180.12 124.735 179.796 124.087 179.148C123.439 178.492 123.115 177.556 123.115 176.34V171.6H124.675V176.28C124.675 177.928 125.387 178.752 126.811 178.752C128.227 178.752 128.935 177.928 128.935 176.28V171.6H130.471V176.34C130.471 177.556 130.147 178.492 129.499 179.148C128.859 179.796 127.959 180.12 126.799 180.12ZM140.869 171.6V180H139.585L134.953 174.312V180H133.405V171.6H134.689L139.321 177.288V171.6H140.869ZM143.87 171.6H147.542C148.438 171.6 149.234 171.776 149.93 172.128C150.626 172.472 151.166 172.964 151.55 173.604C151.934 174.236 152.126 174.968 152.126 175.8C152.126 176.632 151.934 177.368 151.55 178.008C151.166 178.64 150.626 179.132 149.93 179.484C149.234 179.828 148.438 180 147.542 180H143.87V171.6ZM147.47 178.68C148.086 178.68 148.626 178.564 149.09 178.332C149.562 178.092 149.922 177.756 150.17 177.324C150.426 176.884 150.554 176.376 150.554 175.8C150.554 175.224 150.426 174.72 150.17 174.288C149.922 173.848 149.562 173.512 149.09 173.28C148.626 173.04 148.086 172.92 147.47 172.92H145.43V178.68H147.47ZM160.834 178.692V180H154.534V171.6H160.666V172.908H156.094V175.092H160.15V176.376H156.094V178.692H160.834ZM168.819 180L167.103 177.54C167.031 177.548 166.923 177.552 166.779 177.552H164.883V180H163.323V171.6H166.779C167.507 171.6 168.139 171.72 168.675 171.96C169.219 172.2 169.635 172.544 169.923 172.992C170.211 173.44 170.355 173.972 170.355 174.588C170.355 175.22 170.199 175.764 169.887 176.22C169.583 176.676 169.143 177.016 168.567 177.24L170.499 180H168.819ZM168.783 174.588C168.783 174.052 168.607 173.64 168.255 173.352C167.903 173.064 167.387 172.92 166.707 172.92H164.883V176.268H166.707C167.387 176.268 167.903 176.124 168.255 175.836C168.607 175.54 168.783 175.124 168.783 174.588ZM180.805 180.12C179.957 180.12 179.189 179.936 178.501 179.568C177.821 179.192 177.285 178.676 176.893 178.02C176.509 177.364 176.317 176.624 176.317 175.8C176.317 174.976 176.513 174.236 176.905 173.58C177.297 172.924 177.833 172.412 178.513 172.044C179.201 171.668 179.969 171.48 180.817 171.48C181.505 171.48 182.133 171.6 182.701 171.84C183.269 172.08 183.749 172.428 184.141 172.884L183.133 173.832C182.525 173.176 181.777 172.848 180.889 172.848C180.313 172.848 179.797 172.976 179.341 173.232C178.885 173.48 178.529 173.828 178.273 174.276C178.017 174.724 177.889 175.232 177.889 175.8C177.889 176.368 178.017 176.876 178.273 177.324C178.529 177.772 178.885 178.124 179.341 178.38C179.797 178.628 180.313 178.752 180.889 178.752C181.777 178.752 182.525 178.42 183.133 177.756L184.141 178.716C183.749 179.172 183.265 179.52 182.689 179.76C182.121 180 181.493 180.12 180.805 180.12ZM190.134 180.12C189.278 180.12 188.506 179.936 187.818 179.568C187.13 179.192 186.59 178.676 186.198 178.02C185.806 177.356 185.61 176.616 185.61 175.8C185.61 174.984 185.806 174.248 186.198 173.592C186.59 172.928 187.13 172.412 187.818 172.044C188.506 171.668 189.278 171.48 190.134 171.48C190.99 171.48 191.762 171.668 192.45 172.044C193.138 172.412 193.678 172.924 194.07 173.58C194.462 174.236 194.658 174.976 194.658 175.8C194.658 176.624 194.462 177.364 194.07 178.02C193.678 178.676 193.138 179.192 192.45 179.568C191.762 179.936 190.99 180.12 190.134 180.12ZM190.134 178.752C190.694 178.752 191.198 178.628 191.646 178.38C192.094 178.124 192.446 177.772 192.702 177.324C192.958 176.868 193.086 176.36 193.086 175.8C193.086 175.24 192.958 174.736 192.702 174.288C192.446 173.832 192.094 173.48 191.646 173.232C191.198 172.976 190.694 172.848 190.134 172.848C189.574 172.848 189.07 172.976 188.622 173.232C188.174 173.48 187.822 173.832 187.566 174.288C187.31 174.736 187.182 175.24 187.182 175.8C187.182 176.36 187.31 176.868 187.566 177.324C187.822 177.772 188.174 178.124 188.622 178.38C189.07 178.628 189.574 178.752 190.134 178.752ZM204.526 171.6V180H203.242L198.61 174.312V180H197.062V171.6H198.346L202.978 177.288V171.6H204.526ZM209.23 172.92H206.446V171.6H213.574V172.92H210.79V180H209.23V172.92ZM220.991 180L219.275 177.54C219.203 177.548 219.095 177.552 218.951 177.552H217.055V180H215.495V171.6H218.951C219.679 171.6 220.311 171.72 220.847 171.96C221.391 172.2 221.807 172.544 222.095 172.992C222.383 173.44 222.527 173.972 222.527 174.588C222.527 175.22 222.371 175.764 222.059 176.22C221.755 176.676 221.315 177.016 220.739 177.24L222.671 180H220.991ZM220.955 174.588C220.955 174.052 220.779 173.64 220.427 173.352C220.075 173.064 219.559 172.92 218.879 172.92H217.055V176.268H218.879C219.559 176.268 220.075 176.124 220.427 175.836C220.779 175.54 220.955 175.124 220.955 174.588ZM228.947 180.12C228.091 180.12 227.319 179.936 226.631 179.568C225.943 179.192 225.403 178.676 225.011 178.02C224.619 177.356 224.423 176.616 224.423 175.8C224.423 174.984 224.619 174.248 225.011 173.592C225.403 172.928 225.943 172.412 226.631 172.044C227.319 171.668 228.091 171.48 228.947 171.48C229.803 171.48 230.575 171.668 231.263 172.044C231.951 172.412 232.491 172.924 232.883 173.58C233.275 174.236 233.471 174.976 233.471 175.8C233.471 176.624 233.275 177.364 232.883 178.02C232.491 178.676 231.951 179.192 231.263 179.568C230.575 179.936 229.803 180.12 228.947 180.12ZM228.947 178.752C229.507 178.752 230.011 178.628 230.459 178.38C230.907 178.124 231.259 177.772 231.515 177.324C231.771 176.868 231.899 176.36 231.899 175.8C231.899 175.24 231.771 174.736 231.515 174.288C231.259 173.832 230.907 173.48 230.459 173.232C230.011 172.976 229.507 172.848 228.947 172.848C228.387 172.848 227.883 172.976 227.435 173.232C226.987 173.48 226.635 173.832 226.379 174.288C226.123 174.736 225.995 175.24 225.995 175.8C225.995 176.36 226.123 176.868 226.379 177.324C226.635 177.772 226.987 178.124 227.435 178.38C227.883 178.628 228.387 178.752 228.947 178.752ZM235.874 171.6H237.434V178.68H241.826V180H235.874V171.6Z" fill="white" fill-opacity="0.87"/>
<path d="M79.2883 141.317H51.5246C49.6191 141.317 47.8261 140.407 46.7046 138.867L37.8907 126.738C35.3101 123.194 37.3141 118.173 41.6208 117.375L48.9757 116.015C52.8149 115.305 54.9419 111.152 53.2825 107.619L45.8854 91.9039C44.1065 88.1315 46.6589 83.7474 50.818 83.4274L61.4847 82.6048C63.9316 82.4184 66.0164 80.7449 66.7266 78.3929L72.9002 58.0264C73.8108 55.0169 76.9046 53.2309 79.9633 53.9516L87.2655 55.6708C88.8721 56.047 90.5597 55.7446 91.9343 54.827L115.964 38.8094C118.032 37.4277 120.739 37.4805 122.753 38.936L131.448 45.2151C133.817 46.9237 137.08 46.6635 139.147 44.5963L149.487 34.2566C151.737 32.003 155.365 31.9221 157.717 34.0702L172.205 47.2964C173.446 48.4319 175.116 48.9874 176.793 48.8257L191.563 47.3983C196.158 46.9518 199.491 51.684 197.526 55.8642C196.056 58.9897 197.543 62.7093 200.767 63.9574L215.361 69.6071C219.024 71.024 220.336 75.5346 218.005 78.6953L213.568 84.7177C211.631 87.351 212.172 91.0566 214.791 93.0183L231.333 105.425C234.81 108.034 234.413 113.374 230.58 115.438L224.902 118.493C220.786 120.712 220.712 126.593 224.772 128.914L227.898 130.696C232.535 133.344 231.611 140.287 226.442 141.634L220.722 143.131C220.202 143.265 219.668 143.328 219.13 143.321L79.2883 141.317Z" fill="#6D6F70" stroke="white" stroke-width="2"/>
<path d="M92.335 79.5125C91.8885 80.314 91.5861 80.9223 91.4771 81.2457C91.1642 82.202 91.0377 82.6801 90.9392 82.9438C90.3837 82.8067 89.7755 82.5676 89.2833 82.7293C88.7981 82.9192 88.7103 83.3938 88.1372 83.545C87.4551 83.6821 86.4567 83.3059 85.7922 83.211C84.3543 82.9754 82.8671 82.7786 81.4327 82.4446C79.1264 81.9242 78.3283 79.7726 78.4619 77.614C78.6131 75.603 80.6663 74.9385 82.2905 74.6959C83.9113 74.4041 86.1156 73.6799 87.6485 74.601C89.8704 75.9651 88.9915 80.1242 92.335 79.5125Z" fill="white" stroke="white" stroke-width="2"/>
<path d="M192.645 128.365C189.906 128.365 187.287 128.46 184.619 128.509C183.511 128.534 182.432 128.534 181.324 128.534C179.018 128.534 174.159 128.727 172.071 127.958C168.636 126.804 167.743 122.262 166.804 119.017C167.047 118.943 167.286 118.898 167.55 118.848C167.887 118.799 168.271 118.729 168.657 118.655C168.896 118.63 169.16 118.585 169.427 118.535C169.522 118.535 169.592 118.535 169.691 118.511C170.025 118.465 170.412 118.412 170.77 118.363H170.869C171.227 118.317 171.614 118.268 171.997 118.219C172.936 118.128 173.92 118.033 174.954 117.959C175.246 117.959 175.531 117.934 175.819 117.91C177.38 117.79 178.993 117.695 180.576 117.646C180.987 117.618 181.398 117.597 181.806 117.572H182.696C183.054 117.551 183.388 117.551 183.754 117.526H184.591C188.704 117.453 192.044 117.618 193.007 117.959C195.577 118.919 195.12 121.274 195.894 123.774C196.66 127.212 196.087 128.365 192.645 128.365ZM162.958 123.605C161.735 127.043 156.95 126.586 156.472 126.586L123.347 126.611C122.89 126.611 118.084 127.093 116.857 123.654C115.584 120.195 113.685 114.64 113.014 111.877C112.293 108.966 109.938 103.97 124.018 104.279C131.278 104.423 136.517 104.423 139.885 104.378C143.274 104.423 148.512 104.423 155.776 104.258C169.839 103.921 167.504 108.92 166.783 111.827C166.108 114.591 164.21 120.17 162.958 123.605ZM107.772 128.003C105.656 128.773 100.8 128.604 98.494 128.604C97.6502 128.604 96.8099 128.604 95.9943 128.583C93.9763 128.559 91.9547 128.509 89.9121 128.485C89.0015 128.46 88.1121 128.46 87.1734 128.46C83.735 128.46 83.1584 127.307 83.9283 123.872C84.6983 121.373 84.2131 119.017 86.7901 118.054C87.7253 117.716 90.8508 117.572 94.7216 117.597C95.133 117.597 95.5619 117.597 95.9943 117.618C97.267 117.646 98.6135 117.667 99.9882 117.744C100.8 117.762 101.616 117.811 102.435 117.864C102.752 117.864 103.036 117.888 103.325 117.91C103.785 117.934 104.218 117.983 104.646 118.008C105.082 118.033 105.515 118.078 105.947 118.103C106.38 118.152 106.788 118.198 107.195 118.219C107.821 118.268 108.422 118.342 108.999 118.412C109.382 118.465 109.769 118.511 110.103 118.56C110.416 118.609 110.704 118.655 110.992 118.68C111.137 118.704 111.277 118.729 111.404 118.753C111.594 118.771 111.762 118.82 111.931 118.848C112.005 118.869 112.075 118.869 112.124 118.869C112.244 118.898 112.364 118.919 112.48 118.943C112.676 118.992 112.845 119.017 113.014 119.063C112.051 122.308 111.21 126.85 107.772 128.003ZM85.201 95.866C85.6335 93.8726 86.0694 94.1609 88.207 94.1363C91.4977 94.1363 94.6724 94.4492 97.9666 95.0258C102.294 95.7219 107.315 95.5777 111.594 96.8539C106.619 105.77 101.141 104.209 94.8165 104.209C91.3782 104.209 86.0694 104.209 85.201 100.05C84.9127 98.8966 84.9127 97.1668 85.201 95.866ZM104.745 62.4315L139.885 61.208L174.954 62.3612C174.954 62.3612 187.621 82.0738 186.661 82.0738C185.747 82.0738 154.092 80.2914 139.86 80.6043C125.653 80.316 93.9763 82.1441 93.0868 82.1441C92.127 82.1441 104.745 62.4315 104.745 62.4315ZM191.541 94.066C193.703 94.066 194.136 93.7777 194.568 95.7711C194.856 97.0719 194.856 98.8016 194.568 99.9548C193.703 104.114 188.416 104.114 184.953 104.114C178.631 104.135 173.15 105.699 168.176 96.8047C172.458 95.532 177.503 95.6516 181.806 94.9554C185.076 94.3543 188.247 94.066 191.541 94.066ZM200.939 95.5566C200.816 93.5351 196.129 89.2107 194.783 87.8888C193.893 87.0205 190.771 84.352 189.738 83.684C189.112 83.2973 188.992 83.2973 188.823 82.9106C188.729 82.6258 188.609 82.1441 188.296 81.2055C188.177 80.8715 187.885 80.2668 187.431 79.4757C184.738 74.5959 176.881 62.4561 176.227 61.7846C175.432 61.0147 173.727 59.4748 171.276 59.0458C168.851 58.638 144.452 57.3618 139.86 57.3618C135.247 57.3618 110.848 58.6837 108.422 59.1162C105.972 59.5486 104.26 61.0639 103.497 61.8303C102.843 62.5053 94.9853 74.6697 92.3204 79.546C91.8598 80.3652 91.5715 80.9664 91.452 81.2758C91.1391 82.2391 91.0196 82.7207 90.9246 82.9844C90.8016 83.2481 90.1758 83.684 89.9367 83.8001C89.8875 83.8493 89.8664 83.8739 89.8664 83.8739C89.1914 84.3309 86.4526 86.1802 84.9866 87.7447C82.7506 90.1002 78.929 93.6335 78.8305 95.6516C78.7391 97.6731 77.8708 99.0864 78.0852 103.126C78.1626 105.074 78.7145 110.987 79.2419 116.609C79.7728 122.526 80.3493 128.126 80.3915 128.559C80.49 129.424 80.2017 130.383 80.5884 131.129C80.9716 131.899 81.9349 132.113 83.4467 132.092C83.9283 132.092 89.0015 132.162 95.9943 132.257C112.627 132.451 139.909 132.813 139.909 132.813C139.909 132.813 168.056 132.401 184.619 132.162C191.179 132.067 195.939 131.994 196.372 131.994C197.887 131.994 198.847 131.804 199.255 131.034C199.613 130.288 199.328 129.325 199.427 128.46C199.497 127.859 200.482 117.744 201.132 110.288C201.417 106.997 201.638 104.233 201.709 103.006C201.902 98.9915 201.037 97.55 200.939 95.5566Z" fill="white"/>
<path d="M200.939 95.5566C200.816 93.5351 196.129 89.2107 194.783 87.8888C193.893 87.0205 190.771 84.352 189.738 83.684C189.112 83.2973 188.992 83.2973 188.823 82.9106C188.729 82.6258 188.609 82.1441 188.296 81.2055C188.177 80.8715 187.885 80.2668 187.431 79.4757C184.738 74.5959 176.881 62.4561 176.227 61.7846C175.432 61.0147 173.727 59.4748 171.276 59.0458C168.851 58.638 144.452 57.3618 139.86 57.3618C135.247 57.3618 110.848 58.6837 108.422 59.1162C105.972 59.5486 104.26 61.0639 103.497 61.8303C102.843 62.5053 94.9853 74.6697 92.3204 79.546C91.8598 80.3652 91.5715 80.9664 91.452 81.2758C91.1391 82.2391 91.0196 82.7207 90.9246 82.9844C90.8016 83.2481 90.1758 83.684 89.9367 83.8001C89.8875 83.8493 89.8664 83.8739 89.8664 83.8739C89.1914 84.3309 86.4526 86.1802 84.9866 87.7447C82.7506 90.1002 78.929 93.6335 78.8305 95.6516C78.7391 97.6731 77.8708 99.0864 78.0852 103.126C78.1626 105.074 78.7145 110.987 79.2419 116.609C79.7728 122.526 80.3493 128.126 80.3915 128.559C80.49 129.424 80.2017 130.383 80.5884 131.129C80.9716 131.899 81.9349 132.113 83.4467 132.092C83.9283 132.092 89.0015 132.162 95.9943 132.257C112.627 132.451 139.909 132.813 139.909 132.813C139.909 132.813 168.056 132.401 184.619 132.162C191.179 132.067 195.939 131.994 196.372 131.994C197.887 131.994 198.847 131.804 199.255 131.034C199.613 130.288 199.328 129.325 199.427 128.46C199.497 127.859 200.482 117.744 201.132 110.288C201.417 106.997 201.638 104.233 201.709 103.006C201.902 98.9915 201.037 97.55 200.939 95.5566M192.645 128.365C189.906 128.365 187.287 128.46 184.619 128.509C183.511 128.534 182.432 128.534 181.324 128.534C179.018 128.534 174.159 128.727 172.071 127.958C168.636 126.804 167.743 122.262 166.804 119.017C167.047 118.943 167.286 118.898 167.55 118.848C167.887 118.799 168.271 118.729 168.657 118.655C168.896 118.63 169.16 118.585 169.427 118.535C169.522 118.535 169.592 118.535 169.691 118.511C170.025 118.465 170.412 118.412 170.77 118.363H170.869C171.227 118.317 171.614 118.268 171.997 118.219C172.936 118.128 173.92 118.033 174.954 117.959C175.246 117.959 175.531 117.934 175.819 117.91C177.38 117.79 178.993 117.695 180.576 117.646C180.987 117.618 181.398 117.597 181.806 117.572H182.696C183.054 117.551 183.388 117.551 183.754 117.526H184.591C188.704 117.453 192.044 117.618 193.007 117.959C195.577 118.919 195.12 121.274 195.894 123.774C196.66 127.212 196.087 128.365 192.645 128.365V128.365ZM162.958 123.605C161.735 127.043 156.95 126.586 156.472 126.586L123.347 126.611C122.89 126.611 118.084 127.093 116.857 123.654C115.584 120.195 113.685 114.64 113.014 111.877C112.293 108.966 109.938 103.97 124.018 104.279C131.278 104.423 136.517 104.423 139.885 104.378C143.274 104.423 148.512 104.423 155.776 104.258C169.839 103.921 167.504 108.92 166.783 111.827C166.108 114.591 164.21 120.17 162.958 123.605V123.605ZM107.772 128.003C105.656 128.773 100.8 128.604 98.494 128.604C97.6502 128.604 96.8099 128.604 95.9943 128.583C93.9763 128.559 91.9547 128.509 89.9121 128.485C89.0015 128.46 88.1121 128.46 87.1734 128.46C83.735 128.46 83.1584 127.307 83.9283 123.872C84.6983 121.373 84.2131 119.017 86.7901 118.054C87.7253 117.716 90.8508 117.572 94.7216 117.597C95.133 117.597 95.5619 117.597 95.9943 117.618C97.267 117.646 98.6135 117.667 99.9882 117.744C100.8 117.762 101.616 117.811 102.435 117.864C102.752 117.864 103.036 117.888 103.325 117.91C103.785 117.934 104.218 117.983 104.646 118.008C105.082 118.033 105.515 118.078 105.947 118.103C106.38 118.152 106.788 118.198 107.195 118.219C107.821 118.268 108.422 118.342 108.999 118.412C109.382 118.465 109.769 118.511 110.103 118.56C110.416 118.609 110.704 118.655 110.992 118.68C111.137 118.704 111.277 118.729 111.404 118.753C111.594 118.771 111.762 118.82 111.931 118.848C112.005 118.869 112.075 118.869 112.124 118.869C112.244 118.898 112.364 118.919 112.48 118.943C112.676 118.992 112.845 119.017 113.014 119.063C112.051 122.308 111.21 126.85 107.772 128.003V128.003ZM85.201 95.866C85.6335 93.8726 86.0694 94.1609 88.207 94.1363C91.4977 94.1363 94.6724 94.4492 97.9666 95.0258C102.294 95.7219 107.315 95.5777 111.594 96.8539C106.619 105.77 101.141 104.209 94.8165 104.209C91.3782 104.209 86.0694 104.209 85.201 100.05C84.9127 98.8966 84.9127 97.1668 85.201 95.866V95.866ZM104.745 62.4315L139.885 61.208L174.954 62.3612C174.954 62.3612 187.621 82.0738 186.661 82.0738C185.747 82.0738 154.092 80.2914 139.86 80.6043C125.653 80.316 93.9763 82.1441 93.0868 82.1441C92.127 82.1441 104.745 62.4315 104.745 62.4315ZM191.541 94.066C193.703 94.066 194.136 93.7777 194.568 95.7711C194.856 97.0719 194.856 98.8016 194.568 99.9548C193.703 104.114 188.416 104.114 184.953 104.114C178.631 104.135 173.15 105.699 168.176 96.8047C172.458 95.532 177.503 95.6516 181.806 94.9554C185.076 94.3543 188.247 94.066 191.541 94.066Z" stroke="white" stroke-width="2"/>
<path d="M96.0017 134.606V141.219C96.0017 141.841 95.4955 142.372 94.8732 142.372L80.4236 142.393C79.7802 142.393 79.2739 141.866 79.2739 141.24V133.235C80.5255 134.388 82.3502 134.437 83.3592 134.437C83.3838 134.437 95.9771 134.606 95.9771 134.606H96.0017Z" fill="white" stroke="white" stroke-width="2"/>
<path d="M201.376 132.177V141.192C201.376 141.842 200.87 142.348 200.223 142.348L185.777 142.366C185.155 142.366 184.624 141.842 184.624 141.213V134.582C191.451 134.484 196.285 134.413 196.377 134.413C197.509 134.413 200.132 134.413 201.376 132.177Z" fill="white"/>
<path d="M201.376 132.177V141.192C201.376 141.842 200.87 142.348 200.223 142.348L185.777 142.366C185.155 142.366 184.624 141.842 184.624 141.213V134.582C191.451 134.484 196.285 134.413 196.377 134.413C197.509 134.413 200.132 134.413 201.376 132.177" stroke="white" stroke-width="2"/>
<path d="M94.7034 123.068C94.7034 125.483 92.7451 127.445 90.3298 127.452C87.9145 127.452 85.9527 125.494 85.9492 123.075C85.9492 120.656 87.9075 118.694 90.3298 118.694C92.7381 118.694 94.6999 120.653 94.7034 123.068Z" fill="white" stroke="white" stroke-width="2"/>
<path d="M198.345 82.308C196.915 82.642 195.413 82.8389 193.982 83.0779C193.314 83.1729 192.319 83.5526 191.641 83.4155C191.068 83.2678 190.976 82.7967 190.495 82.5998C189.996 82.4416 189.387 82.6807 188.839 82.8213C188.737 82.5541 188.607 82.076 188.297 81.1197C188.181 80.7998 187.886 80.1915 187.433 79.3864C190.776 79.9911 189.887 75.8391 192.119 74.4679C193.638 73.5468 195.846 74.2746 197.477 74.5594C199.098 74.7984 201.154 75.4629 201.299 77.4704C201.439 79.6255 200.641 81.7701 198.345 82.308Z" fill="white"/>
<path d="M198.345 82.308C196.915 82.642 195.413 82.8389 193.982 83.0779C193.314 83.1729 192.319 83.5526 191.641 83.4155C191.068 83.2678 190.976 82.7967 190.495 82.5998C189.996 82.4416 189.387 82.6807 188.839 82.8213C188.737 82.5541 188.607 82.076 188.297 81.1197C188.181 80.7998 187.886 80.1915 187.433 79.3864C190.776 79.9911 189.887 75.8391 192.119 74.4679C193.638 73.5468 195.846 74.2746 197.477 74.5594C199.098 74.7984 201.154 75.4629 201.299 77.4704C201.439 79.6255 200.641 81.7701 198.345 82.308" stroke="white" stroke-width="2"/>
<path d="M102.232 123.139C102.236 124.858 100.84 126.261 99.1136 126.261C97.3944 126.261 95.9951 124.865 95.9951 123.142C95.9916 121.416 97.3873 120.017 99.1136 120.017C100.84 120.013 102.236 121.412 102.232 123.139Z" fill="white"/>
<path d="M102.232 123.139C102.236 124.858 100.84 126.261 99.1136 126.261C97.3944 126.261 95.9951 124.865 95.9951 123.142C95.9916 121.416 97.3873 120.017 99.1136 120.017C100.84 120.013 102.236 121.412 102.232 123.139" stroke="white" stroke-width="2"/>
<path d="M193.606 122.94C193.616 125.355 191.658 127.32 189.232 127.32C186.82 127.324 184.855 125.362 184.855 122.943C184.848 120.531 186.813 118.57 189.225 118.562C191.648 118.566 193.613 120.521 193.606 122.94Z" fill="white"/>
<path d="M193.606 122.94C193.616 125.355 191.658 127.32 189.232 127.32C186.82 127.324 184.855 125.362 184.855 122.943C184.848 120.531 186.813 118.57 189.225 118.562C191.648 118.566 193.613 120.521 193.606 122.94" stroke="white" stroke-width="2"/>
<path d="M183.128 123.003C183.135 124.732 181.736 126.128 180.01 126.132C178.294 126.132 176.891 124.736 176.891 123.01C176.895 121.287 178.283 119.884 180.006 119.884C181.736 119.884 183.132 121.28 183.128 123.003Z" fill="white" stroke="white" stroke-width="2"/>
<defs>
<filter id="filter0_d" x="0" y="0" width="287" height="361" filterUnits="userSpaceOnUse" color-interpolation-filters="sRGB">
<feFlood flood-opacity="0" result="BackgroundImageFix"/>
<feColorMatrix in="SourceAlpha" type="matrix" values="0 0 0 0 0 0 0 0 0 0 0 0 0 0 0 0 0 0 127 0"/>
<feOffset dx="4" dy="4"/>
<feGaussianBlur stdDeviation="2"/>
<feColorMatrix type="matrix" values="0 0 0 0 0 0 0 0 0 0 0 0 0 0 0 0 0 0 0.25 0"/>
<feBlend mode="normal" in2="BackgroundImageFix" result="effect1_dropShadow"/>
<feBlend mode="normal" in="SourceGraphic" in2="effect1_dropShadow" result="shape"/>
</filter>
</defs>
</svg>
